<?xml version="1.0" encoding="utf-8" standalone="no"?>
<!DOCTYPE svg PUBLIC "-//W3C//DTD SVG 1.1//EN"
  "http://www.w3.org/Graphics/SVG/1.1/DTD/svg11.dtd">
<svg xmlns:xlink="http://www.w3.org/1999/xlink" width="460.8pt" height="345.6pt" viewBox="0 0 460.8 345.6" xmlns="http://www.w3.org/2000/svg" version="1.1">
 <metadata>
  <rdf:RDF xmlns:dc="http://purl.org/dc/elements/1.1/" xmlns:cc="http://creativecommons.org/ns#" xmlns:rdf="http://www.w3.org/1999/02/22-rdf-syntax-ns#">
   <cc:Work>
    <dc:type rdf:resource="http://purl.org/dc/dcmitype/StillImage"/>
    <dc:date>2024-06-04T11:43:56.529392</dc:date>
    <dc:format>image/svg+xml</dc:format>
    <dc:creator>
     <cc:Agent>
      <dc:title>Matplotlib v3.8.4, https://matplotlib.org/</dc:title>
     </cc:Agent>
    </dc:creator>
   </cc:Work>
  </rdf:RDF>
 </metadata>
 <defs>
  <style type="text/css">*{stroke-linejoin: round; stroke-linecap: butt}</style>
 </defs>
 <g id="figure_1">
  <g id="patch_1">
   <path d="M 0 345.6 
L 460.8 345.6 
L 460.8 0 
L 0 0 
z
" style="fill: #ffffff"/>
  </g>
  <g id="axes_1">
   <g id="patch_2">
    <path d="M 57.6 307.584 
L 414.72 307.584 
L 414.72 41.472 
L 57.6 41.472 
z
" style="fill: #ffffff"/>
   </g>
   <g id="matplotlib.axis_1">
    <g id="xtick_1">
     <g id="line2d_1">
      <path d="M 73.832727 307.584 
L 73.832727 41.472 
" clip-path="url(#p288167aeb1)" style="fill: none; stroke: #b0b0b0; stroke-width: 0.8; stroke-linecap: square"/>
     </g>
     <g id="line2d_2">
      <defs>
       <path id="m3243816562" d="M 0 0 
L 0 3.5 
" style="stroke: #000000; stroke-width: 0.8"/>
      </defs>
      <g>
       <use xlink:href="#m3243816562" x="73.832727" y="307.584" style="stroke: #000000; stroke-width: 0.8"/>
      </g>
     </g>
     <g id="text_1">
      <!-- 0 -->
      <g transform="translate(70.651477 322.182437) scale(0.1 -0.1)">
       <defs>
        <path id="DejaVuSans-30" d="M 2034 4250 
Q 1547 4250 1301 3770 
Q 1056 3291 1056 2328 
Q 1056 1369 1301 889 
Q 1547 409 2034 409 
Q 2525 409 2770 889 
Q 3016 1369 3016 2328 
Q 3016 3291 2770 3770 
Q 2525 4250 2034 4250 
z
M 2034 4750 
Q 2819 4750 3233 4129 
Q 3647 3509 3647 2328 
Q 3647 1150 3233 529 
Q 2819 -91 2034 -91 
Q 1250 -91 836 529 
Q 422 1150 422 2328 
Q 422 3509 836 4129 
Q 1250 4750 2034 4750 
z
" transform="scale(0.015625)"/>
       </defs>
       <use xlink:href="#DejaVuSans-30"/>
      </g>
     </g>
    </g>
    <g id="xtick_2">
     <g id="line2d_3">
      <path d="M 138.763636 307.584 
L 138.763636 41.472 
" clip-path="url(#p288167aeb1)" style="fill: none; stroke: #b0b0b0; stroke-width: 0.8; stroke-linecap: square"/>
     </g>
     <g id="line2d_4">
      <g>
       <use xlink:href="#m3243816562" x="138.763636" y="307.584" style="stroke: #000000; stroke-width: 0.8"/>
      </g>
     </g>
     <g id="text_2">
      <!-- 20 -->
      <g transform="translate(132.401136 322.182437) scale(0.1 -0.1)">
       <defs>
        <path id="DejaVuSans-32" d="M 1228 531 
L 3431 531 
L 3431 0 
L 469 0 
L 469 531 
Q 828 903 1448 1529 
Q 2069 2156 2228 2338 
Q 2531 2678 2651 2914 
Q 2772 3150 2772 3378 
Q 2772 3750 2511 3984 
Q 2250 4219 1831 4219 
Q 1534 4219 1204 4116 
Q 875 4013 500 3803 
L 500 4441 
Q 881 4594 1212 4672 
Q 1544 4750 1819 4750 
Q 2544 4750 2975 4387 
Q 3406 4025 3406 3419 
Q 3406 3131 3298 2873 
Q 3191 2616 2906 2266 
Q 2828 2175 2409 1742 
Q 1991 1309 1228 531 
z
" transform="scale(0.015625)"/>
       </defs>
       <use xlink:href="#DejaVuSans-32"/>
       <use xlink:href="#DejaVuSans-30" x="63.623047"/>
      </g>
     </g>
    </g>
    <g id="xtick_3">
     <g id="line2d_5">
      <path d="M 203.694545 307.584 
L 203.694545 41.472 
" clip-path="url(#p288167aeb1)" style="fill: none; stroke: #b0b0b0; stroke-width: 0.8; stroke-linecap: square"/>
     </g>
     <g id="line2d_6">
      <g>
       <use xlink:href="#m3243816562" x="203.694545" y="307.584" style="stroke: #000000; stroke-width: 0.8"/>
      </g>
     </g>
     <g id="text_3">
      <!-- 40 -->
      <g transform="translate(197.332045 322.182437) scale(0.1 -0.1)">
       <defs>
        <path id="DejaVuSans-34" d="M 2419 4116 
L 825 1625 
L 2419 1625 
L 2419 4116 
z
M 2253 4666 
L 3047 4666 
L 3047 1625 
L 3713 1625 
L 3713 1100 
L 3047 1100 
L 3047 0 
L 2419 0 
L 2419 1100 
L 313 1100 
L 313 1709 
L 2253 4666 
z
" transform="scale(0.015625)"/>
       </defs>
       <use xlink:href="#DejaVuSans-34"/>
       <use xlink:href="#DejaVuSans-30" x="63.623047"/>
      </g>
     </g>
    </g>
    <g id="xtick_4">
     <g id="line2d_7">
      <path d="M 268.625455 307.584 
L 268.625455 41.472 
" clip-path="url(#p288167aeb1)" style="fill: none; stroke: #b0b0b0; stroke-width: 0.8; stroke-linecap: square"/>
     </g>
     <g id="line2d_8">
      <g>
       <use xlink:href="#m3243816562" x="268.625455" y="307.584" style="stroke: #000000; stroke-width: 0.8"/>
      </g>
     </g>
     <g id="text_4">
      <!-- 60 -->
      <g transform="translate(262.262955 322.182437) scale(0.1 -0.1)">
       <defs>
        <path id="DejaVuSans-36" d="M 2113 2584 
Q 1688 2584 1439 2293 
Q 1191 2003 1191 1497 
Q 1191 994 1439 701 
Q 1688 409 2113 409 
Q 2538 409 2786 701 
Q 3034 994 3034 1497 
Q 3034 2003 2786 2293 
Q 2538 2584 2113 2584 
z
M 3366 4563 
L 3366 3988 
Q 3128 4100 2886 4159 
Q 2644 4219 2406 4219 
Q 1781 4219 1451 3797 
Q 1122 3375 1075 2522 
Q 1259 2794 1537 2939 
Q 1816 3084 2150 3084 
Q 2853 3084 3261 2657 
Q 3669 2231 3669 1497 
Q 3669 778 3244 343 
Q 2819 -91 2113 -91 
Q 1303 -91 875 529 
Q 447 1150 447 2328 
Q 447 3434 972 4092 
Q 1497 4750 2381 4750 
Q 2619 4750 2861 4703 
Q 3103 4656 3366 4563 
z
" transform="scale(0.015625)"/>
       </defs>
       <use xlink:href="#DejaVuSans-36"/>
       <use xlink:href="#DejaVuSans-30" x="63.623047"/>
      </g>
     </g>
    </g>
    <g id="xtick_5">
     <g id="line2d_9">
      <path d="M 333.556364 307.584 
L 333.556364 41.472 
" clip-path="url(#p288167aeb1)" style="fill: none; stroke: #b0b0b0; stroke-width: 0.8; stroke-linecap: square"/>
     </g>
     <g id="line2d_10">
      <g>
       <use xlink:href="#m3243816562" x="333.556364" y="307.584" style="stroke: #000000; stroke-width: 0.8"/>
      </g>
     </g>
     <g id="text_5">
      <!-- 80 -->
      <g transform="translate(327.193864 322.182437) scale(0.1 -0.1)">
       <defs>
        <path id="DejaVuSans-38" d="M 2034 2216 
Q 1584 2216 1326 1975 
Q 1069 1734 1069 1313 
Q 1069 891 1326 650 
Q 1584 409 2034 409 
Q 2484 409 2743 651 
Q 3003 894 3003 1313 
Q 3003 1734 2745 1975 
Q 2488 2216 2034 2216 
z
M 1403 2484 
Q 997 2584 770 2862 
Q 544 3141 544 3541 
Q 544 4100 942 4425 
Q 1341 4750 2034 4750 
Q 2731 4750 3128 4425 
Q 3525 4100 3525 3541 
Q 3525 3141 3298 2862 
Q 3072 2584 2669 2484 
Q 3125 2378 3379 2068 
Q 3634 1759 3634 1313 
Q 3634 634 3220 271 
Q 2806 -91 2034 -91 
Q 1263 -91 848 271 
Q 434 634 434 1313 
Q 434 1759 690 2068 
Q 947 2378 1403 2484 
z
M 1172 3481 
Q 1172 3119 1398 2916 
Q 1625 2713 2034 2713 
Q 2441 2713 2670 2916 
Q 2900 3119 2900 3481 
Q 2900 3844 2670 4047 
Q 2441 4250 2034 4250 
Q 1625 4250 1398 4047 
Q 1172 3844 1172 3481 
z
" transform="scale(0.015625)"/>
       </defs>
       <use xlink:href="#DejaVuSans-38"/>
       <use xlink:href="#DejaVuSans-30" x="63.623047"/>
      </g>
     </g>
    </g>
    <g id="xtick_6">
     <g id="line2d_11">
      <path d="M 398.487273 307.584 
L 398.487273 41.472 
" clip-path="url(#p288167aeb1)" style="fill: none; stroke: #b0b0b0; stroke-width: 0.8; stroke-linecap: square"/>
     </g>
     <g id="line2d_12">
      <g>
       <use xlink:href="#m3243816562" x="398.487273" y="307.584" style="stroke: #000000; stroke-width: 0.8"/>
      </g>
     </g>
     <g id="text_6">
      <!-- 100 -->
      <g transform="translate(388.943523 322.182437) scale(0.1 -0.1)">
       <defs>
        <path id="DejaVuSans-31" d="M 794 531 
L 1825 531 
L 1825 4091 
L 703 3866 
L 703 4441 
L 1819 4666 
L 2450 4666 
L 2450 531 
L 3481 531 
L 3481 0 
L 794 0 
L 794 531 
z
" transform="scale(0.015625)"/>
       </defs>
       <use xlink:href="#DejaVuSans-31"/>
       <use xlink:href="#DejaVuSans-30" x="63.623047"/>
       <use xlink:href="#DejaVuSans-30" x="127.246094"/>
      </g>
     </g>
    </g>
    <g id="text_7">
     <!-- Frequency [Hz] -->
     <g transform="translate(198.455312 335.860562) scale(0.1 -0.1)">
      <defs>
       <path id="DejaVuSans-46" d="M 628 4666 
L 3309 4666 
L 3309 4134 
L 1259 4134 
L 1259 2759 
L 3109 2759 
L 3109 2228 
L 1259 2228 
L 1259 0 
L 628 0 
L 628 4666 
z
" transform="scale(0.015625)"/>
       <path id="DejaVuSans-72" d="M 2631 2963 
Q 2534 3019 2420 3045 
Q 2306 3072 2169 3072 
Q 1681 3072 1420 2755 
Q 1159 2438 1159 1844 
L 1159 0 
L 581 0 
L 581 3500 
L 1159 3500 
L 1159 2956 
Q 1341 3275 1631 3429 
Q 1922 3584 2338 3584 
Q 2397 3584 2469 3576 
Q 2541 3569 2628 3553 
L 2631 2963 
z
" transform="scale(0.015625)"/>
       <path id="DejaVuSans-65" d="M 3597 1894 
L 3597 1613 
L 953 1613 
Q 991 1019 1311 708 
Q 1631 397 2203 397 
Q 2534 397 2845 478 
Q 3156 559 3463 722 
L 3463 178 
Q 3153 47 2828 -22 
Q 2503 -91 2169 -91 
Q 1331 -91 842 396 
Q 353 884 353 1716 
Q 353 2575 817 3079 
Q 1281 3584 2069 3584 
Q 2775 3584 3186 3129 
Q 3597 2675 3597 1894 
z
M 3022 2063 
Q 3016 2534 2758 2815 
Q 2500 3097 2075 3097 
Q 1594 3097 1305 2825 
Q 1016 2553 972 2059 
L 3022 2063 
z
" transform="scale(0.015625)"/>
       <path id="DejaVuSans-71" d="M 947 1747 
Q 947 1113 1208 752 
Q 1469 391 1925 391 
Q 2381 391 2643 752 
Q 2906 1113 2906 1747 
Q 2906 2381 2643 2742 
Q 2381 3103 1925 3103 
Q 1469 3103 1208 2742 
Q 947 2381 947 1747 
z
M 2906 525 
Q 2725 213 2448 61 
Q 2172 -91 1784 -91 
Q 1150 -91 751 415 
Q 353 922 353 1747 
Q 353 2572 751 3078 
Q 1150 3584 1784 3584 
Q 2172 3584 2448 3432 
Q 2725 3281 2906 2969 
L 2906 3500 
L 3481 3500 
L 3481 -1331 
L 2906 -1331 
L 2906 525 
z
" transform="scale(0.015625)"/>
       <path id="DejaVuSans-75" d="M 544 1381 
L 544 3500 
L 1119 3500 
L 1119 1403 
Q 1119 906 1312 657 
Q 1506 409 1894 409 
Q 2359 409 2629 706 
Q 2900 1003 2900 1516 
L 2900 3500 
L 3475 3500 
L 3475 0 
L 2900 0 
L 2900 538 
Q 2691 219 2414 64 
Q 2138 -91 1772 -91 
Q 1169 -91 856 284 
Q 544 659 544 1381 
z
M 1991 3584 
L 1991 3584 
z
" transform="scale(0.015625)"/>
       <path id="DejaVuSans-6e" d="M 3513 2113 
L 3513 0 
L 2938 0 
L 2938 2094 
Q 2938 2591 2744 2837 
Q 2550 3084 2163 3084 
Q 1697 3084 1428 2787 
Q 1159 2491 1159 1978 
L 1159 0 
L 581 0 
L 581 3500 
L 1159 3500 
L 1159 2956 
Q 1366 3272 1645 3428 
Q 1925 3584 2291 3584 
Q 2894 3584 3203 3211 
Q 3513 2838 3513 2113 
z
" transform="scale(0.015625)"/>
       <path id="DejaVuSans-63" d="M 3122 3366 
L 3122 2828 
Q 2878 2963 2633 3030 
Q 2388 3097 2138 3097 
Q 1578 3097 1268 2742 
Q 959 2388 959 1747 
Q 959 1106 1268 751 
Q 1578 397 2138 397 
Q 2388 397 2633 464 
Q 2878 531 3122 666 
L 3122 134 
Q 2881 22 2623 -34 
Q 2366 -91 2075 -91 
Q 1284 -91 818 406 
Q 353 903 353 1747 
Q 353 2603 823 3093 
Q 1294 3584 2113 3584 
Q 2378 3584 2631 3529 
Q 2884 3475 3122 3366 
z
" transform="scale(0.015625)"/>
       <path id="DejaVuSans-79" d="M 2059 -325 
Q 1816 -950 1584 -1140 
Q 1353 -1331 966 -1331 
L 506 -1331 
L 506 -850 
L 844 -850 
Q 1081 -850 1212 -737 
Q 1344 -625 1503 -206 
L 1606 56 
L 191 3500 
L 800 3500 
L 1894 763 
L 2988 3500 
L 3597 3500 
L 2059 -325 
z
" transform="scale(0.015625)"/>
       <path id="DejaVuSans-20" transform="scale(0.015625)"/>
       <path id="DejaVuSans-5b" d="M 550 4863 
L 1875 4863 
L 1875 4416 
L 1125 4416 
L 1125 -397 
L 1875 -397 
L 1875 -844 
L 550 -844 
L 550 4863 
z
" transform="scale(0.015625)"/>
       <path id="DejaVuSans-48" d="M 628 4666 
L 1259 4666 
L 1259 2753 
L 3553 2753 
L 3553 4666 
L 4184 4666 
L 4184 0 
L 3553 0 
L 3553 2222 
L 1259 2222 
L 1259 0 
L 628 0 
L 628 4666 
z
" transform="scale(0.015625)"/>
       <path id="DejaVuSans-7a" d="M 353 3500 
L 3084 3500 
L 3084 2975 
L 922 459 
L 3084 459 
L 3084 0 
L 275 0 
L 275 525 
L 2438 3041 
L 353 3041 
L 353 3500 
z
" transform="scale(0.015625)"/>
       <path id="DejaVuSans-5d" d="M 1947 4863 
L 1947 -844 
L 622 -844 
L 622 -397 
L 1369 -397 
L 1369 4416 
L 622 4416 
L 622 4863 
L 1947 4863 
z
" transform="scale(0.015625)"/>
      </defs>
      <use xlink:href="#DejaVuSans-46"/>
      <use xlink:href="#DejaVuSans-72" x="50.269531"/>
      <use xlink:href="#DejaVuSans-65" x="89.132812"/>
      <use xlink:href="#DejaVuSans-71" x="150.65625"/>
      <use xlink:href="#DejaVuSans-75" x="214.132812"/>
      <use xlink:href="#DejaVuSans-65" x="277.511719"/>
      <use xlink:href="#DejaVuSans-6e" x="339.035156"/>
      <use xlink:href="#DejaVuSans-63" x="402.414062"/>
      <use xlink:href="#DejaVuSans-79" x="457.394531"/>
      <use xlink:href="#DejaVuSans-20" x="516.574219"/>
      <use xlink:href="#DejaVuSans-5b" x="548.361328"/>
      <use xlink:href="#DejaVuSans-48" x="587.375"/>
      <use xlink:href="#DejaVuSans-7a" x="662.570312"/>
      <use xlink:href="#DejaVuSans-5d" x="715.060547"/>
     </g>
    </g>
   </g>
   <g id="matplotlib.axis_2">
    <g id="ytick_1">
     <g id="line2d_13">
      <path d="M 57.6 301.189864 
L 414.72 301.189864 
" clip-path="url(#p288167aeb1)" style="fill: none; stroke: #b0b0b0; stroke-width: 0.8; stroke-linecap: square"/>
     </g>
     <g id="line2d_14">
      <defs>
       <path id="m3a8e61ca99" d="M 0 0 
L -3.5 0 
" style="stroke: #000000; stroke-width: 0.8"/>
      </defs>
      <g>
       <use xlink:href="#m3a8e61ca99" x="57.6" y="301.189864" style="stroke: #000000; stroke-width: 0.8"/>
      </g>
     </g>
     <g id="text_8">
      <!-- 0.00 -->
      <g transform="translate(28.334375 304.989083) scale(0.1 -0.1)">
       <defs>
        <path id="DejaVuSans-2e" d="M 684 794 
L 1344 794 
L 1344 0 
L 684 0 
L 684 794 
z
" transform="scale(0.015625)"/>
       </defs>
       <use xlink:href="#DejaVuSans-30"/>
       <use xlink:href="#DejaVuSans-2e" x="63.623047"/>
       <use xlink:href="#DejaVuSans-30" x="95.410156"/>
       <use xlink:href="#DejaVuSans-30" x="159.033203"/>
      </g>
     </g>
    </g>
    <g id="ytick_2">
     <g id="line2d_15">
      <path d="M 57.6 254.549216 
L 414.72 254.549216 
" clip-path="url(#p288167aeb1)" style="fill: none; stroke: #b0b0b0; stroke-width: 0.8; stroke-linecap: square"/>
     </g>
     <g id="line2d_16">
      <g>
       <use xlink:href="#m3a8e61ca99" x="57.6" y="254.549216" style="stroke: #000000; stroke-width: 0.8"/>
      </g>
     </g>
     <g id="text_9">
      <!-- 0.05 -->
      <g transform="translate(28.334375 258.348435) scale(0.1 -0.1)">
       <defs>
        <path id="DejaVuSans-35" d="M 691 4666 
L 3169 4666 
L 3169 4134 
L 1269 4134 
L 1269 2991 
Q 1406 3038 1543 3061 
Q 1681 3084 1819 3084 
Q 2600 3084 3056 2656 
Q 3513 2228 3513 1497 
Q 3513 744 3044 326 
Q 2575 -91 1722 -91 
Q 1428 -91 1123 -41 
Q 819 9 494 109 
L 494 744 
Q 775 591 1075 516 
Q 1375 441 1709 441 
Q 2250 441 2565 725 
Q 2881 1009 2881 1497 
Q 2881 1984 2565 2268 
Q 2250 2553 1709 2553 
Q 1456 2553 1204 2497 
Q 953 2441 691 2322 
L 691 4666 
z
" transform="scale(0.015625)"/>
       </defs>
       <use xlink:href="#DejaVuSans-30"/>
       <use xlink:href="#DejaVuSans-2e" x="63.623047"/>
       <use xlink:href="#DejaVuSans-30" x="95.410156"/>
       <use xlink:href="#DejaVuSans-35" x="159.033203"/>
      </g>
     </g>
    </g>
    <g id="ytick_3">
     <g id="line2d_17">
      <path d="M 57.6 207.908569 
L 414.72 207.908569 
" clip-path="url(#p288167aeb1)" style="fill: none; stroke: #b0b0b0; stroke-width: 0.8; stroke-linecap: square"/>
     </g>
     <g id="line2d_18">
      <g>
       <use xlink:href="#m3a8e61ca99" x="57.6" y="207.908569" style="stroke: #000000; stroke-width: 0.8"/>
      </g>
     </g>
     <g id="text_10">
      <!-- 0.10 -->
      <g transform="translate(28.334375 211.707787) scale(0.1 -0.1)">
       <use xlink:href="#DejaVuSans-30"/>
       <use xlink:href="#DejaVuSans-2e" x="63.623047"/>
       <use xlink:href="#DejaVuSans-31" x="95.410156"/>
       <use xlink:href="#DejaVuSans-30" x="159.033203"/>
      </g>
     </g>
    </g>
    <g id="ytick_4">
     <g id="line2d_19">
      <path d="M 57.6 161.267921 
L 414.72 161.267921 
" clip-path="url(#p288167aeb1)" style="fill: none; stroke: #b0b0b0; stroke-width: 0.8; stroke-linecap: square"/>
     </g>
     <g id="line2d_20">
      <g>
       <use xlink:href="#m3a8e61ca99" x="57.6" y="161.267921" style="stroke: #000000; stroke-width: 0.8"/>
      </g>
     </g>
     <g id="text_11">
      <!-- 0.15 -->
      <g transform="translate(28.334375 165.06714) scale(0.1 -0.1)">
       <use xlink:href="#DejaVuSans-30"/>
       <use xlink:href="#DejaVuSans-2e" x="63.623047"/>
       <use xlink:href="#DejaVuSans-31" x="95.410156"/>
       <use xlink:href="#DejaVuSans-35" x="159.033203"/>
      </g>
     </g>
    </g>
    <g id="ytick_5">
     <g id="line2d_21">
      <path d="M 57.6 114.627273 
L 414.72 114.627273 
" clip-path="url(#p288167aeb1)" style="fill: none; stroke: #b0b0b0; stroke-width: 0.8; stroke-linecap: square"/>
     </g>
     <g id="line2d_22">
      <g>
       <use xlink:href="#m3a8e61ca99" x="57.6" y="114.627273" style="stroke: #000000; stroke-width: 0.8"/>
      </g>
     </g>
     <g id="text_12">
      <!-- 0.20 -->
      <g transform="translate(28.334375 118.426492) scale(0.1 -0.1)">
       <use xlink:href="#DejaVuSans-30"/>
       <use xlink:href="#DejaVuSans-2e" x="63.623047"/>
       <use xlink:href="#DejaVuSans-32" x="95.410156"/>
       <use xlink:href="#DejaVuSans-30" x="159.033203"/>
      </g>
     </g>
    </g>
    <g id="ytick_6">
     <g id="line2d_23">
      <path d="M 57.6 67.986626 
L 414.72 67.986626 
" clip-path="url(#p288167aeb1)" style="fill: none; stroke: #b0b0b0; stroke-width: 0.8; stroke-linecap: square"/>
     </g>
     <g id="line2d_24">
      <g>
       <use xlink:href="#m3a8e61ca99" x="57.6" y="67.986626" style="stroke: #000000; stroke-width: 0.8"/>
      </g>
     </g>
     <g id="text_13">
      <!-- 0.25 -->
      <g transform="translate(28.334375 71.785844) scale(0.1 -0.1)">
       <use xlink:href="#DejaVuSans-30"/>
       <use xlink:href="#DejaVuSans-2e" x="63.623047"/>
       <use xlink:href="#DejaVuSans-32" x="95.410156"/>
       <use xlink:href="#DejaVuSans-35" x="159.033203"/>
      </g>
     </g>
    </g>
    <g id="text_14">
     <!-- Spectral Density ($m/s²  / \sqrt{Hz}$) -->
     <g transform="translate(22.234375 244.728) rotate(-90) scale(0.1 -0.1)">
      <defs>
       <path id="DejaVuSans-53" d="M 3425 4513 
L 3425 3897 
Q 3066 4069 2747 4153 
Q 2428 4238 2131 4238 
Q 1616 4238 1336 4038 
Q 1056 3838 1056 3469 
Q 1056 3159 1242 3001 
Q 1428 2844 1947 2747 
L 2328 2669 
Q 3034 2534 3370 2195 
Q 3706 1856 3706 1288 
Q 3706 609 3251 259 
Q 2797 -91 1919 -91 
Q 1588 -91 1214 -16 
Q 841 59 441 206 
L 441 856 
Q 825 641 1194 531 
Q 1563 422 1919 422 
Q 2459 422 2753 634 
Q 3047 847 3047 1241 
Q 3047 1584 2836 1778 
Q 2625 1972 2144 2069 
L 1759 2144 
Q 1053 2284 737 2584 
Q 422 2884 422 3419 
Q 422 4038 858 4394 
Q 1294 4750 2059 4750 
Q 2388 4750 2728 4690 
Q 3069 4631 3425 4513 
z
" transform="scale(0.015625)"/>
       <path id="DejaVuSans-70" d="M 1159 525 
L 1159 -1331 
L 581 -1331 
L 581 3500 
L 1159 3500 
L 1159 2969 
Q 1341 3281 1617 3432 
Q 1894 3584 2278 3584 
Q 2916 3584 3314 3078 
Q 3713 2572 3713 1747 
Q 3713 922 3314 415 
Q 2916 -91 2278 -91 
Q 1894 -91 1617 61 
Q 1341 213 1159 525 
z
M 3116 1747 
Q 3116 2381 2855 2742 
Q 2594 3103 2138 3103 
Q 1681 3103 1420 2742 
Q 1159 2381 1159 1747 
Q 1159 1113 1420 752 
Q 1681 391 2138 391 
Q 2594 391 2855 752 
Q 3116 1113 3116 1747 
z
" transform="scale(0.015625)"/>
       <path id="DejaVuSans-74" d="M 1172 4494 
L 1172 3500 
L 2356 3500 
L 2356 3053 
L 1172 3053 
L 1172 1153 
Q 1172 725 1289 603 
Q 1406 481 1766 481 
L 2356 481 
L 2356 0 
L 1766 0 
Q 1100 0 847 248 
Q 594 497 594 1153 
L 594 3053 
L 172 3053 
L 172 3500 
L 594 3500 
L 594 4494 
L 1172 4494 
z
" transform="scale(0.015625)"/>
       <path id="DejaVuSans-61" d="M 2194 1759 
Q 1497 1759 1228 1600 
Q 959 1441 959 1056 
Q 959 750 1161 570 
Q 1363 391 1709 391 
Q 2188 391 2477 730 
Q 2766 1069 2766 1631 
L 2766 1759 
L 2194 1759 
z
M 3341 1997 
L 3341 0 
L 2766 0 
L 2766 531 
Q 2569 213 2275 61 
Q 1981 -91 1556 -91 
Q 1019 -91 701 211 
Q 384 513 384 1019 
Q 384 1609 779 1909 
Q 1175 2209 1959 2209 
L 2766 2209 
L 2766 2266 
Q 2766 2663 2505 2880 
Q 2244 3097 1772 3097 
Q 1472 3097 1187 3025 
Q 903 2953 641 2809 
L 641 3341 
Q 956 3463 1253 3523 
Q 1550 3584 1831 3584 
Q 2591 3584 2966 3190 
Q 3341 2797 3341 1997 
z
" transform="scale(0.015625)"/>
       <path id="DejaVuSans-6c" d="M 603 4863 
L 1178 4863 
L 1178 0 
L 603 0 
L 603 4863 
z
" transform="scale(0.015625)"/>
       <path id="DejaVuSans-44" d="M 1259 4147 
L 1259 519 
L 2022 519 
Q 2988 519 3436 956 
Q 3884 1394 3884 2338 
Q 3884 3275 3436 3711 
Q 2988 4147 2022 4147 
L 1259 4147 
z
M 628 4666 
L 1925 4666 
Q 3281 4666 3915 4102 
Q 4550 3538 4550 2338 
Q 4550 1131 3912 565 
Q 3275 0 1925 0 
L 628 0 
L 628 4666 
z
" transform="scale(0.015625)"/>
       <path id="DejaVuSans-73" d="M 2834 3397 
L 2834 2853 
Q 2591 2978 2328 3040 
Q 2066 3103 1784 3103 
Q 1356 3103 1142 2972 
Q 928 2841 928 2578 
Q 928 2378 1081 2264 
Q 1234 2150 1697 2047 
L 1894 2003 
Q 2506 1872 2764 1633 
Q 3022 1394 3022 966 
Q 3022 478 2636 193 
Q 2250 -91 1575 -91 
Q 1294 -91 989 -36 
Q 684 19 347 128 
L 347 722 
Q 666 556 975 473 
Q 1284 391 1588 391 
Q 1994 391 2212 530 
Q 2431 669 2431 922 
Q 2431 1156 2273 1281 
Q 2116 1406 1581 1522 
L 1381 1569 
Q 847 1681 609 1914 
Q 372 2147 372 2553 
Q 372 3047 722 3315 
Q 1072 3584 1716 3584 
Q 2034 3584 2315 3537 
Q 2597 3491 2834 3397 
z
" transform="scale(0.015625)"/>
       <path id="DejaVuSans-69" d="M 603 3500 
L 1178 3500 
L 1178 0 
L 603 0 
L 603 3500 
z
M 603 4863 
L 1178 4863 
L 1178 4134 
L 603 4134 
L 603 4863 
z
" transform="scale(0.015625)"/>
       <path id="DejaVuSans-28" d="M 1984 4856 
Q 1566 4138 1362 3434 
Q 1159 2731 1159 2009 
Q 1159 1288 1364 580 
Q 1569 -128 1984 -844 
L 1484 -844 
Q 1016 -109 783 600 
Q 550 1309 550 2009 
Q 550 2706 781 3412 
Q 1013 4119 1484 4856 
L 1984 4856 
z
" transform="scale(0.015625)"/>
       <path id="DejaVuSans-Oblique-6d" d="M 5747 2113 
L 5338 0 
L 4763 0 
L 5166 2094 
Q 5191 2228 5203 2325 
Q 5216 2422 5216 2491 
Q 5216 2772 5059 2928 
Q 4903 3084 4622 3084 
Q 4203 3084 3875 2770 
Q 3547 2456 3450 1953 
L 3066 0 
L 2491 0 
L 2900 2094 
Q 2925 2209 2937 2307 
Q 2950 2406 2950 2484 
Q 2950 2769 2794 2926 
Q 2638 3084 2363 3084 
Q 1938 3084 1609 2770 
Q 1281 2456 1184 1953 
L 800 0 
L 225 0 
L 909 3500 
L 1484 3500 
L 1375 2956 
Q 1609 3263 1923 3423 
Q 2238 3584 2597 3584 
Q 2978 3584 3223 3384 
Q 3469 3184 3519 2828 
Q 3781 3197 4126 3390 
Q 4472 3584 4856 3584 
Q 5306 3584 5551 3325 
Q 5797 3066 5797 2591 
Q 5797 2488 5784 2364 
Q 5772 2241 5747 2113 
z
" transform="scale(0.015625)"/>
       <path id="DejaVuSans-2f" d="M 1625 4666 
L 2156 4666 
L 531 -594 
L 0 -594 
L 1625 4666 
z
" transform="scale(0.015625)"/>
       <path id="DejaVuSans-Oblique-73" d="M 3200 3397 
L 3091 2853 
Q 2863 2978 2609 3040 
Q 2356 3103 2088 3103 
Q 1634 3103 1373 2948 
Q 1113 2794 1113 2528 
Q 1113 2219 1719 2053 
Q 1766 2041 1788 2034 
L 1972 1978 
Q 2547 1819 2739 1644 
Q 2931 1469 2931 1166 
Q 2931 609 2489 259 
Q 2047 -91 1331 -91 
Q 1053 -91 747 -37 
Q 441 16 72 128 
L 184 722 
Q 500 559 806 475 
Q 1113 391 1394 391 
Q 1816 391 2080 572 
Q 2344 753 2344 1031 
Q 2344 1331 1650 1516 
L 1591 1531 
L 1394 1581 
Q 956 1697 753 1886 
Q 550 2075 550 2369 
Q 550 2928 970 3256 
Q 1391 3584 2113 3584 
Q 2397 3584 2667 3537 
Q 2938 3491 3200 3397 
z
" transform="scale(0.015625)"/>
       <path id="DejaVuSans-b2" d="M 838 2444 
L 2163 2444 
L 2163 2088 
L 294 2088 
L 294 2431 
Q 400 2528 597 2703 
Q 1672 3656 1672 3950 
Q 1672 4156 1509 4282 
Q 1347 4409 1081 4409 
Q 919 4409 728 4354 
Q 538 4300 313 4191 
L 313 4575 
Q 553 4663 761 4706 
Q 969 4750 1147 4750 
Q 1600 4750 1872 4544 
Q 2144 4338 2144 4000 
Q 2144 3566 1109 2678 
Q 934 2528 838 2444 
z
" transform="scale(0.015625)"/>
       <path id="STIXSizeOneSym-Regular-221a" d="M 6970 9933 
L 3373 -1888 
L 3104 -1888 
L 1626 2918 
Q 1555 3149 1465 3251 
Q 1376 3354 1229 3354 
Q 1011 3354 794 3181 
L 717 3309 
L 1766 4115 
L 1926 4115 
L 3379 -602 
L 3405 -602 
L 6605 9933 
L 6970 9933 
z
" transform="scale(0.015625)"/>
       <path id="DejaVuSans-Oblique-48" d="M 1081 4666 
L 1716 4666 
L 1344 2753 
L 3634 2753 
L 4006 4666 
L 4641 4666 
L 3731 0 
L 3097 0 
L 3531 2222 
L 1241 2222 
L 806 0 
L 172 0 
L 1081 4666 
z
" transform="scale(0.015625)"/>
       <path id="DejaVuSans-Oblique-7a" d="M 744 3500 
L 3475 3500 
L 3372 2975 
L 738 459 
L 2913 459 
L 2822 0 
L -19 0 
L 84 525 
L 2719 3041 
L 653 3041 
L 744 3500 
z
" transform="scale(0.015625)"/>
       <path id="DejaVuSans-29" d="M 513 4856 
L 1013 4856 
Q 1481 4119 1714 3412 
Q 1947 2706 1947 2009 
Q 1947 1309 1714 600 
Q 1481 -109 1013 -844 
L 513 -844 
Q 928 -128 1133 580 
Q 1338 1288 1338 2009 
Q 1338 2731 1133 3434 
Q 928 4138 513 4856 
z
" transform="scale(0.015625)"/>
      </defs>
      <use xlink:href="#DejaVuSans-53" transform="translate(0 0.578125)"/>
      <use xlink:href="#DejaVuSans-70" transform="translate(63.476562 0.578125)"/>
      <use xlink:href="#DejaVuSans-65" transform="translate(126.953125 0.578125)"/>
      <use xlink:href="#DejaVuSans-63" transform="translate(188.476562 0.578125)"/>
      <use xlink:href="#DejaVuSans-74" transform="translate(243.457031 0.578125)"/>
      <use xlink:href="#DejaVuSans-72" transform="translate(282.666016 0.578125)"/>
      <use xlink:href="#DejaVuSans-61" transform="translate(323.779297 0.578125)"/>
      <use xlink:href="#DejaVuSans-6c" transform="translate(385.058594 0.578125)"/>
      <use xlink:href="#DejaVuSans-20" transform="translate(412.841797 0.578125)"/>
      <use xlink:href="#DejaVuSans-44" transform="translate(444.628906 0.578125)"/>
      <use xlink:href="#DejaVuSans-65" transform="translate(521.630859 0.578125)"/>
      <use xlink:href="#DejaVuSans-6e" transform="translate(583.154297 0.578125)"/>
      <use xlink:href="#DejaVuSans-73" transform="translate(646.533203 0.578125)"/>
      <use xlink:href="#DejaVuSans-69" transform="translate(698.632812 0.578125)"/>
      <use xlink:href="#DejaVuSans-74" transform="translate(726.416016 0.578125)"/>
      <use xlink:href="#DejaVuSans-79" transform="translate(765.625 0.578125)"/>
      <use xlink:href="#DejaVuSans-20" transform="translate(824.804688 0.578125)"/>
      <use xlink:href="#DejaVuSans-28" transform="translate(856.591797 0.578125)"/>
      <use xlink:href="#DejaVuSans-Oblique-6d" transform="translate(895.605469 0.578125)"/>
      <use xlink:href="#DejaVuSans-2f" transform="translate(993.017578 0.578125)"/>
      <use xlink:href="#DejaVuSans-Oblique-73" transform="translate(1026.708984 0.578125)"/>
      <use xlink:href="#DejaVuSans-b2" transform="translate(1078.808594 0.578125)"/>
      <use xlink:href="#DejaVuSans-2f" transform="translate(1118.896484 0.578125)"/>
      <use xlink:href="#STIXSizeOneSym-Regular-221a" transform="translate(1152.587891 17.09375) scale(0.563912)"/>
      <use xlink:href="#DejaVuSans-Oblique-48" transform="translate(1224.676254 0.84375)"/>
      <use xlink:href="#DejaVuSans-Oblique-7a" transform="translate(1299.871567 0.84375)"/>
      <use xlink:href="#DejaVuSans-29" transform="translate(1364.861801 0.578125)"/>
      <path d="M 1212.176254 97.5 
L 1212.176254 103.75 
L 1364.861801 103.75 
L 1364.861801 97.5 
L 1212.176254 97.5 
z
"/>
     </g>
    </g>
   </g>
   <g id="line2d_25">
    <path d="M 73.832727 286.783459 
L 74.466818 269.048714 
L 75.100909 275.958478 
L 75.735 284.825539 
L 76.369091 287.1074 
L 77.003182 288.295309 
L 78.271364 290.00875 
L 78.905455 290.493384 
L 79.539545 290.471886 
L 80.173636 288.782406 
L 80.807727 287.562416 
L 81.441818 288.12935 
L 82.075909 288.098409 
L 82.71 289.671654 
L 83.344091 289.096166 
L 83.978182 287.498001 
L 84.612273 288.152067 
L 85.246364 289.298618 
L 85.880455 288.403796 
L 86.514545 288.171338 
L 87.148636 287.468295 
L 87.782727 290.1399 
L 88.416818 289.626326 
L 89.050909 287.801445 
L 89.685 286.783018 
L 90.319091 286.714898 
L 90.953182 287.707687 
L 91.587273 285.219309 
L 92.221364 285.134172 
L 92.855455 286.683063 
L 93.489545 285.302144 
L 94.123636 285.02709 
L 94.757727 286.714382 
L 95.391818 285.486461 
L 96.025909 284.637947 
L 96.66 285.130964 
L 97.294091 286.516263 
L 97.928182 286.548186 
L 98.562273 285.631255 
L 99.196364 285.272207 
L 99.830455 284.292068 
L 100.464545 282.452448 
L 101.098636 283.97396 
L 101.732727 282.385943 
L 102.366818 283.676293 
L 103.000909 284.508977 
L 103.635 282.320952 
L 104.269091 284.451624 
L 104.903182 282.279056 
L 105.537273 280.5253 
L 106.171364 280.827361 
L 106.805455 279.81091 
L 107.439545 281.373544 
L 108.073636 280.685747 
L 108.707727 280.257039 
L 109.341818 277.522325 
L 109.975909 281.255945 
L 110.61 281.380903 
L 111.878182 280.526008 
L 112.512273 281.864788 
L 113.146364 282.693152 
L 113.780455 280.905455 
L 114.414545 281.701651 
L 115.048636 283.204494 
L 115.682727 282.088605 
L 116.316818 283.485836 
L 116.950909 286.315857 
L 117.585 286.760356 
L 118.219091 284.840532 
L 118.853182 285.483532 
L 119.487273 288.431717 
L 120.121364 287.56075 
L 120.755455 284.516271 
L 121.389545 284.267697 
L 122.023636 286.213365 
L 122.657727 285.559623 
L 123.291818 285.187508 
L 124.56 287.562611 
L 125.194091 287.188522 
L 125.828182 285.910143 
L 126.462273 286.084583 
L 127.096364 286.45218 
L 127.730455 288.664739 
L 128.364545 290.033072 
L 128.998636 289.197351 
L 129.632727 288.726867 
L 130.266818 288.795027 
L 130.900909 287.881044 
L 131.535 286.195204 
L 132.169091 288.748148 
L 132.803182 288.991723 
L 134.071364 288.419664 
L 134.705455 290.776603 
L 135.339545 290.33103 
L 135.973636 288.584072 
L 136.607727 288.736828 
L 137.241818 288.700013 
L 137.875909 288.36236 
L 138.51 288.49854 
L 139.144091 289.550977 
L 139.778182 291.123006 
L 140.412273 290.51319 
L 141.046364 291.658023 
L 141.680455 291.826296 
L 142.314545 290.603831 
L 143.582727 290.610902 
L 144.216818 290.779448 
L 144.850909 291.797474 
L 145.485 291.961712 
L 146.119091 290.88055 
L 146.753182 291.00495 
L 147.387273 291.54073 
L 148.021364 291.434233 
L 148.655455 291.506259 
L 149.923636 292.194557 
L 150.557727 292.209892 
L 151.191818 292.459427 
L 151.825909 292.964243 
L 152.46 292.068571 
L 153.094091 291.69485 
L 154.362273 288.283144 
L 154.996364 288.180805 
L 155.630455 289.188818 
L 156.264545 289.641073 
L 156.898636 288.100785 
L 157.532727 287.542074 
L 158.166818 288.666898 
L 158.800909 289.289716 
L 159.435 289.541836 
L 160.703182 290.981008 
L 161.971364 284.617515 
L 163.239545 285.634116 
L 163.873636 284.412947 
L 164.507727 279.46427 
L 165.141818 279.295467 
L 165.775909 280.15041 
L 166.41 278.431838 
L 167.044091 278.021499 
L 167.678182 280.805144 
L 168.312273 278.967221 
L 168.946364 279.484411 
L 169.580455 282.17042 
L 170.214545 279.55727 
L 170.848636 277.937501 
L 171.482727 282.342268 
L 172.116818 281.473936 
L 172.750909 281.000508 
L 174.019091 284.411677 
L 174.653182 285.002825 
L 175.287273 289.020883 
L 175.921364 286.62828 
L 176.555455 286.295358 
L 177.189545 288.965076 
L 177.823636 290.091382 
L 178.457727 290.181184 
L 179.091818 289.684603 
L 180.36 292.356285 
L 180.994091 291.997729 
L 181.628182 291.88273 
L 182.262273 291.202698 
L 182.896364 291.12038 
L 183.530455 290.678026 
L 184.164545 293.279564 
L 184.798636 291.889125 
L 185.432727 290.036668 
L 186.066818 291.407407 
L 186.700909 291.164273 
L 187.335 291.060791 
L 187.969091 287.932694 
L 188.603182 289.352858 
L 189.237273 288.511258 
L 189.871364 288.831644 
L 190.505455 286.415815 
L 191.139545 288.294028 
L 191.773636 283.738283 
L 192.407727 282.676709 
L 193.041818 287.207838 
L 193.675909 283.081984 
L 194.31 286.143272 
L 194.944091 284.173239 
L 195.578182 288.501553 
L 196.212273 285.750226 
L 196.846364 286.865139 
L 197.480455 285.04262 
L 198.114545 284.858984 
L 198.748636 287.876087 
L 199.382727 287.333089 
L 200.016818 287.418366 
L 200.650909 287.815918 
L 201.285 287.377087 
L 201.919091 288.214061 
L 202.553182 290.275198 
L 203.187273 287.572698 
L 203.821364 287.376192 
L 204.455455 287.713004 
L 205.089545 287.575393 
L 205.723636 288.364335 
L 206.357727 288.787821 
L 206.991818 290.720982 
L 207.625909 289.757315 
L 208.26 289.133058 
L 208.894091 289.460906 
L 209.528182 289.27949 
L 210.162273 288.799175 
L 210.796364 289.251797 
L 211.430455 290.038151 
L 212.064545 287.993302 
L 212.698636 286.740788 
L 213.332727 289.389336 
L 213.966818 290.121459 
L 214.600909 287.670725 
L 215.235 287.862292 
L 215.869091 290.147127 
L 216.503182 289.374338 
L 217.137273 287.835279 
L 217.771364 289.181212 
L 218.405455 289.33704 
L 219.039545 286.981186 
L 219.673636 285.889838 
L 220.307727 285.846464 
L 220.941818 285.995283 
L 221.575909 287.848439 
L 222.21 285.7202 
L 222.844091 286.096461 
L 223.478182 283.799606 
L 224.112273 282.899035 
L 224.746364 282.318024 
L 226.014545 281.902597 
L 226.648636 281.212035 
L 227.916818 277.03846 
L 228.550909 276.369892 
L 230.453182 262.068953 
L 231.087273 262.579416 
L 231.721364 265.872132 
L 232.989545 257.244049 
L 233.623636 254.697089 
L 234.257727 254.833883 
L 234.891818 258.264914 
L 236.16 248.401622 
L 236.794091 251.835142 
L 238.062273 260.476799 
L 238.696364 263.659488 
L 239.330455 260.353322 
L 239.964545 262.742152 
L 240.598636 260.587424 
L 241.866818 274.160343 
L 242.500909 279.289707 
L 243.135 277.832207 
L 243.769091 279.529209 
L 244.403182 280.573546 
L 245.671364 283.304682 
L 246.305455 282.543676 
L 246.939545 281.262469 
L 247.573636 283.581952 
L 248.207727 283.403798 
L 248.841818 283.417054 
L 249.475909 283.94749 
L 250.11 283.538696 
L 250.744091 285.827231 
L 251.378182 285.327269 
L 252.012273 284.166465 
L 252.646364 283.835867 
L 253.280455 284.027085 
L 253.914545 285.032165 
L 254.548636 285.435639 
L 255.816818 280.975092 
L 256.450909 281.057798 
L 257.085 282.956821 
L 258.353182 282.152341 
L 259.621364 284.870075 
L 260.255455 285.533833 
L 260.889545 285.190698 
L 261.523636 284.98153 
L 262.157727 284.104311 
L 262.791818 284.316614 
L 263.425909 284.104887 
L 264.06 284.632155 
L 264.694091 284.50741 
L 265.328182 285.53828 
L 265.962273 285.559925 
L 266.596364 285.079438 
L 267.230455 286.100805 
L 267.864545 286.812387 
L 268.498636 284.98239 
L 269.132727 285.382592 
L 269.766818 283.12952 
L 271.035 263.395213 
L 271.669091 266.755991 
L 272.303182 279.353318 
L 272.937273 286.248325 
L 273.571364 285.249926 
L 274.205455 284.699836 
L 274.839545 284.506498 
L 275.473636 286.100913 
L 276.107727 287.126461 
L 276.741818 289.102867 
L 277.375909 287.880271 
L 278.01 287.265814 
L 278.644091 284.754265 
L 279.278182 283.911405 
L 279.912273 270.016078 
L 280.546364 259.354554 
L 281.180455 266.14822 
L 281.814545 264.150756 
L 282.448636 240.736254 
L 283.082727 232.731322 
L 283.716818 250.162524 
L 284.350909 278.139308 
L 284.985 278.607898 
L 285.619091 266.327546 
L 286.253182 266.54309 
L 286.887273 274.55176 
L 287.521364 285.18707 
L 288.789545 281.440684 
L 289.423636 280.620843 
L 290.057727 280.026987 
L 290.691818 279.807126 
L 291.96 274.942009 
L 292.594091 271.574503 
L 293.862273 268.066673 
L 294.496364 262.989799 
L 295.130455 263.869892 
L 295.764545 261.40582 
L 296.398636 256.866502 
L 297.666818 236.588334 
L 298.935 218.890591 
L 299.569091 220.074459 
L 300.203182 222.266416 
L 300.837273 229.573422 
L 301.471364 226.641746 
L 302.105455 228.068097 
L 302.739545 229.064398 
L 303.373636 225.498045 
L 304.007727 224.681137 
L 304.641818 228.599214 
L 305.275909 218.27871 
L 305.91 212.062898 
L 306.544091 216.023985 
L 307.178182 223.556062 
L 308.446364 231.079906 
L 309.080455 242.061777 
L 309.714545 235.970605 
L 310.982727 220.694727 
L 311.616818 228.148609 
L 312.250909 248.134463 
L 312.885 249.936834 
L 313.519091 238.625376 
L 314.153182 241.334249 
L 314.787273 251.632713 
L 315.421364 251.131208 
L 316.689545 243.123854 
L 317.323636 225.486704 
L 317.957727 220.661847 
L 318.591818 223.884908 
L 319.225909 223.375774 
L 319.86 231.59218 
L 321.128182 220.461025 
L 321.762273 220.077216 
L 322.396364 224.590818 
L 323.030455 231.524802 
L 323.664545 231.711749 
L 324.298636 238.025731 
L 324.932727 238.640502 
L 325.566818 237.279507 
L 326.200909 239.17247 
L 326.835 235.954093 
L 327.469091 245.759794 
L 328.103182 251.129258 
L 328.737273 247.526915 
L 329.371364 247.770356 
L 330.005455 248.409881 
L 330.639545 250.823317 
L 331.907727 257.846912 
L 332.541818 257.964295 
L 333.175909 259.123559 
L 333.81 261.035922 
L 334.444091 260.63156 
L 335.078182 264.976757 
L 335.712273 264.899459 
L 336.346364 267.58691 
L 336.980455 272.460532 
L 337.614545 274.152272 
L 338.248636 273.858592 
L 338.882727 273.971089 
L 339.516818 275.007259 
L 340.150909 276.493599 
L 340.785 277.033096 
L 341.419091 279.669952 
L 342.053182 280.753745 
L 342.687273 280.772687 
L 343.321364 282.732525 
L 343.955455 283.02703 
L 344.589545 285.047747 
L 345.223636 283.113546 
L 345.857727 283.167409 
L 346.491818 281.650919 
L 347.125909 280.949013 
L 347.76 281.968281 
L 348.394091 284.619724 
L 349.028182 283.392974 
L 349.662273 283.481514 
L 350.296364 285.641607 
L 350.930455 286.120643 
L 351.564545 287.548063 
L 352.198636 285.25337 
L 354.100909 287.072518 
L 354.735 285.423304 
L 355.369091 284.542441 
L 356.637273 287.773105 
L 357.271364 287.53906 
L 357.905455 285.602269 
L 358.539545 285.395424 
L 359.173636 287.332873 
L 360.441818 284.868921 
L 361.075909 285.45541 
L 361.71 288.094933 
L 362.344091 290.13136 
L 362.978182 290.201404 
L 363.612273 290.024092 
L 364.246364 289.190651 
L 364.880455 290.192305 
L 365.514545 289.186971 
L 366.148636 289.200247 
L 366.782727 288.558321 
L 367.416818 287.723252 
L 368.050909 288.335552 
L 368.685 289.915953 
L 369.319091 289.968271 
L 370.587273 291.074011 
L 371.221364 289.385311 
L 371.855455 288.935046 
L 372.489545 288.70794 
L 373.123636 286.799976 
L 373.757727 284.277373 
L 374.391818 273.740648 
L 375.025909 274.714581 
L 375.66 284.165231 
L 376.294091 288.240208 
L 376.928182 288.722972 
L 377.562273 288.642384 
L 378.196364 286.447555 
L 378.830455 285.291998 
L 379.464545 283.822794 
L 380.098636 279.863756 
L 380.732727 272.604915 
L 381.366818 253.877169 
L 382.000909 223.290361 
L 383.269091 280.72565 
L 383.903182 286.499152 
L 384.537273 287.040668 
L 385.171364 287.366187 
L 385.805455 288.408131 
L 386.439545 288.939436 
L 387.073636 285.975838 
L 387.707727 285.001874 
L 388.341818 281.225285 
L 388.975909 272.016359 
L 389.61 278.666893 
L 390.244091 287.785885 
L 390.878182 284.760187 
L 392.146364 285.929465 
L 392.780455 285.817926 
L 393.414545 285.989296 
L 394.048636 284.99784 
L 394.682727 283.09352 
L 395.316818 284.808918 
L 395.950909 285.005358 
L 396.585 285.483772 
L 397.219091 283.172076 
L 397.853182 284.89599 
L 398.487273 291.97521 
L 398.487273 291.97521 
" clip-path="url(#p288167aeb1)" style="fill: none; stroke: #1f77b4; stroke-width: 1.5; stroke-linecap: square"/>
   </g>
   <g id="line2d_26">
    <path d="M 73.832727 265.235499 
L 74.466818 236.991853 
L 75.100909 220.778184 
L 75.735 211.159575 
L 76.369091 218.026419 
L 77.003182 231.120074 
L 78.271364 240.342634 
L 78.905455 246.261178 
L 80.173636 255.126007 
L 80.807727 256.455839 
L 81.441818 258.399846 
L 82.075909 255.805474 
L 82.71 256.366199 
L 83.344091 257.913901 
L 83.978182 261.451116 
L 84.612273 261.659574 
L 85.246364 261.435095 
L 85.880455 266.568035 
L 86.514545 266.224849 
L 87.148636 266.052743 
L 87.782727 267.723145 
L 88.416818 264.202968 
L 89.050909 266.219497 
L 89.685 265.39904 
L 90.319091 266.429657 
L 90.953182 272.38986 
L 91.587273 271.07871 
L 92.855455 270.497019 
L 93.489545 269.051808 
L 94.123636 268.500069 
L 94.757727 268.171418 
L 95.391818 268.284593 
L 96.025909 265.058915 
L 96.66 265.327499 
L 97.294091 272.073737 
L 97.928182 271.57372 
L 98.562273 268.718647 
L 99.196364 271.813084 
L 99.830455 271.598029 
L 100.464545 270.603555 
L 101.098636 267.574998 
L 101.732727 269.683683 
L 102.366818 269.885496 
L 103.000909 270.327912 
L 103.635 269.806126 
L 104.269091 271.575257 
L 105.537273 262.590857 
L 106.171364 266.832668 
L 107.439545 267.203561 
L 108.073636 266.977462 
L 108.707727 268.071051 
L 109.341818 268.898319 
L 109.975909 272.326174 
L 110.61 274.510897 
L 111.244091 271.613358 
L 111.878182 274.37356 
L 112.512273 273.546154 
L 113.146364 273.416046 
L 113.780455 271.836705 
L 114.414545 272.950401 
L 115.048636 274.954364 
L 115.682727 274.903048 
L 116.316818 277.632445 
L 116.950909 278.725867 
L 117.585 278.555464 
L 118.853182 282.494645 
L 119.487273 281.791379 
L 120.121364 283.577329 
L 120.755455 281.16773 
L 121.389545 280.236048 
L 122.657727 281.159669 
L 123.291818 280.323237 
L 123.925909 277.779072 
L 124.56 279.486393 
L 125.194091 279.473798 
L 125.828182 278.3467 
L 126.462273 281.568159 
L 127.096364 282.749333 
L 127.730455 283.536045 
L 128.364545 286.406497 
L 128.998636 286.288928 
L 129.632727 285.787267 
L 130.266818 283.49982 
L 130.900909 283.155354 
L 131.535 284.139736 
L 132.169091 286.207696 
L 132.803182 282.011498 
L 133.437273 283.478676 
L 134.705455 285.413861 
L 135.339545 286.959916 
L 135.973636 287.771175 
L 136.607727 287.549902 
L 137.241818 287.689464 
L 137.875909 285.996744 
L 138.51 283.314462 
L 139.144091 284.941606 
L 139.778182 288.187217 
L 140.412273 287.970536 
L 141.046364 285.912481 
L 141.680455 285.047068 
L 142.314545 285.219369 
L 142.948636 288.288692 
L 143.582727 287.889619 
L 144.216818 287.685585 
L 144.850909 288.788224 
L 145.485 287.817039 
L 146.119091 286.584899 
L 146.753182 285.077353 
L 147.387273 285.84286 
L 148.021364 288.793874 
L 148.655455 289.392521 
L 149.289545 289.019479 
L 149.923636 289.249646 
L 150.557727 287.148299 
L 151.191818 287.779536 
L 151.825909 287.347919 
L 153.094091 287.446704 
L 153.728182 287.148457 
L 154.362273 284.760742 
L 154.996364 283.065203 
L 155.630455 282.457255 
L 156.264545 285.48248 
L 157.532727 281.521517 
L 158.166818 282.8061 
L 158.800909 285.076988 
L 159.435 286.514585 
L 160.069091 286.37391 
L 160.703182 285.929668 
L 161.337273 282.78289 
L 161.971364 277.393485 
L 162.605455 278.441048 
L 163.239545 281.221485 
L 163.873636 278.435989 
L 164.507727 269.389399 
L 165.141818 270.61224 
L 165.775909 274.702776 
L 166.41 268.788767 
L 167.044091 266.043181 
L 167.678182 268.367635 
L 168.312273 268.766911 
L 168.946364 267.139652 
L 169.580455 269.555357 
L 170.214545 269.925668 
L 170.848636 269.729286 
L 171.482727 274.671009 
L 172.750909 266.81823 
L 173.385 270.642222 
L 174.019091 275.302842 
L 174.653182 281.246767 
L 175.287273 283.83567 
L 175.921364 279.433157 
L 176.555455 279.709617 
L 177.823636 285.0598 
L 178.457727 284.793046 
L 179.091818 286.191821 
L 179.725909 289.854338 
L 180.36 289.060007 
L 180.994091 287.151299 
L 181.628182 288.179163 
L 182.262273 288.711333 
L 182.896364 287.009598 
L 183.530455 287.430919 
L 184.164545 288.310938 
L 184.798636 287.91578 
L 185.432727 287.954307 
L 186.066818 289.231826 
L 186.700909 289.827582 
L 187.335 289.243786 
L 187.969091 290.746415 
L 188.603182 289.474923 
L 189.871364 288.463781 
L 190.505455 288.693068 
L 191.139545 289.776192 
L 191.773636 287.891796 
L 192.407727 289.546868 
L 193.041818 286.641456 
L 193.675909 284.573777 
L 194.31 283.083143 
L 194.944091 283.688801 
L 196.212273 287.286463 
L 196.846364 288.183183 
L 197.480455 287.698549 
L 198.114545 288.807073 
L 198.748636 288.365304 
L 199.382727 285.934831 
L 200.016818 286.260693 
L 201.285 288.565196 
L 202.553182 287.0917 
L 203.821364 286.701558 
L 204.455455 286.340253 
L 205.089545 286.170269 
L 205.723636 285.316084 
L 206.357727 285.532596 
L 206.991818 287.302288 
L 207.625909 285.006959 
L 208.26 285.180192 
L 208.894091 284.946292 
L 210.162273 286.560926 
L 210.796364 286.121798 
L 211.430455 285.320597 
L 212.064545 285.626043 
L 212.698636 286.897986 
L 213.332727 287.310044 
L 213.966818 286.585736 
L 214.600909 287.620368 
L 215.235 288.145606 
L 215.869091 287.442435 
L 216.503182 286.344661 
L 217.137273 286.612103 
L 217.771364 287.110237 
L 218.405455 286.58712 
L 219.039545 285.847233 
L 219.673636 283.195206 
L 220.941818 284.609738 
L 221.575909 284.971803 
L 222.21 286.054108 
L 222.844091 286.265792 
L 224.112273 281.67399 
L 224.746364 280.317219 
L 225.380455 279.780272 
L 226.014545 281.235488 
L 226.648636 282.10263 
L 227.282727 281.003078 
L 227.916818 278.982939 
L 228.550909 280.5837 
L 230.453182 272.1408 
L 231.087273 274.394069 
L 231.721364 277.968216 
L 232.355455 271.982003 
L 232.989545 267.558027 
L 234.257727 267.454163 
L 234.891818 270.351942 
L 236.16 261.961422 
L 236.794091 266.25344 
L 238.062273 268.611005 
L 238.696364 269.297655 
L 239.330455 267.696599 
L 239.964545 267.114483 
L 240.598636 267.301393 
L 241.232727 273.885331 
L 241.866818 277.18014 
L 242.500909 279.799059 
L 243.135 277.680959 
L 243.769091 279.433508 
L 244.403182 280.12518 
L 245.037273 279.622007 
L 245.671364 282.952433 
L 246.305455 281.193659 
L 246.939545 282.615582 
L 247.573636 281.620463 
L 249.475909 283.272523 
L 250.11 280.527781 
L 250.744091 281.081609 
L 251.378182 284.187372 
L 252.012273 283.241483 
L 252.646364 281.832047 
L 253.280455 282.133318 
L 253.914545 282.700082 
L 254.548636 280.880742 
L 255.182727 280.318529 
L 255.816818 279.011836 
L 256.450909 276.842882 
L 257.085 276.792742 
L 257.719091 278.230457 
L 258.353182 278.646876 
L 258.987273 281.338713 
L 259.621364 282.044873 
L 260.255455 280.525068 
L 260.889545 281.390671 
L 261.523636 282.68306 
L 262.157727 279.52346 
L 262.791818 279.37033 
L 263.425909 282.49115 
L 264.06 281.439529 
L 265.328182 281.181308 
L 265.962273 281.898799 
L 266.596364 277.087437 
L 267.230455 276.639208 
L 267.864545 280.053165 
L 268.498636 280.132941 
L 269.132727 278.108167 
L 269.766818 276.88028 
L 271.035 250.169902 
L 271.669091 257.025404 
L 272.303182 273.997413 
L 272.937273 281.614056 
L 273.571364 279.887653 
L 274.205455 278.484765 
L 274.839545 280.681008 
L 275.473636 280.83014 
L 276.741818 281.55124 
L 277.375909 279.504626 
L 278.01 279.869445 
L 278.644091 280.450874 
L 279.278182 275.193961 
L 279.912273 262.867304 
L 280.546364 254.404933 
L 281.814545 246.016986 
L 282.448636 243.57908 
L 283.082727 245.505213 
L 283.716818 257.492527 
L 284.350909 275.720611 
L 284.985 278.756056 
L 285.619091 270.341678 
L 286.253182 272.34899 
L 286.887273 277.006109 
L 288.155455 280.641992 
L 288.789545 279.232965 
L 289.423636 278.609736 
L 290.057727 280.044489 
L 290.691818 279.807612 
L 291.325909 277.163192 
L 291.96 273.895065 
L 292.594091 274.984524 
L 293.228182 275.734074 
L 293.862273 277.28995 
L 294.496364 277.263546 
L 295.130455 276.980369 
L 295.764545 278.895991 
L 296.398636 278.76463 
L 297.666818 272.314944 
L 298.300909 267.192772 
L 298.935 268.252547 
L 299.569091 267.050824 
L 300.203182 266.542319 
L 300.837273 268.390164 
L 301.471364 267.045198 
L 302.105455 267.201435 
L 302.739545 265.2193 
L 304.007727 262.3904 
L 304.641818 264.515286 
L 305.275909 262.263151 
L 305.91 265.952291 
L 306.544091 264.977836 
L 307.178182 265.21384 
L 307.812273 263.639795 
L 308.446364 267.004538 
L 309.080455 268.478303 
L 309.714545 266.319939 
L 310.348636 266.58838 
L 310.982727 263.849438 
L 311.616818 262.570117 
L 312.250909 266.900201 
L 312.885 269.981149 
L 313.519091 265.852531 
L 314.153182 263.711557 
L 314.787273 271.288463 
L 315.421364 272.14425 
L 316.055455 268.806282 
L 316.689545 270.890768 
L 317.323636 267.959508 
L 317.957727 262.685355 
L 318.591818 262.045381 
L 319.225909 264.554124 
L 319.86 267.745993 
L 320.494091 267.636491 
L 321.128182 259.624631 
L 321.762273 256.4256 
L 322.396364 260.172596 
L 323.030455 261.70092 
L 323.664545 259.176886 
L 324.298636 255.312811 
L 324.932727 252.384466 
L 325.566818 248.397053 
L 326.200909 252.578191 
L 326.835 252.870457 
L 327.469091 249.935431 
L 328.103182 244.665342 
L 328.737273 246.195059 
L 329.371364 244.342535 
L 330.005455 244.161825 
L 330.639545 245.987388 
L 331.273636 250.470624 
L 331.907727 251.222786 
L 332.541818 254.466143 
L 333.175909 254.071998 
L 333.81 255.706259 
L 334.444091 252.839977 
L 335.078182 261.377931 
L 335.712273 263.348275 
L 336.346364 264.314238 
L 336.980455 267.565259 
L 337.614545 267.394127 
L 338.248636 266.146181 
L 338.882727 265.694756 
L 339.516818 264.858928 
L 340.785 274.605199 
L 341.419091 270.669852 
L 342.053182 269.777108 
L 342.687273 268.483879 
L 343.321364 269.072282 
L 343.955455 270.319587 
L 344.589545 272.269639 
L 345.223636 270.21599 
L 345.857727 269.847956 
L 346.491818 270.245412 
L 347.125909 271.003008 
L 347.76 269.730366 
L 348.394091 271.219599 
L 349.028182 270.717166 
L 349.662273 269.47564 
L 350.296364 271.949914 
L 350.930455 272.465563 
L 351.564545 268.906885 
L 352.198636 266.498062 
L 352.832727 269.452356 
L 353.466818 270.542998 
L 354.100909 269.293871 
L 354.735 264.986457 
L 355.369091 264.263274 
L 356.003182 260.725983 
L 356.637273 258.273661 
L 357.271364 263.217409 
L 357.905455 265.234094 
L 358.539545 268.377147 
L 359.173636 267.618244 
L 359.807727 263.611682 
L 360.441818 258.534671 
L 361.075909 255.43352 
L 361.71 260.678549 
L 362.344091 268.362273 
L 362.978182 269.480235 
L 363.612273 266.193023 
L 364.246364 266.243789 
L 365.514545 262.777532 
L 366.148636 261.564392 
L 366.782727 265.415747 
L 367.416818 263.651856 
L 368.050909 260.508069 
L 368.685 264.543644 
L 369.319091 261.171881 
L 369.953182 261.762824 
L 370.587273 259.79056 
L 371.221364 259.14618 
L 371.855455 263.537415 
L 372.489545 264.496448 
L 373.123636 257.990689 
L 373.757727 257.742418 
L 374.391818 253.704985 
L 375.025909 254.893354 
L 375.66 263.607942 
L 376.294091 261.985213 
L 376.928182 259.831841 
L 377.562273 263.27961 
L 378.196364 257.067885 
L 378.830455 255.571283 
L 379.464545 259.563701 
L 380.098636 260.557923 
L 380.732727 250.352678 
L 381.366818 228.731586 
L 382.000909 191.835405 
L 383.269091 260.496767 
L 383.903182 263.28553 
L 384.537273 261.275532 
L 385.171364 258.504005 
L 386.439545 269.572466 
L 387.707727 253.177755 
L 388.341818 250.81026 
L 388.975909 250.037049 
L 389.61 253.677645 
L 390.244091 258.484723 
L 390.878182 261.663443 
L 391.512273 255.670494 
L 392.146364 256.281111 
L 392.780455 257.357247 
L 393.414545 257.454234 
L 394.048636 256.027802 
L 394.682727 249.10724 
L 395.316818 249.907398 
L 395.950909 247.495968 
L 396.585 251.385854 
L 397.219091 244.960549 
L 397.853182 251.785717 
L 398.487273 274.552258 
L 398.487273 274.552258 
" clip-path="url(#p288167aeb1)" style="fill: none; stroke: #ff7f0e; stroke-width: 1.5; stroke-linecap: square"/>
   </g>
   <g id="line2d_27">
    <path d="M 73.832727 284.461616 
L 74.466818 259.33236 
L 75.100909 270.739351 
L 75.735 279.936136 
L 76.369091 286.454752 
L 77.003182 288.418525 
L 77.637273 289.015994 
L 78.271364 288.996666 
L 78.905455 289.392766 
L 79.539545 289.104307 
L 80.173636 288.975986 
L 80.807727 288.982569 
L 81.441818 289.276472 
L 82.075909 288.331452 
L 82.71 286.618793 
L 83.344091 286.359286 
L 83.978182 286.850474 
L 84.612273 286.193391 
L 85.246364 286.497987 
L 85.880455 285.108839 
L 86.514545 285.369386 
L 87.148636 284.446682 
L 87.782727 284.626629 
L 88.416818 285.507935 
L 89.050909 287.655984 
L 89.685 284.914588 
L 90.319091 284.601612 
L 90.953182 287.2946 
L 91.587273 287.579783 
L 92.221364 285.201497 
L 92.855455 282.298941 
L 93.489545 283.300403 
L 94.123636 285.932693 
L 94.757727 287.16578 
L 95.391818 286.728142 
L 96.025909 284.916982 
L 96.66 284.995574 
L 97.294091 287.260723 
L 97.928182 284.470002 
L 98.562273 284.247635 
L 99.196364 285.659722 
L 99.830455 286.360634 
L 100.464545 285.877535 
L 101.098636 286.368654 
L 101.732727 285.657366 
L 102.366818 284.699808 
L 103.000909 284.547509 
L 103.635 286.148416 
L 104.269091 285.904088 
L 104.903182 284.399426 
L 105.537273 282.446002 
L 106.171364 283.594261 
L 106.805455 282.562865 
L 107.439545 282.157777 
L 108.073636 281.918487 
L 108.707727 283.014124 
L 109.341818 282.758605 
L 109.975909 282.825544 
L 110.61 284.938433 
L 111.244091 283.253795 
L 111.878182 284.00834 
L 112.512273 283.95229 
L 113.146364 285.851603 
L 113.780455 285.788181 
L 114.414545 285.11458 
L 115.048636 286.328004 
L 115.682727 286.264998 
L 116.316818 287.623887 
L 116.950909 288.109712 
L 117.585 288.267693 
L 118.219091 289.618788 
L 118.853182 290.218367 
L 119.487273 289.32891 
L 120.121364 289.415323 
L 120.755455 288.052684 
L 121.389545 288.174064 
L 122.023636 287.690706 
L 122.657727 287.439007 
L 123.291818 288.971112 
L 123.925909 289.82544 
L 124.56 289.675096 
L 125.194091 289.299374 
L 125.828182 287.592042 
L 126.462273 289.648473 
L 127.096364 290.452492 
L 127.730455 291.494093 
L 128.364545 291.832125 
L 128.998636 291.887939 
L 129.632727 292.403705 
L 130.266818 292.068314 
L 131.535 292.622975 
L 132.169091 292.331385 
L 132.803182 292.87954 
L 133.437273 292.09874 
L 134.071364 293.536579 
L 134.705455 294.123401 
L 135.339545 292.144799 
L 135.973636 291.320716 
L 136.607727 293.529944 
L 137.241818 294.045607 
L 137.875909 293.361698 
L 138.51 293.027066 
L 139.144091 293.746716 
L 139.778182 294.104665 
L 140.412273 294.309275 
L 141.046364 293.702289 
L 141.680455 293.810618 
L 142.314545 291.882231 
L 142.948636 291.592237 
L 143.582727 293.279243 
L 144.216818 292.852121 
L 144.850909 291.900314 
L 145.485 292.364146 
L 146.119091 291.883482 
L 146.753182 291.974093 
L 147.387273 293.426968 
L 148.021364 293.595073 
L 148.655455 291.695255 
L 149.289545 291.849718 
L 149.923636 294.047182 
L 150.557727 294.11265 
L 151.191818 293.970302 
L 151.825909 293.593795 
L 153.094091 291.956032 
L 154.362273 292.587294 
L 155.630455 292.663435 
L 156.264545 294.634392 
L 156.898636 294.614044 
L 157.532727 294.259675 
L 158.166818 294.479632 
L 158.800909 295.175625 
L 159.435 295.488 
L 160.069091 294.671023 
L 160.703182 294.798923 
L 161.337273 294.548162 
L 161.971364 294.759253 
L 162.605455 295.133492 
L 163.239545 294.267842 
L 163.873636 294.832002 
L 165.141818 293.733589 
L 165.775909 293.744413 
L 167.044091 294.938165 
L 167.678182 294.471564 
L 168.312273 293.860092 
L 168.946364 293.547712 
L 169.580455 293.999103 
L 170.214545 293.387247 
L 170.848636 293.627269 
L 171.482727 292.84274 
L 172.116818 292.894047 
L 172.750909 293.550133 
L 173.385 293.975621 
L 174.019091 294.266872 
L 174.653182 294.852472 
L 175.287273 294.697939 
L 175.921364 293.041668 
L 176.555455 293.134802 
L 177.189545 294.442301 
L 177.823636 295.064364 
L 178.457727 294.533651 
L 179.091818 294.279501 
L 179.725909 293.067781 
L 180.36 292.776979 
L 180.994091 294.61375 
L 181.628182 295.059161 
L 182.262273 294.30108 
L 182.896364 294.917437 
L 183.530455 295.165342 
L 184.164545 295.042625 
L 184.798636 294.437946 
L 185.432727 294.526374 
L 186.066818 294.071647 
L 186.700909 293.367479 
L 187.335 294.826061 
L 187.969091 293.509471 
L 188.603182 293.514412 
L 189.237273 292.966482 
L 189.871364 292.928797 
L 190.505455 291.261442 
L 191.139545 292.268806 
L 192.407727 290.390533 
L 193.041818 292.297689 
L 193.675909 289.222639 
L 194.31 291.697735 
L 194.944091 288.605857 
L 195.578182 290.68274 
L 196.212273 290.629514 
L 196.846364 292.093692 
L 197.480455 291.077614 
L 198.114545 290.392644 
L 198.748636 291.658193 
L 199.382727 292.345979 
L 200.650909 291.941455 
L 201.285 291.415337 
L 201.919091 292.222221 
L 203.187273 293.026295 
L 203.821364 292.771452 
L 204.455455 293.111295 
L 205.089545 293.292464 
L 205.723636 293.770327 
L 206.357727 293.022742 
L 206.991818 293.889251 
L 207.625909 293.908168 
L 208.26 292.485115 
L 208.894091 291.879915 
L 210.162273 292.790148 
L 210.796364 292.296259 
L 211.430455 292.376042 
L 212.064545 291.523893 
L 212.698636 292.199322 
L 213.332727 291.45092 
L 213.966818 290.523013 
L 214.600909 291.200059 
L 215.235 292.111971 
L 215.869091 292.722201 
L 216.503182 292.376989 
L 217.137273 293.567914 
L 217.771364 294.06982 
L 218.405455 293.761438 
L 219.673636 292.684508 
L 220.307727 291.864626 
L 220.941818 291.655275 
L 221.575909 292.302974 
L 222.21 291.967514 
L 222.844091 291.275167 
L 223.478182 289.705579 
L 224.112273 290.972384 
L 224.746364 289.210122 
L 225.380455 287.955741 
L 226.014545 289.313082 
L 226.648636 289.81606 
L 227.282727 290.787537 
L 227.916818 290.769883 
L 228.550909 289.531773 
L 229.819091 285.361974 
L 230.453182 282.711728 
L 231.087273 282.449156 
L 231.721364 283.669784 
L 232.355455 282.846551 
L 232.989545 282.612693 
L 233.623636 283.531129 
L 234.257727 284.656998 
L 234.891818 284.321397 
L 235.525909 282.076361 
L 236.16 280.254384 
L 236.794091 281.193202 
L 238.696364 286.010303 
L 239.330455 284.930097 
L 239.964545 286.433807 
L 240.598636 283.309675 
L 241.232727 284.717457 
L 241.866818 287.037121 
L 242.500909 287.613735 
L 243.135 286.4648 
L 243.769091 286.96724 
L 244.403182 286.639369 
L 245.037273 287.111761 
L 245.671364 286.610252 
L 246.305455 284.836182 
L 246.939545 285.043165 
L 247.573636 286.441925 
L 248.207727 285.396062 
L 248.841818 284.903221 
L 249.475909 286.079266 
L 250.11 285.63013 
L 250.744091 287.607507 
L 251.378182 288.040587 
L 252.012273 283.777203 
L 252.646364 282.774932 
L 253.280455 285.900965 
L 253.914545 286.019581 
L 254.548636 284.806389 
L 255.182727 282.668998 
L 255.816818 281.416464 
L 256.450909 284.74855 
L 257.085 284.606492 
L 257.719091 283.446697 
L 258.353182 283.516056 
L 258.987273 282.771463 
L 259.621364 281.142532 
L 260.255455 282.058863 
L 260.889545 283.255092 
L 261.523636 281.166216 
L 262.157727 280.874612 
L 262.791818 278.18874 
L 263.425909 277.892392 
L 264.06 278.586126 
L 264.694091 279.517014 
L 265.328182 281.395046 
L 265.962273 281.767766 
L 266.596364 282.734318 
L 267.864545 278.824556 
L 268.498636 277.57404 
L 269.132727 281.831408 
L 269.766818 278.114573 
L 270.400909 271.996361 
L 271.035 271.92127 
L 272.303182 277.409435 
L 272.937273 276.499241 
L 273.571364 276.074606 
L 274.205455 275.039781 
L 274.839545 278.215255 
L 276.107727 279.606719 
L 276.741818 277.863375 
L 278.01 275.178666 
L 278.644091 277.015655 
L 279.278182 274.955084 
L 279.912273 255.378866 
L 280.546364 243.763631 
L 281.180455 254.849217 
L 281.814545 273.952233 
L 282.448636 267.108865 
L 283.082727 258.871995 
L 283.716818 265.569108 
L 284.350909 276.912671 
L 284.985 276.59946 
L 285.619091 270.041459 
L 286.253182 267.49713 
L 286.887273 269.502744 
L 287.521364 274.970275 
L 288.155455 276.746452 
L 288.789545 274.681177 
L 289.423636 274.956665 
L 290.057727 272.263616 
L 290.691818 271.023972 
L 291.325909 270.944124 
L 291.96 271.21638 
L 292.594091 266.515918 
L 293.228182 267.162843 
L 293.862273 263.620882 
L 294.496364 261.818816 
L 295.130455 262.210037 
L 295.764545 255.79044 
L 296.398636 246.567228 
L 297.032727 242.997333 
L 297.666818 237.585471 
L 298.935 222.878682 
L 299.569091 226.69885 
L 300.203182 225.903512 
L 300.837273 232.596102 
L 301.471364 227.299006 
L 302.105455 228.012634 
L 302.739545 226.570495 
L 303.373636 218.215749 
L 304.007727 223.500175 
L 304.641818 227.507416 
L 305.275909 216.002297 
L 305.91 208.006494 
L 306.544091 210.621616 
L 307.178182 219.269667 
L 307.812273 225.538152 
L 308.446364 227.640892 
L 309.080455 239.279665 
L 309.714545 233.33887 
L 310.348636 225.470679 
L 310.982727 214.469317 
L 311.616818 219.121699 
L 312.250909 236.791838 
L 312.885 238.341153 
L 313.519091 221.852551 
L 314.153182 226.987609 
L 314.787273 234.896755 
L 315.421364 238.893186 
L 316.055455 233.841829 
L 317.323636 205.769414 
L 317.957727 205.047412 
L 318.591818 206.581565 
L 319.225909 196.201943 
L 319.86 204.993144 
L 321.128182 194.558419 
L 321.762273 195.800352 
L 322.396364 193.974352 
L 323.030455 200.655955 
L 323.664545 195.630931 
L 324.298636 204.417026 
L 324.932727 199.600293 
L 325.566818 200.18014 
L 326.200909 210.088517 
L 326.835 210.644393 
L 327.469091 219.2489 
L 328.103182 231.727879 
L 328.737273 235.881126 
L 329.371364 235.016812 
L 330.005455 233.489891 
L 330.639545 240.928535 
L 331.273636 243.325124 
L 331.907727 243.961626 
L 332.541818 251.440966 
L 333.175909 249.616911 
L 333.81 250.565224 
L 334.444091 247.987796 
L 335.078182 246.465772 
L 335.712273 248.585119 
L 336.346364 249.192952 
L 336.980455 254.41865 
L 337.614545 258.19333 
L 338.248636 259.832631 
L 338.882727 259.367089 
L 339.516818 260.826166 
L 340.150909 261.124565 
L 340.785 265.030209 
L 341.419091 267.945117 
L 342.053182 258.789445 
L 342.687273 253.516303 
L 343.321364 257.708528 
L 343.955455 262.815348 
L 344.589545 260.099035 
L 345.223636 258.767667 
L 345.857727 259.228152 
L 346.491818 257.52737 
L 347.125909 257.692995 
L 347.76 258.83441 
L 348.394091 258.987361 
L 349.028182 253.591313 
L 350.296364 262.043641 
L 350.930455 254.212494 
L 351.564545 250.894031 
L 352.198636 253.876005 
L 352.832727 255.070886 
L 353.466818 256.767643 
L 354.100909 256.131963 
L 354.735 252.851275 
L 355.369091 251.132538 
L 356.003182 250.819997 
L 356.637273 248.043563 
L 357.271364 253.772958 
L 358.539545 251.985049 
L 359.173636 248.431521 
L 359.807727 250.028987 
L 360.441818 246.148016 
L 361.075909 246.14606 
L 361.71 251.099607 
L 362.344091 257.097714 
L 362.978182 260.547155 
L 363.612273 251.162279 
L 364.246364 250.030857 
L 364.880455 249.718313 
L 365.514545 243.649029 
L 366.148636 247.38706 
L 367.416818 238.588768 
L 368.050909 239.571583 
L 368.685 246.56561 
L 369.319091 248.128812 
L 369.953182 253.838737 
L 370.587273 253.701867 
L 371.221364 248.91514 
L 371.855455 242.392088 
L 372.489545 238.23805 
L 373.757727 196.728163 
L 374.391818 53.568 
L 375.025909 71.729703 
L 375.66 200.420467 
L 376.294091 235.795147 
L 376.928182 237.379496 
L 377.562273 246.722221 
L 378.196364 243.792267 
L 378.830455 234.952762 
L 379.464545 239.0832 
L 380.098636 234.533167 
L 380.732727 221.89857 
L 382.000909 86.164166 
L 382.635 168.831541 
L 383.269091 232.106565 
L 383.903182 242.307466 
L 385.171364 239.181664 
L 385.805455 241.523464 
L 386.439545 250.405092 
L 387.073636 237.456916 
L 388.341818 177.151212 
L 388.975909 124.098142 
L 389.61 165.356132 
L 390.244091 218.924637 
L 390.878182 229.9028 
L 392.146364 235.549236 
L 393.414545 229.864609 
L 394.682727 217.722601 
L 395.316818 219.431459 
L 395.950909 214.967783 
L 396.585 222.611215 
L 397.219091 220.665588 
L 397.853182 227.291296 
L 398.487273 256.137091 
L 398.487273 256.137091 
" clip-path="url(#p288167aeb1)" style="fill: none; stroke: #2ca02c; stroke-width: 1.5; stroke-linecap: square"/>
   </g>
   <g id="patch_3">
    <path d="M 57.6 307.584 
L 57.6 41.472 
" style="fill: none; stroke: #000000; stroke-width: 0.8; stroke-linejoin: miter; stroke-linecap: square"/>
   </g>
   <g id="patch_4">
    <path d="M 414.72 307.584 
L 414.72 41.472 
" style="fill: none; stroke: #000000; stroke-width: 0.8; stroke-linejoin: miter; stroke-linecap: square"/>
   </g>
   <g id="patch_5">
    <path d="M 57.6 307.584 
L 414.72 307.584 
" style="fill: none; stroke: #000000; stroke-width: 0.8; stroke-linejoin: miter; stroke-linecap: square"/>
   </g>
   <g id="patch_6">
    <path d="M 57.6 41.472 
L 414.72 41.472 
" style="fill: none; stroke: #000000; stroke-width: 0.8; stroke-linejoin: miter; stroke-linecap: square"/>
   </g>
   <g id="text_15">
    <!-- Accelerometer Power Spectral Density -->
    <g transform="translate(121.022813 35.472) scale(0.12 -0.12)">
     <defs>
      <path id="DejaVuSans-41" d="M 2188 4044 
L 1331 1722 
L 3047 1722 
L 2188 4044 
z
M 1831 4666 
L 2547 4666 
L 4325 0 
L 3669 0 
L 3244 1197 
L 1141 1197 
L 716 0 
L 50 0 
L 1831 4666 
z
" transform="scale(0.015625)"/>
      <path id="DejaVuSans-6f" d="M 1959 3097 
Q 1497 3097 1228 2736 
Q 959 2375 959 1747 
Q 959 1119 1226 758 
Q 1494 397 1959 397 
Q 2419 397 2687 759 
Q 2956 1122 2956 1747 
Q 2956 2369 2687 2733 
Q 2419 3097 1959 3097 
z
M 1959 3584 
Q 2709 3584 3137 3096 
Q 3566 2609 3566 1747 
Q 3566 888 3137 398 
Q 2709 -91 1959 -91 
Q 1206 -91 779 398 
Q 353 888 353 1747 
Q 353 2609 779 3096 
Q 1206 3584 1959 3584 
z
" transform="scale(0.015625)"/>
      <path id="DejaVuSans-6d" d="M 3328 2828 
Q 3544 3216 3844 3400 
Q 4144 3584 4550 3584 
Q 5097 3584 5394 3201 
Q 5691 2819 5691 2113 
L 5691 0 
L 5113 0 
L 5113 2094 
Q 5113 2597 4934 2840 
Q 4756 3084 4391 3084 
Q 3944 3084 3684 2787 
Q 3425 2491 3425 1978 
L 3425 0 
L 2847 0 
L 2847 2094 
Q 2847 2600 2669 2842 
Q 2491 3084 2119 3084 
Q 1678 3084 1418 2786 
Q 1159 2488 1159 1978 
L 1159 0 
L 581 0 
L 581 3500 
L 1159 3500 
L 1159 2956 
Q 1356 3278 1631 3431 
Q 1906 3584 2284 3584 
Q 2666 3584 2933 3390 
Q 3200 3197 3328 2828 
z
" transform="scale(0.015625)"/>
      <path id="DejaVuSans-50" d="M 1259 4147 
L 1259 2394 
L 2053 2394 
Q 2494 2394 2734 2622 
Q 2975 2850 2975 3272 
Q 2975 3691 2734 3919 
Q 2494 4147 2053 4147 
L 1259 4147 
z
M 628 4666 
L 2053 4666 
Q 2838 4666 3239 4311 
Q 3641 3956 3641 3272 
Q 3641 2581 3239 2228 
Q 2838 1875 2053 1875 
L 1259 1875 
L 1259 0 
L 628 0 
L 628 4666 
z
" transform="scale(0.015625)"/>
      <path id="DejaVuSans-77" d="M 269 3500 
L 844 3500 
L 1563 769 
L 2278 3500 
L 2956 3500 
L 3675 769 
L 4391 3500 
L 4966 3500 
L 4050 0 
L 3372 0 
L 2619 2869 
L 1863 0 
L 1184 0 
L 269 3500 
z
" transform="scale(0.015625)"/>
     </defs>
     <use xlink:href="#DejaVuSans-41"/>
     <use xlink:href="#DejaVuSans-63" x="66.658203"/>
     <use xlink:href="#DejaVuSans-63" x="121.638672"/>
     <use xlink:href="#DejaVuSans-65" x="176.619141"/>
     <use xlink:href="#DejaVuSans-6c" x="238.142578"/>
     <use xlink:href="#DejaVuSans-65" x="265.925781"/>
     <use xlink:href="#DejaVuSans-72" x="327.449219"/>
     <use xlink:href="#DejaVuSans-6f" x="366.3125"/>
     <use xlink:href="#DejaVuSans-6d" x="427.494141"/>
     <use xlink:href="#DejaVuSans-65" x="524.90625"/>
     <use xlink:href="#DejaVuSans-74" x="586.429688"/>
     <use xlink:href="#DejaVuSans-65" x="625.638672"/>
     <use xlink:href="#DejaVuSans-72" x="687.162109"/>
     <use xlink:href="#DejaVuSans-20" x="728.275391"/>
     <use xlink:href="#DejaVuSans-50" x="760.0625"/>
     <use xlink:href="#DejaVuSans-6f" x="816.740234"/>
     <use xlink:href="#DejaVuSans-77" x="877.921875"/>
     <use xlink:href="#DejaVuSans-65" x="959.708984"/>
     <use xlink:href="#DejaVuSans-72" x="1021.232422"/>
     <use xlink:href="#DejaVuSans-20" x="1062.345703"/>
     <use xlink:href="#DejaVuSans-53" x="1094.132812"/>
     <use xlink:href="#DejaVuSans-70" x="1157.609375"/>
     <use xlink:href="#DejaVuSans-65" x="1221.085938"/>
     <use xlink:href="#DejaVuSans-63" x="1282.609375"/>
     <use xlink:href="#DejaVuSans-74" x="1337.589844"/>
     <use xlink:href="#DejaVuSans-72" x="1376.798828"/>
     <use xlink:href="#DejaVuSans-61" x="1417.912109"/>
     <use xlink:href="#DejaVuSans-6c" x="1479.191406"/>
     <use xlink:href="#DejaVuSans-20" x="1506.974609"/>
     <use xlink:href="#DejaVuSans-44" x="1538.761719"/>
     <use xlink:href="#DejaVuSans-65" x="1615.763672"/>
     <use xlink:href="#DejaVuSans-6e" x="1677.287109"/>
     <use xlink:href="#DejaVuSans-73" x="1740.666016"/>
     <use xlink:href="#DejaVuSans-69" x="1792.765625"/>
     <use xlink:href="#DejaVuSans-74" x="1820.548828"/>
     <use xlink:href="#DejaVuSans-79" x="1859.757812"/>
    </g>
   </g>
   <g id="legend_1">
    <g id="patch_7">
     <path d="M 64.6 93.506375 
L 108.646875 93.506375 
Q 110.646875 93.506375 110.646875 91.506375 
L 110.646875 48.472 
Q 110.646875 46.472 108.646875 46.472 
L 64.6 46.472 
Q 62.6 46.472 62.6 48.472 
L 62.6 91.506375 
Q 62.6 93.506375 64.6 93.506375 
z
" style="fill: #ffffff; opacity: 0.8; stroke: #cccccc; stroke-linejoin: miter"/>
    </g>
    <g id="line2d_28">
     <path d="M 66.6 54.570438 
L 76.6 54.570438 
L 86.6 54.570438 
" style="fill: none; stroke: #1f77b4; stroke-width: 1.5; stroke-linecap: square"/>
    </g>
    <g id="text_16">
     <!-- ax -->
     <g transform="translate(94.6 58.070438) scale(0.1 -0.1)">
      <defs>
       <path id="DejaVuSans-78" d="M 3513 3500 
L 2247 1797 
L 3578 0 
L 2900 0 
L 1881 1375 
L 863 0 
L 184 0 
L 1544 1831 
L 300 3500 
L 978 3500 
L 1906 2253 
L 2834 3500 
L 3513 3500 
z
" transform="scale(0.015625)"/>
      </defs>
      <use xlink:href="#DejaVuSans-61"/>
      <use xlink:href="#DejaVuSans-78" x="61.279297"/>
     </g>
    </g>
    <g id="line2d_29">
     <path d="M 66.6 69.248563 
L 76.6 69.248563 
L 86.6 69.248563 
" style="fill: none; stroke: #ff7f0e; stroke-width: 1.5; stroke-linecap: square"/>
    </g>
    <g id="text_17">
     <!-- ay -->
     <g transform="translate(94.6 72.748563) scale(0.1 -0.1)">
      <use xlink:href="#DejaVuSans-61"/>
      <use xlink:href="#DejaVuSans-79" x="61.279297"/>
     </g>
    </g>
    <g id="line2d_30">
     <path d="M 66.6 83.926688 
L 76.6 83.926688 
L 86.6 83.926688 
" style="fill: none; stroke: #2ca02c; stroke-width: 1.5; stroke-linecap: square"/>
    </g>
    <g id="text_18">
     <!-- az -->
     <g transform="translate(94.6 87.426688) scale(0.1 -0.1)">
      <use xlink:href="#DejaVuSans-61"/>
      <use xlink:href="#DejaVuSans-7a" x="61.279297"/>
     </g>
    </g>
   </g>
  </g>
 </g>
 <defs>
  <clipPath id="p288167aeb1">
   <rect x="57.6" y="41.472" width="357.12" height="266.112"/>
  </clipPath>
 </defs>
</svg>
