<?xml version="1.0" encoding="utf-8" standalone="no"?>
<!DOCTYPE svg PUBLIC "-//W3C//DTD SVG 1.1//EN"
  "http://www.w3.org/Graphics/SVG/1.1/DTD/svg11.dtd">
<svg xmlns:xlink="http://www.w3.org/1999/xlink" width="460.8pt" height="345.6pt" viewBox="0 0 460.8 345.6" xmlns="http://www.w3.org/2000/svg" version="1.1">
 <metadata>
  <rdf:RDF xmlns:dc="http://purl.org/dc/elements/1.1/" xmlns:cc="http://creativecommons.org/ns#" xmlns:rdf="http://www.w3.org/1999/02/22-rdf-syntax-ns#">
   <cc:Work>
    <dc:type rdf:resource="http://purl.org/dc/dcmitype/StillImage"/>
    <dc:date>2024-05-09T11:52:44.858238</dc:date>
    <dc:format>image/svg+xml</dc:format>
    <dc:creator>
     <cc:Agent>
      <dc:title>Matplotlib v3.8.3, https://matplotlib.org/</dc:title>
     </cc:Agent>
    </dc:creator>
   </cc:Work>
  </rdf:RDF>
 </metadata>
 <defs>
  <style type="text/css">*{stroke-linejoin: round; stroke-linecap: butt}</style>
 </defs>
 <g id="figure_1">
  <g id="patch_1">
   <path d="M 0 345.6 
L 460.8 345.6 
L 460.8 0 
L 0 0 
z
" style="fill: #ffffff"/>
  </g>
  <g id="axes_1">
   <g id="patch_2">
    <path d="M 57.6 307.584 
L 414.72 307.584 
L 414.72 41.472 
L 57.6 41.472 
z
" style="fill: #ffffff"/>
   </g>
   <g id="matplotlib.axis_1">
    <g id="xtick_1">
     <g id="line2d_1">
      <path d="M 73.832727 307.584 
L 73.832727 41.472 
" clip-path="url(#p6f40ded0d2)" style="fill: none; stroke: #b0b0b0; stroke-width: 0.8; stroke-linecap: square"/>
     </g>
     <g id="line2d_2">
      <defs>
       <path id="maf2d204577" d="M 0 0 
L 0 3.5 
" style="stroke: #000000; stroke-width: 0.8"/>
      </defs>
      <g>
       <use xlink:href="#maf2d204577" x="73.832727" y="307.584" style="stroke: #000000; stroke-width: 0.8"/>
      </g>
     </g>
     <g id="text_1">
      <!-- 0 -->
      <g transform="translate(70.651477 322.182437) scale(0.1 -0.1)">
       <defs>
        <path id="DejaVuSans-30" d="M 2034 4250 
Q 1547 4250 1301 3770 
Q 1056 3291 1056 2328 
Q 1056 1369 1301 889 
Q 1547 409 2034 409 
Q 2525 409 2770 889 
Q 3016 1369 3016 2328 
Q 3016 3291 2770 3770 
Q 2525 4250 2034 4250 
z
M 2034 4750 
Q 2819 4750 3233 4129 
Q 3647 3509 3647 2328 
Q 3647 1150 3233 529 
Q 2819 -91 2034 -91 
Q 1250 -91 836 529 
Q 422 1150 422 2328 
Q 422 3509 836 4129 
Q 1250 4750 2034 4750 
z
" transform="scale(0.015625)"/>
       </defs>
       <use xlink:href="#DejaVuSans-30"/>
      </g>
     </g>
    </g>
    <g id="xtick_2">
     <g id="line2d_3">
      <path d="M 138.841614 307.584 
L 138.841614 41.472 
" clip-path="url(#p6f40ded0d2)" style="fill: none; stroke: #b0b0b0; stroke-width: 0.8; stroke-linecap: square"/>
     </g>
     <g id="line2d_4">
      <g>
       <use xlink:href="#maf2d204577" x="138.841614" y="307.584" style="stroke: #000000; stroke-width: 0.8"/>
      </g>
     </g>
     <g id="text_2">
      <!-- 20 -->
      <g transform="translate(132.479114 322.182437) scale(0.1 -0.1)">
       <defs>
        <path id="DejaVuSans-32" d="M 1228 531 
L 3431 531 
L 3431 0 
L 469 0 
L 469 531 
Q 828 903 1448 1529 
Q 2069 2156 2228 2338 
Q 2531 2678 2651 2914 
Q 2772 3150 2772 3378 
Q 2772 3750 2511 3984 
Q 2250 4219 1831 4219 
Q 1534 4219 1204 4116 
Q 875 4013 500 3803 
L 500 4441 
Q 881 4594 1212 4672 
Q 1544 4750 1819 4750 
Q 2544 4750 2975 4387 
Q 3406 4025 3406 3419 
Q 3406 3131 3298 2873 
Q 3191 2616 2906 2266 
Q 2828 2175 2409 1742 
Q 1991 1309 1228 531 
z
" transform="scale(0.015625)"/>
       </defs>
       <use xlink:href="#DejaVuSans-32"/>
       <use xlink:href="#DejaVuSans-30" x="63.623047"/>
      </g>
     </g>
    </g>
    <g id="xtick_3">
     <g id="line2d_5">
      <path d="M 203.850501 307.584 
L 203.850501 41.472 
" clip-path="url(#p6f40ded0d2)" style="fill: none; stroke: #b0b0b0; stroke-width: 0.8; stroke-linecap: square"/>
     </g>
     <g id="line2d_6">
      <g>
       <use xlink:href="#maf2d204577" x="203.850501" y="307.584" style="stroke: #000000; stroke-width: 0.8"/>
      </g>
     </g>
     <g id="text_3">
      <!-- 40 -->
      <g transform="translate(197.488001 322.182437) scale(0.1 -0.1)">
       <defs>
        <path id="DejaVuSans-34" d="M 2419 4116 
L 825 1625 
L 2419 1625 
L 2419 4116 
z
M 2253 4666 
L 3047 4666 
L 3047 1625 
L 3713 1625 
L 3713 1100 
L 3047 1100 
L 3047 0 
L 2419 0 
L 2419 1100 
L 313 1100 
L 313 1709 
L 2253 4666 
z
" transform="scale(0.015625)"/>
       </defs>
       <use xlink:href="#DejaVuSans-34"/>
       <use xlink:href="#DejaVuSans-30" x="63.623047"/>
      </g>
     </g>
    </g>
    <g id="xtick_4">
     <g id="line2d_7">
      <path d="M 268.859388 307.584 
L 268.859388 41.472 
" clip-path="url(#p6f40ded0d2)" style="fill: none; stroke: #b0b0b0; stroke-width: 0.8; stroke-linecap: square"/>
     </g>
     <g id="line2d_8">
      <g>
       <use xlink:href="#maf2d204577" x="268.859388" y="307.584" style="stroke: #000000; stroke-width: 0.8"/>
      </g>
     </g>
     <g id="text_4">
      <!-- 60 -->
      <g transform="translate(262.496888 322.182437) scale(0.1 -0.1)">
       <defs>
        <path id="DejaVuSans-36" d="M 2113 2584 
Q 1688 2584 1439 2293 
Q 1191 2003 1191 1497 
Q 1191 994 1439 701 
Q 1688 409 2113 409 
Q 2538 409 2786 701 
Q 3034 994 3034 1497 
Q 3034 2003 2786 2293 
Q 2538 2584 2113 2584 
z
M 3366 4563 
L 3366 3988 
Q 3128 4100 2886 4159 
Q 2644 4219 2406 4219 
Q 1781 4219 1451 3797 
Q 1122 3375 1075 2522 
Q 1259 2794 1537 2939 
Q 1816 3084 2150 3084 
Q 2853 3084 3261 2657 
Q 3669 2231 3669 1497 
Q 3669 778 3244 343 
Q 2819 -91 2113 -91 
Q 1303 -91 875 529 
Q 447 1150 447 2328 
Q 447 3434 972 4092 
Q 1497 4750 2381 4750 
Q 2619 4750 2861 4703 
Q 3103 4656 3366 4563 
z
" transform="scale(0.015625)"/>
       </defs>
       <use xlink:href="#DejaVuSans-36"/>
       <use xlink:href="#DejaVuSans-30" x="63.623047"/>
      </g>
     </g>
    </g>
    <g id="xtick_5">
     <g id="line2d_9">
      <path d="M 333.868274 307.584 
L 333.868274 41.472 
" clip-path="url(#p6f40ded0d2)" style="fill: none; stroke: #b0b0b0; stroke-width: 0.8; stroke-linecap: square"/>
     </g>
     <g id="line2d_10">
      <g>
       <use xlink:href="#maf2d204577" x="333.868274" y="307.584" style="stroke: #000000; stroke-width: 0.8"/>
      </g>
     </g>
     <g id="text_5">
      <!-- 80 -->
      <g transform="translate(327.505774 322.182437) scale(0.1 -0.1)">
       <defs>
        <path id="DejaVuSans-38" d="M 2034 2216 
Q 1584 2216 1326 1975 
Q 1069 1734 1069 1313 
Q 1069 891 1326 650 
Q 1584 409 2034 409 
Q 2484 409 2743 651 
Q 3003 894 3003 1313 
Q 3003 1734 2745 1975 
Q 2488 2216 2034 2216 
z
M 1403 2484 
Q 997 2584 770 2862 
Q 544 3141 544 3541 
Q 544 4100 942 4425 
Q 1341 4750 2034 4750 
Q 2731 4750 3128 4425 
Q 3525 4100 3525 3541 
Q 3525 3141 3298 2862 
Q 3072 2584 2669 2484 
Q 3125 2378 3379 2068 
Q 3634 1759 3634 1313 
Q 3634 634 3220 271 
Q 2806 -91 2034 -91 
Q 1263 -91 848 271 
Q 434 634 434 1313 
Q 434 1759 690 2068 
Q 947 2378 1403 2484 
z
M 1172 3481 
Q 1172 3119 1398 2916 
Q 1625 2713 2034 2713 
Q 2441 2713 2670 2916 
Q 2900 3119 2900 3481 
Q 2900 3844 2670 4047 
Q 2441 4250 2034 4250 
Q 1625 4250 1398 4047 
Q 1172 3844 1172 3481 
z
" transform="scale(0.015625)"/>
       </defs>
       <use xlink:href="#DejaVuSans-38"/>
       <use xlink:href="#DejaVuSans-30" x="63.623047"/>
      </g>
     </g>
    </g>
    <g id="xtick_6">
     <g id="line2d_11">
      <path d="M 398.877161 307.584 
L 398.877161 41.472 
" clip-path="url(#p6f40ded0d2)" style="fill: none; stroke: #b0b0b0; stroke-width: 0.8; stroke-linecap: square"/>
     </g>
     <g id="line2d_12">
      <g>
       <use xlink:href="#maf2d204577" x="398.877161" y="307.584" style="stroke: #000000; stroke-width: 0.8"/>
      </g>
     </g>
     <g id="text_6">
      <!-- 100 -->
      <g transform="translate(389.333411 322.182437) scale(0.1 -0.1)">
       <defs>
        <path id="DejaVuSans-31" d="M 794 531 
L 1825 531 
L 1825 4091 
L 703 3866 
L 703 4441 
L 1819 4666 
L 2450 4666 
L 2450 531 
L 3481 531 
L 3481 0 
L 794 0 
L 794 531 
z
" transform="scale(0.015625)"/>
       </defs>
       <use xlink:href="#DejaVuSans-31"/>
       <use xlink:href="#DejaVuSans-30" x="63.623047"/>
       <use xlink:href="#DejaVuSans-30" x="127.246094"/>
      </g>
     </g>
    </g>
    <g id="text_7">
     <!-- Frequency [Hz] -->
     <g transform="translate(198.455312 335.860562) scale(0.1 -0.1)">
      <defs>
       <path id="DejaVuSans-46" d="M 628 4666 
L 3309 4666 
L 3309 4134 
L 1259 4134 
L 1259 2759 
L 3109 2759 
L 3109 2228 
L 1259 2228 
L 1259 0 
L 628 0 
L 628 4666 
z
" transform="scale(0.015625)"/>
       <path id="DejaVuSans-72" d="M 2631 2963 
Q 2534 3019 2420 3045 
Q 2306 3072 2169 3072 
Q 1681 3072 1420 2755 
Q 1159 2438 1159 1844 
L 1159 0 
L 581 0 
L 581 3500 
L 1159 3500 
L 1159 2956 
Q 1341 3275 1631 3429 
Q 1922 3584 2338 3584 
Q 2397 3584 2469 3576 
Q 2541 3569 2628 3553 
L 2631 2963 
z
" transform="scale(0.015625)"/>
       <path id="DejaVuSans-65" d="M 3597 1894 
L 3597 1613 
L 953 1613 
Q 991 1019 1311 708 
Q 1631 397 2203 397 
Q 2534 397 2845 478 
Q 3156 559 3463 722 
L 3463 178 
Q 3153 47 2828 -22 
Q 2503 -91 2169 -91 
Q 1331 -91 842 396 
Q 353 884 353 1716 
Q 353 2575 817 3079 
Q 1281 3584 2069 3584 
Q 2775 3584 3186 3129 
Q 3597 2675 3597 1894 
z
M 3022 2063 
Q 3016 2534 2758 2815 
Q 2500 3097 2075 3097 
Q 1594 3097 1305 2825 
Q 1016 2553 972 2059 
L 3022 2063 
z
" transform="scale(0.015625)"/>
       <path id="DejaVuSans-71" d="M 947 1747 
Q 947 1113 1208 752 
Q 1469 391 1925 391 
Q 2381 391 2643 752 
Q 2906 1113 2906 1747 
Q 2906 2381 2643 2742 
Q 2381 3103 1925 3103 
Q 1469 3103 1208 2742 
Q 947 2381 947 1747 
z
M 2906 525 
Q 2725 213 2448 61 
Q 2172 -91 1784 -91 
Q 1150 -91 751 415 
Q 353 922 353 1747 
Q 353 2572 751 3078 
Q 1150 3584 1784 3584 
Q 2172 3584 2448 3432 
Q 2725 3281 2906 2969 
L 2906 3500 
L 3481 3500 
L 3481 -1331 
L 2906 -1331 
L 2906 525 
z
" transform="scale(0.015625)"/>
       <path id="DejaVuSans-75" d="M 544 1381 
L 544 3500 
L 1119 3500 
L 1119 1403 
Q 1119 906 1312 657 
Q 1506 409 1894 409 
Q 2359 409 2629 706 
Q 2900 1003 2900 1516 
L 2900 3500 
L 3475 3500 
L 3475 0 
L 2900 0 
L 2900 538 
Q 2691 219 2414 64 
Q 2138 -91 1772 -91 
Q 1169 -91 856 284 
Q 544 659 544 1381 
z
M 1991 3584 
L 1991 3584 
z
" transform="scale(0.015625)"/>
       <path id="DejaVuSans-6e" d="M 3513 2113 
L 3513 0 
L 2938 0 
L 2938 2094 
Q 2938 2591 2744 2837 
Q 2550 3084 2163 3084 
Q 1697 3084 1428 2787 
Q 1159 2491 1159 1978 
L 1159 0 
L 581 0 
L 581 3500 
L 1159 3500 
L 1159 2956 
Q 1366 3272 1645 3428 
Q 1925 3584 2291 3584 
Q 2894 3584 3203 3211 
Q 3513 2838 3513 2113 
z
" transform="scale(0.015625)"/>
       <path id="DejaVuSans-63" d="M 3122 3366 
L 3122 2828 
Q 2878 2963 2633 3030 
Q 2388 3097 2138 3097 
Q 1578 3097 1268 2742 
Q 959 2388 959 1747 
Q 959 1106 1268 751 
Q 1578 397 2138 397 
Q 2388 397 2633 464 
Q 2878 531 3122 666 
L 3122 134 
Q 2881 22 2623 -34 
Q 2366 -91 2075 -91 
Q 1284 -91 818 406 
Q 353 903 353 1747 
Q 353 2603 823 3093 
Q 1294 3584 2113 3584 
Q 2378 3584 2631 3529 
Q 2884 3475 3122 3366 
z
" transform="scale(0.015625)"/>
       <path id="DejaVuSans-79" d="M 2059 -325 
Q 1816 -950 1584 -1140 
Q 1353 -1331 966 -1331 
L 506 -1331 
L 506 -850 
L 844 -850 
Q 1081 -850 1212 -737 
Q 1344 -625 1503 -206 
L 1606 56 
L 191 3500 
L 800 3500 
L 1894 763 
L 2988 3500 
L 3597 3500 
L 2059 -325 
z
" transform="scale(0.015625)"/>
       <path id="DejaVuSans-20" transform="scale(0.015625)"/>
       <path id="DejaVuSans-5b" d="M 550 4863 
L 1875 4863 
L 1875 4416 
L 1125 4416 
L 1125 -397 
L 1875 -397 
L 1875 -844 
L 550 -844 
L 550 4863 
z
" transform="scale(0.015625)"/>
       <path id="DejaVuSans-48" d="M 628 4666 
L 1259 4666 
L 1259 2753 
L 3553 2753 
L 3553 4666 
L 4184 4666 
L 4184 0 
L 3553 0 
L 3553 2222 
L 1259 2222 
L 1259 0 
L 628 0 
L 628 4666 
z
" transform="scale(0.015625)"/>
       <path id="DejaVuSans-7a" d="M 353 3500 
L 3084 3500 
L 3084 2975 
L 922 459 
L 3084 459 
L 3084 0 
L 275 0 
L 275 525 
L 2438 3041 
L 353 3041 
L 353 3500 
z
" transform="scale(0.015625)"/>
       <path id="DejaVuSans-5d" d="M 1947 4863 
L 1947 -844 
L 622 -844 
L 622 -397 
L 1369 -397 
L 1369 4416 
L 622 4416 
L 622 4863 
L 1947 4863 
z
" transform="scale(0.015625)"/>
      </defs>
      <use xlink:href="#DejaVuSans-46"/>
      <use xlink:href="#DejaVuSans-72" x="50.269531"/>
      <use xlink:href="#DejaVuSans-65" x="89.132812"/>
      <use xlink:href="#DejaVuSans-71" x="150.65625"/>
      <use xlink:href="#DejaVuSans-75" x="214.132812"/>
      <use xlink:href="#DejaVuSans-65" x="277.511719"/>
      <use xlink:href="#DejaVuSans-6e" x="339.035156"/>
      <use xlink:href="#DejaVuSans-63" x="402.414062"/>
      <use xlink:href="#DejaVuSans-79" x="457.394531"/>
      <use xlink:href="#DejaVuSans-20" x="516.574219"/>
      <use xlink:href="#DejaVuSans-5b" x="548.361328"/>
      <use xlink:href="#DejaVuSans-48" x="587.375"/>
      <use xlink:href="#DejaVuSans-7a" x="662.570312"/>
      <use xlink:href="#DejaVuSans-5d" x="715.060547"/>
     </g>
    </g>
   </g>
   <g id="matplotlib.axis_2">
    <g id="ytick_1">
     <g id="line2d_13">
      <path d="M 57.6 296.861279 
L 414.72 296.861279 
" clip-path="url(#p6f40ded0d2)" style="fill: none; stroke: #b0b0b0; stroke-width: 0.8; stroke-linecap: square"/>
     </g>
     <g id="line2d_14">
      <defs>
       <path id="ma8b4f9cf62" d="M 0 0 
L -3.5 0 
" style="stroke: #000000; stroke-width: 0.8"/>
      </defs>
      <g>
       <use xlink:href="#ma8b4f9cf62" x="57.6" y="296.861279" style="stroke: #000000; stroke-width: 0.8"/>
      </g>
     </g>
     <g id="text_8">
      <!-- 0.00 -->
      <g transform="translate(28.334375 300.660498) scale(0.1 -0.1)">
       <defs>
        <path id="DejaVuSans-2e" d="M 684 794 
L 1344 794 
L 1344 0 
L 684 0 
L 684 794 
z
" transform="scale(0.015625)"/>
       </defs>
       <use xlink:href="#DejaVuSans-30"/>
       <use xlink:href="#DejaVuSans-2e" x="63.623047"/>
       <use xlink:href="#DejaVuSans-30" x="95.410156"/>
       <use xlink:href="#DejaVuSans-30" x="159.033203"/>
      </g>
     </g>
    </g>
    <g id="ytick_2">
     <g id="line2d_15">
      <path d="M 57.6 266.394472 
L 414.72 266.394472 
" clip-path="url(#p6f40ded0d2)" style="fill: none; stroke: #b0b0b0; stroke-width: 0.8; stroke-linecap: square"/>
     </g>
     <g id="line2d_16">
      <g>
       <use xlink:href="#ma8b4f9cf62" x="57.6" y="266.394472" style="stroke: #000000; stroke-width: 0.8"/>
      </g>
     </g>
     <g id="text_9">
      <!-- 0.25 -->
      <g transform="translate(28.334375 270.193691) scale(0.1 -0.1)">
       <defs>
        <path id="DejaVuSans-35" d="M 691 4666 
L 3169 4666 
L 3169 4134 
L 1269 4134 
L 1269 2991 
Q 1406 3038 1543 3061 
Q 1681 3084 1819 3084 
Q 2600 3084 3056 2656 
Q 3513 2228 3513 1497 
Q 3513 744 3044 326 
Q 2575 -91 1722 -91 
Q 1428 -91 1123 -41 
Q 819 9 494 109 
L 494 744 
Q 775 591 1075 516 
Q 1375 441 1709 441 
Q 2250 441 2565 725 
Q 2881 1009 2881 1497 
Q 2881 1984 2565 2268 
Q 2250 2553 1709 2553 
Q 1456 2553 1204 2497 
Q 953 2441 691 2322 
L 691 4666 
z
" transform="scale(0.015625)"/>
       </defs>
       <use xlink:href="#DejaVuSans-30"/>
       <use xlink:href="#DejaVuSans-2e" x="63.623047"/>
       <use xlink:href="#DejaVuSans-32" x="95.410156"/>
       <use xlink:href="#DejaVuSans-35" x="159.033203"/>
      </g>
     </g>
    </g>
    <g id="ytick_3">
     <g id="line2d_17">
      <path d="M 57.6 235.927665 
L 414.72 235.927665 
" clip-path="url(#p6f40ded0d2)" style="fill: none; stroke: #b0b0b0; stroke-width: 0.8; stroke-linecap: square"/>
     </g>
     <g id="line2d_18">
      <g>
       <use xlink:href="#ma8b4f9cf62" x="57.6" y="235.927665" style="stroke: #000000; stroke-width: 0.8"/>
      </g>
     </g>
     <g id="text_10">
      <!-- 0.50 -->
      <g transform="translate(28.334375 239.726884) scale(0.1 -0.1)">
       <use xlink:href="#DejaVuSans-30"/>
       <use xlink:href="#DejaVuSans-2e" x="63.623047"/>
       <use xlink:href="#DejaVuSans-35" x="95.410156"/>
       <use xlink:href="#DejaVuSans-30" x="159.033203"/>
      </g>
     </g>
    </g>
    <g id="ytick_4">
     <g id="line2d_19">
      <path d="M 57.6 205.460858 
L 414.72 205.460858 
" clip-path="url(#p6f40ded0d2)" style="fill: none; stroke: #b0b0b0; stroke-width: 0.8; stroke-linecap: square"/>
     </g>
     <g id="line2d_20">
      <g>
       <use xlink:href="#ma8b4f9cf62" x="57.6" y="205.460858" style="stroke: #000000; stroke-width: 0.8"/>
      </g>
     </g>
     <g id="text_11">
      <!-- 0.75 -->
      <g transform="translate(28.334375 209.260076) scale(0.1 -0.1)">
       <defs>
        <path id="DejaVuSans-37" d="M 525 4666 
L 3525 4666 
L 3525 4397 
L 1831 0 
L 1172 0 
L 2766 4134 
L 525 4134 
L 525 4666 
z
" transform="scale(0.015625)"/>
       </defs>
       <use xlink:href="#DejaVuSans-30"/>
       <use xlink:href="#DejaVuSans-2e" x="63.623047"/>
       <use xlink:href="#DejaVuSans-37" x="95.410156"/>
       <use xlink:href="#DejaVuSans-35" x="159.033203"/>
      </g>
     </g>
    </g>
    <g id="ytick_5">
     <g id="line2d_21">
      <path d="M 57.6 174.99405 
L 414.72 174.99405 
" clip-path="url(#p6f40ded0d2)" style="fill: none; stroke: #b0b0b0; stroke-width: 0.8; stroke-linecap: square"/>
     </g>
     <g id="line2d_22">
      <g>
       <use xlink:href="#ma8b4f9cf62" x="57.6" y="174.99405" style="stroke: #000000; stroke-width: 0.8"/>
      </g>
     </g>
     <g id="text_12">
      <!-- 1.00 -->
      <g transform="translate(28.334375 178.793269) scale(0.1 -0.1)">
       <use xlink:href="#DejaVuSans-31"/>
       <use xlink:href="#DejaVuSans-2e" x="63.623047"/>
       <use xlink:href="#DejaVuSans-30" x="95.410156"/>
       <use xlink:href="#DejaVuSans-30" x="159.033203"/>
      </g>
     </g>
    </g>
    <g id="ytick_6">
     <g id="line2d_23">
      <path d="M 57.6 144.527243 
L 414.72 144.527243 
" clip-path="url(#p6f40ded0d2)" style="fill: none; stroke: #b0b0b0; stroke-width: 0.8; stroke-linecap: square"/>
     </g>
     <g id="line2d_24">
      <g>
       <use xlink:href="#ma8b4f9cf62" x="57.6" y="144.527243" style="stroke: #000000; stroke-width: 0.8"/>
      </g>
     </g>
     <g id="text_13">
      <!-- 1.25 -->
      <g transform="translate(28.334375 148.326462) scale(0.1 -0.1)">
       <use xlink:href="#DejaVuSans-31"/>
       <use xlink:href="#DejaVuSans-2e" x="63.623047"/>
       <use xlink:href="#DejaVuSans-32" x="95.410156"/>
       <use xlink:href="#DejaVuSans-35" x="159.033203"/>
      </g>
     </g>
    </g>
    <g id="ytick_7">
     <g id="line2d_25">
      <path d="M 57.6 114.060436 
L 414.72 114.060436 
" clip-path="url(#p6f40ded0d2)" style="fill: none; stroke: #b0b0b0; stroke-width: 0.8; stroke-linecap: square"/>
     </g>
     <g id="line2d_26">
      <g>
       <use xlink:href="#ma8b4f9cf62" x="57.6" y="114.060436" style="stroke: #000000; stroke-width: 0.8"/>
      </g>
     </g>
     <g id="text_14">
      <!-- 1.50 -->
      <g transform="translate(28.334375 117.859655) scale(0.1 -0.1)">
       <use xlink:href="#DejaVuSans-31"/>
       <use xlink:href="#DejaVuSans-2e" x="63.623047"/>
       <use xlink:href="#DejaVuSans-35" x="95.410156"/>
       <use xlink:href="#DejaVuSans-30" x="159.033203"/>
      </g>
     </g>
    </g>
    <g id="ytick_8">
     <g id="line2d_27">
      <path d="M 57.6 83.593629 
L 414.72 83.593629 
" clip-path="url(#p6f40ded0d2)" style="fill: none; stroke: #b0b0b0; stroke-width: 0.8; stroke-linecap: square"/>
     </g>
     <g id="line2d_28">
      <g>
       <use xlink:href="#ma8b4f9cf62" x="57.6" y="83.593629" style="stroke: #000000; stroke-width: 0.8"/>
      </g>
     </g>
     <g id="text_15">
      <!-- 1.75 -->
      <g transform="translate(28.334375 87.392847) scale(0.1 -0.1)">
       <use xlink:href="#DejaVuSans-31"/>
       <use xlink:href="#DejaVuSans-2e" x="63.623047"/>
       <use xlink:href="#DejaVuSans-37" x="95.410156"/>
       <use xlink:href="#DejaVuSans-35" x="159.033203"/>
      </g>
     </g>
    </g>
    <g id="ytick_9">
     <g id="line2d_29">
      <path d="M 57.6 53.126821 
L 414.72 53.126821 
" clip-path="url(#p6f40ded0d2)" style="fill: none; stroke: #b0b0b0; stroke-width: 0.8; stroke-linecap: square"/>
     </g>
     <g id="line2d_30">
      <g>
       <use xlink:href="#ma8b4f9cf62" x="57.6" y="53.126821" style="stroke: #000000; stroke-width: 0.8"/>
      </g>
     </g>
     <g id="text_16">
      <!-- 2.00 -->
      <g transform="translate(28.334375 56.92604) scale(0.1 -0.1)">
       <use xlink:href="#DejaVuSans-32"/>
       <use xlink:href="#DejaVuSans-2e" x="63.623047"/>
       <use xlink:href="#DejaVuSans-30" x="95.410156"/>
       <use xlink:href="#DejaVuSans-30" x="159.033203"/>
      </g>
     </g>
    </g>
    <g id="text_17">
     <!-- Spectral Density ($m/s²  / \sqrt{Hz}$) -->
     <g transform="translate(22.234375 244.728) rotate(-90) scale(0.1 -0.1)">
      <defs>
       <path id="DejaVuSans-53" d="M 3425 4513 
L 3425 3897 
Q 3066 4069 2747 4153 
Q 2428 4238 2131 4238 
Q 1616 4238 1336 4038 
Q 1056 3838 1056 3469 
Q 1056 3159 1242 3001 
Q 1428 2844 1947 2747 
L 2328 2669 
Q 3034 2534 3370 2195 
Q 3706 1856 3706 1288 
Q 3706 609 3251 259 
Q 2797 -91 1919 -91 
Q 1588 -91 1214 -16 
Q 841 59 441 206 
L 441 856 
Q 825 641 1194 531 
Q 1563 422 1919 422 
Q 2459 422 2753 634 
Q 3047 847 3047 1241 
Q 3047 1584 2836 1778 
Q 2625 1972 2144 2069 
L 1759 2144 
Q 1053 2284 737 2584 
Q 422 2884 422 3419 
Q 422 4038 858 4394 
Q 1294 4750 2059 4750 
Q 2388 4750 2728 4690 
Q 3069 4631 3425 4513 
z
" transform="scale(0.015625)"/>
       <path id="DejaVuSans-70" d="M 1159 525 
L 1159 -1331 
L 581 -1331 
L 581 3500 
L 1159 3500 
L 1159 2969 
Q 1341 3281 1617 3432 
Q 1894 3584 2278 3584 
Q 2916 3584 3314 3078 
Q 3713 2572 3713 1747 
Q 3713 922 3314 415 
Q 2916 -91 2278 -91 
Q 1894 -91 1617 61 
Q 1341 213 1159 525 
z
M 3116 1747 
Q 3116 2381 2855 2742 
Q 2594 3103 2138 3103 
Q 1681 3103 1420 2742 
Q 1159 2381 1159 1747 
Q 1159 1113 1420 752 
Q 1681 391 2138 391 
Q 2594 391 2855 752 
Q 3116 1113 3116 1747 
z
" transform="scale(0.015625)"/>
       <path id="DejaVuSans-74" d="M 1172 4494 
L 1172 3500 
L 2356 3500 
L 2356 3053 
L 1172 3053 
L 1172 1153 
Q 1172 725 1289 603 
Q 1406 481 1766 481 
L 2356 481 
L 2356 0 
L 1766 0 
Q 1100 0 847 248 
Q 594 497 594 1153 
L 594 3053 
L 172 3053 
L 172 3500 
L 594 3500 
L 594 4494 
L 1172 4494 
z
" transform="scale(0.015625)"/>
       <path id="DejaVuSans-61" d="M 2194 1759 
Q 1497 1759 1228 1600 
Q 959 1441 959 1056 
Q 959 750 1161 570 
Q 1363 391 1709 391 
Q 2188 391 2477 730 
Q 2766 1069 2766 1631 
L 2766 1759 
L 2194 1759 
z
M 3341 1997 
L 3341 0 
L 2766 0 
L 2766 531 
Q 2569 213 2275 61 
Q 1981 -91 1556 -91 
Q 1019 -91 701 211 
Q 384 513 384 1019 
Q 384 1609 779 1909 
Q 1175 2209 1959 2209 
L 2766 2209 
L 2766 2266 
Q 2766 2663 2505 2880 
Q 2244 3097 1772 3097 
Q 1472 3097 1187 3025 
Q 903 2953 641 2809 
L 641 3341 
Q 956 3463 1253 3523 
Q 1550 3584 1831 3584 
Q 2591 3584 2966 3190 
Q 3341 2797 3341 1997 
z
" transform="scale(0.015625)"/>
       <path id="DejaVuSans-6c" d="M 603 4863 
L 1178 4863 
L 1178 0 
L 603 0 
L 603 4863 
z
" transform="scale(0.015625)"/>
       <path id="DejaVuSans-44" d="M 1259 4147 
L 1259 519 
L 2022 519 
Q 2988 519 3436 956 
Q 3884 1394 3884 2338 
Q 3884 3275 3436 3711 
Q 2988 4147 2022 4147 
L 1259 4147 
z
M 628 4666 
L 1925 4666 
Q 3281 4666 3915 4102 
Q 4550 3538 4550 2338 
Q 4550 1131 3912 565 
Q 3275 0 1925 0 
L 628 0 
L 628 4666 
z
" transform="scale(0.015625)"/>
       <path id="DejaVuSans-73" d="M 2834 3397 
L 2834 2853 
Q 2591 2978 2328 3040 
Q 2066 3103 1784 3103 
Q 1356 3103 1142 2972 
Q 928 2841 928 2578 
Q 928 2378 1081 2264 
Q 1234 2150 1697 2047 
L 1894 2003 
Q 2506 1872 2764 1633 
Q 3022 1394 3022 966 
Q 3022 478 2636 193 
Q 2250 -91 1575 -91 
Q 1294 -91 989 -36 
Q 684 19 347 128 
L 347 722 
Q 666 556 975 473 
Q 1284 391 1588 391 
Q 1994 391 2212 530 
Q 2431 669 2431 922 
Q 2431 1156 2273 1281 
Q 2116 1406 1581 1522 
L 1381 1569 
Q 847 1681 609 1914 
Q 372 2147 372 2553 
Q 372 3047 722 3315 
Q 1072 3584 1716 3584 
Q 2034 3584 2315 3537 
Q 2597 3491 2834 3397 
z
" transform="scale(0.015625)"/>
       <path id="DejaVuSans-69" d="M 603 3500 
L 1178 3500 
L 1178 0 
L 603 0 
L 603 3500 
z
M 603 4863 
L 1178 4863 
L 1178 4134 
L 603 4134 
L 603 4863 
z
" transform="scale(0.015625)"/>
       <path id="DejaVuSans-28" d="M 1984 4856 
Q 1566 4138 1362 3434 
Q 1159 2731 1159 2009 
Q 1159 1288 1364 580 
Q 1569 -128 1984 -844 
L 1484 -844 
Q 1016 -109 783 600 
Q 550 1309 550 2009 
Q 550 2706 781 3412 
Q 1013 4119 1484 4856 
L 1984 4856 
z
" transform="scale(0.015625)"/>
       <path id="DejaVuSans-Oblique-6d" d="M 5747 2113 
L 5338 0 
L 4763 0 
L 5166 2094 
Q 5191 2228 5203 2325 
Q 5216 2422 5216 2491 
Q 5216 2772 5059 2928 
Q 4903 3084 4622 3084 
Q 4203 3084 3875 2770 
Q 3547 2456 3450 1953 
L 3066 0 
L 2491 0 
L 2900 2094 
Q 2925 2209 2937 2307 
Q 2950 2406 2950 2484 
Q 2950 2769 2794 2926 
Q 2638 3084 2363 3084 
Q 1938 3084 1609 2770 
Q 1281 2456 1184 1953 
L 800 0 
L 225 0 
L 909 3500 
L 1484 3500 
L 1375 2956 
Q 1609 3263 1923 3423 
Q 2238 3584 2597 3584 
Q 2978 3584 3223 3384 
Q 3469 3184 3519 2828 
Q 3781 3197 4126 3390 
Q 4472 3584 4856 3584 
Q 5306 3584 5551 3325 
Q 5797 3066 5797 2591 
Q 5797 2488 5784 2364 
Q 5772 2241 5747 2113 
z
" transform="scale(0.015625)"/>
       <path id="DejaVuSans-2f" d="M 1625 4666 
L 2156 4666 
L 531 -594 
L 0 -594 
L 1625 4666 
z
" transform="scale(0.015625)"/>
       <path id="DejaVuSans-Oblique-73" d="M 3200 3397 
L 3091 2853 
Q 2863 2978 2609 3040 
Q 2356 3103 2088 3103 
Q 1634 3103 1373 2948 
Q 1113 2794 1113 2528 
Q 1113 2219 1719 2053 
Q 1766 2041 1788 2034 
L 1972 1978 
Q 2547 1819 2739 1644 
Q 2931 1469 2931 1166 
Q 2931 609 2489 259 
Q 2047 -91 1331 -91 
Q 1053 -91 747 -37 
Q 441 16 72 128 
L 184 722 
Q 500 559 806 475 
Q 1113 391 1394 391 
Q 1816 391 2080 572 
Q 2344 753 2344 1031 
Q 2344 1331 1650 1516 
L 1591 1531 
L 1394 1581 
Q 956 1697 753 1886 
Q 550 2075 550 2369 
Q 550 2928 970 3256 
Q 1391 3584 2113 3584 
Q 2397 3584 2667 3537 
Q 2938 3491 3200 3397 
z
" transform="scale(0.015625)"/>
       <path id="DejaVuSans-b2" d="M 838 2444 
L 2163 2444 
L 2163 2088 
L 294 2088 
L 294 2431 
Q 400 2528 597 2703 
Q 1672 3656 1672 3950 
Q 1672 4156 1509 4282 
Q 1347 4409 1081 4409 
Q 919 4409 728 4354 
Q 538 4300 313 4191 
L 313 4575 
Q 553 4663 761 4706 
Q 969 4750 1147 4750 
Q 1600 4750 1872 4544 
Q 2144 4338 2144 4000 
Q 2144 3566 1109 2678 
Q 934 2528 838 2444 
z
" transform="scale(0.015625)"/>
       <path id="STIXSizeOneSym-Regular-221a" d="M 6970 9933 
L 3373 -1888 
L 3104 -1888 
L 1626 2918 
Q 1555 3149 1465 3251 
Q 1376 3354 1229 3354 
Q 1011 3354 794 3181 
L 717 3309 
L 1766 4115 
L 1926 4115 
L 3379 -602 
L 3405 -602 
L 6605 9933 
L 6970 9933 
z
" transform="scale(0.015625)"/>
       <path id="DejaVuSans-Oblique-48" d="M 1081 4666 
L 1716 4666 
L 1344 2753 
L 3634 2753 
L 4006 4666 
L 4641 4666 
L 3731 0 
L 3097 0 
L 3531 2222 
L 1241 2222 
L 806 0 
L 172 0 
L 1081 4666 
z
" transform="scale(0.015625)"/>
       <path id="DejaVuSans-Oblique-7a" d="M 744 3500 
L 3475 3500 
L 3372 2975 
L 738 459 
L 2913 459 
L 2822 0 
L -19 0 
L 84 525 
L 2719 3041 
L 653 3041 
L 744 3500 
z
" transform="scale(0.015625)"/>
       <path id="DejaVuSans-29" d="M 513 4856 
L 1013 4856 
Q 1481 4119 1714 3412 
Q 1947 2706 1947 2009 
Q 1947 1309 1714 600 
Q 1481 -109 1013 -844 
L 513 -844 
Q 928 -128 1133 580 
Q 1338 1288 1338 2009 
Q 1338 2731 1133 3434 
Q 928 4138 513 4856 
z
" transform="scale(0.015625)"/>
      </defs>
      <use xlink:href="#DejaVuSans-53" transform="translate(0 0.578125)"/>
      <use xlink:href="#DejaVuSans-70" transform="translate(63.476562 0.578125)"/>
      <use xlink:href="#DejaVuSans-65" transform="translate(126.953125 0.578125)"/>
      <use xlink:href="#DejaVuSans-63" transform="translate(188.476562 0.578125)"/>
      <use xlink:href="#DejaVuSans-74" transform="translate(243.457031 0.578125)"/>
      <use xlink:href="#DejaVuSans-72" transform="translate(282.666016 0.578125)"/>
      <use xlink:href="#DejaVuSans-61" transform="translate(323.779297 0.578125)"/>
      <use xlink:href="#DejaVuSans-6c" transform="translate(385.058594 0.578125)"/>
      <use xlink:href="#DejaVuSans-20" transform="translate(412.841797 0.578125)"/>
      <use xlink:href="#DejaVuSans-44" transform="translate(444.628906 0.578125)"/>
      <use xlink:href="#DejaVuSans-65" transform="translate(521.630859 0.578125)"/>
      <use xlink:href="#DejaVuSans-6e" transform="translate(583.154297 0.578125)"/>
      <use xlink:href="#DejaVuSans-73" transform="translate(646.533203 0.578125)"/>
      <use xlink:href="#DejaVuSans-69" transform="translate(698.632812 0.578125)"/>
      <use xlink:href="#DejaVuSans-74" transform="translate(726.416016 0.578125)"/>
      <use xlink:href="#DejaVuSans-79" transform="translate(765.625 0.578125)"/>
      <use xlink:href="#DejaVuSans-20" transform="translate(824.804688 0.578125)"/>
      <use xlink:href="#DejaVuSans-28" transform="translate(856.591797 0.578125)"/>
      <use xlink:href="#DejaVuSans-Oblique-6d" transform="translate(895.605469 0.578125)"/>
      <use xlink:href="#DejaVuSans-2f" transform="translate(993.017578 0.578125)"/>
      <use xlink:href="#DejaVuSans-Oblique-73" transform="translate(1026.708984 0.578125)"/>
      <use xlink:href="#DejaVuSans-b2" transform="translate(1078.808594 0.578125)"/>
      <use xlink:href="#DejaVuSans-2f" transform="translate(1118.896484 0.578125)"/>
      <use xlink:href="#STIXSizeOneSym-Regular-221a" transform="translate(1152.587891 17.09375) scale(0.563912)"/>
      <use xlink:href="#DejaVuSans-Oblique-48" transform="translate(1224.676254 0.84375)"/>
      <use xlink:href="#DejaVuSans-Oblique-7a" transform="translate(1299.871567 0.84375)"/>
      <use xlink:href="#DejaVuSans-29" transform="translate(1364.861801 0.578125)"/>
      <path d="M 1212.176254 97.5 
L 1212.176254 103.75 
L 1364.861801 103.75 
L 1364.861801 97.5 
L 1212.176254 97.5 
z
"/>
     </g>
    </g>
   </g>
   <g id="line2d_31">
    <path d="M 73.832727 290.903647 
L 74.466818 278.580095 
L 75.100909 282.04309 
L 75.735 283.942545 
L 76.369091 279.598942 
L 77.003182 280.488034 
L 77.637273 286.032748 
L 78.271364 288.790975 
L 78.905455 290.490779 
L 80.173636 290.104891 
L 80.807727 290.258424 
L 81.441818 290.061671 
L 82.075909 290.931755 
L 82.71 290.80297 
L 83.344091 290.036629 
L 83.978182 288.567893 
L 84.612273 286.703518 
L 85.246364 282.848752 
L 85.880455 280.347876 
L 86.514545 284.505328 
L 87.148636 284.269173 
L 87.782727 281.808965 
L 88.416818 277.979488 
L 89.050909 275.686216 
L 89.685 281.321942 
L 90.319091 283.169795 
L 90.953182 283.064279 
L 91.587273 282.412355 
L 92.221364 280.32016 
L 92.855455 281.539974 
L 93.489545 283.191972 
L 94.123636 282.49648 
L 94.757727 281.433145 
L 95.391818 281.349174 
L 96.66 284.60991 
L 97.294091 282.14611 
L 97.928182 278.214809 
L 98.562273 279.260225 
L 99.196364 281.189 
L 99.830455 277.958731 
L 101.098636 267.007094 
L 102.366818 270.748652 
L 103.000909 275.544966 
L 103.635 277.380351 
L 104.269091 275.429015 
L 104.903182 274.219703 
L 105.537273 275.080515 
L 106.171364 282.190956 
L 106.805455 286.193885 
L 107.439545 287.214639 
L 108.073636 287.704938 
L 108.707727 286.795453 
L 109.341818 286.954065 
L 109.975909 285.763752 
L 110.61 287.029032 
L 111.244091 287.754685 
L 111.878182 286.626926 
L 112.512273 286.573098 
L 113.146364 286.719454 
L 113.780455 287.715881 
L 114.414545 286.948553 
L 116.316818 290.484707 
L 116.950909 290.607548 
L 117.585 290.148838 
L 118.219091 289.417928 
L 118.853182 289.174114 
L 119.487273 288.55483 
L 120.755455 288.31095 
L 121.389545 289.101896 
L 122.023636 286.56347 
L 122.657727 286.870748 
L 123.291818 289.362022 
L 123.925909 290.034659 
L 124.56 290.175077 
L 125.194091 289.92084 
L 125.828182 288.649119 
L 126.462273 287.053226 
L 127.096364 287.207801 
L 127.730455 287.704681 
L 128.364545 287.749759 
L 128.998636 286.216712 
L 129.632727 286.294716 
L 130.266818 286.077383 
L 130.900909 284.726401 
L 131.535 285.062352 
L 132.169091 285.236937 
L 132.803182 285.539238 
L 133.437273 285.5595 
L 134.071364 286.23727 
L 134.705455 287.561611 
L 135.339545 287.128383 
L 135.973636 284.722102 
L 136.607727 283.489276 
L 137.241818 284.515157 
L 137.875909 286.165905 
L 138.51 286.410066 
L 139.778182 288.977107 
L 140.412273 289.555844 
L 141.680455 288.199025 
L 142.314545 288.833935 
L 142.948636 288.494525 
L 143.582727 288.907104 
L 144.216818 288.333835 
L 144.850909 289.07375 
L 146.119091 288.118626 
L 147.387273 289.593503 
L 148.655455 287.902554 
L 149.289545 288.475507 
L 150.557727 287.320232 
L 151.825909 287.361988 
L 152.46 286.396485 
L 153.728182 285.860545 
L 154.362273 283.114971 
L 154.996364 283.708335 
L 155.630455 286.458187 
L 156.264545 285.875088 
L 156.898636 283.082027 
L 157.532727 279.384376 
L 158.166818 278.591393 
L 158.800909 279.323817 
L 159.435 278.224596 
L 160.069091 278.770094 
L 160.703182 281.307122 
L 161.337273 281.798809 
L 161.971364 284.789186 
L 162.605455 283.087372 
L 163.239545 282.833911 
L 163.873636 280.295235 
L 164.507727 279.835386 
L 165.141818 280.305494 
L 165.775909 279.948963 
L 166.41 278.460794 
L 167.044091 277.417224 
L 167.678182 278.145065 
L 168.312273 277.468333 
L 168.946364 277.027127 
L 169.580455 278.682525 
L 170.214545 279.525098 
L 170.848636 277.781183 
L 171.482727 280.212307 
L 172.750909 283.651901 
L 173.385 283.792665 
L 174.019091 281.232534 
L 174.653182 280.98792 
L 175.287273 283.982668 
L 175.921364 283.456879 
L 176.555455 281.104285 
L 177.189545 282.052933 
L 177.823636 281.41345 
L 178.457727 281.895229 
L 179.091818 280.170751 
L 179.725909 279.176647 
L 180.36 280.906275 
L 180.994091 281.974826 
L 181.628182 282.043273 
L 182.262273 279.72989 
L 182.896364 277.975511 
L 183.530455 278.695022 
L 184.164545 280.116638 
L 184.798636 279.547457 
L 185.432727 279.207193 
L 186.066818 276.707031 
L 186.700909 275.014486 
L 187.335 274.629414 
L 187.969091 275.565804 
L 188.603182 277.653908 
L 189.237273 277.851757 
L 189.871364 278.734409 
L 190.505455 276.343157 
L 191.139545 274.38734 
L 191.773636 276.072823 
L 192.407727 275.294775 
L 193.041818 273.327806 
L 193.675909 274.519428 
L 194.31 273.481059 
L 195.578182 268.639615 
L 196.212273 274.932567 
L 196.846364 274.8151 
L 197.480455 276.24515 
L 198.114545 273.678686 
L 198.748636 275.596518 
L 199.382727 276.43921 
L 200.016818 276.828093 
L 200.650909 278.811969 
L 201.285 278.658176 
L 201.919091 278.836378 
L 202.553182 278.665478 
L 203.187273 277.441606 
L 203.821364 277.892358 
L 204.455455 279.567618 
L 205.089545 277.491313 
L 205.723636 278.61799 
L 206.357727 280.234823 
L 206.991818 279.760681 
L 207.625909 277.748061 
L 208.26 278.556349 
L 209.528182 282.331784 
L 210.162273 280.615815 
L 210.796364 278.423794 
L 211.430455 276.637743 
L 212.064545 275.583047 
L 212.698636 276.294775 
L 213.332727 277.654372 
L 213.966818 277.778089 
L 214.600909 276.888033 
L 215.235 276.642368 
L 215.869091 275.8619 
L 216.503182 276.908061 
L 217.137273 278.860364 
L 217.771364 275.269705 
L 218.405455 276.25575 
L 219.039545 275.650354 
L 219.673636 275.766202 
L 220.307727 278.055436 
L 220.941818 278.132419 
L 221.575909 276.806204 
L 222.21 276.226231 
L 222.844091 276.889123 
L 223.478182 277.104547 
L 224.112273 275.352814 
L 224.746364 275.445945 
L 225.380455 274.574071 
L 226.014545 277.758671 
L 226.648636 276.25981 
L 227.916818 278.712954 
L 228.550909 278.791005 
L 229.185 276.354293 
L 229.819091 275.836784 
L 230.453182 275.490798 
L 231.087273 273.280678 
L 231.721364 273.817858 
L 232.355455 275.716972 
L 232.989545 274.267716 
L 233.623636 272.11657 
L 234.257727 272.544616 
L 234.891818 271.604335 
L 235.525909 271.932765 
L 236.16 271.755901 
L 236.794091 272.700408 
L 237.428182 271.175412 
L 238.062273 272.672456 
L 238.696364 270.969486 
L 239.330455 266.687895 
L 239.964545 267.309802 
L 241.232727 271.177462 
L 241.866818 275.43586 
L 242.500909 269.892105 
L 243.135 261.976589 
L 243.769091 263.3565 
L 244.403182 261.98178 
L 245.037273 266.334697 
L 245.671364 266.651688 
L 246.939545 262.177392 
L 247.573636 263.574371 
L 248.207727 265.897231 
L 248.841818 263.712521 
L 249.475909 262.257927 
L 250.11 264.487163 
L 250.744091 264.459947 
L 251.378182 264.800428 
L 252.012273 264.526928 
L 252.646364 262.539308 
L 253.280455 262.705937 
L 253.914545 266.273975 
L 254.548636 262.252088 
L 255.182727 263.278426 
L 255.816818 262.075078 
L 256.450909 261.482016 
L 257.085 259.371438 
L 257.719091 261.140975 
L 258.353182 264.439382 
L 258.987273 260.149345 
L 259.621364 257.770035 
L 260.255455 260.14919 
L 261.523636 261.295292 
L 262.157727 257.078059 
L 262.791818 261.074056 
L 263.425909 262.428416 
L 264.06 261.504788 
L 264.694091 259.881208 
L 265.328182 258.731321 
L 265.962273 264.37158 
L 266.596364 262.987244 
L 267.230455 258.693717 
L 267.864545 258.73412 
L 268.498636 263.19164 
L 269.132727 261.464367 
L 269.766818 263.256352 
L 270.400909 266.648632 
L 271.035 266.289539 
L 271.669091 263.982199 
L 272.303182 262.663131 
L 272.937273 263.331493 
L 273.571364 265.082244 
L 274.205455 269.332907 
L 274.839545 267.969686 
L 275.473636 268.422842 
L 276.107727 266.214798 
L 276.741818 263.366252 
L 277.375909 264.183517 
L 278.01 267.435583 
L 278.644091 258.68158 
L 279.912273 261.745049 
L 281.180455 253.030947 
L 281.814545 251.136611 
L 282.448636 248.674878 
L 283.082727 247.308091 
L 283.716818 242.232371 
L 284.350909 242.795063 
L 284.985 235.143884 
L 285.619091 229.725766 
L 286.253182 231.260709 
L 286.887273 235.969176 
L 287.521364 234.096771 
L 288.155455 220.951544 
L 288.789545 222.106508 
L 289.423636 215.202296 
L 290.057727 210.651757 
L 290.691818 213.039855 
L 291.325909 219.134137 
L 291.96 219.762744 
L 292.594091 211.419443 
L 293.228182 213.017958 
L 293.862273 209.679469 
L 294.496364 205.704261 
L 295.130455 209.307049 
L 295.764545 201.606232 
L 296.398636 203.493383 
L 297.032727 200.583566 
L 297.666818 196.256192 
L 298.935 182.415331 
L 299.569091 176.857497 
L 300.203182 195.032248 
L 300.837273 184.665189 
L 301.471364 178.862755 
L 302.105455 162.360877 
L 302.739545 160.467285 
L 303.373636 163.744181 
L 304.007727 187.548394 
L 304.641818 190.870751 
L 305.275909 173.320695 
L 305.91 187.913283 
L 306.544091 193.988574 
L 307.178182 191.938886 
L 307.812273 186.59537 
L 308.446364 190.893239 
L 309.080455 199.673257 
L 309.714545 196.039643 
L 310.348636 198.869203 
L 310.982727 201.032861 
L 311.616818 200.692138 
L 312.250909 198.129046 
L 312.885 205.662857 
L 313.519091 201.966715 
L 314.153182 205.878952 
L 314.787273 213.197559 
L 315.421364 227.205688 
L 316.055455 213.175488 
L 316.689545 211.584543 
L 317.323636 210.932822 
L 318.591818 226.288601 
L 319.225909 227.604981 
L 319.86 225.726001 
L 320.494091 227.268105 
L 321.128182 208.628173 
L 321.762273 212.278935 
L 322.396364 213.940721 
L 323.030455 211.222508 
L 323.664545 223.293041 
L 324.298636 221.230312 
L 324.932727 222.424597 
L 325.566818 224.323758 
L 326.200909 224.415899 
L 326.835 234.509185 
L 327.469091 237.676667 
L 328.103182 234.881157 
L 328.737273 237.949176 
L 329.371364 239.352014 
L 330.005455 241.459296 
L 330.639545 249.886139 
L 331.273636 255.731284 
L 331.907727 254.266397 
L 332.541818 253.398926 
L 334.444091 268.176862 
L 335.078182 268.726045 
L 335.712273 269.559786 
L 336.346364 272.965972 
L 336.980455 275.429967 
L 337.614545 274.398664 
L 338.248636 277.019214 
L 338.882727 277.807728 
L 340.150909 277.112685 
L 340.785 276.987 
L 341.419091 279.332225 
L 342.053182 280.043457 
L 342.687273 279.994802 
L 343.321364 283.047826 
L 343.955455 283.668672 
L 345.223636 286.406783 
L 345.857727 286.899728 
L 346.491818 286.824774 
L 347.125909 286.24375 
L 347.76 284.437238 
L 348.394091 285.33246 
L 349.028182 284.804761 
L 349.662273 284.570331 
L 350.296364 285.402388 
L 350.930455 287.291456 
L 351.564545 287.408802 
L 352.198636 286.424051 
L 352.832727 286.498645 
L 353.466818 287.587195 
L 354.100909 287.634982 
L 354.735 287.088079 
L 355.369091 287.823865 
L 356.003182 287.728965 
L 357.271364 286.680903 
L 357.905455 286.786179 
L 358.539545 287.966335 
L 359.173636 288.057691 
L 359.807727 287.857444 
L 360.441818 288.056615 
L 361.075909 288.980881 
L 362.344091 289.076758 
L 362.978182 288.762962 
L 363.612273 289.198052 
L 364.246364 289.95407 
L 364.880455 289.325605 
L 365.514545 289.044914 
L 366.148636 289.063389 
L 366.782727 288.183245 
L 367.416818 286.625141 
L 368.050909 286.948505 
L 368.685 288.407344 
L 369.319091 288.534203 
L 369.953182 288.996914 
L 370.587273 288.443915 
L 371.221364 288.837625 
L 371.855455 288.457277 
L 372.489545 288.688884 
L 373.123636 289.310274 
L 373.757727 290.929193 
L 374.391818 290.889001 
L 375.025909 289.525819 
L 375.66 290.354025 
L 376.294091 290.264908 
L 376.928182 289.089447 
L 377.562273 289.409979 
L 378.196364 289.51551 
L 378.830455 288.598918 
L 379.464545 288.186171 
L 380.098636 289.147789 
L 380.732727 288.905743 
L 381.366818 288.926963 
L 382.000909 287.876467 
L 382.635 287.761492 
L 383.269091 288.590396 
L 383.903182 288.533468 
L 384.537273 288.594162 
L 385.171364 289.333391 
L 385.805455 287.79145 
L 386.439545 287.582819 
L 387.073636 286.81192 
L 387.707727 286.573664 
L 388.341818 285.698814 
L 388.975909 285.358206 
L 389.61 285.919079 
L 390.244091 286.060797 
L 390.878182 285.603309 
L 391.512273 284.733334 
L 392.146364 286.063651 
L 392.780455 284.903027 
L 393.414545 284.418484 
L 394.048636 283.606602 
L 394.682727 284.61016 
L 395.316818 282.469602 
L 395.950909 281.763798 
L 396.585 283.631374 
L 397.219091 281.642204 
L 397.853182 284.081343 
L 398.487273 287.303871 
L 398.487273 287.303871 
" clip-path="url(#p6f40ded0d2)" style="fill: none; stroke: #1f77b4; stroke-width: 1.5; stroke-linecap: square"/>
   </g>
   <g id="line2d_32">
    <path d="M 73.832727 295.488 
L 74.466818 294.163676 
L 75.100909 294.609945 
L 75.735 294.598039 
L 77.003182 294.268133 
L 78.905455 294.448479 
L 79.539545 294.08912 
L 80.173636 294.071303 
L 80.807727 294.598499 
L 81.441818 294.76303 
L 82.71 294.681938 
L 83.344091 294.456526 
L 83.978182 294.100853 
L 85.246364 293.872443 
L 85.880455 293.603639 
L 87.148636 294.299271 
L 87.782727 294.215434 
L 89.050909 293.659267 
L 89.685 293.615883 
L 90.319091 293.906938 
L 90.953182 293.883273 
L 91.587273 293.601651 
L 94.123636 293.619547 
L 94.757727 293.484157 
L 95.391818 293.510838 
L 96.025909 293.413483 
L 97.928182 292.399432 
L 98.562273 292.736318 
L 99.196364 292.742489 
L 99.830455 292.05704 
L 100.464545 291.066381 
L 101.732727 288.566868 
L 102.366818 287.998128 
L 103.000909 287.599798 
L 103.635 286.630577 
L 104.903182 285.526903 
L 105.537273 286.998693 
L 106.171364 289.487464 
L 106.805455 290.777927 
L 108.073636 292.381851 
L 108.707727 292.838756 
L 109.341818 292.905717 
L 110.61 292.61864 
L 111.244091 292.690106 
L 112.512273 292.235995 
L 113.146364 292.229147 
L 113.780455 292.102142 
L 114.414545 291.725423 
L 115.682727 291.87985 
L 116.316818 291.512781 
L 116.950909 291.363783 
L 117.585 290.659295 
L 118.219091 288.885114 
L 118.853182 288.755004 
L 119.487273 287.320488 
L 120.121364 286.323346 
L 120.755455 284.746344 
L 121.389545 285.588357 
L 122.023636 286.979226 
L 123.291818 283.193211 
L 123.925909 283.940672 
L 124.56 285.948271 
L 125.194091 283.826898 
L 125.828182 282.921515 
L 126.462273 281.027693 
L 127.096364 280.665323 
L 128.364545 284.067551 
L 129.632727 286.538618 
L 130.266818 286.879169 
L 130.900909 285.569353 
L 131.535 288.979035 
L 132.169091 289.805757 
L 133.437273 290.304444 
L 134.071364 289.762874 
L 134.705455 290.034695 
L 135.339545 290.509737 
L 135.973636 289.880466 
L 136.607727 289.714664 
L 137.241818 290.421665 
L 137.875909 290.774716 
L 138.51 290.49987 
L 139.144091 291.391107 
L 139.778182 292.480584 
L 140.412273 292.717514 
L 141.046364 292.016368 
L 141.680455 291.617696 
L 142.314545 291.558647 
L 142.948636 292.06059 
L 143.582727 291.846693 
L 144.850909 290.980797 
L 145.485 291.790531 
L 146.119091 292.065953 
L 146.753182 291.261894 
L 148.021364 292.127251 
L 149.289545 290.438759 
L 149.923636 291.189399 
L 150.557727 291.105307 
L 151.191818 289.795661 
L 151.825909 288.884159 
L 152.46 288.656617 
L 153.094091 288.681457 
L 153.728182 287.234122 
L 154.362273 286.868693 
L 154.996364 288.218899 
L 155.630455 288.195334 
L 156.264545 286.25079 
L 156.898636 286.351626 
L 157.532727 286.258166 
L 158.166818 285.971426 
L 158.800909 285.506482 
L 159.435 284.76859 
L 160.069091 285.622249 
L 160.703182 286.82378 
L 161.337273 286.131821 
L 161.971364 286.160675 
L 163.239545 286.722597 
L 163.873636 284.439058 
L 164.507727 284.12014 
L 165.141818 285.55715 
L 166.41 282.883468 
L 167.044091 281.581999 
L 167.678182 283.24272 
L 168.312273 283.727443 
L 168.946364 281.434942 
L 169.580455 280.567544 
L 170.214545 280.562258 
L 170.848636 281.704708 
L 171.482727 282.102107 
L 172.750909 284.555142 
L 173.385 284.756714 
L 174.019091 283.947612 
L 174.653182 285.16117 
L 175.287273 284.763788 
L 175.921364 282.951421 
L 176.555455 283.88752 
L 177.189545 283.248532 
L 177.823636 280.455829 
L 178.457727 280.744723 
L 179.091818 275.962781 
L 179.725909 274.581098 
L 180.36 275.461809 
L 180.994091 273.385854 
L 181.628182 272.445953 
L 182.262273 273.644771 
L 182.896364 272.991949 
L 183.530455 274.951461 
L 184.164545 273.21595 
L 184.798636 266.139498 
L 185.432727 264.788683 
L 186.066818 266.035817 
L 186.700909 264.289095 
L 187.335 267.328814 
L 187.969091 265.476829 
L 188.603182 267.240251 
L 189.237273 261.730844 
L 189.871364 260.848666 
L 190.505455 260.357098 
L 191.139545 254.712015 
L 191.773636 250.063246 
L 192.407727 253.198399 
L 193.041818 253.035076 
L 194.31 258.698259 
L 194.944091 258.398939 
L 195.578182 252.968901 
L 196.212273 251.48134 
L 196.846364 251.111396 
L 197.480455 256.502831 
L 198.114545 255.517589 
L 198.748636 251.182886 
L 199.382727 250.260562 
L 200.016818 253.446093 
L 200.650909 254.223242 
L 201.285 252.362576 
L 201.919091 256.877617 
L 203.187273 246.5992 
L 203.821364 248.354125 
L 205.089545 257.027646 
L 205.723636 250.506372 
L 206.357727 250.377228 
L 206.991818 248.795947 
L 207.625909 246.207899 
L 208.26 246.504809 
L 208.894091 258.549699 
L 209.528182 257.075225 
L 210.162273 253.112505 
L 210.796364 251.828408 
L 211.430455 252.102285 
L 212.064545 256.286143 
L 212.698636 255.705776 
L 213.332727 255.361514 
L 213.966818 246.735779 
L 214.600909 247.855272 
L 215.235 249.555834 
L 215.869091 249.863829 
L 216.503182 252.134694 
L 217.137273 250.64193 
L 217.771364 253.114082 
L 218.405455 256.704936 
L 219.039545 253.312925 
L 219.673636 254.159241 
L 220.307727 255.355861 
L 220.941818 248.584209 
L 221.575909 247.333149 
L 222.21 246.760619 
L 222.844091 249.188769 
L 223.478182 252.63248 
L 224.112273 259.132896 
L 224.746364 251.955761 
L 226.014545 245.805416 
L 226.648636 243.22614 
L 227.282727 249.489583 
L 227.916818 244.289676 
L 228.550909 242.932837 
L 229.185 237.698679 
L 229.819091 239.688035 
L 231.087273 228.196033 
L 231.721364 229.181366 
L 232.355455 228.414643 
L 232.989545 219.859455 
L 233.623636 223.217097 
L 234.257727 227.300344 
L 234.891818 226.44638 
L 235.525909 226.077514 
L 236.16 228.205489 
L 236.794091 226.329334 
L 237.428182 231.121399 
L 238.062273 226.557095 
L 238.696364 221.168597 
L 239.330455 223.079016 
L 239.964545 230.81453 
L 240.598636 236.371642 
L 241.232727 233.868497 
L 241.866818 239.342056 
L 242.500909 239.642509 
L 243.135 227.908981 
L 243.769091 225.588401 
L 244.403182 221.876991 
L 245.037273 234.220327 
L 245.671364 238.512124 
L 246.305455 235.722211 
L 246.939545 223.756061 
L 247.573636 229.326633 
L 248.207727 241.063643 
L 248.841818 235.005873 
L 249.475909 241.319998 
L 250.11 241.951342 
L 250.744091 237.482066 
L 252.012273 241.100833 
L 252.646364 237.472881 
L 253.280455 238.702982 
L 253.914545 243.610371 
L 254.548636 237.458662 
L 255.182727 236.307248 
L 255.816818 237.491823 
L 256.450909 237.081001 
L 257.085 232.63011 
L 257.719091 239.307899 
L 258.353182 244.47225 
L 258.987273 238.586625 
L 259.621364 237.845045 
L 260.255455 246.302511 
L 260.889545 248.643782 
L 261.523636 246.846102 
L 262.157727 240.897686 
L 262.791818 247.674193 
L 263.425909 249.473035 
L 264.694091 243.472041 
L 265.962273 254.812395 
L 266.596364 249.377343 
L 267.230455 250.236743 
L 267.864545 253.436757 
L 268.498636 253.077335 
L 269.132727 247.243893 
L 269.766818 250.954917 
L 270.400909 258.373567 
L 271.035 255.689803 
L 271.669091 250.924947 
L 272.303182 257.672484 
L 272.937273 253.510233 
L 273.571364 253.922181 
L 274.205455 261.728621 
L 274.839545 261.306521 
L 276.107727 258.799303 
L 276.741818 258.155662 
L 277.375909 262.829155 
L 278.01 261.394426 
L 278.644091 255.121642 
L 279.278182 255.825562 
L 279.912273 251.856599 
L 280.546364 250.248293 
L 281.180455 252.713211 
L 281.814545 243.909298 
L 282.448636 241.375406 
L 283.082727 247.114247 
L 283.716818 244.53636 
L 284.985 227.656086 
L 285.619091 232.415454 
L 286.253182 229.584469 
L 286.887273 233.677636 
L 287.521364 231.336176 
L 288.155455 218.561799 
L 288.789545 212.581666 
L 289.423636 200.154466 
L 290.057727 203.821795 
L 290.691818 211.83223 
L 291.325909 216.93847 
L 291.96 223.372111 
L 292.594091 221.743773 
L 293.228182 221.084294 
L 293.862273 217.712646 
L 295.764545 199.369783 
L 296.398636 201.663998 
L 297.032727 196.444158 
L 298.300909 209.778611 
L 298.935 206.410404 
L 299.569091 206.677902 
L 300.203182 212.662763 
L 300.837273 201.793708 
L 301.471364 196.81703 
L 302.739545 209.670444 
L 303.373636 212.698212 
L 304.007727 229.846393 
L 304.641818 230.430556 
L 305.275909 220.276542 
L 305.91 229.56246 
L 307.178182 240.128797 
L 307.812273 234.452684 
L 308.446364 241.564216 
L 309.080455 246.953331 
L 309.714545 241.272232 
L 310.348636 237.840193 
L 310.982727 233.023194 
L 311.616818 232.640226 
L 312.250909 238.111897 
L 312.885 237.739071 
L 313.519091 238.262919 
L 314.153182 236.19311 
L 314.787273 238.545921 
L 315.421364 238.801436 
L 316.055455 228.212975 
L 316.689545 226.118781 
L 317.323636 227.612372 
L 317.957727 233.508888 
L 318.591818 235.087126 
L 319.225909 235.434874 
L 319.86 235.267612 
L 320.494091 228.601506 
L 321.128182 218.033125 
L 321.762273 220.343608 
L 323.030455 216.405632 
L 323.664545 227.674909 
L 324.298636 224.863731 
L 324.932727 222.861076 
L 325.566818 221.503482 
L 326.200909 222.227155 
L 326.835 234.834889 
L 327.469091 237.826577 
L 328.103182 229.428677 
L 328.737273 234.465558 
L 329.371364 234.068795 
L 330.005455 238.715626 
L 330.639545 245.752887 
L 331.273636 246.271295 
L 331.907727 245.184226 
L 332.541818 250.041117 
L 333.175909 253.65803 
L 333.81 254.880587 
L 334.444091 264.005079 
L 335.078182 262.778978 
L 335.712273 263.223136 
L 336.346364 269.45807 
L 336.980455 268.607275 
L 337.614545 267.159071 
L 338.248636 270.832831 
L 338.882727 269.09963 
L 339.516818 268.700545 
L 340.150909 268.614396 
L 340.785 267.913682 
L 341.419091 268.206723 
L 342.053182 270.521748 
L 342.687273 270.199011 
L 343.321364 275.8264 
L 343.955455 275.144026 
L 345.223636 277.814154 
L 345.857727 276.925951 
L 346.491818 276.251389 
L 347.125909 277.15821 
L 347.76 272.165431 
L 348.394091 273.266225 
L 349.028182 274.619746 
L 349.662273 272.529251 
L 350.296364 273.598374 
L 350.930455 276.307814 
L 351.564545 275.578403 
L 352.198636 274.108025 
L 352.832727 273.51279 
L 354.100909 273.535971 
L 354.735 271.418076 
L 355.369091 275.774061 
L 356.003182 275.939025 
L 356.637273 275.035931 
L 357.271364 274.984853 
L 357.905455 273.43155 
L 358.539545 275.615374 
L 359.173636 276.340597 
L 359.807727 273.048108 
L 360.441818 272.095021 
L 361.075909 275.509761 
L 361.71 275.918805 
L 362.344091 275.366991 
L 362.978182 275.308852 
L 363.612273 276.29876 
L 364.246364 278.568909 
L 364.880455 276.887047 
L 365.514545 276.453468 
L 366.148636 277.094854 
L 366.782727 275.248256 
L 367.416818 269.90085 
L 368.050909 269.396177 
L 368.685 272.808356 
L 369.319091 273.872805 
L 369.953182 275.919131 
L 370.587273 275.121597 
L 371.221364 273.551168 
L 371.855455 270.991847 
L 372.489545 274.765477 
L 373.123636 274.887707 
L 373.757727 276.175423 
L 374.391818 275.499519 
L 375.025909 272.397639 
L 375.66 275.598942 
L 376.294091 275.852793 
L 376.928182 272.893869 
L 378.196364 270.667338 
L 378.830455 266.742173 
L 380.098636 270.878378 
L 380.732727 268.578899 
L 381.366818 269.501742 
L 382.000909 265.924941 
L 382.635 266.23707 
L 383.269091 268.222991 
L 383.903182 266.530639 
L 384.537273 265.617447 
L 385.171364 267.844895 
L 385.805455 264.02132 
L 386.439545 265.314216 
L 387.073636 262.386335 
L 387.707727 261.396717 
L 388.341818 257.905101 
L 388.975909 256.930752 
L 389.61 259.01077 
L 390.244091 260.103038 
L 390.878182 257.549316 
L 391.512273 253.595262 
L 392.146364 257.275246 
L 392.780455 255.29417 
L 393.414545 254.941704 
L 394.048636 248.071084 
L 394.682727 250.889869 
L 395.316818 246.838935 
L 395.950909 245.038739 
L 396.585 250.915667 
L 397.219091 242.640435 
L 398.487273 267.632745 
L 398.487273 267.632745 
" clip-path="url(#p6f40ded0d2)" style="fill: none; stroke: #ff7f0e; stroke-width: 1.5; stroke-linecap: square"/>
   </g>
   <g id="line2d_33">
    <path d="M 73.832727 287.030201 
L 74.466818 272.082546 
L 75.100909 279.665505 
L 75.735 285.884446 
L 76.369091 281.692908 
L 77.003182 279.00601 
L 77.637273 285.624365 
L 78.271364 287.846913 
L 78.905455 284.737978 
L 79.539545 264.17549 
L 80.173636 262.489044 
L 80.807727 284.924242 
L 81.441818 288.48175 
L 82.075909 288.950419 
L 82.71 287.829936 
L 83.978182 289.057886 
L 84.612273 288.013669 
L 85.246364 280.76498 
L 85.880455 269.783099 
L 86.514545 277.781337 
L 87.148636 288.099135 
L 87.782727 289.152617 
L 88.416818 288.994598 
L 89.050909 288.300301 
L 89.685 288.318139 
L 90.319091 287.85825 
L 90.953182 280.730307 
L 91.587273 265.873198 
L 92.221364 263.618591 
L 92.855455 278.390765 
L 93.489545 288.244904 
L 94.123636 290.467377 
L 94.757727 290.277484 
L 96.025909 290.29883 
L 96.66 289.047723 
L 97.294091 285.951732 
L 97.928182 283.665081 
L 99.196364 286.071896 
L 99.830455 285.651286 
L 100.464545 283.750014 
L 101.098636 282.567736 
L 101.732727 283.478559 
L 102.366818 283.217528 
L 103.000909 284.409751 
L 104.269091 282.083761 
L 104.903182 283.931297 
L 105.537273 283.215177 
L 106.171364 284.867931 
L 106.805455 286.960513 
L 107.439545 287.565563 
L 108.073636 287.595675 
L 108.707727 285.584985 
L 109.341818 285.426858 
L 109.975909 283.191502 
L 110.61 283.191741 
L 111.244091 285.977495 
L 111.878182 284.822324 
L 112.512273 286.277902 
L 113.780455 286.606581 
L 114.414545 286.460092 
L 115.048636 286.766013 
L 115.682727 288.315391 
L 116.950909 287.413539 
L 117.585 287.514904 
L 118.219091 284.425033 
L 118.853182 283.158091 
L 119.487273 282.565272 
L 120.121364 282.465116 
L 120.755455 280.530355 
L 121.389545 280.775277 
L 122.023636 279.807505 
L 122.657727 276.776001 
L 123.291818 276.155152 
L 123.925909 277.474086 
L 124.56 281.216303 
L 125.194091 276.988728 
L 125.828182 274.763429 
L 126.462273 270.289386 
L 127.096364 269.239578 
L 127.730455 271.018478 
L 128.364545 275.171542 
L 128.998636 276.151716 
L 129.632727 276.673653 
L 130.266818 277.632602 
L 130.900909 278.278935 
L 131.535 280.533535 
L 132.169091 281.006581 
L 132.803182 282.352078 
L 133.437273 281.309565 
L 134.071364 281.961376 
L 134.705455 283.870851 
L 135.339545 282.066207 
L 135.973636 279.450502 
L 136.607727 280.243766 
L 137.241818 284.110193 
L 137.875909 286.01894 
L 138.51 287.082094 
L 139.144091 288.395499 
L 140.412273 290.090218 
L 141.046364 289.969733 
L 141.680455 290.223453 
L 142.314545 289.878886 
L 143.582727 291.032092 
L 144.216818 290.491683 
L 144.850909 290.368773 
L 145.485 290.416222 
L 146.119091 289.877513 
L 146.753182 290.676699 
L 147.387273 291.240673 
L 148.021364 290.364782 
L 148.655455 290.462179 
L 149.289545 290.756698 
L 149.923636 290.667065 
L 150.557727 289.656834 
L 151.191818 289.284471 
L 151.825909 288.276304 
L 152.46 287.536169 
L 153.094091 287.467092 
L 154.362273 286.352829 
L 154.996364 286.790134 
L 155.630455 287.841015 
L 156.264545 286.665446 
L 156.898636 286.269395 
L 157.532727 287.501985 
L 158.166818 286.442971 
L 159.435 284.914912 
L 160.069091 286.521386 
L 160.703182 287.305853 
L 161.337273 287.012773 
L 161.971364 287.5956 
L 162.605455 287.121396 
L 163.239545 287.178612 
L 164.507727 288.013179 
L 165.141818 286.828736 
L 165.775909 287.802134 
L 166.41 286.008436 
L 167.044091 285.496126 
L 167.678182 286.751477 
L 168.312273 285.480513 
L 168.946364 285.114896 
L 169.580455 285.382286 
L 170.214545 284.282936 
L 170.848636 283.42166 
L 171.482727 284.867442 
L 172.116818 284.627263 
L 172.750909 287.464034 
L 173.385 288.023517 
L 174.019091 286.933344 
L 174.653182 286.757395 
L 175.287273 287.083696 
L 175.921364 285.633552 
L 176.555455 284.99972 
L 177.189545 284.899455 
L 178.457727 286.836872 
L 179.091818 285.746011 
L 179.725909 286.20134 
L 180.36 286.934544 
L 180.994091 285.54915 
L 181.628182 284.458103 
L 182.262273 284.030804 
L 183.530455 285.027795 
L 184.164545 284.302573 
L 184.798636 282.375383 
L 185.432727 282.754603 
L 186.066818 279.101399 
L 186.700909 278.015409 
L 187.335 279.933288 
L 187.969091 282.616572 
L 188.603182 281.873501 
L 189.237273 279.99865 
L 189.871364 279.189359 
L 190.505455 277.711078 
L 191.139545 278.225187 
L 191.773636 277.00131 
L 192.407727 273.414485 
L 193.041818 274.647201 
L 193.675909 274.979832 
L 194.31 274.460489 
L 194.944091 272.559151 
L 195.578182 272.42046 
L 196.212273 276.50661 
L 196.846364 275.226335 
L 197.480455 274.317796 
L 198.114545 271.231113 
L 198.748636 275.004291 
L 199.382727 276.867614 
L 200.016818 274.319101 
L 200.650909 275.539384 
L 201.285 275.796363 
L 201.919091 275.345782 
L 203.821364 270.649558 
L 204.455455 271.263898 
L 205.089545 273.416654 
L 205.723636 273.62006 
L 206.991818 278.410407 
L 207.625909 276.872871 
L 208.26 274.600927 
L 208.894091 275.592067 
L 209.528182 274.298065 
L 210.162273 274.566859 
L 210.796364 277.010297 
L 211.430455 276.506654 
L 212.064545 273.627563 
L 212.698636 273.860121 
L 213.332727 271.833724 
L 213.966818 273.759089 
L 214.600909 273.321602 
L 215.235 272.507766 
L 215.869091 269.139793 
L 216.503182 268.86779 
L 217.137273 272.04334 
L 217.771364 271.915107 
L 218.405455 272.686463 
L 219.039545 270.521286 
L 219.673636 269.244792 
L 220.307727 271.579465 
L 220.941818 272.879622 
L 221.575909 271.886578 
L 222.21 269.70423 
L 222.844091 273.454658 
L 223.478182 274.22434 
L 224.112273 274.559044 
L 224.746364 272.707589 
L 225.380455 273.544099 
L 226.014545 272.019874 
L 226.648636 269.172847 
L 227.282727 270.233251 
L 227.916818 269.161491 
L 228.550909 268.839935 
L 229.185 264.84547 
L 229.819091 264.861354 
L 230.453182 264.711421 
L 231.087273 263.95738 
L 231.721364 265.687018 
L 232.355455 265.349694 
L 233.623636 257.251854 
L 234.257727 264.197958 
L 234.891818 266.51011 
L 235.525909 265.669256 
L 236.16 264.300064 
L 236.794091 265.838714 
L 238.062273 258.452675 
L 238.696364 258.326069 
L 239.964545 263.230092 
L 240.598636 264.92309 
L 241.232727 267.305391 
L 241.866818 270.893701 
L 242.500909 268.511309 
L 243.135 261.296985 
L 243.769091 257.028756 
L 244.403182 257.042905 
L 245.037273 265.269879 
L 245.671364 263.098387 
L 246.939545 256.400962 
L 248.207727 264.452725 
L 248.841818 259.704325 
L 249.475909 261.216597 
L 250.11 262.010748 
L 250.744091 260.970133 
L 251.378182 261.475511 
L 252.012273 263.047027 
L 252.646364 261.333815 
L 253.280455 257.324646 
L 253.914545 261.911306 
L 254.548636 257.943511 
L 255.182727 257.764822 
L 255.816818 258.271395 
L 256.450909 256.13757 
L 257.085 250.357982 
L 258.353182 260.543358 
L 258.987273 255.428048 
L 259.621364 252.566297 
L 260.255455 256.335307 
L 261.523636 251.135689 
L 262.157727 248.464143 
L 262.791818 253.537732 
L 263.425909 251.356168 
L 264.06 252.096938 
L 264.694091 247.471081 
L 265.328182 248.905777 
L 265.962273 257.302884 
L 267.230455 249.224741 
L 267.864545 248.612392 
L 268.498636 251.70919 
L 269.132727 248.82782 
L 269.766818 247.944824 
L 270.400909 251.739969 
L 271.035 254.75325 
L 271.669091 252.673692 
L 272.303182 254.558538 
L 272.937273 251.251074 
L 273.571364 249.964094 
L 274.205455 256.659958 
L 274.839545 257.815301 
L 275.473636 258.439489 
L 276.107727 254.507313 
L 276.741818 249.023886 
L 277.375909 251.294722 
L 278.01 255.431239 
L 278.644091 246.761295 
L 279.278182 248.804924 
L 279.912273 244.887182 
L 281.814545 225.709918 
L 282.448636 220.927231 
L 283.082727 225.782541 
L 283.716818 216.946797 
L 284.350909 212.25298 
L 284.985 199.407552 
L 285.619091 198.233032 
L 286.253182 194.12639 
L 286.887273 203.747367 
L 287.521364 199.147833 
L 288.155455 173.181024 
L 288.789545 170.175789 
L 289.423636 154.243982 
L 290.057727 151.719016 
L 291.96 170.54985 
L 292.594091 161.157886 
L 293.862273 149.869 
L 294.496364 139.642279 
L 295.130455 137.770047 
L 295.764545 122.64844 
L 296.398636 126.590611 
L 297.032727 115.302426 
L 297.666818 118.190873 
L 298.300909 110.626842 
L 298.935 97.523882 
L 299.569091 90.735648 
L 300.203182 115.691434 
L 300.837273 87.608703 
L 302.105455 53.568 
L 302.739545 58.367922 
L 303.373636 66.675669 
L 304.007727 112.533029 
L 304.641818 114.495488 
L 305.275909 78.215723 
L 305.91 103.82479 
L 306.544091 120.488539 
L 307.178182 125.499571 
L 307.812273 109.403139 
L 309.080455 142.96244 
L 309.714545 146.935818 
L 310.348636 144.234631 
L 310.982727 152.33914 
L 311.616818 153.543898 
L 312.250909 149.020055 
L 312.885 165.074126 
L 313.519091 163.699712 
L 314.787273 181.383944 
L 315.421364 200.001231 
L 316.055455 188.321504 
L 316.689545 181.039068 
L 317.323636 181.102631 
L 317.957727 193.695833 
L 318.591818 199.185258 
L 319.225909 205.95655 
L 319.86 202.217669 
L 320.494091 212.563242 
L 321.128182 195.53752 
L 321.762273 196.046276 
L 322.396364 201.79642 
L 323.030455 191.335695 
L 323.664545 194.311956 
L 324.298636 195.777849 
L 324.932727 205.696046 
L 325.566818 213.78158 
L 326.200909 208.447337 
L 326.835 210.315894 
L 327.469091 210.10274 
L 328.103182 216.680063 
L 328.737273 221.013074 
L 329.371364 224.391175 
L 330.005455 218.004264 
L 330.639545 226.346452 
L 331.273636 236.936201 
L 331.907727 239.806134 
L 332.541818 225.862789 
L 333.175909 231.961904 
L 333.81 242.860007 
L 334.444091 248.019245 
L 335.078182 244.154946 
L 335.712273 245.561274 
L 336.980455 256.612441 
L 337.614545 253.056473 
L 338.248636 253.601937 
L 338.882727 258.380164 
L 339.516818 252.852982 
L 340.150909 249.05163 
L 340.785 251.630582 
L 341.419091 255.653255 
L 342.053182 253.932785 
L 342.687273 254.380579 
L 343.321364 260.214311 
L 343.955455 260.784105 
L 344.589545 260.374722 
L 345.223636 266.55018 
L 345.857727 269.661157 
L 346.491818 264.932277 
L 347.125909 261.341051 
L 347.76 260.298346 
L 348.394091 263.239433 
L 349.028182 262.833538 
L 349.662273 263.439696 
L 351.564545 270.480991 
L 352.198636 268.232795 
L 352.832727 270.697852 
L 353.466818 271.186717 
L 354.100909 273.322447 
L 354.735 270.74629 
L 355.369091 269.246841 
L 356.003182 272.12923 
L 356.637273 272.607757 
L 357.271364 268.353662 
L 357.905455 268.189784 
L 358.539545 272.841922 
L 359.807727 274.328205 
L 360.441818 275.731656 
L 361.075909 276.49065 
L 361.71 275.847893 
L 362.344091 275.932374 
L 362.978182 275.845144 
L 363.612273 279.115735 
L 364.246364 279.251526 
L 364.880455 277.720846 
L 365.514545 277.49381 
L 366.148636 279.037934 
L 366.782727 277.412172 
L 367.416818 276.327646 
L 368.050909 277.007715 
L 368.685 278.150644 
L 369.319091 276.46235 
L 369.953182 276.285453 
L 370.587273 276.918969 
L 371.221364 278.861087 
L 371.855455 279.532282 
L 372.489545 276.324655 
L 373.123636 278.815922 
L 373.757727 279.639647 
L 374.391818 278.759461 
L 375.025909 279.253738 
L 375.66 279.455792 
L 376.294091 279.955928 
L 376.928182 279.110186 
L 378.196364 276.124374 
L 378.830455 275.946259 
L 379.464545 274.222636 
L 380.098636 277.161438 
L 380.732727 275.762711 
L 381.366818 272.671305 
L 382.000909 272.314208 
L 382.635 272.572791 
L 383.269091 274.933813 
L 383.903182 274.465566 
L 384.537273 272.921553 
L 385.171364 273.124982 
L 385.805455 270.287193 
L 386.439545 270.051538 
L 387.073636 269.140986 
L 387.707727 271.013972 
L 388.341818 269.078737 
L 388.975909 269.914143 
L 389.61 268.356991 
L 390.244091 267.419289 
L 391.512273 266.413267 
L 392.146364 270.589006 
L 392.780455 267.746782 
L 393.414545 263.290281 
L 394.048636 262.042535 
L 394.682727 263.993221 
L 395.316818 255.943741 
L 395.950909 254.767471 
L 396.585 258.505931 
L 397.219091 255.463375 
L 397.853182 261.906791 
L 398.487273 270.244724 
L 398.487273 270.244724 
" clip-path="url(#p6f40ded0d2)" style="fill: none; stroke: #2ca02c; stroke-width: 1.5; stroke-linecap: square"/>
   </g>
   <g id="patch_3">
    <path d="M 57.6 307.584 
L 57.6 41.472 
" style="fill: none; stroke: #000000; stroke-width: 0.8; stroke-linejoin: miter; stroke-linecap: square"/>
   </g>
   <g id="patch_4">
    <path d="M 414.72 307.584 
L 414.72 41.472 
" style="fill: none; stroke: #000000; stroke-width: 0.8; stroke-linejoin: miter; stroke-linecap: square"/>
   </g>
   <g id="patch_5">
    <path d="M 57.6 307.584 
L 414.72 307.584 
" style="fill: none; stroke: #000000; stroke-width: 0.8; stroke-linejoin: miter; stroke-linecap: square"/>
   </g>
   <g id="patch_6">
    <path d="M 57.6 41.472 
L 414.72 41.472 
" style="fill: none; stroke: #000000; stroke-width: 0.8; stroke-linejoin: miter; stroke-linecap: square"/>
   </g>
   <g id="text_18">
    <!-- Accelerometer Power Spectral Density -->
    <g transform="translate(121.022813 35.472) scale(0.12 -0.12)">
     <defs>
      <path id="DejaVuSans-41" d="M 2188 4044 
L 1331 1722 
L 3047 1722 
L 2188 4044 
z
M 1831 4666 
L 2547 4666 
L 4325 0 
L 3669 0 
L 3244 1197 
L 1141 1197 
L 716 0 
L 50 0 
L 1831 4666 
z
" transform="scale(0.015625)"/>
      <path id="DejaVuSans-6f" d="M 1959 3097 
Q 1497 3097 1228 2736 
Q 959 2375 959 1747 
Q 959 1119 1226 758 
Q 1494 397 1959 397 
Q 2419 397 2687 759 
Q 2956 1122 2956 1747 
Q 2956 2369 2687 2733 
Q 2419 3097 1959 3097 
z
M 1959 3584 
Q 2709 3584 3137 3096 
Q 3566 2609 3566 1747 
Q 3566 888 3137 398 
Q 2709 -91 1959 -91 
Q 1206 -91 779 398 
Q 353 888 353 1747 
Q 353 2609 779 3096 
Q 1206 3584 1959 3584 
z
" transform="scale(0.015625)"/>
      <path id="DejaVuSans-6d" d="M 3328 2828 
Q 3544 3216 3844 3400 
Q 4144 3584 4550 3584 
Q 5097 3584 5394 3201 
Q 5691 2819 5691 2113 
L 5691 0 
L 5113 0 
L 5113 2094 
Q 5113 2597 4934 2840 
Q 4756 3084 4391 3084 
Q 3944 3084 3684 2787 
Q 3425 2491 3425 1978 
L 3425 0 
L 2847 0 
L 2847 2094 
Q 2847 2600 2669 2842 
Q 2491 3084 2119 3084 
Q 1678 3084 1418 2786 
Q 1159 2488 1159 1978 
L 1159 0 
L 581 0 
L 581 3500 
L 1159 3500 
L 1159 2956 
Q 1356 3278 1631 3431 
Q 1906 3584 2284 3584 
Q 2666 3584 2933 3390 
Q 3200 3197 3328 2828 
z
" transform="scale(0.015625)"/>
      <path id="DejaVuSans-50" d="M 1259 4147 
L 1259 2394 
L 2053 2394 
Q 2494 2394 2734 2622 
Q 2975 2850 2975 3272 
Q 2975 3691 2734 3919 
Q 2494 4147 2053 4147 
L 1259 4147 
z
M 628 4666 
L 2053 4666 
Q 2838 4666 3239 4311 
Q 3641 3956 3641 3272 
Q 3641 2581 3239 2228 
Q 2838 1875 2053 1875 
L 1259 1875 
L 1259 0 
L 628 0 
L 628 4666 
z
" transform="scale(0.015625)"/>
      <path id="DejaVuSans-77" d="M 269 3500 
L 844 3500 
L 1563 769 
L 2278 3500 
L 2956 3500 
L 3675 769 
L 4391 3500 
L 4966 3500 
L 4050 0 
L 3372 0 
L 2619 2869 
L 1863 0 
L 1184 0 
L 269 3500 
z
" transform="scale(0.015625)"/>
     </defs>
     <use xlink:href="#DejaVuSans-41"/>
     <use xlink:href="#DejaVuSans-63" x="66.658203"/>
     <use xlink:href="#DejaVuSans-63" x="121.638672"/>
     <use xlink:href="#DejaVuSans-65" x="176.619141"/>
     <use xlink:href="#DejaVuSans-6c" x="238.142578"/>
     <use xlink:href="#DejaVuSans-65" x="265.925781"/>
     <use xlink:href="#DejaVuSans-72" x="327.449219"/>
     <use xlink:href="#DejaVuSans-6f" x="366.3125"/>
     <use xlink:href="#DejaVuSans-6d" x="427.494141"/>
     <use xlink:href="#DejaVuSans-65" x="524.90625"/>
     <use xlink:href="#DejaVuSans-74" x="586.429688"/>
     <use xlink:href="#DejaVuSans-65" x="625.638672"/>
     <use xlink:href="#DejaVuSans-72" x="687.162109"/>
     <use xlink:href="#DejaVuSans-20" x="728.275391"/>
     <use xlink:href="#DejaVuSans-50" x="760.0625"/>
     <use xlink:href="#DejaVuSans-6f" x="816.740234"/>
     <use xlink:href="#DejaVuSans-77" x="877.921875"/>
     <use xlink:href="#DejaVuSans-65" x="959.708984"/>
     <use xlink:href="#DejaVuSans-72" x="1021.232422"/>
     <use xlink:href="#DejaVuSans-20" x="1062.345703"/>
     <use xlink:href="#DejaVuSans-53" x="1094.132812"/>
     <use xlink:href="#DejaVuSans-70" x="1157.609375"/>
     <use xlink:href="#DejaVuSans-65" x="1221.085938"/>
     <use xlink:href="#DejaVuSans-63" x="1282.609375"/>
     <use xlink:href="#DejaVuSans-74" x="1337.589844"/>
     <use xlink:href="#DejaVuSans-72" x="1376.798828"/>
     <use xlink:href="#DejaVuSans-61" x="1417.912109"/>
     <use xlink:href="#DejaVuSans-6c" x="1479.191406"/>
     <use xlink:href="#DejaVuSans-20" x="1506.974609"/>
     <use xlink:href="#DejaVuSans-44" x="1538.761719"/>
     <use xlink:href="#DejaVuSans-65" x="1615.763672"/>
     <use xlink:href="#DejaVuSans-6e" x="1677.287109"/>
     <use xlink:href="#DejaVuSans-73" x="1740.666016"/>
     <use xlink:href="#DejaVuSans-69" x="1792.765625"/>
     <use xlink:href="#DejaVuSans-74" x="1820.548828"/>
     <use xlink:href="#DejaVuSans-79" x="1859.757812"/>
    </g>
   </g>
   <g id="legend_1">
    <g id="patch_7">
     <path d="M 363.673125 93.506375 
L 407.72 93.506375 
Q 409.72 93.506375 409.72 91.506375 
L 409.72 48.472 
Q 409.72 46.472 407.72 46.472 
L 363.673125 46.472 
Q 361.673125 46.472 361.673125 48.472 
L 361.673125 91.506375 
Q 361.673125 93.506375 363.673125 93.506375 
z
" style="fill: #ffffff; opacity: 0.8; stroke: #cccccc; stroke-linejoin: miter"/>
    </g>
    <g id="line2d_34">
     <path d="M 365.673125 54.570438 
L 375.673125 54.570438 
L 385.673125 54.570438 
" style="fill: none; stroke: #1f77b4; stroke-width: 1.5; stroke-linecap: square"/>
    </g>
    <g id="text_19">
     <!-- ax -->
     <g transform="translate(393.673125 58.070438) scale(0.1 -0.1)">
      <defs>
       <path id="DejaVuSans-78" d="M 3513 3500 
L 2247 1797 
L 3578 0 
L 2900 0 
L 1881 1375 
L 863 0 
L 184 0 
L 1544 1831 
L 300 3500 
L 978 3500 
L 1906 2253 
L 2834 3500 
L 3513 3500 
z
" transform="scale(0.015625)"/>
      </defs>
      <use xlink:href="#DejaVuSans-61"/>
      <use xlink:href="#DejaVuSans-78" x="61.279297"/>
     </g>
    </g>
    <g id="line2d_35">
     <path d="M 365.673125 69.248563 
L 375.673125 69.248563 
L 385.673125 69.248563 
" style="fill: none; stroke: #ff7f0e; stroke-width: 1.5; stroke-linecap: square"/>
    </g>
    <g id="text_20">
     <!-- ay -->
     <g transform="translate(393.673125 72.748563) scale(0.1 -0.1)">
      <use xlink:href="#DejaVuSans-61"/>
      <use xlink:href="#DejaVuSans-79" x="61.279297"/>
     </g>
    </g>
    <g id="line2d_36">
     <path d="M 365.673125 83.926688 
L 375.673125 83.926688 
L 385.673125 83.926688 
" style="fill: none; stroke: #2ca02c; stroke-width: 1.5; stroke-linecap: square"/>
    </g>
    <g id="text_21">
     <!-- az -->
     <g transform="translate(393.673125 87.426688) scale(0.1 -0.1)">
      <use xlink:href="#DejaVuSans-61"/>
      <use xlink:href="#DejaVuSans-7a" x="61.279297"/>
     </g>
    </g>
   </g>
  </g>
 </g>
 <defs>
  <clipPath id="p6f40ded0d2">
   <rect x="57.6" y="41.472" width="357.12" height="266.112"/>
  </clipPath>
 </defs>
</svg>
