<?xml version="1.0" encoding="utf-8" standalone="no"?>
<!DOCTYPE svg PUBLIC "-//W3C//DTD SVG 1.1//EN"
  "http://www.w3.org/Graphics/SVG/1.1/DTD/svg11.dtd">
<svg xmlns:xlink="http://www.w3.org/1999/xlink" width="460.8pt" height="345.6pt" viewBox="0 0 460.8 345.6" xmlns="http://www.w3.org/2000/svg" version="1.1">
 <metadata>
  <rdf:RDF xmlns:dc="http://purl.org/dc/elements/1.1/" xmlns:cc="http://creativecommons.org/ns#" xmlns:rdf="http://www.w3.org/1999/02/22-rdf-syntax-ns#">
   <cc:Work>
    <dc:type rdf:resource="http://purl.org/dc/dcmitype/StillImage"/>
    <dc:date>2024-06-03T12:09:46.147820</dc:date>
    <dc:format>image/svg+xml</dc:format>
    <dc:creator>
     <cc:Agent>
      <dc:title>Matplotlib v3.8.4, https://matplotlib.org/</dc:title>
     </cc:Agent>
    </dc:creator>
   </cc:Work>
  </rdf:RDF>
 </metadata>
 <defs>
  <style type="text/css">*{stroke-linejoin: round; stroke-linecap: butt}</style>
 </defs>
 <g id="figure_1">
  <g id="patch_1">
   <path d="M 0 345.6 
L 460.8 345.6 
L 460.8 0 
L 0 0 
z
" style="fill: #ffffff"/>
  </g>
  <g id="axes_1">
   <g id="patch_2">
    <path d="M 57.6 307.584 
L 414.72 307.584 
L 414.72 41.472 
L 57.6 41.472 
z
" style="fill: #ffffff"/>
   </g>
   <g id="matplotlib.axis_1">
    <g id="xtick_1">
     <g id="line2d_1">
      <path d="M 73.832727 307.584 
L 73.832727 41.472 
" clip-path="url(#p476de3856e)" style="fill: none; stroke: #b0b0b0; stroke-width: 0.8; stroke-linecap: square"/>
     </g>
     <g id="line2d_2">
      <defs>
       <path id="m61662744bf" d="M 0 0 
L 0 3.5 
" style="stroke: #000000; stroke-width: 0.8"/>
      </defs>
      <g>
       <use xlink:href="#m61662744bf" x="73.832727" y="307.584" style="stroke: #000000; stroke-width: 0.8"/>
      </g>
     </g>
     <g id="text_1">
      <!-- 0 -->
      <g transform="translate(70.651477 322.182437) scale(0.1 -0.1)">
       <defs>
        <path id="DejaVuSans-30" d="M 2034 4250 
Q 1547 4250 1301 3770 
Q 1056 3291 1056 2328 
Q 1056 1369 1301 889 
Q 1547 409 2034 409 
Q 2525 409 2770 889 
Q 3016 1369 3016 2328 
Q 3016 3291 2770 3770 
Q 2525 4250 2034 4250 
z
M 2034 4750 
Q 2819 4750 3233 4129 
Q 3647 3509 3647 2328 
Q 3647 1150 3233 529 
Q 2819 -91 2034 -91 
Q 1250 -91 836 529 
Q 422 1150 422 2328 
Q 422 3509 836 4129 
Q 1250 4750 2034 4750 
z
" transform="scale(0.015625)"/>
       </defs>
       <use xlink:href="#DejaVuSans-30"/>
      </g>
     </g>
    </g>
    <g id="xtick_2">
     <g id="line2d_3">
      <path d="M 138.763636 307.584 
L 138.763636 41.472 
" clip-path="url(#p476de3856e)" style="fill: none; stroke: #b0b0b0; stroke-width: 0.8; stroke-linecap: square"/>
     </g>
     <g id="line2d_4">
      <g>
       <use xlink:href="#m61662744bf" x="138.763636" y="307.584" style="stroke: #000000; stroke-width: 0.8"/>
      </g>
     </g>
     <g id="text_2">
      <!-- 20 -->
      <g transform="translate(132.401136 322.182437) scale(0.1 -0.1)">
       <defs>
        <path id="DejaVuSans-32" d="M 1228 531 
L 3431 531 
L 3431 0 
L 469 0 
L 469 531 
Q 828 903 1448 1529 
Q 2069 2156 2228 2338 
Q 2531 2678 2651 2914 
Q 2772 3150 2772 3378 
Q 2772 3750 2511 3984 
Q 2250 4219 1831 4219 
Q 1534 4219 1204 4116 
Q 875 4013 500 3803 
L 500 4441 
Q 881 4594 1212 4672 
Q 1544 4750 1819 4750 
Q 2544 4750 2975 4387 
Q 3406 4025 3406 3419 
Q 3406 3131 3298 2873 
Q 3191 2616 2906 2266 
Q 2828 2175 2409 1742 
Q 1991 1309 1228 531 
z
" transform="scale(0.015625)"/>
       </defs>
       <use xlink:href="#DejaVuSans-32"/>
       <use xlink:href="#DejaVuSans-30" x="63.623047"/>
      </g>
     </g>
    </g>
    <g id="xtick_3">
     <g id="line2d_5">
      <path d="M 203.694545 307.584 
L 203.694545 41.472 
" clip-path="url(#p476de3856e)" style="fill: none; stroke: #b0b0b0; stroke-width: 0.8; stroke-linecap: square"/>
     </g>
     <g id="line2d_6">
      <g>
       <use xlink:href="#m61662744bf" x="203.694545" y="307.584" style="stroke: #000000; stroke-width: 0.8"/>
      </g>
     </g>
     <g id="text_3">
      <!-- 40 -->
      <g transform="translate(197.332045 322.182437) scale(0.1 -0.1)">
       <defs>
        <path id="DejaVuSans-34" d="M 2419 4116 
L 825 1625 
L 2419 1625 
L 2419 4116 
z
M 2253 4666 
L 3047 4666 
L 3047 1625 
L 3713 1625 
L 3713 1100 
L 3047 1100 
L 3047 0 
L 2419 0 
L 2419 1100 
L 313 1100 
L 313 1709 
L 2253 4666 
z
" transform="scale(0.015625)"/>
       </defs>
       <use xlink:href="#DejaVuSans-34"/>
       <use xlink:href="#DejaVuSans-30" x="63.623047"/>
      </g>
     </g>
    </g>
    <g id="xtick_4">
     <g id="line2d_7">
      <path d="M 268.625455 307.584 
L 268.625455 41.472 
" clip-path="url(#p476de3856e)" style="fill: none; stroke: #b0b0b0; stroke-width: 0.8; stroke-linecap: square"/>
     </g>
     <g id="line2d_8">
      <g>
       <use xlink:href="#m61662744bf" x="268.625455" y="307.584" style="stroke: #000000; stroke-width: 0.8"/>
      </g>
     </g>
     <g id="text_4">
      <!-- 60 -->
      <g transform="translate(262.262955 322.182437) scale(0.1 -0.1)">
       <defs>
        <path id="DejaVuSans-36" d="M 2113 2584 
Q 1688 2584 1439 2293 
Q 1191 2003 1191 1497 
Q 1191 994 1439 701 
Q 1688 409 2113 409 
Q 2538 409 2786 701 
Q 3034 994 3034 1497 
Q 3034 2003 2786 2293 
Q 2538 2584 2113 2584 
z
M 3366 4563 
L 3366 3988 
Q 3128 4100 2886 4159 
Q 2644 4219 2406 4219 
Q 1781 4219 1451 3797 
Q 1122 3375 1075 2522 
Q 1259 2794 1537 2939 
Q 1816 3084 2150 3084 
Q 2853 3084 3261 2657 
Q 3669 2231 3669 1497 
Q 3669 778 3244 343 
Q 2819 -91 2113 -91 
Q 1303 -91 875 529 
Q 447 1150 447 2328 
Q 447 3434 972 4092 
Q 1497 4750 2381 4750 
Q 2619 4750 2861 4703 
Q 3103 4656 3366 4563 
z
" transform="scale(0.015625)"/>
       </defs>
       <use xlink:href="#DejaVuSans-36"/>
       <use xlink:href="#DejaVuSans-30" x="63.623047"/>
      </g>
     </g>
    </g>
    <g id="xtick_5">
     <g id="line2d_9">
      <path d="M 333.556364 307.584 
L 333.556364 41.472 
" clip-path="url(#p476de3856e)" style="fill: none; stroke: #b0b0b0; stroke-width: 0.8; stroke-linecap: square"/>
     </g>
     <g id="line2d_10">
      <g>
       <use xlink:href="#m61662744bf" x="333.556364" y="307.584" style="stroke: #000000; stroke-width: 0.8"/>
      </g>
     </g>
     <g id="text_5">
      <!-- 80 -->
      <g transform="translate(327.193864 322.182437) scale(0.1 -0.1)">
       <defs>
        <path id="DejaVuSans-38" d="M 2034 2216 
Q 1584 2216 1326 1975 
Q 1069 1734 1069 1313 
Q 1069 891 1326 650 
Q 1584 409 2034 409 
Q 2484 409 2743 651 
Q 3003 894 3003 1313 
Q 3003 1734 2745 1975 
Q 2488 2216 2034 2216 
z
M 1403 2484 
Q 997 2584 770 2862 
Q 544 3141 544 3541 
Q 544 4100 942 4425 
Q 1341 4750 2034 4750 
Q 2731 4750 3128 4425 
Q 3525 4100 3525 3541 
Q 3525 3141 3298 2862 
Q 3072 2584 2669 2484 
Q 3125 2378 3379 2068 
Q 3634 1759 3634 1313 
Q 3634 634 3220 271 
Q 2806 -91 2034 -91 
Q 1263 -91 848 271 
Q 434 634 434 1313 
Q 434 1759 690 2068 
Q 947 2378 1403 2484 
z
M 1172 3481 
Q 1172 3119 1398 2916 
Q 1625 2713 2034 2713 
Q 2441 2713 2670 2916 
Q 2900 3119 2900 3481 
Q 2900 3844 2670 4047 
Q 2441 4250 2034 4250 
Q 1625 4250 1398 4047 
Q 1172 3844 1172 3481 
z
" transform="scale(0.015625)"/>
       </defs>
       <use xlink:href="#DejaVuSans-38"/>
       <use xlink:href="#DejaVuSans-30" x="63.623047"/>
      </g>
     </g>
    </g>
    <g id="xtick_6">
     <g id="line2d_11">
      <path d="M 398.487273 307.584 
L 398.487273 41.472 
" clip-path="url(#p476de3856e)" style="fill: none; stroke: #b0b0b0; stroke-width: 0.8; stroke-linecap: square"/>
     </g>
     <g id="line2d_12">
      <g>
       <use xlink:href="#m61662744bf" x="398.487273" y="307.584" style="stroke: #000000; stroke-width: 0.8"/>
      </g>
     </g>
     <g id="text_6">
      <!-- 100 -->
      <g transform="translate(388.943523 322.182437) scale(0.1 -0.1)">
       <defs>
        <path id="DejaVuSans-31" d="M 794 531 
L 1825 531 
L 1825 4091 
L 703 3866 
L 703 4441 
L 1819 4666 
L 2450 4666 
L 2450 531 
L 3481 531 
L 3481 0 
L 794 0 
L 794 531 
z
" transform="scale(0.015625)"/>
       </defs>
       <use xlink:href="#DejaVuSans-31"/>
       <use xlink:href="#DejaVuSans-30" x="63.623047"/>
       <use xlink:href="#DejaVuSans-30" x="127.246094"/>
      </g>
     </g>
    </g>
    <g id="text_7">
     <!-- Frequency [Hz] -->
     <g transform="translate(198.455312 335.860562) scale(0.1 -0.1)">
      <defs>
       <path id="DejaVuSans-46" d="M 628 4666 
L 3309 4666 
L 3309 4134 
L 1259 4134 
L 1259 2759 
L 3109 2759 
L 3109 2228 
L 1259 2228 
L 1259 0 
L 628 0 
L 628 4666 
z
" transform="scale(0.015625)"/>
       <path id="DejaVuSans-72" d="M 2631 2963 
Q 2534 3019 2420 3045 
Q 2306 3072 2169 3072 
Q 1681 3072 1420 2755 
Q 1159 2438 1159 1844 
L 1159 0 
L 581 0 
L 581 3500 
L 1159 3500 
L 1159 2956 
Q 1341 3275 1631 3429 
Q 1922 3584 2338 3584 
Q 2397 3584 2469 3576 
Q 2541 3569 2628 3553 
L 2631 2963 
z
" transform="scale(0.015625)"/>
       <path id="DejaVuSans-65" d="M 3597 1894 
L 3597 1613 
L 953 1613 
Q 991 1019 1311 708 
Q 1631 397 2203 397 
Q 2534 397 2845 478 
Q 3156 559 3463 722 
L 3463 178 
Q 3153 47 2828 -22 
Q 2503 -91 2169 -91 
Q 1331 -91 842 396 
Q 353 884 353 1716 
Q 353 2575 817 3079 
Q 1281 3584 2069 3584 
Q 2775 3584 3186 3129 
Q 3597 2675 3597 1894 
z
M 3022 2063 
Q 3016 2534 2758 2815 
Q 2500 3097 2075 3097 
Q 1594 3097 1305 2825 
Q 1016 2553 972 2059 
L 3022 2063 
z
" transform="scale(0.015625)"/>
       <path id="DejaVuSans-71" d="M 947 1747 
Q 947 1113 1208 752 
Q 1469 391 1925 391 
Q 2381 391 2643 752 
Q 2906 1113 2906 1747 
Q 2906 2381 2643 2742 
Q 2381 3103 1925 3103 
Q 1469 3103 1208 2742 
Q 947 2381 947 1747 
z
M 2906 525 
Q 2725 213 2448 61 
Q 2172 -91 1784 -91 
Q 1150 -91 751 415 
Q 353 922 353 1747 
Q 353 2572 751 3078 
Q 1150 3584 1784 3584 
Q 2172 3584 2448 3432 
Q 2725 3281 2906 2969 
L 2906 3500 
L 3481 3500 
L 3481 -1331 
L 2906 -1331 
L 2906 525 
z
" transform="scale(0.015625)"/>
       <path id="DejaVuSans-75" d="M 544 1381 
L 544 3500 
L 1119 3500 
L 1119 1403 
Q 1119 906 1312 657 
Q 1506 409 1894 409 
Q 2359 409 2629 706 
Q 2900 1003 2900 1516 
L 2900 3500 
L 3475 3500 
L 3475 0 
L 2900 0 
L 2900 538 
Q 2691 219 2414 64 
Q 2138 -91 1772 -91 
Q 1169 -91 856 284 
Q 544 659 544 1381 
z
M 1991 3584 
L 1991 3584 
z
" transform="scale(0.015625)"/>
       <path id="DejaVuSans-6e" d="M 3513 2113 
L 3513 0 
L 2938 0 
L 2938 2094 
Q 2938 2591 2744 2837 
Q 2550 3084 2163 3084 
Q 1697 3084 1428 2787 
Q 1159 2491 1159 1978 
L 1159 0 
L 581 0 
L 581 3500 
L 1159 3500 
L 1159 2956 
Q 1366 3272 1645 3428 
Q 1925 3584 2291 3584 
Q 2894 3584 3203 3211 
Q 3513 2838 3513 2113 
z
" transform="scale(0.015625)"/>
       <path id="DejaVuSans-63" d="M 3122 3366 
L 3122 2828 
Q 2878 2963 2633 3030 
Q 2388 3097 2138 3097 
Q 1578 3097 1268 2742 
Q 959 2388 959 1747 
Q 959 1106 1268 751 
Q 1578 397 2138 397 
Q 2388 397 2633 464 
Q 2878 531 3122 666 
L 3122 134 
Q 2881 22 2623 -34 
Q 2366 -91 2075 -91 
Q 1284 -91 818 406 
Q 353 903 353 1747 
Q 353 2603 823 3093 
Q 1294 3584 2113 3584 
Q 2378 3584 2631 3529 
Q 2884 3475 3122 3366 
z
" transform="scale(0.015625)"/>
       <path id="DejaVuSans-79" d="M 2059 -325 
Q 1816 -950 1584 -1140 
Q 1353 -1331 966 -1331 
L 506 -1331 
L 506 -850 
L 844 -850 
Q 1081 -850 1212 -737 
Q 1344 -625 1503 -206 
L 1606 56 
L 191 3500 
L 800 3500 
L 1894 763 
L 2988 3500 
L 3597 3500 
L 2059 -325 
z
" transform="scale(0.015625)"/>
       <path id="DejaVuSans-20" transform="scale(0.015625)"/>
       <path id="DejaVuSans-5b" d="M 550 4863 
L 1875 4863 
L 1875 4416 
L 1125 4416 
L 1125 -397 
L 1875 -397 
L 1875 -844 
L 550 -844 
L 550 4863 
z
" transform="scale(0.015625)"/>
       <path id="DejaVuSans-48" d="M 628 4666 
L 1259 4666 
L 1259 2753 
L 3553 2753 
L 3553 4666 
L 4184 4666 
L 4184 0 
L 3553 0 
L 3553 2222 
L 1259 2222 
L 1259 0 
L 628 0 
L 628 4666 
z
" transform="scale(0.015625)"/>
       <path id="DejaVuSans-7a" d="M 353 3500 
L 3084 3500 
L 3084 2975 
L 922 459 
L 3084 459 
L 3084 0 
L 275 0 
L 275 525 
L 2438 3041 
L 353 3041 
L 353 3500 
z
" transform="scale(0.015625)"/>
       <path id="DejaVuSans-5d" d="M 1947 4863 
L 1947 -844 
L 622 -844 
L 622 -397 
L 1369 -397 
L 1369 4416 
L 622 4416 
L 622 4863 
L 1947 4863 
z
" transform="scale(0.015625)"/>
      </defs>
      <use xlink:href="#DejaVuSans-46"/>
      <use xlink:href="#DejaVuSans-72" x="50.269531"/>
      <use xlink:href="#DejaVuSans-65" x="89.132812"/>
      <use xlink:href="#DejaVuSans-71" x="150.65625"/>
      <use xlink:href="#DejaVuSans-75" x="214.132812"/>
      <use xlink:href="#DejaVuSans-65" x="277.511719"/>
      <use xlink:href="#DejaVuSans-6e" x="339.035156"/>
      <use xlink:href="#DejaVuSans-63" x="402.414062"/>
      <use xlink:href="#DejaVuSans-79" x="457.394531"/>
      <use xlink:href="#DejaVuSans-20" x="516.574219"/>
      <use xlink:href="#DejaVuSans-5b" x="548.361328"/>
      <use xlink:href="#DejaVuSans-48" x="587.375"/>
      <use xlink:href="#DejaVuSans-7a" x="662.570312"/>
      <use xlink:href="#DejaVuSans-5d" x="715.060547"/>
     </g>
    </g>
   </g>
   <g id="matplotlib.axis_2">
    <g id="ytick_1">
     <g id="line2d_13">
      <path d="M 57.6 307.522687 
L 414.72 307.522687 
" clip-path="url(#p476de3856e)" style="fill: none; stroke: #b0b0b0; stroke-width: 0.8; stroke-linecap: square"/>
     </g>
     <g id="line2d_14">
      <defs>
       <path id="m18781a390d" d="M 0 0 
L -3.5 0 
" style="stroke: #000000; stroke-width: 0.8"/>
      </defs>
      <g>
       <use xlink:href="#m18781a390d" x="57.6" y="307.522687" style="stroke: #000000; stroke-width: 0.8"/>
      </g>
     </g>
     <g id="text_8">
      <!-- 0.00 -->
      <g transform="translate(28.334375 311.321906) scale(0.1 -0.1)">
       <defs>
        <path id="DejaVuSans-2e" d="M 684 794 
L 1344 794 
L 1344 0 
L 684 0 
L 684 794 
z
" transform="scale(0.015625)"/>
       </defs>
       <use xlink:href="#DejaVuSans-30"/>
       <use xlink:href="#DejaVuSans-2e" x="63.623047"/>
       <use xlink:href="#DejaVuSans-30" x="95.410156"/>
       <use xlink:href="#DejaVuSans-30" x="159.033203"/>
      </g>
     </g>
    </g>
    <g id="ytick_2">
     <g id="line2d_15">
      <path d="M 57.6 252.358091 
L 414.72 252.358091 
" clip-path="url(#p476de3856e)" style="fill: none; stroke: #b0b0b0; stroke-width: 0.8; stroke-linecap: square"/>
     </g>
     <g id="line2d_16">
      <g>
       <use xlink:href="#m18781a390d" x="57.6" y="252.358091" style="stroke: #000000; stroke-width: 0.8"/>
      </g>
     </g>
     <g id="text_9">
      <!-- 0.05 -->
      <g transform="translate(28.334375 256.15731) scale(0.1 -0.1)">
       <defs>
        <path id="DejaVuSans-35" d="M 691 4666 
L 3169 4666 
L 3169 4134 
L 1269 4134 
L 1269 2991 
Q 1406 3038 1543 3061 
Q 1681 3084 1819 3084 
Q 2600 3084 3056 2656 
Q 3513 2228 3513 1497 
Q 3513 744 3044 326 
Q 2575 -91 1722 -91 
Q 1428 -91 1123 -41 
Q 819 9 494 109 
L 494 744 
Q 775 591 1075 516 
Q 1375 441 1709 441 
Q 2250 441 2565 725 
Q 2881 1009 2881 1497 
Q 2881 1984 2565 2268 
Q 2250 2553 1709 2553 
Q 1456 2553 1204 2497 
Q 953 2441 691 2322 
L 691 4666 
z
" transform="scale(0.015625)"/>
       </defs>
       <use xlink:href="#DejaVuSans-30"/>
       <use xlink:href="#DejaVuSans-2e" x="63.623047"/>
       <use xlink:href="#DejaVuSans-30" x="95.410156"/>
       <use xlink:href="#DejaVuSans-35" x="159.033203"/>
      </g>
     </g>
    </g>
    <g id="ytick_3">
     <g id="line2d_17">
      <path d="M 57.6 197.193496 
L 414.72 197.193496 
" clip-path="url(#p476de3856e)" style="fill: none; stroke: #b0b0b0; stroke-width: 0.8; stroke-linecap: square"/>
     </g>
     <g id="line2d_18">
      <g>
       <use xlink:href="#m18781a390d" x="57.6" y="197.193496" style="stroke: #000000; stroke-width: 0.8"/>
      </g>
     </g>
     <g id="text_10">
      <!-- 0.10 -->
      <g transform="translate(28.334375 200.992715) scale(0.1 -0.1)">
       <use xlink:href="#DejaVuSans-30"/>
       <use xlink:href="#DejaVuSans-2e" x="63.623047"/>
       <use xlink:href="#DejaVuSans-31" x="95.410156"/>
       <use xlink:href="#DejaVuSans-30" x="159.033203"/>
      </g>
     </g>
    </g>
    <g id="ytick_4">
     <g id="line2d_19">
      <path d="M 57.6 142.0289 
L 414.72 142.0289 
" clip-path="url(#p476de3856e)" style="fill: none; stroke: #b0b0b0; stroke-width: 0.8; stroke-linecap: square"/>
     </g>
     <g id="line2d_20">
      <g>
       <use xlink:href="#m18781a390d" x="57.6" y="142.0289" style="stroke: #000000; stroke-width: 0.8"/>
      </g>
     </g>
     <g id="text_11">
      <!-- 0.15 -->
      <g transform="translate(28.334375 145.828119) scale(0.1 -0.1)">
       <use xlink:href="#DejaVuSans-30"/>
       <use xlink:href="#DejaVuSans-2e" x="63.623047"/>
       <use xlink:href="#DejaVuSans-31" x="95.410156"/>
       <use xlink:href="#DejaVuSans-35" x="159.033203"/>
      </g>
     </g>
    </g>
    <g id="ytick_5">
     <g id="line2d_21">
      <path d="M 57.6 86.864304 
L 414.72 86.864304 
" clip-path="url(#p476de3856e)" style="fill: none; stroke: #b0b0b0; stroke-width: 0.8; stroke-linecap: square"/>
     </g>
     <g id="line2d_22">
      <g>
       <use xlink:href="#m18781a390d" x="57.6" y="86.864304" style="stroke: #000000; stroke-width: 0.8"/>
      </g>
     </g>
     <g id="text_12">
      <!-- 0.20 -->
      <g transform="translate(28.334375 90.663523) scale(0.1 -0.1)">
       <use xlink:href="#DejaVuSans-30"/>
       <use xlink:href="#DejaVuSans-2e" x="63.623047"/>
       <use xlink:href="#DejaVuSans-32" x="95.410156"/>
       <use xlink:href="#DejaVuSans-30" x="159.033203"/>
      </g>
     </g>
    </g>
    <g id="text_13">
     <!-- Spectral Density ($m/s²  / \sqrt{Hz}$) -->
     <g transform="translate(22.234375 244.728) rotate(-90) scale(0.1 -0.1)">
      <defs>
       <path id="DejaVuSans-53" d="M 3425 4513 
L 3425 3897 
Q 3066 4069 2747 4153 
Q 2428 4238 2131 4238 
Q 1616 4238 1336 4038 
Q 1056 3838 1056 3469 
Q 1056 3159 1242 3001 
Q 1428 2844 1947 2747 
L 2328 2669 
Q 3034 2534 3370 2195 
Q 3706 1856 3706 1288 
Q 3706 609 3251 259 
Q 2797 -91 1919 -91 
Q 1588 -91 1214 -16 
Q 841 59 441 206 
L 441 856 
Q 825 641 1194 531 
Q 1563 422 1919 422 
Q 2459 422 2753 634 
Q 3047 847 3047 1241 
Q 3047 1584 2836 1778 
Q 2625 1972 2144 2069 
L 1759 2144 
Q 1053 2284 737 2584 
Q 422 2884 422 3419 
Q 422 4038 858 4394 
Q 1294 4750 2059 4750 
Q 2388 4750 2728 4690 
Q 3069 4631 3425 4513 
z
" transform="scale(0.015625)"/>
       <path id="DejaVuSans-70" d="M 1159 525 
L 1159 -1331 
L 581 -1331 
L 581 3500 
L 1159 3500 
L 1159 2969 
Q 1341 3281 1617 3432 
Q 1894 3584 2278 3584 
Q 2916 3584 3314 3078 
Q 3713 2572 3713 1747 
Q 3713 922 3314 415 
Q 2916 -91 2278 -91 
Q 1894 -91 1617 61 
Q 1341 213 1159 525 
z
M 3116 1747 
Q 3116 2381 2855 2742 
Q 2594 3103 2138 3103 
Q 1681 3103 1420 2742 
Q 1159 2381 1159 1747 
Q 1159 1113 1420 752 
Q 1681 391 2138 391 
Q 2594 391 2855 752 
Q 3116 1113 3116 1747 
z
" transform="scale(0.015625)"/>
       <path id="DejaVuSans-74" d="M 1172 4494 
L 1172 3500 
L 2356 3500 
L 2356 3053 
L 1172 3053 
L 1172 1153 
Q 1172 725 1289 603 
Q 1406 481 1766 481 
L 2356 481 
L 2356 0 
L 1766 0 
Q 1100 0 847 248 
Q 594 497 594 1153 
L 594 3053 
L 172 3053 
L 172 3500 
L 594 3500 
L 594 4494 
L 1172 4494 
z
" transform="scale(0.015625)"/>
       <path id="DejaVuSans-61" d="M 2194 1759 
Q 1497 1759 1228 1600 
Q 959 1441 959 1056 
Q 959 750 1161 570 
Q 1363 391 1709 391 
Q 2188 391 2477 730 
Q 2766 1069 2766 1631 
L 2766 1759 
L 2194 1759 
z
M 3341 1997 
L 3341 0 
L 2766 0 
L 2766 531 
Q 2569 213 2275 61 
Q 1981 -91 1556 -91 
Q 1019 -91 701 211 
Q 384 513 384 1019 
Q 384 1609 779 1909 
Q 1175 2209 1959 2209 
L 2766 2209 
L 2766 2266 
Q 2766 2663 2505 2880 
Q 2244 3097 1772 3097 
Q 1472 3097 1187 3025 
Q 903 2953 641 2809 
L 641 3341 
Q 956 3463 1253 3523 
Q 1550 3584 1831 3584 
Q 2591 3584 2966 3190 
Q 3341 2797 3341 1997 
z
" transform="scale(0.015625)"/>
       <path id="DejaVuSans-6c" d="M 603 4863 
L 1178 4863 
L 1178 0 
L 603 0 
L 603 4863 
z
" transform="scale(0.015625)"/>
       <path id="DejaVuSans-44" d="M 1259 4147 
L 1259 519 
L 2022 519 
Q 2988 519 3436 956 
Q 3884 1394 3884 2338 
Q 3884 3275 3436 3711 
Q 2988 4147 2022 4147 
L 1259 4147 
z
M 628 4666 
L 1925 4666 
Q 3281 4666 3915 4102 
Q 4550 3538 4550 2338 
Q 4550 1131 3912 565 
Q 3275 0 1925 0 
L 628 0 
L 628 4666 
z
" transform="scale(0.015625)"/>
       <path id="DejaVuSans-73" d="M 2834 3397 
L 2834 2853 
Q 2591 2978 2328 3040 
Q 2066 3103 1784 3103 
Q 1356 3103 1142 2972 
Q 928 2841 928 2578 
Q 928 2378 1081 2264 
Q 1234 2150 1697 2047 
L 1894 2003 
Q 2506 1872 2764 1633 
Q 3022 1394 3022 966 
Q 3022 478 2636 193 
Q 2250 -91 1575 -91 
Q 1294 -91 989 -36 
Q 684 19 347 128 
L 347 722 
Q 666 556 975 473 
Q 1284 391 1588 391 
Q 1994 391 2212 530 
Q 2431 669 2431 922 
Q 2431 1156 2273 1281 
Q 2116 1406 1581 1522 
L 1381 1569 
Q 847 1681 609 1914 
Q 372 2147 372 2553 
Q 372 3047 722 3315 
Q 1072 3584 1716 3584 
Q 2034 3584 2315 3537 
Q 2597 3491 2834 3397 
z
" transform="scale(0.015625)"/>
       <path id="DejaVuSans-69" d="M 603 3500 
L 1178 3500 
L 1178 0 
L 603 0 
L 603 3500 
z
M 603 4863 
L 1178 4863 
L 1178 4134 
L 603 4134 
L 603 4863 
z
" transform="scale(0.015625)"/>
       <path id="DejaVuSans-28" d="M 1984 4856 
Q 1566 4138 1362 3434 
Q 1159 2731 1159 2009 
Q 1159 1288 1364 580 
Q 1569 -128 1984 -844 
L 1484 -844 
Q 1016 -109 783 600 
Q 550 1309 550 2009 
Q 550 2706 781 3412 
Q 1013 4119 1484 4856 
L 1984 4856 
z
" transform="scale(0.015625)"/>
       <path id="DejaVuSans-Oblique-6d" d="M 5747 2113 
L 5338 0 
L 4763 0 
L 5166 2094 
Q 5191 2228 5203 2325 
Q 5216 2422 5216 2491 
Q 5216 2772 5059 2928 
Q 4903 3084 4622 3084 
Q 4203 3084 3875 2770 
Q 3547 2456 3450 1953 
L 3066 0 
L 2491 0 
L 2900 2094 
Q 2925 2209 2937 2307 
Q 2950 2406 2950 2484 
Q 2950 2769 2794 2926 
Q 2638 3084 2363 3084 
Q 1938 3084 1609 2770 
Q 1281 2456 1184 1953 
L 800 0 
L 225 0 
L 909 3500 
L 1484 3500 
L 1375 2956 
Q 1609 3263 1923 3423 
Q 2238 3584 2597 3584 
Q 2978 3584 3223 3384 
Q 3469 3184 3519 2828 
Q 3781 3197 4126 3390 
Q 4472 3584 4856 3584 
Q 5306 3584 5551 3325 
Q 5797 3066 5797 2591 
Q 5797 2488 5784 2364 
Q 5772 2241 5747 2113 
z
" transform="scale(0.015625)"/>
       <path id="DejaVuSans-2f" d="M 1625 4666 
L 2156 4666 
L 531 -594 
L 0 -594 
L 1625 4666 
z
" transform="scale(0.015625)"/>
       <path id="DejaVuSans-Oblique-73" d="M 3200 3397 
L 3091 2853 
Q 2863 2978 2609 3040 
Q 2356 3103 2088 3103 
Q 1634 3103 1373 2948 
Q 1113 2794 1113 2528 
Q 1113 2219 1719 2053 
Q 1766 2041 1788 2034 
L 1972 1978 
Q 2547 1819 2739 1644 
Q 2931 1469 2931 1166 
Q 2931 609 2489 259 
Q 2047 -91 1331 -91 
Q 1053 -91 747 -37 
Q 441 16 72 128 
L 184 722 
Q 500 559 806 475 
Q 1113 391 1394 391 
Q 1816 391 2080 572 
Q 2344 753 2344 1031 
Q 2344 1331 1650 1516 
L 1591 1531 
L 1394 1581 
Q 956 1697 753 1886 
Q 550 2075 550 2369 
Q 550 2928 970 3256 
Q 1391 3584 2113 3584 
Q 2397 3584 2667 3537 
Q 2938 3491 3200 3397 
z
" transform="scale(0.015625)"/>
       <path id="DejaVuSans-b2" d="M 838 2444 
L 2163 2444 
L 2163 2088 
L 294 2088 
L 294 2431 
Q 400 2528 597 2703 
Q 1672 3656 1672 3950 
Q 1672 4156 1509 4282 
Q 1347 4409 1081 4409 
Q 919 4409 728 4354 
Q 538 4300 313 4191 
L 313 4575 
Q 553 4663 761 4706 
Q 969 4750 1147 4750 
Q 1600 4750 1872 4544 
Q 2144 4338 2144 4000 
Q 2144 3566 1109 2678 
Q 934 2528 838 2444 
z
" transform="scale(0.015625)"/>
       <path id="STIXSizeOneSym-Regular-221a" d="M 6970 9933 
L 3373 -1888 
L 3104 -1888 
L 1626 2918 
Q 1555 3149 1465 3251 
Q 1376 3354 1229 3354 
Q 1011 3354 794 3181 
L 717 3309 
L 1766 4115 
L 1926 4115 
L 3379 -602 
L 3405 -602 
L 6605 9933 
L 6970 9933 
z
" transform="scale(0.015625)"/>
       <path id="DejaVuSans-Oblique-48" d="M 1081 4666 
L 1716 4666 
L 1344 2753 
L 3634 2753 
L 4006 4666 
L 4641 4666 
L 3731 0 
L 3097 0 
L 3531 2222 
L 1241 2222 
L 806 0 
L 172 0 
L 1081 4666 
z
" transform="scale(0.015625)"/>
       <path id="DejaVuSans-Oblique-7a" d="M 744 3500 
L 3475 3500 
L 3372 2975 
L 738 459 
L 2913 459 
L 2822 0 
L -19 0 
L 84 525 
L 2719 3041 
L 653 3041 
L 744 3500 
z
" transform="scale(0.015625)"/>
       <path id="DejaVuSans-29" d="M 513 4856 
L 1013 4856 
Q 1481 4119 1714 3412 
Q 1947 2706 1947 2009 
Q 1947 1309 1714 600 
Q 1481 -109 1013 -844 
L 513 -844 
Q 928 -128 1133 580 
Q 1338 1288 1338 2009 
Q 1338 2731 1133 3434 
Q 928 4138 513 4856 
z
" transform="scale(0.015625)"/>
      </defs>
      <use xlink:href="#DejaVuSans-53" transform="translate(0 0.578125)"/>
      <use xlink:href="#DejaVuSans-70" transform="translate(63.476562 0.578125)"/>
      <use xlink:href="#DejaVuSans-65" transform="translate(126.953125 0.578125)"/>
      <use xlink:href="#DejaVuSans-63" transform="translate(188.476562 0.578125)"/>
      <use xlink:href="#DejaVuSans-74" transform="translate(243.457031 0.578125)"/>
      <use xlink:href="#DejaVuSans-72" transform="translate(282.666016 0.578125)"/>
      <use xlink:href="#DejaVuSans-61" transform="translate(323.779297 0.578125)"/>
      <use xlink:href="#DejaVuSans-6c" transform="translate(385.058594 0.578125)"/>
      <use xlink:href="#DejaVuSans-20" transform="translate(412.841797 0.578125)"/>
      <use xlink:href="#DejaVuSans-44" transform="translate(444.628906 0.578125)"/>
      <use xlink:href="#DejaVuSans-65" transform="translate(521.630859 0.578125)"/>
      <use xlink:href="#DejaVuSans-6e" transform="translate(583.154297 0.578125)"/>
      <use xlink:href="#DejaVuSans-73" transform="translate(646.533203 0.578125)"/>
      <use xlink:href="#DejaVuSans-69" transform="translate(698.632812 0.578125)"/>
      <use xlink:href="#DejaVuSans-74" transform="translate(726.416016 0.578125)"/>
      <use xlink:href="#DejaVuSans-79" transform="translate(765.625 0.578125)"/>
      <use xlink:href="#DejaVuSans-20" transform="translate(824.804688 0.578125)"/>
      <use xlink:href="#DejaVuSans-28" transform="translate(856.591797 0.578125)"/>
      <use xlink:href="#DejaVuSans-Oblique-6d" transform="translate(895.605469 0.578125)"/>
      <use xlink:href="#DejaVuSans-2f" transform="translate(993.017578 0.578125)"/>
      <use xlink:href="#DejaVuSans-Oblique-73" transform="translate(1026.708984 0.578125)"/>
      <use xlink:href="#DejaVuSans-b2" transform="translate(1078.808594 0.578125)"/>
      <use xlink:href="#DejaVuSans-2f" transform="translate(1118.896484 0.578125)"/>
      <use xlink:href="#STIXSizeOneSym-Regular-221a" transform="translate(1152.587891 17.09375) scale(0.563912)"/>
      <use xlink:href="#DejaVuSans-Oblique-48" transform="translate(1224.676254 0.84375)"/>
      <use xlink:href="#DejaVuSans-Oblique-7a" transform="translate(1299.871567 0.84375)"/>
      <use xlink:href="#DejaVuSans-29" transform="translate(1364.861801 0.578125)"/>
      <path d="M 1212.176254 97.5 
L 1212.176254 103.75 
L 1364.861801 103.75 
L 1364.861801 97.5 
L 1212.176254 97.5 
z
"/>
     </g>
    </g>
   </g>
   <g id="line2d_23">
    <path d="M 73.832727 278.634927 
L 74.466818 244.057099 
L 75.100909 258.105078 
L 76.369091 276.340039 
L 77.637273 287.470496 
L 78.271364 287.562351 
L 78.905455 290.949778 
L 79.539545 292.715484 
L 80.173636 293.086231 
L 80.807727 292.538128 
L 81.441818 291.55051 
L 82.075909 294.240408 
L 82.71 294.169199 
L 83.344091 293.926894 
L 83.978182 294.355893 
L 84.612273 293.250182 
L 85.246364 292.571978 
L 85.880455 292.558694 
L 87.148636 293.60564 
L 87.782727 292.541324 
L 88.416818 293.218012 
L 89.050909 292.315247 
L 89.685 291.640544 
L 90.319091 292.496266 
L 90.953182 291.986027 
L 91.587273 291.686441 
L 92.221364 288.592584 
L 92.855455 287.00163 
L 93.489545 288.952146 
L 94.123636 286.823554 
L 94.757727 288.569117 
L 95.391818 289.617447 
L 96.025909 287.973819 
L 96.66 288.396506 
L 97.294091 288.016235 
L 97.928182 286.852966 
L 98.562273 288.730299 
L 99.196364 288.849071 
L 99.830455 287.796649 
L 101.098636 291.077312 
L 102.366818 289.074718 
L 103.000909 287.135674 
L 103.635 286.158183 
L 104.269091 284.10137 
L 104.903182 284.981352 
L 105.537273 288.264389 
L 106.171364 288.162663 
L 107.439545 277.4507 
L 108.073636 279.953336 
L 108.707727 278.22862 
L 109.341818 277.800529 
L 109.975909 280.805454 
L 110.61 280.863823 
L 111.244091 282.407552 
L 111.878182 278.448967 
L 112.512273 278.476892 
L 113.146364 281.087364 
L 113.780455 281.875189 
L 115.048636 278.219973 
L 115.682727 275.477616 
L 116.316818 276.508659 
L 116.950909 277.132636 
L 117.585 279.663645 
L 118.853182 277.86934 
L 119.487273 274.517503 
L 120.121364 272.21331 
L 120.755455 274.211162 
L 121.389545 274.433997 
L 122.023636 274.982837 
L 122.657727 276.24477 
L 123.291818 273.602221 
L 123.925909 274.814281 
L 124.56 270.02126 
L 125.194091 271.152489 
L 125.828182 275.524332 
L 126.462273 277.904355 
L 127.096364 274.008208 
L 127.730455 273.086124 
L 128.364545 274.503071 
L 128.998636 278.076481 
L 129.632727 272.853759 
L 130.266818 277.248322 
L 130.900909 280.20049 
L 131.535 279.620575 
L 132.169091 280.275609 
L 132.803182 279.374965 
L 133.437273 276.486918 
L 134.071364 276.925373 
L 134.705455 278.979377 
L 135.339545 281.904418 
L 135.973636 282.985198 
L 136.607727 281.0666 
L 137.241818 283.454687 
L 137.875909 281.847221 
L 138.51 282.087742 
L 139.144091 281.353992 
L 139.778182 278.245704 
L 140.412273 278.734032 
L 141.046364 280.755885 
L 141.680455 276.075158 
L 142.314545 277.497209 
L 142.948636 277.157584 
L 143.582727 278.660326 
L 144.216818 283.093867 
L 144.850909 282.264864 
L 145.485 280.888324 
L 146.119091 280.534163 
L 146.753182 280.892506 
L 147.387273 281.491068 
L 148.021364 283.717003 
L 148.655455 282.173416 
L 149.289545 279.164808 
L 149.923636 278.752144 
L 150.557727 274.156764 
L 151.191818 275.644023 
L 151.825909 278.192277 
L 152.46 276.632326 
L 153.094091 279.385947 
L 153.728182 280.832081 
L 154.362273 281.479243 
L 154.996364 276.597415 
L 155.630455 277.60827 
L 156.264545 277.032021 
L 156.898636 274.225977 
L 157.532727 272.521963 
L 158.166818 274.672805 
L 159.435 277.478891 
L 160.069091 277.985711 
L 160.703182 277.544655 
L 161.337273 278.815443 
L 161.971364 276.604912 
L 162.605455 276.076245 
L 163.239545 276.694044 
L 163.873636 275.006872 
L 164.507727 269.672385 
L 165.141818 272.681443 
L 165.775909 274.148257 
L 166.41 269.146227 
L 167.044091 274.135567 
L 167.678182 273.920795 
L 168.312273 270.869522 
L 168.946364 268.532419 
L 169.580455 265.761347 
L 170.214545 271.489909 
L 170.848636 271.582088 
L 171.482727 268.335664 
L 172.116818 267.460454 
L 172.750909 267.484884 
L 173.385 261.772823 
L 174.019091 262.734248 
L 174.653182 265.439452 
L 175.287273 268.897638 
L 175.921364 268.235734 
L 176.555455 264.973366 
L 177.189545 264.034608 
L 177.823636 263.756412 
L 178.457727 260.943502 
L 179.091818 259.224175 
L 179.725909 262.487716 
L 180.36 258.865864 
L 180.994091 259.433356 
L 181.628182 263.541265 
L 182.262273 263.280997 
L 182.896364 265.338169 
L 183.530455 268.158837 
L 184.164545 265.004974 
L 184.798636 260.372607 
L 186.066818 263.297244 
L 186.700909 261.093065 
L 187.335 261.014405 
L 187.969091 262.611116 
L 188.603182 260.896359 
L 189.237273 255.765204 
L 189.871364 254.585995 
L 190.505455 254.759581 
L 191.139545 258.596139 
L 191.773636 257.738085 
L 192.407727 257.900867 
L 193.041818 254.848054 
L 193.675909 250.171351 
L 194.31 249.063424 
L 194.944091 254.000183 
L 195.578182 257.798763 
L 196.212273 257.323113 
L 196.846364 253.505633 
L 197.480455 256.25833 
L 198.114545 260.185319 
L 198.748636 254.333305 
L 199.382727 256.054727 
L 200.016818 262.967295 
L 200.650909 265.593878 
L 201.285 263.284534 
L 203.187273 252.618745 
L 203.821364 255.083495 
L 204.455455 258.643008 
L 205.089545 258.894286 
L 205.723636 254.684868 
L 206.357727 258.765685 
L 206.991818 258.527786 
L 207.625909 256.740307 
L 208.26 261.945219 
L 208.894091 258.840151 
L 209.528182 261.930677 
L 210.162273 262.509714 
L 210.796364 263.347332 
L 211.430455 260.7569 
L 212.064545 260.604189 
L 212.698636 262.226145 
L 213.332727 261.720939 
L 213.966818 267.753339 
L 214.600909 269.122078 
L 215.235 268.45854 
L 215.869091 262.339088 
L 217.137273 264.405585 
L 217.771364 266.674257 
L 219.039545 270.030866 
L 220.307727 268.421628 
L 220.941818 270.032157 
L 221.575909 267.485762 
L 222.21 269.639534 
L 222.844091 270.063206 
L 223.478182 267.258281 
L 224.112273 260.847267 
L 224.746364 265.177594 
L 225.380455 270.311988 
L 226.014545 268.908719 
L 226.648636 271.695727 
L 227.282727 272.081749 
L 227.916818 273.898046 
L 228.550909 276.976688 
L 229.185 273.147743 
L 229.819091 265.424409 
L 230.453182 264.954148 
L 231.087273 267.201429 
L 231.721364 268.981145 
L 232.355455 270.161295 
L 232.989545 272.498779 
L 233.623636 272.649895 
L 234.257727 273.204758 
L 234.891818 271.091662 
L 235.525909 271.931931 
L 236.16 270.049957 
L 236.794091 273.496227 
L 237.428182 271.956865 
L 238.062273 268.660632 
L 238.696364 271.785208 
L 239.330455 264.791176 
L 239.964545 270.009452 
L 240.598636 272.132285 
L 241.232727 273.165123 
L 241.866818 274.501269 
L 242.500909 274.841378 
L 243.135 272.944119 
L 243.769091 274.316174 
L 244.403182 277.590818 
L 245.037273 278.750069 
L 245.671364 275.018284 
L 246.305455 269.20698 
L 246.939545 270.214219 
L 247.573636 277.35528 
L 248.207727 278.805795 
L 248.841818 278.767912 
L 249.475909 281.381995 
L 250.11 280.626754 
L 250.744091 277.845975 
L 252.012273 276.645511 
L 252.646364 276.892579 
L 253.280455 274.747479 
L 254.548636 281.733276 
L 255.182727 282.825859 
L 255.816818 277.523689 
L 256.450909 276.159102 
L 257.085 276.167559 
L 257.719091 276.321348 
L 258.353182 281.000504 
L 259.621364 277.64232 
L 260.255455 278.572339 
L 260.889545 276.802854 
L 261.523636 278.594762 
L 262.157727 277.011318 
L 262.791818 271.999288 
L 263.425909 272.077907 
L 264.06 274.455146 
L 264.694091 270.525175 
L 265.328182 273.176893 
L 265.962273 274.174406 
L 266.596364 273.944136 
L 267.230455 270.223713 
L 267.864545 273.736805 
L 268.498636 274.855394 
L 269.132727 270.166949 
L 269.766818 270.193588 
L 270.400909 271.39404 
L 271.035 271.440216 
L 271.669091 270.920312 
L 272.303182 273.662889 
L 272.937273 272.188238 
L 273.571364 266.971523 
L 274.205455 267.3149 
L 274.839545 270.426582 
L 276.107727 268.840033 
L 276.741818 265.904663 
L 277.375909 263.516663 
L 278.01 263.746955 
L 278.644091 266.687309 
L 279.912273 270.65517 
L 280.546364 264.0339 
L 281.180455 262.484506 
L 281.814545 262.077047 
L 282.448636 265.405052 
L 283.082727 259.969655 
L 283.716818 258.658442 
L 284.350909 256.956627 
L 285.619091 259.379489 
L 286.253182 252.795852 
L 286.887273 242.920021 
L 287.521364 248.961235 
L 288.155455 256.426977 
L 288.789545 260.054911 
L 289.423636 257.159276 
L 290.057727 257.77316 
L 291.325909 254.740774 
L 291.96 251.734625 
L 292.594091 258.970856 
L 293.228182 257.341065 
L 293.862273 248.812001 
L 294.496364 248.688427 
L 295.130455 255.00348 
L 295.764545 250.329459 
L 296.398636 248.313246 
L 297.032727 249.04164 
L 297.666818 246.114692 
L 298.300909 240.336548 
L 298.935 232.726363 
L 299.569091 240.430799 
L 300.203182 246.159526 
L 300.837273 244.898016 
L 301.471364 240.538939 
L 302.105455 241.061065 
L 302.739545 231.676999 
L 303.373636 230.708457 
L 304.007727 238.735694 
L 304.641818 236.51826 
L 305.275909 223.903875 
L 305.91 228.205867 
L 306.544091 217.07676 
L 307.178182 229.908371 
L 307.812273 225.963319 
L 308.446364 212.955382 
L 309.080455 211.687602 
L 309.714545 221.69933 
L 310.348636 218.620997 
L 310.982727 222.260002 
L 311.616818 216.723042 
L 312.885 220.281736 
L 313.519091 217.923654 
L 314.153182 215.027308 
L 314.787273 203.573784 
L 315.421364 202.79234 
L 316.689545 230.719639 
L 317.957727 223.648066 
L 318.591818 214.705352 
L 319.225909 219.740676 
L 319.86 212.50701 
L 320.494091 212.179871 
L 321.128182 227.421191 
L 321.762273 220.152361 
L 322.396364 226.724938 
L 323.030455 217.539067 
L 323.664545 219.686908 
L 324.298636 229.068355 
L 324.932727 222.146518 
L 325.566818 219.437282 
L 326.200909 218.336868 
L 326.835 225.293131 
L 327.469091 224.127563 
L 328.103182 227.339359 
L 328.737273 240.119644 
L 329.371364 212.188871 
L 330.005455 227.186797 
L 330.639545 236.373981 
L 331.273636 229.471505 
L 331.907727 227.550969 
L 332.541818 234.562886 
L 333.175909 237.353415 
L 333.81 235.953914 
L 334.444091 217.646666 
L 335.078182 215.417542 
L 335.712273 228.61253 
L 336.346364 237.219812 
L 336.980455 234.213974 
L 337.614545 232.482642 
L 338.248636 246.687084 
L 339.516818 231.156396 
L 340.150909 238.692208 
L 340.785 247.604445 
L 341.419091 249.125513 
L 342.053182 246.808832 
L 342.687273 248.475423 
L 343.321364 245.659491 
L 343.955455 248.382431 
L 344.589545 247.34523 
L 345.857727 243.363313 
L 346.491818 247.260047 
L 347.125909 236.768208 
L 347.76 249.758731 
L 348.394091 257.115684 
L 349.028182 249.570069 
L 349.662273 254.449363 
L 350.296364 250.687502 
L 350.930455 249.948551 
L 351.564545 259.893749 
L 352.198636 254.844469 
L 352.832727 256.455695 
L 353.466818 260.901099 
L 354.100909 258.710452 
L 354.735 259.403104 
L 355.369091 255.351698 
L 356.003182 255.057302 
L 356.637273 260.623166 
L 357.271364 268.327957 
L 357.905455 263.808458 
L 358.539545 260.858594 
L 359.173636 260.273697 
L 359.807727 262.509916 
L 360.441818 266.747384 
L 361.075909 267.214827 
L 361.71 268.278731 
L 362.344091 263.636018 
L 362.978182 255.352825 
L 363.612273 264.44454 
L 364.246364 263.792723 
L 364.880455 267.383067 
L 365.514545 266.249602 
L 366.148636 267.760436 
L 367.416818 272.100304 
L 368.050909 268.762463 
L 368.685 266.8846 
L 369.319091 269.275899 
L 369.953182 273.910362 
L 370.587273 274.040079 
L 371.221364 269.248213 
L 371.855455 268.735363 
L 372.489545 273.687 
L 373.123636 268.29254 
L 374.391818 270.067106 
L 375.025909 272.954142 
L 375.66 270.970842 
L 376.294091 264.962243 
L 376.928182 268.020399 
L 377.562273 271.64379 
L 378.196364 273.445995 
L 378.830455 272.347747 
L 379.464545 275.344786 
L 380.098636 275.801736 
L 380.732727 271.111796 
L 381.366818 269.238301 
L 382.000909 270.871932 
L 382.635 271.706381 
L 383.269091 276.875929 
L 383.903182 279.527658 
L 384.537273 275.293872 
L 385.171364 276.865968 
L 385.805455 276.382856 
L 386.439545 277.64841 
L 387.707727 278.556324 
L 388.341818 277.604986 
L 388.975909 279.830163 
L 389.61 278.630463 
L 390.244091 276.973728 
L 390.878182 278.395889 
L 391.512273 278.671637 
L 392.146364 276.079969 
L 392.780455 274.693652 
L 393.414545 272.752669 
L 394.048636 274.924558 
L 394.682727 280.489569 
L 395.316818 276.318173 
L 395.950909 275.787039 
L 396.585 276.076335 
L 397.219091 276.106687 
L 397.853182 275.838565 
L 398.487273 283.241371 
L 398.487273 283.241371 
" clip-path="url(#p476de3856e)" style="fill: none; stroke: #1f77b4; stroke-width: 1.5; stroke-linecap: square"/>
   </g>
   <g id="line2d_24">
    <path d="M 73.832727 258.292337 
L 74.466818 180.79926 
L 75.100909 67.135129 
L 75.735 92.025209 
L 76.369091 177.709003 
L 77.003182 170.336117 
L 77.637273 228.317065 
L 78.905455 246.720492 
L 79.539545 261.98691 
L 80.173636 265.158232 
L 81.441818 273.687932 
L 82.075909 271.159141 
L 82.71 277.882358 
L 83.344091 278.724827 
L 83.978182 277.500601 
L 84.612273 277.475597 
L 85.246364 275.88915 
L 85.880455 275.93955 
L 86.514545 275.217363 
L 87.148636 278.349441 
L 87.782727 279.487879 
L 88.416818 279.72201 
L 89.050909 280.309546 
L 89.685 281.922606 
L 90.319091 282.61154 
L 91.587273 280.721646 
L 92.221364 281.304772 
L 92.855455 286.616823 
L 93.489545 285.001615 
L 94.123636 282.024083 
L 94.757727 279.643693 
L 95.391818 278.52061 
L 96.025909 275.187649 
L 96.66 276.155348 
L 97.294091 275.630921 
L 97.928182 274.249052 
L 98.562273 275.069365 
L 99.196364 271.873651 
L 99.830455 267.0205 
L 100.464545 265.06513 
L 101.098636 261.191954 
L 101.732727 258.445021 
L 102.366818 262.246168 
L 103.000909 253.072849 
L 103.635 229.619283 
L 104.269091 211.598366 
L 104.903182 212.804412 
L 105.537273 218.909201 
L 106.171364 200.76914 
L 106.805455 170.295971 
L 107.439545 170.168642 
L 108.073636 191.079279 
L 108.707727 180.614554 
L 109.341818 155.889588 
L 109.975909 161.15282 
L 110.61 175.552554 
L 111.244091 175.54574 
L 111.878182 165.634502 
L 112.512273 181.37877 
L 113.146364 186.669755 
L 113.780455 181.219603 
L 115.048636 159.313677 
L 115.682727 141.212959 
L 116.316818 136.310447 
L 116.950909 144.993617 
L 117.585 156.40966 
L 118.219091 147.516718 
L 118.853182 128.980911 
L 119.487273 127.86862 
L 120.121364 118.116838 
L 120.755455 130.961863 
L 121.389545 138.845454 
L 122.023636 135.878275 
L 123.925909 94.63094 
L 124.56 75.450092 
L 125.194091 80.295622 
L 125.828182 90.889856 
L 126.462273 113.970286 
L 127.096364 69.911478 
L 127.730455 70.029627 
L 128.998636 125.365659 
L 129.632727 131.068213 
L 130.266818 158.168472 
L 130.900909 147.102561 
L 132.169091 109.941623 
L 132.803182 106.485895 
L 133.437273 125.086334 
L 134.071364 140.398755 
L 134.705455 139.866461 
L 135.339545 152.022569 
L 135.973636 171.90746 
L 136.607727 152.13181 
L 137.241818 136.837342 
L 137.875909 137.873114 
L 138.51 126.061602 
L 139.144091 148.177803 
L 139.778182 159.088909 
L 140.412273 159.941517 
L 141.046364 153.003301 
L 141.680455 153.623644 
L 142.314545 167.571565 
L 142.948636 159.923411 
L 143.582727 154.317484 
L 144.216818 185.901185 
L 145.485 173.329561 
L 146.119091 174.009475 
L 147.387273 191.354829 
L 148.021364 186.720888 
L 148.655455 187.668864 
L 149.289545 179.043329 
L 149.923636 183.145766 
L 150.557727 176.843821 
L 151.191818 183.568912 
L 151.825909 198.102304 
L 152.46 203.241053 
L 153.094091 198.265801 
L 153.728182 206.699396 
L 154.362273 204.183724 
L 154.996364 202.725711 
L 155.630455 212.77313 
L 156.898636 206.835661 
L 157.532727 205.71494 
L 158.166818 198.060367 
L 158.800909 174.421822 
L 159.435 167.324173 
L 160.069091 182.670023 
L 160.703182 215.804872 
L 161.337273 202.362003 
L 161.971364 186.403582 
L 163.239545 211.157387 
L 163.873636 208.595467 
L 164.507727 202.725909 
L 165.141818 183.020893 
L 165.775909 188.827026 
L 167.044091 191.147813 
L 167.678182 184.40263 
L 168.312273 187.273255 
L 168.946364 176.777403 
L 169.580455 169.356678 
L 170.214545 173.525373 
L 170.848636 186.428055 
L 171.482727 163.098099 
L 172.116818 161.572027 
L 172.750909 169.107843 
L 173.385 139.245966 
L 174.019091 159.740866 
L 174.653182 169.949027 
L 175.287273 163.031533 
L 175.921364 148.92447 
L 176.555455 158.985806 
L 177.189545 158.138023 
L 177.823636 136.208974 
L 178.457727 139.426623 
L 179.091818 136.340179 
L 179.725909 146.652592 
L 180.36 116.484167 
L 180.994091 111.648136 
L 181.628182 128.224856 
L 182.262273 135.041774 
L 182.896364 126.095199 
L 184.164545 114.933319 
L 184.798636 110.434523 
L 185.432727 139.443662 
L 186.066818 162.702766 
L 186.700909 145.75598 
L 187.969091 124.324732 
L 188.603182 110.010877 
L 189.237273 105.133322 
L 189.871364 82.661651 
L 190.505455 109.791491 
L 191.139545 112.728153 
L 191.773636 90.541915 
L 192.407727 106.762553 
L 193.041818 96.957353 
L 194.31 53.568 
L 195.578182 94.5315 
L 196.212273 96.561057 
L 196.846364 113.589531 
L 197.480455 107.000279 
L 198.114545 98.711975 
L 198.748636 97.757076 
L 199.382727 78.112447 
L 200.016818 70.127127 
L 200.650909 111.427635 
L 201.285 110.466507 
L 201.919091 117.880026 
L 202.553182 104.729197 
L 203.187273 105.757554 
L 203.821364 111.092065 
L 204.455455 139.141881 
L 205.089545 143.742049 
L 205.723636 140.30883 
L 206.357727 130.50171 
L 206.991818 116.130727 
L 207.625909 140.955505 
L 208.26 157.106505 
L 208.894091 162.861102 
L 209.528182 142.748354 
L 210.162273 143.286477 
L 210.796364 158.377145 
L 211.430455 164.938685 
L 212.064545 152.900125 
L 212.698636 152.551028 
L 213.332727 159.229907 
L 213.966818 183.130826 
L 214.600909 184.950583 
L 215.235 186.331106 
L 215.869091 163.032674 
L 217.137273 195.172409 
L 217.771364 202.931419 
L 218.405455 197.858604 
L 219.039545 198.211045 
L 219.673636 213.484127 
L 220.307727 220.864886 
L 220.941818 222.084192 
L 221.575909 220.253342 
L 222.844091 231.538489 
L 223.478182 228.897135 
L 224.112273 229.09392 
L 224.746364 233.699245 
L 225.380455 232.084663 
L 226.014545 225.463659 
L 226.648636 240.383584 
L 227.282727 244.806545 
L 227.916818 244.543879 
L 228.550909 249.515809 
L 229.819091 252.525943 
L 230.453182 243.53217 
L 231.087273 237.470905 
L 231.721364 240.597484 
L 232.355455 246.76226 
L 232.989545 247.605647 
L 233.623636 249.887873 
L 234.257727 246.528833 
L 234.891818 255.204197 
L 235.525909 249.61914 
L 236.16 252.471377 
L 236.794091 251.881408 
L 238.062273 261.477111 
L 238.696364 257.368869 
L 239.330455 256.200243 
L 239.964545 260.92928 
L 240.598636 259.299259 
L 241.232727 251.266151 
L 241.866818 251.906745 
L 242.500909 250.173378 
L 243.135 245.752129 
L 243.769091 256.993015 
L 244.403182 250.917526 
L 245.037273 264.615901 
L 245.671364 258.433428 
L 246.305455 255.490402 
L 246.939545 254.836189 
L 247.573636 258.370307 
L 248.207727 259.407162 
L 248.841818 256.354065 
L 249.475909 255.709624 
L 250.11 251.39748 
L 250.744091 260.921245 
L 251.378182 253.86715 
L 252.012273 254.859175 
L 252.646364 257.591664 
L 253.280455 257.757537 
L 253.914545 260.910172 
L 254.548636 260.97126 
L 255.182727 264.67144 
L 255.816818 261.951522 
L 256.450909 257.278821 
L 257.085 260.957806 
L 257.719091 263.876238 
L 258.353182 260.788668 
L 258.987273 259.354233 
L 259.621364 255.309806 
L 260.255455 262.605728 
L 260.889545 265.071914 
L 261.523636 268.866899 
L 262.157727 263.447473 
L 262.791818 259.096712 
L 263.425909 256.563238 
L 264.694091 264.718924 
L 265.328182 259.482196 
L 265.962273 261.46417 
L 266.596364 255.725515 
L 267.864545 262.050232 
L 268.498636 262.525826 
L 269.132727 256.211701 
L 269.766818 251.642183 
L 270.400909 251.683064 
L 272.303182 267.671648 
L 272.937273 262.310797 
L 273.571364 262.180299 
L 274.205455 260.890443 
L 274.839545 264.357515 
L 276.107727 260.72723 
L 276.741818 260.774935 
L 277.375909 261.448982 
L 278.01 265.635598 
L 278.644091 262.680361 
L 279.278182 260.658996 
L 279.912273 261.082886 
L 280.546364 264.022977 
L 281.180455 261.581507 
L 281.814545 257.189235 
L 282.448636 257.726126 
L 283.082727 254.423446 
L 283.716818 255.70533 
L 284.350909 260.616883 
L 284.985 267.424505 
L 285.619091 263.698297 
L 286.253182 253.027777 
L 286.887273 248.954878 
L 287.521364 256.461194 
L 288.155455 251.295209 
L 288.789545 252.502462 
L 289.423636 261.945366 
L 290.057727 256.985929 
L 290.691818 258.40354 
L 291.325909 254.915515 
L 291.96 253.119865 
L 292.594091 258.689047 
L 293.228182 257.253965 
L 293.862273 256.289472 
L 294.496364 253.600672 
L 295.130455 257.806848 
L 295.764545 251.596715 
L 296.398636 251.556335 
L 297.032727 257.746013 
L 297.666818 253.694139 
L 298.300909 253.282123 
L 298.935 249.88746 
L 299.569091 247.450136 
L 300.203182 251.680412 
L 300.837273 242.001355 
L 301.471364 248.309059 
L 302.105455 249.739001 
L 302.739545 256.148824 
L 303.373636 253.728466 
L 304.007727 247.399294 
L 304.641818 243.548173 
L 305.275909 238.482186 
L 306.544091 245.26416 
L 307.178182 248.63701 
L 307.812273 246.508338 
L 308.446364 246.936309 
L 309.080455 246.045688 
L 309.714545 244.465825 
L 310.348636 244.224404 
L 310.982727 246.843485 
L 311.616818 242.652411 
L 312.250909 244.903631 
L 312.885 245.536647 
L 313.519091 239.756401 
L 314.153182 238.058967 
L 314.787273 243.044008 
L 315.421364 242.220364 
L 316.055455 246.65574 
L 316.689545 244.585827 
L 317.323636 250.446337 
L 317.957727 251.030656 
L 318.591818 245.882446 
L 319.225909 245.520877 
L 319.86 248.932562 
L 320.494091 248.796273 
L 321.128182 251.645988 
L 321.762273 247.967501 
L 322.396364 243.043065 
L 323.030455 248.723716 
L 323.664545 253.313276 
L 324.298636 251.247012 
L 324.932727 247.984351 
L 325.566818 249.178759 
L 326.200909 247.514772 
L 326.835 248.011369 
L 327.469091 251.077889 
L 328.103182 255.674486 
L 328.737273 255.808973 
L 329.371364 249.619606 
L 330.005455 250.884483 
L 330.639545 259.271695 
L 331.273636 258.862737 
L 331.907727 257.397464 
L 332.541818 257.205061 
L 333.175909 251.186401 
L 333.81 255.337593 
L 334.444091 252.197582 
L 335.078182 254.641434 
L 335.712273 258.665191 
L 336.346364 253.574601 
L 336.980455 253.546373 
L 337.614545 256.220627 
L 338.248636 255.29704 
L 338.882727 253.724128 
L 339.516818 251.387744 
L 340.150909 255.582483 
L 340.785 257.362051 
L 341.419091 260.017063 
L 342.687273 257.126526 
L 343.321364 257.017532 
L 343.955455 250.560887 
L 345.223636 259.281373 
L 345.857727 258.732284 
L 346.491818 258.538942 
L 347.125909 259.016952 
L 347.76 259.655313 
L 348.394091 262.010041 
L 349.028182 266.530903 
L 349.662273 262.723789 
L 350.296364 260.586862 
L 350.930455 262.310897 
L 351.564545 257.069719 
L 352.198636 259.864257 
L 352.832727 261.662252 
L 353.466818 262.815668 
L 354.100909 264.204042 
L 354.735 261.222646 
L 355.369091 260.863359 
L 356.003182 259.515093 
L 356.637273 263.369311 
L 357.271364 268.464416 
L 357.905455 264.293469 
L 358.539545 259.045769 
L 359.173636 256.383933 
L 359.807727 256.294637 
L 360.441818 254.72469 
L 361.075909 254.308306 
L 361.71 261.442095 
L 362.344091 264.156892 
L 362.978182 259.896593 
L 363.612273 261.386271 
L 364.246364 262.318747 
L 364.880455 260.145077 
L 365.514545 259.303252 
L 366.148636 263.377803 
L 366.782727 262.749172 
L 367.416818 264.171418 
L 368.050909 259.753006 
L 368.685 258.038056 
L 369.319091 257.485754 
L 369.953182 259.518961 
L 370.587273 260.663935 
L 371.221364 261.42735 
L 371.855455 252.332469 
L 372.489545 251.166042 
L 373.123636 257.244608 
L 373.757727 258.875617 
L 374.391818 251.600798 
L 375.025909 259.705014 
L 375.66 261.566234 
L 376.294091 259.944665 
L 377.562273 252.948469 
L 378.196364 253.455736 
L 378.830455 255.875602 
L 379.464545 254.453484 
L 380.098636 245.025472 
L 380.732727 244.693081 
L 381.366818 253.513985 
L 382.000909 255.682227 
L 382.635 257.416546 
L 383.269091 260.22727 
L 383.903182 253.653475 
L 384.537273 255.318815 
L 385.171364 251.005988 
L 385.805455 258.020608 
L 386.439545 255.901492 
L 387.073636 262.418914 
L 387.707727 258.19116 
L 388.341818 260.075505 
L 389.61 256.93041 
L 390.244091 250.209385 
L 390.878182 240.076591 
L 391.512273 244.046906 
L 392.780455 256.94874 
L 393.414545 255.895063 
L 394.048636 258.916998 
L 394.682727 258.508654 
L 395.316818 255.93092 
L 395.950909 255.054543 
L 396.585 258.738308 
L 397.219091 255.917985 
L 397.853182 253.97214 
L 398.487273 265.95889 
L 398.487273 265.95889 
" clip-path="url(#p476de3856e)" style="fill: none; stroke: #ff7f0e; stroke-width: 1.5; stroke-linecap: square"/>
   </g>
   <g id="line2d_25">
    <path d="M 73.832727 287.854747 
L 74.466818 260.955011 
L 75.100909 270.423244 
L 75.735 282.77616 
L 76.369091 289.602236 
L 77.003182 292.482792 
L 77.637273 293.671256 
L 78.271364 292.419803 
L 78.905455 294.355919 
L 79.539545 295.071741 
L 80.173636 294.77488 
L 80.807727 294.014364 
L 81.441818 292.035202 
L 82.075909 292.27318 
L 82.71 292.330172 
L 83.344091 291.349075 
L 83.978182 291.4605 
L 84.612273 293.244354 
L 85.880455 291.105871 
L 86.514545 290.967286 
L 87.148636 291.185362 
L 87.782727 293.818738 
L 88.416818 294.501904 
L 89.050909 295.488 
L 89.685 294.923387 
L 90.319091 293.842342 
L 90.953182 292.116571 
L 91.587273 291.599134 
L 92.221364 293.748994 
L 92.855455 294.574282 
L 93.489545 294.668867 
L 94.123636 294.115858 
L 94.757727 294.765562 
L 95.391818 293.308394 
L 96.025909 293.449247 
L 96.66 293.24644 
L 97.294091 293.335007 
L 97.928182 293.561146 
L 98.562273 293.584799 
L 99.196364 292.771402 
L 99.830455 292.84915 
L 100.464545 292.374133 
L 101.098636 289.592089 
L 101.732727 288.583644 
L 102.366818 288.224094 
L 103.000909 284.815805 
L 103.635 278.368578 
L 104.269091 273.5524 
L 104.903182 272.611075 
L 105.537273 275.971471 
L 106.171364 269.090647 
L 106.805455 257.449266 
L 107.439545 257.711714 
L 108.073636 265.195264 
L 108.707727 261.995179 
L 109.341818 254.16748 
L 109.975909 256.671762 
L 110.61 259.94907 
L 111.244091 259.642809 
L 111.878182 257.935528 
L 112.512273 264.337338 
L 113.146364 265.936381 
L 113.780455 261.506669 
L 114.414545 259.196608 
L 115.682727 249.719676 
L 116.316818 246.670797 
L 116.950909 246.931011 
L 117.585 252.012881 
L 118.219091 249.9424 
L 118.853182 242.901525 
L 119.487273 242.431069 
L 120.121364 239.923806 
L 120.755455 246.184612 
L 121.389545 249.961311 
L 122.023636 243.528501 
L 122.657727 238.311143 
L 123.291818 231.178717 
L 123.925909 226.401787 
L 124.56 219.47761 
L 125.194091 221.34955 
L 125.828182 225.569495 
L 126.462273 233.574573 
L 127.096364 216.942165 
L 127.730455 216.190988 
L 128.364545 224.531631 
L 128.998636 236.020446 
L 129.632727 239.516692 
L 130.266818 246.26926 
L 130.900909 237.88467 
L 131.535 235.2231 
L 132.169091 226.311979 
L 132.803182 222.852948 
L 133.437273 231.103014 
L 134.071364 236.978388 
L 134.705455 236.347031 
L 135.339545 239.337078 
L 135.973636 247.277332 
L 137.241818 237.916006 
L 137.875909 236.640503 
L 138.51 227.083104 
L 139.144091 232.749298 
L 139.778182 239.546756 
L 140.412273 243.57428 
L 141.046364 236.155884 
L 141.680455 239.325854 
L 142.314545 245.128762 
L 142.948636 243.067128 
L 143.582727 234.831164 
L 144.216818 246.104139 
L 144.850909 248.731301 
L 145.485 245.778478 
L 146.119091 248.215811 
L 146.753182 249.285584 
L 147.387273 253.569164 
L 148.021364 250.647638 
L 148.655455 248.942355 
L 149.289545 247.962411 
L 149.923636 246.47257 
L 150.557727 248.126557 
L 151.825909 254.479642 
L 152.46 258.204031 
L 153.094091 258.627708 
L 153.728182 254.140026 
L 154.362273 256.791135 
L 154.996364 254.05791 
L 155.630455 262.073374 
L 156.264545 261.094491 
L 156.898636 254.072826 
L 157.532727 259.966469 
L 158.166818 260.68857 
L 159.435 245.994036 
L 160.069091 249.929551 
L 160.703182 259.014763 
L 161.337273 259.375081 
L 161.971364 262.073383 
L 162.605455 266.10114 
L 163.239545 265.946044 
L 163.873636 262.842628 
L 164.507727 261.083724 
L 165.141818 263.084965 
L 165.775909 258.388131 
L 166.41 258.403681 
L 167.044091 267.508492 
L 167.678182 263.403351 
L 168.312273 261.857268 
L 168.946364 268.130053 
L 169.580455 267.948726 
L 170.214545 266.037927 
L 170.848636 271.7177 
L 171.482727 268.415514 
L 172.116818 264.074478 
L 172.750909 268.654027 
L 173.385 268.618299 
L 174.019091 263.027924 
L 174.653182 260.226615 
L 175.921364 252.947405 
L 176.555455 254.780589 
L 177.189545 266.489542 
L 177.823636 260.283513 
L 178.457727 259.197174 
L 179.091818 258.688227 
L 179.725909 264.817334 
L 180.36 261.211513 
L 180.994091 258.467688 
L 181.628182 268.155907 
L 182.262273 265.542905 
L 182.896364 259.49211 
L 183.530455 261.588101 
L 184.164545 261.048305 
L 184.798636 261.66978 
L 185.432727 265.138077 
L 186.066818 265.631534 
L 186.700909 265.216537 
L 187.335 269.938335 
L 187.969091 272.107672 
L 188.603182 268.994976 
L 189.237273 269.02244 
L 189.871364 266.561722 
L 190.505455 267.867217 
L 191.139545 264.342286 
L 191.773636 261.936593 
L 192.407727 263.655436 
L 193.675909 266.340483 
L 194.31 264.623172 
L 194.944091 267.422841 
L 195.578182 265.28571 
L 196.212273 267.460108 
L 196.846364 266.643731 
L 197.480455 264.894751 
L 198.114545 265.054226 
L 198.748636 264.792833 
L 200.016818 263.795584 
L 200.650909 266.531543 
L 201.285 267.071002 
L 201.919091 269.697029 
L 202.553182 268.252092 
L 203.187273 263.773629 
L 203.821364 263.351419 
L 204.455455 269.354331 
L 205.089545 270.171747 
L 205.723636 267.557746 
L 206.357727 271.981266 
L 206.991818 272.960668 
L 207.625909 271.45364 
L 208.26 274.748109 
L 208.894091 273.338577 
L 209.528182 276.012532 
L 210.162273 277.654198 
L 211.430455 275.655015 
L 212.064545 276.988376 
L 212.698636 277.802416 
L 213.332727 279.704921 
L 213.966818 280.314016 
L 214.600909 280.025736 
L 215.235 280.647755 
L 215.869091 276.9435 
L 216.503182 275.362433 
L 217.137273 273.094123 
L 217.771364 279.059168 
L 218.405455 282.623523 
L 219.039545 282.697806 
L 219.673636 282.981167 
L 220.307727 279.051538 
L 220.941818 276.318307 
L 221.575909 275.679441 
L 222.21 276.801398 
L 222.844091 281.550358 
L 223.478182 280.449075 
L 224.112273 273.336486 
L 224.746364 274.648872 
L 225.380455 274.073903 
L 226.014545 271.083351 
L 226.648636 272.265058 
L 227.282727 274.492996 
L 227.916818 273.717298 
L 229.185 268.161974 
L 229.819091 268.524452 
L 230.453182 268.230047 
L 231.087273 267.771832 
L 231.721364 267.123508 
L 232.355455 270.838616 
L 232.989545 271.483751 
L 233.623636 270.599147 
L 234.257727 269.908912 
L 234.891818 273.95571 
L 235.525909 275.073995 
L 236.794091 273.052629 
L 238.062273 268.513954 
L 238.696364 270.63368 
L 239.330455 268.252378 
L 239.964545 274.339522 
L 240.598636 271.431304 
L 241.232727 274.184391 
L 241.866818 269.683954 
L 243.135 267.837474 
L 243.769091 269.211789 
L 244.403182 262.355427 
L 245.037273 266.869601 
L 245.671364 263.314989 
L 246.305455 264.386807 
L 246.939545 262.037593 
L 247.573636 263.447201 
L 248.207727 266.708781 
L 248.841818 271.253253 
L 249.475909 269.208002 
L 250.11 263.735783 
L 250.744091 270.424311 
L 251.378182 272.220855 
L 252.012273 270.451987 
L 252.646364 269.398672 
L 253.280455 269.763877 
L 253.914545 269.704126 
L 254.548636 275.492411 
L 255.182727 277.780639 
L 256.450909 278.850947 
L 257.085 278.740474 
L 257.719091 276.518911 
L 258.353182 277.097843 
L 258.987273 279.762009 
L 259.621364 281.39853 
L 260.255455 278.882227 
L 260.889545 279.686969 
L 261.523636 275.679624 
L 262.157727 273.833379 
L 262.791818 277.28645 
L 263.425909 281.903194 
L 264.06 280.026936 
L 264.694091 281.385781 
L 265.328182 283.703383 
L 266.596364 284.852464 
L 267.230455 284.053141 
L 267.864545 279.215259 
L 268.498636 278.892279 
L 269.132727 281.757376 
L 269.766818 278.80608 
L 270.400909 279.042726 
L 271.035 279.452095 
L 271.669091 281.720151 
L 272.303182 283.411463 
L 272.937273 282.080836 
L 273.571364 278.919836 
L 274.205455 280.117273 
L 274.839545 282.844479 
L 276.107727 283.629295 
L 276.741818 282.136771 
L 277.375909 285.926609 
L 278.644091 284.702974 
L 279.278182 284.897541 
L 279.912273 283.254142 
L 280.546364 283.2267 
L 281.180455 284.329076 
L 281.814545 281.578344 
L 282.448636 281.797837 
L 283.082727 282.630863 
L 283.716818 278.319445 
L 284.350909 281.11586 
L 284.985 281.204484 
L 285.619091 283.742351 
L 286.253182 278.886374 
L 286.887273 277.865103 
L 287.521364 283.165249 
L 288.155455 281.622028 
L 289.423636 276.268338 
L 290.057727 275.658753 
L 290.691818 277.966595 
L 291.325909 279.038209 
L 291.96 272.326988 
L 292.594091 269.996173 
L 293.228182 276.00749 
L 293.862273 270.62114 
L 294.496364 267.37796 
L 295.130455 269.319533 
L 295.764545 266.165077 
L 296.398636 268.052785 
L 297.032727 265.485445 
L 297.666818 263.39125 
L 298.300909 267.740352 
L 298.935 263.2119 
L 299.569091 257.365952 
L 300.203182 260.26725 
L 300.837273 258.405883 
L 301.471364 255.617568 
L 302.105455 251.394703 
L 302.739545 249.511495 
L 303.373636 246.506774 
L 304.007727 251.416747 
L 304.641818 247.486937 
L 305.275909 239.597631 
L 305.91 238.03813 
L 306.544091 232.777656 
L 307.178182 241.706539 
L 307.812273 242.144777 
L 308.446364 238.76337 
L 309.714545 229.763456 
L 310.348636 226.803572 
L 310.982727 235.072211 
L 311.616818 231.079426 
L 312.250909 228.687129 
L 312.885 228.643349 
L 313.519091 219.847066 
L 314.153182 219.368691 
L 315.421364 211.44195 
L 316.055455 225.21125 
L 316.689545 224.235852 
L 317.323636 232.222896 
L 317.957727 229.060904 
L 318.591818 221.483969 
L 319.225909 219.401637 
L 319.86 214.393561 
L 320.494091 207.031537 
L 321.128182 214.205313 
L 321.762273 210.36318 
L 322.396364 215.509715 
L 323.030455 212.859667 
L 323.664545 211.491786 
L 324.298636 218.364353 
L 324.932727 203.411717 
L 325.566818 219.320568 
L 326.200909 208.470479 
L 326.835 205.707608 
L 328.103182 218.006682 
L 328.737273 206.781288 
L 329.371364 189.424643 
L 330.005455 211.367848 
L 330.639545 215.667459 
L 331.273636 210.539605 
L 331.907727 215.480806 
L 332.541818 216.004387 
L 333.175909 213.497047 
L 333.81 222.372153 
L 334.444091 181.513395 
L 335.078182 181.687193 
L 335.712273 199.24975 
L 336.346364 194.198598 
L 336.980455 204.625577 
L 337.614545 195.393624 
L 338.248636 212.081957 
L 338.882727 213.963403 
L 339.516818 189.549018 
L 340.785 216.650036 
L 341.419091 208.649796 
L 342.053182 209.848976 
L 342.687273 213.764692 
L 343.321364 201.414751 
L 343.955455 191.97226 
L 344.589545 213.201696 
L 345.223636 205.407594 
L 345.857727 191.379196 
L 346.491818 196.429353 
L 347.125909 189.614515 
L 347.76 206.256313 
L 348.394091 208.027381 
L 349.028182 213.637448 
L 349.662273 216.80887 
L 350.296364 205.899386 
L 350.930455 211.404343 
L 351.564545 204.085823 
L 352.198636 206.057417 
L 352.832727 202.580765 
L 353.466818 212.204713 
L 354.100909 219.354123 
L 354.735 214.831525 
L 355.369091 213.00278 
L 356.003182 221.30418 
L 356.637273 220.333508 
L 357.271364 217.992564 
L 357.905455 225.062493 
L 358.539545 217.419854 
L 359.173636 206.759809 
L 359.807727 201.442416 
L 360.441818 207.972897 
L 361.075909 223.406189 
L 361.71 225.391867 
L 362.344091 222.41211 
L 362.978182 230.507472 
L 363.612273 214.460197 
L 364.246364 220.593877 
L 364.880455 208.2468 
L 365.514545 223.556692 
L 366.148636 225.259072 
L 366.782727 209.58167 
L 367.416818 204.556383 
L 368.050909 193.21462 
L 369.319091 220.210312 
L 369.953182 219.190456 
L 370.587273 204.561468 
L 371.221364 213.79076 
L 371.855455 198.679564 
L 372.489545 192.622398 
L 373.123636 213.727285 
L 373.757727 205.474467 
L 374.391818 210.116381 
L 375.025909 210.245906 
L 375.66 210.873683 
L 376.294091 203.720318 
L 376.928182 205.251808 
L 377.562273 209.806363 
L 378.196364 207.413184 
L 378.830455 196.609656 
L 379.464545 199.71762 
L 380.732727 186.858 
L 381.366818 189.262127 
L 382.000909 188.844814 
L 382.635 185.909193 
L 383.269091 197.804242 
L 383.903182 198.622396 
L 384.537273 193.277484 
L 385.171364 198.341324 
L 385.805455 200.752481 
L 386.439545 196.6405 
L 387.073636 200.268621 
L 387.707727 189.867884 
L 388.341818 194.019009 
L 388.975909 207.014308 
L 389.61 201.115244 
L 390.244091 201.82991 
L 390.878182 197.334156 
L 391.512273 187.653632 
L 392.146364 180.497117 
L 392.780455 199.893414 
L 393.414545 199.725518 
L 394.048636 198.699314 
L 394.682727 205.007526 
L 395.316818 218.863495 
L 395.950909 202.442788 
L 396.585 189.884513 
L 397.219091 192.558591 
L 397.853182 202.983831 
L 398.487273 236.442717 
L 398.487273 236.442717 
" clip-path="url(#p476de3856e)" style="fill: none; stroke: #2ca02c; stroke-width: 1.5; stroke-linecap: square"/>
   </g>
   <g id="patch_3">
    <path d="M 57.6 307.584 
L 57.6 41.472 
" style="fill: none; stroke: #000000; stroke-width: 0.8; stroke-linejoin: miter; stroke-linecap: square"/>
   </g>
   <g id="patch_4">
    <path d="M 414.72 307.584 
L 414.72 41.472 
" style="fill: none; stroke: #000000; stroke-width: 0.8; stroke-linejoin: miter; stroke-linecap: square"/>
   </g>
   <g id="patch_5">
    <path d="M 57.6 307.584 
L 414.72 307.584 
" style="fill: none; stroke: #000000; stroke-width: 0.8; stroke-linejoin: miter; stroke-linecap: square"/>
   </g>
   <g id="patch_6">
    <path d="M 57.6 41.472 
L 414.72 41.472 
" style="fill: none; stroke: #000000; stroke-width: 0.8; stroke-linejoin: miter; stroke-linecap: square"/>
   </g>
   <g id="text_14">
    <!-- Accelerometer Power Spectral Density -->
    <g transform="translate(121.022813 35.472) scale(0.12 -0.12)">
     <defs>
      <path id="DejaVuSans-41" d="M 2188 4044 
L 1331 1722 
L 3047 1722 
L 2188 4044 
z
M 1831 4666 
L 2547 4666 
L 4325 0 
L 3669 0 
L 3244 1197 
L 1141 1197 
L 716 0 
L 50 0 
L 1831 4666 
z
" transform="scale(0.015625)"/>
      <path id="DejaVuSans-6f" d="M 1959 3097 
Q 1497 3097 1228 2736 
Q 959 2375 959 1747 
Q 959 1119 1226 758 
Q 1494 397 1959 397 
Q 2419 397 2687 759 
Q 2956 1122 2956 1747 
Q 2956 2369 2687 2733 
Q 2419 3097 1959 3097 
z
M 1959 3584 
Q 2709 3584 3137 3096 
Q 3566 2609 3566 1747 
Q 3566 888 3137 398 
Q 2709 -91 1959 -91 
Q 1206 -91 779 398 
Q 353 888 353 1747 
Q 353 2609 779 3096 
Q 1206 3584 1959 3584 
z
" transform="scale(0.015625)"/>
      <path id="DejaVuSans-6d" d="M 3328 2828 
Q 3544 3216 3844 3400 
Q 4144 3584 4550 3584 
Q 5097 3584 5394 3201 
Q 5691 2819 5691 2113 
L 5691 0 
L 5113 0 
L 5113 2094 
Q 5113 2597 4934 2840 
Q 4756 3084 4391 3084 
Q 3944 3084 3684 2787 
Q 3425 2491 3425 1978 
L 3425 0 
L 2847 0 
L 2847 2094 
Q 2847 2600 2669 2842 
Q 2491 3084 2119 3084 
Q 1678 3084 1418 2786 
Q 1159 2488 1159 1978 
L 1159 0 
L 581 0 
L 581 3500 
L 1159 3500 
L 1159 2956 
Q 1356 3278 1631 3431 
Q 1906 3584 2284 3584 
Q 2666 3584 2933 3390 
Q 3200 3197 3328 2828 
z
" transform="scale(0.015625)"/>
      <path id="DejaVuSans-50" d="M 1259 4147 
L 1259 2394 
L 2053 2394 
Q 2494 2394 2734 2622 
Q 2975 2850 2975 3272 
Q 2975 3691 2734 3919 
Q 2494 4147 2053 4147 
L 1259 4147 
z
M 628 4666 
L 2053 4666 
Q 2838 4666 3239 4311 
Q 3641 3956 3641 3272 
Q 3641 2581 3239 2228 
Q 2838 1875 2053 1875 
L 1259 1875 
L 1259 0 
L 628 0 
L 628 4666 
z
" transform="scale(0.015625)"/>
      <path id="DejaVuSans-77" d="M 269 3500 
L 844 3500 
L 1563 769 
L 2278 3500 
L 2956 3500 
L 3675 769 
L 4391 3500 
L 4966 3500 
L 4050 0 
L 3372 0 
L 2619 2869 
L 1863 0 
L 1184 0 
L 269 3500 
z
" transform="scale(0.015625)"/>
     </defs>
     <use xlink:href="#DejaVuSans-41"/>
     <use xlink:href="#DejaVuSans-63" x="66.658203"/>
     <use xlink:href="#DejaVuSans-63" x="121.638672"/>
     <use xlink:href="#DejaVuSans-65" x="176.619141"/>
     <use xlink:href="#DejaVuSans-6c" x="238.142578"/>
     <use xlink:href="#DejaVuSans-65" x="265.925781"/>
     <use xlink:href="#DejaVuSans-72" x="327.449219"/>
     <use xlink:href="#DejaVuSans-6f" x="366.3125"/>
     <use xlink:href="#DejaVuSans-6d" x="427.494141"/>
     <use xlink:href="#DejaVuSans-65" x="524.90625"/>
     <use xlink:href="#DejaVuSans-74" x="586.429688"/>
     <use xlink:href="#DejaVuSans-65" x="625.638672"/>
     <use xlink:href="#DejaVuSans-72" x="687.162109"/>
     <use xlink:href="#DejaVuSans-20" x="728.275391"/>
     <use xlink:href="#DejaVuSans-50" x="760.0625"/>
     <use xlink:href="#DejaVuSans-6f" x="816.740234"/>
     <use xlink:href="#DejaVuSans-77" x="877.921875"/>
     <use xlink:href="#DejaVuSans-65" x="959.708984"/>
     <use xlink:href="#DejaVuSans-72" x="1021.232422"/>
     <use xlink:href="#DejaVuSans-20" x="1062.345703"/>
     <use xlink:href="#DejaVuSans-53" x="1094.132812"/>
     <use xlink:href="#DejaVuSans-70" x="1157.609375"/>
     <use xlink:href="#DejaVuSans-65" x="1221.085938"/>
     <use xlink:href="#DejaVuSans-63" x="1282.609375"/>
     <use xlink:href="#DejaVuSans-74" x="1337.589844"/>
     <use xlink:href="#DejaVuSans-72" x="1376.798828"/>
     <use xlink:href="#DejaVuSans-61" x="1417.912109"/>
     <use xlink:href="#DejaVuSans-6c" x="1479.191406"/>
     <use xlink:href="#DejaVuSans-20" x="1506.974609"/>
     <use xlink:href="#DejaVuSans-44" x="1538.761719"/>
     <use xlink:href="#DejaVuSans-65" x="1615.763672"/>
     <use xlink:href="#DejaVuSans-6e" x="1677.287109"/>
     <use xlink:href="#DejaVuSans-73" x="1740.666016"/>
     <use xlink:href="#DejaVuSans-69" x="1792.765625"/>
     <use xlink:href="#DejaVuSans-74" x="1820.548828"/>
     <use xlink:href="#DejaVuSans-79" x="1859.757812"/>
    </g>
   </g>
   <g id="legend_1">
    <g id="patch_7">
     <path d="M 363.673125 93.506375 
L 407.72 93.506375 
Q 409.72 93.506375 409.72 91.506375 
L 409.72 48.472 
Q 409.72 46.472 407.72 46.472 
L 363.673125 46.472 
Q 361.673125 46.472 361.673125 48.472 
L 361.673125 91.506375 
Q 361.673125 93.506375 363.673125 93.506375 
z
" style="fill: #ffffff; opacity: 0.8; stroke: #cccccc; stroke-linejoin: miter"/>
    </g>
    <g id="line2d_26">
     <path d="M 365.673125 54.570438 
L 375.673125 54.570438 
L 385.673125 54.570438 
" style="fill: none; stroke: #1f77b4; stroke-width: 1.5; stroke-linecap: square"/>
    </g>
    <g id="text_15">
     <!-- ax -->
     <g transform="translate(393.673125 58.070438) scale(0.1 -0.1)">
      <defs>
       <path id="DejaVuSans-78" d="M 3513 3500 
L 2247 1797 
L 3578 0 
L 2900 0 
L 1881 1375 
L 863 0 
L 184 0 
L 1544 1831 
L 300 3500 
L 978 3500 
L 1906 2253 
L 2834 3500 
L 3513 3500 
z
" transform="scale(0.015625)"/>
      </defs>
      <use xlink:href="#DejaVuSans-61"/>
      <use xlink:href="#DejaVuSans-78" x="61.279297"/>
     </g>
    </g>
    <g id="line2d_27">
     <path d="M 365.673125 69.248563 
L 375.673125 69.248563 
L 385.673125 69.248563 
" style="fill: none; stroke: #ff7f0e; stroke-width: 1.5; stroke-linecap: square"/>
    </g>
    <g id="text_16">
     <!-- ay -->
     <g transform="translate(393.673125 72.748563) scale(0.1 -0.1)">
      <use xlink:href="#DejaVuSans-61"/>
      <use xlink:href="#DejaVuSans-79" x="61.279297"/>
     </g>
    </g>
    <g id="line2d_28">
     <path d="M 365.673125 83.926688 
L 375.673125 83.926688 
L 385.673125 83.926688 
" style="fill: none; stroke: #2ca02c; stroke-width: 1.5; stroke-linecap: square"/>
    </g>
    <g id="text_17">
     <!-- az -->
     <g transform="translate(393.673125 87.426688) scale(0.1 -0.1)">
      <use xlink:href="#DejaVuSans-61"/>
      <use xlink:href="#DejaVuSans-7a" x="61.279297"/>
     </g>
    </g>
   </g>
  </g>
 </g>
 <defs>
  <clipPath id="p476de3856e">
   <rect x="57.6" y="41.472" width="357.12" height="266.112"/>
  </clipPath>
 </defs>
</svg>
