<?xml version="1.0" encoding="utf-8" standalone="no"?>
<!DOCTYPE svg PUBLIC "-//W3C//DTD SVG 1.1//EN"
  "http://www.w3.org/Graphics/SVG/1.1/DTD/svg11.dtd">
<svg xmlns:xlink="http://www.w3.org/1999/xlink" width="460.8pt" height="345.6pt" viewBox="0 0 460.8 345.6" xmlns="http://www.w3.org/2000/svg" version="1.1">
 <metadata>
  <rdf:RDF xmlns:dc="http://purl.org/dc/elements/1.1/" xmlns:cc="http://creativecommons.org/ns#" xmlns:rdf="http://www.w3.org/1999/02/22-rdf-syntax-ns#">
   <cc:Work>
    <dc:type rdf:resource="http://purl.org/dc/dcmitype/StillImage"/>
    <dc:date>2024-05-31T11:36:58.147902</dc:date>
    <dc:format>image/svg+xml</dc:format>
    <dc:creator>
     <cc:Agent>
      <dc:title>Matplotlib v3.8.4, https://matplotlib.org/</dc:title>
     </cc:Agent>
    </dc:creator>
   </cc:Work>
  </rdf:RDF>
 </metadata>
 <defs>
  <style type="text/css">*{stroke-linejoin: round; stroke-linecap: butt}</style>
 </defs>
 <g id="figure_1">
  <g id="patch_1">
   <path d="M 0 345.6 
L 460.8 345.6 
L 460.8 0 
L 0 0 
z
" style="fill: #ffffff"/>
  </g>
  <g id="axes_1">
   <g id="patch_2">
    <path d="M 57.6 307.584 
L 414.72 307.584 
L 414.72 41.472 
L 57.6 41.472 
z
" style="fill: #ffffff"/>
   </g>
   <g id="matplotlib.axis_1">
    <g id="xtick_1">
     <g id="line2d_1">
      <path d="M 73.832727 307.584 
L 73.832727 41.472 
" clip-path="url(#pc1f10a9f37)" style="fill: none; stroke: #b0b0b0; stroke-width: 0.8; stroke-linecap: square"/>
     </g>
     <g id="line2d_2">
      <defs>
       <path id="ma335a44c71" d="M 0 0 
L 0 3.5 
" style="stroke: #000000; stroke-width: 0.8"/>
      </defs>
      <g>
       <use xlink:href="#ma335a44c71" x="73.832727" y="307.584" style="stroke: #000000; stroke-width: 0.8"/>
      </g>
     </g>
     <g id="text_1">
      <!-- 0 -->
      <g transform="translate(70.651477 322.182437) scale(0.1 -0.1)">
       <defs>
        <path id="DejaVuSans-30" d="M 2034 4250 
Q 1547 4250 1301 3770 
Q 1056 3291 1056 2328 
Q 1056 1369 1301 889 
Q 1547 409 2034 409 
Q 2525 409 2770 889 
Q 3016 1369 3016 2328 
Q 3016 3291 2770 3770 
Q 2525 4250 2034 4250 
z
M 2034 4750 
Q 2819 4750 3233 4129 
Q 3647 3509 3647 2328 
Q 3647 1150 3233 529 
Q 2819 -91 2034 -91 
Q 1250 -91 836 529 
Q 422 1150 422 2328 
Q 422 3509 836 4129 
Q 1250 4750 2034 4750 
z
" transform="scale(0.015625)"/>
       </defs>
       <use xlink:href="#DejaVuSans-30"/>
      </g>
     </g>
    </g>
    <g id="xtick_2">
     <g id="line2d_3">
      <path d="M 138.763636 307.584 
L 138.763636 41.472 
" clip-path="url(#pc1f10a9f37)" style="fill: none; stroke: #b0b0b0; stroke-width: 0.8; stroke-linecap: square"/>
     </g>
     <g id="line2d_4">
      <g>
       <use xlink:href="#ma335a44c71" x="138.763636" y="307.584" style="stroke: #000000; stroke-width: 0.8"/>
      </g>
     </g>
     <g id="text_2">
      <!-- 20 -->
      <g transform="translate(132.401136 322.182437) scale(0.1 -0.1)">
       <defs>
        <path id="DejaVuSans-32" d="M 1228 531 
L 3431 531 
L 3431 0 
L 469 0 
L 469 531 
Q 828 903 1448 1529 
Q 2069 2156 2228 2338 
Q 2531 2678 2651 2914 
Q 2772 3150 2772 3378 
Q 2772 3750 2511 3984 
Q 2250 4219 1831 4219 
Q 1534 4219 1204 4116 
Q 875 4013 500 3803 
L 500 4441 
Q 881 4594 1212 4672 
Q 1544 4750 1819 4750 
Q 2544 4750 2975 4387 
Q 3406 4025 3406 3419 
Q 3406 3131 3298 2873 
Q 3191 2616 2906 2266 
Q 2828 2175 2409 1742 
Q 1991 1309 1228 531 
z
" transform="scale(0.015625)"/>
       </defs>
       <use xlink:href="#DejaVuSans-32"/>
       <use xlink:href="#DejaVuSans-30" x="63.623047"/>
      </g>
     </g>
    </g>
    <g id="xtick_3">
     <g id="line2d_5">
      <path d="M 203.694545 307.584 
L 203.694545 41.472 
" clip-path="url(#pc1f10a9f37)" style="fill: none; stroke: #b0b0b0; stroke-width: 0.8; stroke-linecap: square"/>
     </g>
     <g id="line2d_6">
      <g>
       <use xlink:href="#ma335a44c71" x="203.694545" y="307.584" style="stroke: #000000; stroke-width: 0.8"/>
      </g>
     </g>
     <g id="text_3">
      <!-- 40 -->
      <g transform="translate(197.332045 322.182437) scale(0.1 -0.1)">
       <defs>
        <path id="DejaVuSans-34" d="M 2419 4116 
L 825 1625 
L 2419 1625 
L 2419 4116 
z
M 2253 4666 
L 3047 4666 
L 3047 1625 
L 3713 1625 
L 3713 1100 
L 3047 1100 
L 3047 0 
L 2419 0 
L 2419 1100 
L 313 1100 
L 313 1709 
L 2253 4666 
z
" transform="scale(0.015625)"/>
       </defs>
       <use xlink:href="#DejaVuSans-34"/>
       <use xlink:href="#DejaVuSans-30" x="63.623047"/>
      </g>
     </g>
    </g>
    <g id="xtick_4">
     <g id="line2d_7">
      <path d="M 268.625455 307.584 
L 268.625455 41.472 
" clip-path="url(#pc1f10a9f37)" style="fill: none; stroke: #b0b0b0; stroke-width: 0.8; stroke-linecap: square"/>
     </g>
     <g id="line2d_8">
      <g>
       <use xlink:href="#ma335a44c71" x="268.625455" y="307.584" style="stroke: #000000; stroke-width: 0.8"/>
      </g>
     </g>
     <g id="text_4">
      <!-- 60 -->
      <g transform="translate(262.262955 322.182437) scale(0.1 -0.1)">
       <defs>
        <path id="DejaVuSans-36" d="M 2113 2584 
Q 1688 2584 1439 2293 
Q 1191 2003 1191 1497 
Q 1191 994 1439 701 
Q 1688 409 2113 409 
Q 2538 409 2786 701 
Q 3034 994 3034 1497 
Q 3034 2003 2786 2293 
Q 2538 2584 2113 2584 
z
M 3366 4563 
L 3366 3988 
Q 3128 4100 2886 4159 
Q 2644 4219 2406 4219 
Q 1781 4219 1451 3797 
Q 1122 3375 1075 2522 
Q 1259 2794 1537 2939 
Q 1816 3084 2150 3084 
Q 2853 3084 3261 2657 
Q 3669 2231 3669 1497 
Q 3669 778 3244 343 
Q 2819 -91 2113 -91 
Q 1303 -91 875 529 
Q 447 1150 447 2328 
Q 447 3434 972 4092 
Q 1497 4750 2381 4750 
Q 2619 4750 2861 4703 
Q 3103 4656 3366 4563 
z
" transform="scale(0.015625)"/>
       </defs>
       <use xlink:href="#DejaVuSans-36"/>
       <use xlink:href="#DejaVuSans-30" x="63.623047"/>
      </g>
     </g>
    </g>
    <g id="xtick_5">
     <g id="line2d_9">
      <path d="M 333.556364 307.584 
L 333.556364 41.472 
" clip-path="url(#pc1f10a9f37)" style="fill: none; stroke: #b0b0b0; stroke-width: 0.8; stroke-linecap: square"/>
     </g>
     <g id="line2d_10">
      <g>
       <use xlink:href="#ma335a44c71" x="333.556364" y="307.584" style="stroke: #000000; stroke-width: 0.8"/>
      </g>
     </g>
     <g id="text_5">
      <!-- 80 -->
      <g transform="translate(327.193864 322.182437) scale(0.1 -0.1)">
       <defs>
        <path id="DejaVuSans-38" d="M 2034 2216 
Q 1584 2216 1326 1975 
Q 1069 1734 1069 1313 
Q 1069 891 1326 650 
Q 1584 409 2034 409 
Q 2484 409 2743 651 
Q 3003 894 3003 1313 
Q 3003 1734 2745 1975 
Q 2488 2216 2034 2216 
z
M 1403 2484 
Q 997 2584 770 2862 
Q 544 3141 544 3541 
Q 544 4100 942 4425 
Q 1341 4750 2034 4750 
Q 2731 4750 3128 4425 
Q 3525 4100 3525 3541 
Q 3525 3141 3298 2862 
Q 3072 2584 2669 2484 
Q 3125 2378 3379 2068 
Q 3634 1759 3634 1313 
Q 3634 634 3220 271 
Q 2806 -91 2034 -91 
Q 1263 -91 848 271 
Q 434 634 434 1313 
Q 434 1759 690 2068 
Q 947 2378 1403 2484 
z
M 1172 3481 
Q 1172 3119 1398 2916 
Q 1625 2713 2034 2713 
Q 2441 2713 2670 2916 
Q 2900 3119 2900 3481 
Q 2900 3844 2670 4047 
Q 2441 4250 2034 4250 
Q 1625 4250 1398 4047 
Q 1172 3844 1172 3481 
z
" transform="scale(0.015625)"/>
       </defs>
       <use xlink:href="#DejaVuSans-38"/>
       <use xlink:href="#DejaVuSans-30" x="63.623047"/>
      </g>
     </g>
    </g>
    <g id="xtick_6">
     <g id="line2d_11">
      <path d="M 398.487273 307.584 
L 398.487273 41.472 
" clip-path="url(#pc1f10a9f37)" style="fill: none; stroke: #b0b0b0; stroke-width: 0.8; stroke-linecap: square"/>
     </g>
     <g id="line2d_12">
      <g>
       <use xlink:href="#ma335a44c71" x="398.487273" y="307.584" style="stroke: #000000; stroke-width: 0.8"/>
      </g>
     </g>
     <g id="text_6">
      <!-- 100 -->
      <g transform="translate(388.943523 322.182437) scale(0.1 -0.1)">
       <defs>
        <path id="DejaVuSans-31" d="M 794 531 
L 1825 531 
L 1825 4091 
L 703 3866 
L 703 4441 
L 1819 4666 
L 2450 4666 
L 2450 531 
L 3481 531 
L 3481 0 
L 794 0 
L 794 531 
z
" transform="scale(0.015625)"/>
       </defs>
       <use xlink:href="#DejaVuSans-31"/>
       <use xlink:href="#DejaVuSans-30" x="63.623047"/>
       <use xlink:href="#DejaVuSans-30" x="127.246094"/>
      </g>
     </g>
    </g>
    <g id="text_7">
     <!-- Frequency [Hz] -->
     <g transform="translate(198.455312 335.860562) scale(0.1 -0.1)">
      <defs>
       <path id="DejaVuSans-46" d="M 628 4666 
L 3309 4666 
L 3309 4134 
L 1259 4134 
L 1259 2759 
L 3109 2759 
L 3109 2228 
L 1259 2228 
L 1259 0 
L 628 0 
L 628 4666 
z
" transform="scale(0.015625)"/>
       <path id="DejaVuSans-72" d="M 2631 2963 
Q 2534 3019 2420 3045 
Q 2306 3072 2169 3072 
Q 1681 3072 1420 2755 
Q 1159 2438 1159 1844 
L 1159 0 
L 581 0 
L 581 3500 
L 1159 3500 
L 1159 2956 
Q 1341 3275 1631 3429 
Q 1922 3584 2338 3584 
Q 2397 3584 2469 3576 
Q 2541 3569 2628 3553 
L 2631 2963 
z
" transform="scale(0.015625)"/>
       <path id="DejaVuSans-65" d="M 3597 1894 
L 3597 1613 
L 953 1613 
Q 991 1019 1311 708 
Q 1631 397 2203 397 
Q 2534 397 2845 478 
Q 3156 559 3463 722 
L 3463 178 
Q 3153 47 2828 -22 
Q 2503 -91 2169 -91 
Q 1331 -91 842 396 
Q 353 884 353 1716 
Q 353 2575 817 3079 
Q 1281 3584 2069 3584 
Q 2775 3584 3186 3129 
Q 3597 2675 3597 1894 
z
M 3022 2063 
Q 3016 2534 2758 2815 
Q 2500 3097 2075 3097 
Q 1594 3097 1305 2825 
Q 1016 2553 972 2059 
L 3022 2063 
z
" transform="scale(0.015625)"/>
       <path id="DejaVuSans-71" d="M 947 1747 
Q 947 1113 1208 752 
Q 1469 391 1925 391 
Q 2381 391 2643 752 
Q 2906 1113 2906 1747 
Q 2906 2381 2643 2742 
Q 2381 3103 1925 3103 
Q 1469 3103 1208 2742 
Q 947 2381 947 1747 
z
M 2906 525 
Q 2725 213 2448 61 
Q 2172 -91 1784 -91 
Q 1150 -91 751 415 
Q 353 922 353 1747 
Q 353 2572 751 3078 
Q 1150 3584 1784 3584 
Q 2172 3584 2448 3432 
Q 2725 3281 2906 2969 
L 2906 3500 
L 3481 3500 
L 3481 -1331 
L 2906 -1331 
L 2906 525 
z
" transform="scale(0.015625)"/>
       <path id="DejaVuSans-75" d="M 544 1381 
L 544 3500 
L 1119 3500 
L 1119 1403 
Q 1119 906 1312 657 
Q 1506 409 1894 409 
Q 2359 409 2629 706 
Q 2900 1003 2900 1516 
L 2900 3500 
L 3475 3500 
L 3475 0 
L 2900 0 
L 2900 538 
Q 2691 219 2414 64 
Q 2138 -91 1772 -91 
Q 1169 -91 856 284 
Q 544 659 544 1381 
z
M 1991 3584 
L 1991 3584 
z
" transform="scale(0.015625)"/>
       <path id="DejaVuSans-6e" d="M 3513 2113 
L 3513 0 
L 2938 0 
L 2938 2094 
Q 2938 2591 2744 2837 
Q 2550 3084 2163 3084 
Q 1697 3084 1428 2787 
Q 1159 2491 1159 1978 
L 1159 0 
L 581 0 
L 581 3500 
L 1159 3500 
L 1159 2956 
Q 1366 3272 1645 3428 
Q 1925 3584 2291 3584 
Q 2894 3584 3203 3211 
Q 3513 2838 3513 2113 
z
" transform="scale(0.015625)"/>
       <path id="DejaVuSans-63" d="M 3122 3366 
L 3122 2828 
Q 2878 2963 2633 3030 
Q 2388 3097 2138 3097 
Q 1578 3097 1268 2742 
Q 959 2388 959 1747 
Q 959 1106 1268 751 
Q 1578 397 2138 397 
Q 2388 397 2633 464 
Q 2878 531 3122 666 
L 3122 134 
Q 2881 22 2623 -34 
Q 2366 -91 2075 -91 
Q 1284 -91 818 406 
Q 353 903 353 1747 
Q 353 2603 823 3093 
Q 1294 3584 2113 3584 
Q 2378 3584 2631 3529 
Q 2884 3475 3122 3366 
z
" transform="scale(0.015625)"/>
       <path id="DejaVuSans-79" d="M 2059 -325 
Q 1816 -950 1584 -1140 
Q 1353 -1331 966 -1331 
L 506 -1331 
L 506 -850 
L 844 -850 
Q 1081 -850 1212 -737 
Q 1344 -625 1503 -206 
L 1606 56 
L 191 3500 
L 800 3500 
L 1894 763 
L 2988 3500 
L 3597 3500 
L 2059 -325 
z
" transform="scale(0.015625)"/>
       <path id="DejaVuSans-20" transform="scale(0.015625)"/>
       <path id="DejaVuSans-5b" d="M 550 4863 
L 1875 4863 
L 1875 4416 
L 1125 4416 
L 1125 -397 
L 1875 -397 
L 1875 -844 
L 550 -844 
L 550 4863 
z
" transform="scale(0.015625)"/>
       <path id="DejaVuSans-48" d="M 628 4666 
L 1259 4666 
L 1259 2753 
L 3553 2753 
L 3553 4666 
L 4184 4666 
L 4184 0 
L 3553 0 
L 3553 2222 
L 1259 2222 
L 1259 0 
L 628 0 
L 628 4666 
z
" transform="scale(0.015625)"/>
       <path id="DejaVuSans-7a" d="M 353 3500 
L 3084 3500 
L 3084 2975 
L 922 459 
L 3084 459 
L 3084 0 
L 275 0 
L 275 525 
L 2438 3041 
L 353 3041 
L 353 3500 
z
" transform="scale(0.015625)"/>
       <path id="DejaVuSans-5d" d="M 1947 4863 
L 1947 -844 
L 622 -844 
L 622 -397 
L 1369 -397 
L 1369 4416 
L 622 4416 
L 622 4863 
L 1947 4863 
z
" transform="scale(0.015625)"/>
      </defs>
      <use xlink:href="#DejaVuSans-46"/>
      <use xlink:href="#DejaVuSans-72" x="50.269531"/>
      <use xlink:href="#DejaVuSans-65" x="89.132812"/>
      <use xlink:href="#DejaVuSans-71" x="150.65625"/>
      <use xlink:href="#DejaVuSans-75" x="214.132812"/>
      <use xlink:href="#DejaVuSans-65" x="277.511719"/>
      <use xlink:href="#DejaVuSans-6e" x="339.035156"/>
      <use xlink:href="#DejaVuSans-63" x="402.414062"/>
      <use xlink:href="#DejaVuSans-79" x="457.394531"/>
      <use xlink:href="#DejaVuSans-20" x="516.574219"/>
      <use xlink:href="#DejaVuSans-5b" x="548.361328"/>
      <use xlink:href="#DejaVuSans-48" x="587.375"/>
      <use xlink:href="#DejaVuSans-7a" x="662.570312"/>
      <use xlink:href="#DejaVuSans-5d" x="715.060547"/>
     </g>
    </g>
   </g>
   <g id="matplotlib.axis_2">
    <g id="ytick_1">
     <g id="line2d_13">
      <path d="M 57.6 302.468965 
L 414.72 302.468965 
" clip-path="url(#pc1f10a9f37)" style="fill: none; stroke: #b0b0b0; stroke-width: 0.8; stroke-linecap: square"/>
     </g>
     <g id="line2d_14">
      <defs>
       <path id="m9f320a6ef1" d="M 0 0 
L -3.5 0 
" style="stroke: #000000; stroke-width: 0.8"/>
      </defs>
      <g>
       <use xlink:href="#m9f320a6ef1" x="57.6" y="302.468965" style="stroke: #000000; stroke-width: 0.8"/>
      </g>
     </g>
     <g id="text_8">
      <!-- 0.000 -->
      <g transform="translate(21.971875 306.268183) scale(0.1 -0.1)">
       <defs>
        <path id="DejaVuSans-2e" d="M 684 794 
L 1344 794 
L 1344 0 
L 684 0 
L 684 794 
z
" transform="scale(0.015625)"/>
       </defs>
       <use xlink:href="#DejaVuSans-30"/>
       <use xlink:href="#DejaVuSans-2e" x="63.623047"/>
       <use xlink:href="#DejaVuSans-30" x="95.410156"/>
       <use xlink:href="#DejaVuSans-30" x="159.033203"/>
       <use xlink:href="#DejaVuSans-30" x="222.65625"/>
      </g>
     </g>
    </g>
    <g id="ytick_2">
     <g id="line2d_15">
      <path d="M 57.6 271.901151 
L 414.72 271.901151 
" clip-path="url(#pc1f10a9f37)" style="fill: none; stroke: #b0b0b0; stroke-width: 0.8; stroke-linecap: square"/>
     </g>
     <g id="line2d_16">
      <g>
       <use xlink:href="#m9f320a6ef1" x="57.6" y="271.901151" style="stroke: #000000; stroke-width: 0.8"/>
      </g>
     </g>
     <g id="text_9">
      <!-- 0.025 -->
      <g transform="translate(21.971875 275.70037) scale(0.1 -0.1)">
       <defs>
        <path id="DejaVuSans-35" d="M 691 4666 
L 3169 4666 
L 3169 4134 
L 1269 4134 
L 1269 2991 
Q 1406 3038 1543 3061 
Q 1681 3084 1819 3084 
Q 2600 3084 3056 2656 
Q 3513 2228 3513 1497 
Q 3513 744 3044 326 
Q 2575 -91 1722 -91 
Q 1428 -91 1123 -41 
Q 819 9 494 109 
L 494 744 
Q 775 591 1075 516 
Q 1375 441 1709 441 
Q 2250 441 2565 725 
Q 2881 1009 2881 1497 
Q 2881 1984 2565 2268 
Q 2250 2553 1709 2553 
Q 1456 2553 1204 2497 
Q 953 2441 691 2322 
L 691 4666 
z
" transform="scale(0.015625)"/>
       </defs>
       <use xlink:href="#DejaVuSans-30"/>
       <use xlink:href="#DejaVuSans-2e" x="63.623047"/>
       <use xlink:href="#DejaVuSans-30" x="95.410156"/>
       <use xlink:href="#DejaVuSans-32" x="159.033203"/>
       <use xlink:href="#DejaVuSans-35" x="222.65625"/>
      </g>
     </g>
    </g>
    <g id="ytick_3">
     <g id="line2d_17">
      <path d="M 57.6 241.333337 
L 414.72 241.333337 
" clip-path="url(#pc1f10a9f37)" style="fill: none; stroke: #b0b0b0; stroke-width: 0.8; stroke-linecap: square"/>
     </g>
     <g id="line2d_18">
      <g>
       <use xlink:href="#m9f320a6ef1" x="57.6" y="241.333337" style="stroke: #000000; stroke-width: 0.8"/>
      </g>
     </g>
     <g id="text_10">
      <!-- 0.050 -->
      <g transform="translate(21.971875 245.132556) scale(0.1 -0.1)">
       <use xlink:href="#DejaVuSans-30"/>
       <use xlink:href="#DejaVuSans-2e" x="63.623047"/>
       <use xlink:href="#DejaVuSans-30" x="95.410156"/>
       <use xlink:href="#DejaVuSans-35" x="159.033203"/>
       <use xlink:href="#DejaVuSans-30" x="222.65625"/>
      </g>
     </g>
    </g>
    <g id="ytick_4">
     <g id="line2d_19">
      <path d="M 57.6 210.765524 
L 414.72 210.765524 
" clip-path="url(#pc1f10a9f37)" style="fill: none; stroke: #b0b0b0; stroke-width: 0.8; stroke-linecap: square"/>
     </g>
     <g id="line2d_20">
      <g>
       <use xlink:href="#m9f320a6ef1" x="57.6" y="210.765524" style="stroke: #000000; stroke-width: 0.8"/>
      </g>
     </g>
     <g id="text_11">
      <!-- 0.075 -->
      <g transform="translate(21.971875 214.564743) scale(0.1 -0.1)">
       <defs>
        <path id="DejaVuSans-37" d="M 525 4666 
L 3525 4666 
L 3525 4397 
L 1831 0 
L 1172 0 
L 2766 4134 
L 525 4134 
L 525 4666 
z
" transform="scale(0.015625)"/>
       </defs>
       <use xlink:href="#DejaVuSans-30"/>
       <use xlink:href="#DejaVuSans-2e" x="63.623047"/>
       <use xlink:href="#DejaVuSans-30" x="95.410156"/>
       <use xlink:href="#DejaVuSans-37" x="159.033203"/>
       <use xlink:href="#DejaVuSans-35" x="222.65625"/>
      </g>
     </g>
    </g>
    <g id="ytick_5">
     <g id="line2d_21">
      <path d="M 57.6 180.19771 
L 414.72 180.19771 
" clip-path="url(#pc1f10a9f37)" style="fill: none; stroke: #b0b0b0; stroke-width: 0.8; stroke-linecap: square"/>
     </g>
     <g id="line2d_22">
      <g>
       <use xlink:href="#m9f320a6ef1" x="57.6" y="180.19771" style="stroke: #000000; stroke-width: 0.8"/>
      </g>
     </g>
     <g id="text_12">
      <!-- 0.100 -->
      <g transform="translate(21.971875 183.996929) scale(0.1 -0.1)">
       <use xlink:href="#DejaVuSans-30"/>
       <use xlink:href="#DejaVuSans-2e" x="63.623047"/>
       <use xlink:href="#DejaVuSans-31" x="95.410156"/>
       <use xlink:href="#DejaVuSans-30" x="159.033203"/>
       <use xlink:href="#DejaVuSans-30" x="222.65625"/>
      </g>
     </g>
    </g>
    <g id="ytick_6">
     <g id="line2d_23">
      <path d="M 57.6 149.629897 
L 414.72 149.629897 
" clip-path="url(#pc1f10a9f37)" style="fill: none; stroke: #b0b0b0; stroke-width: 0.8; stroke-linecap: square"/>
     </g>
     <g id="line2d_24">
      <g>
       <use xlink:href="#m9f320a6ef1" x="57.6" y="149.629897" style="stroke: #000000; stroke-width: 0.8"/>
      </g>
     </g>
     <g id="text_13">
      <!-- 0.125 -->
      <g transform="translate(21.971875 153.429115) scale(0.1 -0.1)">
       <use xlink:href="#DejaVuSans-30"/>
       <use xlink:href="#DejaVuSans-2e" x="63.623047"/>
       <use xlink:href="#DejaVuSans-31" x="95.410156"/>
       <use xlink:href="#DejaVuSans-32" x="159.033203"/>
       <use xlink:href="#DejaVuSans-35" x="222.65625"/>
      </g>
     </g>
    </g>
    <g id="ytick_7">
     <g id="line2d_25">
      <path d="M 57.6 119.062083 
L 414.72 119.062083 
" clip-path="url(#pc1f10a9f37)" style="fill: none; stroke: #b0b0b0; stroke-width: 0.8; stroke-linecap: square"/>
     </g>
     <g id="line2d_26">
      <g>
       <use xlink:href="#m9f320a6ef1" x="57.6" y="119.062083" style="stroke: #000000; stroke-width: 0.8"/>
      </g>
     </g>
     <g id="text_14">
      <!-- 0.150 -->
      <g transform="translate(21.971875 122.861302) scale(0.1 -0.1)">
       <use xlink:href="#DejaVuSans-30"/>
       <use xlink:href="#DejaVuSans-2e" x="63.623047"/>
       <use xlink:href="#DejaVuSans-31" x="95.410156"/>
       <use xlink:href="#DejaVuSans-35" x="159.033203"/>
       <use xlink:href="#DejaVuSans-30" x="222.65625"/>
      </g>
     </g>
    </g>
    <g id="ytick_8">
     <g id="line2d_27">
      <path d="M 57.6 88.494269 
L 414.72 88.494269 
" clip-path="url(#pc1f10a9f37)" style="fill: none; stroke: #b0b0b0; stroke-width: 0.8; stroke-linecap: square"/>
     </g>
     <g id="line2d_28">
      <g>
       <use xlink:href="#m9f320a6ef1" x="57.6" y="88.494269" style="stroke: #000000; stroke-width: 0.8"/>
      </g>
     </g>
     <g id="text_15">
      <!-- 0.175 -->
      <g transform="translate(21.971875 92.293488) scale(0.1 -0.1)">
       <use xlink:href="#DejaVuSans-30"/>
       <use xlink:href="#DejaVuSans-2e" x="63.623047"/>
       <use xlink:href="#DejaVuSans-31" x="95.410156"/>
       <use xlink:href="#DejaVuSans-37" x="159.033203"/>
       <use xlink:href="#DejaVuSans-35" x="222.65625"/>
      </g>
     </g>
    </g>
    <g id="ytick_9">
     <g id="line2d_29">
      <path d="M 57.6 57.926456 
L 414.72 57.926456 
" clip-path="url(#pc1f10a9f37)" style="fill: none; stroke: #b0b0b0; stroke-width: 0.8; stroke-linecap: square"/>
     </g>
     <g id="line2d_30">
      <g>
       <use xlink:href="#m9f320a6ef1" x="57.6" y="57.926456" style="stroke: #000000; stroke-width: 0.8"/>
      </g>
     </g>
     <g id="text_16">
      <!-- 0.200 -->
      <g transform="translate(21.971875 61.725675) scale(0.1 -0.1)">
       <use xlink:href="#DejaVuSans-30"/>
       <use xlink:href="#DejaVuSans-2e" x="63.623047"/>
       <use xlink:href="#DejaVuSans-32" x="95.410156"/>
       <use xlink:href="#DejaVuSans-30" x="159.033203"/>
       <use xlink:href="#DejaVuSans-30" x="222.65625"/>
      </g>
     </g>
    </g>
    <g id="text_17">
     <!-- Spectral Density ($m/s²  / \sqrt{Hz}$) -->
     <g transform="translate(15.871875 244.728) rotate(-90) scale(0.1 -0.1)">
      <defs>
       <path id="DejaVuSans-53" d="M 3425 4513 
L 3425 3897 
Q 3066 4069 2747 4153 
Q 2428 4238 2131 4238 
Q 1616 4238 1336 4038 
Q 1056 3838 1056 3469 
Q 1056 3159 1242 3001 
Q 1428 2844 1947 2747 
L 2328 2669 
Q 3034 2534 3370 2195 
Q 3706 1856 3706 1288 
Q 3706 609 3251 259 
Q 2797 -91 1919 -91 
Q 1588 -91 1214 -16 
Q 841 59 441 206 
L 441 856 
Q 825 641 1194 531 
Q 1563 422 1919 422 
Q 2459 422 2753 634 
Q 3047 847 3047 1241 
Q 3047 1584 2836 1778 
Q 2625 1972 2144 2069 
L 1759 2144 
Q 1053 2284 737 2584 
Q 422 2884 422 3419 
Q 422 4038 858 4394 
Q 1294 4750 2059 4750 
Q 2388 4750 2728 4690 
Q 3069 4631 3425 4513 
z
" transform="scale(0.015625)"/>
       <path id="DejaVuSans-70" d="M 1159 525 
L 1159 -1331 
L 581 -1331 
L 581 3500 
L 1159 3500 
L 1159 2969 
Q 1341 3281 1617 3432 
Q 1894 3584 2278 3584 
Q 2916 3584 3314 3078 
Q 3713 2572 3713 1747 
Q 3713 922 3314 415 
Q 2916 -91 2278 -91 
Q 1894 -91 1617 61 
Q 1341 213 1159 525 
z
M 3116 1747 
Q 3116 2381 2855 2742 
Q 2594 3103 2138 3103 
Q 1681 3103 1420 2742 
Q 1159 2381 1159 1747 
Q 1159 1113 1420 752 
Q 1681 391 2138 391 
Q 2594 391 2855 752 
Q 3116 1113 3116 1747 
z
" transform="scale(0.015625)"/>
       <path id="DejaVuSans-74" d="M 1172 4494 
L 1172 3500 
L 2356 3500 
L 2356 3053 
L 1172 3053 
L 1172 1153 
Q 1172 725 1289 603 
Q 1406 481 1766 481 
L 2356 481 
L 2356 0 
L 1766 0 
Q 1100 0 847 248 
Q 594 497 594 1153 
L 594 3053 
L 172 3053 
L 172 3500 
L 594 3500 
L 594 4494 
L 1172 4494 
z
" transform="scale(0.015625)"/>
       <path id="DejaVuSans-61" d="M 2194 1759 
Q 1497 1759 1228 1600 
Q 959 1441 959 1056 
Q 959 750 1161 570 
Q 1363 391 1709 391 
Q 2188 391 2477 730 
Q 2766 1069 2766 1631 
L 2766 1759 
L 2194 1759 
z
M 3341 1997 
L 3341 0 
L 2766 0 
L 2766 531 
Q 2569 213 2275 61 
Q 1981 -91 1556 -91 
Q 1019 -91 701 211 
Q 384 513 384 1019 
Q 384 1609 779 1909 
Q 1175 2209 1959 2209 
L 2766 2209 
L 2766 2266 
Q 2766 2663 2505 2880 
Q 2244 3097 1772 3097 
Q 1472 3097 1187 3025 
Q 903 2953 641 2809 
L 641 3341 
Q 956 3463 1253 3523 
Q 1550 3584 1831 3584 
Q 2591 3584 2966 3190 
Q 3341 2797 3341 1997 
z
" transform="scale(0.015625)"/>
       <path id="DejaVuSans-6c" d="M 603 4863 
L 1178 4863 
L 1178 0 
L 603 0 
L 603 4863 
z
" transform="scale(0.015625)"/>
       <path id="DejaVuSans-44" d="M 1259 4147 
L 1259 519 
L 2022 519 
Q 2988 519 3436 956 
Q 3884 1394 3884 2338 
Q 3884 3275 3436 3711 
Q 2988 4147 2022 4147 
L 1259 4147 
z
M 628 4666 
L 1925 4666 
Q 3281 4666 3915 4102 
Q 4550 3538 4550 2338 
Q 4550 1131 3912 565 
Q 3275 0 1925 0 
L 628 0 
L 628 4666 
z
" transform="scale(0.015625)"/>
       <path id="DejaVuSans-73" d="M 2834 3397 
L 2834 2853 
Q 2591 2978 2328 3040 
Q 2066 3103 1784 3103 
Q 1356 3103 1142 2972 
Q 928 2841 928 2578 
Q 928 2378 1081 2264 
Q 1234 2150 1697 2047 
L 1894 2003 
Q 2506 1872 2764 1633 
Q 3022 1394 3022 966 
Q 3022 478 2636 193 
Q 2250 -91 1575 -91 
Q 1294 -91 989 -36 
Q 684 19 347 128 
L 347 722 
Q 666 556 975 473 
Q 1284 391 1588 391 
Q 1994 391 2212 530 
Q 2431 669 2431 922 
Q 2431 1156 2273 1281 
Q 2116 1406 1581 1522 
L 1381 1569 
Q 847 1681 609 1914 
Q 372 2147 372 2553 
Q 372 3047 722 3315 
Q 1072 3584 1716 3584 
Q 2034 3584 2315 3537 
Q 2597 3491 2834 3397 
z
" transform="scale(0.015625)"/>
       <path id="DejaVuSans-69" d="M 603 3500 
L 1178 3500 
L 1178 0 
L 603 0 
L 603 3500 
z
M 603 4863 
L 1178 4863 
L 1178 4134 
L 603 4134 
L 603 4863 
z
" transform="scale(0.015625)"/>
       <path id="DejaVuSans-28" d="M 1984 4856 
Q 1566 4138 1362 3434 
Q 1159 2731 1159 2009 
Q 1159 1288 1364 580 
Q 1569 -128 1984 -844 
L 1484 -844 
Q 1016 -109 783 600 
Q 550 1309 550 2009 
Q 550 2706 781 3412 
Q 1013 4119 1484 4856 
L 1984 4856 
z
" transform="scale(0.015625)"/>
       <path id="DejaVuSans-Oblique-6d" d="M 5747 2113 
L 5338 0 
L 4763 0 
L 5166 2094 
Q 5191 2228 5203 2325 
Q 5216 2422 5216 2491 
Q 5216 2772 5059 2928 
Q 4903 3084 4622 3084 
Q 4203 3084 3875 2770 
Q 3547 2456 3450 1953 
L 3066 0 
L 2491 0 
L 2900 2094 
Q 2925 2209 2937 2307 
Q 2950 2406 2950 2484 
Q 2950 2769 2794 2926 
Q 2638 3084 2363 3084 
Q 1938 3084 1609 2770 
Q 1281 2456 1184 1953 
L 800 0 
L 225 0 
L 909 3500 
L 1484 3500 
L 1375 2956 
Q 1609 3263 1923 3423 
Q 2238 3584 2597 3584 
Q 2978 3584 3223 3384 
Q 3469 3184 3519 2828 
Q 3781 3197 4126 3390 
Q 4472 3584 4856 3584 
Q 5306 3584 5551 3325 
Q 5797 3066 5797 2591 
Q 5797 2488 5784 2364 
Q 5772 2241 5747 2113 
z
" transform="scale(0.015625)"/>
       <path id="DejaVuSans-2f" d="M 1625 4666 
L 2156 4666 
L 531 -594 
L 0 -594 
L 1625 4666 
z
" transform="scale(0.015625)"/>
       <path id="DejaVuSans-Oblique-73" d="M 3200 3397 
L 3091 2853 
Q 2863 2978 2609 3040 
Q 2356 3103 2088 3103 
Q 1634 3103 1373 2948 
Q 1113 2794 1113 2528 
Q 1113 2219 1719 2053 
Q 1766 2041 1788 2034 
L 1972 1978 
Q 2547 1819 2739 1644 
Q 2931 1469 2931 1166 
Q 2931 609 2489 259 
Q 2047 -91 1331 -91 
Q 1053 -91 747 -37 
Q 441 16 72 128 
L 184 722 
Q 500 559 806 475 
Q 1113 391 1394 391 
Q 1816 391 2080 572 
Q 2344 753 2344 1031 
Q 2344 1331 1650 1516 
L 1591 1531 
L 1394 1581 
Q 956 1697 753 1886 
Q 550 2075 550 2369 
Q 550 2928 970 3256 
Q 1391 3584 2113 3584 
Q 2397 3584 2667 3537 
Q 2938 3491 3200 3397 
z
" transform="scale(0.015625)"/>
       <path id="DejaVuSans-b2" d="M 838 2444 
L 2163 2444 
L 2163 2088 
L 294 2088 
L 294 2431 
Q 400 2528 597 2703 
Q 1672 3656 1672 3950 
Q 1672 4156 1509 4282 
Q 1347 4409 1081 4409 
Q 919 4409 728 4354 
Q 538 4300 313 4191 
L 313 4575 
Q 553 4663 761 4706 
Q 969 4750 1147 4750 
Q 1600 4750 1872 4544 
Q 2144 4338 2144 4000 
Q 2144 3566 1109 2678 
Q 934 2528 838 2444 
z
" transform="scale(0.015625)"/>
       <path id="STIXSizeOneSym-Regular-221a" d="M 6970 9933 
L 3373 -1888 
L 3104 -1888 
L 1626 2918 
Q 1555 3149 1465 3251 
Q 1376 3354 1229 3354 
Q 1011 3354 794 3181 
L 717 3309 
L 1766 4115 
L 1926 4115 
L 3379 -602 
L 3405 -602 
L 6605 9933 
L 6970 9933 
z
" transform="scale(0.015625)"/>
       <path id="DejaVuSans-Oblique-48" d="M 1081 4666 
L 1716 4666 
L 1344 2753 
L 3634 2753 
L 4006 4666 
L 4641 4666 
L 3731 0 
L 3097 0 
L 3531 2222 
L 1241 2222 
L 806 0 
L 172 0 
L 1081 4666 
z
" transform="scale(0.015625)"/>
       <path id="DejaVuSans-Oblique-7a" d="M 744 3500 
L 3475 3500 
L 3372 2975 
L 738 459 
L 2913 459 
L 2822 0 
L -19 0 
L 84 525 
L 2719 3041 
L 653 3041 
L 744 3500 
z
" transform="scale(0.015625)"/>
       <path id="DejaVuSans-29" d="M 513 4856 
L 1013 4856 
Q 1481 4119 1714 3412 
Q 1947 2706 1947 2009 
Q 1947 1309 1714 600 
Q 1481 -109 1013 -844 
L 513 -844 
Q 928 -128 1133 580 
Q 1338 1288 1338 2009 
Q 1338 2731 1133 3434 
Q 928 4138 513 4856 
z
" transform="scale(0.015625)"/>
      </defs>
      <use xlink:href="#DejaVuSans-53" transform="translate(0 0.578125)"/>
      <use xlink:href="#DejaVuSans-70" transform="translate(63.476562 0.578125)"/>
      <use xlink:href="#DejaVuSans-65" transform="translate(126.953125 0.578125)"/>
      <use xlink:href="#DejaVuSans-63" transform="translate(188.476562 0.578125)"/>
      <use xlink:href="#DejaVuSans-74" transform="translate(243.457031 0.578125)"/>
      <use xlink:href="#DejaVuSans-72" transform="translate(282.666016 0.578125)"/>
      <use xlink:href="#DejaVuSans-61" transform="translate(323.779297 0.578125)"/>
      <use xlink:href="#DejaVuSans-6c" transform="translate(385.058594 0.578125)"/>
      <use xlink:href="#DejaVuSans-20" transform="translate(412.841797 0.578125)"/>
      <use xlink:href="#DejaVuSans-44" transform="translate(444.628906 0.578125)"/>
      <use xlink:href="#DejaVuSans-65" transform="translate(521.630859 0.578125)"/>
      <use xlink:href="#DejaVuSans-6e" transform="translate(583.154297 0.578125)"/>
      <use xlink:href="#DejaVuSans-73" transform="translate(646.533203 0.578125)"/>
      <use xlink:href="#DejaVuSans-69" transform="translate(698.632812 0.578125)"/>
      <use xlink:href="#DejaVuSans-74" transform="translate(726.416016 0.578125)"/>
      <use xlink:href="#DejaVuSans-79" transform="translate(765.625 0.578125)"/>
      <use xlink:href="#DejaVuSans-20" transform="translate(824.804688 0.578125)"/>
      <use xlink:href="#DejaVuSans-28" transform="translate(856.591797 0.578125)"/>
      <use xlink:href="#DejaVuSans-Oblique-6d" transform="translate(895.605469 0.578125)"/>
      <use xlink:href="#DejaVuSans-2f" transform="translate(993.017578 0.578125)"/>
      <use xlink:href="#DejaVuSans-Oblique-73" transform="translate(1026.708984 0.578125)"/>
      <use xlink:href="#DejaVuSans-b2" transform="translate(1078.808594 0.578125)"/>
      <use xlink:href="#DejaVuSans-2f" transform="translate(1118.896484 0.578125)"/>
      <use xlink:href="#STIXSizeOneSym-Regular-221a" transform="translate(1152.587891 17.09375) scale(0.563912)"/>
      <use xlink:href="#DejaVuSans-Oblique-48" transform="translate(1224.676254 0.84375)"/>
      <use xlink:href="#DejaVuSans-Oblique-7a" transform="translate(1299.871567 0.84375)"/>
      <use xlink:href="#DejaVuSans-29" transform="translate(1364.861801 0.578125)"/>
      <path d="M 1212.176254 97.5 
L 1212.176254 103.75 
L 1364.861801 103.75 
L 1364.861801 97.5 
L 1212.176254 97.5 
z
"/>
     </g>
    </g>
   </g>
   <g id="line2d_31">
    <path d="M 73.832727 287.294791 
L 74.466818 255.136138 
L 75.735 275.944009 
L 77.003182 282.633334 
L 77.637273 283.738376 
L 78.271364 282.206372 
L 78.905455 281.084324 
L 79.539545 282.788035 
L 80.173636 281.529757 
L 80.807727 279.869783 
L 81.441818 282.386535 
L 82.075909 282.622301 
L 82.71 280.275777 
L 83.344091 280.831317 
L 83.978182 284.030449 
L 84.612273 284.866851 
L 85.246364 281.630636 
L 85.880455 279.314277 
L 86.514545 280.695521 
L 87.148636 279.022871 
L 87.782727 276.394217 
L 88.416818 275.615296 
L 89.050909 280.069953 
L 89.685 281.478813 
L 90.319091 280.415958 
L 90.953182 280.413979 
L 91.587273 280.702317 
L 92.855455 277.404848 
L 93.489545 276.143509 
L 94.123636 277.243166 
L 94.757727 280.026652 
L 95.391818 279.487917 
L 96.025909 276.993586 
L 96.66 277.296394 
L 97.294091 280.539291 
L 97.928182 279.925491 
L 98.562273 279.675709 
L 99.196364 278.352118 
L 99.830455 275.268631 
L 100.464545 275.023954 
L 101.098636 277.798944 
L 101.732727 275.595074 
L 102.366818 274.785497 
L 103.000909 276.775042 
L 103.635 274.458419 
L 104.269091 273.707086 
L 104.903182 271.062238 
L 105.537273 272.431892 
L 106.171364 276.475878 
L 106.805455 277.15434 
L 107.439545 274.109577 
L 108.707727 277.56916 
L 109.341818 272.669944 
L 109.975909 271.915144 
L 110.61 273.2695 
L 111.244091 271.804845 
L 112.512273 275.94982 
L 113.146364 273.853827 
L 113.780455 274.010299 
L 114.414545 274.426526 
L 115.048636 275.047662 
L 115.682727 277.119975 
L 116.316818 276.141925 
L 117.585 280.856546 
L 118.219091 281.147635 
L 118.853182 279.965236 
L 119.487273 279.818443 
L 120.121364 280.185624 
L 120.755455 283.725126 
L 121.389545 281.343142 
L 122.023636 280.876291 
L 122.657727 281.742804 
L 123.291818 282.137838 
L 123.925909 281.842623 
L 124.56 279.933018 
L 125.828182 284.248939 
L 126.462273 285.261164 
L 127.096364 284.976231 
L 127.730455 284.057338 
L 128.364545 283.440735 
L 128.998636 283.678283 
L 129.632727 285.158377 
L 130.266818 286.183839 
L 130.900909 283.816072 
L 131.535 285.524879 
L 132.169091 285.340217 
L 132.803182 287.078849 
L 133.437273 287.404278 
L 134.071364 287.419736 
L 134.705455 287.034848 
L 135.339545 289.399623 
L 135.973636 289.496404 
L 136.607727 288.343622 
L 137.241818 288.253528 
L 137.875909 288.646616 
L 139.144091 288.597502 
L 140.412273 291.225716 
L 141.046364 288.565744 
L 141.680455 287.623036 
L 142.314545 288.791255 
L 142.948636 288.915176 
L 143.582727 288.392328 
L 144.216818 289.733634 
L 144.850909 289.706664 
L 145.485 289.961931 
L 146.119091 291.420237 
L 146.753182 291.119675 
L 147.387273 289.798821 
L 148.021364 290.195854 
L 148.655455 289.40057 
L 149.923636 290.959157 
L 150.557727 289.672402 
L 151.191818 290.259464 
L 151.825909 291.076228 
L 152.46 289.726668 
L 153.094091 289.312413 
L 153.728182 289.74584 
L 154.362273 290.69842 
L 154.996364 291.303503 
L 155.630455 290.342906 
L 156.264545 291.136361 
L 156.898636 292.801264 
L 157.532727 291.867521 
L 158.166818 291.41594 
L 158.800909 292.004797 
L 159.435 289.910192 
L 160.069091 289.547699 
L 160.703182 291.421262 
L 161.337273 290.827851 
L 161.971364 291.33924 
L 162.605455 292.614946 
L 163.239545 292.411871 
L 163.873636 290.723828 
L 164.507727 290.976537 
L 165.141818 291.525553 
L 165.775909 290.443688 
L 166.41 289.743291 
L 167.044091 291.05698 
L 168.312273 291.791487 
L 168.946364 290.930774 
L 169.580455 290.957003 
L 170.214545 291.573186 
L 170.848636 290.432931 
L 171.482727 290.484258 
L 172.116818 291.017772 
L 172.750909 291.055762 
L 173.385 288.968305 
L 174.019091 287.738167 
L 174.653182 285.897349 
L 175.287273 286.37718 
L 175.921364 287.507816 
L 176.555455 280.55515 
L 177.189545 281.324411 
L 177.823636 282.688325 
L 178.457727 284.997224 
L 179.725909 281.816058 
L 180.36 283.886576 
L 180.994091 284.462354 
L 181.628182 282.671106 
L 182.262273 283.354908 
L 182.896364 283.497141 
L 183.530455 282.811665 
L 184.164545 281.671701 
L 184.798636 284.351522 
L 185.432727 285.815461 
L 186.066818 285.73304 
L 186.700909 286.729401 
L 187.335 283.690462 
L 187.969091 282.329662 
L 188.603182 281.576562 
L 189.237273 282.203544 
L 189.871364 284.074006 
L 190.505455 286.319227 
L 191.139545 283.373835 
L 191.773636 282.218274 
L 192.407727 285.28643 
L 193.041818 285.864035 
L 193.675909 283.823205 
L 194.31 282.862274 
L 195.578182 290.224056 
L 196.846364 284.640256 
L 197.480455 288.623158 
L 198.114545 291.325449 
L 198.748636 288.8841 
L 199.382727 289.434765 
L 200.016818 290.701932 
L 200.650909 292.291927 
L 201.285 291.703942 
L 201.919091 290.590554 
L 202.553182 290.655786 
L 203.187273 291.629297 
L 203.821364 291.244993 
L 204.455455 290.092072 
L 205.089545 289.870604 
L 206.357727 292.614364 
L 206.991818 290.978504 
L 207.625909 289.877469 
L 208.26 290.836527 
L 208.894091 290.068164 
L 209.528182 289.928015 
L 210.162273 290.967079 
L 210.796364 291.457929 
L 211.430455 291.05374 
L 212.064545 290.846651 
L 212.698636 288.013861 
L 213.332727 287.114846 
L 213.966818 287.984558 
L 214.600909 288.090495 
L 215.235 288.514051 
L 215.869091 288.463602 
L 216.503182 288.261052 
L 217.137273 287.099347 
L 217.771364 287.134802 
L 218.405455 287.522076 
L 219.039545 287.356946 
L 219.673636 286.287705 
L 220.307727 285.501353 
L 220.941818 285.295389 
L 221.575909 284.270159 
L 222.844091 282.915544 
L 223.478182 283.135361 
L 224.112273 281.580955 
L 224.746364 282.253688 
L 225.380455 281.127636 
L 226.014545 280.764384 
L 226.648636 278.525618 
L 227.282727 277.506935 
L 227.916818 275.609516 
L 228.550909 274.930587 
L 229.185 271.866181 
L 229.819091 269.438291 
L 231.087273 271.679207 
L 231.721364 269.479385 
L 232.355455 264.396674 
L 232.989545 255.127502 
L 233.623636 249.903683 
L 234.257727 241.533856 
L 234.891818 231.349322 
L 235.525909 224.42298 
L 236.16 221.610782 
L 236.794091 214.562123 
L 237.428182 217.142744 
L 238.062273 226.023789 
L 238.696364 238.530483 
L 239.330455 242.787401 
L 239.964545 256.058981 
L 240.598636 257.01852 
L 241.232727 253.515333 
L 241.866818 259.90481 
L 242.500909 263.6723 
L 243.135 270.064367 
L 243.769091 271.963662 
L 244.403182 269.409133 
L 245.037273 271.284936 
L 245.671364 272.278236 
L 246.305455 275.652727 
L 246.939545 275.583007 
L 247.573636 275.822083 
L 248.207727 278.047284 
L 248.841818 275.910813 
L 249.475909 277.410975 
L 251.378182 283.973918 
L 252.012273 282.611262 
L 252.646364 282.623614 
L 253.280455 284.3655 
L 253.914545 283.456168 
L 254.548636 282.115128 
L 255.182727 282.040735 
L 255.816818 282.367448 
L 256.450909 284.653067 
L 257.085 283.655849 
L 257.719091 283.3087 
L 258.353182 284.99583 
L 258.987273 287.357746 
L 259.621364 285.882658 
L 260.255455 282.951684 
L 260.889545 283.634313 
L 261.523636 283.883411 
L 262.157727 285.195281 
L 262.791818 285.28294 
L 263.425909 283.909858 
L 264.694091 284.937953 
L 265.328182 284.898201 
L 265.962273 283.913944 
L 266.596364 283.694732 
L 267.230455 284.920427 
L 267.864545 285.465818 
L 268.498636 284.912903 
L 269.132727 283.107215 
L 269.766818 281.878891 
L 270.400909 281.900504 
L 271.035 284.18687 
L 271.669091 284.735648 
L 272.303182 285.134272 
L 272.937273 284.906118 
L 273.571364 283.342002 
L 274.205455 285.542607 
L 274.839545 286.767085 
L 275.473636 286.647509 
L 276.107727 285.978347 
L 276.741818 286.20648 
L 277.375909 285.849373 
L 278.01 281.27427 
L 278.644091 281.686441 
L 279.278182 282.881069 
L 279.912273 282.676445 
L 280.546364 281.495841 
L 281.180455 278.90718 
L 281.814545 278.604855 
L 282.448636 277.97119 
L 283.082727 270.588849 
L 283.716818 269.38217 
L 284.350909 272.522254 
L 284.985 270.741007 
L 285.619091 266.039431 
L 286.253182 264.594758 
L 286.887273 260.690023 
L 287.521364 250.26146 
L 288.155455 249.785328 
L 288.789545 238.939859 
L 289.423636 233.769309 
L 290.057727 239.813035 
L 290.691818 242.152059 
L 291.325909 245.903196 
L 291.96 242.988033 
L 292.594091 230.643209 
L 293.228182 223.039906 
L 293.862273 229.631013 
L 294.496364 219.328929 
L 295.130455 205.823268 
L 295.764545 204.81939 
L 296.398636 208.748359 
L 297.032727 204.911395 
L 297.666818 216.372095 
L 298.300909 211.449174 
L 298.935 205.298351 
L 299.569091 203.896646 
L 300.203182 200.284969 
L 300.837273 206.61044 
L 301.471364 214.411773 
L 302.105455 210.483927 
L 302.739545 193.826344 
L 303.373636 204.64665 
L 304.641818 221.697806 
L 305.275909 214.123081 
L 305.91 212.444877 
L 306.544091 213.02364 
L 307.178182 191.295206 
L 307.812273 183.054422 
L 308.446364 191.115743 
L 309.080455 195.524995 
L 309.714545 182.570051 
L 310.348636 166.960644 
L 311.616818 187.265036 
L 312.250909 194.508786 
L 312.885 199.746722 
L 313.519091 196.200264 
L 314.787273 161.723405 
L 316.689545 145.835055 
L 317.323636 127.125242 
L 318.591818 143.060954 
L 319.225909 128.649512 
L 319.86 137.132045 
L 320.494091 160.34705 
L 321.128182 172.597688 
L 321.762273 180.060199 
L 322.396364 192.929859 
L 323.030455 191.736986 
L 323.664545 202.59555 
L 324.298636 216.216393 
L 324.932727 218.229832 
L 325.566818 218.189551 
L 326.200909 228.430985 
L 326.835 242.298545 
L 327.469091 235.863792 
L 328.103182 232.452682 
L 328.737273 238.977906 
L 329.371364 247.094929 
L 330.005455 249.595206 
L 330.639545 250.13064 
L 331.273636 257.976405 
L 331.907727 261.294325 
L 332.541818 265.704694 
L 333.175909 264.270563 
L 333.81 271.448191 
L 334.444091 274.078717 
L 335.078182 277.352511 
L 335.712273 279.291875 
L 336.346364 277.756876 
L 336.980455 278.272725 
L 337.614545 281.896408 
L 338.248636 283.014229 
L 338.882727 282.734642 
L 339.516818 283.641294 
L 340.150909 283.559045 
L 340.785 286.27887 
L 341.419091 285.236798 
L 342.053182 283.217762 
L 342.687273 286.405918 
L 343.321364 286.101678 
L 343.955455 288.519467 
L 344.589545 289.544267 
L 345.223636 290.262625 
L 345.857727 289.59824 
L 346.491818 289.463019 
L 347.125909 289.447676 
L 347.76 289.026775 
L 348.394091 288.748197 
L 349.028182 289.236649 
L 349.662273 288.904727 
L 350.296364 290.845616 
L 350.930455 290.998649 
L 351.564545 292.656614 
L 352.198636 292.921702 
L 352.832727 291.045171 
L 353.466818 290.448418 
L 354.100909 291.585519 
L 355.369091 293.428017 
L 356.003182 291.297549 
L 356.637273 290.036718 
L 357.271364 290.58059 
L 357.905455 291.975976 
L 358.539545 292.523041 
L 359.173636 292.132502 
L 359.807727 290.998825 
L 360.441818 290.916307 
L 361.075909 292.045033 
L 362.344091 292.529428 
L 362.978182 293.885212 
L 363.612273 293.112531 
L 364.246364 294.108196 
L 365.514545 292.768897 
L 366.148636 292.697218 
L 366.782727 292.202647 
L 368.050909 291.969708 
L 368.685 292.974749 
L 369.319091 293.205509 
L 369.953182 292.557397 
L 371.221364 294.257401 
L 371.855455 292.133976 
L 372.489545 291.042037 
L 373.123636 292.099072 
L 373.757727 292.330255 
L 374.391818 291.169555 
L 375.025909 293.106174 
L 375.66 293.28876 
L 376.294091 292.250877 
L 376.928182 291.519206 
L 377.562273 290.2944 
L 378.196364 289.537124 
L 378.830455 290.083957 
L 380.098636 293.008589 
L 380.732727 290.817536 
L 381.366818 287.466622 
L 382.000909 287.46098 
L 382.635 287.855025 
L 383.269091 289.162743 
L 383.903182 288.883994 
L 384.537273 287.479764 
L 385.171364 289.033418 
L 385.805455 288.499026 
L 387.073636 285.362508 
L 387.707727 285.610971 
L 389.61 287.668912 
L 390.244091 283.579273 
L 390.878182 284.228629 
L 391.512273 284.458368 
L 392.146364 282.409322 
L 392.780455 283.528238 
L 393.414545 283.293048 
L 394.048636 283.91342 
L 394.682727 284.253717 
L 395.316818 282.131834 
L 395.950909 285.211051 
L 396.585 284.77925 
L 397.219091 282.92183 
L 397.853182 282.810024 
L 398.487273 287.848515 
L 398.487273 287.848515 
" clip-path="url(#pc1f10a9f37)" style="fill: none; stroke: #1f77b4; stroke-width: 1.5; stroke-linecap: square"/>
   </g>
   <g id="line2d_32">
    <path d="M 73.832727 247.279643 
L 74.466818 176.278725 
L 75.100909 156.469181 
L 75.735 174.635489 
L 76.369091 207.831978 
L 77.637273 239.527853 
L 78.271364 260.748245 
L 78.905455 257.625483 
L 79.539545 257.149327 
L 80.173636 260.325978 
L 80.807727 260.682878 
L 81.441818 259.266915 
L 82.075909 259.093603 
L 82.71 261.620637 
L 83.344091 257.779482 
L 83.978182 256.421573 
L 84.612273 258.318758 
L 85.246364 258.913641 
L 85.880455 253.955658 
L 86.514545 242.754621 
L 87.148636 244.477551 
L 87.782727 248.827129 
L 89.050909 244.137145 
L 89.685 243.713533 
L 90.319091 254.272949 
L 90.953182 256.140439 
L 91.587273 254.308266 
L 92.221364 251.394886 
L 92.855455 243.801672 
L 93.489545 240.95465 
L 94.757727 253.719458 
L 95.391818 250.464461 
L 96.025909 244.278496 
L 96.66 246.474461 
L 97.294091 251.339372 
L 97.928182 247.16806 
L 98.562273 244.610087 
L 99.196364 250.626627 
L 100.464545 243.466084 
L 101.098636 247.430866 
L 101.732727 240.637848 
L 102.366818 240.61463 
L 103.635 247.490143 
L 104.269091 246.552748 
L 104.903182 240.913678 
L 106.171364 253.221742 
L 106.805455 251.022732 
L 108.073636 247.603126 
L 108.707727 255.626612 
L 109.341818 246.468886 
L 109.975909 239.470801 
L 110.61 245.564114 
L 111.244091 245.40361 
L 111.878182 250.997427 
L 112.512273 250.936344 
L 113.146364 243.037384 
L 113.780455 245.213071 
L 114.414545 254.716825 
L 115.048636 258.427091 
L 115.682727 261.344245 
L 116.316818 256.070499 
L 116.950909 256.211408 
L 117.585 262.349928 
L 118.219091 259.79268 
L 118.853182 256.207449 
L 119.487273 260.013463 
L 120.121364 262.221409 
L 120.755455 267.185434 
L 121.389545 264.65853 
L 122.657727 263.574466 
L 123.291818 265.971172 
L 123.925909 267.629295 
L 124.56 265.345466 
L 125.194091 264.484731 
L 125.828182 269.360535 
L 126.462273 266.322725 
L 127.096364 269.364841 
L 127.730455 269.883981 
L 128.364545 268.530002 
L 128.998636 272.065776 
L 129.632727 274.422991 
L 130.266818 273.682344 
L 130.900909 271.28047 
L 131.535 271.258441 
L 132.169091 270.408149 
L 132.803182 271.719653 
L 133.437273 273.468605 
L 134.071364 273.632465 
L 134.705455 278.335058 
L 135.339545 278.470589 
L 135.973636 275.579688 
L 136.607727 276.887752 
L 137.241818 276.991584 
L 137.875909 278.923536 
L 138.51 278.307985 
L 139.144091 277.934966 
L 139.778182 279.820238 
L 140.412273 280.864351 
L 141.046364 280.992064 
L 141.680455 282.773072 
L 142.314545 282.452205 
L 143.582727 279.96399 
L 144.216818 279.339354 
L 144.850909 282.543422 
L 145.485 283.757251 
L 146.119091 281.25956 
L 146.753182 279.90991 
L 147.387273 280.762179 
L 148.021364 284.252011 
L 148.655455 282.127326 
L 149.289545 279.26435 
L 150.557727 281.46785 
L 151.191818 285.385962 
L 151.825909 281.250735 
L 152.46 280.94547 
L 153.094091 279.938888 
L 153.728182 279.948023 
L 154.996364 283.595107 
L 155.630455 283.794263 
L 156.264545 283.619975 
L 156.898636 283.116534 
L 157.532727 282.439753 
L 158.166818 283.674976 
L 158.800909 283.908112 
L 159.435 282.145191 
L 160.069091 283.552418 
L 161.337273 278.747194 
L 161.971364 283.277284 
L 162.605455 280.394889 
L 163.239545 280.974465 
L 163.873636 280.970467 
L 164.507727 281.661929 
L 165.141818 282.701926 
L 165.775909 282.970407 
L 166.41 285.67867 
L 167.044091 287.038094 
L 167.678182 281.348162 
L 168.946364 281.982413 
L 169.580455 281.778223 
L 170.214545 277.748164 
L 170.848636 278.071459 
L 171.482727 281.68301 
L 172.116818 279.338504 
L 172.750909 279.908711 
L 173.385 279.861909 
L 174.653182 275.376359 
L 175.287273 277.811335 
L 175.921364 278.880193 
L 176.555455 270.893525 
L 177.189545 269.581628 
L 177.823636 267.523706 
L 178.457727 269.343722 
L 179.091818 269.24318 
L 179.725909 270.850185 
L 180.36 273.840648 
L 180.994091 271.506419 
L 181.628182 271.279805 
L 182.262273 272.313422 
L 182.896364 272.153126 
L 183.530455 272.751463 
L 184.164545 269.684186 
L 184.798636 270.107378 
L 185.432727 273.858715 
L 186.066818 275.107537 
L 186.700909 278.092992 
L 187.335 276.888746 
L 187.969091 270.552111 
L 188.603182 267.081608 
L 189.237273 265.552278 
L 190.505455 270.448604 
L 191.773636 266.362801 
L 192.407727 269.340416 
L 193.041818 271.135722 
L 193.675909 271.48902 
L 194.31 269.104712 
L 194.944091 278.629393 
L 195.578182 278.298693 
L 196.846364 273.484969 
L 197.480455 277.538145 
L 198.114545 279.622643 
L 198.748636 282.303364 
L 199.382727 283.115758 
L 200.016818 285.095271 
L 200.650909 284.546436 
L 201.285 283.760748 
L 201.919091 284.052954 
L 202.553182 285.805124 
L 203.821364 283.17004 
L 204.455455 283.404838 
L 205.089545 285.778391 
L 205.723636 287.198966 
L 206.357727 290.15854 
L 206.991818 285.928234 
L 207.625909 283.724387 
L 208.26 286.091702 
L 208.894091 286.302142 
L 209.528182 283.371905 
L 210.162273 283.094205 
L 210.796364 285.070136 
L 211.430455 284.572202 
L 212.064545 285.392956 
L 212.698636 286.657231 
L 213.966818 285.737337 
L 214.600909 286.487845 
L 215.235 286.172411 
L 215.869091 285.212543 
L 216.503182 286.161183 
L 217.137273 286.29363 
L 217.771364 284.340809 
L 218.405455 283.256184 
L 219.039545 284.780237 
L 219.673636 286.822197 
L 220.307727 284.370341 
L 220.941818 285.103647 
L 221.575909 284.026374 
L 222.21 282.728555 
L 222.844091 281.854559 
L 223.478182 283.255582 
L 224.112273 283.157491 
L 224.746364 282.326279 
L 225.380455 280.634117 
L 226.014545 281.000689 
L 226.648636 280.236126 
L 227.282727 283.052161 
L 228.550909 278.332587 
L 229.819091 274.070188 
L 230.453182 273.609718 
L 231.087273 275.815397 
L 231.721364 275.526016 
L 232.355455 268.988283 
L 232.989545 265.956781 
L 233.623636 265.894727 
L 234.891818 256.13117 
L 235.525909 250.338911 
L 236.16 249.970014 
L 236.794091 244.618383 
L 237.428182 243.520024 
L 238.062273 246.736293 
L 238.696364 252.408706 
L 239.330455 259.355223 
L 239.964545 270.310275 
L 240.598636 267.121838 
L 241.232727 265.970025 
L 241.866818 271.175619 
L 243.135 277.960276 
L 243.769091 277.749325 
L 244.403182 276.719201 
L 245.037273 278.735939 
L 245.671364 279.556455 
L 246.305455 282.522583 
L 247.573636 280.494549 
L 248.207727 284.562906 
L 248.841818 283.077415 
L 249.475909 283.539487 
L 250.744091 283.03461 
L 252.012273 285.498684 
L 252.646364 285.305708 
L 253.914545 283.901262 
L 254.548636 285.912186 
L 255.182727 286.215617 
L 255.816818 283.634109 
L 256.450909 284.085344 
L 257.085 285.37145 
L 257.719091 287.196945 
L 258.353182 286.161522 
L 258.987273 285.349377 
L 259.621364 286.701698 
L 260.255455 285.823968 
L 260.889545 283.542112 
L 261.523636 284.402567 
L 262.157727 287.488097 
L 263.425909 285.065026 
L 264.06 284.533822 
L 264.694091 283.109257 
L 265.328182 282.86276 
L 265.962273 284.733044 
L 267.230455 284.88322 
L 267.864545 286.332152 
L 268.498636 286.983348 
L 269.132727 284.166669 
L 269.766818 284.271875 
L 270.400909 283.474297 
L 271.035 283.978057 
L 271.669091 285.041191 
L 272.303182 283.172094 
L 272.937273 282.570567 
L 273.571364 283.680079 
L 274.205455 283.964434 
L 274.839545 283.936635 
L 275.473636 285.839231 
L 276.107727 284.640097 
L 276.741818 281.952927 
L 277.375909 281.438121 
L 278.644091 284.949003 
L 279.278182 283.836598 
L 279.912273 283.222103 
L 280.546364 283.065639 
L 281.180455 281.967985 
L 281.814545 282.522425 
L 282.448636 280.773502 
L 283.082727 280.009916 
L 283.716818 280.280591 
L 284.350909 277.26256 
L 284.985 280.198283 
L 285.619091 281.294343 
L 286.253182 282.146996 
L 286.887273 280.08427 
L 287.521364 278.835855 
L 288.155455 276.736522 
L 288.789545 276.465739 
L 289.423636 276.746044 
L 290.057727 274.311965 
L 290.691818 274.370348 
L 291.325909 275.212782 
L 291.96 274.302694 
L 292.594091 270.813998 
L 293.228182 270.465665 
L 293.862273 274.996053 
L 294.496364 274.932058 
L 295.130455 271.983294 
L 295.764545 269.862405 
L 296.398636 269.828664 
L 297.032727 267.500217 
L 297.666818 270.671795 
L 298.300909 272.00871 
L 298.935 272.42552 
L 299.569091 269.32882 
L 300.203182 269.035675 
L 300.837273 264.804363 
L 301.471364 264.764755 
L 302.105455 267.726808 
L 302.739545 260.616349 
L 303.373636 262.347151 
L 304.007727 265.111704 
L 304.641818 266.260911 
L 305.275909 265.696529 
L 305.91 266.799697 
L 306.544091 268.814127 
L 307.178182 263.862235 
L 307.812273 260.307518 
L 308.446364 262.155143 
L 309.080455 260.526524 
L 309.714545 256.120168 
L 310.348636 252.766406 
L 310.982727 256.919416 
L 311.616818 258.014943 
L 312.250909 257.108506 
L 313.519091 263.141321 
L 314.787273 256.387426 
L 315.421364 257.052819 
L 316.055455 255.535427 
L 317.323636 248.089205 
L 317.957727 245.567399 
L 318.591818 247.734779 
L 319.225909 242.002245 
L 319.86 239.959777 
L 320.494091 243.818751 
L 321.128182 245.229126 
L 321.762273 246.114405 
L 322.396364 246.352387 
L 323.030455 237.672877 
L 323.664545 239.498663 
L 324.298636 245.418161 
L 324.932727 242.67215 
L 325.566818 235.763905 
L 326.200909 235.31511 
L 326.835 236.593594 
L 327.469091 233.475498 
L 328.103182 232.945429 
L 328.737273 232.57959 
L 329.371364 231.479141 
L 331.273636 249.206472 
L 331.907727 252.367131 
L 332.541818 254.79647 
L 333.175909 248.90322 
L 333.81 251.792296 
L 334.444091 260.856026 
L 335.078182 265.164845 
L 335.712273 262.211274 
L 336.980455 270.13022 
L 337.614545 269.181063 
L 338.248636 270.52884 
L 338.882727 274.904413 
L 339.516818 276.394461 
L 340.150909 274.766096 
L 340.785 274.274255 
L 341.419091 272.625386 
L 342.053182 276.621565 
L 342.687273 277.82531 
L 343.321364 277.305783 
L 343.955455 278.086146 
L 344.589545 283.100616 
L 345.223636 282.488005 
L 345.857727 276.221312 
L 346.491818 276.373542 
L 347.125909 278.329618 
L 347.76 279.765331 
L 348.394091 279.488829 
L 349.028182 279.37517 
L 349.662273 280.375895 
L 350.296364 277.812585 
L 350.930455 278.255471 
L 351.564545 278.059248 
L 352.198636 278.722377 
L 352.832727 276.094651 
L 353.466818 276.430674 
L 354.100909 274.472685 
L 354.735 277.93097 
L 355.369091 279.081692 
L 356.003182 278.490787 
L 356.637273 275.128032 
L 357.271364 277.897843 
L 357.905455 278.476655 
L 358.539545 278.133399 
L 359.173636 274.572244 
L 359.807727 273.580967 
L 360.441818 273.077454 
L 361.075909 273.324697 
L 361.71 271.555759 
L 362.344091 270.301629 
L 363.612273 270.643474 
L 364.246364 264.014032 
L 364.880455 268.571955 
L 365.514545 270.009818 
L 366.148636 268.444078 
L 366.782727 262.796286 
L 367.416818 262.669353 
L 368.050909 259.819969 
L 368.685 266.849648 
L 369.319091 263.135132 
L 369.953182 255.613449 
L 371.221364 260.453941 
L 371.855455 256.03237 
L 372.489545 258.635287 
L 373.123636 259.45523 
L 373.757727 262.754933 
L 374.391818 261.664167 
L 375.025909 255.215509 
L 376.294091 260.478628 
L 376.928182 263.804879 
L 377.562273 265.527863 
L 378.196364 262.365978 
L 378.830455 262.40665 
L 379.464545 263.390622 
L 380.098636 265.378052 
L 380.732727 263.190063 
L 381.366818 255.505018 
L 382.000909 254.627277 
L 382.635 257.68222 
L 383.269091 255.677173 
L 383.903182 251.165344 
L 384.537273 251.71553 
L 385.171364 260.508151 
L 385.805455 262.204918 
L 386.439545 251.97874 
L 387.073636 244.665943 
L 388.341818 254.48941 
L 388.975909 256.149694 
L 389.61 256.074113 
L 390.244091 246.325315 
L 390.878182 243.874744 
L 391.512273 242.159751 
L 392.146364 244.469233 
L 392.780455 242.489313 
L 393.414545 243.930133 
L 394.048636 242.103423 
L 394.682727 249.203626 
L 395.316818 240.086899 
L 395.950909 245.117694 
L 396.585 243.217799 
L 397.219091 238.683357 
L 397.853182 237.921372 
L 398.487273 259.905728 
L 398.487273 259.905728 
" clip-path="url(#pc1f10a9f37)" style="fill: none; stroke: #ff7f0e; stroke-width: 1.5; stroke-linecap: square"/>
   </g>
   <g id="line2d_33">
    <path d="M 73.832727 281.11998 
L 74.466818 243.149077 
L 75.100909 256.921356 
L 75.735 273.184569 
L 76.369091 278.280046 
L 77.003182 277.75192 
L 77.637273 279.40018 
L 78.271364 281.935512 
L 78.905455 277.057514 
L 79.539545 275.839163 
L 80.173636 276.668353 
L 80.807727 274.772009 
L 81.441818 274.519988 
L 82.075909 277.068596 
L 82.71 275.355611 
L 83.344091 275.409801 
L 83.978182 277.085706 
L 84.612273 273.961958 
L 85.246364 272.998511 
L 85.880455 270.834906 
L 86.514545 270.761677 
L 87.148636 267.712542 
L 87.782727 262.876298 
L 88.416818 262.56921 
L 89.050909 260.894677 
L 89.685 266.852211 
L 90.319091 270.749017 
L 90.953182 272.007811 
L 91.587273 274.31876 
L 92.855455 265.921856 
L 93.489545 263.125893 
L 94.123636 265.387458 
L 94.757727 268.269541 
L 95.391818 267.475689 
L 96.025909 266.974378 
L 96.66 268.202407 
L 97.294091 263.023738 
L 97.928182 265.022463 
L 98.562273 270.86085 
L 99.196364 269.66787 
L 99.830455 269.583931 
L 100.464545 269.112466 
L 101.098636 268.852697 
L 101.732727 265.248332 
L 102.366818 267.447984 
L 103.000909 270.188559 
L 103.635 274.329566 
L 104.903182 267.167445 
L 105.537273 269.228636 
L 106.171364 272.292435 
L 106.805455 268.605994 
L 107.439545 267.437094 
L 108.707727 272.270823 
L 109.975909 265.588388 
L 110.61 266.343805 
L 111.244091 266.582446 
L 112.512273 271.910326 
L 113.146364 265.851728 
L 113.780455 263.952451 
L 114.414545 269.704502 
L 115.048636 269.93982 
L 115.682727 272.894236 
L 116.316818 269.483367 
L 116.950909 270.389209 
L 117.585 276.903585 
L 118.219091 277.73467 
L 118.853182 277.105308 
L 119.487273 278.562986 
L 120.121364 279.458577 
L 120.755455 280.840172 
L 121.389545 278.279582 
L 122.023636 276.951712 
L 122.657727 278.472847 
L 123.291818 281.740627 
L 123.925909 281.432644 
L 124.56 279.060113 
L 125.194091 279.423674 
L 125.828182 278.692106 
L 126.462273 281.269243 
L 127.096364 282.824404 
L 127.730455 282.79484 
L 128.364545 280.990669 
L 128.998636 284.162588 
L 130.266818 288.597589 
L 130.900909 288.429742 
L 131.535 289.572342 
L 132.169091 288.615662 
L 132.803182 289.63933 
L 133.437273 290.013891 
L 134.071364 289.815324 
L 135.339545 292.495869 
L 135.973636 293.250307 
L 136.607727 291.286598 
L 137.241818 290.628705 
L 137.875909 291.065632 
L 138.51 293.334719 
L 139.144091 293.055083 
L 139.778182 292.400766 
L 140.412273 292.560947 
L 141.046364 293.041715 
L 141.680455 293.158395 
L 142.314545 294.047985 
L 142.948636 293.215963 
L 143.582727 292.183964 
L 144.216818 292.665327 
L 144.850909 293.564733 
L 145.485 294.176197 
L 146.119091 293.279701 
L 147.387273 294.959589 
L 148.021364 293.862112 
L 148.655455 293.942376 
L 149.289545 293.429649 
L 149.923636 294.529711 
L 150.557727 294.115735 
L 151.191818 293.86161 
L 151.825909 294.016733 
L 152.46 293.849885 
L 153.094091 294.273315 
L 153.728182 294.344863 
L 154.362273 293.894829 
L 154.996364 294.822691 
L 155.630455 294.911188 
L 156.264545 293.701075 
L 156.898636 294.345788 
L 157.532727 295.16783 
L 158.166818 293.626989 
L 158.800909 294.612435 
L 159.435 294.619011 
L 160.069091 295.388621 
L 160.703182 295.446236 
L 161.337273 294.423745 
L 161.971364 294.325238 
L 162.605455 294.040197 
L 163.239545 294.980882 
L 163.873636 294.939098 
L 165.141818 294.145143 
L 165.775909 294.442887 
L 166.41 294.27266 
L 167.678182 294.337762 
L 168.946364 294.792345 
L 170.214545 294.690343 
L 171.482727 294.94644 
L 172.116818 295.488 
L 172.750909 294.231451 
L 173.385 294.207441 
L 174.019091 293.515194 
L 174.653182 294.660678 
L 175.287273 294.770887 
L 176.555455 293.492975 
L 177.189545 293.940459 
L 177.823636 293.841537 
L 179.091818 294.445093 
L 179.725909 294.895056 
L 180.36 294.604733 
L 180.994091 294.177694 
L 181.628182 293.188553 
L 182.262273 293.956215 
L 182.896364 294.04427 
L 183.530455 294.465594 
L 184.164545 294.640218 
L 184.798636 294.457641 
L 185.432727 294.139601 
L 186.066818 292.921773 
L 186.700909 293.779709 
L 187.335 294.084228 
L 187.969091 294.807872 
L 188.603182 294.420043 
L 189.237273 293.513119 
L 189.871364 293.741633 
L 190.505455 294.090615 
L 192.407727 293.788448 
L 193.041818 293.135521 
L 193.675909 294.135461 
L 194.31 294.198237 
L 194.944091 294.645426 
L 195.578182 294.651108 
L 196.212273 294.846543 
L 196.846364 294.162983 
L 197.480455 293.283583 
L 198.114545 293.243465 
L 198.748636 293.766086 
L 199.382727 293.424032 
L 200.016818 293.897003 
L 200.650909 294.807 
L 201.285 294.25052 
L 201.919091 294.078137 
L 202.553182 294.557879 
L 203.187273 293.795459 
L 204.455455 295.346511 
L 205.089545 294.566596 
L 205.723636 293.261334 
L 206.357727 293.08268 
L 206.991818 293.801967 
L 207.625909 293.117812 
L 208.26 292.827565 
L 208.894091 293.734075 
L 209.528182 292.983767 
L 210.162273 292.629492 
L 211.430455 294.228213 
L 212.064545 294.043164 
L 212.698636 292.674595 
L 213.332727 292.723222 
L 213.966818 292.29251 
L 214.600909 292.338372 
L 215.235 291.50116 
L 215.869091 292.567502 
L 216.503182 292.571478 
L 217.771364 293.769972 
L 218.405455 293.16969 
L 219.039545 292.895666 
L 219.673636 292.103135 
L 220.307727 292.222949 
L 220.941818 292.904554 
L 222.844091 292.299632 
L 223.478182 292.739872 
L 225.380455 290.068916 
L 226.014545 291.393542 
L 226.648636 289.832034 
L 227.282727 289.93863 
L 227.916818 290.234911 
L 228.550909 288.0742 
L 229.185 288.127434 
L 229.819091 287.707707 
L 230.453182 287.515647 
L 231.087273 286.504946 
L 231.721364 286.139456 
L 232.355455 284.799711 
L 232.989545 282.539239 
L 233.623636 281.214834 
L 234.257727 278.49638 
L 234.891818 274.32651 
L 235.525909 271.052689 
L 236.16 271.112239 
L 236.794091 269.754133 
L 237.428182 269.738847 
L 238.062273 271.644119 
L 238.696364 276.148872 
L 239.330455 278.735635 
L 239.964545 282.395586 
L 240.598636 281.999669 
L 241.232727 280.717805 
L 241.866818 282.098642 
L 242.500909 281.815893 
L 243.135 283.945446 
L 243.769091 283.054182 
L 244.403182 284.911508 
L 245.037273 285.415271 
L 245.671364 285.020209 
L 246.939545 287.986571 
L 247.573636 287.151151 
L 248.207727 285.10936 
L 248.841818 284.042495 
L 249.475909 285.512507 
L 250.11 285.820519 
L 250.744091 284.728215 
L 251.378182 285.410267 
L 252.012273 285.564564 
L 252.646364 285.950237 
L 253.280455 284.053421 
L 253.914545 281.359166 
L 254.548636 281.68452 
L 255.182727 283.030289 
L 255.816818 284.003839 
L 256.450909 281.632153 
L 257.085 283.599391 
L 257.719091 283.766926 
L 258.353182 282.137355 
L 258.987273 282.442953 
L 259.621364 284.742154 
L 260.255455 281.22589 
L 260.889545 280.260517 
L 262.157727 283.17503 
L 262.791818 278.936888 
L 263.425909 277.548314 
L 264.06 277.642763 
L 264.694091 277.469529 
L 265.328182 279.528211 
L 265.962273 280.902801 
L 266.596364 278.008468 
L 267.230455 276.039569 
L 267.864545 279.295733 
L 268.498636 279.685924 
L 269.132727 276.980407 
L 269.766818 276.651279 
L 270.400909 275.372047 
L 271.035 273.785911 
L 271.669091 270.951605 
L 272.303182 270.991546 
L 272.937273 276.718493 
L 273.571364 280.071356 
L 274.839545 271.319876 
L 275.473636 271.574078 
L 276.107727 272.89942 
L 276.741818 273.310645 
L 277.375909 274.346341 
L 278.01 269.729991 
L 278.644091 269.684627 
L 279.278182 267.595783 
L 279.912273 269.490577 
L 280.546364 267.598837 
L 281.180455 262.872417 
L 281.814545 265.529704 
L 282.448636 263.983785 
L 283.082727 256.854247 
L 283.716818 256.682986 
L 284.350909 254.242258 
L 284.985 255.871273 
L 285.619091 256.353695 
L 286.253182 257.310251 
L 286.887273 260.319928 
L 288.789545 232.983013 
L 289.423636 227.642535 
L 290.057727 229.072285 
L 290.691818 231.21311 
L 291.325909 235.026573 
L 291.96 235.556447 
L 292.594091 222.509211 
L 293.228182 218.312911 
L 293.862273 220.805627 
L 294.496364 207.203852 
L 295.130455 197.158902 
L 295.764545 193.95809 
L 296.398636 203.63298 
L 297.032727 199.427007 
L 297.666818 203.701375 
L 298.300909 202.352649 
L 298.935 193.729034 
L 299.569091 192.388641 
L 300.203182 185.893098 
L 300.837273 190.706255 
L 301.471364 196.57336 
L 302.105455 194.048166 
L 302.739545 175.22296 
L 303.373636 185.969295 
L 304.007727 189.974426 
L 304.641818 196.962878 
L 305.275909 193.623083 
L 305.91 188.46178 
L 306.544091 187.354846 
L 307.178182 168.439778 
L 307.812273 164.060946 
L 308.446364 167.65607 
L 309.080455 172.228723 
L 309.714545 159.057745 
L 310.348636 138.372021 
L 310.982727 150.860451 
L 311.616818 160.435841 
L 312.250909 154.281924 
L 312.885 157.237006 
L 313.519091 157.273462 
L 314.787273 101.233031 
L 315.421364 90.221046 
L 316.055455 83.888448 
L 316.689545 83.727339 
L 317.323636 65.926322 
L 317.957727 70.004471 
L 318.591818 79.952921 
L 319.225909 53.568 
L 319.86 70.305717 
L 320.494091 117.875311 
L 321.128182 118.962536 
L 321.762273 121.508499 
L 322.396364 145.99126 
L 323.030455 144.63547 
L 323.664545 155.602033 
L 324.298636 175.830409 
L 324.932727 185.677641 
L 325.566818 199.557833 
L 326.200909 217.051517 
L 326.835 229.782791 
L 328.103182 214.739075 
L 329.371364 229.097304 
L 330.005455 225.353355 
L 330.639545 226.001105 
L 331.273636 228.726085 
L 331.907727 223.67118 
L 332.541818 234.674294 
L 333.175909 231.915093 
L 333.81 223.978461 
L 334.444091 227.083856 
L 335.712273 244.902445 
L 336.346364 242.878574 
L 336.980455 249.651527 
L 337.614545 248.606029 
L 338.248636 245.771157 
L 338.882727 246.055397 
L 339.516818 254.369978 
L 340.150909 252.998328 
L 340.785 254.611523 
L 341.419091 249.373046 
L 342.053182 248.686663 
L 342.687273 256.548188 
L 343.321364 254.921329 
L 343.955455 254.524865 
L 344.589545 256.446855 
L 345.223636 257.562145 
L 345.857727 257.268968 
L 347.125909 258.831478 
L 347.76 256.597782 
L 348.394091 258.318392 
L 349.028182 253.997749 
L 349.662273 255.529057 
L 350.296364 258.88989 
L 350.930455 260.090552 
L 351.564545 266.231413 
L 352.198636 264.807719 
L 352.832727 261.664964 
L 353.466818 261.310979 
L 354.100909 261.777773 
L 354.735 262.863855 
L 355.369091 264.593212 
L 356.003182 261.024022 
L 356.637273 259.273028 
L 357.271364 258.666213 
L 357.905455 267.028734 
L 358.539545 270.356815 
L 359.173636 265.710592 
L 359.807727 262.917871 
L 360.441818 263.590339 
L 361.075909 263.653316 
L 361.71 265.47791 
L 362.344091 262.977601 
L 362.978182 264.625124 
L 363.612273 261.217207 
L 364.246364 261.799437 
L 364.880455 268.726876 
L 365.514545 268.159303 
L 366.148636 263.790808 
L 366.782727 261.601635 
L 367.416818 258.312519 
L 368.050909 252.904512 
L 368.685 256.628668 
L 369.319091 252.648944 
L 369.953182 253.378215 
L 370.587273 258.259202 
L 371.221364 261.380289 
L 371.855455 253.67739 
L 372.489545 250.909902 
L 373.123636 256.428398 
L 373.757727 258.412518 
L 374.391818 258.987778 
L 375.025909 257.787001 
L 375.66 257.926546 
L 376.294091 263.831504 
L 376.928182 260.405585 
L 377.562273 252.023122 
L 378.196364 252.034828 
L 378.830455 252.42154 
L 379.464545 257.66708 
L 380.098636 257.723123 
L 380.732727 251.025989 
L 381.366818 250.950474 
L 382.000909 248.570927 
L 382.635 247.213183 
L 383.269091 250.558265 
L 383.903182 246.702923 
L 384.537273 239.527741 
L 385.171364 243.519498 
L 385.805455 246.676832 
L 386.439545 239.795077 
L 387.073636 235.831456 
L 387.707727 242.252057 
L 388.341818 246.990356 
L 388.975909 249.064181 
L 389.61 243.019518 
L 390.244091 226.533442 
L 390.878182 229.015286 
L 391.512273 229.637157 
L 392.146364 225.081229 
L 392.780455 226.521255 
L 393.414545 230.949123 
L 394.048636 230.589366 
L 394.682727 229.46435 
L 395.316818 220.571943 
L 395.950909 230.415805 
L 396.585 229.59516 
L 397.219091 224.961529 
L 397.853182 225.18471 
L 398.487273 249.061052 
L 398.487273 249.061052 
" clip-path="url(#pc1f10a9f37)" style="fill: none; stroke: #2ca02c; stroke-width: 1.5; stroke-linecap: square"/>
   </g>
   <g id="patch_3">
    <path d="M 57.6 307.584 
L 57.6 41.472 
" style="fill: none; stroke: #000000; stroke-width: 0.8; stroke-linejoin: miter; stroke-linecap: square"/>
   </g>
   <g id="patch_4">
    <path d="M 414.72 307.584 
L 414.72 41.472 
" style="fill: none; stroke: #000000; stroke-width: 0.8; stroke-linejoin: miter; stroke-linecap: square"/>
   </g>
   <g id="patch_5">
    <path d="M 57.6 307.584 
L 414.72 307.584 
" style="fill: none; stroke: #000000; stroke-width: 0.8; stroke-linejoin: miter; stroke-linecap: square"/>
   </g>
   <g id="patch_6">
    <path d="M 57.6 41.472 
L 414.72 41.472 
" style="fill: none; stroke: #000000; stroke-width: 0.8; stroke-linejoin: miter; stroke-linecap: square"/>
   </g>
   <g id="text_18">
    <!-- Accelerometer Power Spectral Density -->
    <g transform="translate(121.022813 35.472) scale(0.12 -0.12)">
     <defs>
      <path id="DejaVuSans-41" d="M 2188 4044 
L 1331 1722 
L 3047 1722 
L 2188 4044 
z
M 1831 4666 
L 2547 4666 
L 4325 0 
L 3669 0 
L 3244 1197 
L 1141 1197 
L 716 0 
L 50 0 
L 1831 4666 
z
" transform="scale(0.015625)"/>
      <path id="DejaVuSans-6f" d="M 1959 3097 
Q 1497 3097 1228 2736 
Q 959 2375 959 1747 
Q 959 1119 1226 758 
Q 1494 397 1959 397 
Q 2419 397 2687 759 
Q 2956 1122 2956 1747 
Q 2956 2369 2687 2733 
Q 2419 3097 1959 3097 
z
M 1959 3584 
Q 2709 3584 3137 3096 
Q 3566 2609 3566 1747 
Q 3566 888 3137 398 
Q 2709 -91 1959 -91 
Q 1206 -91 779 398 
Q 353 888 353 1747 
Q 353 2609 779 3096 
Q 1206 3584 1959 3584 
z
" transform="scale(0.015625)"/>
      <path id="DejaVuSans-6d" d="M 3328 2828 
Q 3544 3216 3844 3400 
Q 4144 3584 4550 3584 
Q 5097 3584 5394 3201 
Q 5691 2819 5691 2113 
L 5691 0 
L 5113 0 
L 5113 2094 
Q 5113 2597 4934 2840 
Q 4756 3084 4391 3084 
Q 3944 3084 3684 2787 
Q 3425 2491 3425 1978 
L 3425 0 
L 2847 0 
L 2847 2094 
Q 2847 2600 2669 2842 
Q 2491 3084 2119 3084 
Q 1678 3084 1418 2786 
Q 1159 2488 1159 1978 
L 1159 0 
L 581 0 
L 581 3500 
L 1159 3500 
L 1159 2956 
Q 1356 3278 1631 3431 
Q 1906 3584 2284 3584 
Q 2666 3584 2933 3390 
Q 3200 3197 3328 2828 
z
" transform="scale(0.015625)"/>
      <path id="DejaVuSans-50" d="M 1259 4147 
L 1259 2394 
L 2053 2394 
Q 2494 2394 2734 2622 
Q 2975 2850 2975 3272 
Q 2975 3691 2734 3919 
Q 2494 4147 2053 4147 
L 1259 4147 
z
M 628 4666 
L 2053 4666 
Q 2838 4666 3239 4311 
Q 3641 3956 3641 3272 
Q 3641 2581 3239 2228 
Q 2838 1875 2053 1875 
L 1259 1875 
L 1259 0 
L 628 0 
L 628 4666 
z
" transform="scale(0.015625)"/>
      <path id="DejaVuSans-77" d="M 269 3500 
L 844 3500 
L 1563 769 
L 2278 3500 
L 2956 3500 
L 3675 769 
L 4391 3500 
L 4966 3500 
L 4050 0 
L 3372 0 
L 2619 2869 
L 1863 0 
L 1184 0 
L 269 3500 
z
" transform="scale(0.015625)"/>
     </defs>
     <use xlink:href="#DejaVuSans-41"/>
     <use xlink:href="#DejaVuSans-63" x="66.658203"/>
     <use xlink:href="#DejaVuSans-63" x="121.638672"/>
     <use xlink:href="#DejaVuSans-65" x="176.619141"/>
     <use xlink:href="#DejaVuSans-6c" x="238.142578"/>
     <use xlink:href="#DejaVuSans-65" x="265.925781"/>
     <use xlink:href="#DejaVuSans-72" x="327.449219"/>
     <use xlink:href="#DejaVuSans-6f" x="366.3125"/>
     <use xlink:href="#DejaVuSans-6d" x="427.494141"/>
     <use xlink:href="#DejaVuSans-65" x="524.90625"/>
     <use xlink:href="#DejaVuSans-74" x="586.429688"/>
     <use xlink:href="#DejaVuSans-65" x="625.638672"/>
     <use xlink:href="#DejaVuSans-72" x="687.162109"/>
     <use xlink:href="#DejaVuSans-20" x="728.275391"/>
     <use xlink:href="#DejaVuSans-50" x="760.0625"/>
     <use xlink:href="#DejaVuSans-6f" x="816.740234"/>
     <use xlink:href="#DejaVuSans-77" x="877.921875"/>
     <use xlink:href="#DejaVuSans-65" x="959.708984"/>
     <use xlink:href="#DejaVuSans-72" x="1021.232422"/>
     <use xlink:href="#DejaVuSans-20" x="1062.345703"/>
     <use xlink:href="#DejaVuSans-53" x="1094.132812"/>
     <use xlink:href="#DejaVuSans-70" x="1157.609375"/>
     <use xlink:href="#DejaVuSans-65" x="1221.085938"/>
     <use xlink:href="#DejaVuSans-63" x="1282.609375"/>
     <use xlink:href="#DejaVuSans-74" x="1337.589844"/>
     <use xlink:href="#DejaVuSans-72" x="1376.798828"/>
     <use xlink:href="#DejaVuSans-61" x="1417.912109"/>
     <use xlink:href="#DejaVuSans-6c" x="1479.191406"/>
     <use xlink:href="#DejaVuSans-20" x="1506.974609"/>
     <use xlink:href="#DejaVuSans-44" x="1538.761719"/>
     <use xlink:href="#DejaVuSans-65" x="1615.763672"/>
     <use xlink:href="#DejaVuSans-6e" x="1677.287109"/>
     <use xlink:href="#DejaVuSans-73" x="1740.666016"/>
     <use xlink:href="#DejaVuSans-69" x="1792.765625"/>
     <use xlink:href="#DejaVuSans-74" x="1820.548828"/>
     <use xlink:href="#DejaVuSans-79" x="1859.757812"/>
    </g>
   </g>
   <g id="legend_1">
    <g id="patch_7">
     <path d="M 363.673125 93.506375 
L 407.72 93.506375 
Q 409.72 93.506375 409.72 91.506375 
L 409.72 48.472 
Q 409.72 46.472 407.72 46.472 
L 363.673125 46.472 
Q 361.673125 46.472 361.673125 48.472 
L 361.673125 91.506375 
Q 361.673125 93.506375 363.673125 93.506375 
z
" style="fill: #ffffff; opacity: 0.8; stroke: #cccccc; stroke-linejoin: miter"/>
    </g>
    <g id="line2d_34">
     <path d="M 365.673125 54.570438 
L 375.673125 54.570438 
L 385.673125 54.570438 
" style="fill: none; stroke: #1f77b4; stroke-width: 1.5; stroke-linecap: square"/>
    </g>
    <g id="text_19">
     <!-- ax -->
     <g transform="translate(393.673125 58.070438) scale(0.1 -0.1)">
      <defs>
       <path id="DejaVuSans-78" d="M 3513 3500 
L 2247 1797 
L 3578 0 
L 2900 0 
L 1881 1375 
L 863 0 
L 184 0 
L 1544 1831 
L 300 3500 
L 978 3500 
L 1906 2253 
L 2834 3500 
L 3513 3500 
z
" transform="scale(0.015625)"/>
      </defs>
      <use xlink:href="#DejaVuSans-61"/>
      <use xlink:href="#DejaVuSans-78" x="61.279297"/>
     </g>
    </g>
    <g id="line2d_35">
     <path d="M 365.673125 69.248563 
L 375.673125 69.248563 
L 385.673125 69.248563 
" style="fill: none; stroke: #ff7f0e; stroke-width: 1.5; stroke-linecap: square"/>
    </g>
    <g id="text_20">
     <!-- ay -->
     <g transform="translate(393.673125 72.748563) scale(0.1 -0.1)">
      <use xlink:href="#DejaVuSans-61"/>
      <use xlink:href="#DejaVuSans-79" x="61.279297"/>
     </g>
    </g>
    <g id="line2d_36">
     <path d="M 365.673125 83.926688 
L 375.673125 83.926688 
L 385.673125 83.926688 
" style="fill: none; stroke: #2ca02c; stroke-width: 1.5; stroke-linecap: square"/>
    </g>
    <g id="text_21">
     <!-- az -->
     <g transform="translate(393.673125 87.426688) scale(0.1 -0.1)">
      <use xlink:href="#DejaVuSans-61"/>
      <use xlink:href="#DejaVuSans-7a" x="61.279297"/>
     </g>
    </g>
   </g>
  </g>
 </g>
 <defs>
  <clipPath id="pc1f10a9f37">
   <rect x="57.6" y="41.472" width="357.12" height="266.112"/>
  </clipPath>
 </defs>
</svg>
