<?xml version="1.0" encoding="utf-8" standalone="no"?>
<!DOCTYPE svg PUBLIC "-//W3C//DTD SVG 1.1//EN"
  "http://www.w3.org/Graphics/SVG/1.1/DTD/svg11.dtd">
<svg xmlns:xlink="http://www.w3.org/1999/xlink" width="460.8pt" height="345.6pt" viewBox="0 0 460.8 345.6" xmlns="http://www.w3.org/2000/svg" version="1.1">
 <metadata>
  <rdf:RDF xmlns:dc="http://purl.org/dc/elements/1.1/" xmlns:cc="http://creativecommons.org/ns#" xmlns:rdf="http://www.w3.org/1999/02/22-rdf-syntax-ns#">
   <cc:Work>
    <dc:type rdf:resource="http://purl.org/dc/dcmitype/StillImage"/>
    <dc:date>2024-06-27T11:39:29.102919</dc:date>
    <dc:format>image/svg+xml</dc:format>
    <dc:creator>
     <cc:Agent>
      <dc:title>Matplotlib v3.9.0, https://matplotlib.org/</dc:title>
     </cc:Agent>
    </dc:creator>
   </cc:Work>
  </rdf:RDF>
 </metadata>
 <defs>
  <style type="text/css">*{stroke-linejoin: round; stroke-linecap: butt}</style>
 </defs>
 <g id="figure_1">
  <g id="patch_1">
   <path d="M 0 345.6 
L 460.8 345.6 
L 460.8 0 
L 0 0 
z
" style="fill: #ffffff"/>
  </g>
  <g id="axes_1">
   <g id="patch_2">
    <path d="M 57.6 307.584 
L 414.72 307.584 
L 414.72 41.472 
L 57.6 41.472 
z
" style="fill: #ffffff"/>
   </g>
   <g id="matplotlib.axis_1">
    <g id="xtick_1">
     <g id="line2d_1">
      <path d="M 73.832727 307.584 
L 73.832727 41.472 
" clip-path="url(#p2d97113df5)" style="fill: none; stroke: #b0b0b0; stroke-width: 0.8; stroke-linecap: square"/>
     </g>
     <g id="line2d_2">
      <defs>
       <path id="m3259e7afab" d="M 0 0 
L 0 3.5 
" style="stroke: #000000; stroke-width: 0.8"/>
      </defs>
      <g>
       <use xlink:href="#m3259e7afab" x="73.832727" y="307.584" style="stroke: #000000; stroke-width: 0.8"/>
      </g>
     </g>
     <g id="text_1">
      <!-- 0 -->
      <g transform="translate(70.651477 322.182437) scale(0.1 -0.1)">
       <defs>
        <path id="DejaVuSans-30" d="M 2034 4250 
Q 1547 4250 1301 3770 
Q 1056 3291 1056 2328 
Q 1056 1369 1301 889 
Q 1547 409 2034 409 
Q 2525 409 2770 889 
Q 3016 1369 3016 2328 
Q 3016 3291 2770 3770 
Q 2525 4250 2034 4250 
z
M 2034 4750 
Q 2819 4750 3233 4129 
Q 3647 3509 3647 2328 
Q 3647 1150 3233 529 
Q 2819 -91 2034 -91 
Q 1250 -91 836 529 
Q 422 1150 422 2328 
Q 422 3509 836 4129 
Q 1250 4750 2034 4750 
z
" transform="scale(0.015625)"/>
       </defs>
       <use xlink:href="#DejaVuSans-30"/>
      </g>
     </g>
    </g>
    <g id="xtick_2">
     <g id="line2d_3">
      <path d="M 138.763636 307.584 
L 138.763636 41.472 
" clip-path="url(#p2d97113df5)" style="fill: none; stroke: #b0b0b0; stroke-width: 0.8; stroke-linecap: square"/>
     </g>
     <g id="line2d_4">
      <g>
       <use xlink:href="#m3259e7afab" x="138.763636" y="307.584" style="stroke: #000000; stroke-width: 0.8"/>
      </g>
     </g>
     <g id="text_2">
      <!-- 20 -->
      <g transform="translate(132.401136 322.182437) scale(0.1 -0.1)">
       <defs>
        <path id="DejaVuSans-32" d="M 1228 531 
L 3431 531 
L 3431 0 
L 469 0 
L 469 531 
Q 828 903 1448 1529 
Q 2069 2156 2228 2338 
Q 2531 2678 2651 2914 
Q 2772 3150 2772 3378 
Q 2772 3750 2511 3984 
Q 2250 4219 1831 4219 
Q 1534 4219 1204 4116 
Q 875 4013 500 3803 
L 500 4441 
Q 881 4594 1212 4672 
Q 1544 4750 1819 4750 
Q 2544 4750 2975 4387 
Q 3406 4025 3406 3419 
Q 3406 3131 3298 2873 
Q 3191 2616 2906 2266 
Q 2828 2175 2409 1742 
Q 1991 1309 1228 531 
z
" transform="scale(0.015625)"/>
       </defs>
       <use xlink:href="#DejaVuSans-32"/>
       <use xlink:href="#DejaVuSans-30" x="63.623047"/>
      </g>
     </g>
    </g>
    <g id="xtick_3">
     <g id="line2d_5">
      <path d="M 203.694545 307.584 
L 203.694545 41.472 
" clip-path="url(#p2d97113df5)" style="fill: none; stroke: #b0b0b0; stroke-width: 0.8; stroke-linecap: square"/>
     </g>
     <g id="line2d_6">
      <g>
       <use xlink:href="#m3259e7afab" x="203.694545" y="307.584" style="stroke: #000000; stroke-width: 0.8"/>
      </g>
     </g>
     <g id="text_3">
      <!-- 40 -->
      <g transform="translate(197.332045 322.182437) scale(0.1 -0.1)">
       <defs>
        <path id="DejaVuSans-34" d="M 2419 4116 
L 825 1625 
L 2419 1625 
L 2419 4116 
z
M 2253 4666 
L 3047 4666 
L 3047 1625 
L 3713 1625 
L 3713 1100 
L 3047 1100 
L 3047 0 
L 2419 0 
L 2419 1100 
L 313 1100 
L 313 1709 
L 2253 4666 
z
" transform="scale(0.015625)"/>
       </defs>
       <use xlink:href="#DejaVuSans-34"/>
       <use xlink:href="#DejaVuSans-30" x="63.623047"/>
      </g>
     </g>
    </g>
    <g id="xtick_4">
     <g id="line2d_7">
      <path d="M 268.625455 307.584 
L 268.625455 41.472 
" clip-path="url(#p2d97113df5)" style="fill: none; stroke: #b0b0b0; stroke-width: 0.8; stroke-linecap: square"/>
     </g>
     <g id="line2d_8">
      <g>
       <use xlink:href="#m3259e7afab" x="268.625455" y="307.584" style="stroke: #000000; stroke-width: 0.8"/>
      </g>
     </g>
     <g id="text_4">
      <!-- 60 -->
      <g transform="translate(262.262955 322.182437) scale(0.1 -0.1)">
       <defs>
        <path id="DejaVuSans-36" d="M 2113 2584 
Q 1688 2584 1439 2293 
Q 1191 2003 1191 1497 
Q 1191 994 1439 701 
Q 1688 409 2113 409 
Q 2538 409 2786 701 
Q 3034 994 3034 1497 
Q 3034 2003 2786 2293 
Q 2538 2584 2113 2584 
z
M 3366 4563 
L 3366 3988 
Q 3128 4100 2886 4159 
Q 2644 4219 2406 4219 
Q 1781 4219 1451 3797 
Q 1122 3375 1075 2522 
Q 1259 2794 1537 2939 
Q 1816 3084 2150 3084 
Q 2853 3084 3261 2657 
Q 3669 2231 3669 1497 
Q 3669 778 3244 343 
Q 2819 -91 2113 -91 
Q 1303 -91 875 529 
Q 447 1150 447 2328 
Q 447 3434 972 4092 
Q 1497 4750 2381 4750 
Q 2619 4750 2861 4703 
Q 3103 4656 3366 4563 
z
" transform="scale(0.015625)"/>
       </defs>
       <use xlink:href="#DejaVuSans-36"/>
       <use xlink:href="#DejaVuSans-30" x="63.623047"/>
      </g>
     </g>
    </g>
    <g id="xtick_5">
     <g id="line2d_9">
      <path d="M 333.556364 307.584 
L 333.556364 41.472 
" clip-path="url(#p2d97113df5)" style="fill: none; stroke: #b0b0b0; stroke-width: 0.8; stroke-linecap: square"/>
     </g>
     <g id="line2d_10">
      <g>
       <use xlink:href="#m3259e7afab" x="333.556364" y="307.584" style="stroke: #000000; stroke-width: 0.8"/>
      </g>
     </g>
     <g id="text_5">
      <!-- 80 -->
      <g transform="translate(327.193864 322.182437) scale(0.1 -0.1)">
       <defs>
        <path id="DejaVuSans-38" d="M 2034 2216 
Q 1584 2216 1326 1975 
Q 1069 1734 1069 1313 
Q 1069 891 1326 650 
Q 1584 409 2034 409 
Q 2484 409 2743 651 
Q 3003 894 3003 1313 
Q 3003 1734 2745 1975 
Q 2488 2216 2034 2216 
z
M 1403 2484 
Q 997 2584 770 2862 
Q 544 3141 544 3541 
Q 544 4100 942 4425 
Q 1341 4750 2034 4750 
Q 2731 4750 3128 4425 
Q 3525 4100 3525 3541 
Q 3525 3141 3298 2862 
Q 3072 2584 2669 2484 
Q 3125 2378 3379 2068 
Q 3634 1759 3634 1313 
Q 3634 634 3220 271 
Q 2806 -91 2034 -91 
Q 1263 -91 848 271 
Q 434 634 434 1313 
Q 434 1759 690 2068 
Q 947 2378 1403 2484 
z
M 1172 3481 
Q 1172 3119 1398 2916 
Q 1625 2713 2034 2713 
Q 2441 2713 2670 2916 
Q 2900 3119 2900 3481 
Q 2900 3844 2670 4047 
Q 2441 4250 2034 4250 
Q 1625 4250 1398 4047 
Q 1172 3844 1172 3481 
z
" transform="scale(0.015625)"/>
       </defs>
       <use xlink:href="#DejaVuSans-38"/>
       <use xlink:href="#DejaVuSans-30" x="63.623047"/>
      </g>
     </g>
    </g>
    <g id="xtick_6">
     <g id="line2d_11">
      <path d="M 398.487273 307.584 
L 398.487273 41.472 
" clip-path="url(#p2d97113df5)" style="fill: none; stroke: #b0b0b0; stroke-width: 0.8; stroke-linecap: square"/>
     </g>
     <g id="line2d_12">
      <g>
       <use xlink:href="#m3259e7afab" x="398.487273" y="307.584" style="stroke: #000000; stroke-width: 0.8"/>
      </g>
     </g>
     <g id="text_6">
      <!-- 100 -->
      <g transform="translate(388.943523 322.182437) scale(0.1 -0.1)">
       <defs>
        <path id="DejaVuSans-31" d="M 794 531 
L 1825 531 
L 1825 4091 
L 703 3866 
L 703 4441 
L 1819 4666 
L 2450 4666 
L 2450 531 
L 3481 531 
L 3481 0 
L 794 0 
L 794 531 
z
" transform="scale(0.015625)"/>
       </defs>
       <use xlink:href="#DejaVuSans-31"/>
       <use xlink:href="#DejaVuSans-30" x="63.623047"/>
       <use xlink:href="#DejaVuSans-30" x="127.246094"/>
      </g>
     </g>
    </g>
    <g id="text_7">
     <!-- Frequency [Hz] -->
     <g transform="translate(198.455312 335.860562) scale(0.1 -0.1)">
      <defs>
       <path id="DejaVuSans-46" d="M 628 4666 
L 3309 4666 
L 3309 4134 
L 1259 4134 
L 1259 2759 
L 3109 2759 
L 3109 2228 
L 1259 2228 
L 1259 0 
L 628 0 
L 628 4666 
z
" transform="scale(0.015625)"/>
       <path id="DejaVuSans-72" d="M 2631 2963 
Q 2534 3019 2420 3045 
Q 2306 3072 2169 3072 
Q 1681 3072 1420 2755 
Q 1159 2438 1159 1844 
L 1159 0 
L 581 0 
L 581 3500 
L 1159 3500 
L 1159 2956 
Q 1341 3275 1631 3429 
Q 1922 3584 2338 3584 
Q 2397 3584 2469 3576 
Q 2541 3569 2628 3553 
L 2631 2963 
z
" transform="scale(0.015625)"/>
       <path id="DejaVuSans-65" d="M 3597 1894 
L 3597 1613 
L 953 1613 
Q 991 1019 1311 708 
Q 1631 397 2203 397 
Q 2534 397 2845 478 
Q 3156 559 3463 722 
L 3463 178 
Q 3153 47 2828 -22 
Q 2503 -91 2169 -91 
Q 1331 -91 842 396 
Q 353 884 353 1716 
Q 353 2575 817 3079 
Q 1281 3584 2069 3584 
Q 2775 3584 3186 3129 
Q 3597 2675 3597 1894 
z
M 3022 2063 
Q 3016 2534 2758 2815 
Q 2500 3097 2075 3097 
Q 1594 3097 1305 2825 
Q 1016 2553 972 2059 
L 3022 2063 
z
" transform="scale(0.015625)"/>
       <path id="DejaVuSans-71" d="M 947 1747 
Q 947 1113 1208 752 
Q 1469 391 1925 391 
Q 2381 391 2643 752 
Q 2906 1113 2906 1747 
Q 2906 2381 2643 2742 
Q 2381 3103 1925 3103 
Q 1469 3103 1208 2742 
Q 947 2381 947 1747 
z
M 2906 525 
Q 2725 213 2448 61 
Q 2172 -91 1784 -91 
Q 1150 -91 751 415 
Q 353 922 353 1747 
Q 353 2572 751 3078 
Q 1150 3584 1784 3584 
Q 2172 3584 2448 3432 
Q 2725 3281 2906 2969 
L 2906 3500 
L 3481 3500 
L 3481 -1331 
L 2906 -1331 
L 2906 525 
z
" transform="scale(0.015625)"/>
       <path id="DejaVuSans-75" d="M 544 1381 
L 544 3500 
L 1119 3500 
L 1119 1403 
Q 1119 906 1312 657 
Q 1506 409 1894 409 
Q 2359 409 2629 706 
Q 2900 1003 2900 1516 
L 2900 3500 
L 3475 3500 
L 3475 0 
L 2900 0 
L 2900 538 
Q 2691 219 2414 64 
Q 2138 -91 1772 -91 
Q 1169 -91 856 284 
Q 544 659 544 1381 
z
M 1991 3584 
L 1991 3584 
z
" transform="scale(0.015625)"/>
       <path id="DejaVuSans-6e" d="M 3513 2113 
L 3513 0 
L 2938 0 
L 2938 2094 
Q 2938 2591 2744 2837 
Q 2550 3084 2163 3084 
Q 1697 3084 1428 2787 
Q 1159 2491 1159 1978 
L 1159 0 
L 581 0 
L 581 3500 
L 1159 3500 
L 1159 2956 
Q 1366 3272 1645 3428 
Q 1925 3584 2291 3584 
Q 2894 3584 3203 3211 
Q 3513 2838 3513 2113 
z
" transform="scale(0.015625)"/>
       <path id="DejaVuSans-63" d="M 3122 3366 
L 3122 2828 
Q 2878 2963 2633 3030 
Q 2388 3097 2138 3097 
Q 1578 3097 1268 2742 
Q 959 2388 959 1747 
Q 959 1106 1268 751 
Q 1578 397 2138 397 
Q 2388 397 2633 464 
Q 2878 531 3122 666 
L 3122 134 
Q 2881 22 2623 -34 
Q 2366 -91 2075 -91 
Q 1284 -91 818 406 
Q 353 903 353 1747 
Q 353 2603 823 3093 
Q 1294 3584 2113 3584 
Q 2378 3584 2631 3529 
Q 2884 3475 3122 3366 
z
" transform="scale(0.015625)"/>
       <path id="DejaVuSans-79" d="M 2059 -325 
Q 1816 -950 1584 -1140 
Q 1353 -1331 966 -1331 
L 506 -1331 
L 506 -850 
L 844 -850 
Q 1081 -850 1212 -737 
Q 1344 -625 1503 -206 
L 1606 56 
L 191 3500 
L 800 3500 
L 1894 763 
L 2988 3500 
L 3597 3500 
L 2059 -325 
z
" transform="scale(0.015625)"/>
       <path id="DejaVuSans-20" transform="scale(0.015625)"/>
       <path id="DejaVuSans-5b" d="M 550 4863 
L 1875 4863 
L 1875 4416 
L 1125 4416 
L 1125 -397 
L 1875 -397 
L 1875 -844 
L 550 -844 
L 550 4863 
z
" transform="scale(0.015625)"/>
       <path id="DejaVuSans-48" d="M 628 4666 
L 1259 4666 
L 1259 2753 
L 3553 2753 
L 3553 4666 
L 4184 4666 
L 4184 0 
L 3553 0 
L 3553 2222 
L 1259 2222 
L 1259 0 
L 628 0 
L 628 4666 
z
" transform="scale(0.015625)"/>
       <path id="DejaVuSans-7a" d="M 353 3500 
L 3084 3500 
L 3084 2975 
L 922 459 
L 3084 459 
L 3084 0 
L 275 0 
L 275 525 
L 2438 3041 
L 353 3041 
L 353 3500 
z
" transform="scale(0.015625)"/>
       <path id="DejaVuSans-5d" d="M 1947 4863 
L 1947 -844 
L 622 -844 
L 622 -397 
L 1369 -397 
L 1369 4416 
L 622 4416 
L 622 4863 
L 1947 4863 
z
" transform="scale(0.015625)"/>
      </defs>
      <use xlink:href="#DejaVuSans-46"/>
      <use xlink:href="#DejaVuSans-72" x="50.269531"/>
      <use xlink:href="#DejaVuSans-65" x="89.132812"/>
      <use xlink:href="#DejaVuSans-71" x="150.65625"/>
      <use xlink:href="#DejaVuSans-75" x="214.132812"/>
      <use xlink:href="#DejaVuSans-65" x="277.511719"/>
      <use xlink:href="#DejaVuSans-6e" x="339.035156"/>
      <use xlink:href="#DejaVuSans-63" x="402.414062"/>
      <use xlink:href="#DejaVuSans-79" x="457.394531"/>
      <use xlink:href="#DejaVuSans-20" x="516.574219"/>
      <use xlink:href="#DejaVuSans-5b" x="548.361328"/>
      <use xlink:href="#DejaVuSans-48" x="587.375"/>
      <use xlink:href="#DejaVuSans-7a" x="662.570312"/>
      <use xlink:href="#DejaVuSans-5d" x="715.060547"/>
     </g>
    </g>
   </g>
   <g id="matplotlib.axis_2">
    <g id="ytick_1">
     <g id="line2d_13">
      <path d="M 57.6 296.224531 
L 414.72 296.224531 
" clip-path="url(#p2d97113df5)" style="fill: none; stroke: #b0b0b0; stroke-width: 0.8; stroke-linecap: square"/>
     </g>
     <g id="line2d_14">
      <defs>
       <path id="m6427ee4d1a" d="M 0 0 
L -3.5 0 
" style="stroke: #000000; stroke-width: 0.8"/>
      </defs>
      <g>
       <use xlink:href="#m6427ee4d1a" x="57.6" y="296.224531" style="stroke: #000000; stroke-width: 0.8"/>
      </g>
     </g>
     <g id="text_8">
      <!-- 0.00 -->
      <g transform="translate(28.334375 300.02375) scale(0.1 -0.1)">
       <defs>
        <path id="DejaVuSans-2e" d="M 684 794 
L 1344 794 
L 1344 0 
L 684 0 
L 684 794 
z
" transform="scale(0.015625)"/>
       </defs>
       <use xlink:href="#DejaVuSans-30"/>
       <use xlink:href="#DejaVuSans-2e" x="63.623047"/>
       <use xlink:href="#DejaVuSans-30" x="95.410156"/>
       <use xlink:href="#DejaVuSans-30" x="159.033203"/>
      </g>
     </g>
    </g>
    <g id="ytick_2">
     <g id="line2d_15">
      <path d="M 57.6 264.847851 
L 414.72 264.847851 
" clip-path="url(#p2d97113df5)" style="fill: none; stroke: #b0b0b0; stroke-width: 0.8; stroke-linecap: square"/>
     </g>
     <g id="line2d_16">
      <g>
       <use xlink:href="#m6427ee4d1a" x="57.6" y="264.847851" style="stroke: #000000; stroke-width: 0.8"/>
      </g>
     </g>
     <g id="text_9">
      <!-- 0.25 -->
      <g transform="translate(28.334375 268.64707) scale(0.1 -0.1)">
       <defs>
        <path id="DejaVuSans-35" d="M 691 4666 
L 3169 4666 
L 3169 4134 
L 1269 4134 
L 1269 2991 
Q 1406 3038 1543 3061 
Q 1681 3084 1819 3084 
Q 2600 3084 3056 2656 
Q 3513 2228 3513 1497 
Q 3513 744 3044 326 
Q 2575 -91 1722 -91 
Q 1428 -91 1123 -41 
Q 819 9 494 109 
L 494 744 
Q 775 591 1075 516 
Q 1375 441 1709 441 
Q 2250 441 2565 725 
Q 2881 1009 2881 1497 
Q 2881 1984 2565 2268 
Q 2250 2553 1709 2553 
Q 1456 2553 1204 2497 
Q 953 2441 691 2322 
L 691 4666 
z
" transform="scale(0.015625)"/>
       </defs>
       <use xlink:href="#DejaVuSans-30"/>
       <use xlink:href="#DejaVuSans-2e" x="63.623047"/>
       <use xlink:href="#DejaVuSans-32" x="95.410156"/>
       <use xlink:href="#DejaVuSans-35" x="159.033203"/>
      </g>
     </g>
    </g>
    <g id="ytick_3">
     <g id="line2d_17">
      <path d="M 57.6 233.47117 
L 414.72 233.47117 
" clip-path="url(#p2d97113df5)" style="fill: none; stroke: #b0b0b0; stroke-width: 0.8; stroke-linecap: square"/>
     </g>
     <g id="line2d_18">
      <g>
       <use xlink:href="#m6427ee4d1a" x="57.6" y="233.47117" style="stroke: #000000; stroke-width: 0.8"/>
      </g>
     </g>
     <g id="text_10">
      <!-- 0.50 -->
      <g transform="translate(28.334375 237.270389) scale(0.1 -0.1)">
       <use xlink:href="#DejaVuSans-30"/>
       <use xlink:href="#DejaVuSans-2e" x="63.623047"/>
       <use xlink:href="#DejaVuSans-35" x="95.410156"/>
       <use xlink:href="#DejaVuSans-30" x="159.033203"/>
      </g>
     </g>
    </g>
    <g id="ytick_4">
     <g id="line2d_19">
      <path d="M 57.6 202.09449 
L 414.72 202.09449 
" clip-path="url(#p2d97113df5)" style="fill: none; stroke: #b0b0b0; stroke-width: 0.8; stroke-linecap: square"/>
     </g>
     <g id="line2d_20">
      <g>
       <use xlink:href="#m6427ee4d1a" x="57.6" y="202.09449" style="stroke: #000000; stroke-width: 0.8"/>
      </g>
     </g>
     <g id="text_11">
      <!-- 0.75 -->
      <g transform="translate(28.334375 205.893709) scale(0.1 -0.1)">
       <defs>
        <path id="DejaVuSans-37" d="M 525 4666 
L 3525 4666 
L 3525 4397 
L 1831 0 
L 1172 0 
L 2766 4134 
L 525 4134 
L 525 4666 
z
" transform="scale(0.015625)"/>
       </defs>
       <use xlink:href="#DejaVuSans-30"/>
       <use xlink:href="#DejaVuSans-2e" x="63.623047"/>
       <use xlink:href="#DejaVuSans-37" x="95.410156"/>
       <use xlink:href="#DejaVuSans-35" x="159.033203"/>
      </g>
     </g>
    </g>
    <g id="ytick_5">
     <g id="line2d_21">
      <path d="M 57.6 170.717809 
L 414.72 170.717809 
" clip-path="url(#p2d97113df5)" style="fill: none; stroke: #b0b0b0; stroke-width: 0.8; stroke-linecap: square"/>
     </g>
     <g id="line2d_22">
      <g>
       <use xlink:href="#m6427ee4d1a" x="57.6" y="170.717809" style="stroke: #000000; stroke-width: 0.8"/>
      </g>
     </g>
     <g id="text_12">
      <!-- 1.00 -->
      <g transform="translate(28.334375 174.517028) scale(0.1 -0.1)">
       <use xlink:href="#DejaVuSans-31"/>
       <use xlink:href="#DejaVuSans-2e" x="63.623047"/>
       <use xlink:href="#DejaVuSans-30" x="95.410156"/>
       <use xlink:href="#DejaVuSans-30" x="159.033203"/>
      </g>
     </g>
    </g>
    <g id="ytick_6">
     <g id="line2d_23">
      <path d="M 57.6 139.341129 
L 414.72 139.341129 
" clip-path="url(#p2d97113df5)" style="fill: none; stroke: #b0b0b0; stroke-width: 0.8; stroke-linecap: square"/>
     </g>
     <g id="line2d_24">
      <g>
       <use xlink:href="#m6427ee4d1a" x="57.6" y="139.341129" style="stroke: #000000; stroke-width: 0.8"/>
      </g>
     </g>
     <g id="text_13">
      <!-- 1.25 -->
      <g transform="translate(28.334375 143.140347) scale(0.1 -0.1)">
       <use xlink:href="#DejaVuSans-31"/>
       <use xlink:href="#DejaVuSans-2e" x="63.623047"/>
       <use xlink:href="#DejaVuSans-32" x="95.410156"/>
       <use xlink:href="#DejaVuSans-35" x="159.033203"/>
      </g>
     </g>
    </g>
    <g id="ytick_7">
     <g id="line2d_25">
      <path d="M 57.6 107.964448 
L 414.72 107.964448 
" clip-path="url(#p2d97113df5)" style="fill: none; stroke: #b0b0b0; stroke-width: 0.8; stroke-linecap: square"/>
     </g>
     <g id="line2d_26">
      <g>
       <use xlink:href="#m6427ee4d1a" x="57.6" y="107.964448" style="stroke: #000000; stroke-width: 0.8"/>
      </g>
     </g>
     <g id="text_14">
      <!-- 1.50 -->
      <g transform="translate(28.334375 111.763667) scale(0.1 -0.1)">
       <use xlink:href="#DejaVuSans-31"/>
       <use xlink:href="#DejaVuSans-2e" x="63.623047"/>
       <use xlink:href="#DejaVuSans-35" x="95.410156"/>
       <use xlink:href="#DejaVuSans-30" x="159.033203"/>
      </g>
     </g>
    </g>
    <g id="ytick_8">
     <g id="line2d_27">
      <path d="M 57.6 76.587768 
L 414.72 76.587768 
" clip-path="url(#p2d97113df5)" style="fill: none; stroke: #b0b0b0; stroke-width: 0.8; stroke-linecap: square"/>
     </g>
     <g id="line2d_28">
      <g>
       <use xlink:href="#m6427ee4d1a" x="57.6" y="76.587768" style="stroke: #000000; stroke-width: 0.8"/>
      </g>
     </g>
     <g id="text_15">
      <!-- 1.75 -->
      <g transform="translate(28.334375 80.386986) scale(0.1 -0.1)">
       <use xlink:href="#DejaVuSans-31"/>
       <use xlink:href="#DejaVuSans-2e" x="63.623047"/>
       <use xlink:href="#DejaVuSans-37" x="95.410156"/>
       <use xlink:href="#DejaVuSans-35" x="159.033203"/>
      </g>
     </g>
    </g>
    <g id="ytick_9">
     <g id="line2d_29">
      <path d="M 57.6 45.211087 
L 414.72 45.211087 
" clip-path="url(#p2d97113df5)" style="fill: none; stroke: #b0b0b0; stroke-width: 0.8; stroke-linecap: square"/>
     </g>
     <g id="line2d_30">
      <g>
       <use xlink:href="#m6427ee4d1a" x="57.6" y="45.211087" style="stroke: #000000; stroke-width: 0.8"/>
      </g>
     </g>
     <g id="text_16">
      <!-- 2.00 -->
      <g transform="translate(28.334375 49.010306) scale(0.1 -0.1)">
       <use xlink:href="#DejaVuSans-32"/>
       <use xlink:href="#DejaVuSans-2e" x="63.623047"/>
       <use xlink:href="#DejaVuSans-30" x="95.410156"/>
       <use xlink:href="#DejaVuSans-30" x="159.033203"/>
      </g>
     </g>
    </g>
    <g id="text_17">
     <!-- Spectral Density ($m/s²  / \sqrt{Hz}$) -->
     <g transform="translate(22.234375 244.728) rotate(-90) scale(0.1 -0.1)">
      <defs>
       <path id="DejaVuSans-53" d="M 3425 4513 
L 3425 3897 
Q 3066 4069 2747 4153 
Q 2428 4238 2131 4238 
Q 1616 4238 1336 4038 
Q 1056 3838 1056 3469 
Q 1056 3159 1242 3001 
Q 1428 2844 1947 2747 
L 2328 2669 
Q 3034 2534 3370 2195 
Q 3706 1856 3706 1288 
Q 3706 609 3251 259 
Q 2797 -91 1919 -91 
Q 1588 -91 1214 -16 
Q 841 59 441 206 
L 441 856 
Q 825 641 1194 531 
Q 1563 422 1919 422 
Q 2459 422 2753 634 
Q 3047 847 3047 1241 
Q 3047 1584 2836 1778 
Q 2625 1972 2144 2069 
L 1759 2144 
Q 1053 2284 737 2584 
Q 422 2884 422 3419 
Q 422 4038 858 4394 
Q 1294 4750 2059 4750 
Q 2388 4750 2728 4690 
Q 3069 4631 3425 4513 
z
" transform="scale(0.015625)"/>
       <path id="DejaVuSans-70" d="M 1159 525 
L 1159 -1331 
L 581 -1331 
L 581 3500 
L 1159 3500 
L 1159 2969 
Q 1341 3281 1617 3432 
Q 1894 3584 2278 3584 
Q 2916 3584 3314 3078 
Q 3713 2572 3713 1747 
Q 3713 922 3314 415 
Q 2916 -91 2278 -91 
Q 1894 -91 1617 61 
Q 1341 213 1159 525 
z
M 3116 1747 
Q 3116 2381 2855 2742 
Q 2594 3103 2138 3103 
Q 1681 3103 1420 2742 
Q 1159 2381 1159 1747 
Q 1159 1113 1420 752 
Q 1681 391 2138 391 
Q 2594 391 2855 752 
Q 3116 1113 3116 1747 
z
" transform="scale(0.015625)"/>
       <path id="DejaVuSans-74" d="M 1172 4494 
L 1172 3500 
L 2356 3500 
L 2356 3053 
L 1172 3053 
L 1172 1153 
Q 1172 725 1289 603 
Q 1406 481 1766 481 
L 2356 481 
L 2356 0 
L 1766 0 
Q 1100 0 847 248 
Q 594 497 594 1153 
L 594 3053 
L 172 3053 
L 172 3500 
L 594 3500 
L 594 4494 
L 1172 4494 
z
" transform="scale(0.015625)"/>
       <path id="DejaVuSans-61" d="M 2194 1759 
Q 1497 1759 1228 1600 
Q 959 1441 959 1056 
Q 959 750 1161 570 
Q 1363 391 1709 391 
Q 2188 391 2477 730 
Q 2766 1069 2766 1631 
L 2766 1759 
L 2194 1759 
z
M 3341 1997 
L 3341 0 
L 2766 0 
L 2766 531 
Q 2569 213 2275 61 
Q 1981 -91 1556 -91 
Q 1019 -91 701 211 
Q 384 513 384 1019 
Q 384 1609 779 1909 
Q 1175 2209 1959 2209 
L 2766 2209 
L 2766 2266 
Q 2766 2663 2505 2880 
Q 2244 3097 1772 3097 
Q 1472 3097 1187 3025 
Q 903 2953 641 2809 
L 641 3341 
Q 956 3463 1253 3523 
Q 1550 3584 1831 3584 
Q 2591 3584 2966 3190 
Q 3341 2797 3341 1997 
z
" transform="scale(0.015625)"/>
       <path id="DejaVuSans-6c" d="M 603 4863 
L 1178 4863 
L 1178 0 
L 603 0 
L 603 4863 
z
" transform="scale(0.015625)"/>
       <path id="DejaVuSans-44" d="M 1259 4147 
L 1259 519 
L 2022 519 
Q 2988 519 3436 956 
Q 3884 1394 3884 2338 
Q 3884 3275 3436 3711 
Q 2988 4147 2022 4147 
L 1259 4147 
z
M 628 4666 
L 1925 4666 
Q 3281 4666 3915 4102 
Q 4550 3538 4550 2338 
Q 4550 1131 3912 565 
Q 3275 0 1925 0 
L 628 0 
L 628 4666 
z
" transform="scale(0.015625)"/>
       <path id="DejaVuSans-73" d="M 2834 3397 
L 2834 2853 
Q 2591 2978 2328 3040 
Q 2066 3103 1784 3103 
Q 1356 3103 1142 2972 
Q 928 2841 928 2578 
Q 928 2378 1081 2264 
Q 1234 2150 1697 2047 
L 1894 2003 
Q 2506 1872 2764 1633 
Q 3022 1394 3022 966 
Q 3022 478 2636 193 
Q 2250 -91 1575 -91 
Q 1294 -91 989 -36 
Q 684 19 347 128 
L 347 722 
Q 666 556 975 473 
Q 1284 391 1588 391 
Q 1994 391 2212 530 
Q 2431 669 2431 922 
Q 2431 1156 2273 1281 
Q 2116 1406 1581 1522 
L 1381 1569 
Q 847 1681 609 1914 
Q 372 2147 372 2553 
Q 372 3047 722 3315 
Q 1072 3584 1716 3584 
Q 2034 3584 2315 3537 
Q 2597 3491 2834 3397 
z
" transform="scale(0.015625)"/>
       <path id="DejaVuSans-69" d="M 603 3500 
L 1178 3500 
L 1178 0 
L 603 0 
L 603 3500 
z
M 603 4863 
L 1178 4863 
L 1178 4134 
L 603 4134 
L 603 4863 
z
" transform="scale(0.015625)"/>
       <path id="DejaVuSans-28" d="M 1984 4856 
Q 1566 4138 1362 3434 
Q 1159 2731 1159 2009 
Q 1159 1288 1364 580 
Q 1569 -128 1984 -844 
L 1484 -844 
Q 1016 -109 783 600 
Q 550 1309 550 2009 
Q 550 2706 781 3412 
Q 1013 4119 1484 4856 
L 1984 4856 
z
" transform="scale(0.015625)"/>
       <path id="DejaVuSans-Oblique-6d" d="M 5747 2113 
L 5338 0 
L 4763 0 
L 5166 2094 
Q 5191 2228 5203 2325 
Q 5216 2422 5216 2491 
Q 5216 2772 5059 2928 
Q 4903 3084 4622 3084 
Q 4203 3084 3875 2770 
Q 3547 2456 3450 1953 
L 3066 0 
L 2491 0 
L 2900 2094 
Q 2925 2209 2937 2307 
Q 2950 2406 2950 2484 
Q 2950 2769 2794 2926 
Q 2638 3084 2363 3084 
Q 1938 3084 1609 2770 
Q 1281 2456 1184 1953 
L 800 0 
L 225 0 
L 909 3500 
L 1484 3500 
L 1375 2956 
Q 1609 3263 1923 3423 
Q 2238 3584 2597 3584 
Q 2978 3584 3223 3384 
Q 3469 3184 3519 2828 
Q 3781 3197 4126 3390 
Q 4472 3584 4856 3584 
Q 5306 3584 5551 3325 
Q 5797 3066 5797 2591 
Q 5797 2488 5784 2364 
Q 5772 2241 5747 2113 
z
" transform="scale(0.015625)"/>
       <path id="DejaVuSans-2f" d="M 1625 4666 
L 2156 4666 
L 531 -594 
L 0 -594 
L 1625 4666 
z
" transform="scale(0.015625)"/>
       <path id="DejaVuSans-Oblique-73" d="M 3200 3397 
L 3091 2853 
Q 2863 2978 2609 3040 
Q 2356 3103 2088 3103 
Q 1634 3103 1373 2948 
Q 1113 2794 1113 2528 
Q 1113 2219 1719 2053 
Q 1766 2041 1788 2034 
L 1972 1978 
Q 2547 1819 2739 1644 
Q 2931 1469 2931 1166 
Q 2931 609 2489 259 
Q 2047 -91 1331 -91 
Q 1053 -91 747 -37 
Q 441 16 72 128 
L 184 722 
Q 500 559 806 475 
Q 1113 391 1394 391 
Q 1816 391 2080 572 
Q 2344 753 2344 1031 
Q 2344 1331 1650 1516 
L 1591 1531 
L 1394 1581 
Q 956 1697 753 1886 
Q 550 2075 550 2369 
Q 550 2928 970 3256 
Q 1391 3584 2113 3584 
Q 2397 3584 2667 3537 
Q 2938 3491 3200 3397 
z
" transform="scale(0.015625)"/>
       <path id="DejaVuSans-b2" d="M 838 2444 
L 2163 2444 
L 2163 2088 
L 294 2088 
L 294 2431 
Q 400 2528 597 2703 
Q 1672 3656 1672 3950 
Q 1672 4156 1509 4282 
Q 1347 4409 1081 4409 
Q 919 4409 728 4354 
Q 538 4300 313 4191 
L 313 4575 
Q 553 4663 761 4706 
Q 969 4750 1147 4750 
Q 1600 4750 1872 4544 
Q 2144 4338 2144 4000 
Q 2144 3566 1109 2678 
Q 934 2528 838 2444 
z
" transform="scale(0.015625)"/>
       <path id="STIXSizeOneSym-Regular-221a" d="M 6970 9933 
L 3373 -1888 
L 3104 -1888 
L 1626 2918 
Q 1555 3149 1465 3251 
Q 1376 3354 1229 3354 
Q 1011 3354 794 3181 
L 717 3309 
L 1766 4115 
L 1926 4115 
L 3379 -602 
L 3405 -602 
L 6605 9933 
L 6970 9933 
z
" transform="scale(0.015625)"/>
       <path id="DejaVuSans-Oblique-48" d="M 1081 4666 
L 1716 4666 
L 1344 2753 
L 3634 2753 
L 4006 4666 
L 4641 4666 
L 3731 0 
L 3097 0 
L 3531 2222 
L 1241 2222 
L 806 0 
L 172 0 
L 1081 4666 
z
" transform="scale(0.015625)"/>
       <path id="DejaVuSans-Oblique-7a" d="M 744 3500 
L 3475 3500 
L 3372 2975 
L 738 459 
L 2913 459 
L 2822 0 
L -19 0 
L 84 525 
L 2719 3041 
L 653 3041 
L 744 3500 
z
" transform="scale(0.015625)"/>
       <path id="DejaVuSans-29" d="M 513 4856 
L 1013 4856 
Q 1481 4119 1714 3412 
Q 1947 2706 1947 2009 
Q 1947 1309 1714 600 
Q 1481 -109 1013 -844 
L 513 -844 
Q 928 -128 1133 580 
Q 1338 1288 1338 2009 
Q 1338 2731 1133 3434 
Q 928 4138 513 4856 
z
" transform="scale(0.015625)"/>
      </defs>
      <use xlink:href="#DejaVuSans-53" transform="translate(0 0.578125)"/>
      <use xlink:href="#DejaVuSans-70" transform="translate(63.476562 0.578125)"/>
      <use xlink:href="#DejaVuSans-65" transform="translate(126.953125 0.578125)"/>
      <use xlink:href="#DejaVuSans-63" transform="translate(188.476562 0.578125)"/>
      <use xlink:href="#DejaVuSans-74" transform="translate(243.457031 0.578125)"/>
      <use xlink:href="#DejaVuSans-72" transform="translate(282.666016 0.578125)"/>
      <use xlink:href="#DejaVuSans-61" transform="translate(323.779297 0.578125)"/>
      <use xlink:href="#DejaVuSans-6c" transform="translate(385.058594 0.578125)"/>
      <use xlink:href="#DejaVuSans-20" transform="translate(412.841797 0.578125)"/>
      <use xlink:href="#DejaVuSans-44" transform="translate(444.628906 0.578125)"/>
      <use xlink:href="#DejaVuSans-65" transform="translate(521.630859 0.578125)"/>
      <use xlink:href="#DejaVuSans-6e" transform="translate(583.154297 0.578125)"/>
      <use xlink:href="#DejaVuSans-73" transform="translate(646.533203 0.578125)"/>
      <use xlink:href="#DejaVuSans-69" transform="translate(698.632812 0.578125)"/>
      <use xlink:href="#DejaVuSans-74" transform="translate(726.416016 0.578125)"/>
      <use xlink:href="#DejaVuSans-79" transform="translate(765.625 0.578125)"/>
      <use xlink:href="#DejaVuSans-20" transform="translate(824.804688 0.578125)"/>
      <use xlink:href="#DejaVuSans-28" transform="translate(856.591797 0.578125)"/>
      <use xlink:href="#DejaVuSans-Oblique-6d" transform="translate(895.605469 0.578125)"/>
      <use xlink:href="#DejaVuSans-2f" transform="translate(993.017578 0.578125)"/>
      <use xlink:href="#DejaVuSans-Oblique-73" transform="translate(1026.708984 0.578125)"/>
      <use xlink:href="#DejaVuSans-b2" transform="translate(1078.808594 0.578125)"/>
      <use xlink:href="#DejaVuSans-2f" transform="translate(1118.896484 0.578125)"/>
      <use xlink:href="#STIXSizeOneSym-Regular-221a" transform="translate(1152.587891 17.09375) scale(0.563912)"/>
      <use xlink:href="#DejaVuSans-Oblique-48" transform="translate(1224.676254 0.84375)"/>
      <use xlink:href="#DejaVuSans-Oblique-7a" transform="translate(1299.871567 0.84375)"/>
      <use xlink:href="#DejaVuSans-29" transform="translate(1364.861801 0.578125)"/>
      <path d="M 1212.176254 97.5 
L 1212.176254 103.75 
L 1364.861801 103.75 
L 1364.861801 97.5 
L 1212.176254 97.5 
z
"/>
     </g>
    </g>
   </g>
   <g id="line2d_31">
    <path d="M 73.832727 294.574701 
L 74.466818 291.89227 
L 75.735 293.9283 
L 76.369091 294.44577 
L 77.637273 294.802311 
L 78.271364 294.659679 
L 78.905455 294.768536 
L 79.539545 294.9903 
L 80.807727 294.899105 
L 83.344091 295.162219 
L 84.612273 294.914998 
L 85.246364 295.042622 
L 91.587273 295.092295 
L 92.221364 294.914731 
L 95.391818 295.058244 
L 98.562273 294.746401 
L 99.196364 294.861541 
L 101.098636 294.793052 
L 101.732727 295.139877 
L 103.000909 295.030602 
L 103.635 295.048846 
L 104.269091 295.244073 
L 108.707727 295.302321 
L 111.244091 295.437074 
L 111.878182 295.314915 
L 112.512273 295.397436 
L 113.146364 295.277713 
L 115.048636 295.250346 
L 115.682727 295.199875 
L 117.585 295.488 
L 118.853182 295.345698 
L 120.121364 295.390757 
L 122.023636 295.313979 
L 125.828182 294.949338 
L 127.096364 295.045611 
L 128.364545 294.702227 
L 130.266818 294.911583 
L 130.900909 294.685087 
L 131.535 294.621933 
L 132.169091 294.782355 
L 134.071364 294.4786 
L 134.705455 294.160929 
L 137.875909 294.532244 
L 138.51 294.53251 
L 139.778182 294.295241 
L 140.412273 294.423566 
L 141.680455 293.992572 
L 142.314545 293.945403 
L 142.948636 293.73842 
L 143.582727 293.371831 
L 144.850909 292.955769 
L 145.485 292.973688 
L 147.387273 293.573422 
L 148.655455 293.436976 
L 149.289545 293.303799 
L 149.923636 292.916872 
L 150.557727 292.881798 
L 151.191818 292.501806 
L 151.825909 292.366875 
L 152.46 292.829996 
L 153.094091 292.983106 
L 153.728182 292.955944 
L 154.362273 293.254419 
L 155.630455 292.738484 
L 156.898636 293.262406 
L 158.166818 292.574773 
L 159.435 293.022235 
L 160.069091 293.166063 
L 160.703182 293.537484 
L 161.971364 292.556273 
L 162.605455 292.602832 
L 163.873636 292.084841 
L 164.507727 292.910091 
L 165.775909 292.374025 
L 166.41 292.465137 
L 167.044091 292.843268 
L 168.312273 292.765116 
L 168.946364 293.158311 
L 169.580455 292.823278 
L 170.214545 292.119488 
L 170.848636 291.648887 
L 171.482727 292.077319 
L 172.116818 292.309222 
L 172.750909 292.3879 
L 173.385 292.636613 
L 174.019091 292.546503 
L 174.653182 292.211154 
L 175.287273 292.21772 
L 175.921364 292.693658 
L 177.189545 292.278353 
L 177.823636 291.852428 
L 178.457727 291.871015 
L 179.091818 293.048855 
L 179.725909 292.610709 
L 180.36 292.336853 
L 180.994091 291.224297 
L 181.628182 291.371853 
L 182.262273 292.427578 
L 182.896364 292.449378 
L 183.530455 292.016215 
L 184.164545 292.194781 
L 184.798636 292.624424 
L 187.335 292.038412 
L 187.969091 292.059453 
L 188.603182 292.245837 
L 189.237273 291.817925 
L 189.871364 291.79721 
L 190.505455 291.912293 
L 191.139545 291.550022 
L 193.041818 291.155767 
L 193.675909 291.687259 
L 194.944091 291.867806 
L 195.578182 291.788594 
L 196.212273 292.393846 
L 196.846364 292.21574 
L 197.480455 292.646055 
L 198.114545 293.231257 
L 198.748636 292.673668 
L 200.016818 292.687863 
L 200.650909 292.581861 
L 201.285 292.632715 
L 201.919091 292.386441 
L 202.553182 292.404216 
L 203.187273 292.272396 
L 204.455455 292.691033 
L 205.723636 292.451737 
L 206.357727 292.718803 
L 206.991818 292.584398 
L 207.625909 292.196892 
L 209.528182 292.774139 
L 210.162273 292.780231 
L 210.796364 292.951418 
L 212.064545 292.902468 
L 212.698636 293.219581 
L 213.332727 293.375824 
L 213.966818 293.249168 
L 214.600909 292.854967 
L 215.235 292.692637 
L 217.137273 293.024468 
L 217.771364 292.808426 
L 219.039545 292.648189 
L 219.673636 292.439342 
L 220.941818 293.319263 
L 221.575909 293.283388 
L 222.21 293.373769 
L 223.478182 293.208347 
L 224.112273 293.282515 
L 224.746364 293.071277 
L 225.380455 292.552702 
L 226.648636 292.521631 
L 227.282727 292.432061 
L 227.916818 293.018094 
L 229.185 292.231748 
L 229.819091 292.116786 
L 230.453182 292.381571 
L 231.087273 292.766873 
L 233.623636 292.661651 
L 234.257727 292.938598 
L 234.891818 292.725149 
L 236.16 292.857088 
L 236.794091 293.176645 
L 237.428182 293.300791 
L 238.062273 292.86348 
L 238.696364 292.930077 
L 239.330455 292.812987 
L 239.964545 292.970303 
L 240.598636 293.316961 
L 241.232727 293.052291 
L 241.866818 293.166757 
L 242.500909 292.521092 
L 243.135 292.34594 
L 243.769091 292.914827 
L 244.403182 292.742207 
L 245.037273 292.848228 
L 246.305455 292.293481 
L 246.939545 292.574433 
L 247.573636 293.43925 
L 248.207727 293.359013 
L 248.841818 292.880602 
L 249.475909 292.805826 
L 250.11 292.275532 
L 250.744091 291.974902 
L 251.378182 292.370728 
L 252.012273 292.458142 
L 252.646364 292.738303 
L 253.280455 292.526971 
L 253.914545 292.644702 
L 254.548636 292.313949 
L 255.182727 292.617843 
L 256.450909 292.795898 
L 257.085 292.674264 
L 257.719091 293.075046 
L 258.353182 293.090008 
L 258.987273 292.505963 
L 259.621364 292.36031 
L 260.255455 292.660037 
L 260.889545 292.697393 
L 261.523636 292.896004 
L 262.157727 292.755299 
L 262.791818 292.16622 
L 263.425909 292.033691 
L 264.06 292.297779 
L 265.328182 292.144629 
L 266.596364 292.339271 
L 267.230455 292.16415 
L 267.864545 292.29147 
L 269.132727 292.164958 
L 269.766818 292.394924 
L 271.035 291.605695 
L 271.669091 291.457354 
L 272.303182 291.636553 
L 272.937273 292.173006 
L 273.571364 292.282557 
L 274.839545 291.825116 
L 276.741818 292.202274 
L 277.375909 292.726605 
L 278.644091 293.028547 
L 280.546364 292.886846 
L 281.180455 292.472793 
L 281.814545 293.126956 
L 283.082727 292.887705 
L 284.350909 293.137686 
L 284.985 293.031372 
L 285.619091 292.528406 
L 286.887273 292.837106 
L 288.155455 292.960345 
L 290.057727 292.874386 
L 290.691818 293.042549 
L 291.325909 292.090714 
L 292.594091 291.989195 
L 294.496364 292.320971 
L 295.130455 292.521591 
L 295.764545 292.46192 
L 296.398636 292.624103 
L 297.032727 292.443096 
L 297.666818 292.55294 
L 298.300909 292.291298 
L 298.935 292.171473 
L 299.569091 292.331725 
L 300.203182 291.999754 
L 300.837273 291.482265 
L 301.471364 291.908686 
L 302.105455 291.939359 
L 302.739545 291.659689 
L 303.373636 291.658911 
L 304.641818 290.2616 
L 305.275909 290.561698 
L 305.91 290.34754 
L 306.544091 289.004868 
L 307.178182 288.774647 
L 307.812273 288.198434 
L 309.714545 284.321328 
L 310.348636 282.665161 
L 310.982727 279.455143 
L 311.616818 277.679759 
L 312.250909 277.244685 
L 312.885 274.593508 
L 313.519091 273.526625 
L 314.787273 277.330617 
L 315.421364 276.862455 
L 316.055455 275.937524 
L 316.689545 273.702753 
L 317.323636 274.97956 
L 317.957727 273.872288 
L 318.591818 272.246586 
L 319.225909 268.12903 
L 319.86 272.854843 
L 320.494091 274.079677 
L 321.128182 274.118685 
L 321.762273 271.587417 
L 323.030455 279.417049 
L 323.664545 276.253652 
L 324.298636 276.477787 
L 325.566818 281.090351 
L 326.200909 280.428508 
L 326.835 278.166593 
L 327.469091 278.182832 
L 328.103182 277.195715 
L 329.371364 271.427578 
L 330.005455 269.914021 
L 330.639545 271.219906 
L 331.273636 267.152746 
L 331.907727 266.2556 
L 332.541818 263.816526 
L 333.175909 264.245172 
L 334.444091 261.27477 
L 335.078182 262.1731 
L 335.712273 259.668028 
L 336.346364 258.234727 
L 336.980455 258.338183 
L 337.614545 256.621368 
L 338.248636 257.028782 
L 338.882727 256.11852 
L 339.516818 252.773218 
L 340.150909 253.682155 
L 340.785 249.556543 
L 341.419091 246.292825 
L 342.053182 250.152534 
L 342.687273 256.964215 
L 343.321364 257.450904 
L 343.955455 255.820234 
L 344.589545 261.755589 
L 345.223636 263.814988 
L 345.857727 250.321056 
L 346.491818 240.365692 
L 347.125909 250.193096 
L 347.76 257.443456 
L 348.394091 250.291045 
L 349.028182 251.094512 
L 349.662273 259.861926 
L 350.296364 264.288702 
L 350.930455 258.873021 
L 351.564545 255.89357 
L 352.198636 261.045848 
L 352.832727 264.411429 
L 353.466818 263.551689 
L 354.735 254.146322 
L 355.369091 258.98755 
L 356.003182 260.346293 
L 356.637273 264.002626 
L 357.271364 256.38072 
L 357.905455 262.89468 
L 358.539545 264.279794 
L 359.173636 262.944355 
L 359.807727 265.160044 
L 360.441818 263.655921 
L 361.075909 261.607187 
L 361.71 265.18138 
L 362.344091 265.306312 
L 362.978182 259.625506 
L 363.612273 259.482272 
L 364.246364 262.487793 
L 364.880455 266.077116 
L 365.514545 267.115363 
L 366.148636 263.633198 
L 366.782727 261.352575 
L 367.416818 257.807242 
L 368.050909 258.630257 
L 368.685 261.805526 
L 369.319091 267.57298 
L 369.953182 271.174787 
L 370.587273 271.596646 
L 371.221364 266.840515 
L 371.855455 266.278052 
L 372.489545 272.152481 
L 373.123636 274.729423 
L 373.757727 271.614911 
L 374.391818 271.805894 
L 375.025909 275.284585 
L 375.66 275.641494 
L 376.294091 277.459983 
L 376.928182 276.548115 
L 377.562273 275.301874 
L 378.196364 273.169997 
L 379.464545 277.659112 
L 380.098636 280.678027 
L 380.732727 282.656673 
L 382.000909 283.173171 
L 382.635 283.917589 
L 383.269091 285.963465 
L 383.903182 286.789133 
L 384.537273 287.311928 
L 385.171364 288.74774 
L 385.805455 285.86063 
L 386.439545 284.590156 
L 387.073636 285.153644 
L 387.707727 287.709471 
L 388.341818 286.406131 
L 388.975909 286.901613 
L 389.61 289.866577 
L 390.244091 288.399016 
L 390.878182 290.526627 
L 391.512273 289.49137 
L 392.146364 290.982927 
L 392.780455 291.035113 
L 393.414545 290.827705 
L 394.048636 290.836231 
L 394.682727 291.516416 
L 395.316818 291.037139 
L 395.950909 291.953996 
L 396.585 291.755226 
L 397.219091 291.809385 
L 397.853182 292.127408 
L 398.487273 293.406951 
L 398.487273 293.406951 
" clip-path="url(#p2d97113df5)" style="fill: none; stroke: #1f77b4; stroke-width: 1.5; stroke-linecap: square"/>
   </g>
   <g id="line2d_32">
    <path d="M 73.832727 294.291276 
L 74.466818 291.31995 
L 75.100909 291.783734 
L 75.735 292.787581 
L 76.369091 293.343704 
L 77.003182 293.660736 
L 78.271364 294.038347 
L 78.905455 293.982897 
L 80.173636 293.543149 
L 80.807727 293.789692 
L 81.441818 293.877728 
L 83.344091 293.43864 
L 83.978182 293.040302 
L 85.880455 293.538445 
L 86.514545 293.329852 
L 87.148636 292.759273 
L 87.782727 292.846225 
L 88.416818 293.288929 
L 89.050909 293.485114 
L 89.685 293.414987 
L 90.319091 293.588924 
L 90.953182 294.054196 
L 91.587273 294.064119 
L 92.855455 294.350696 
L 94.757727 294.371443 
L 95.391818 294.170026 
L 96.025909 294.103573 
L 96.66 294.386023 
L 97.294091 294.313645 
L 98.562273 294.442481 
L 100.464545 294.25524 
L 101.098636 294.581979 
L 102.366818 294.500925 
L 103.635 294.74955 
L 104.269091 294.636295 
L 104.903182 294.671401 
L 105.537273 294.465293 
L 108.073636 294.366196 
L 108.707727 294.057743 
L 109.975909 294.509753 
L 110.61 294.510474 
L 111.244091 294.212582 
L 111.878182 294.066967 
L 112.512273 293.51035 
L 113.146364 293.159766 
L 113.780455 293.145565 
L 114.414545 293.247603 
L 115.682727 293.852008 
L 116.316818 294.631263 
L 116.950909 294.190998 
L 117.585 294.069716 
L 118.853182 293.422474 
L 119.487273 293.812834 
L 120.755455 293.3633 
L 122.023636 293.336119 
L 122.657727 293.109349 
L 123.291818 293.348359 
L 123.925909 293.4358 
L 125.194091 292.252151 
L 125.828182 292.464597 
L 126.462273 292.948718 
L 127.096364 292.606608 
L 127.730455 291.924292 
L 128.364545 291.658892 
L 128.998636 291.721612 
L 129.632727 292.19149 
L 130.266818 292.473493 
L 130.900909 292.155574 
L 131.535 291.263599 
L 132.169091 290.769016 
L 132.803182 290.931923 
L 133.437273 290.854086 
L 134.071364 291.338887 
L 134.705455 290.826858 
L 136.607727 291.012878 
L 137.241818 291.278667 
L 141.680455 290.761043 
L 142.948636 290.029216 
L 143.582727 289.428456 
L 144.216818 289.218406 
L 144.850909 288.638463 
L 146.119091 288.915105 
L 146.753182 289.364638 
L 147.387273 289.971815 
L 148.021364 290.162421 
L 149.289545 289.26234 
L 150.557727 288.095587 
L 151.191818 287.244068 
L 151.825909 287.368042 
L 152.46 288.787318 
L 153.094091 289.250474 
L 153.728182 288.497109 
L 154.362273 288.944988 
L 154.996364 289.08845 
L 155.630455 288.670678 
L 156.898636 289.088384 
L 157.532727 287.506456 
L 158.166818 287.166858 
L 158.800909 289.330357 
L 159.435 289.54633 
L 160.069091 289.465426 
L 160.703182 289.939884 
L 161.337273 288.540935 
L 162.605455 287.981329 
L 163.873636 286.598003 
L 164.507727 288.148791 
L 165.141818 287.711623 
L 165.775909 287.73027 
L 166.41 288.533956 
L 167.044091 289.534483 
L 168.312273 287.833042 
L 168.946364 289.139883 
L 169.580455 288.961126 
L 170.214545 287.389465 
L 170.848636 286.290087 
L 171.482727 287.416372 
L 172.116818 286.500899 
L 172.750909 286.44301 
L 173.385 287.584389 
L 174.019091 287.528832 
L 174.653182 286.346619 
L 175.287273 287.150777 
L 175.921364 288.828184 
L 177.189545 287.094268 
L 178.457727 287.059734 
L 179.091818 288.809182 
L 179.725909 288.282849 
L 180.36 287.4194 
L 180.994091 284.831896 
L 181.628182 285.554715 
L 182.896364 288.003491 
L 183.530455 287.912679 
L 184.164545 288.453538 
L 185.432727 287.720505 
L 186.066818 288.234044 
L 186.700909 287.364884 
L 187.969091 286.090325 
L 188.603182 286.139353 
L 189.237273 286.967612 
L 189.871364 287.17563 
L 190.505455 288.047676 
L 191.139545 287.109069 
L 191.773636 287.138548 
L 193.041818 285.868514 
L 194.31 287.005984 
L 194.944091 286.318985 
L 195.578182 285.867912 
L 196.212273 287.068395 
L 196.846364 287.438912 
L 197.480455 287.087682 
L 198.114545 287.880442 
L 198.748636 287.578974 
L 199.382727 287.712396 
L 200.650909 288.820013 
L 201.285 287.89736 
L 201.919091 288.285877 
L 202.553182 287.824487 
L 203.187273 286.877676 
L 203.821364 288.044371 
L 204.455455 287.83998 
L 205.089545 287.230827 
L 205.723636 286.124549 
L 207.625909 287.104601 
L 208.26 288.045845 
L 208.894091 288.135466 
L 209.528182 287.925525 
L 210.162273 288.539233 
L 210.796364 287.524485 
L 211.430455 287.202347 
L 212.064545 287.31804 
L 212.698636 287.549972 
L 213.332727 288.218853 
L 213.966818 288.483638 
L 214.600909 289.202261 
L 215.235 287.933569 
L 215.869091 287.145586 
L 216.503182 286.946111 
L 217.137273 288.253949 
L 217.771364 288.790143 
L 218.405455 288.466335 
L 219.039545 287.299285 
L 219.673636 287.709269 
L 220.307727 288.706977 
L 220.941818 288.887953 
L 221.575909 288.540574 
L 222.21 289.566794 
L 222.844091 289.579465 
L 223.478182 289.759355 
L 224.112273 290.799269 
L 224.746364 289.070414 
L 226.014545 288.821284 
L 226.648636 288.074082 
L 227.282727 287.831482 
L 227.916818 288.962153 
L 228.550909 289.314452 
L 229.185 288.62909 
L 229.819091 287.580532 
L 231.087273 289.71122 
L 231.721364 288.926879 
L 232.355455 289.745158 
L 232.989545 289.907373 
L 233.623636 289.089047 
L 234.257727 289.740193 
L 234.891818 289.47538 
L 235.525909 289.596065 
L 236.16 288.947442 
L 236.794091 290.207824 
L 237.428182 290.219044 
L 238.062273 289.803226 
L 238.696364 289.201502 
L 239.964545 289.715054 
L 240.598636 290.24678 
L 241.232727 290.114851 
L 241.866818 289.781656 
L 242.500909 288.716227 
L 243.135 288.26654 
L 243.769091 289.323288 
L 244.403182 288.883838 
L 245.037273 289.022411 
L 245.671364 288.9966 
L 246.305455 288.775932 
L 246.939545 289.097268 
L 247.573636 290.340909 
L 248.207727 289.785148 
L 248.841818 289.96158 
L 249.475909 289.658703 
L 250.11 287.63152 
L 250.744091 286.785626 
L 251.378182 289.309267 
L 252.012273 290.652611 
L 252.646364 289.809432 
L 253.280455 288.39583 
L 253.914545 288.164934 
L 254.548636 288.054613 
L 255.182727 288.496643 
L 255.816818 289.449036 
L 256.450909 289.783861 
L 257.085 289.678141 
L 257.719091 289.254731 
L 258.987273 289.006798 
L 259.621364 289.033764 
L 260.255455 288.824205 
L 261.523636 288.953032 
L 262.157727 288.398392 
L 262.791818 287.556381 
L 263.425909 286.969665 
L 264.06 286.908441 
L 264.694091 287.411607 
L 265.328182 287.604801 
L 265.962273 287.365154 
L 266.596364 286.90057 
L 267.230455 286.034487 
L 267.864545 286.268236 
L 268.498636 286.094589 
L 269.132727 286.762087 
L 269.766818 286.333516 
L 271.035 283.311043 
L 271.669091 281.508693 
L 272.303182 283.712474 
L 272.937273 284.55699 
L 273.571364 281.647345 
L 274.205455 280.266158 
L 274.839545 281.100414 
L 275.473636 284.104443 
L 276.107727 285.488223 
L 277.375909 286.962527 
L 278.01 286.5337 
L 278.644091 287.277757 
L 279.278182 288.27874 
L 279.912273 288.158025 
L 280.546364 287.342587 
L 281.180455 287.624581 
L 281.814545 289.026448 
L 282.448636 288.887038 
L 283.082727 288.975667 
L 283.716818 288.93211 
L 284.350909 288.723814 
L 284.985 288.927922 
L 285.619091 288.268779 
L 286.253182 288.348235 
L 286.887273 289.539355 
L 287.521364 289.72264 
L 288.155455 288.602217 
L 288.789545 288.869568 
L 289.423636 289.368509 
L 290.057727 289.327092 
L 290.691818 289.724334 
L 291.325909 289.805842 
L 291.96 289.350949 
L 293.228182 289.752088 
L 293.862273 288.776235 
L 294.496364 289.59102 
L 295.130455 289.678337 
L 295.764545 289.482723 
L 296.398636 290.273902 
L 297.032727 290.412008 
L 297.666818 289.79326 
L 298.300909 290.005931 
L 299.569091 289.669404 
L 300.203182 289.586161 
L 300.837273 288.445519 
L 301.471364 287.94421 
L 302.739545 288.586768 
L 303.373636 288.29953 
L 304.007727 287.558601 
L 304.641818 287.09591 
L 305.275909 287.582749 
L 305.91 288.333522 
L 306.544091 287.570106 
L 307.178182 287.348877 
L 307.812273 285.719664 
L 308.446364 283.737883 
L 309.080455 283.09577 
L 309.714545 283.000848 
L 310.348636 281.52362 
L 310.982727 276.918277 
L 311.616818 274.252237 
L 312.250909 270.571472 
L 312.885 264.116974 
L 313.519091 260.239415 
L 314.153182 260.64473 
L 314.787273 259.944894 
L 315.421364 255.975624 
L 316.689545 242.618582 
L 317.323636 239.386009 
L 317.957727 229.826865 
L 319.225909 192.535852 
L 319.86 196.142335 
L 320.494091 193.081121 
L 321.128182 196.633276 
L 321.762273 182.708888 
L 322.396364 181.812842 
L 323.030455 167.951486 
L 323.664545 141.174432 
L 324.298636 141.968897 
L 324.932727 150.512176 
L 325.566818 143.889939 
L 327.469091 53.568 
L 328.103182 71.654242 
L 328.737273 95.366929 
L 329.371364 82.103155 
L 330.005455 56.354073 
L 330.639545 61.070719 
L 331.273636 69.85619 
L 331.907727 74.511952 
L 332.541818 77.838389 
L 333.81 109.262504 
L 334.444091 106.383895 
L 335.078182 115.007101 
L 335.712273 120.870982 
L 336.346364 107.342065 
L 336.980455 112.292002 
L 337.614545 105.496101 
L 338.248636 114.594375 
L 338.882727 129.584224 
L 339.516818 113.341122 
L 340.150909 122.944988 
L 340.785 126.539189 
L 341.419091 131.493219 
L 342.053182 147.630837 
L 342.687273 171.903054 
L 343.321364 168.085273 
L 343.955455 162.959897 
L 344.589545 179.086465 
L 345.223636 184.341708 
L 345.857727 180.967638 
L 346.491818 163.016707 
L 347.125909 161.732579 
L 347.76 173.143475 
L 348.394091 178.746776 
L 349.028182 174.350719 
L 349.662273 196.16577 
L 350.296364 189.511065 
L 350.930455 187.63155 
L 351.564545 183.70267 
L 352.198636 182.775945 
L 352.832727 184.512725 
L 353.466818 187.914986 
L 354.100909 196.238921 
L 354.735 179.411433 
L 356.003182 197.725903 
L 356.637273 200.336641 
L 357.271364 194.469315 
L 357.905455 209.166902 
L 358.539545 211.469864 
L 359.173636 208.584333 
L 359.807727 213.482798 
L 360.441818 204.81033 
L 361.075909 199.399172 
L 361.71 210.933921 
L 362.344091 205.989592 
L 362.978182 192.660188 
L 363.612273 200.970349 
L 364.880455 211.958207 
L 365.514545 215.300492 
L 366.782727 189.862083 
L 367.416818 185.10786 
L 368.050909 198.167136 
L 368.685 207.238123 
L 369.319091 214.360355 
L 369.953182 216.842645 
L 370.587273 208.155548 
L 371.221364 202.563556 
L 371.855455 198.996861 
L 372.489545 210.147017 
L 373.123636 214.945905 
L 373.757727 189.851339 
L 375.66 230.75242 
L 376.294091 223.734873 
L 376.928182 223.612247 
L 377.562273 224.371905 
L 378.196364 230.088644 
L 379.464545 237.9175 
L 380.098636 238.267173 
L 380.732727 241.884316 
L 381.366818 247.285815 
L 382.000909 251.02629 
L 382.635 257.006305 
L 383.269091 264.378997 
L 384.537273 272.823474 
L 385.171364 276.161099 
L 385.805455 277.383456 
L 386.439545 278.012448 
L 387.073636 280.921954 
L 387.707727 283.053951 
L 388.341818 283.597626 
L 388.975909 282.948116 
L 389.61 284.271838 
L 390.244091 285.024396 
L 390.878182 284.902338 
L 391.512273 285.369948 
L 392.146364 284.388616 
L 392.780455 284.655112 
L 393.414545 285.855821 
L 394.048636 285.5114 
L 394.682727 284.78189 
L 395.316818 285.018604 
L 395.950909 284.839348 
L 396.585 285.990997 
L 397.219091 286.907636 
L 397.853182 287.503256 
L 398.487273 290.168545 
L 398.487273 290.168545 
" clip-path="url(#p2d97113df5)" style="fill: none; stroke: #ff7f0e; stroke-width: 1.5; stroke-linecap: square"/>
   </g>
   <g id="line2d_33">
    <path d="M 73.832727 294.570896 
L 74.466818 291.985797 
L 75.100909 293.120554 
L 76.369091 294.680263 
L 78.271364 295.340195 
L 78.905455 295.271802 
L 80.173636 295.29318 
L 81.441818 295.266366 
L 82.71 295.453414 
L 85.246364 295.318211 
L 87.148636 295.361896 
L 90.319091 295.39372 
L 93.489545 295.264072 
L 94.123636 295.31033 
L 95.391818 295.173619 
L 96.66 295.27076 
L 97.294091 295.232017 
L 97.928182 295.399179 
L 98.562273 295.353866 
L 99.830455 295.122158 
L 101.098636 295.204464 
L 102.366818 295.364012 
L 106.171364 294.991864 
L 106.805455 295.03871 
L 107.439545 295.270717 
L 111.878182 294.83021 
L 112.512273 294.47074 
L 113.780455 294.986517 
L 115.048636 294.717698 
L 115.682727 294.991887 
L 116.316818 294.864238 
L 116.950909 294.583463 
L 117.585 294.604424 
L 118.219091 294.805374 
L 118.853182 294.390564 
L 119.487273 294.488207 
L 120.755455 293.632912 
L 121.389545 293.554535 
L 122.657727 293.821483 
L 123.291818 294.170215 
L 123.925909 294.324191 
L 124.56 294.008984 
L 125.194091 293.876824 
L 125.828182 294.238596 
L 127.096364 293.699664 
L 127.730455 294.057505 
L 128.364545 294.269053 
L 128.998636 294.087034 
L 129.632727 293.654896 
L 130.900909 293.733707 
L 132.803182 293.522283 
L 134.071364 293.817009 
L 134.705455 293.393867 
L 135.973636 293.654767 
L 136.607727 293.394894 
L 138.51 293.158172 
L 139.144091 293.362145 
L 141.680455 292.893499 
L 142.314545 292.579646 
L 144.850909 292.260692 
L 145.485 292.237722 
L 146.119091 291.944695 
L 147.387273 292.552745 
L 148.021364 292.454148 
L 148.655455 292.115662 
L 149.923636 292.439251 
L 151.191818 291.161372 
L 152.46 292.197289 
L 153.094091 292.189428 
L 153.728182 291.727568 
L 154.362273 291.406896 
L 154.996364 291.390295 
L 155.630455 291.2315 
L 156.264545 291.231 
L 156.898636 291.734257 
L 157.532727 291.009915 
L 158.166818 290.99651 
L 158.800909 291.650051 
L 159.435 291.724052 
L 160.069091 291.647517 
L 161.337273 290.777902 
L 161.971364 290.357951 
L 162.605455 290.402454 
L 163.239545 290.643311 
L 163.873636 290.762366 
L 164.507727 291.781964 
L 166.41 291.097558 
L 167.044091 291.457879 
L 167.678182 291.255019 
L 168.312273 290.846389 
L 168.946364 291.249741 
L 169.580455 291.425768 
L 170.214545 290.63789 
L 170.848636 290.119364 
L 172.116818 290.297316 
L 173.385 290.884082 
L 174.653182 290.208707 
L 175.287273 290.238397 
L 175.921364 290.900166 
L 176.555455 290.231348 
L 177.189545 290.156889 
L 177.823636 289.507004 
L 178.457727 289.299449 
L 179.091818 290.770297 
L 179.725909 289.973239 
L 180.36 289.544716 
L 180.994091 288.212179 
L 181.628182 288.51724 
L 182.262273 289.977434 
L 182.896364 290.015998 
L 183.530455 289.031438 
L 184.798636 290.082249 
L 185.432727 289.44163 
L 186.700909 289.245208 
L 187.969091 289.376308 
L 188.603182 288.475086 
L 189.237273 288.216249 
L 190.505455 289.139809 
L 191.139545 288.865923 
L 191.773636 288.993193 
L 193.041818 288.105708 
L 193.675909 288.706969 
L 194.31 289.028005 
L 195.578182 288.618794 
L 196.212273 289.270665 
L 197.480455 289.726517 
L 198.114545 289.726206 
L 199.382727 289.203364 
L 200.650909 290.489985 
L 201.285 290.262362 
L 201.919091 290.308334 
L 202.553182 289.906645 
L 203.187273 289.15917 
L 203.821364 289.438352 
L 204.455455 289.33687 
L 205.089545 289.007659 
L 205.723636 288.506831 
L 206.357727 289.171883 
L 207.625909 288.157258 
L 208.894091 289.919337 
L 209.528182 290.434136 
L 210.162273 290.629223 
L 210.796364 289.722806 
L 211.430455 289.323952 
L 212.064545 289.319335 
L 212.698636 290.308485 
L 213.332727 289.963217 
L 213.966818 290.090962 
L 214.600909 289.990156 
L 215.235 289.011687 
L 215.869091 288.715218 
L 216.503182 289.082475 
L 217.137273 290.033481 
L 218.405455 289.688123 
L 219.039545 289.313227 
L 219.673636 289.073241 
L 220.307727 290.318518 
L 220.941818 290.634115 
L 221.575909 290.173181 
L 222.844091 290.591399 
L 224.112273 290.125892 
L 224.746364 289.645222 
L 226.014545 289.770155 
L 226.648636 289.509884 
L 227.282727 289.523259 
L 227.916818 290.742209 
L 228.550909 290.729817 
L 229.185 290.480401 
L 229.819091 289.976805 
L 230.453182 290.177823 
L 231.087273 290.052995 
L 231.721364 289.392849 
L 232.355455 289.936484 
L 232.989545 290.674897 
L 233.623636 290.424859 
L 234.891818 290.638555 
L 235.525909 290.877254 
L 236.16 290.560493 
L 236.794091 291.036544 
L 237.428182 291.255299 
L 238.062273 290.402254 
L 238.696364 290.492967 
L 239.330455 290.873113 
L 239.964545 290.884666 
L 240.598636 290.587924 
L 241.232727 290.427834 
L 241.866818 291.39185 
L 243.135 290.09604 
L 243.769091 290.948652 
L 245.037273 290.236256 
L 245.671364 289.746996 
L 246.305455 290.175831 
L 246.939545 290.833992 
L 247.573636 290.44216 
L 248.841818 290.186924 
L 249.475909 289.655008 
L 250.11 288.722726 
L 250.744091 289.045284 
L 251.378182 289.759914 
L 252.012273 289.292054 
L 252.646364 290.039464 
L 253.914545 290.406226 
L 254.548636 290.131219 
L 255.816818 290.022368 
L 256.450909 290.263672 
L 257.085 290.689241 
L 257.719091 290.661709 
L 258.353182 290.018896 
L 258.987273 290.706899 
L 259.621364 290.120113 
L 260.889545 290.817842 
L 261.523636 290.347807 
L 262.157727 290.083915 
L 263.425909 289.2843 
L 264.06 289.504974 
L 264.694091 289.590348 
L 265.328182 289.074487 
L 265.962273 289.585637 
L 266.596364 289.279932 
L 267.230455 289.723111 
L 267.864545 290.528443 
L 268.498636 289.853241 
L 269.132727 290.021616 
L 269.766818 289.793861 
L 270.400909 290.222676 
L 271.035 289.687236 
L 271.669091 290.043893 
L 272.303182 289.628626 
L 273.571364 290.248105 
L 274.205455 289.877148 
L 274.839545 289.936797 
L 276.107727 290.764601 
L 276.741818 290.712146 
L 277.375909 290.775195 
L 278.644091 290.289964 
L 279.278182 291.145406 
L 279.912273 291.284165 
L 280.546364 291.994626 
L 281.180455 290.598843 
L 281.814545 291.059352 
L 282.448636 292.386021 
L 283.082727 292.656008 
L 283.716818 291.884523 
L 284.350909 291.679838 
L 284.985 291.870967 
L 285.619091 291.469444 
L 286.253182 291.662592 
L 287.521364 291.066621 
L 288.789545 292.374187 
L 289.423636 292.375202 
L 290.057727 292.185112 
L 290.691818 292.659336 
L 291.96 292.337947 
L 292.594091 292.870596 
L 293.228182 292.532061 
L 293.862273 291.797723 
L 295.764545 292.125526 
L 298.300909 291.743095 
L 298.935 291.747732 
L 299.569091 292.179622 
L 300.203182 292.373542 
L 300.837273 292.326833 
L 301.471364 292.025041 
L 302.105455 291.548093 
L 302.739545 291.449385 
L 303.373636 291.12837 
L 304.007727 290.987932 
L 304.641818 290.014588 
L 305.275909 290.082722 
L 306.544091 289.228152 
L 307.178182 289.007507 
L 307.812273 288.105896 
L 308.446364 287.548983 
L 309.080455 286.648445 
L 312.250909 275.345066 
L 312.885 271.871662 
L 313.519091 269.340077 
L 314.153182 269.315011 
L 315.421364 268.834419 
L 316.055455 267.517854 
L 316.689545 266.73308 
L 317.323636 266.444882 
L 317.957727 262.733561 
L 319.225909 246.417166 
L 319.86 246.630434 
L 320.494091 248.185134 
L 321.128182 253.140642 
L 322.396364 247.789408 
L 323.030455 244.136124 
L 323.664545 233.177799 
L 324.298636 234.214048 
L 324.932727 240.846034 
L 325.566818 238.066543 
L 326.835 221.142744 
L 327.469091 211.301057 
L 328.737273 227.376095 
L 329.371364 221.408514 
L 330.005455 213.947727 
L 330.639545 221.103244 
L 331.273636 225.174024 
L 331.907727 226.380835 
L 332.541818 226.099959 
L 333.81 236.940336 
L 334.444091 237.183916 
L 335.078182 238.688495 
L 335.712273 236.475302 
L 336.346364 233.598921 
L 336.980455 237.520277 
L 337.614545 237.653611 
L 338.248636 240.765021 
L 338.882727 242.546229 
L 339.516818 239.290252 
L 340.150909 246.090074 
L 340.785 241.476939 
L 341.419091 235.222097 
L 342.053182 237.587573 
L 342.687273 249.743316 
L 343.321364 251.029541 
L 343.955455 250.041945 
L 344.589545 259.522814 
L 345.223636 256.79897 
L 345.857727 250.240615 
L 346.491818 249.933402 
L 347.125909 253.619294 
L 347.76 258.658237 
L 348.394091 257.249138 
L 349.028182 257.538057 
L 349.662273 262.559555 
L 350.296364 264.919006 
L 350.930455 261.086983 
L 351.564545 259.97346 
L 352.198636 267.870085 
L 352.832727 274.255773 
L 353.466818 273.689333 
L 354.100909 269.274411 
L 354.735 265.848116 
L 355.369091 269.065898 
L 356.003182 269.498362 
L 356.637273 268.042973 
L 357.271364 269.006973 
L 357.905455 272.539722 
L 358.539545 275.192944 
L 359.173636 277.176962 
L 359.807727 273.639803 
L 360.441818 268.407852 
L 361.075909 268.227632 
L 361.71 271.501667 
L 362.344091 271.951794 
L 362.978182 272.044321 
L 363.612273 274.531455 
L 364.246364 272.194464 
L 364.880455 272.741046 
L 365.514545 275.513746 
L 366.148636 275.847999 
L 366.782727 275.165489 
L 367.416818 273.53749 
L 368.050909 272.63607 
L 368.685 274.443449 
L 369.319091 277.517392 
L 369.953182 278.621429 
L 370.587273 277.244066 
L 371.221364 273.664014 
L 371.855455 273.029397 
L 372.489545 277.027304 
L 373.123636 276.82178 
L 373.757727 270.942171 
L 374.391818 273.019396 
L 375.66 281.360645 
L 376.294091 280.186507 
L 376.928182 278.06049 
L 377.562273 277.953759 
L 378.196364 278.466882 
L 378.830455 279.529174 
L 379.464545 280.958083 
L 380.732727 282.188527 
L 381.366818 283.400269 
L 382.000909 284.096632 
L 382.635 285.46803 
L 383.269091 287.612417 
L 383.903182 287.333174 
L 384.537273 287.753821 
L 385.171364 289.581171 
L 385.805455 288.663421 
L 386.439545 288.676885 
L 387.073636 290.389776 
L 387.707727 290.754637 
L 388.341818 290.316518 
L 388.975909 290.248618 
L 389.61 291.619014 
L 390.244091 291.009312 
L 390.878182 291.089894 
L 391.512273 291.363354 
L 392.146364 291.128253 
L 393.414545 291.213445 
L 394.048636 290.885174 
L 395.316818 289.880582 
L 395.950909 290.242975 
L 396.585 290.835225 
L 397.219091 291.16302 
L 397.853182 291.863454 
L 398.487273 293.273738 
L 398.487273 293.273738 
" clip-path="url(#p2d97113df5)" style="fill: none; stroke: #2ca02c; stroke-width: 1.5; stroke-linecap: square"/>
   </g>
   <g id="patch_3">
    <path d="M 57.6 307.584 
L 57.6 41.472 
" style="fill: none; stroke: #000000; stroke-width: 0.8; stroke-linejoin: miter; stroke-linecap: square"/>
   </g>
   <g id="patch_4">
    <path d="M 414.72 307.584 
L 414.72 41.472 
" style="fill: none; stroke: #000000; stroke-width: 0.8; stroke-linejoin: miter; stroke-linecap: square"/>
   </g>
   <g id="patch_5">
    <path d="M 57.6 307.584 
L 414.72 307.584 
" style="fill: none; stroke: #000000; stroke-width: 0.8; stroke-linejoin: miter; stroke-linecap: square"/>
   </g>
   <g id="patch_6">
    <path d="M 57.6 41.472 
L 414.72 41.472 
" style="fill: none; stroke: #000000; stroke-width: 0.8; stroke-linejoin: miter; stroke-linecap: square"/>
   </g>
   <g id="text_18">
    <!-- Accelerometer Power Spectral Density -->
    <g transform="translate(121.022813 35.472) scale(0.12 -0.12)">
     <defs>
      <path id="DejaVuSans-41" d="M 2188 4044 
L 1331 1722 
L 3047 1722 
L 2188 4044 
z
M 1831 4666 
L 2547 4666 
L 4325 0 
L 3669 0 
L 3244 1197 
L 1141 1197 
L 716 0 
L 50 0 
L 1831 4666 
z
" transform="scale(0.015625)"/>
      <path id="DejaVuSans-6f" d="M 1959 3097 
Q 1497 3097 1228 2736 
Q 959 2375 959 1747 
Q 959 1119 1226 758 
Q 1494 397 1959 397 
Q 2419 397 2687 759 
Q 2956 1122 2956 1747 
Q 2956 2369 2687 2733 
Q 2419 3097 1959 3097 
z
M 1959 3584 
Q 2709 3584 3137 3096 
Q 3566 2609 3566 1747 
Q 3566 888 3137 398 
Q 2709 -91 1959 -91 
Q 1206 -91 779 398 
Q 353 888 353 1747 
Q 353 2609 779 3096 
Q 1206 3584 1959 3584 
z
" transform="scale(0.015625)"/>
      <path id="DejaVuSans-6d" d="M 3328 2828 
Q 3544 3216 3844 3400 
Q 4144 3584 4550 3584 
Q 5097 3584 5394 3201 
Q 5691 2819 5691 2113 
L 5691 0 
L 5113 0 
L 5113 2094 
Q 5113 2597 4934 2840 
Q 4756 3084 4391 3084 
Q 3944 3084 3684 2787 
Q 3425 2491 3425 1978 
L 3425 0 
L 2847 0 
L 2847 2094 
Q 2847 2600 2669 2842 
Q 2491 3084 2119 3084 
Q 1678 3084 1418 2786 
Q 1159 2488 1159 1978 
L 1159 0 
L 581 0 
L 581 3500 
L 1159 3500 
L 1159 2956 
Q 1356 3278 1631 3431 
Q 1906 3584 2284 3584 
Q 2666 3584 2933 3390 
Q 3200 3197 3328 2828 
z
" transform="scale(0.015625)"/>
      <path id="DejaVuSans-50" d="M 1259 4147 
L 1259 2394 
L 2053 2394 
Q 2494 2394 2734 2622 
Q 2975 2850 2975 3272 
Q 2975 3691 2734 3919 
Q 2494 4147 2053 4147 
L 1259 4147 
z
M 628 4666 
L 2053 4666 
Q 2838 4666 3239 4311 
Q 3641 3956 3641 3272 
Q 3641 2581 3239 2228 
Q 2838 1875 2053 1875 
L 1259 1875 
L 1259 0 
L 628 0 
L 628 4666 
z
" transform="scale(0.015625)"/>
      <path id="DejaVuSans-77" d="M 269 3500 
L 844 3500 
L 1563 769 
L 2278 3500 
L 2956 3500 
L 3675 769 
L 4391 3500 
L 4966 3500 
L 4050 0 
L 3372 0 
L 2619 2869 
L 1863 0 
L 1184 0 
L 269 3500 
z
" transform="scale(0.015625)"/>
     </defs>
     <use xlink:href="#DejaVuSans-41"/>
     <use xlink:href="#DejaVuSans-63" x="66.658203"/>
     <use xlink:href="#DejaVuSans-63" x="121.638672"/>
     <use xlink:href="#DejaVuSans-65" x="176.619141"/>
     <use xlink:href="#DejaVuSans-6c" x="238.142578"/>
     <use xlink:href="#DejaVuSans-65" x="265.925781"/>
     <use xlink:href="#DejaVuSans-72" x="327.449219"/>
     <use xlink:href="#DejaVuSans-6f" x="366.3125"/>
     <use xlink:href="#DejaVuSans-6d" x="427.494141"/>
     <use xlink:href="#DejaVuSans-65" x="524.90625"/>
     <use xlink:href="#DejaVuSans-74" x="586.429688"/>
     <use xlink:href="#DejaVuSans-65" x="625.638672"/>
     <use xlink:href="#DejaVuSans-72" x="687.162109"/>
     <use xlink:href="#DejaVuSans-20" x="728.275391"/>
     <use xlink:href="#DejaVuSans-50" x="760.0625"/>
     <use xlink:href="#DejaVuSans-6f" x="816.740234"/>
     <use xlink:href="#DejaVuSans-77" x="877.921875"/>
     <use xlink:href="#DejaVuSans-65" x="959.708984"/>
     <use xlink:href="#DejaVuSans-72" x="1021.232422"/>
     <use xlink:href="#DejaVuSans-20" x="1062.345703"/>
     <use xlink:href="#DejaVuSans-53" x="1094.132812"/>
     <use xlink:href="#DejaVuSans-70" x="1157.609375"/>
     <use xlink:href="#DejaVuSans-65" x="1221.085938"/>
     <use xlink:href="#DejaVuSans-63" x="1282.609375"/>
     <use xlink:href="#DejaVuSans-74" x="1337.589844"/>
     <use xlink:href="#DejaVuSans-72" x="1376.798828"/>
     <use xlink:href="#DejaVuSans-61" x="1417.912109"/>
     <use xlink:href="#DejaVuSans-6c" x="1479.191406"/>
     <use xlink:href="#DejaVuSans-20" x="1506.974609"/>
     <use xlink:href="#DejaVuSans-44" x="1538.761719"/>
     <use xlink:href="#DejaVuSans-65" x="1615.763672"/>
     <use xlink:href="#DejaVuSans-6e" x="1677.287109"/>
     <use xlink:href="#DejaVuSans-73" x="1740.666016"/>
     <use xlink:href="#DejaVuSans-69" x="1792.765625"/>
     <use xlink:href="#DejaVuSans-74" x="1820.548828"/>
     <use xlink:href="#DejaVuSans-79" x="1859.757812"/>
    </g>
   </g>
   <g id="legend_1">
    <g id="patch_7">
     <path d="M 363.673125 93.506375 
L 407.72 93.506375 
Q 409.72 93.506375 409.72 91.506375 
L 409.72 48.472 
Q 409.72 46.472 407.72 46.472 
L 363.673125 46.472 
Q 361.673125 46.472 361.673125 48.472 
L 361.673125 91.506375 
Q 361.673125 93.506375 363.673125 93.506375 
z
" style="fill: #ffffff; opacity: 0.8; stroke: #cccccc; stroke-linejoin: miter"/>
    </g>
    <g id="line2d_34">
     <path d="M 365.673125 54.570438 
L 375.673125 54.570438 
L 385.673125 54.570438 
" style="fill: none; stroke: #1f77b4; stroke-width: 1.5; stroke-linecap: square"/>
    </g>
    <g id="text_19">
     <!-- ax -->
     <g transform="translate(393.673125 58.070438) scale(0.1 -0.1)">
      <defs>
       <path id="DejaVuSans-78" d="M 3513 3500 
L 2247 1797 
L 3578 0 
L 2900 0 
L 1881 1375 
L 863 0 
L 184 0 
L 1544 1831 
L 300 3500 
L 978 3500 
L 1906 2253 
L 2834 3500 
L 3513 3500 
z
" transform="scale(0.015625)"/>
      </defs>
      <use xlink:href="#DejaVuSans-61"/>
      <use xlink:href="#DejaVuSans-78" x="61.279297"/>
     </g>
    </g>
    <g id="line2d_35">
     <path d="M 365.673125 69.248563 
L 375.673125 69.248563 
L 385.673125 69.248563 
" style="fill: none; stroke: #ff7f0e; stroke-width: 1.5; stroke-linecap: square"/>
    </g>
    <g id="text_20">
     <!-- ay -->
     <g transform="translate(393.673125 72.748563) scale(0.1 -0.1)">
      <use xlink:href="#DejaVuSans-61"/>
      <use xlink:href="#DejaVuSans-79" x="61.279297"/>
     </g>
    </g>
    <g id="line2d_36">
     <path d="M 365.673125 83.926688 
L 375.673125 83.926688 
L 385.673125 83.926688 
" style="fill: none; stroke: #2ca02c; stroke-width: 1.5; stroke-linecap: square"/>
    </g>
    <g id="text_21">
     <!-- az -->
     <g transform="translate(393.673125 87.426688) scale(0.1 -0.1)">
      <use xlink:href="#DejaVuSans-61"/>
      <use xlink:href="#DejaVuSans-7a" x="61.279297"/>
     </g>
    </g>
   </g>
  </g>
 </g>
 <defs>
  <clipPath id="p2d97113df5">
   <rect x="57.6" y="41.472" width="357.12" height="266.112"/>
  </clipPath>
 </defs>
</svg>
