<?xml version="1.0" encoding="utf-8" standalone="no"?>
<!DOCTYPE svg PUBLIC "-//W3C//DTD SVG 1.1//EN"
  "http://www.w3.org/Graphics/SVG/1.1/DTD/svg11.dtd">
<svg xmlns:xlink="http://www.w3.org/1999/xlink" width="460.8pt" height="345.6pt" viewBox="0 0 460.8 345.6" xmlns="http://www.w3.org/2000/svg" version="1.1">
 <metadata>
  <rdf:RDF xmlns:dc="http://purl.org/dc/elements/1.1/" xmlns:cc="http://creativecommons.org/ns#" xmlns:rdf="http://www.w3.org/1999/02/22-rdf-syntax-ns#">
   <cc:Work>
    <dc:type rdf:resource="http://purl.org/dc/dcmitype/StillImage"/>
    <dc:date>2024-05-09T11:56:26.816714</dc:date>
    <dc:format>image/svg+xml</dc:format>
    <dc:creator>
     <cc:Agent>
      <dc:title>Matplotlib v3.8.3, https://matplotlib.org/</dc:title>
     </cc:Agent>
    </dc:creator>
   </cc:Work>
  </rdf:RDF>
 </metadata>
 <defs>
  <style type="text/css">*{stroke-linejoin: round; stroke-linecap: butt}</style>
 </defs>
 <g id="figure_1">
  <g id="patch_1">
   <path d="M 0 345.6 
L 460.8 345.6 
L 460.8 0 
L 0 0 
z
" style="fill: #ffffff"/>
  </g>
  <g id="axes_1">
   <g id="patch_2">
    <path d="M 57.6 307.584 
L 414.72 307.584 
L 414.72 41.472 
L 57.6 41.472 
z
" style="fill: #ffffff"/>
   </g>
   <g id="matplotlib.axis_1">
    <g id="xtick_1">
     <g id="line2d_1">
      <path d="M 73.832727 307.584 
L 73.832727 41.472 
" clip-path="url(#p7c5c90f8b6)" style="fill: none; stroke: #b0b0b0; stroke-width: 0.8; stroke-linecap: square"/>
     </g>
     <g id="line2d_2">
      <defs>
       <path id="mc834aaf70f" d="M 0 0 
L 0 3.5 
" style="stroke: #000000; stroke-width: 0.8"/>
      </defs>
      <g>
       <use xlink:href="#mc834aaf70f" x="73.832727" y="307.584" style="stroke: #000000; stroke-width: 0.8"/>
      </g>
     </g>
     <g id="text_1">
      <!-- 0 -->
      <g transform="translate(70.651477 322.182437) scale(0.1 -0.1)">
       <defs>
        <path id="DejaVuSans-30" d="M 2034 4250 
Q 1547 4250 1301 3770 
Q 1056 3291 1056 2328 
Q 1056 1369 1301 889 
Q 1547 409 2034 409 
Q 2525 409 2770 889 
Q 3016 1369 3016 2328 
Q 3016 3291 2770 3770 
Q 2525 4250 2034 4250 
z
M 2034 4750 
Q 2819 4750 3233 4129 
Q 3647 3509 3647 2328 
Q 3647 1150 3233 529 
Q 2819 -91 2034 -91 
Q 1250 -91 836 529 
Q 422 1150 422 2328 
Q 422 3509 836 4129 
Q 1250 4750 2034 4750 
z
" transform="scale(0.015625)"/>
       </defs>
       <use xlink:href="#DejaVuSans-30"/>
      </g>
     </g>
    </g>
    <g id="xtick_2">
     <g id="line2d_3">
      <path d="M 138.841614 307.584 
L 138.841614 41.472 
" clip-path="url(#p7c5c90f8b6)" style="fill: none; stroke: #b0b0b0; stroke-width: 0.8; stroke-linecap: square"/>
     </g>
     <g id="line2d_4">
      <g>
       <use xlink:href="#mc834aaf70f" x="138.841614" y="307.584" style="stroke: #000000; stroke-width: 0.8"/>
      </g>
     </g>
     <g id="text_2">
      <!-- 20 -->
      <g transform="translate(132.479114 322.182437) scale(0.1 -0.1)">
       <defs>
        <path id="DejaVuSans-32" d="M 1228 531 
L 3431 531 
L 3431 0 
L 469 0 
L 469 531 
Q 828 903 1448 1529 
Q 2069 2156 2228 2338 
Q 2531 2678 2651 2914 
Q 2772 3150 2772 3378 
Q 2772 3750 2511 3984 
Q 2250 4219 1831 4219 
Q 1534 4219 1204 4116 
Q 875 4013 500 3803 
L 500 4441 
Q 881 4594 1212 4672 
Q 1544 4750 1819 4750 
Q 2544 4750 2975 4387 
Q 3406 4025 3406 3419 
Q 3406 3131 3298 2873 
Q 3191 2616 2906 2266 
Q 2828 2175 2409 1742 
Q 1991 1309 1228 531 
z
" transform="scale(0.015625)"/>
       </defs>
       <use xlink:href="#DejaVuSans-32"/>
       <use xlink:href="#DejaVuSans-30" x="63.623047"/>
      </g>
     </g>
    </g>
    <g id="xtick_3">
     <g id="line2d_5">
      <path d="M 203.850501 307.584 
L 203.850501 41.472 
" clip-path="url(#p7c5c90f8b6)" style="fill: none; stroke: #b0b0b0; stroke-width: 0.8; stroke-linecap: square"/>
     </g>
     <g id="line2d_6">
      <g>
       <use xlink:href="#mc834aaf70f" x="203.850501" y="307.584" style="stroke: #000000; stroke-width: 0.8"/>
      </g>
     </g>
     <g id="text_3">
      <!-- 40 -->
      <g transform="translate(197.488001 322.182437) scale(0.1 -0.1)">
       <defs>
        <path id="DejaVuSans-34" d="M 2419 4116 
L 825 1625 
L 2419 1625 
L 2419 4116 
z
M 2253 4666 
L 3047 4666 
L 3047 1625 
L 3713 1625 
L 3713 1100 
L 3047 1100 
L 3047 0 
L 2419 0 
L 2419 1100 
L 313 1100 
L 313 1709 
L 2253 4666 
z
" transform="scale(0.015625)"/>
       </defs>
       <use xlink:href="#DejaVuSans-34"/>
       <use xlink:href="#DejaVuSans-30" x="63.623047"/>
      </g>
     </g>
    </g>
    <g id="xtick_4">
     <g id="line2d_7">
      <path d="M 268.859388 307.584 
L 268.859388 41.472 
" clip-path="url(#p7c5c90f8b6)" style="fill: none; stroke: #b0b0b0; stroke-width: 0.8; stroke-linecap: square"/>
     </g>
     <g id="line2d_8">
      <g>
       <use xlink:href="#mc834aaf70f" x="268.859388" y="307.584" style="stroke: #000000; stroke-width: 0.8"/>
      </g>
     </g>
     <g id="text_4">
      <!-- 60 -->
      <g transform="translate(262.496888 322.182437) scale(0.1 -0.1)">
       <defs>
        <path id="DejaVuSans-36" d="M 2113 2584 
Q 1688 2584 1439 2293 
Q 1191 2003 1191 1497 
Q 1191 994 1439 701 
Q 1688 409 2113 409 
Q 2538 409 2786 701 
Q 3034 994 3034 1497 
Q 3034 2003 2786 2293 
Q 2538 2584 2113 2584 
z
M 3366 4563 
L 3366 3988 
Q 3128 4100 2886 4159 
Q 2644 4219 2406 4219 
Q 1781 4219 1451 3797 
Q 1122 3375 1075 2522 
Q 1259 2794 1537 2939 
Q 1816 3084 2150 3084 
Q 2853 3084 3261 2657 
Q 3669 2231 3669 1497 
Q 3669 778 3244 343 
Q 2819 -91 2113 -91 
Q 1303 -91 875 529 
Q 447 1150 447 2328 
Q 447 3434 972 4092 
Q 1497 4750 2381 4750 
Q 2619 4750 2861 4703 
Q 3103 4656 3366 4563 
z
" transform="scale(0.015625)"/>
       </defs>
       <use xlink:href="#DejaVuSans-36"/>
       <use xlink:href="#DejaVuSans-30" x="63.623047"/>
      </g>
     </g>
    </g>
    <g id="xtick_5">
     <g id="line2d_9">
      <path d="M 333.868274 307.584 
L 333.868274 41.472 
" clip-path="url(#p7c5c90f8b6)" style="fill: none; stroke: #b0b0b0; stroke-width: 0.8; stroke-linecap: square"/>
     </g>
     <g id="line2d_10">
      <g>
       <use xlink:href="#mc834aaf70f" x="333.868274" y="307.584" style="stroke: #000000; stroke-width: 0.8"/>
      </g>
     </g>
     <g id="text_5">
      <!-- 80 -->
      <g transform="translate(327.505774 322.182437) scale(0.1 -0.1)">
       <defs>
        <path id="DejaVuSans-38" d="M 2034 2216 
Q 1584 2216 1326 1975 
Q 1069 1734 1069 1313 
Q 1069 891 1326 650 
Q 1584 409 2034 409 
Q 2484 409 2743 651 
Q 3003 894 3003 1313 
Q 3003 1734 2745 1975 
Q 2488 2216 2034 2216 
z
M 1403 2484 
Q 997 2584 770 2862 
Q 544 3141 544 3541 
Q 544 4100 942 4425 
Q 1341 4750 2034 4750 
Q 2731 4750 3128 4425 
Q 3525 4100 3525 3541 
Q 3525 3141 3298 2862 
Q 3072 2584 2669 2484 
Q 3125 2378 3379 2068 
Q 3634 1759 3634 1313 
Q 3634 634 3220 271 
Q 2806 -91 2034 -91 
Q 1263 -91 848 271 
Q 434 634 434 1313 
Q 434 1759 690 2068 
Q 947 2378 1403 2484 
z
M 1172 3481 
Q 1172 3119 1398 2916 
Q 1625 2713 2034 2713 
Q 2441 2713 2670 2916 
Q 2900 3119 2900 3481 
Q 2900 3844 2670 4047 
Q 2441 4250 2034 4250 
Q 1625 4250 1398 4047 
Q 1172 3844 1172 3481 
z
" transform="scale(0.015625)"/>
       </defs>
       <use xlink:href="#DejaVuSans-38"/>
       <use xlink:href="#DejaVuSans-30" x="63.623047"/>
      </g>
     </g>
    </g>
    <g id="xtick_6">
     <g id="line2d_11">
      <path d="M 398.877161 307.584 
L 398.877161 41.472 
" clip-path="url(#p7c5c90f8b6)" style="fill: none; stroke: #b0b0b0; stroke-width: 0.8; stroke-linecap: square"/>
     </g>
     <g id="line2d_12">
      <g>
       <use xlink:href="#mc834aaf70f" x="398.877161" y="307.584" style="stroke: #000000; stroke-width: 0.8"/>
      </g>
     </g>
     <g id="text_6">
      <!-- 100 -->
      <g transform="translate(389.333411 322.182437) scale(0.1 -0.1)">
       <defs>
        <path id="DejaVuSans-31" d="M 794 531 
L 1825 531 
L 1825 4091 
L 703 3866 
L 703 4441 
L 1819 4666 
L 2450 4666 
L 2450 531 
L 3481 531 
L 3481 0 
L 794 0 
L 794 531 
z
" transform="scale(0.015625)"/>
       </defs>
       <use xlink:href="#DejaVuSans-31"/>
       <use xlink:href="#DejaVuSans-30" x="63.623047"/>
       <use xlink:href="#DejaVuSans-30" x="127.246094"/>
      </g>
     </g>
    </g>
    <g id="text_7">
     <!-- Frequency [Hz] -->
     <g transform="translate(198.455312 335.860562) scale(0.1 -0.1)">
      <defs>
       <path id="DejaVuSans-46" d="M 628 4666 
L 3309 4666 
L 3309 4134 
L 1259 4134 
L 1259 2759 
L 3109 2759 
L 3109 2228 
L 1259 2228 
L 1259 0 
L 628 0 
L 628 4666 
z
" transform="scale(0.015625)"/>
       <path id="DejaVuSans-72" d="M 2631 2963 
Q 2534 3019 2420 3045 
Q 2306 3072 2169 3072 
Q 1681 3072 1420 2755 
Q 1159 2438 1159 1844 
L 1159 0 
L 581 0 
L 581 3500 
L 1159 3500 
L 1159 2956 
Q 1341 3275 1631 3429 
Q 1922 3584 2338 3584 
Q 2397 3584 2469 3576 
Q 2541 3569 2628 3553 
L 2631 2963 
z
" transform="scale(0.015625)"/>
       <path id="DejaVuSans-65" d="M 3597 1894 
L 3597 1613 
L 953 1613 
Q 991 1019 1311 708 
Q 1631 397 2203 397 
Q 2534 397 2845 478 
Q 3156 559 3463 722 
L 3463 178 
Q 3153 47 2828 -22 
Q 2503 -91 2169 -91 
Q 1331 -91 842 396 
Q 353 884 353 1716 
Q 353 2575 817 3079 
Q 1281 3584 2069 3584 
Q 2775 3584 3186 3129 
Q 3597 2675 3597 1894 
z
M 3022 2063 
Q 3016 2534 2758 2815 
Q 2500 3097 2075 3097 
Q 1594 3097 1305 2825 
Q 1016 2553 972 2059 
L 3022 2063 
z
" transform="scale(0.015625)"/>
       <path id="DejaVuSans-71" d="M 947 1747 
Q 947 1113 1208 752 
Q 1469 391 1925 391 
Q 2381 391 2643 752 
Q 2906 1113 2906 1747 
Q 2906 2381 2643 2742 
Q 2381 3103 1925 3103 
Q 1469 3103 1208 2742 
Q 947 2381 947 1747 
z
M 2906 525 
Q 2725 213 2448 61 
Q 2172 -91 1784 -91 
Q 1150 -91 751 415 
Q 353 922 353 1747 
Q 353 2572 751 3078 
Q 1150 3584 1784 3584 
Q 2172 3584 2448 3432 
Q 2725 3281 2906 2969 
L 2906 3500 
L 3481 3500 
L 3481 -1331 
L 2906 -1331 
L 2906 525 
z
" transform="scale(0.015625)"/>
       <path id="DejaVuSans-75" d="M 544 1381 
L 544 3500 
L 1119 3500 
L 1119 1403 
Q 1119 906 1312 657 
Q 1506 409 1894 409 
Q 2359 409 2629 706 
Q 2900 1003 2900 1516 
L 2900 3500 
L 3475 3500 
L 3475 0 
L 2900 0 
L 2900 538 
Q 2691 219 2414 64 
Q 2138 -91 1772 -91 
Q 1169 -91 856 284 
Q 544 659 544 1381 
z
M 1991 3584 
L 1991 3584 
z
" transform="scale(0.015625)"/>
       <path id="DejaVuSans-6e" d="M 3513 2113 
L 3513 0 
L 2938 0 
L 2938 2094 
Q 2938 2591 2744 2837 
Q 2550 3084 2163 3084 
Q 1697 3084 1428 2787 
Q 1159 2491 1159 1978 
L 1159 0 
L 581 0 
L 581 3500 
L 1159 3500 
L 1159 2956 
Q 1366 3272 1645 3428 
Q 1925 3584 2291 3584 
Q 2894 3584 3203 3211 
Q 3513 2838 3513 2113 
z
" transform="scale(0.015625)"/>
       <path id="DejaVuSans-63" d="M 3122 3366 
L 3122 2828 
Q 2878 2963 2633 3030 
Q 2388 3097 2138 3097 
Q 1578 3097 1268 2742 
Q 959 2388 959 1747 
Q 959 1106 1268 751 
Q 1578 397 2138 397 
Q 2388 397 2633 464 
Q 2878 531 3122 666 
L 3122 134 
Q 2881 22 2623 -34 
Q 2366 -91 2075 -91 
Q 1284 -91 818 406 
Q 353 903 353 1747 
Q 353 2603 823 3093 
Q 1294 3584 2113 3584 
Q 2378 3584 2631 3529 
Q 2884 3475 3122 3366 
z
" transform="scale(0.015625)"/>
       <path id="DejaVuSans-79" d="M 2059 -325 
Q 1816 -950 1584 -1140 
Q 1353 -1331 966 -1331 
L 506 -1331 
L 506 -850 
L 844 -850 
Q 1081 -850 1212 -737 
Q 1344 -625 1503 -206 
L 1606 56 
L 191 3500 
L 800 3500 
L 1894 763 
L 2988 3500 
L 3597 3500 
L 2059 -325 
z
" transform="scale(0.015625)"/>
       <path id="DejaVuSans-20" transform="scale(0.015625)"/>
       <path id="DejaVuSans-5b" d="M 550 4863 
L 1875 4863 
L 1875 4416 
L 1125 4416 
L 1125 -397 
L 1875 -397 
L 1875 -844 
L 550 -844 
L 550 4863 
z
" transform="scale(0.015625)"/>
       <path id="DejaVuSans-48" d="M 628 4666 
L 1259 4666 
L 1259 2753 
L 3553 2753 
L 3553 4666 
L 4184 4666 
L 4184 0 
L 3553 0 
L 3553 2222 
L 1259 2222 
L 1259 0 
L 628 0 
L 628 4666 
z
" transform="scale(0.015625)"/>
       <path id="DejaVuSans-7a" d="M 353 3500 
L 3084 3500 
L 3084 2975 
L 922 459 
L 3084 459 
L 3084 0 
L 275 0 
L 275 525 
L 2438 3041 
L 353 3041 
L 353 3500 
z
" transform="scale(0.015625)"/>
       <path id="DejaVuSans-5d" d="M 1947 4863 
L 1947 -844 
L 622 -844 
L 622 -397 
L 1369 -397 
L 1369 4416 
L 622 4416 
L 622 4863 
L 1947 4863 
z
" transform="scale(0.015625)"/>
      </defs>
      <use xlink:href="#DejaVuSans-46"/>
      <use xlink:href="#DejaVuSans-72" x="50.269531"/>
      <use xlink:href="#DejaVuSans-65" x="89.132812"/>
      <use xlink:href="#DejaVuSans-71" x="150.65625"/>
      <use xlink:href="#DejaVuSans-75" x="214.132812"/>
      <use xlink:href="#DejaVuSans-65" x="277.511719"/>
      <use xlink:href="#DejaVuSans-6e" x="339.035156"/>
      <use xlink:href="#DejaVuSans-63" x="402.414062"/>
      <use xlink:href="#DejaVuSans-79" x="457.394531"/>
      <use xlink:href="#DejaVuSans-20" x="516.574219"/>
      <use xlink:href="#DejaVuSans-5b" x="548.361328"/>
      <use xlink:href="#DejaVuSans-48" x="587.375"/>
      <use xlink:href="#DejaVuSans-7a" x="662.570312"/>
      <use xlink:href="#DejaVuSans-5d" x="715.060547"/>
     </g>
    </g>
   </g>
   <g id="matplotlib.axis_2">
    <g id="ytick_1">
     <g id="line2d_13">
      <path d="M 57.6 297.578035 
L 414.72 297.578035 
" clip-path="url(#p7c5c90f8b6)" style="fill: none; stroke: #b0b0b0; stroke-width: 0.8; stroke-linecap: square"/>
     </g>
     <g id="line2d_14">
      <defs>
       <path id="md10c381e9e" d="M 0 0 
L -3.5 0 
" style="stroke: #000000; stroke-width: 0.8"/>
      </defs>
      <g>
       <use xlink:href="#md10c381e9e" x="57.6" y="297.578035" style="stroke: #000000; stroke-width: 0.8"/>
      </g>
     </g>
     <g id="text_8">
      <!-- 0.000 -->
      <g transform="translate(21.971875 301.377254) scale(0.1 -0.1)">
       <defs>
        <path id="DejaVuSans-2e" d="M 684 794 
L 1344 794 
L 1344 0 
L 684 0 
L 684 794 
z
" transform="scale(0.015625)"/>
       </defs>
       <use xlink:href="#DejaVuSans-30"/>
       <use xlink:href="#DejaVuSans-2e" x="63.623047"/>
       <use xlink:href="#DejaVuSans-30" x="95.410156"/>
       <use xlink:href="#DejaVuSans-30" x="159.033203"/>
       <use xlink:href="#DejaVuSans-30" x="222.65625"/>
      </g>
     </g>
    </g>
    <g id="ytick_2">
     <g id="line2d_15">
      <path d="M 57.6 267.500066 
L 414.72 267.500066 
" clip-path="url(#p7c5c90f8b6)" style="fill: none; stroke: #b0b0b0; stroke-width: 0.8; stroke-linecap: square"/>
     </g>
     <g id="line2d_16">
      <g>
       <use xlink:href="#md10c381e9e" x="57.6" y="267.500066" style="stroke: #000000; stroke-width: 0.8"/>
      </g>
     </g>
     <g id="text_9">
      <!-- 0.005 -->
      <g transform="translate(21.971875 271.299285) scale(0.1 -0.1)">
       <defs>
        <path id="DejaVuSans-35" d="M 691 4666 
L 3169 4666 
L 3169 4134 
L 1269 4134 
L 1269 2991 
Q 1406 3038 1543 3061 
Q 1681 3084 1819 3084 
Q 2600 3084 3056 2656 
Q 3513 2228 3513 1497 
Q 3513 744 3044 326 
Q 2575 -91 1722 -91 
Q 1428 -91 1123 -41 
Q 819 9 494 109 
L 494 744 
Q 775 591 1075 516 
Q 1375 441 1709 441 
Q 2250 441 2565 725 
Q 2881 1009 2881 1497 
Q 2881 1984 2565 2268 
Q 2250 2553 1709 2553 
Q 1456 2553 1204 2497 
Q 953 2441 691 2322 
L 691 4666 
z
" transform="scale(0.015625)"/>
       </defs>
       <use xlink:href="#DejaVuSans-30"/>
       <use xlink:href="#DejaVuSans-2e" x="63.623047"/>
       <use xlink:href="#DejaVuSans-30" x="95.410156"/>
       <use xlink:href="#DejaVuSans-30" x="159.033203"/>
       <use xlink:href="#DejaVuSans-35" x="222.65625"/>
      </g>
     </g>
    </g>
    <g id="ytick_3">
     <g id="line2d_17">
      <path d="M 57.6 237.422098 
L 414.72 237.422098 
" clip-path="url(#p7c5c90f8b6)" style="fill: none; stroke: #b0b0b0; stroke-width: 0.8; stroke-linecap: square"/>
     </g>
     <g id="line2d_18">
      <g>
       <use xlink:href="#md10c381e9e" x="57.6" y="237.422098" style="stroke: #000000; stroke-width: 0.8"/>
      </g>
     </g>
     <g id="text_10">
      <!-- 0.010 -->
      <g transform="translate(21.971875 241.221316) scale(0.1 -0.1)">
       <use xlink:href="#DejaVuSans-30"/>
       <use xlink:href="#DejaVuSans-2e" x="63.623047"/>
       <use xlink:href="#DejaVuSans-30" x="95.410156"/>
       <use xlink:href="#DejaVuSans-31" x="159.033203"/>
       <use xlink:href="#DejaVuSans-30" x="222.65625"/>
      </g>
     </g>
    </g>
    <g id="ytick_4">
     <g id="line2d_19">
      <path d="M 57.6 207.344129 
L 414.72 207.344129 
" clip-path="url(#p7c5c90f8b6)" style="fill: none; stroke: #b0b0b0; stroke-width: 0.8; stroke-linecap: square"/>
     </g>
     <g id="line2d_20">
      <g>
       <use xlink:href="#md10c381e9e" x="57.6" y="207.344129" style="stroke: #000000; stroke-width: 0.8"/>
      </g>
     </g>
     <g id="text_11">
      <!-- 0.015 -->
      <g transform="translate(21.971875 211.143348) scale(0.1 -0.1)">
       <use xlink:href="#DejaVuSans-30"/>
       <use xlink:href="#DejaVuSans-2e" x="63.623047"/>
       <use xlink:href="#DejaVuSans-30" x="95.410156"/>
       <use xlink:href="#DejaVuSans-31" x="159.033203"/>
       <use xlink:href="#DejaVuSans-35" x="222.65625"/>
      </g>
     </g>
    </g>
    <g id="ytick_5">
     <g id="line2d_21">
      <path d="M 57.6 177.26616 
L 414.72 177.26616 
" clip-path="url(#p7c5c90f8b6)" style="fill: none; stroke: #b0b0b0; stroke-width: 0.8; stroke-linecap: square"/>
     </g>
     <g id="line2d_22">
      <g>
       <use xlink:href="#md10c381e9e" x="57.6" y="177.26616" style="stroke: #000000; stroke-width: 0.8"/>
      </g>
     </g>
     <g id="text_12">
      <!-- 0.020 -->
      <g transform="translate(21.971875 181.065379) scale(0.1 -0.1)">
       <use xlink:href="#DejaVuSans-30"/>
       <use xlink:href="#DejaVuSans-2e" x="63.623047"/>
       <use xlink:href="#DejaVuSans-30" x="95.410156"/>
       <use xlink:href="#DejaVuSans-32" x="159.033203"/>
       <use xlink:href="#DejaVuSans-30" x="222.65625"/>
      </g>
     </g>
    </g>
    <g id="ytick_6">
     <g id="line2d_23">
      <path d="M 57.6 147.188191 
L 414.72 147.188191 
" clip-path="url(#p7c5c90f8b6)" style="fill: none; stroke: #b0b0b0; stroke-width: 0.8; stroke-linecap: square"/>
     </g>
     <g id="line2d_24">
      <g>
       <use xlink:href="#md10c381e9e" x="57.6" y="147.188191" style="stroke: #000000; stroke-width: 0.8"/>
      </g>
     </g>
     <g id="text_13">
      <!-- 0.025 -->
      <g transform="translate(21.971875 150.98741) scale(0.1 -0.1)">
       <use xlink:href="#DejaVuSans-30"/>
       <use xlink:href="#DejaVuSans-2e" x="63.623047"/>
       <use xlink:href="#DejaVuSans-30" x="95.410156"/>
       <use xlink:href="#DejaVuSans-32" x="159.033203"/>
       <use xlink:href="#DejaVuSans-35" x="222.65625"/>
      </g>
     </g>
    </g>
    <g id="ytick_7">
     <g id="line2d_25">
      <path d="M 57.6 117.110223 
L 414.72 117.110223 
" clip-path="url(#p7c5c90f8b6)" style="fill: none; stroke: #b0b0b0; stroke-width: 0.8; stroke-linecap: square"/>
     </g>
     <g id="line2d_26">
      <g>
       <use xlink:href="#md10c381e9e" x="57.6" y="117.110223" style="stroke: #000000; stroke-width: 0.8"/>
      </g>
     </g>
     <g id="text_14">
      <!-- 0.030 -->
      <g transform="translate(21.971875 120.909441) scale(0.1 -0.1)">
       <defs>
        <path id="DejaVuSans-33" d="M 2597 2516 
Q 3050 2419 3304 2112 
Q 3559 1806 3559 1356 
Q 3559 666 3084 287 
Q 2609 -91 1734 -91 
Q 1441 -91 1130 -33 
Q 819 25 488 141 
L 488 750 
Q 750 597 1062 519 
Q 1375 441 1716 441 
Q 2309 441 2620 675 
Q 2931 909 2931 1356 
Q 2931 1769 2642 2001 
Q 2353 2234 1838 2234 
L 1294 2234 
L 1294 2753 
L 1863 2753 
Q 2328 2753 2575 2939 
Q 2822 3125 2822 3475 
Q 2822 3834 2567 4026 
Q 2313 4219 1838 4219 
Q 1578 4219 1281 4162 
Q 984 4106 628 3988 
L 628 4550 
Q 988 4650 1302 4700 
Q 1616 4750 1894 4750 
Q 2613 4750 3031 4423 
Q 3450 4097 3450 3541 
Q 3450 3153 3228 2886 
Q 3006 2619 2597 2516 
z
" transform="scale(0.015625)"/>
       </defs>
       <use xlink:href="#DejaVuSans-30"/>
       <use xlink:href="#DejaVuSans-2e" x="63.623047"/>
       <use xlink:href="#DejaVuSans-30" x="95.410156"/>
       <use xlink:href="#DejaVuSans-33" x="159.033203"/>
       <use xlink:href="#DejaVuSans-30" x="222.65625"/>
      </g>
     </g>
    </g>
    <g id="ytick_8">
     <g id="line2d_27">
      <path d="M 57.6 87.032254 
L 414.72 87.032254 
" clip-path="url(#p7c5c90f8b6)" style="fill: none; stroke: #b0b0b0; stroke-width: 0.8; stroke-linecap: square"/>
     </g>
     <g id="line2d_28">
      <g>
       <use xlink:href="#md10c381e9e" x="57.6" y="87.032254" style="stroke: #000000; stroke-width: 0.8"/>
      </g>
     </g>
     <g id="text_15">
      <!-- 0.035 -->
      <g transform="translate(21.971875 90.831473) scale(0.1 -0.1)">
       <use xlink:href="#DejaVuSans-30"/>
       <use xlink:href="#DejaVuSans-2e" x="63.623047"/>
       <use xlink:href="#DejaVuSans-30" x="95.410156"/>
       <use xlink:href="#DejaVuSans-33" x="159.033203"/>
       <use xlink:href="#DejaVuSans-35" x="222.65625"/>
      </g>
     </g>
    </g>
    <g id="ytick_9">
     <g id="line2d_29">
      <path d="M 57.6 56.954285 
L 414.72 56.954285 
" clip-path="url(#p7c5c90f8b6)" style="fill: none; stroke: #b0b0b0; stroke-width: 0.8; stroke-linecap: square"/>
     </g>
     <g id="line2d_30">
      <g>
       <use xlink:href="#md10c381e9e" x="57.6" y="56.954285" style="stroke: #000000; stroke-width: 0.8"/>
      </g>
     </g>
     <g id="text_16">
      <!-- 0.040 -->
      <g transform="translate(21.971875 60.753504) scale(0.1 -0.1)">
       <use xlink:href="#DejaVuSans-30"/>
       <use xlink:href="#DejaVuSans-2e" x="63.623047"/>
       <use xlink:href="#DejaVuSans-30" x="95.410156"/>
       <use xlink:href="#DejaVuSans-34" x="159.033203"/>
       <use xlink:href="#DejaVuSans-30" x="222.65625"/>
      </g>
     </g>
    </g>
    <g id="text_17">
     <!-- Spectral Density ($rad/s  / \sqrt{Hz}$) -->
     <g transform="translate(15.871875 246.178) rotate(-90) scale(0.1 -0.1)">
      <defs>
       <path id="DejaVuSans-53" d="M 3425 4513 
L 3425 3897 
Q 3066 4069 2747 4153 
Q 2428 4238 2131 4238 
Q 1616 4238 1336 4038 
Q 1056 3838 1056 3469 
Q 1056 3159 1242 3001 
Q 1428 2844 1947 2747 
L 2328 2669 
Q 3034 2534 3370 2195 
Q 3706 1856 3706 1288 
Q 3706 609 3251 259 
Q 2797 -91 1919 -91 
Q 1588 -91 1214 -16 
Q 841 59 441 206 
L 441 856 
Q 825 641 1194 531 
Q 1563 422 1919 422 
Q 2459 422 2753 634 
Q 3047 847 3047 1241 
Q 3047 1584 2836 1778 
Q 2625 1972 2144 2069 
L 1759 2144 
Q 1053 2284 737 2584 
Q 422 2884 422 3419 
Q 422 4038 858 4394 
Q 1294 4750 2059 4750 
Q 2388 4750 2728 4690 
Q 3069 4631 3425 4513 
z
" transform="scale(0.015625)"/>
       <path id="DejaVuSans-70" d="M 1159 525 
L 1159 -1331 
L 581 -1331 
L 581 3500 
L 1159 3500 
L 1159 2969 
Q 1341 3281 1617 3432 
Q 1894 3584 2278 3584 
Q 2916 3584 3314 3078 
Q 3713 2572 3713 1747 
Q 3713 922 3314 415 
Q 2916 -91 2278 -91 
Q 1894 -91 1617 61 
Q 1341 213 1159 525 
z
M 3116 1747 
Q 3116 2381 2855 2742 
Q 2594 3103 2138 3103 
Q 1681 3103 1420 2742 
Q 1159 2381 1159 1747 
Q 1159 1113 1420 752 
Q 1681 391 2138 391 
Q 2594 391 2855 752 
Q 3116 1113 3116 1747 
z
" transform="scale(0.015625)"/>
       <path id="DejaVuSans-74" d="M 1172 4494 
L 1172 3500 
L 2356 3500 
L 2356 3053 
L 1172 3053 
L 1172 1153 
Q 1172 725 1289 603 
Q 1406 481 1766 481 
L 2356 481 
L 2356 0 
L 1766 0 
Q 1100 0 847 248 
Q 594 497 594 1153 
L 594 3053 
L 172 3053 
L 172 3500 
L 594 3500 
L 594 4494 
L 1172 4494 
z
" transform="scale(0.015625)"/>
       <path id="DejaVuSans-61" d="M 2194 1759 
Q 1497 1759 1228 1600 
Q 959 1441 959 1056 
Q 959 750 1161 570 
Q 1363 391 1709 391 
Q 2188 391 2477 730 
Q 2766 1069 2766 1631 
L 2766 1759 
L 2194 1759 
z
M 3341 1997 
L 3341 0 
L 2766 0 
L 2766 531 
Q 2569 213 2275 61 
Q 1981 -91 1556 -91 
Q 1019 -91 701 211 
Q 384 513 384 1019 
Q 384 1609 779 1909 
Q 1175 2209 1959 2209 
L 2766 2209 
L 2766 2266 
Q 2766 2663 2505 2880 
Q 2244 3097 1772 3097 
Q 1472 3097 1187 3025 
Q 903 2953 641 2809 
L 641 3341 
Q 956 3463 1253 3523 
Q 1550 3584 1831 3584 
Q 2591 3584 2966 3190 
Q 3341 2797 3341 1997 
z
" transform="scale(0.015625)"/>
       <path id="DejaVuSans-6c" d="M 603 4863 
L 1178 4863 
L 1178 0 
L 603 0 
L 603 4863 
z
" transform="scale(0.015625)"/>
       <path id="DejaVuSans-44" d="M 1259 4147 
L 1259 519 
L 2022 519 
Q 2988 519 3436 956 
Q 3884 1394 3884 2338 
Q 3884 3275 3436 3711 
Q 2988 4147 2022 4147 
L 1259 4147 
z
M 628 4666 
L 1925 4666 
Q 3281 4666 3915 4102 
Q 4550 3538 4550 2338 
Q 4550 1131 3912 565 
Q 3275 0 1925 0 
L 628 0 
L 628 4666 
z
" transform="scale(0.015625)"/>
       <path id="DejaVuSans-73" d="M 2834 3397 
L 2834 2853 
Q 2591 2978 2328 3040 
Q 2066 3103 1784 3103 
Q 1356 3103 1142 2972 
Q 928 2841 928 2578 
Q 928 2378 1081 2264 
Q 1234 2150 1697 2047 
L 1894 2003 
Q 2506 1872 2764 1633 
Q 3022 1394 3022 966 
Q 3022 478 2636 193 
Q 2250 -91 1575 -91 
Q 1294 -91 989 -36 
Q 684 19 347 128 
L 347 722 
Q 666 556 975 473 
Q 1284 391 1588 391 
Q 1994 391 2212 530 
Q 2431 669 2431 922 
Q 2431 1156 2273 1281 
Q 2116 1406 1581 1522 
L 1381 1569 
Q 847 1681 609 1914 
Q 372 2147 372 2553 
Q 372 3047 722 3315 
Q 1072 3584 1716 3584 
Q 2034 3584 2315 3537 
Q 2597 3491 2834 3397 
z
" transform="scale(0.015625)"/>
       <path id="DejaVuSans-69" d="M 603 3500 
L 1178 3500 
L 1178 0 
L 603 0 
L 603 3500 
z
M 603 4863 
L 1178 4863 
L 1178 4134 
L 603 4134 
L 603 4863 
z
" transform="scale(0.015625)"/>
       <path id="DejaVuSans-28" d="M 1984 4856 
Q 1566 4138 1362 3434 
Q 1159 2731 1159 2009 
Q 1159 1288 1364 580 
Q 1569 -128 1984 -844 
L 1484 -844 
Q 1016 -109 783 600 
Q 550 1309 550 2009 
Q 550 2706 781 3412 
Q 1013 4119 1484 4856 
L 1984 4856 
z
" transform="scale(0.015625)"/>
       <path id="DejaVuSans-Oblique-72" d="M 2853 2969 
Q 2766 3016 2653 3041 
Q 2541 3066 2413 3066 
Q 1953 3066 1609 2717 
Q 1266 2369 1153 1784 
L 800 0 
L 225 0 
L 909 3500 
L 1484 3500 
L 1375 2956 
Q 1603 3259 1920 3421 
Q 2238 3584 2597 3584 
Q 2691 3584 2781 3573 
Q 2872 3563 2963 3538 
L 2853 2969 
z
" transform="scale(0.015625)"/>
       <path id="DejaVuSans-Oblique-61" d="M 3438 1997 
L 3047 0 
L 2472 0 
L 2578 531 
Q 2325 219 2001 64 
Q 1678 -91 1281 -91 
Q 834 -91 548 182 
Q 263 456 263 884 
Q 263 1497 752 1853 
Q 1241 2209 2100 2209 
L 2900 2209 
L 2931 2363 
Q 2938 2388 2941 2417 
Q 2944 2447 2944 2509 
Q 2944 2788 2717 2942 
Q 2491 3097 2081 3097 
Q 1800 3097 1504 3025 
Q 1209 2953 897 2809 
L 997 3341 
Q 1322 3463 1633 3523 
Q 1944 3584 2234 3584 
Q 2853 3584 3176 3315 
Q 3500 3047 3500 2534 
Q 3500 2431 3484 2292 
Q 3469 2153 3438 1997 
z
M 2816 1759 
L 2241 1759 
Q 1534 1759 1195 1570 
Q 856 1381 856 984 
Q 856 709 1029 553 
Q 1203 397 1509 397 
Q 1978 397 2328 733 
Q 2678 1069 2791 1631 
L 2816 1759 
z
" transform="scale(0.015625)"/>
       <path id="DejaVuSans-Oblique-64" d="M 2675 525 
Q 2444 222 2128 65 
Q 1813 -91 1428 -91 
Q 903 -91 598 267 
Q 294 625 294 1247 
Q 294 1766 478 2236 
Q 663 2706 1013 3078 
Q 1244 3325 1534 3454 
Q 1825 3584 2144 3584 
Q 2481 3584 2739 3421 
Q 2997 3259 3138 2956 
L 3513 4863 
L 4091 4863 
L 3144 0 
L 2566 0 
L 2675 525 
z
M 891 1350 
Q 891 897 1095 644 
Q 1300 391 1663 391 
Q 1931 391 2161 520 
Q 2391 650 2566 903 
Q 2750 1166 2856 1509 
Q 2963 1853 2963 2188 
Q 2963 2622 2758 2865 
Q 2553 3109 2194 3109 
Q 1922 3109 1687 2981 
Q 1453 2853 1288 2613 
Q 1106 2353 998 2009 
Q 891 1666 891 1350 
z
" transform="scale(0.015625)"/>
       <path id="DejaVuSans-2f" d="M 1625 4666 
L 2156 4666 
L 531 -594 
L 0 -594 
L 1625 4666 
z
" transform="scale(0.015625)"/>
       <path id="DejaVuSans-Oblique-73" d="M 3200 3397 
L 3091 2853 
Q 2863 2978 2609 3040 
Q 2356 3103 2088 3103 
Q 1634 3103 1373 2948 
Q 1113 2794 1113 2528 
Q 1113 2219 1719 2053 
Q 1766 2041 1788 2034 
L 1972 1978 
Q 2547 1819 2739 1644 
Q 2931 1469 2931 1166 
Q 2931 609 2489 259 
Q 2047 -91 1331 -91 
Q 1053 -91 747 -37 
Q 441 16 72 128 
L 184 722 
Q 500 559 806 475 
Q 1113 391 1394 391 
Q 1816 391 2080 572 
Q 2344 753 2344 1031 
Q 2344 1331 1650 1516 
L 1591 1531 
L 1394 1581 
Q 956 1697 753 1886 
Q 550 2075 550 2369 
Q 550 2928 970 3256 
Q 1391 3584 2113 3584 
Q 2397 3584 2667 3537 
Q 2938 3491 3200 3397 
z
" transform="scale(0.015625)"/>
       <path id="STIXSizeOneSym-Regular-221a" d="M 6970 9933 
L 3373 -1888 
L 3104 -1888 
L 1626 2918 
Q 1555 3149 1465 3251 
Q 1376 3354 1229 3354 
Q 1011 3354 794 3181 
L 717 3309 
L 1766 4115 
L 1926 4115 
L 3379 -602 
L 3405 -602 
L 6605 9933 
L 6970 9933 
z
" transform="scale(0.015625)"/>
       <path id="DejaVuSans-Oblique-48" d="M 1081 4666 
L 1716 4666 
L 1344 2753 
L 3634 2753 
L 4006 4666 
L 4641 4666 
L 3731 0 
L 3097 0 
L 3531 2222 
L 1241 2222 
L 806 0 
L 172 0 
L 1081 4666 
z
" transform="scale(0.015625)"/>
       <path id="DejaVuSans-Oblique-7a" d="M 744 3500 
L 3475 3500 
L 3372 2975 
L 738 459 
L 2913 459 
L 2822 0 
L -19 0 
L 84 525 
L 2719 3041 
L 653 3041 
L 744 3500 
z
" transform="scale(0.015625)"/>
       <path id="DejaVuSans-29" d="M 513 4856 
L 1013 4856 
Q 1481 4119 1714 3412 
Q 1947 2706 1947 2009 
Q 1947 1309 1714 600 
Q 1481 -109 1013 -844 
L 513 -844 
Q 928 -128 1133 580 
Q 1338 1288 1338 2009 
Q 1338 2731 1133 3434 
Q 928 4138 513 4856 
z
" transform="scale(0.015625)"/>
      </defs>
      <use xlink:href="#DejaVuSans-53" transform="translate(0 0.578125)"/>
      <use xlink:href="#DejaVuSans-70" transform="translate(63.476562 0.578125)"/>
      <use xlink:href="#DejaVuSans-65" transform="translate(126.953125 0.578125)"/>
      <use xlink:href="#DejaVuSans-63" transform="translate(188.476562 0.578125)"/>
      <use xlink:href="#DejaVuSans-74" transform="translate(243.457031 0.578125)"/>
      <use xlink:href="#DejaVuSans-72" transform="translate(282.666016 0.578125)"/>
      <use xlink:href="#DejaVuSans-61" transform="translate(323.779297 0.578125)"/>
      <use xlink:href="#DejaVuSans-6c" transform="translate(385.058594 0.578125)"/>
      <use xlink:href="#DejaVuSans-20" transform="translate(412.841797 0.578125)"/>
      <use xlink:href="#DejaVuSans-44" transform="translate(444.628906 0.578125)"/>
      <use xlink:href="#DejaVuSans-65" transform="translate(521.630859 0.578125)"/>
      <use xlink:href="#DejaVuSans-6e" transform="translate(583.154297 0.578125)"/>
      <use xlink:href="#DejaVuSans-73" transform="translate(646.533203 0.578125)"/>
      <use xlink:href="#DejaVuSans-69" transform="translate(698.632812 0.578125)"/>
      <use xlink:href="#DejaVuSans-74" transform="translate(726.416016 0.578125)"/>
      <use xlink:href="#DejaVuSans-79" transform="translate(765.625 0.578125)"/>
      <use xlink:href="#DejaVuSans-20" transform="translate(824.804688 0.578125)"/>
      <use xlink:href="#DejaVuSans-28" transform="translate(856.591797 0.578125)"/>
      <use xlink:href="#DejaVuSans-Oblique-72" transform="translate(895.605469 0.578125)"/>
      <use xlink:href="#DejaVuSans-Oblique-61" transform="translate(936.71875 0.578125)"/>
      <use xlink:href="#DejaVuSans-Oblique-64" transform="translate(997.998047 0.578125)"/>
      <use xlink:href="#DejaVuSans-2f" transform="translate(1061.474609 0.578125)"/>
      <use xlink:href="#DejaVuSans-Oblique-73" transform="translate(1095.166016 0.578125)"/>
      <use xlink:href="#DejaVuSans-2f" transform="translate(1147.265625 0.578125)"/>
      <use xlink:href="#STIXSizeOneSym-Regular-221a" transform="translate(1180.957031 17.09375) scale(0.563912)"/>
      <use xlink:href="#DejaVuSans-Oblique-48" transform="translate(1253.045395 0.84375)"/>
      <use xlink:href="#DejaVuSans-Oblique-7a" transform="translate(1328.240707 0.84375)"/>
      <use xlink:href="#DejaVuSans-29" transform="translate(1393.230942 0.578125)"/>
      <path d="M 1240.545395 97.5 
L 1240.545395 103.75 
L 1393.230942 103.75 
L 1393.230942 97.5 
L 1240.545395 97.5 
z
"/>
     </g>
    </g>
   </g>
   <g id="line2d_31">
    <path d="M 73.832727 228.623204 
L 74.466818 125.929957 
L 75.100909 53.568 
L 75.735 78.196788 
L 76.369091 113.737691 
L 77.003182 117.452735 
L 77.637273 143.336506 
L 78.271364 185.47086 
L 78.905455 201.292877 
L 79.539545 208.196744 
L 80.173636 212.514067 
L 80.807727 220.466616 
L 81.441818 235.069078 
L 82.075909 236.283246 
L 82.71 232.54697 
L 83.344091 237.981026 
L 83.978182 252.07989 
L 84.612273 258.505295 
L 85.246364 259.492675 
L 85.880455 251.756975 
L 86.514545 246.118633 
L 87.148636 251.731974 
L 87.782727 258.758857 
L 88.416818 261.75021 
L 89.050909 266.295358 
L 89.685 272.559808 
L 90.319091 275.724305 
L 90.953182 275.754731 
L 91.587273 273.726257 
L 92.221364 273.246198 
L 92.855455 275.043707 
L 93.489545 278.328479 
L 94.123636 279.636532 
L 94.757727 279.240158 
L 95.391818 281.600217 
L 96.025909 277.726567 
L 96.66 275.687688 
L 97.294091 275.23031 
L 97.928182 277.302438 
L 98.562273 278.835804 
L 99.196364 278.594708 
L 100.464545 282.563595 
L 101.098636 282.580227 
L 101.732727 284.750633 
L 102.366818 285.105853 
L 103.000909 286.298066 
L 103.635 285.065914 
L 104.269091 284.662077 
L 104.903182 284.584098 
L 105.537273 285.295103 
L 106.171364 284.969532 
L 106.805455 284.456972 
L 107.439545 284.579036 
L 108.073636 286.049781 
L 108.707727 286.21389 
L 109.341818 285.195848 
L 109.975909 283.768568 
L 110.61 285.155919 
L 111.244091 284.114019 
L 111.878182 286.163102 
L 112.512273 287.782207 
L 113.146364 287.304776 
L 113.780455 287.036786 
L 114.414545 287.855505 
L 115.048636 287.303678 
L 115.682727 287.765628 
L 116.316818 289.249763 
L 116.950909 287.5835 
L 118.219091 288.291324 
L 118.853182 289.448813 
L 119.487273 289.059376 
L 120.121364 289.650256 
L 120.755455 290.623474 
L 121.389545 289.036749 
L 122.023636 289.305368 
L 122.657727 289.95483 
L 123.291818 290.427764 
L 123.925909 290.38923 
L 124.56 289.642154 
L 125.194091 289.535693 
L 125.828182 290.481265 
L 126.462273 290.105063 
L 127.096364 289.930098 
L 127.730455 290.084094 
L 128.364545 290.363996 
L 128.998636 291.001774 
L 129.632727 291.400033 
L 130.266818 292.101498 
L 130.900909 292.426781 
L 131.535 293.064883 
L 132.169091 291.631162 
L 132.803182 290.837557 
L 133.437273 292.407793 
L 134.071364 292.83481 
L 134.705455 291.990496 
L 135.339545 291.527457 
L 135.973636 292.210819 
L 136.607727 292.131062 
L 137.241818 291.298173 
L 138.51 292.237961 
L 139.144091 292.74791 
L 139.778182 292.906838 
L 140.412273 292.839862 
L 141.046364 293.269961 
L 141.680455 293.132154 
L 142.948636 293.508224 
L 143.582727 293.795534 
L 146.119091 293.554402 
L 146.753182 293.58233 
L 147.387273 293.110301 
L 148.021364 293.7421 
L 148.655455 293.612447 
L 149.289545 293.637117 
L 149.923636 294.119794 
L 150.557727 293.813748 
L 151.825909 294.180248 
L 152.46 293.493535 
L 155.630455 294.043683 
L 156.264545 293.735773 
L 156.898636 293.802112 
L 157.532727 294.239278 
L 158.800909 294.380998 
L 159.435 294.763332 
L 160.069091 294.754336 
L 160.703182 294.166458 
L 161.337273 294.479951 
L 161.971364 294.511847 
L 162.605455 294.28138 
L 163.873636 294.651436 
L 164.507727 294.934562 
L 165.141818 294.593807 
L 165.775909 294.689371 
L 166.41 294.637625 
L 167.044091 294.296575 
L 168.946364 294.384408 
L 170.214545 295.009885 
L 170.848636 294.744627 
L 171.482727 294.624745 
L 172.750909 295.002107 
L 175.287273 294.461263 
L 176.555455 294.447086 
L 177.823636 293.964376 
L 178.457727 294.035402 
L 179.091818 293.714812 
L 179.725909 293.649323 
L 180.36 294.284043 
L 180.994091 294.3938 
L 181.628182 294.071813 
L 182.896364 294.611521 
L 184.164545 293.861985 
L 185.432727 294.47344 
L 187.335 294.35599 
L 188.603182 293.905093 
L 189.237273 293.988265 
L 190.505455 294.72911 
L 192.407727 294.48734 
L 193.041818 294.076016 
L 193.675909 294.043976 
L 194.31 294.311449 
L 194.944091 294.881045 
L 195.578182 294.842587 
L 196.846364 294.44951 
L 197.480455 294.68579 
L 198.114545 294.508952 
L 198.748636 294.62607 
L 199.382727 294.614706 
L 200.016818 294.913808 
L 201.285 294.753982 
L 201.919091 295.294125 
L 202.553182 295.101495 
L 203.187273 295.245007 
L 203.821364 295.133541 
L 204.455455 295.142817 
L 205.089545 295.267418 
L 206.357727 294.872176 
L 207.625909 295.160647 
L 208.26 295.444496 
L 208.894091 295.488 
L 209.528182 295.405795 
L 210.162273 294.817196 
L 210.796364 294.80305 
L 211.430455 295.004692 
L 212.064545 294.758645 
L 213.332727 295.142955 
L 213.966818 294.763508 
L 214.600909 294.669741 
L 215.235 294.993102 
L 215.869091 294.815373 
L 216.503182 294.474104 
L 217.137273 295.060692 
L 217.771364 295.283666 
L 218.405455 295.295691 
L 219.673636 294.883921 
L 220.307727 294.869175 
L 220.941818 295.113285 
L 221.575909 295.215395 
L 222.21 295.190352 
L 222.844091 294.973547 
L 223.478182 295.211481 
L 224.112273 294.74923 
L 225.380455 294.779662 
L 226.648636 294.591843 
L 227.282727 294.848047 
L 228.550909 294.142913 
L 229.185 294.471282 
L 230.453182 294.727028 
L 231.087273 294.356966 
L 232.355455 294.180599 
L 232.989545 293.554038 
L 233.623636 293.283603 
L 234.257727 292.776785 
L 234.891818 292.861025 
L 236.794091 291.804259 
L 237.428182 292.198873 
L 238.062273 292.222746 
L 238.696364 292.927129 
L 239.964545 293.504161 
L 241.232727 292.761204 
L 241.866818 292.866108 
L 243.135 293.937469 
L 243.769091 293.731404 
L 244.403182 293.914119 
L 245.037273 293.89507 
L 246.305455 293.498378 
L 247.573636 294.112094 
L 248.207727 293.604816 
L 248.841818 294.005029 
L 249.475909 294.131267 
L 250.744091 293.596827 
L 251.378182 293.874416 
L 252.012273 293.767938 
L 252.646364 293.832723 
L 253.280455 293.720102 
L 253.914545 293.769897 
L 254.548636 293.519537 
L 256.450909 293.329799 
L 257.085 293.592508 
L 257.719091 293.624385 
L 258.353182 293.949263 
L 259.621364 293.233414 
L 260.255455 292.972687 
L 260.889545 293.700275 
L 261.523636 293.678673 
L 262.157727 293.090055 
L 262.791818 293.68117 
L 263.425909 293.740626 
L 264.06 293.659424 
L 264.694091 293.93306 
L 265.328182 293.081715 
L 265.962273 292.638655 
L 266.596364 293.259558 
L 267.864545 293.65902 
L 268.498636 293.284308 
L 269.132727 292.320233 
L 269.766818 292.237194 
L 270.400909 292.696158 
L 271.035 292.846334 
L 271.669091 292.251237 
L 272.937273 292.119739 
L 273.571364 291.791295 
L 274.205455 291.88842 
L 274.839545 292.171745 
L 275.473636 292.763824 
L 276.107727 292.068267 
L 276.741818 292.064881 
L 277.375909 292.721169 
L 278.01 291.835378 
L 278.644091 291.769009 
L 279.278182 292.02099 
L 279.912273 292.57777 
L 280.546364 291.439894 
L 281.180455 291.389587 
L 281.814545 291.006412 
L 282.448636 290.284757 
L 283.082727 290.511591 
L 284.985 290.562948 
L 285.619091 290.430927 
L 286.253182 289.848518 
L 286.887273 289.646738 
L 287.521364 288.614134 
L 288.155455 288.253808 
L 288.789545 288.895176 
L 289.423636 286.952983 
L 290.057727 286.373121 
L 291.325909 288.255812 
L 291.96 288.509279 
L 292.594091 286.474852 
L 293.228182 284.814863 
L 293.862273 285.132859 
L 295.130455 282.803009 
L 295.764545 282.766048 
L 296.398636 281.098567 
L 297.032727 280.331261 
L 297.666818 283.221113 
L 298.300909 282.638128 
L 298.935 281.13104 
L 299.569091 280.712457 
L 300.203182 279.317738 
L 300.837273 282.134341 
L 301.471364 283.083377 
L 302.105455 281.427753 
L 302.739545 276.773852 
L 303.373636 276.690469 
L 304.007727 277.634962 
L 304.641818 280.68662 
L 305.275909 279.183733 
L 307.178182 271.557351 
L 307.812273 272.350107 
L 308.446364 273.450952 
L 309.080455 271.460053 
L 310.348636 268.866105 
L 310.982727 268.569969 
L 311.616818 268.101673 
L 312.250909 265.235597 
L 312.885 264.908029 
L 313.519091 263.713703 
L 314.153182 258.488578 
L 314.787273 250.944471 
L 315.421364 247.424052 
L 316.055455 245.795588 
L 316.689545 244.636113 
L 317.323636 241.297093 
L 317.957727 242.884487 
L 318.591818 246.046395 
L 319.225909 242.473269 
L 319.86 245.193934 
L 320.494091 254.391928 
L 321.128182 259.771236 
L 321.762273 258.988766 
L 322.396364 263.165175 
L 323.030455 262.808383 
L 323.664545 262.713032 
L 324.298636 268.129736 
L 324.932727 267.822114 
L 325.566818 266.371745 
L 326.200909 266.506686 
L 326.835 262.720996 
L 327.469091 262.917134 
L 328.737273 258.143038 
L 329.371364 252.909985 
L 330.005455 252.71589 
L 331.273636 264.593269 
L 331.907727 260.083062 
L 332.541818 261.91023 
L 333.175909 257.547699 
L 333.81 258.970069 
L 334.444091 264.254677 
L 335.078182 267.034268 
L 335.712273 268.32162 
L 336.346364 270.063913 
L 336.980455 272.264606 
L 337.614545 273.11419 
L 338.248636 274.228058 
L 338.882727 274.253159 
L 339.516818 277.624414 
L 340.785 277.023979 
L 341.419091 277.14664 
L 342.053182 279.424903 
L 343.321364 282.363576 
L 343.955455 283.08793 
L 344.589545 283.987094 
L 345.223636 281.807463 
L 345.857727 281.778463 
L 346.491818 282.122119 
L 347.125909 283.821348 
L 347.76 284.71288 
L 348.394091 284.352399 
L 349.028182 284.927772 
L 349.662273 283.859435 
L 350.296364 285.11549 
L 350.930455 287.007726 
L 351.564545 285.656331 
L 352.198636 285.362983 
L 352.832727 285.859056 
L 353.466818 286.095431 
L 354.100909 285.650934 
L 355.369091 286.640339 
L 356.003182 286.071679 
L 356.637273 287.119665 
L 357.271364 287.22774 
L 357.905455 285.754408 
L 358.539545 286.559267 
L 359.173636 286.887889 
L 360.441818 286.944142 
L 361.075909 287.456636 
L 361.71 286.744217 
L 362.344091 286.975858 
L 362.978182 287.337809 
L 363.612273 287.337899 
L 364.246364 286.480871 
L 364.880455 287.962187 
L 365.514545 288.810788 
L 366.782727 288.144718 
L 367.416818 287.38417 
L 368.050909 285.408228 
L 368.685 286.434096 
L 369.319091 286.863279 
L 369.953182 285.020531 
L 370.587273 285.097111 
L 371.221364 285.351275 
L 371.855455 284.814197 
L 372.489545 284.77314 
L 373.123636 284.88398 
L 373.757727 285.821223 
L 374.391818 286.114394 
L 375.025909 284.427145 
L 375.66 285.178764 
L 376.294091 284.187978 
L 376.928182 285.128755 
L 377.562273 286.273817 
L 378.196364 286.318435 
L 378.830455 283.902862 
L 379.464545 285.526359 
L 380.098636 285.981667 
L 380.732727 285.860934 
L 381.366818 284.529294 
L 382.000909 282.323235 
L 382.635 284.095788 
L 383.269091 283.91881 
L 383.903182 284.0885 
L 384.537273 283.728869 
L 385.171364 285.896228 
L 385.805455 285.518633 
L 386.439545 283.519607 
L 387.707727 283.556285 
L 388.341818 285.405249 
L 388.975909 284.07285 
L 389.61 283.787891 
L 390.244091 283.702826 
L 390.878182 284.883393 
L 391.512273 284.089772 
L 392.146364 284.485451 
L 392.780455 284.284248 
L 393.414545 285.058517 
L 394.048636 284.825105 
L 394.682727 284.765988 
L 395.950909 285.639128 
L 397.219091 285.382856 
L 397.853182 285.036555 
L 398.487273 289.748871 
L 398.487273 289.748871 
" clip-path="url(#p7c5c90f8b6)" style="fill: none; stroke: #1f77b4; stroke-width: 1.5; stroke-linecap: square"/>
   </g>
   <g id="line2d_32">
    <path d="M 73.832727 276.235408 
L 74.466818 257.436692 
L 75.100909 252.657085 
L 75.735 255.059989 
L 76.369091 263.324574 
L 77.003182 267.89368 
L 77.637273 269.399632 
L 78.271364 271.614043 
L 79.539545 278.084778 
L 80.173636 275.905484 
L 80.807727 275.233204 
L 81.441818 279.451151 
L 82.075909 279.636699 
L 82.71 277.659015 
L 83.344091 278.309095 
L 83.978182 280.570714 
L 84.612273 280.171961 
L 85.880455 280.713268 
L 87.148636 278.773892 
L 87.782727 278.789355 
L 88.416818 278.611047 
L 89.050909 282.235459 
L 89.685 282.167947 
L 90.319091 280.918447 
L 90.953182 281.114185 
L 91.587273 281.543047 
L 92.221364 281.143081 
L 93.489545 283.609273 
L 94.123636 281.758316 
L 94.757727 283.578022 
L 95.391818 284.989354 
L 96.025909 283.42631 
L 96.66 283.679908 
L 97.294091 284.170015 
L 97.928182 284.097385 
L 98.562273 284.758347 
L 99.196364 284.76665 
L 99.830455 285.363639 
L 100.464545 285.423805 
L 101.098636 286.928183 
L 101.732727 286.879901 
L 102.366818 287.098691 
L 103.000909 286.895053 
L 103.635 286.997804 
L 104.269091 287.233725 
L 104.903182 288.55728 
L 106.171364 289.163183 
L 106.805455 288.620759 
L 107.439545 289.027185 
L 108.073636 288.306428 
L 108.707727 289.415889 
L 109.341818 289.089297 
L 109.975909 288.567859 
L 110.61 289.392064 
L 111.244091 289.327931 
L 111.878182 289.429399 
L 112.512273 290.171768 
L 113.146364 290.503213 
L 114.414545 290.848701 
L 115.048636 291.615746 
L 115.682727 291.088087 
L 116.316818 290.17917 
L 117.585 291.106918 
L 118.219091 290.968663 
L 118.853182 291.291312 
L 119.487273 291.093955 
L 120.121364 291.867107 
L 120.755455 291.742347 
L 122.023636 292.524949 
L 122.657727 292.678067 
L 123.291818 293.376798 
L 123.925909 292.485957 
L 124.56 292.727935 
L 125.194091 292.662559 
L 125.828182 292.11365 
L 126.462273 292.824219 
L 127.096364 292.494824 
L 127.730455 292.448864 
L 128.364545 292.997316 
L 128.998636 293.209443 
L 129.632727 292.945153 
L 130.266818 292.981772 
L 130.900909 293.639877 
L 131.535 293.679871 
L 132.169091 293.2061 
L 133.437273 293.411496 
L 134.071364 293.063722 
L 134.705455 293.375636 
L 135.339545 294.136963 
L 135.973636 294.319454 
L 136.607727 293.83854 
L 137.241818 293.91298 
L 137.875909 293.634681 
L 138.51 293.56837 
L 139.778182 294.303643 
L 140.412273 293.846685 
L 143.582727 294.367124 
L 144.216818 293.94323 
L 144.850909 293.968246 
L 145.485 294.635099 
L 146.753182 293.998606 
L 147.387273 294.549705 
L 148.021364 294.537636 
L 148.655455 294.100139 
L 149.289545 294.445738 
L 150.557727 294.096947 
L 151.825909 294.449509 
L 153.094091 294.474981 
L 153.728182 294.711695 
L 154.362273 294.590569 
L 155.630455 294.780403 
L 156.264545 294.896495 
L 156.898636 294.8957 
L 157.532727 294.455524 
L 158.166818 294.370908 
L 158.800909 294.720852 
L 160.069091 294.288556 
L 161.337273 294.619509 
L 161.971364 295.033372 
L 162.605455 294.968936 
L 163.239545 294.754771 
L 164.507727 294.851985 
L 165.141818 295.005471 
L 166.41 294.7487 
L 167.044091 295.090363 
L 168.946364 294.79204 
L 169.580455 294.97552 
L 170.848636 294.966748 
L 171.482727 295.152549 
L 172.116818 295.138356 
L 173.385 294.580068 
L 174.019091 294.937194 
L 174.653182 295.049395 
L 175.287273 294.995498 
L 175.921364 294.369373 
L 176.555455 294.173266 
L 177.189545 294.727663 
L 177.823636 294.924856 
L 178.457727 294.532602 
L 179.725909 294.802574 
L 180.994091 294.931948 
L 181.628182 294.715327 
L 182.262273 294.84564 
L 183.530455 294.926219 
L 184.164545 294.43439 
L 185.432727 294.943813 
L 186.066818 294.866022 
L 186.700909 294.545876 
L 187.969091 294.62586 
L 188.603182 294.265327 
L 189.237273 294.517403 
L 189.871364 294.893198 
L 190.505455 295.00825 
L 191.139545 294.693377 
L 191.773636 295.00924 
L 192.407727 294.856677 
L 193.041818 294.459887 
L 193.675909 294.517375 
L 194.31 294.986567 
L 194.944091 295.230984 
L 196.846364 294.903356 
L 197.480455 295.077016 
L 200.016818 294.971948 
L 200.650909 295.233713 
L 201.285 295.247617 
L 201.919091 295.07164 
L 203.821364 295.214724 
L 204.455455 294.977112 
L 207.625909 294.798726 
L 208.26 295.081104 
L 209.528182 294.560411 
L 210.162273 294.675552 
L 210.796364 295.044154 
L 211.430455 294.916079 
L 212.064545 294.937279 
L 213.332727 294.381393 
L 213.966818 294.668161 
L 214.600909 294.625422 
L 215.235 294.380649 
L 215.869091 294.33625 
L 216.503182 294.411051 
L 217.137273 294.615419 
L 217.771364 294.243451 
L 218.405455 294.249032 
L 219.039545 294.487716 
L 219.673636 294.584741 
L 222.21 294.291389 
L 222.844091 293.985676 
L 223.478182 293.957433 
L 224.112273 293.426007 
L 226.014545 293.355243 
L 226.648636 293.071307 
L 227.282727 293.044333 
L 227.916818 292.875566 
L 229.819091 291.775094 
L 231.087273 292.225379 
L 231.721364 291.840294 
L 232.355455 291.02207 
L 232.989545 289.819593 
L 233.623636 289.034225 
L 235.525909 285.085785 
L 236.16 284.896606 
L 236.794091 283.721541 
L 237.428182 283.929132 
L 238.062273 285.405874 
L 238.696364 287.516921 
L 239.330455 288.404457 
L 239.964545 290.428808 
L 240.598636 290.653206 
L 241.232727 290.133594 
L 241.866818 290.751008 
L 242.500909 291.108721 
L 243.135 292.420073 
L 243.769091 292.590817 
L 244.403182 292.205263 
L 245.037273 292.760407 
L 245.671364 292.780443 
L 246.305455 293.033571 
L 246.939545 293.112254 
L 247.573636 293.050369 
L 248.207727 293.457227 
L 248.841818 293.415468 
L 249.475909 293.678617 
L 252.012273 294.138066 
L 253.280455 294.260102 
L 254.548636 293.920464 
L 255.816818 293.99106 
L 256.450909 294.191802 
L 257.085 294.242403 
L 257.719091 294.097726 
L 258.353182 294.093247 
L 258.987273 294.566985 
L 259.621364 294.465363 
L 260.255455 293.33374 
L 260.889545 293.681891 
L 261.523636 294.279833 
L 262.157727 294.509267 
L 264.06 293.757086 
L 264.694091 294.156847 
L 265.328182 294.31395 
L 265.962273 293.879966 
L 266.596364 294.114915 
L 267.230455 293.695429 
L 269.132727 293.55519 
L 269.766818 293.284048 
L 271.035 293.529775 
L 271.669091 293.83578 
L 272.937273 293.511274 
L 274.205455 293.827374 
L 274.839545 293.304883 
L 275.473636 293.378073 
L 276.107727 292.972402 
L 276.741818 293.313081 
L 277.375909 292.952197 
L 278.01 292.184009 
L 278.644091 292.548559 
L 279.278182 292.693959 
L 279.912273 291.787178 
L 280.546364 291.213462 
L 281.180455 290.866372 
L 282.448636 290.470537 
L 283.082727 288.055887 
L 283.716818 287.290054 
L 284.350909 287.809092 
L 284.985 286.984202 
L 285.619091 285.500249 
L 286.253182 285.231006 
L 286.887273 284.299948 
L 287.521364 279.460196 
L 288.155455 278.786841 
L 288.789545 274.902015 
L 289.423636 273.734397 
L 291.325909 277.659581 
L 291.96 275.592198 
L 292.594091 271.151756 
L 293.228182 269.964699 
L 293.862273 271.517749 
L 295.130455 262.597845 
L 295.764545 262.366072 
L 296.398636 264.42311 
L 297.032727 263.542792 
L 297.666818 266.634651 
L 298.935 261.299954 
L 300.203182 261.868912 
L 300.837273 263.829079 
L 301.471364 264.847218 
L 302.105455 263.935235 
L 302.739545 258.591806 
L 304.641818 268.618923 
L 305.275909 266.253228 
L 305.91 265.499357 
L 306.544091 266.078864 
L 307.178182 260.037654 
L 307.812273 256.22334 
L 308.446364 258.551353 
L 309.080455 261.896399 
L 309.714545 257.456288 
L 310.348636 251.666794 
L 311.616818 260.47035 
L 312.250909 262.386948 
L 312.885 263.43174 
L 313.519091 263.812495 
L 314.153182 259.206038 
L 314.787273 253.391981 
L 315.421364 252.145028 
L 316.689545 248.255658 
L 317.323636 241.762779 
L 318.591818 245.31724 
L 319.225909 239.799546 
L 319.86 242.272301 
L 320.494091 250.104944 
L 321.128182 250.984381 
L 321.762273 254.642477 
L 322.396364 259.056736 
L 323.030455 256.968161 
L 324.298636 263.28554 
L 324.932727 262.443074 
L 325.566818 259.565406 
L 326.200909 262.894689 
L 326.835 265.574721 
L 327.469091 262.038141 
L 328.103182 261.509136 
L 329.371364 266.063547 
L 330.005455 267.552308 
L 330.639545 268.677923 
L 331.273636 273.788618 
L 332.541818 277.335456 
L 333.175909 274.448087 
L 334.444091 280.871676 
L 336.980455 283.142477 
L 337.614545 284.531282 
L 338.248636 286.627114 
L 338.882727 286.797671 
L 339.516818 286.054337 
L 340.150909 286.194187 
L 340.785 289.048472 
L 341.419091 289.859795 
L 342.053182 289.502149 
L 342.687273 289.58396 
L 343.321364 288.349532 
L 343.955455 288.413215 
L 345.223636 290.335905 
L 345.857727 289.691186 
L 346.491818 290.336338 
L 347.125909 290.46271 
L 347.76 289.498382 
L 348.394091 290.18094 
L 349.028182 289.766062 
L 349.662273 290.058146 
L 350.296364 290.700177 
L 351.564545 291.606372 
L 352.198636 292.160307 
L 352.832727 291.312376 
L 354.100909 290.886331 
L 354.735 291.142906 
L 355.369091 292.064826 
L 356.003182 291.028864 
L 356.637273 291.356335 
L 357.271364 290.834951 
L 357.905455 291.397799 
L 358.539545 291.46841 
L 359.173636 291.415239 
L 359.807727 291.095233 
L 360.441818 291.255568 
L 361.075909 292.363701 
L 362.978182 291.999374 
L 363.612273 291.270196 
L 364.246364 290.989014 
L 364.880455 291.492757 
L 365.514545 291.346463 
L 366.148636 290.730448 
L 366.782727 290.541881 
L 367.416818 291.10415 
L 368.050909 290.05673 
L 368.685 289.472914 
L 369.319091 289.046658 
L 369.953182 289.429215 
L 370.587273 290.416613 
L 371.221364 290.991 
L 371.855455 288.760301 
L 372.489545 287.722247 
L 373.123636 288.760025 
L 373.757727 289.12835 
L 375.025909 289.471656 
L 375.66 289.001938 
L 376.294091 288.893212 
L 376.928182 289.296902 
L 377.562273 288.08007 
L 378.830455 287.949723 
L 379.464545 288.256689 
L 380.098636 288.913069 
L 380.732727 287.575376 
L 381.366818 286.852007 
L 382.000909 287.091276 
L 382.635 287.67473 
L 383.269091 287.680203 
L 383.903182 285.928144 
L 384.537273 285.095425 
L 385.805455 286.804518 
L 386.439545 285.198738 
L 387.073636 284.541227 
L 387.707727 285.104523 
L 388.341818 285.907808 
L 388.975909 287.453575 
L 389.61 286.148185 
L 390.244091 282.707318 
L 390.878182 282.783203 
L 391.512273 282.652666 
L 392.146364 282.279444 
L 392.780455 282.837165 
L 393.414545 283.944118 
L 394.048636 283.939907 
L 394.682727 284.092381 
L 395.316818 282.179916 
L 395.950909 283.499565 
L 396.585 283.86331 
L 397.219091 282.607409 
L 397.853182 281.785763 
L 398.487273 286.253502 
L 398.487273 286.253502 
" clip-path="url(#p7c5c90f8b6)" style="fill: none; stroke: #ff7f0e; stroke-width: 1.5; stroke-linecap: square"/>
   </g>
   <g id="line2d_33">
    <path d="M 73.832727 216.506421 
L 75.100909 72.436495 
L 75.735 57.827802 
L 76.369091 80.026794 
L 77.003182 75.428728 
L 79.539545 195.299757 
L 80.173636 182.779261 
L 80.807727 200.863924 
L 81.441818 223.634648 
L 82.075909 223.018868 
L 82.71 228.978002 
L 83.344091 229.592691 
L 84.612273 244.590363 
L 85.246364 249.059203 
L 85.880455 246.537613 
L 86.514545 251.785937 
L 87.148636 260.252586 
L 87.782727 261.448749 
L 88.416818 258.473007 
L 89.050909 263.955202 
L 89.685 265.888717 
L 90.319091 264.753984 
L 90.953182 268.021144 
L 91.587273 268.993019 
L 92.221364 269.35817 
L 92.855455 270.925307 
L 93.489545 273.875847 
L 94.123636 275.364379 
L 94.757727 273.649601 
L 95.391818 272.570243 
L 96.025909 274.560412 
L 96.66 274.198358 
L 97.294091 272.82581 
L 98.562273 279.232784 
L 99.196364 278.4706 
L 99.830455 280.135996 
L 100.464545 280.554485 
L 101.098636 279.307149 
L 101.732727 281.773352 
L 102.366818 281.330301 
L 103.000909 276.696749 
L 103.635 276.713629 
L 104.269091 278.819313 
L 104.903182 281.52022 
L 105.537273 282.560408 
L 106.171364 280.096288 
L 106.805455 282.269432 
L 107.439545 281.769133 
L 108.073636 281.622913 
L 108.707727 281.230547 
L 109.341818 281.193749 
L 109.975909 280.634902 
L 110.61 280.748742 
L 111.244091 282.948723 
L 111.878182 284.630292 
L 112.512273 284.573412 
L 113.146364 285.649699 
L 114.414545 283.829382 
L 115.048636 283.846021 
L 115.682727 284.866994 
L 116.950909 285.243622 
L 117.585 284.797364 
L 118.219091 286.478292 
L 118.853182 285.391681 
L 119.487273 283.641164 
L 120.121364 284.7402 
L 120.755455 283.903346 
L 121.389545 283.920008 
L 122.023636 284.130589 
L 122.657727 283.450856 
L 123.925909 286.027279 
L 124.56 284.959164 
L 125.828182 286.703662 
L 126.462273 286.302678 
L 127.096364 287.772619 
L 127.730455 286.671983 
L 128.364545 286.845965 
L 128.998636 286.483828 
L 129.632727 287.458811 
L 130.900909 287.202175 
L 131.535 287.899543 
L 132.169091 287.478131 
L 132.803182 288.426962 
L 133.437273 290.326608 
L 134.071364 289.856119 
L 134.705455 288.322666 
L 135.339545 288.509062 
L 135.973636 289.518737 
L 136.607727 290.016719 
L 137.241818 288.977112 
L 137.875909 288.800854 
L 138.51 289.213363 
L 139.144091 290.349684 
L 139.778182 290.236873 
L 140.412273 290.742477 
L 141.046364 290.449832 
L 141.680455 290.498863 
L 142.314545 290.407601 
L 142.948636 290.472464 
L 143.582727 291.496309 
L 144.216818 292.112543 
L 144.850909 291.895609 
L 145.485 290.978238 
L 146.119091 291.463079 
L 146.753182 292.302292 
L 147.387273 292.643854 
L 148.021364 292.774048 
L 148.655455 292.243787 
L 149.923636 292.088972 
L 150.557727 292.687681 
L 151.191818 292.781951 
L 152.46 293.331868 
L 153.094091 292.702373 
L 153.728182 292.853027 
L 154.362273 293.795123 
L 154.996364 293.715363 
L 155.630455 293.226588 
L 156.264545 293.733585 
L 156.898636 293.78154 
L 157.532727 293.54809 
L 158.166818 293.488272 
L 158.800909 293.768124 
L 159.435 293.631407 
L 160.069091 293.965865 
L 160.703182 294.160346 
L 161.337273 293.726815 
L 161.971364 293.99814 
L 162.605455 294.58186 
L 163.239545 294.284596 
L 163.873636 293.705573 
L 164.507727 293.836046 
L 165.141818 294.10969 
L 165.775909 293.86611 
L 167.678182 294.060962 
L 168.312273 294.013662 
L 170.214545 293.272979 
L 170.848636 293.258315 
L 172.750909 292.750087 
L 173.385 291.400321 
L 174.019091 290.572964 
L 174.653182 289.429234 
L 175.287273 289.935587 
L 175.921364 290.133934 
L 176.555455 286.905335 
L 177.189545 287.712351 
L 177.823636 287.721093 
L 178.457727 288.536849 
L 179.091818 288.044567 
L 179.725909 287.767509 
L 180.36 288.311405 
L 180.994091 288.335698 
L 181.628182 287.945873 
L 182.262273 288.059727 
L 182.896364 288.348 
L 183.530455 288.219672 
L 184.164545 287.073029 
L 184.798636 288.074773 
L 185.432727 289.476492 
L 186.066818 290.339559 
L 186.700909 290.757468 
L 187.969091 287.727806 
L 188.603182 287.125473 
L 189.237273 287.231936 
L 189.871364 287.844975 
L 190.505455 289.548875 
L 191.139545 289.042569 
L 191.773636 288.016545 
L 192.407727 289.100741 
L 193.041818 289.019306 
L 193.675909 288.82547 
L 194.31 288.938885 
L 194.944091 291.083054 
L 195.578182 292.537203 
L 196.846364 289.561099 
L 197.480455 291.876546 
L 198.114545 293.461332 
L 198.748636 293.04744 
L 199.382727 293.400804 
L 200.016818 294.275729 
L 200.650909 294.222759 
L 202.553182 294.45826 
L 203.187273 294.657839 
L 203.821364 295.100723 
L 204.455455 294.810622 
L 205.089545 294.738125 
L 206.357727 294.881549 
L 206.991818 294.469867 
L 207.625909 294.497791 
L 208.26 294.316883 
L 208.894091 294.62091 
L 210.796364 294.618816 
L 211.430455 294.342611 
L 212.064545 294.40573 
L 212.698636 294.058156 
L 213.966818 293.788206 
L 214.600909 293.895285 
L 215.235 293.362051 
L 217.771364 293.414635 
L 218.405455 293.542 
L 219.039545 293.32978 
L 219.673636 292.685286 
L 220.307727 292.34175 
L 220.941818 292.394767 
L 222.21 291.823019 
L 222.844091 292.056211 
L 224.112273 291.205454 
L 224.746364 290.992844 
L 225.380455 290.403707 
L 226.014545 290.265249 
L 227.282727 289.075851 
L 227.916818 288.565964 
L 229.819091 286.183989 
L 230.453182 286.050869 
L 231.087273 286.488329 
L 231.721364 286.432439 
L 232.355455 284.461907 
L 232.989545 280.996514 
L 233.623636 278.949788 
L 235.525909 270.027842 
L 236.16 268.93325 
L 236.794091 266.541367 
L 237.428182 266.941769 
L 238.062273 269.596406 
L 238.696364 274.385141 
L 239.330455 276.671853 
L 239.964545 281.382123 
L 240.598636 281.36368 
L 241.232727 279.59335 
L 243.135 286.136506 
L 243.769091 286.571915 
L 244.403182 285.757899 
L 245.037273 286.663554 
L 245.671364 287.231829 
L 246.305455 288.598303 
L 246.939545 288.887177 
L 247.573636 288.707482 
L 248.207727 289.713946 
L 248.841818 289.004856 
L 249.475909 289.641473 
L 250.11 289.841452 
L 250.744091 290.583757 
L 251.378182 291.943992 
L 252.012273 291.598001 
L 252.646364 291.49103 
L 253.280455 291.81171 
L 253.914545 291.611383 
L 254.548636 291.190065 
L 255.182727 291.433943 
L 256.450909 292.452947 
L 257.085 291.880385 
L 257.719091 291.711787 
L 258.987273 292.779688 
L 259.621364 292.600886 
L 260.255455 292.189333 
L 262.157727 292.213512 
L 262.791818 292.61394 
L 263.425909 292.319969 
L 264.694091 292.618965 
L 265.328182 292.472254 
L 266.596364 292.638241 
L 267.230455 293.095732 
L 267.864545 293.157498 
L 268.498636 293.053445 
L 269.766818 292.007091 
L 270.400909 292.161277 
L 271.035 292.913261 
L 271.669091 292.804268 
L 272.303182 292.906846 
L 272.937273 292.598137 
L 273.571364 292.158727 
L 274.839545 293.647659 
L 276.741818 293.112733 
L 277.375909 293.324142 
L 278.01 292.635299 
L 278.644091 292.631351 
L 279.912273 293.053851 
L 280.546364 292.545971 
L 281.814545 292.266139 
L 282.448636 292.302025 
L 283.082727 291.885195 
L 283.716818 291.241493 
L 284.350909 291.761675 
L 284.985 291.478548 
L 285.619091 290.565848 
L 286.253182 290.780582 
L 286.887273 290.017585 
L 287.521364 288.88367 
L 288.155455 289.006022 
L 288.789545 287.851245 
L 289.423636 286.928807 
L 290.057727 288.019496 
L 290.691818 288.677842 
L 291.96 288.968465 
L 292.594091 286.729755 
L 293.228182 285.106937 
L 293.862273 286.778362 
L 294.496364 285.222497 
L 295.130455 282.728271 
L 295.764545 282.479309 
L 296.398636 282.088682 
L 297.032727 281.486056 
L 297.666818 284.145139 
L 298.300909 283.631444 
L 300.203182 280.549989 
L 300.837273 281.991581 
L 301.471364 283.831905 
L 302.105455 283.166264 
L 302.739545 279.892785 
L 303.373636 281.069532 
L 304.007727 281.198039 
L 304.641818 283.354853 
L 305.91 281.063437 
L 306.544091 280.589408 
L 307.178182 276.702569 
L 307.812273 275.772015 
L 308.446364 277.327324 
L 309.080455 276.334123 
L 310.348636 272.017006 
L 310.982727 273.524856 
L 311.616818 274.358309 
L 312.250909 274.507527 
L 312.885 275.484568 
L 313.519091 274.203771 
L 314.787273 265.062365 
L 315.421364 263.405452 
L 316.055455 262.566093 
L 316.689545 260.797958 
L 317.323636 257.136689 
L 317.957727 258.542256 
L 318.591818 260.830853 
L 319.225909 258.015056 
L 319.86 260.084908 
L 320.494091 265.633801 
L 321.128182 269.137124 
L 321.762273 270.084688 
L 322.396364 273.14553 
L 323.030455 273.094745 
L 323.664545 275.671943 
L 324.298636 279.748875 
L 324.932727 281.235181 
L 326.835 287.703543 
L 327.469091 288.089068 
L 328.103182 286.261106 
L 329.371364 288.642705 
L 330.005455 288.088913 
L 330.639545 288.227249 
L 331.273636 289.170403 
L 331.907727 289.074555 
L 332.541818 289.789287 
L 333.175909 290.092766 
L 333.81 290.141202 
L 334.444091 290.559162 
L 335.078182 291.401946 
L 335.712273 291.448647 
L 336.346364 290.757628 
L 336.980455 291.78748 
L 337.614545 292.031893 
L 338.882727 291.888535 
L 339.516818 292.452308 
L 340.150909 292.287434 
L 340.785 292.570102 
L 341.419091 292.046983 
L 342.053182 291.806175 
L 342.687273 293.002001 
L 343.321364 293.374883 
L 343.955455 293.591952 
L 344.589545 294.042903 
L 345.857727 293.270188 
L 346.491818 293.049004 
L 347.125909 293.397712 
L 347.76 293.253634 
L 348.394091 293.224473 
L 349.028182 293.687381 
L 349.662273 293.609889 
L 350.930455 294.157081 
L 351.564545 294.117674 
L 352.198636 294.225639 
L 352.832727 293.696101 
L 354.100909 294.024463 
L 354.735 293.562881 
L 355.369091 294.158089 
L 356.003182 293.778954 
L 356.637273 293.951114 
L 357.905455 293.746136 
L 358.539545 293.883416 
L 359.173636 294.144649 
L 359.807727 293.653297 
L 360.441818 293.718706 
L 361.075909 294.154386 
L 361.71 294.109875 
L 362.978182 294.336977 
L 363.612273 293.527724 
L 364.246364 293.71272 
L 364.880455 294.099485 
L 365.514545 294.152228 
L 366.148636 293.649562 
L 366.782727 293.342737 
L 367.416818 293.308189 
L 368.050909 292.525702 
L 368.685 292.923009 
L 369.319091 293.043221 
L 369.953182 292.970043 
L 370.587273 293.504298 
L 371.221364 293.604889 
L 372.489545 292.102342 
L 373.757727 292.395164 
L 374.391818 292.285896 
L 375.025909 292.63996 
L 375.66 292.618341 
L 376.294091 292.277634 
L 376.928182 292.542312 
L 377.562273 291.760741 
L 378.830455 291.257669 
L 379.464545 291.625436 
L 380.098636 292.373452 
L 380.732727 291.317019 
L 381.366818 290.548182 
L 383.269091 291.403574 
L 383.903182 290.626548 
L 384.537273 290.66984 
L 385.171364 291.068511 
L 385.805455 291.165559 
L 386.439545 290.289876 
L 387.073636 289.942049 
L 388.341818 290.622295 
L 388.975909 290.987793 
L 389.61 290.749769 
L 390.244091 289.008286 
L 391.512273 288.950565 
L 392.146364 288.411999 
L 393.414545 289.340943 
L 394.682727 289.301461 
L 395.316818 288.172414 
L 395.950909 289.228722 
L 396.585 289.484643 
L 397.219091 288.400276 
L 397.853182 288.102162 
L 398.487273 290.677892 
L 398.487273 290.677892 
" clip-path="url(#p7c5c90f8b6)" style="fill: none; stroke: #2ca02c; stroke-width: 1.5; stroke-linecap: square"/>
   </g>
   <g id="patch_3">
    <path d="M 57.6 307.584 
L 57.6 41.472 
" style="fill: none; stroke: #000000; stroke-width: 0.8; stroke-linejoin: miter; stroke-linecap: square"/>
   </g>
   <g id="patch_4">
    <path d="M 414.72 307.584 
L 414.72 41.472 
" style="fill: none; stroke: #000000; stroke-width: 0.8; stroke-linejoin: miter; stroke-linecap: square"/>
   </g>
   <g id="patch_5">
    <path d="M 57.6 307.584 
L 414.72 307.584 
" style="fill: none; stroke: #000000; stroke-width: 0.8; stroke-linejoin: miter; stroke-linecap: square"/>
   </g>
   <g id="patch_6">
    <path d="M 57.6 41.472 
L 414.72 41.472 
" style="fill: none; stroke: #000000; stroke-width: 0.8; stroke-linejoin: miter; stroke-linecap: square"/>
   </g>
   <g id="text_18">
    <!-- Gyro Noise Spectral Density -->
    <g transform="translate(152.01 35.472) scale(0.12 -0.12)">
     <defs>
      <path id="DejaVuSans-47" d="M 3809 666 
L 3809 1919 
L 2778 1919 
L 2778 2438 
L 4434 2438 
L 4434 434 
Q 4069 175 3628 42 
Q 3188 -91 2688 -91 
Q 1594 -91 976 548 
Q 359 1188 359 2328 
Q 359 3472 976 4111 
Q 1594 4750 2688 4750 
Q 3144 4750 3555 4637 
Q 3966 4525 4313 4306 
L 4313 3634 
Q 3963 3931 3569 4081 
Q 3175 4231 2741 4231 
Q 1884 4231 1454 3753 
Q 1025 3275 1025 2328 
Q 1025 1384 1454 906 
Q 1884 428 2741 428 
Q 3075 428 3337 486 
Q 3600 544 3809 666 
z
" transform="scale(0.015625)"/>
      <path id="DejaVuSans-6f" d="M 1959 3097 
Q 1497 3097 1228 2736 
Q 959 2375 959 1747 
Q 959 1119 1226 758 
Q 1494 397 1959 397 
Q 2419 397 2687 759 
Q 2956 1122 2956 1747 
Q 2956 2369 2687 2733 
Q 2419 3097 1959 3097 
z
M 1959 3584 
Q 2709 3584 3137 3096 
Q 3566 2609 3566 1747 
Q 3566 888 3137 398 
Q 2709 -91 1959 -91 
Q 1206 -91 779 398 
Q 353 888 353 1747 
Q 353 2609 779 3096 
Q 1206 3584 1959 3584 
z
" transform="scale(0.015625)"/>
      <path id="DejaVuSans-4e" d="M 628 4666 
L 1478 4666 
L 3547 763 
L 3547 4666 
L 4159 4666 
L 4159 0 
L 3309 0 
L 1241 3903 
L 1241 0 
L 628 0 
L 628 4666 
z
" transform="scale(0.015625)"/>
     </defs>
     <use xlink:href="#DejaVuSans-47"/>
     <use xlink:href="#DejaVuSans-79" x="77.490234"/>
     <use xlink:href="#DejaVuSans-72" x="136.669922"/>
     <use xlink:href="#DejaVuSans-6f" x="175.533203"/>
     <use xlink:href="#DejaVuSans-20" x="236.714844"/>
     <use xlink:href="#DejaVuSans-4e" x="268.501953"/>
     <use xlink:href="#DejaVuSans-6f" x="343.306641"/>
     <use xlink:href="#DejaVuSans-69" x="404.488281"/>
     <use xlink:href="#DejaVuSans-73" x="432.271484"/>
     <use xlink:href="#DejaVuSans-65" x="484.371094"/>
     <use xlink:href="#DejaVuSans-20" x="545.894531"/>
     <use xlink:href="#DejaVuSans-53" x="577.681641"/>
     <use xlink:href="#DejaVuSans-70" x="641.158203"/>
     <use xlink:href="#DejaVuSans-65" x="704.634766"/>
     <use xlink:href="#DejaVuSans-63" x="766.158203"/>
     <use xlink:href="#DejaVuSans-74" x="821.138672"/>
     <use xlink:href="#DejaVuSans-72" x="860.347656"/>
     <use xlink:href="#DejaVuSans-61" x="901.460938"/>
     <use xlink:href="#DejaVuSans-6c" x="962.740234"/>
     <use xlink:href="#DejaVuSans-20" x="990.523438"/>
     <use xlink:href="#DejaVuSans-44" x="1022.310547"/>
     <use xlink:href="#DejaVuSans-65" x="1099.3125"/>
     <use xlink:href="#DejaVuSans-6e" x="1160.835938"/>
     <use xlink:href="#DejaVuSans-73" x="1224.214844"/>
     <use xlink:href="#DejaVuSans-69" x="1276.314453"/>
     <use xlink:href="#DejaVuSans-74" x="1304.097656"/>
     <use xlink:href="#DejaVuSans-79" x="1343.306641"/>
    </g>
   </g>
   <g id="legend_1">
    <g id="patch_7">
     <path d="M 363.452813 93.506375 
L 407.72 93.506375 
Q 409.72 93.506375 409.72 91.506375 
L 409.72 48.472 
Q 409.72 46.472 407.72 46.472 
L 363.452813 46.472 
Q 361.452813 46.472 361.452813 48.472 
L 361.452813 91.506375 
Q 361.452813 93.506375 363.452813 93.506375 
z
" style="fill: #ffffff; opacity: 0.8; stroke: #cccccc; stroke-linejoin: miter"/>
    </g>
    <g id="line2d_34">
     <path d="M 365.452813 54.570438 
L 375.452813 54.570438 
L 385.452813 54.570438 
" style="fill: none; stroke: #1f77b4; stroke-width: 1.5; stroke-linecap: square"/>
    </g>
    <g id="text_19">
     <!-- gx -->
     <g transform="translate(393.452813 58.070438) scale(0.1 -0.1)">
      <defs>
       <path id="DejaVuSans-67" d="M 2906 1791 
Q 2906 2416 2648 2759 
Q 2391 3103 1925 3103 
Q 1463 3103 1205 2759 
Q 947 2416 947 1791 
Q 947 1169 1205 825 
Q 1463 481 1925 481 
Q 2391 481 2648 825 
Q 2906 1169 2906 1791 
z
M 3481 434 
Q 3481 -459 3084 -895 
Q 2688 -1331 1869 -1331 
Q 1566 -1331 1297 -1286 
Q 1028 -1241 775 -1147 
L 775 -588 
Q 1028 -725 1275 -790 
Q 1522 -856 1778 -856 
Q 2344 -856 2625 -561 
Q 2906 -266 2906 331 
L 2906 616 
Q 2728 306 2450 153 
Q 2172 0 1784 0 
Q 1141 0 747 490 
Q 353 981 353 1791 
Q 353 2603 747 3093 
Q 1141 3584 1784 3584 
Q 2172 3584 2450 3431 
Q 2728 3278 2906 2969 
L 2906 3500 
L 3481 3500 
L 3481 434 
z
" transform="scale(0.015625)"/>
       <path id="DejaVuSans-78" d="M 3513 3500 
L 2247 1797 
L 3578 0 
L 2900 0 
L 1881 1375 
L 863 0 
L 184 0 
L 1544 1831 
L 300 3500 
L 978 3500 
L 1906 2253 
L 2834 3500 
L 3513 3500 
z
" transform="scale(0.015625)"/>
      </defs>
      <use xlink:href="#DejaVuSans-67"/>
      <use xlink:href="#DejaVuSans-78" x="63.476562"/>
     </g>
    </g>
    <g id="line2d_35">
     <path d="M 365.452813 69.248563 
L 375.452813 69.248563 
L 385.452813 69.248563 
" style="fill: none; stroke: #ff7f0e; stroke-width: 1.5; stroke-linecap: square"/>
    </g>
    <g id="text_20">
     <!-- gy -->
     <g transform="translate(393.452813 72.748563) scale(0.1 -0.1)">
      <use xlink:href="#DejaVuSans-67"/>
      <use xlink:href="#DejaVuSans-79" x="63.476562"/>
     </g>
    </g>
    <g id="line2d_36">
     <path d="M 365.452813 83.926688 
L 375.452813 83.926688 
L 385.452813 83.926688 
" style="fill: none; stroke: #2ca02c; stroke-width: 1.5; stroke-linecap: square"/>
    </g>
    <g id="text_21">
     <!-- gz -->
     <g transform="translate(393.452813 87.426688) scale(0.1 -0.1)">
      <use xlink:href="#DejaVuSans-67"/>
      <use xlink:href="#DejaVuSans-7a" x="63.476562"/>
     </g>
    </g>
   </g>
  </g>
 </g>
 <defs>
  <clipPath id="p7c5c90f8b6">
   <rect x="57.6" y="41.472" width="357.12" height="266.112"/>
  </clipPath>
 </defs>
</svg>
