<?xml version="1.0" encoding="utf-8" standalone="no"?>
<!DOCTYPE svg PUBLIC "-//W3C//DTD SVG 1.1//EN"
  "http://www.w3.org/Graphics/SVG/1.1/DTD/svg11.dtd">
<svg xmlns:xlink="http://www.w3.org/1999/xlink" width="460.8pt" height="345.6pt" viewBox="0 0 460.8 345.6" xmlns="http://www.w3.org/2000/svg" version="1.1">
 <metadata>
  <rdf:RDF xmlns:dc="http://purl.org/dc/elements/1.1/" xmlns:cc="http://creativecommons.org/ns#" xmlns:rdf="http://www.w3.org/1999/02/22-rdf-syntax-ns#">
   <cc:Work>
    <dc:type rdf:resource="http://purl.org/dc/dcmitype/StillImage"/>
    <dc:date>2024-06-03T12:09:46.335769</dc:date>
    <dc:format>image/svg+xml</dc:format>
    <dc:creator>
     <cc:Agent>
      <dc:title>Matplotlib v3.8.4, https://matplotlib.org/</dc:title>
     </cc:Agent>
    </dc:creator>
   </cc:Work>
  </rdf:RDF>
 </metadata>
 <defs>
  <style type="text/css">*{stroke-linejoin: round; stroke-linecap: butt}</style>
 </defs>
 <g id="figure_1">
  <g id="patch_1">
   <path d="M 0 345.6 
L 460.8 345.6 
L 460.8 0 
L 0 0 
z
" style="fill: #ffffff"/>
  </g>
  <g id="axes_1">
   <g id="patch_2">
    <path d="M 57.6 307.584 
L 414.72 307.584 
L 414.72 41.472 
L 57.6 41.472 
z
" style="fill: #ffffff"/>
   </g>
   <g id="matplotlib.axis_1">
    <g id="xtick_1">
     <g id="line2d_1">
      <path d="M 73.832727 307.584 
L 73.832727 41.472 
" clip-path="url(#p8d19e056aa)" style="fill: none; stroke: #b0b0b0; stroke-width: 0.8; stroke-linecap: square"/>
     </g>
     <g id="line2d_2">
      <defs>
       <path id="mdc029cf7cd" d="M 0 0 
L 0 3.5 
" style="stroke: #000000; stroke-width: 0.8"/>
      </defs>
      <g>
       <use xlink:href="#mdc029cf7cd" x="73.832727" y="307.584" style="stroke: #000000; stroke-width: 0.8"/>
      </g>
     </g>
     <g id="text_1">
      <!-- 0 -->
      <g transform="translate(70.651477 322.182437) scale(0.1 -0.1)">
       <defs>
        <path id="DejaVuSans-30" d="M 2034 4250 
Q 1547 4250 1301 3770 
Q 1056 3291 1056 2328 
Q 1056 1369 1301 889 
Q 1547 409 2034 409 
Q 2525 409 2770 889 
Q 3016 1369 3016 2328 
Q 3016 3291 2770 3770 
Q 2525 4250 2034 4250 
z
M 2034 4750 
Q 2819 4750 3233 4129 
Q 3647 3509 3647 2328 
Q 3647 1150 3233 529 
Q 2819 -91 2034 -91 
Q 1250 -91 836 529 
Q 422 1150 422 2328 
Q 422 3509 836 4129 
Q 1250 4750 2034 4750 
z
" transform="scale(0.015625)"/>
       </defs>
       <use xlink:href="#DejaVuSans-30"/>
      </g>
     </g>
    </g>
    <g id="xtick_2">
     <g id="line2d_3">
      <path d="M 138.763636 307.584 
L 138.763636 41.472 
" clip-path="url(#p8d19e056aa)" style="fill: none; stroke: #b0b0b0; stroke-width: 0.8; stroke-linecap: square"/>
     </g>
     <g id="line2d_4">
      <g>
       <use xlink:href="#mdc029cf7cd" x="138.763636" y="307.584" style="stroke: #000000; stroke-width: 0.8"/>
      </g>
     </g>
     <g id="text_2">
      <!-- 20 -->
      <g transform="translate(132.401136 322.182437) scale(0.1 -0.1)">
       <defs>
        <path id="DejaVuSans-32" d="M 1228 531 
L 3431 531 
L 3431 0 
L 469 0 
L 469 531 
Q 828 903 1448 1529 
Q 2069 2156 2228 2338 
Q 2531 2678 2651 2914 
Q 2772 3150 2772 3378 
Q 2772 3750 2511 3984 
Q 2250 4219 1831 4219 
Q 1534 4219 1204 4116 
Q 875 4013 500 3803 
L 500 4441 
Q 881 4594 1212 4672 
Q 1544 4750 1819 4750 
Q 2544 4750 2975 4387 
Q 3406 4025 3406 3419 
Q 3406 3131 3298 2873 
Q 3191 2616 2906 2266 
Q 2828 2175 2409 1742 
Q 1991 1309 1228 531 
z
" transform="scale(0.015625)"/>
       </defs>
       <use xlink:href="#DejaVuSans-32"/>
       <use xlink:href="#DejaVuSans-30" x="63.623047"/>
      </g>
     </g>
    </g>
    <g id="xtick_3">
     <g id="line2d_5">
      <path d="M 203.694545 307.584 
L 203.694545 41.472 
" clip-path="url(#p8d19e056aa)" style="fill: none; stroke: #b0b0b0; stroke-width: 0.8; stroke-linecap: square"/>
     </g>
     <g id="line2d_6">
      <g>
       <use xlink:href="#mdc029cf7cd" x="203.694545" y="307.584" style="stroke: #000000; stroke-width: 0.8"/>
      </g>
     </g>
     <g id="text_3">
      <!-- 40 -->
      <g transform="translate(197.332045 322.182437) scale(0.1 -0.1)">
       <defs>
        <path id="DejaVuSans-34" d="M 2419 4116 
L 825 1625 
L 2419 1625 
L 2419 4116 
z
M 2253 4666 
L 3047 4666 
L 3047 1625 
L 3713 1625 
L 3713 1100 
L 3047 1100 
L 3047 0 
L 2419 0 
L 2419 1100 
L 313 1100 
L 313 1709 
L 2253 4666 
z
" transform="scale(0.015625)"/>
       </defs>
       <use xlink:href="#DejaVuSans-34"/>
       <use xlink:href="#DejaVuSans-30" x="63.623047"/>
      </g>
     </g>
    </g>
    <g id="xtick_4">
     <g id="line2d_7">
      <path d="M 268.625455 307.584 
L 268.625455 41.472 
" clip-path="url(#p8d19e056aa)" style="fill: none; stroke: #b0b0b0; stroke-width: 0.8; stroke-linecap: square"/>
     </g>
     <g id="line2d_8">
      <g>
       <use xlink:href="#mdc029cf7cd" x="268.625455" y="307.584" style="stroke: #000000; stroke-width: 0.8"/>
      </g>
     </g>
     <g id="text_4">
      <!-- 60 -->
      <g transform="translate(262.262955 322.182437) scale(0.1 -0.1)">
       <defs>
        <path id="DejaVuSans-36" d="M 2113 2584 
Q 1688 2584 1439 2293 
Q 1191 2003 1191 1497 
Q 1191 994 1439 701 
Q 1688 409 2113 409 
Q 2538 409 2786 701 
Q 3034 994 3034 1497 
Q 3034 2003 2786 2293 
Q 2538 2584 2113 2584 
z
M 3366 4563 
L 3366 3988 
Q 3128 4100 2886 4159 
Q 2644 4219 2406 4219 
Q 1781 4219 1451 3797 
Q 1122 3375 1075 2522 
Q 1259 2794 1537 2939 
Q 1816 3084 2150 3084 
Q 2853 3084 3261 2657 
Q 3669 2231 3669 1497 
Q 3669 778 3244 343 
Q 2819 -91 2113 -91 
Q 1303 -91 875 529 
Q 447 1150 447 2328 
Q 447 3434 972 4092 
Q 1497 4750 2381 4750 
Q 2619 4750 2861 4703 
Q 3103 4656 3366 4563 
z
" transform="scale(0.015625)"/>
       </defs>
       <use xlink:href="#DejaVuSans-36"/>
       <use xlink:href="#DejaVuSans-30" x="63.623047"/>
      </g>
     </g>
    </g>
    <g id="xtick_5">
     <g id="line2d_9">
      <path d="M 333.556364 307.584 
L 333.556364 41.472 
" clip-path="url(#p8d19e056aa)" style="fill: none; stroke: #b0b0b0; stroke-width: 0.8; stroke-linecap: square"/>
     </g>
     <g id="line2d_10">
      <g>
       <use xlink:href="#mdc029cf7cd" x="333.556364" y="307.584" style="stroke: #000000; stroke-width: 0.8"/>
      </g>
     </g>
     <g id="text_5">
      <!-- 80 -->
      <g transform="translate(327.193864 322.182437) scale(0.1 -0.1)">
       <defs>
        <path id="DejaVuSans-38" d="M 2034 2216 
Q 1584 2216 1326 1975 
Q 1069 1734 1069 1313 
Q 1069 891 1326 650 
Q 1584 409 2034 409 
Q 2484 409 2743 651 
Q 3003 894 3003 1313 
Q 3003 1734 2745 1975 
Q 2488 2216 2034 2216 
z
M 1403 2484 
Q 997 2584 770 2862 
Q 544 3141 544 3541 
Q 544 4100 942 4425 
Q 1341 4750 2034 4750 
Q 2731 4750 3128 4425 
Q 3525 4100 3525 3541 
Q 3525 3141 3298 2862 
Q 3072 2584 2669 2484 
Q 3125 2378 3379 2068 
Q 3634 1759 3634 1313 
Q 3634 634 3220 271 
Q 2806 -91 2034 -91 
Q 1263 -91 848 271 
Q 434 634 434 1313 
Q 434 1759 690 2068 
Q 947 2378 1403 2484 
z
M 1172 3481 
Q 1172 3119 1398 2916 
Q 1625 2713 2034 2713 
Q 2441 2713 2670 2916 
Q 2900 3119 2900 3481 
Q 2900 3844 2670 4047 
Q 2441 4250 2034 4250 
Q 1625 4250 1398 4047 
Q 1172 3844 1172 3481 
z
" transform="scale(0.015625)"/>
       </defs>
       <use xlink:href="#DejaVuSans-38"/>
       <use xlink:href="#DejaVuSans-30" x="63.623047"/>
      </g>
     </g>
    </g>
    <g id="xtick_6">
     <g id="line2d_11">
      <path d="M 398.487273 307.584 
L 398.487273 41.472 
" clip-path="url(#p8d19e056aa)" style="fill: none; stroke: #b0b0b0; stroke-width: 0.8; stroke-linecap: square"/>
     </g>
     <g id="line2d_12">
      <g>
       <use xlink:href="#mdc029cf7cd" x="398.487273" y="307.584" style="stroke: #000000; stroke-width: 0.8"/>
      </g>
     </g>
     <g id="text_6">
      <!-- 100 -->
      <g transform="translate(388.943523 322.182437) scale(0.1 -0.1)">
       <defs>
        <path id="DejaVuSans-31" d="M 794 531 
L 1825 531 
L 1825 4091 
L 703 3866 
L 703 4441 
L 1819 4666 
L 2450 4666 
L 2450 531 
L 3481 531 
L 3481 0 
L 794 0 
L 794 531 
z
" transform="scale(0.015625)"/>
       </defs>
       <use xlink:href="#DejaVuSans-31"/>
       <use xlink:href="#DejaVuSans-30" x="63.623047"/>
       <use xlink:href="#DejaVuSans-30" x="127.246094"/>
      </g>
     </g>
    </g>
    <g id="text_7">
     <!-- Frequency [Hz] -->
     <g transform="translate(198.455312 335.860562) scale(0.1 -0.1)">
      <defs>
       <path id="DejaVuSans-46" d="M 628 4666 
L 3309 4666 
L 3309 4134 
L 1259 4134 
L 1259 2759 
L 3109 2759 
L 3109 2228 
L 1259 2228 
L 1259 0 
L 628 0 
L 628 4666 
z
" transform="scale(0.015625)"/>
       <path id="DejaVuSans-72" d="M 2631 2963 
Q 2534 3019 2420 3045 
Q 2306 3072 2169 3072 
Q 1681 3072 1420 2755 
Q 1159 2438 1159 1844 
L 1159 0 
L 581 0 
L 581 3500 
L 1159 3500 
L 1159 2956 
Q 1341 3275 1631 3429 
Q 1922 3584 2338 3584 
Q 2397 3584 2469 3576 
Q 2541 3569 2628 3553 
L 2631 2963 
z
" transform="scale(0.015625)"/>
       <path id="DejaVuSans-65" d="M 3597 1894 
L 3597 1613 
L 953 1613 
Q 991 1019 1311 708 
Q 1631 397 2203 397 
Q 2534 397 2845 478 
Q 3156 559 3463 722 
L 3463 178 
Q 3153 47 2828 -22 
Q 2503 -91 2169 -91 
Q 1331 -91 842 396 
Q 353 884 353 1716 
Q 353 2575 817 3079 
Q 1281 3584 2069 3584 
Q 2775 3584 3186 3129 
Q 3597 2675 3597 1894 
z
M 3022 2063 
Q 3016 2534 2758 2815 
Q 2500 3097 2075 3097 
Q 1594 3097 1305 2825 
Q 1016 2553 972 2059 
L 3022 2063 
z
" transform="scale(0.015625)"/>
       <path id="DejaVuSans-71" d="M 947 1747 
Q 947 1113 1208 752 
Q 1469 391 1925 391 
Q 2381 391 2643 752 
Q 2906 1113 2906 1747 
Q 2906 2381 2643 2742 
Q 2381 3103 1925 3103 
Q 1469 3103 1208 2742 
Q 947 2381 947 1747 
z
M 2906 525 
Q 2725 213 2448 61 
Q 2172 -91 1784 -91 
Q 1150 -91 751 415 
Q 353 922 353 1747 
Q 353 2572 751 3078 
Q 1150 3584 1784 3584 
Q 2172 3584 2448 3432 
Q 2725 3281 2906 2969 
L 2906 3500 
L 3481 3500 
L 3481 -1331 
L 2906 -1331 
L 2906 525 
z
" transform="scale(0.015625)"/>
       <path id="DejaVuSans-75" d="M 544 1381 
L 544 3500 
L 1119 3500 
L 1119 1403 
Q 1119 906 1312 657 
Q 1506 409 1894 409 
Q 2359 409 2629 706 
Q 2900 1003 2900 1516 
L 2900 3500 
L 3475 3500 
L 3475 0 
L 2900 0 
L 2900 538 
Q 2691 219 2414 64 
Q 2138 -91 1772 -91 
Q 1169 -91 856 284 
Q 544 659 544 1381 
z
M 1991 3584 
L 1991 3584 
z
" transform="scale(0.015625)"/>
       <path id="DejaVuSans-6e" d="M 3513 2113 
L 3513 0 
L 2938 0 
L 2938 2094 
Q 2938 2591 2744 2837 
Q 2550 3084 2163 3084 
Q 1697 3084 1428 2787 
Q 1159 2491 1159 1978 
L 1159 0 
L 581 0 
L 581 3500 
L 1159 3500 
L 1159 2956 
Q 1366 3272 1645 3428 
Q 1925 3584 2291 3584 
Q 2894 3584 3203 3211 
Q 3513 2838 3513 2113 
z
" transform="scale(0.015625)"/>
       <path id="DejaVuSans-63" d="M 3122 3366 
L 3122 2828 
Q 2878 2963 2633 3030 
Q 2388 3097 2138 3097 
Q 1578 3097 1268 2742 
Q 959 2388 959 1747 
Q 959 1106 1268 751 
Q 1578 397 2138 397 
Q 2388 397 2633 464 
Q 2878 531 3122 666 
L 3122 134 
Q 2881 22 2623 -34 
Q 2366 -91 2075 -91 
Q 1284 -91 818 406 
Q 353 903 353 1747 
Q 353 2603 823 3093 
Q 1294 3584 2113 3584 
Q 2378 3584 2631 3529 
Q 2884 3475 3122 3366 
z
" transform="scale(0.015625)"/>
       <path id="DejaVuSans-79" d="M 2059 -325 
Q 1816 -950 1584 -1140 
Q 1353 -1331 966 -1331 
L 506 -1331 
L 506 -850 
L 844 -850 
Q 1081 -850 1212 -737 
Q 1344 -625 1503 -206 
L 1606 56 
L 191 3500 
L 800 3500 
L 1894 763 
L 2988 3500 
L 3597 3500 
L 2059 -325 
z
" transform="scale(0.015625)"/>
       <path id="DejaVuSans-20" transform="scale(0.015625)"/>
       <path id="DejaVuSans-5b" d="M 550 4863 
L 1875 4863 
L 1875 4416 
L 1125 4416 
L 1125 -397 
L 1875 -397 
L 1875 -844 
L 550 -844 
L 550 4863 
z
" transform="scale(0.015625)"/>
       <path id="DejaVuSans-48" d="M 628 4666 
L 1259 4666 
L 1259 2753 
L 3553 2753 
L 3553 4666 
L 4184 4666 
L 4184 0 
L 3553 0 
L 3553 2222 
L 1259 2222 
L 1259 0 
L 628 0 
L 628 4666 
z
" transform="scale(0.015625)"/>
       <path id="DejaVuSans-7a" d="M 353 3500 
L 3084 3500 
L 3084 2975 
L 922 459 
L 3084 459 
L 3084 0 
L 275 0 
L 275 525 
L 2438 3041 
L 353 3041 
L 353 3500 
z
" transform="scale(0.015625)"/>
       <path id="DejaVuSans-5d" d="M 1947 4863 
L 1947 -844 
L 622 -844 
L 622 -397 
L 1369 -397 
L 1369 4416 
L 622 4416 
L 622 4863 
L 1947 4863 
z
" transform="scale(0.015625)"/>
      </defs>
      <use xlink:href="#DejaVuSans-46"/>
      <use xlink:href="#DejaVuSans-72" x="50.269531"/>
      <use xlink:href="#DejaVuSans-65" x="89.132812"/>
      <use xlink:href="#DejaVuSans-71" x="150.65625"/>
      <use xlink:href="#DejaVuSans-75" x="214.132812"/>
      <use xlink:href="#DejaVuSans-65" x="277.511719"/>
      <use xlink:href="#DejaVuSans-6e" x="339.035156"/>
      <use xlink:href="#DejaVuSans-63" x="402.414062"/>
      <use xlink:href="#DejaVuSans-79" x="457.394531"/>
      <use xlink:href="#DejaVuSans-20" x="516.574219"/>
      <use xlink:href="#DejaVuSans-5b" x="548.361328"/>
      <use xlink:href="#DejaVuSans-48" x="587.375"/>
      <use xlink:href="#DejaVuSans-7a" x="662.570312"/>
      <use xlink:href="#DejaVuSans-5d" x="715.060547"/>
     </g>
    </g>
   </g>
   <g id="matplotlib.axis_2">
    <g id="ytick_1">
     <g id="line2d_13">
      <path d="M 57.6 296.276353 
L 414.72 296.276353 
" clip-path="url(#p8d19e056aa)" style="fill: none; stroke: #b0b0b0; stroke-width: 0.8; stroke-linecap: square"/>
     </g>
     <g id="line2d_14">
      <defs>
       <path id="m467f65c0c7" d="M 0 0 
L -3.5 0 
" style="stroke: #000000; stroke-width: 0.8"/>
      </defs>
      <g>
       <use xlink:href="#m467f65c0c7" x="57.6" y="296.276353" style="stroke: #000000; stroke-width: 0.8"/>
      </g>
     </g>
     <g id="text_8">
      <!-- 0.00 -->
      <g transform="translate(28.334375 300.075572) scale(0.1 -0.1)">
       <defs>
        <path id="DejaVuSans-2e" d="M 684 794 
L 1344 794 
L 1344 0 
L 684 0 
L 684 794 
z
" transform="scale(0.015625)"/>
       </defs>
       <use xlink:href="#DejaVuSans-30"/>
       <use xlink:href="#DejaVuSans-2e" x="63.623047"/>
       <use xlink:href="#DejaVuSans-30" x="95.410156"/>
       <use xlink:href="#DejaVuSans-30" x="159.033203"/>
      </g>
     </g>
    </g>
    <g id="ytick_2">
     <g id="line2d_15">
      <path d="M 57.6 262.988839 
L 414.72 262.988839 
" clip-path="url(#p8d19e056aa)" style="fill: none; stroke: #b0b0b0; stroke-width: 0.8; stroke-linecap: square"/>
     </g>
     <g id="line2d_16">
      <g>
       <use xlink:href="#m467f65c0c7" x="57.6" y="262.988839" style="stroke: #000000; stroke-width: 0.8"/>
      </g>
     </g>
     <g id="text_9">
      <!-- 0.01 -->
      <g transform="translate(28.334375 266.788058) scale(0.1 -0.1)">
       <use xlink:href="#DejaVuSans-30"/>
       <use xlink:href="#DejaVuSans-2e" x="63.623047"/>
       <use xlink:href="#DejaVuSans-30" x="95.410156"/>
       <use xlink:href="#DejaVuSans-31" x="159.033203"/>
      </g>
     </g>
    </g>
    <g id="ytick_3">
     <g id="line2d_17">
      <path d="M 57.6 229.701325 
L 414.72 229.701325 
" clip-path="url(#p8d19e056aa)" style="fill: none; stroke: #b0b0b0; stroke-width: 0.8; stroke-linecap: square"/>
     </g>
     <g id="line2d_18">
      <g>
       <use xlink:href="#m467f65c0c7" x="57.6" y="229.701325" style="stroke: #000000; stroke-width: 0.8"/>
      </g>
     </g>
     <g id="text_10">
      <!-- 0.02 -->
      <g transform="translate(28.334375 233.500544) scale(0.1 -0.1)">
       <use xlink:href="#DejaVuSans-30"/>
       <use xlink:href="#DejaVuSans-2e" x="63.623047"/>
       <use xlink:href="#DejaVuSans-30" x="95.410156"/>
       <use xlink:href="#DejaVuSans-32" x="159.033203"/>
      </g>
     </g>
    </g>
    <g id="ytick_4">
     <g id="line2d_19">
      <path d="M 57.6 196.413811 
L 414.72 196.413811 
" clip-path="url(#p8d19e056aa)" style="fill: none; stroke: #b0b0b0; stroke-width: 0.8; stroke-linecap: square"/>
     </g>
     <g id="line2d_20">
      <g>
       <use xlink:href="#m467f65c0c7" x="57.6" y="196.413811" style="stroke: #000000; stroke-width: 0.8"/>
      </g>
     </g>
     <g id="text_11">
      <!-- 0.03 -->
      <g transform="translate(28.334375 200.21303) scale(0.1 -0.1)">
       <defs>
        <path id="DejaVuSans-33" d="M 2597 2516 
Q 3050 2419 3304 2112 
Q 3559 1806 3559 1356 
Q 3559 666 3084 287 
Q 2609 -91 1734 -91 
Q 1441 -91 1130 -33 
Q 819 25 488 141 
L 488 750 
Q 750 597 1062 519 
Q 1375 441 1716 441 
Q 2309 441 2620 675 
Q 2931 909 2931 1356 
Q 2931 1769 2642 2001 
Q 2353 2234 1838 2234 
L 1294 2234 
L 1294 2753 
L 1863 2753 
Q 2328 2753 2575 2939 
Q 2822 3125 2822 3475 
Q 2822 3834 2567 4026 
Q 2313 4219 1838 4219 
Q 1578 4219 1281 4162 
Q 984 4106 628 3988 
L 628 4550 
Q 988 4650 1302 4700 
Q 1616 4750 1894 4750 
Q 2613 4750 3031 4423 
Q 3450 4097 3450 3541 
Q 3450 3153 3228 2886 
Q 3006 2619 2597 2516 
z
" transform="scale(0.015625)"/>
       </defs>
       <use xlink:href="#DejaVuSans-30"/>
       <use xlink:href="#DejaVuSans-2e" x="63.623047"/>
       <use xlink:href="#DejaVuSans-30" x="95.410156"/>
       <use xlink:href="#DejaVuSans-33" x="159.033203"/>
      </g>
     </g>
    </g>
    <g id="ytick_5">
     <g id="line2d_21">
      <path d="M 57.6 163.126298 
L 414.72 163.126298 
" clip-path="url(#p8d19e056aa)" style="fill: none; stroke: #b0b0b0; stroke-width: 0.8; stroke-linecap: square"/>
     </g>
     <g id="line2d_22">
      <g>
       <use xlink:href="#m467f65c0c7" x="57.6" y="163.126298" style="stroke: #000000; stroke-width: 0.8"/>
      </g>
     </g>
     <g id="text_12">
      <!-- 0.04 -->
      <g transform="translate(28.334375 166.925516) scale(0.1 -0.1)">
       <use xlink:href="#DejaVuSans-30"/>
       <use xlink:href="#DejaVuSans-2e" x="63.623047"/>
       <use xlink:href="#DejaVuSans-30" x="95.410156"/>
       <use xlink:href="#DejaVuSans-34" x="159.033203"/>
      </g>
     </g>
    </g>
    <g id="ytick_6">
     <g id="line2d_23">
      <path d="M 57.6 129.838784 
L 414.72 129.838784 
" clip-path="url(#p8d19e056aa)" style="fill: none; stroke: #b0b0b0; stroke-width: 0.8; stroke-linecap: square"/>
     </g>
     <g id="line2d_24">
      <g>
       <use xlink:href="#m467f65c0c7" x="57.6" y="129.838784" style="stroke: #000000; stroke-width: 0.8"/>
      </g>
     </g>
     <g id="text_13">
      <!-- 0.05 -->
      <g transform="translate(28.334375 133.638002) scale(0.1 -0.1)">
       <defs>
        <path id="DejaVuSans-35" d="M 691 4666 
L 3169 4666 
L 3169 4134 
L 1269 4134 
L 1269 2991 
Q 1406 3038 1543 3061 
Q 1681 3084 1819 3084 
Q 2600 3084 3056 2656 
Q 3513 2228 3513 1497 
Q 3513 744 3044 326 
Q 2575 -91 1722 -91 
Q 1428 -91 1123 -41 
Q 819 9 494 109 
L 494 744 
Q 775 591 1075 516 
Q 1375 441 1709 441 
Q 2250 441 2565 725 
Q 2881 1009 2881 1497 
Q 2881 1984 2565 2268 
Q 2250 2553 1709 2553 
Q 1456 2553 1204 2497 
Q 953 2441 691 2322 
L 691 4666 
z
" transform="scale(0.015625)"/>
       </defs>
       <use xlink:href="#DejaVuSans-30"/>
       <use xlink:href="#DejaVuSans-2e" x="63.623047"/>
       <use xlink:href="#DejaVuSans-30" x="95.410156"/>
       <use xlink:href="#DejaVuSans-35" x="159.033203"/>
      </g>
     </g>
    </g>
    <g id="ytick_7">
     <g id="line2d_25">
      <path d="M 57.6 96.55127 
L 414.72 96.55127 
" clip-path="url(#p8d19e056aa)" style="fill: none; stroke: #b0b0b0; stroke-width: 0.8; stroke-linecap: square"/>
     </g>
     <g id="line2d_26">
      <g>
       <use xlink:href="#m467f65c0c7" x="57.6" y="96.55127" style="stroke: #000000; stroke-width: 0.8"/>
      </g>
     </g>
     <g id="text_14">
      <!-- 0.06 -->
      <g transform="translate(28.334375 100.350488) scale(0.1 -0.1)">
       <use xlink:href="#DejaVuSans-30"/>
       <use xlink:href="#DejaVuSans-2e" x="63.623047"/>
       <use xlink:href="#DejaVuSans-30" x="95.410156"/>
       <use xlink:href="#DejaVuSans-36" x="159.033203"/>
      </g>
     </g>
    </g>
    <g id="ytick_8">
     <g id="line2d_27">
      <path d="M 57.6 63.263756 
L 414.72 63.263756 
" clip-path="url(#p8d19e056aa)" style="fill: none; stroke: #b0b0b0; stroke-width: 0.8; stroke-linecap: square"/>
     </g>
     <g id="line2d_28">
      <g>
       <use xlink:href="#m467f65c0c7" x="57.6" y="63.263756" style="stroke: #000000; stroke-width: 0.8"/>
      </g>
     </g>
     <g id="text_15">
      <!-- 0.07 -->
      <g transform="translate(28.334375 67.062975) scale(0.1 -0.1)">
       <defs>
        <path id="DejaVuSans-37" d="M 525 4666 
L 3525 4666 
L 3525 4397 
L 1831 0 
L 1172 0 
L 2766 4134 
L 525 4134 
L 525 4666 
z
" transform="scale(0.015625)"/>
       </defs>
       <use xlink:href="#DejaVuSans-30"/>
       <use xlink:href="#DejaVuSans-2e" x="63.623047"/>
       <use xlink:href="#DejaVuSans-30" x="95.410156"/>
       <use xlink:href="#DejaVuSans-37" x="159.033203"/>
      </g>
     </g>
    </g>
    <g id="text_16">
     <!-- Spectral Density ($rad/s  / \sqrt{Hz}$) -->
     <g transform="translate(22.234375 246.178) rotate(-90) scale(0.1 -0.1)">
      <defs>
       <path id="DejaVuSans-53" d="M 3425 4513 
L 3425 3897 
Q 3066 4069 2747 4153 
Q 2428 4238 2131 4238 
Q 1616 4238 1336 4038 
Q 1056 3838 1056 3469 
Q 1056 3159 1242 3001 
Q 1428 2844 1947 2747 
L 2328 2669 
Q 3034 2534 3370 2195 
Q 3706 1856 3706 1288 
Q 3706 609 3251 259 
Q 2797 -91 1919 -91 
Q 1588 -91 1214 -16 
Q 841 59 441 206 
L 441 856 
Q 825 641 1194 531 
Q 1563 422 1919 422 
Q 2459 422 2753 634 
Q 3047 847 3047 1241 
Q 3047 1584 2836 1778 
Q 2625 1972 2144 2069 
L 1759 2144 
Q 1053 2284 737 2584 
Q 422 2884 422 3419 
Q 422 4038 858 4394 
Q 1294 4750 2059 4750 
Q 2388 4750 2728 4690 
Q 3069 4631 3425 4513 
z
" transform="scale(0.015625)"/>
       <path id="DejaVuSans-70" d="M 1159 525 
L 1159 -1331 
L 581 -1331 
L 581 3500 
L 1159 3500 
L 1159 2969 
Q 1341 3281 1617 3432 
Q 1894 3584 2278 3584 
Q 2916 3584 3314 3078 
Q 3713 2572 3713 1747 
Q 3713 922 3314 415 
Q 2916 -91 2278 -91 
Q 1894 -91 1617 61 
Q 1341 213 1159 525 
z
M 3116 1747 
Q 3116 2381 2855 2742 
Q 2594 3103 2138 3103 
Q 1681 3103 1420 2742 
Q 1159 2381 1159 1747 
Q 1159 1113 1420 752 
Q 1681 391 2138 391 
Q 2594 391 2855 752 
Q 3116 1113 3116 1747 
z
" transform="scale(0.015625)"/>
       <path id="DejaVuSans-74" d="M 1172 4494 
L 1172 3500 
L 2356 3500 
L 2356 3053 
L 1172 3053 
L 1172 1153 
Q 1172 725 1289 603 
Q 1406 481 1766 481 
L 2356 481 
L 2356 0 
L 1766 0 
Q 1100 0 847 248 
Q 594 497 594 1153 
L 594 3053 
L 172 3053 
L 172 3500 
L 594 3500 
L 594 4494 
L 1172 4494 
z
" transform="scale(0.015625)"/>
       <path id="DejaVuSans-61" d="M 2194 1759 
Q 1497 1759 1228 1600 
Q 959 1441 959 1056 
Q 959 750 1161 570 
Q 1363 391 1709 391 
Q 2188 391 2477 730 
Q 2766 1069 2766 1631 
L 2766 1759 
L 2194 1759 
z
M 3341 1997 
L 3341 0 
L 2766 0 
L 2766 531 
Q 2569 213 2275 61 
Q 1981 -91 1556 -91 
Q 1019 -91 701 211 
Q 384 513 384 1019 
Q 384 1609 779 1909 
Q 1175 2209 1959 2209 
L 2766 2209 
L 2766 2266 
Q 2766 2663 2505 2880 
Q 2244 3097 1772 3097 
Q 1472 3097 1187 3025 
Q 903 2953 641 2809 
L 641 3341 
Q 956 3463 1253 3523 
Q 1550 3584 1831 3584 
Q 2591 3584 2966 3190 
Q 3341 2797 3341 1997 
z
" transform="scale(0.015625)"/>
       <path id="DejaVuSans-6c" d="M 603 4863 
L 1178 4863 
L 1178 0 
L 603 0 
L 603 4863 
z
" transform="scale(0.015625)"/>
       <path id="DejaVuSans-44" d="M 1259 4147 
L 1259 519 
L 2022 519 
Q 2988 519 3436 956 
Q 3884 1394 3884 2338 
Q 3884 3275 3436 3711 
Q 2988 4147 2022 4147 
L 1259 4147 
z
M 628 4666 
L 1925 4666 
Q 3281 4666 3915 4102 
Q 4550 3538 4550 2338 
Q 4550 1131 3912 565 
Q 3275 0 1925 0 
L 628 0 
L 628 4666 
z
" transform="scale(0.015625)"/>
       <path id="DejaVuSans-73" d="M 2834 3397 
L 2834 2853 
Q 2591 2978 2328 3040 
Q 2066 3103 1784 3103 
Q 1356 3103 1142 2972 
Q 928 2841 928 2578 
Q 928 2378 1081 2264 
Q 1234 2150 1697 2047 
L 1894 2003 
Q 2506 1872 2764 1633 
Q 3022 1394 3022 966 
Q 3022 478 2636 193 
Q 2250 -91 1575 -91 
Q 1294 -91 989 -36 
Q 684 19 347 128 
L 347 722 
Q 666 556 975 473 
Q 1284 391 1588 391 
Q 1994 391 2212 530 
Q 2431 669 2431 922 
Q 2431 1156 2273 1281 
Q 2116 1406 1581 1522 
L 1381 1569 
Q 847 1681 609 1914 
Q 372 2147 372 2553 
Q 372 3047 722 3315 
Q 1072 3584 1716 3584 
Q 2034 3584 2315 3537 
Q 2597 3491 2834 3397 
z
" transform="scale(0.015625)"/>
       <path id="DejaVuSans-69" d="M 603 3500 
L 1178 3500 
L 1178 0 
L 603 0 
L 603 3500 
z
M 603 4863 
L 1178 4863 
L 1178 4134 
L 603 4134 
L 603 4863 
z
" transform="scale(0.015625)"/>
       <path id="DejaVuSans-28" d="M 1984 4856 
Q 1566 4138 1362 3434 
Q 1159 2731 1159 2009 
Q 1159 1288 1364 580 
Q 1569 -128 1984 -844 
L 1484 -844 
Q 1016 -109 783 600 
Q 550 1309 550 2009 
Q 550 2706 781 3412 
Q 1013 4119 1484 4856 
L 1984 4856 
z
" transform="scale(0.015625)"/>
       <path id="DejaVuSans-Oblique-72" d="M 2853 2969 
Q 2766 3016 2653 3041 
Q 2541 3066 2413 3066 
Q 1953 3066 1609 2717 
Q 1266 2369 1153 1784 
L 800 0 
L 225 0 
L 909 3500 
L 1484 3500 
L 1375 2956 
Q 1603 3259 1920 3421 
Q 2238 3584 2597 3584 
Q 2691 3584 2781 3573 
Q 2872 3563 2963 3538 
L 2853 2969 
z
" transform="scale(0.015625)"/>
       <path id="DejaVuSans-Oblique-61" d="M 3438 1997 
L 3047 0 
L 2472 0 
L 2578 531 
Q 2325 219 2001 64 
Q 1678 -91 1281 -91 
Q 834 -91 548 182 
Q 263 456 263 884 
Q 263 1497 752 1853 
Q 1241 2209 2100 2209 
L 2900 2209 
L 2931 2363 
Q 2938 2388 2941 2417 
Q 2944 2447 2944 2509 
Q 2944 2788 2717 2942 
Q 2491 3097 2081 3097 
Q 1800 3097 1504 3025 
Q 1209 2953 897 2809 
L 997 3341 
Q 1322 3463 1633 3523 
Q 1944 3584 2234 3584 
Q 2853 3584 3176 3315 
Q 3500 3047 3500 2534 
Q 3500 2431 3484 2292 
Q 3469 2153 3438 1997 
z
M 2816 1759 
L 2241 1759 
Q 1534 1759 1195 1570 
Q 856 1381 856 984 
Q 856 709 1029 553 
Q 1203 397 1509 397 
Q 1978 397 2328 733 
Q 2678 1069 2791 1631 
L 2816 1759 
z
" transform="scale(0.015625)"/>
       <path id="DejaVuSans-Oblique-64" d="M 2675 525 
Q 2444 222 2128 65 
Q 1813 -91 1428 -91 
Q 903 -91 598 267 
Q 294 625 294 1247 
Q 294 1766 478 2236 
Q 663 2706 1013 3078 
Q 1244 3325 1534 3454 
Q 1825 3584 2144 3584 
Q 2481 3584 2739 3421 
Q 2997 3259 3138 2956 
L 3513 4863 
L 4091 4863 
L 3144 0 
L 2566 0 
L 2675 525 
z
M 891 1350 
Q 891 897 1095 644 
Q 1300 391 1663 391 
Q 1931 391 2161 520 
Q 2391 650 2566 903 
Q 2750 1166 2856 1509 
Q 2963 1853 2963 2188 
Q 2963 2622 2758 2865 
Q 2553 3109 2194 3109 
Q 1922 3109 1687 2981 
Q 1453 2853 1288 2613 
Q 1106 2353 998 2009 
Q 891 1666 891 1350 
z
" transform="scale(0.015625)"/>
       <path id="DejaVuSans-2f" d="M 1625 4666 
L 2156 4666 
L 531 -594 
L 0 -594 
L 1625 4666 
z
" transform="scale(0.015625)"/>
       <path id="DejaVuSans-Oblique-73" d="M 3200 3397 
L 3091 2853 
Q 2863 2978 2609 3040 
Q 2356 3103 2088 3103 
Q 1634 3103 1373 2948 
Q 1113 2794 1113 2528 
Q 1113 2219 1719 2053 
Q 1766 2041 1788 2034 
L 1972 1978 
Q 2547 1819 2739 1644 
Q 2931 1469 2931 1166 
Q 2931 609 2489 259 
Q 2047 -91 1331 -91 
Q 1053 -91 747 -37 
Q 441 16 72 128 
L 184 722 
Q 500 559 806 475 
Q 1113 391 1394 391 
Q 1816 391 2080 572 
Q 2344 753 2344 1031 
Q 2344 1331 1650 1516 
L 1591 1531 
L 1394 1581 
Q 956 1697 753 1886 
Q 550 2075 550 2369 
Q 550 2928 970 3256 
Q 1391 3584 2113 3584 
Q 2397 3584 2667 3537 
Q 2938 3491 3200 3397 
z
" transform="scale(0.015625)"/>
       <path id="STIXSizeOneSym-Regular-221a" d="M 6970 9933 
L 3373 -1888 
L 3104 -1888 
L 1626 2918 
Q 1555 3149 1465 3251 
Q 1376 3354 1229 3354 
Q 1011 3354 794 3181 
L 717 3309 
L 1766 4115 
L 1926 4115 
L 3379 -602 
L 3405 -602 
L 6605 9933 
L 6970 9933 
z
" transform="scale(0.015625)"/>
       <path id="DejaVuSans-Oblique-48" d="M 1081 4666 
L 1716 4666 
L 1344 2753 
L 3634 2753 
L 4006 4666 
L 4641 4666 
L 3731 0 
L 3097 0 
L 3531 2222 
L 1241 2222 
L 806 0 
L 172 0 
L 1081 4666 
z
" transform="scale(0.015625)"/>
       <path id="DejaVuSans-Oblique-7a" d="M 744 3500 
L 3475 3500 
L 3372 2975 
L 738 459 
L 2913 459 
L 2822 0 
L -19 0 
L 84 525 
L 2719 3041 
L 653 3041 
L 744 3500 
z
" transform="scale(0.015625)"/>
       <path id="DejaVuSans-29" d="M 513 4856 
L 1013 4856 
Q 1481 4119 1714 3412 
Q 1947 2706 1947 2009 
Q 1947 1309 1714 600 
Q 1481 -109 1013 -844 
L 513 -844 
Q 928 -128 1133 580 
Q 1338 1288 1338 2009 
Q 1338 2731 1133 3434 
Q 928 4138 513 4856 
z
" transform="scale(0.015625)"/>
      </defs>
      <use xlink:href="#DejaVuSans-53" transform="translate(0 0.578125)"/>
      <use xlink:href="#DejaVuSans-70" transform="translate(63.476562 0.578125)"/>
      <use xlink:href="#DejaVuSans-65" transform="translate(126.953125 0.578125)"/>
      <use xlink:href="#DejaVuSans-63" transform="translate(188.476562 0.578125)"/>
      <use xlink:href="#DejaVuSans-74" transform="translate(243.457031 0.578125)"/>
      <use xlink:href="#DejaVuSans-72" transform="translate(282.666016 0.578125)"/>
      <use xlink:href="#DejaVuSans-61" transform="translate(323.779297 0.578125)"/>
      <use xlink:href="#DejaVuSans-6c" transform="translate(385.058594 0.578125)"/>
      <use xlink:href="#DejaVuSans-20" transform="translate(412.841797 0.578125)"/>
      <use xlink:href="#DejaVuSans-44" transform="translate(444.628906 0.578125)"/>
      <use xlink:href="#DejaVuSans-65" transform="translate(521.630859 0.578125)"/>
      <use xlink:href="#DejaVuSans-6e" transform="translate(583.154297 0.578125)"/>
      <use xlink:href="#DejaVuSans-73" transform="translate(646.533203 0.578125)"/>
      <use xlink:href="#DejaVuSans-69" transform="translate(698.632812 0.578125)"/>
      <use xlink:href="#DejaVuSans-74" transform="translate(726.416016 0.578125)"/>
      <use xlink:href="#DejaVuSans-79" transform="translate(765.625 0.578125)"/>
      <use xlink:href="#DejaVuSans-20" transform="translate(824.804688 0.578125)"/>
      <use xlink:href="#DejaVuSans-28" transform="translate(856.591797 0.578125)"/>
      <use xlink:href="#DejaVuSans-Oblique-72" transform="translate(895.605469 0.578125)"/>
      <use xlink:href="#DejaVuSans-Oblique-61" transform="translate(936.71875 0.578125)"/>
      <use xlink:href="#DejaVuSans-Oblique-64" transform="translate(997.998047 0.578125)"/>
      <use xlink:href="#DejaVuSans-2f" transform="translate(1061.474609 0.578125)"/>
      <use xlink:href="#DejaVuSans-Oblique-73" transform="translate(1095.166016 0.578125)"/>
      <use xlink:href="#DejaVuSans-2f" transform="translate(1147.265625 0.578125)"/>
      <use xlink:href="#STIXSizeOneSym-Regular-221a" transform="translate(1180.957031 17.09375) scale(0.563912)"/>
      <use xlink:href="#DejaVuSans-Oblique-48" transform="translate(1253.045395 0.84375)"/>
      <use xlink:href="#DejaVuSans-Oblique-7a" transform="translate(1328.240707 0.84375)"/>
      <use xlink:href="#DejaVuSans-29" transform="translate(1393.230942 0.578125)"/>
      <path d="M 1240.545395 97.5 
L 1240.545395 103.75 
L 1393.230942 103.75 
L 1393.230942 97.5 
L 1240.545395 97.5 
z
"/>
     </g>
    </g>
   </g>
   <g id="line2d_29">
    <path d="M 73.832727 254.605864 
L 74.466818 187.761315 
L 75.100909 136.323366 
L 75.735 145.692595 
L 76.369091 185.892026 
L 77.003182 192.530118 
L 77.637273 205.575351 
L 78.271364 210.175138 
L 79.539545 240.930033 
L 80.173636 246.969374 
L 80.807727 242.908021 
L 81.441818 241.781149 
L 82.075909 244.596221 
L 82.71 246.355964 
L 83.978182 252.725045 
L 84.612273 256.16377 
L 87.148636 261.011098 
L 87.782727 269.754883 
L 88.416818 271.10157 
L 89.050909 272.881022 
L 89.685 274.074355 
L 90.319091 273.116722 
L 90.953182 273.370555 
L 91.587273 272.762669 
L 92.221364 276.740323 
L 92.855455 279.118473 
L 93.489545 279.754631 
L 94.123636 280.853196 
L 94.757727 282.823802 
L 95.391818 280.7389 
L 96.025909 281.749152 
L 96.66 285.31943 
L 97.294091 284.906317 
L 98.562273 285.948491 
L 99.196364 286.022342 
L 99.830455 286.940115 
L 100.464545 286.400497 
L 101.098636 286.225308 
L 101.732727 286.226664 
L 102.366818 288.01945 
L 103.000909 288.321772 
L 103.635 287.953243 
L 104.269091 287.249226 
L 105.537273 288.869063 
L 106.171364 289.113959 
L 106.805455 288.443677 
L 107.439545 288.195038 
L 108.073636 288.954847 
L 109.341818 287.791634 
L 109.975909 287.890261 
L 110.61 288.57456 
L 111.244091 288.935148 
L 111.878182 288.105511 
L 112.512273 288.432847 
L 113.146364 288.396325 
L 113.780455 289.090546 
L 115.682727 287.685542 
L 116.316818 286.741949 
L 116.950909 287.839322 
L 117.585 288.245385 
L 118.219091 286.864992 
L 118.853182 286.93643 
L 119.487273 285.646695 
L 120.121364 284.828501 
L 120.755455 285.56916 
L 122.023636 285.351385 
L 122.657727 284.723666 
L 123.291818 283.517089 
L 123.925909 283.565652 
L 124.56 281.64053 
L 125.194091 282.338481 
L 125.828182 282.616059 
L 126.462273 283.527464 
L 127.096364 279.814725 
L 127.730455 280.408003 
L 128.364545 282.498392 
L 128.998636 283.622138 
L 129.632727 283.690322 
L 130.266818 285.926864 
L 131.535 284.170773 
L 132.169091 281.745391 
L 132.803182 281.510102 
L 133.437273 282.827746 
L 134.705455 283.671827 
L 135.339545 284.367476 
L 135.973636 286.02997 
L 138.51 281.877293 
L 139.144091 283.56456 
L 139.778182 283.745054 
L 140.412273 284.211677 
L 141.046364 283.52174 
L 141.680455 283.573136 
L 142.314545 284.37896 
L 142.948636 283.943064 
L 143.582727 283.13404 
L 144.216818 285.557045 
L 144.850909 285.637317 
L 145.485 285.08517 
L 146.119091 285.706434 
L 146.753182 285.563803 
L 147.387273 285.887863 
L 148.021364 285.539932 
L 148.655455 285.615896 
L 149.289545 285.088585 
L 149.923636 285.370816 
L 150.557727 284.559678 
L 151.191818 284.421892 
L 151.825909 285.834841 
L 152.46 286.660502 
L 153.094091 286.784175 
L 153.728182 286.514377 
L 154.996364 285.227322 
L 155.630455 287.329222 
L 156.264545 287.04933 
L 156.898636 287.233725 
L 157.532727 286.891255 
L 158.166818 285.604724 
L 159.435 282.42431 
L 160.069091 283.343164 
L 160.703182 286.521259 
L 161.337273 286.680883 
L 161.971364 285.243212 
L 162.605455 286.377361 
L 163.239545 286.764975 
L 163.873636 285.967409 
L 164.507727 285.835033 
L 165.141818 284.646411 
L 166.41 284.535081 
L 167.044091 285.727743 
L 168.312273 285.074083 
L 168.946364 284.476754 
L 169.580455 283.495361 
L 170.214545 284.630389 
L 170.848636 285.476053 
L 171.482727 282.597174 
L 172.116818 282.145542 
L 172.750909 282.971348 
L 173.385 281.424523 
L 174.019091 282.792373 
L 174.653182 282.856756 
L 175.921364 281.202182 
L 176.555455 281.850362 
L 177.189545 282.825616 
L 178.457727 280.871826 
L 179.091818 279.631747 
L 179.725909 281.484911 
L 180.36 277.455637 
L 180.994091 276.926548 
L 181.628182 278.924552 
L 182.262273 279.115257 
L 183.530455 278.256419 
L 184.164545 277.371504 
L 184.798636 277.164417 
L 186.066818 281.159078 
L 187.335 278.376727 
L 187.969091 277.803103 
L 188.603182 276.975744 
L 189.871364 273.429652 
L 190.505455 275.78551 
L 191.139545 277.418451 
L 191.773636 275.339272 
L 192.407727 275.684744 
L 193.041818 275.236954 
L 194.31 271.726026 
L 194.944091 272.761033 
L 195.578182 274.86642 
L 196.212273 275.952073 
L 196.846364 277.669189 
L 198.748636 275.085777 
L 199.382727 273.737762 
L 200.016818 272.897247 
L 200.650909 274.97212 
L 201.285 275.100795 
L 201.919091 277.564562 
L 202.553182 277.215777 
L 203.187273 275.868848 
L 203.821364 275.551898 
L 204.455455 278.736584 
L 205.089545 279.20311 
L 205.723636 279.840356 
L 206.357727 279.327883 
L 206.991818 276.519325 
L 208.26 281.262085 
L 208.894091 281.815052 
L 209.528182 280.568224 
L 210.162273 280.873732 
L 210.796364 281.463969 
L 211.430455 281.001589 
L 212.064545 281.226968 
L 213.332727 283.039981 
L 213.966818 285.26438 
L 214.600909 284.247066 
L 215.235 284.653958 
L 215.869091 283.400584 
L 216.503182 284.609552 
L 217.137273 286.217052 
L 218.405455 285.59469 
L 219.039545 285.990846 
L 219.673636 286.792121 
L 220.307727 286.099538 
L 220.941818 286.152048 
L 221.575909 285.016918 
L 222.21 285.615006 
L 222.844091 286.930118 
L 223.478182 286.884079 
L 224.112273 286.079141 
L 224.746364 286.295975 
L 225.380455 287.084653 
L 226.014545 285.105227 
L 226.648636 284.143856 
L 227.282727 285.0983 
L 227.916818 285.078242 
L 228.550909 286.525325 
L 229.185 286.010372 
L 229.819091 284.434257 
L 230.453182 284.661448 
L 231.087273 283.956857 
L 231.721364 281.477047 
L 232.355455 281.508859 
L 232.989545 283.669192 
L 234.257727 283.274493 
L 234.891818 283.623539 
L 235.525909 284.126761 
L 236.16 282.475822 
L 236.794091 281.598546 
L 237.428182 281.282977 
L 238.062273 281.472553 
L 238.696364 281.39263 
L 239.330455 280.071284 
L 239.964545 281.420111 
L 240.598636 279.232223 
L 241.232727 280.53884 
L 241.866818 279.616047 
L 242.500909 277.581654 
L 243.135 277.668858 
L 243.769091 279.387605 
L 244.403182 274.126721 
L 245.037273 276.172332 
L 245.671364 274.688142 
L 246.305455 274.495044 
L 246.939545 276.063083 
L 247.573636 274.709284 
L 248.207727 275.808107 
L 248.841818 275.603077 
L 249.475909 275.086755 
L 250.11 274.022273 
L 250.744091 278.005836 
L 251.378182 277.726346 
L 252.012273 276.747693 
L 252.646364 278.07692 
L 253.280455 279.038391 
L 253.914545 276.594852 
L 254.548636 279.01816 
L 255.182727 280.166517 
L 255.816818 279.314858 
L 257.085 282.365611 
L 257.719091 280.196795 
L 258.353182 280.893219 
L 258.987273 280.705407 
L 259.621364 281.536519 
L 260.255455 283.222471 
L 260.889545 283.569615 
L 261.523636 283.680725 
L 262.157727 282.845339 
L 262.791818 284.598838 
L 263.425909 284.539983 
L 264.06 285.295147 
L 264.694091 284.019903 
L 265.328182 285.747823 
L 266.596364 284.112567 
L 267.230455 283.891043 
L 267.864545 285.505276 
L 269.132727 285.913271 
L 269.766818 285.563779 
L 270.400909 285.826309 
L 271.035 285.33589 
L 271.669091 285.802646 
L 272.303182 286.886981 
L 272.937273 286.456411 
L 273.571364 286.602096 
L 274.205455 287.441405 
L 275.473636 287.79402 
L 276.107727 287.769793 
L 276.741818 286.827323 
L 277.375909 286.72021 
L 278.01 287.63966 
L 278.644091 287.638848 
L 279.278182 287.360955 
L 279.912273 287.665938 
L 280.546364 288.457343 
L 281.814545 287.99735 
L 282.448636 288.501639 
L 283.082727 288.682889 
L 283.716818 287.620439 
L 284.985 289.817087 
L 285.619091 289.394799 
L 286.253182 289.401506 
L 286.887273 289.911582 
L 287.521364 289.435328 
L 288.155455 288.708953 
L 288.789545 289.684056 
L 289.423636 289.213098 
L 290.057727 289.272741 
L 291.325909 290.352134 
L 291.96 290.269957 
L 292.594091 289.634372 
L 293.228182 289.657145 
L 293.862273 289.807613 
L 294.496364 289.703247 
L 295.130455 290.234988 
L 295.764545 289.83131 
L 296.398636 289.711879 
L 297.666818 289.727683 
L 298.300909 289.483437 
L 298.935 289.369864 
L 299.569091 289.465972 
L 300.203182 289.793564 
L 300.837273 288.355603 
L 301.471364 289.221277 
L 302.105455 289.41423 
L 303.373636 289.187933 
L 304.007727 289.470761 
L 304.641818 289.353646 
L 305.275909 289.843362 
L 305.91 289.373559 
L 306.544091 289.064948 
L 307.178182 289.695192 
L 307.812273 289.184906 
L 308.446364 289.555504 
L 309.080455 290.6323 
L 309.714545 289.768288 
L 310.348636 288.605565 
L 310.982727 287.955662 
L 311.616818 288.532808 
L 312.250909 289.335569 
L 312.885 288.462427 
L 313.519091 288.560321 
L 314.787273 288.952602 
L 315.421364 289.030951 
L 316.055455 288.942938 
L 317.323636 289.293066 
L 317.957727 288.677732 
L 318.591818 288.746794 
L 319.225909 288.530867 
L 319.86 288.8508 
L 320.494091 288.873467 
L 321.128182 288.624147 
L 321.762273 289.725949 
L 322.396364 290.263884 
L 323.664545 289.851934 
L 325.566818 290.320416 
L 326.200909 290.842491 
L 326.835 290.831344 
L 327.469091 290.397222 
L 328.737273 290.748577 
L 329.371364 290.38676 
L 330.005455 291.081844 
L 331.273636 291.976188 
L 331.907727 292.043541 
L 332.541818 291.655419 
L 333.175909 291.690506 
L 333.81 292.141062 
L 334.444091 292.058869 
L 335.078182 291.817767 
L 335.712273 291.816131 
L 336.346364 292.011375 
L 336.980455 292.698216 
L 337.614545 292.987112 
L 338.248636 292.916183 
L 338.882727 293.318575 
L 339.516818 292.97426 
L 340.150909 293.094683 
L 340.785 292.856274 
L 342.687273 292.791981 
L 343.955455 292.848192 
L 344.589545 293.110368 
L 345.223636 293.252044 
L 345.857727 292.918349 
L 346.491818 293.133649 
L 347.76 293.253998 
L 349.028182 293.97091 
L 350.296364 293.514888 
L 351.564545 293.531364 
L 352.198636 293.438023 
L 353.466818 293.853145 
L 354.100909 293.699503 
L 355.369091 294.117437 
L 356.003182 293.500919 
L 356.637273 293.548123 
L 357.271364 293.79606 
L 357.905455 293.882271 
L 358.539545 293.776364 
L 359.173636 293.974332 
L 359.807727 293.852918 
L 360.441818 293.49064 
L 361.075909 293.620189 
L 361.71 293.949178 
L 362.978182 294.059873 
L 363.612273 294.113322 
L 364.246364 293.714072 
L 364.880455 293.491441 
L 365.514545 293.53882 
L 366.148636 293.875923 
L 366.782727 293.539235 
L 368.050909 293.967282 
L 368.685 293.838526 
L 369.953182 294.035025 
L 370.587273 293.468169 
L 371.855455 294.043118 
L 372.489545 294.117905 
L 373.123636 294.061839 
L 373.757727 293.865845 
L 374.391818 294.021945 
L 375.025909 293.983878 
L 375.66 294.208929 
L 376.928182 294.39518 
L 379.464545 293.822818 
L 380.732727 294.019232 
L 381.366818 294.371491 
L 382.635 294.451733 
L 383.903182 294.32963 
L 385.805455 294.229842 
L 386.439545 294.445879 
L 387.073636 294.282477 
L 387.707727 294.620605 
L 388.341818 294.506679 
L 388.975909 294.13584 
L 390.878182 294.532607 
L 391.512273 294.209386 
L 392.780455 294.321411 
L 393.414545 294.140828 
L 394.048636 294.35194 
L 394.682727 294.107064 
L 395.316818 294.111608 
L 396.585 294.52599 
L 397.219091 294.240222 
L 397.853182 294.492956 
L 398.487273 294.958816 
L 398.487273 294.958816 
" clip-path="url(#p8d19e056aa)" style="fill: none; stroke: #1f77b4; stroke-width: 1.5; stroke-linecap: square"/>
   </g>
   <g id="line2d_30">
    <path d="M 73.832727 193.146272 
L 74.466818 75.888462 
L 75.100909 53.568 
L 77.003182 206.734903 
L 77.637273 234.28782 
L 78.271364 246.12081 
L 78.905455 262.901411 
L 79.539545 274.595072 
L 80.173636 278.245032 
L 81.441818 282.204287 
L 82.075909 285.078029 
L 82.71 286.491104 
L 83.344091 287.576762 
L 83.978182 289.07548 
L 84.612273 289.484405 
L 85.246364 289.38886 
L 85.880455 289.12051 
L 86.514545 289.748933 
L 87.148636 291.221503 
L 87.782727 291.598041 
L 88.416818 291.190616 
L 89.050909 291.765482 
L 89.685 291.771289 
L 90.319091 292.075797 
L 90.953182 291.927197 
L 91.587273 291.552527 
L 92.855455 292.864368 
L 93.489545 292.993143 
L 94.123636 292.72614 
L 95.391818 292.763282 
L 96.025909 293.170223 
L 96.66 293.875869 
L 97.294091 293.180454 
L 97.928182 292.894592 
L 99.196364 292.87159 
L 99.830455 293.449045 
L 101.098636 293.210574 
L 101.732727 293.361088 
L 102.366818 294.111044 
L 103.635 293.32517 
L 105.537273 294.16292 
L 106.171364 293.504824 
L 107.439545 293.569178 
L 108.073636 293.259547 
L 108.707727 293.260235 
L 109.341818 294.019397 
L 109.975909 293.587651 
L 110.61 293.304927 
L 112.512273 293.349842 
L 113.146364 293.915528 
L 113.780455 293.627376 
L 115.048636 293.602287 
L 115.682727 293.285002 
L 116.316818 292.724927 
L 116.950909 292.793197 
L 117.585 293.478438 
L 118.219091 293.287608 
L 118.853182 293.251049 
L 119.487273 292.784246 
L 120.121364 292.74133 
L 120.755455 292.975551 
L 121.389545 293.404803 
L 122.023636 293.11033 
L 122.657727 292.671393 
L 123.291818 292.6208 
L 123.925909 292.845091 
L 124.56 292.510314 
L 126.462273 292.922234 
L 127.730455 293.466763 
L 128.998636 292.970428 
L 129.632727 293.090833 
L 130.266818 293.34153 
L 130.900909 293.291368 
L 133.437273 293.79752 
L 134.071364 293.787004 
L 134.705455 293.913327 
L 135.973636 294.316977 
L 136.607727 294.404202 
L 137.241818 294.282257 
L 137.875909 294.504969 
L 139.778182 294.751738 
L 140.412273 294.668218 
L 141.680455 294.848338 
L 142.948636 295.165781 
L 144.216818 294.863699 
L 146.119091 295.168578 
L 146.753182 295.33063 
L 148.021364 295.327824 
L 148.655455 295.233868 
L 149.923636 295.348803 
L 150.557727 295.374873 
L 151.191818 295.259522 
L 153.728182 295.488 
L 156.264545 295.242912 
L 156.898636 295.304187 
L 159.435 294.920994 
L 161.337273 295.25906 
L 161.971364 295.139781 
L 162.605455 295.261857 
L 163.239545 295.081522 
L 164.507727 295.174087 
L 167.044091 295.089395 
L 167.678182 295.156709 
L 168.312273 294.950545 
L 168.946364 294.900579 
L 169.580455 294.705312 
L 170.214545 294.746846 
L 170.848636 294.934537 
L 171.482727 294.683469 
L 172.750909 294.730572 
L 173.385 294.438336 
L 175.287273 294.720462 
L 175.921364 294.524372 
L 177.189545 294.79144 
L 179.091818 294.494546 
L 179.725909 294.440952 
L 180.36 293.979005 
L 180.994091 293.834755 
L 182.262273 294.299518 
L 182.896364 294.411262 
L 184.798636 293.891752 
L 185.432727 294.128215 
L 186.066818 294.540642 
L 186.700909 294.137638 
L 188.603182 293.652266 
L 189.237273 293.622406 
L 189.871364 293.314046 
L 190.505455 293.762471 
L 191.139545 293.689396 
L 191.773636 293.456767 
L 192.407727 293.702072 
L 193.675909 293.201615 
L 194.31 292.912915 
L 195.578182 293.316231 
L 196.212273 293.334346 
L 196.846364 293.50414 
L 197.480455 293.486025 
L 199.382727 292.993103 
L 200.016818 293.04726 
L 200.650909 293.469903 
L 201.285 293.250009 
L 201.919091 293.548503 
L 203.821364 293.259375 
L 204.455455 293.895265 
L 205.089545 293.799122 
L 205.723636 293.480279 
L 206.991818 293.350609 
L 207.625909 293.626106 
L 208.26 293.762705 
L 209.528182 293.412918 
L 211.430455 293.645984 
L 212.064545 293.413539 
L 212.698636 293.369852 
L 214.600909 293.712226 
L 215.235 293.5604 
L 215.869091 293.082744 
L 216.503182 293.269234 
L 217.137273 293.807079 
L 217.771364 293.872072 
L 218.405455 293.819674 
L 219.039545 293.623323 
L 219.673636 293.744343 
L 220.307727 293.61044 
L 221.575909 293.58624 
L 223.478182 294.046901 
L 224.112273 293.716973 
L 225.380455 293.507498 
L 226.014545 293.500821 
L 226.648636 293.373061 
L 227.282727 293.443732 
L 227.916818 293.359242 
L 228.550909 293.751598 
L 229.185 293.898744 
L 230.453182 293.350189 
L 231.087273 293.433676 
L 231.721364 292.814624 
L 232.355455 292.820367 
L 232.989545 293.203166 
L 233.623636 293.281006 
L 235.525909 293.149745 
L 236.16 292.578602 
L 236.794091 292.776036 
L 237.428182 292.613448 
L 238.062273 292.995897 
L 239.330455 292.141891 
L 239.964545 292.321117 
L 240.598636 292.787315 
L 241.232727 292.760423 
L 241.866818 292.174426 
L 242.500909 291.964578 
L 243.135 292.126581 
L 243.769091 292.003497 
L 244.403182 291.147072 
L 245.037273 291.958559 
L 245.671364 291.091199 
L 246.305455 290.679877 
L 246.939545 290.861545 
L 247.573636 290.511491 
L 248.207727 290.854327 
L 248.841818 290.654423 
L 250.11 290.786811 
L 250.744091 291.534703 
L 251.378182 291.156565 
L 252.012273 291.032043 
L 252.646364 291.662615 
L 253.280455 291.886209 
L 253.914545 291.06706 
L 255.182727 292.224695 
L 255.816818 291.971224 
L 257.085 292.595679 
L 257.719091 292.003233 
L 258.353182 292.24689 
L 258.987273 292.36553 
L 260.255455 292.956864 
L 260.889545 292.825857 
L 261.523636 292.456712 
L 262.157727 292.492965 
L 262.791818 293.06667 
L 263.425909 292.938825 
L 264.06 293.048016 
L 264.694091 293.03277 
L 265.328182 293.138458 
L 265.962273 292.47842 
L 266.596364 292.783902 
L 267.230455 292.561493 
L 267.864545 293.157619 
L 269.132727 292.925336 
L 270.400909 292.297354 
L 271.035 292.698068 
L 271.669091 292.658641 
L 272.303182 293.047555 
L 272.937273 292.545993 
L 273.571364 292.390296 
L 274.205455 292.749448 
L 274.839545 292.382846 
L 275.473636 292.816035 
L 276.107727 292.603773 
L 276.741818 292.044088 
L 277.375909 292.116995 
L 278.01 292.343053 
L 279.912273 292.100513 
L 280.546364 291.675463 
L 281.180455 292.006621 
L 281.814545 291.559766 
L 282.448636 291.438181 
L 283.716818 290.61234 
L 284.350909 290.957143 
L 284.985 291.621917 
L 285.619091 291.432606 
L 286.887273 289.363615 
L 287.521364 289.553328 
L 288.155455 290.58979 
L 288.789545 291.066444 
L 289.423636 290.284631 
L 290.057727 290.544948 
L 290.691818 290.22618 
L 291.325909 290.270911 
L 291.96 289.635741 
L 292.594091 289.806813 
L 293.228182 289.783688 
L 293.862273 289.304663 
L 294.496364 289.183463 
L 295.130455 289.30637 
L 295.764545 288.452271 
L 297.032727 288.204453 
L 298.300909 287.1764 
L 299.569091 286.265556 
L 300.203182 287.40675 
L 302.105455 285.532987 
L 302.739545 285.461478 
L 303.373636 285.097257 
L 304.007727 286.534418 
L 304.641818 285.250901 
L 305.275909 283.142756 
L 305.91 283.945842 
L 306.544091 281.847016 
L 307.178182 284.508099 
L 307.812273 284.132788 
L 309.080455 282.048554 
L 309.714545 282.037995 
L 310.348636 281.236437 
L 310.982727 282.0937 
L 311.616818 281.017391 
L 312.250909 281.551909 
L 312.885 281.65666 
L 313.519091 279.961061 
L 314.153182 280.275761 
L 314.787273 279.131424 
L 315.421364 278.738083 
L 316.055455 281.154548 
L 316.689545 282.865896 
L 317.323636 282.641225 
L 317.957727 282.163162 
L 318.591818 279.730014 
L 319.225909 279.388286 
L 320.494091 277.995183 
L 321.128182 280.018497 
L 321.762273 279.34532 
L 322.396364 280.009509 
L 323.030455 279.214563 
L 323.664545 279.014141 
L 324.298636 280.815548 
L 324.932727 278.651521 
L 325.566818 279.931514 
L 326.200909 278.379498 
L 326.835 279.137025 
L 327.469091 279.426414 
L 328.103182 280.555285 
L 328.737273 280.214977 
L 329.371364 275.79395 
L 330.005455 279.763604 
L 330.639545 281.243082 
L 331.273636 280.087437 
L 331.907727 280.83686 
L 332.541818 281.127016 
L 333.175909 280.470587 
L 333.81 281.37921 
L 334.444091 275.433497 
L 335.078182 275.209852 
L 335.712273 278.452168 
L 336.346364 278.654269 
L 336.980455 279.769126 
L 337.614545 278.556053 
L 338.248636 281.894829 
L 338.882727 281.149914 
L 339.516818 277.85426 
L 340.785 282.979601 
L 341.419091 282.21264 
L 342.053182 281.827673 
L 342.687273 282.528972 
L 343.321364 279.947289 
L 343.955455 279.582131 
L 344.589545 282.217052 
L 345.223636 281.011881 
L 345.857727 279.011736 
L 346.491818 280.351901 
L 347.125909 278.738893 
L 347.76 282.117697 
L 348.394091 282.467946 
L 349.028182 282.525054 
L 349.662273 283.39706 
L 350.296364 282.260685 
L 350.930455 282.904011 
L 351.564545 282.96653 
L 352.198636 282.846493 
L 352.832727 281.849648 
L 353.466818 283.263041 
L 354.100909 284.301501 
L 355.369091 283.838468 
L 356.003182 284.661629 
L 356.637273 284.442899 
L 357.271364 284.886649 
L 357.905455 285.711457 
L 358.539545 284.843723 
L 359.173636 283.697239 
L 359.807727 283.133638 
L 360.441818 284.165653 
L 361.075909 286.746501 
L 361.71 286.623096 
L 362.344091 285.613499 
L 362.978182 286.13045 
L 363.612273 285.024101 
L 364.246364 285.464203 
L 364.880455 283.931925 
L 365.514545 285.666988 
L 366.148636 286.214933 
L 366.782727 284.413241 
L 367.416818 284.583882 
L 368.050909 283.680969 
L 368.685 284.247379 
L 369.319091 286.031754 
L 369.953182 286.25987 
L 370.587273 284.421021 
L 371.221364 284.953502 
L 371.855455 284.110721 
L 372.489545 284.122239 
L 373.123636 285.554487 
L 373.757727 284.548017 
L 374.391818 285.428755 
L 375.025909 285.582091 
L 375.66 285.924115 
L 376.294091 285.735212 
L 376.928182 285.728836 
L 377.562273 286.198692 
L 378.196364 286.021281 
L 378.830455 284.569283 
L 379.464545 285.191886 
L 380.098636 284.470496 
L 380.732727 284.108221 
L 381.366818 284.509769 
L 382.000909 284.052438 
L 382.635 283.795797 
L 383.269091 284.897154 
L 383.903182 284.473418 
L 384.537273 284.429525 
L 385.171364 284.615273 
L 385.805455 285.118717 
L 386.439545 284.196598 
L 387.073636 284.714657 
L 387.707727 283.47929 
L 388.341818 283.747863 
L 388.975909 285.423366 
L 389.61 285.380379 
L 390.244091 285.035001 
L 390.878182 284.410765 
L 391.512273 283.091351 
L 392.146364 282.169255 
L 392.780455 284.531441 
L 393.414545 285.145547 
L 394.048636 284.897659 
L 394.682727 284.852031 
L 395.316818 286.077466 
L 396.585 283.097998 
L 397.853182 284.526037 
L 398.487273 288.161422 
L 398.487273 288.161422 
" clip-path="url(#p8d19e056aa)" style="fill: none; stroke: #ff7f0e; stroke-width: 1.5; stroke-linecap: square"/>
   </g>
   <g id="line2d_31">
    <path d="M 73.832727 229.977927 
L 74.466818 158.230432 
L 75.100909 127.422445 
L 75.735 149.584655 
L 76.369091 185.095019 
L 77.003182 205.618292 
L 77.637273 218.849352 
L 78.271364 238.819403 
L 78.905455 251.370944 
L 79.539545 257.96099 
L 80.807727 261.117711 
L 81.441818 264.604327 
L 82.075909 265.146794 
L 82.71 266.3314 
L 83.344091 269.392539 
L 84.612273 273.147788 
L 85.246364 275.944006 
L 85.880455 273.329347 
L 86.514545 272.58992 
L 87.782727 274.754973 
L 89.685 275.96711 
L 90.319091 278.114861 
L 90.953182 275.629835 
L 91.587273 275.687657 
L 92.221364 273.900539 
L 92.855455 275.304013 
L 93.489545 278.678178 
L 94.123636 275.779895 
L 95.391818 277.751442 
L 96.025909 276.911833 
L 96.66 278.851278 
L 97.294091 279.382762 
L 97.928182 279.367462 
L 98.562273 279.808349 
L 99.196364 281.400222 
L 99.830455 281.966789 
L 100.464545 283.012236 
L 101.098636 282.334357 
L 101.732727 283.118409 
L 102.366818 284.572059 
L 103.000909 284.18157 
L 103.635 284.383468 
L 104.269091 283.65744 
L 104.903182 286.113685 
L 105.537273 286.998667 
L 106.171364 284.261945 
L 106.805455 284.200995 
L 107.439545 285.285744 
L 108.073636 285.620438 
L 108.707727 286.672151 
L 109.341818 287.054558 
L 109.975909 286.883768 
L 110.61 287.003281 
L 111.244091 286.430497 
L 111.878182 287.127674 
L 112.512273 287.433498 
L 113.146364 288.283831 
L 113.780455 287.951063 
L 115.048636 288.52661 
L 116.316818 287.406361 
L 116.950909 287.249064 
L 117.585 287.991975 
L 118.219091 288.391146 
L 119.487273 287.104389 
L 120.121364 287.200383 
L 120.755455 287.00022 
L 121.389545 288.78609 
L 122.023636 288.247696 
L 122.657727 287.16821 
L 123.291818 287.25317 
L 123.925909 287.049126 
L 124.56 286.723111 
L 125.194091 287.18657 
L 125.828182 287.918323 
L 126.462273 288.213348 
L 127.096364 287.287713 
L 127.730455 287.790555 
L 128.364545 288.054979 
L 128.998636 288.799956 
L 129.632727 290.017987 
L 130.266818 290.607472 
L 130.900909 289.803944 
L 131.535 289.783108 
L 132.169091 289.541971 
L 132.803182 289.48023 
L 133.437273 290.232298 
L 134.071364 290.689292 
L 134.705455 290.818485 
L 135.339545 291.077304 
L 135.973636 291.808942 
L 137.241818 290.69385 
L 137.875909 291.035739 
L 138.51 291.188083 
L 139.144091 291.863308 
L 139.778182 291.717103 
L 140.412273 291.860564 
L 141.046364 291.839327 
L 141.680455 292.130204 
L 142.948636 292.182249 
L 143.582727 291.695043 
L 144.850909 292.80077 
L 146.753182 292.693307 
L 147.387273 292.996806 
L 148.021364 292.720541 
L 148.655455 292.829411 
L 149.289545 292.725739 
L 149.923636 292.868431 
L 150.557727 292.65044 
L 151.191818 292.75268 
L 151.825909 293.226094 
L 153.094091 293.326708 
L 153.728182 293.707377 
L 154.362273 293.761414 
L 154.996364 293.464757 
L 156.264545 293.330678 
L 156.898636 293.655116 
L 158.166818 293.229034 
L 158.800909 292.439835 
L 159.435 292.424903 
L 160.069091 292.81999 
L 160.703182 293.52784 
L 161.337273 293.504565 
L 161.971364 293.219104 
L 163.239545 293.885783 
L 163.873636 293.652739 
L 164.507727 293.24622 
L 165.141818 293.029955 
L 165.775909 293.163274 
L 166.41 292.880075 
L 167.044091 293.017219 
L 169.580455 292.033895 
L 170.214545 292.318628 
L 170.848636 292.435548 
L 171.482727 291.793689 
L 172.116818 291.626487 
L 172.750909 291.695362 
L 173.385 291.26617 
L 174.653182 291.884775 
L 175.287273 291.885756 
L 175.921364 291.443606 
L 177.189545 291.323837 
L 177.823636 291.246281 
L 178.457727 291.327015 
L 179.725909 291.735649 
L 180.36 290.524021 
L 180.994091 290.536326 
L 181.628182 290.844958 
L 182.262273 290.891965 
L 182.896364 290.756846 
L 183.530455 291.090496 
L 184.164545 290.946399 
L 184.798636 290.67529 
L 186.066818 291.776723 
L 186.700909 290.870657 
L 187.969091 290.829304 
L 188.603182 289.973933 
L 189.237273 289.910129 
L 189.871364 289.42327 
L 190.505455 289.947273 
L 191.139545 290.657176 
L 191.773636 289.736366 
L 193.041818 289.791739 
L 193.675909 289.548758 
L 194.31 288.704629 
L 194.944091 289.365932 
L 195.578182 290.268634 
L 196.212273 290.364461 
L 196.846364 290.756602 
L 198.114545 290.433562 
L 198.748636 290.404149 
L 200.016818 289.654606 
L 200.650909 290.416424 
L 201.285 290.427514 
L 201.919091 290.743932 
L 202.553182 290.328812 
L 203.187273 290.276273 
L 203.821364 290.743729 
L 204.455455 291.796021 
L 205.089545 291.751832 
L 205.723636 291.459557 
L 206.357727 291.459375 
L 206.991818 290.912957 
L 208.26 291.956954 
L 208.894091 292.006458 
L 210.162273 291.534578 
L 210.796364 291.690875 
L 211.430455 292.070368 
L 212.064545 291.613845 
L 212.698636 291.986915 
L 213.332727 292.107835 
L 213.966818 292.758607 
L 214.600909 292.747895 
L 215.235 292.487363 
L 215.869091 291.618341 
L 216.503182 291.852588 
L 217.137273 292.597544 
L 217.771364 292.997198 
L 218.405455 292.566366 
L 219.039545 292.57192 
L 219.673636 292.764371 
L 220.307727 293.195298 
L 220.941818 293.088482 
L 221.575909 293.376192 
L 222.21 293.287649 
L 224.112273 292.603683 
L 224.746364 292.742487 
L 225.380455 292.560464 
L 226.014545 292.0758 
L 226.648636 292.948346 
L 227.282727 292.408037 
L 227.916818 292.015361 
L 228.550909 292.755141 
L 229.185 292.258477 
L 229.819091 291.929128 
L 230.453182 292.082871 
L 231.087273 291.684343 
L 231.721364 290.632479 
L 232.355455 290.979726 
L 232.989545 291.624613 
L 233.623636 291.188935 
L 234.257727 291.276113 
L 234.891818 290.594201 
L 235.525909 290.766563 
L 236.16 290.385556 
L 236.794091 290.457266 
L 237.428182 290.861316 
L 238.696364 291.126522 
L 239.330455 290.599888 
L 239.964545 291.489256 
L 240.598636 291.584723 
L 241.232727 292.28488 
L 241.866818 292.574877 
L 243.135 292.321011 
L 243.769091 292.665235 
L 245.037273 292.463554 
L 245.671364 292.967711 
L 246.939545 292.932705 
L 247.573636 293.371057 
L 248.207727 293.572756 
L 248.841818 293.447342 
L 249.475909 293.714827 
L 250.11 293.529085 
L 251.378182 293.682625 
L 252.012273 293.425824 
L 253.280455 293.686893 
L 254.548636 293.717845 
L 255.182727 293.931419 
L 255.816818 293.09546 
L 256.450909 292.990496 
L 257.085 293.521226 
L 258.353182 293.642889 
L 258.987273 293.241531 
L 260.255455 293.925869 
L 261.523636 292.99013 
L 262.157727 293.277734 
L 262.791818 292.981326 
L 263.425909 293.517075 
L 264.06 293.297464 
L 264.694091 293.265527 
L 265.328182 293.778466 
L 265.962273 293.187223 
L 266.596364 293.390453 
L 267.864545 292.881059 
L 268.498636 292.856074 
L 269.132727 292.949356 
L 269.766818 292.769129 
L 271.035 292.945996 
L 271.669091 292.501788 
L 272.303182 292.519828 
L 273.571364 291.676741 
L 274.205455 291.020242 
L 274.839545 291.715781 
L 275.473636 291.542725 
L 276.107727 290.622451 
L 277.375909 290.693806 
L 278.01 291.080054 
L 278.644091 290.879586 
L 279.912273 291.047772 
L 280.546364 290.031812 
L 281.180455 289.636358 
L 281.814545 289.578247 
L 282.448636 290.396664 
L 283.716818 288.48953 
L 284.350909 288.777698 
L 284.985 289.482567 
L 285.619091 289.882047 
L 286.887273 286.921486 
L 288.155455 289.19098 
L 288.789545 289.287154 
L 289.423636 289.109789 
L 290.057727 289.394126 
L 290.691818 289.082649 
L 291.96 288.08011 
L 292.594091 289.610105 
L 293.228182 289.384746 
L 293.862273 287.816027 
L 294.496364 287.64169 
L 295.130455 288.548567 
L 295.764545 288.028021 
L 296.398636 287.92289 
L 297.032727 288.291953 
L 298.300909 287.163269 
L 298.935 286.210338 
L 299.569091 286.758868 
L 300.203182 287.719031 
L 300.837273 287.000854 
L 301.471364 287.094185 
L 302.739545 286.281709 
L 303.373636 285.8776 
L 304.007727 286.855343 
L 304.641818 286.32013 
L 305.275909 284.594802 
L 305.91 285.076416 
L 306.544091 283.477644 
L 307.178182 285.611362 
L 307.812273 285.481088 
L 308.446364 284.569217 
L 309.080455 284.410474 
L 309.714545 284.847884 
L 310.348636 284.118729 
L 310.982727 285.235126 
L 311.616818 284.516 
L 312.250909 285.05947 
L 312.885 285.142792 
L 313.519091 284.174655 
L 314.153182 284.065039 
L 314.787273 283.594618 
L 315.421364 283.701078 
L 316.055455 285.622739 
L 316.689545 286.717589 
L 317.323636 286.560566 
L 317.957727 286.64832 
L 318.591818 285.517237 
L 319.225909 285.025054 
L 319.86 284.750433 
L 320.494091 284.788801 
L 321.128182 286.520469 
L 321.762273 285.847739 
L 322.396364 286.408696 
L 323.030455 286.062914 
L 323.664545 286.371715 
L 324.298636 287.347593 
L 324.932727 286.523351 
L 325.566818 286.677115 
L 326.200909 285.948031 
L 327.469091 287.535543 
L 328.737273 288.518364 
L 329.371364 286.287806 
L 330.639545 288.745116 
L 331.273636 288.577178 
L 331.907727 288.293523 
L 332.541818 288.865937 
L 333.175909 288.808599 
L 333.81 289.208428 
L 334.444091 287.275205 
L 335.078182 287.387742 
L 335.712273 288.22396 
L 336.346364 288.606141 
L 336.980455 288.721509 
L 337.614545 289.020178 
L 338.248636 289.765047 
L 338.882727 289.655434 
L 339.516818 288.635724 
L 340.150909 289.410584 
L 340.785 290.553327 
L 342.053182 290.548953 
L 342.687273 290.877864 
L 343.321364 290.198457 
L 343.955455 290.067146 
L 344.589545 290.445191 
L 345.857727 289.690937 
L 346.491818 290.488143 
L 347.76 291.080101 
L 348.394091 291.462882 
L 349.028182 291.293222 
L 350.296364 291.315953 
L 350.930455 291.188504 
L 352.198636 291.703381 
L 352.832727 291.499636 
L 354.100909 291.960452 
L 354.735 291.806494 
L 355.369091 291.501892 
L 356.003182 291.02226 
L 356.637273 291.2744 
L 357.271364 292.373265 
L 357.905455 292.047559 
L 358.539545 291.352613 
L 359.173636 291.356714 
L 359.807727 291.241083 
L 360.441818 290.852763 
L 361.075909 291.188251 
L 361.71 291.779429 
L 362.344091 291.707312 
L 362.978182 292.027925 
L 364.880455 291.070897 
L 365.514545 291.328063 
L 366.782727 292.181486 
L 367.416818 291.832111 
L 368.050909 291.193365 
L 368.685 291.809955 
L 370.587273 292.292796 
L 371.221364 292.314059 
L 371.855455 290.88561 
L 372.489545 290.606739 
L 373.123636 291.329475 
L 374.391818 291.021242 
L 375.025909 291.555501 
L 375.66 291.672245 
L 376.294091 291.136129 
L 376.928182 291.409306 
L 377.562273 290.975853 
L 378.196364 290.298359 
L 378.830455 290.702497 
L 379.464545 291.474646 
L 380.098636 291.274849 
L 380.732727 290.764635 
L 381.366818 290.981858 
L 382.635 290.426517 
L 383.903182 291.402897 
L 384.537273 291.039891 
L 385.805455 291.649711 
L 386.439545 291.47236 
L 387.073636 291.845172 
L 388.341818 291.644177 
L 390.244091 292.227335 
L 390.878182 291.927496 
L 391.512273 291.818967 
L 392.780455 292.294876 
L 393.414545 291.923361 
L 395.316818 292.811726 
L 395.950909 292.426819 
L 396.585 292.180789 
L 397.853182 292.539118 
L 398.487273 293.82216 
L 398.487273 293.82216 
" clip-path="url(#p8d19e056aa)" style="fill: none; stroke: #2ca02c; stroke-width: 1.5; stroke-linecap: square"/>
   </g>
   <g id="patch_3">
    <path d="M 57.6 307.584 
L 57.6 41.472 
" style="fill: none; stroke: #000000; stroke-width: 0.8; stroke-linejoin: miter; stroke-linecap: square"/>
   </g>
   <g id="patch_4">
    <path d="M 414.72 307.584 
L 414.72 41.472 
" style="fill: none; stroke: #000000; stroke-width: 0.8; stroke-linejoin: miter; stroke-linecap: square"/>
   </g>
   <g id="patch_5">
    <path d="M 57.6 307.584 
L 414.72 307.584 
" style="fill: none; stroke: #000000; stroke-width: 0.8; stroke-linejoin: miter; stroke-linecap: square"/>
   </g>
   <g id="patch_6">
    <path d="M 57.6 41.472 
L 414.72 41.472 
" style="fill: none; stroke: #000000; stroke-width: 0.8; stroke-linejoin: miter; stroke-linecap: square"/>
   </g>
   <g id="text_17">
    <!-- Gyro Noise Spectral Density -->
    <g transform="translate(152.01 35.472) scale(0.12 -0.12)">
     <defs>
      <path id="DejaVuSans-47" d="M 3809 666 
L 3809 1919 
L 2778 1919 
L 2778 2438 
L 4434 2438 
L 4434 434 
Q 4069 175 3628 42 
Q 3188 -91 2688 -91 
Q 1594 -91 976 548 
Q 359 1188 359 2328 
Q 359 3472 976 4111 
Q 1594 4750 2688 4750 
Q 3144 4750 3555 4637 
Q 3966 4525 4313 4306 
L 4313 3634 
Q 3963 3931 3569 4081 
Q 3175 4231 2741 4231 
Q 1884 4231 1454 3753 
Q 1025 3275 1025 2328 
Q 1025 1384 1454 906 
Q 1884 428 2741 428 
Q 3075 428 3337 486 
Q 3600 544 3809 666 
z
" transform="scale(0.015625)"/>
      <path id="DejaVuSans-6f" d="M 1959 3097 
Q 1497 3097 1228 2736 
Q 959 2375 959 1747 
Q 959 1119 1226 758 
Q 1494 397 1959 397 
Q 2419 397 2687 759 
Q 2956 1122 2956 1747 
Q 2956 2369 2687 2733 
Q 2419 3097 1959 3097 
z
M 1959 3584 
Q 2709 3584 3137 3096 
Q 3566 2609 3566 1747 
Q 3566 888 3137 398 
Q 2709 -91 1959 -91 
Q 1206 -91 779 398 
Q 353 888 353 1747 
Q 353 2609 779 3096 
Q 1206 3584 1959 3584 
z
" transform="scale(0.015625)"/>
      <path id="DejaVuSans-4e" d="M 628 4666 
L 1478 4666 
L 3547 763 
L 3547 4666 
L 4159 4666 
L 4159 0 
L 3309 0 
L 1241 3903 
L 1241 0 
L 628 0 
L 628 4666 
z
" transform="scale(0.015625)"/>
     </defs>
     <use xlink:href="#DejaVuSans-47"/>
     <use xlink:href="#DejaVuSans-79" x="77.490234"/>
     <use xlink:href="#DejaVuSans-72" x="136.669922"/>
     <use xlink:href="#DejaVuSans-6f" x="175.533203"/>
     <use xlink:href="#DejaVuSans-20" x="236.714844"/>
     <use xlink:href="#DejaVuSans-4e" x="268.501953"/>
     <use xlink:href="#DejaVuSans-6f" x="343.306641"/>
     <use xlink:href="#DejaVuSans-69" x="404.488281"/>
     <use xlink:href="#DejaVuSans-73" x="432.271484"/>
     <use xlink:href="#DejaVuSans-65" x="484.371094"/>
     <use xlink:href="#DejaVuSans-20" x="545.894531"/>
     <use xlink:href="#DejaVuSans-53" x="577.681641"/>
     <use xlink:href="#DejaVuSans-70" x="641.158203"/>
     <use xlink:href="#DejaVuSans-65" x="704.634766"/>
     <use xlink:href="#DejaVuSans-63" x="766.158203"/>
     <use xlink:href="#DejaVuSans-74" x="821.138672"/>
     <use xlink:href="#DejaVuSans-72" x="860.347656"/>
     <use xlink:href="#DejaVuSans-61" x="901.460938"/>
     <use xlink:href="#DejaVuSans-6c" x="962.740234"/>
     <use xlink:href="#DejaVuSans-20" x="990.523438"/>
     <use xlink:href="#DejaVuSans-44" x="1022.310547"/>
     <use xlink:href="#DejaVuSans-65" x="1099.3125"/>
     <use xlink:href="#DejaVuSans-6e" x="1160.835938"/>
     <use xlink:href="#DejaVuSans-73" x="1224.214844"/>
     <use xlink:href="#DejaVuSans-69" x="1276.314453"/>
     <use xlink:href="#DejaVuSans-74" x="1304.097656"/>
     <use xlink:href="#DejaVuSans-79" x="1343.306641"/>
    </g>
   </g>
   <g id="legend_1">
    <g id="patch_7">
     <path d="M 363.452813 93.506375 
L 407.72 93.506375 
Q 409.72 93.506375 409.72 91.506375 
L 409.72 48.472 
Q 409.72 46.472 407.72 46.472 
L 363.452813 46.472 
Q 361.452813 46.472 361.452813 48.472 
L 361.452813 91.506375 
Q 361.452813 93.506375 363.452813 93.506375 
z
" style="fill: #ffffff; opacity: 0.8; stroke: #cccccc; stroke-linejoin: miter"/>
    </g>
    <g id="line2d_32">
     <path d="M 365.452813 54.570438 
L 375.452813 54.570438 
L 385.452813 54.570438 
" style="fill: none; stroke: #1f77b4; stroke-width: 1.5; stroke-linecap: square"/>
    </g>
    <g id="text_18">
     <!-- gx -->
     <g transform="translate(393.452813 58.070438) scale(0.1 -0.1)">
      <defs>
       <path id="DejaVuSans-67" d="M 2906 1791 
Q 2906 2416 2648 2759 
Q 2391 3103 1925 3103 
Q 1463 3103 1205 2759 
Q 947 2416 947 1791 
Q 947 1169 1205 825 
Q 1463 481 1925 481 
Q 2391 481 2648 825 
Q 2906 1169 2906 1791 
z
M 3481 434 
Q 3481 -459 3084 -895 
Q 2688 -1331 1869 -1331 
Q 1566 -1331 1297 -1286 
Q 1028 -1241 775 -1147 
L 775 -588 
Q 1028 -725 1275 -790 
Q 1522 -856 1778 -856 
Q 2344 -856 2625 -561 
Q 2906 -266 2906 331 
L 2906 616 
Q 2728 306 2450 153 
Q 2172 0 1784 0 
Q 1141 0 747 490 
Q 353 981 353 1791 
Q 353 2603 747 3093 
Q 1141 3584 1784 3584 
Q 2172 3584 2450 3431 
Q 2728 3278 2906 2969 
L 2906 3500 
L 3481 3500 
L 3481 434 
z
" transform="scale(0.015625)"/>
       <path id="DejaVuSans-78" d="M 3513 3500 
L 2247 1797 
L 3578 0 
L 2900 0 
L 1881 1375 
L 863 0 
L 184 0 
L 1544 1831 
L 300 3500 
L 978 3500 
L 1906 2253 
L 2834 3500 
L 3513 3500 
z
" transform="scale(0.015625)"/>
      </defs>
      <use xlink:href="#DejaVuSans-67"/>
      <use xlink:href="#DejaVuSans-78" x="63.476562"/>
     </g>
    </g>
    <g id="line2d_33">
     <path d="M 365.452813 69.248563 
L 375.452813 69.248563 
L 385.452813 69.248563 
" style="fill: none; stroke: #ff7f0e; stroke-width: 1.5; stroke-linecap: square"/>
    </g>
    <g id="text_19">
     <!-- gy -->
     <g transform="translate(393.452813 72.748563) scale(0.1 -0.1)">
      <use xlink:href="#DejaVuSans-67"/>
      <use xlink:href="#DejaVuSans-79" x="63.476562"/>
     </g>
    </g>
    <g id="line2d_34">
     <path d="M 365.452813 83.926688 
L 375.452813 83.926688 
L 385.452813 83.926688 
" style="fill: none; stroke: #2ca02c; stroke-width: 1.5; stroke-linecap: square"/>
    </g>
    <g id="text_20">
     <!-- gz -->
     <g transform="translate(393.452813 87.426688) scale(0.1 -0.1)">
      <use xlink:href="#DejaVuSans-67"/>
      <use xlink:href="#DejaVuSans-7a" x="63.476562"/>
     </g>
    </g>
   </g>
  </g>
 </g>
 <defs>
  <clipPath id="p8d19e056aa">
   <rect x="57.6" y="41.472" width="357.12" height="266.112"/>
  </clipPath>
 </defs>
</svg>
