<?xml version="1.0" encoding="utf-8" standalone="no"?>
<!DOCTYPE svg PUBLIC "-//W3C//DTD SVG 1.1//EN"
  "http://www.w3.org/Graphics/SVG/1.1/DTD/svg11.dtd">
<svg xmlns:xlink="http://www.w3.org/1999/xlink" width="460.8pt" height="345.6pt" viewBox="0 0 460.8 345.6" xmlns="http://www.w3.org/2000/svg" version="1.1">
 <metadata>
  <rdf:RDF xmlns:dc="http://purl.org/dc/elements/1.1/" xmlns:cc="http://creativecommons.org/ns#" xmlns:rdf="http://www.w3.org/1999/02/22-rdf-syntax-ns#">
   <cc:Work>
    <dc:type rdf:resource="http://purl.org/dc/dcmitype/StillImage"/>
    <dc:date>2024-05-09T20:47:31.911927</dc:date>
    <dc:format>image/svg+xml</dc:format>
    <dc:creator>
     <cc:Agent>
      <dc:title>Matplotlib v3.8.3, https://matplotlib.org/</dc:title>
     </cc:Agent>
    </dc:creator>
   </cc:Work>
  </rdf:RDF>
 </metadata>
 <defs>
  <style type="text/css">*{stroke-linejoin: round; stroke-linecap: butt}</style>
 </defs>
 <g id="figure_1">
  <g id="patch_1">
   <path d="M 0 345.6 
L 460.8 345.6 
L 460.8 0 
L 0 0 
z
" style="fill: #ffffff"/>
  </g>
  <g id="axes_1">
   <g id="patch_2">
    <path d="M 57.6 307.584 
L 414.72 307.584 
L 414.72 41.472 
L 57.6 41.472 
z
" style="fill: #ffffff"/>
   </g>
   <g id="matplotlib.axis_1">
    <g id="xtick_1">
     <g id="line2d_1">
      <path d="M 73.832727 307.584 
L 73.832727 41.472 
" clip-path="url(#pabf25bcac9)" style="fill: none; stroke: #b0b0b0; stroke-width: 0.8; stroke-linecap: square"/>
     </g>
     <g id="line2d_2">
      <defs>
       <path id="m8aae50fb2f" d="M 0 0 
L 0 3.5 
" style="stroke: #000000; stroke-width: 0.8"/>
      </defs>
      <g>
       <use xlink:href="#m8aae50fb2f" x="73.832727" y="307.584" style="stroke: #000000; stroke-width: 0.8"/>
      </g>
     </g>
     <g id="text_1">
      <!-- 0 -->
      <g transform="translate(70.651477 322.182437) scale(0.1 -0.1)">
       <defs>
        <path id="DejaVuSans-30" d="M 2034 4250 
Q 1547 4250 1301 3770 
Q 1056 3291 1056 2328 
Q 1056 1369 1301 889 
Q 1547 409 2034 409 
Q 2525 409 2770 889 
Q 3016 1369 3016 2328 
Q 3016 3291 2770 3770 
Q 2525 4250 2034 4250 
z
M 2034 4750 
Q 2819 4750 3233 4129 
Q 3647 3509 3647 2328 
Q 3647 1150 3233 529 
Q 2819 -91 2034 -91 
Q 1250 -91 836 529 
Q 422 1150 422 2328 
Q 422 3509 836 4129 
Q 1250 4750 2034 4750 
z
" transform="scale(0.015625)"/>
       </defs>
       <use xlink:href="#DejaVuSans-30"/>
      </g>
     </g>
    </g>
    <g id="xtick_2">
     <g id="line2d_3">
      <path d="M 138.763636 307.584 
L 138.763636 41.472 
" clip-path="url(#pabf25bcac9)" style="fill: none; stroke: #b0b0b0; stroke-width: 0.8; stroke-linecap: square"/>
     </g>
     <g id="line2d_4">
      <g>
       <use xlink:href="#m8aae50fb2f" x="138.763636" y="307.584" style="stroke: #000000; stroke-width: 0.8"/>
      </g>
     </g>
     <g id="text_2">
      <!-- 20 -->
      <g transform="translate(132.401136 322.182437) scale(0.1 -0.1)">
       <defs>
        <path id="DejaVuSans-32" d="M 1228 531 
L 3431 531 
L 3431 0 
L 469 0 
L 469 531 
Q 828 903 1448 1529 
Q 2069 2156 2228 2338 
Q 2531 2678 2651 2914 
Q 2772 3150 2772 3378 
Q 2772 3750 2511 3984 
Q 2250 4219 1831 4219 
Q 1534 4219 1204 4116 
Q 875 4013 500 3803 
L 500 4441 
Q 881 4594 1212 4672 
Q 1544 4750 1819 4750 
Q 2544 4750 2975 4387 
Q 3406 4025 3406 3419 
Q 3406 3131 3298 2873 
Q 3191 2616 2906 2266 
Q 2828 2175 2409 1742 
Q 1991 1309 1228 531 
z
" transform="scale(0.015625)"/>
       </defs>
       <use xlink:href="#DejaVuSans-32"/>
       <use xlink:href="#DejaVuSans-30" x="63.623047"/>
      </g>
     </g>
    </g>
    <g id="xtick_3">
     <g id="line2d_5">
      <path d="M 203.694545 307.584 
L 203.694545 41.472 
" clip-path="url(#pabf25bcac9)" style="fill: none; stroke: #b0b0b0; stroke-width: 0.8; stroke-linecap: square"/>
     </g>
     <g id="line2d_6">
      <g>
       <use xlink:href="#m8aae50fb2f" x="203.694545" y="307.584" style="stroke: #000000; stroke-width: 0.8"/>
      </g>
     </g>
     <g id="text_3">
      <!-- 40 -->
      <g transform="translate(197.332045 322.182437) scale(0.1 -0.1)">
       <defs>
        <path id="DejaVuSans-34" d="M 2419 4116 
L 825 1625 
L 2419 1625 
L 2419 4116 
z
M 2253 4666 
L 3047 4666 
L 3047 1625 
L 3713 1625 
L 3713 1100 
L 3047 1100 
L 3047 0 
L 2419 0 
L 2419 1100 
L 313 1100 
L 313 1709 
L 2253 4666 
z
" transform="scale(0.015625)"/>
       </defs>
       <use xlink:href="#DejaVuSans-34"/>
       <use xlink:href="#DejaVuSans-30" x="63.623047"/>
      </g>
     </g>
    </g>
    <g id="xtick_4">
     <g id="line2d_7">
      <path d="M 268.625455 307.584 
L 268.625455 41.472 
" clip-path="url(#pabf25bcac9)" style="fill: none; stroke: #b0b0b0; stroke-width: 0.8; stroke-linecap: square"/>
     </g>
     <g id="line2d_8">
      <g>
       <use xlink:href="#m8aae50fb2f" x="268.625455" y="307.584" style="stroke: #000000; stroke-width: 0.8"/>
      </g>
     </g>
     <g id="text_4">
      <!-- 60 -->
      <g transform="translate(262.262955 322.182437) scale(0.1 -0.1)">
       <defs>
        <path id="DejaVuSans-36" d="M 2113 2584 
Q 1688 2584 1439 2293 
Q 1191 2003 1191 1497 
Q 1191 994 1439 701 
Q 1688 409 2113 409 
Q 2538 409 2786 701 
Q 3034 994 3034 1497 
Q 3034 2003 2786 2293 
Q 2538 2584 2113 2584 
z
M 3366 4563 
L 3366 3988 
Q 3128 4100 2886 4159 
Q 2644 4219 2406 4219 
Q 1781 4219 1451 3797 
Q 1122 3375 1075 2522 
Q 1259 2794 1537 2939 
Q 1816 3084 2150 3084 
Q 2853 3084 3261 2657 
Q 3669 2231 3669 1497 
Q 3669 778 3244 343 
Q 2819 -91 2113 -91 
Q 1303 -91 875 529 
Q 447 1150 447 2328 
Q 447 3434 972 4092 
Q 1497 4750 2381 4750 
Q 2619 4750 2861 4703 
Q 3103 4656 3366 4563 
z
" transform="scale(0.015625)"/>
       </defs>
       <use xlink:href="#DejaVuSans-36"/>
       <use xlink:href="#DejaVuSans-30" x="63.623047"/>
      </g>
     </g>
    </g>
    <g id="xtick_5">
     <g id="line2d_9">
      <path d="M 333.556364 307.584 
L 333.556364 41.472 
" clip-path="url(#pabf25bcac9)" style="fill: none; stroke: #b0b0b0; stroke-width: 0.8; stroke-linecap: square"/>
     </g>
     <g id="line2d_10">
      <g>
       <use xlink:href="#m8aae50fb2f" x="333.556364" y="307.584" style="stroke: #000000; stroke-width: 0.8"/>
      </g>
     </g>
     <g id="text_5">
      <!-- 80 -->
      <g transform="translate(327.193864 322.182437) scale(0.1 -0.1)">
       <defs>
        <path id="DejaVuSans-38" d="M 2034 2216 
Q 1584 2216 1326 1975 
Q 1069 1734 1069 1313 
Q 1069 891 1326 650 
Q 1584 409 2034 409 
Q 2484 409 2743 651 
Q 3003 894 3003 1313 
Q 3003 1734 2745 1975 
Q 2488 2216 2034 2216 
z
M 1403 2484 
Q 997 2584 770 2862 
Q 544 3141 544 3541 
Q 544 4100 942 4425 
Q 1341 4750 2034 4750 
Q 2731 4750 3128 4425 
Q 3525 4100 3525 3541 
Q 3525 3141 3298 2862 
Q 3072 2584 2669 2484 
Q 3125 2378 3379 2068 
Q 3634 1759 3634 1313 
Q 3634 634 3220 271 
Q 2806 -91 2034 -91 
Q 1263 -91 848 271 
Q 434 634 434 1313 
Q 434 1759 690 2068 
Q 947 2378 1403 2484 
z
M 1172 3481 
Q 1172 3119 1398 2916 
Q 1625 2713 2034 2713 
Q 2441 2713 2670 2916 
Q 2900 3119 2900 3481 
Q 2900 3844 2670 4047 
Q 2441 4250 2034 4250 
Q 1625 4250 1398 4047 
Q 1172 3844 1172 3481 
z
" transform="scale(0.015625)"/>
       </defs>
       <use xlink:href="#DejaVuSans-38"/>
       <use xlink:href="#DejaVuSans-30" x="63.623047"/>
      </g>
     </g>
    </g>
    <g id="xtick_6">
     <g id="line2d_11">
      <path d="M 398.487273 307.584 
L 398.487273 41.472 
" clip-path="url(#pabf25bcac9)" style="fill: none; stroke: #b0b0b0; stroke-width: 0.8; stroke-linecap: square"/>
     </g>
     <g id="line2d_12">
      <g>
       <use xlink:href="#m8aae50fb2f" x="398.487273" y="307.584" style="stroke: #000000; stroke-width: 0.8"/>
      </g>
     </g>
     <g id="text_6">
      <!-- 100 -->
      <g transform="translate(388.943523 322.182437) scale(0.1 -0.1)">
       <defs>
        <path id="DejaVuSans-31" d="M 794 531 
L 1825 531 
L 1825 4091 
L 703 3866 
L 703 4441 
L 1819 4666 
L 2450 4666 
L 2450 531 
L 3481 531 
L 3481 0 
L 794 0 
L 794 531 
z
" transform="scale(0.015625)"/>
       </defs>
       <use xlink:href="#DejaVuSans-31"/>
       <use xlink:href="#DejaVuSans-30" x="63.623047"/>
       <use xlink:href="#DejaVuSans-30" x="127.246094"/>
      </g>
     </g>
    </g>
    <g id="text_7">
     <!-- Frequency [Hz] -->
     <g transform="translate(198.455312 335.860562) scale(0.1 -0.1)">
      <defs>
       <path id="DejaVuSans-46" d="M 628 4666 
L 3309 4666 
L 3309 4134 
L 1259 4134 
L 1259 2759 
L 3109 2759 
L 3109 2228 
L 1259 2228 
L 1259 0 
L 628 0 
L 628 4666 
z
" transform="scale(0.015625)"/>
       <path id="DejaVuSans-72" d="M 2631 2963 
Q 2534 3019 2420 3045 
Q 2306 3072 2169 3072 
Q 1681 3072 1420 2755 
Q 1159 2438 1159 1844 
L 1159 0 
L 581 0 
L 581 3500 
L 1159 3500 
L 1159 2956 
Q 1341 3275 1631 3429 
Q 1922 3584 2338 3584 
Q 2397 3584 2469 3576 
Q 2541 3569 2628 3553 
L 2631 2963 
z
" transform="scale(0.015625)"/>
       <path id="DejaVuSans-65" d="M 3597 1894 
L 3597 1613 
L 953 1613 
Q 991 1019 1311 708 
Q 1631 397 2203 397 
Q 2534 397 2845 478 
Q 3156 559 3463 722 
L 3463 178 
Q 3153 47 2828 -22 
Q 2503 -91 2169 -91 
Q 1331 -91 842 396 
Q 353 884 353 1716 
Q 353 2575 817 3079 
Q 1281 3584 2069 3584 
Q 2775 3584 3186 3129 
Q 3597 2675 3597 1894 
z
M 3022 2063 
Q 3016 2534 2758 2815 
Q 2500 3097 2075 3097 
Q 1594 3097 1305 2825 
Q 1016 2553 972 2059 
L 3022 2063 
z
" transform="scale(0.015625)"/>
       <path id="DejaVuSans-71" d="M 947 1747 
Q 947 1113 1208 752 
Q 1469 391 1925 391 
Q 2381 391 2643 752 
Q 2906 1113 2906 1747 
Q 2906 2381 2643 2742 
Q 2381 3103 1925 3103 
Q 1469 3103 1208 2742 
Q 947 2381 947 1747 
z
M 2906 525 
Q 2725 213 2448 61 
Q 2172 -91 1784 -91 
Q 1150 -91 751 415 
Q 353 922 353 1747 
Q 353 2572 751 3078 
Q 1150 3584 1784 3584 
Q 2172 3584 2448 3432 
Q 2725 3281 2906 2969 
L 2906 3500 
L 3481 3500 
L 3481 -1331 
L 2906 -1331 
L 2906 525 
z
" transform="scale(0.015625)"/>
       <path id="DejaVuSans-75" d="M 544 1381 
L 544 3500 
L 1119 3500 
L 1119 1403 
Q 1119 906 1312 657 
Q 1506 409 1894 409 
Q 2359 409 2629 706 
Q 2900 1003 2900 1516 
L 2900 3500 
L 3475 3500 
L 3475 0 
L 2900 0 
L 2900 538 
Q 2691 219 2414 64 
Q 2138 -91 1772 -91 
Q 1169 -91 856 284 
Q 544 659 544 1381 
z
M 1991 3584 
L 1991 3584 
z
" transform="scale(0.015625)"/>
       <path id="DejaVuSans-6e" d="M 3513 2113 
L 3513 0 
L 2938 0 
L 2938 2094 
Q 2938 2591 2744 2837 
Q 2550 3084 2163 3084 
Q 1697 3084 1428 2787 
Q 1159 2491 1159 1978 
L 1159 0 
L 581 0 
L 581 3500 
L 1159 3500 
L 1159 2956 
Q 1366 3272 1645 3428 
Q 1925 3584 2291 3584 
Q 2894 3584 3203 3211 
Q 3513 2838 3513 2113 
z
" transform="scale(0.015625)"/>
       <path id="DejaVuSans-63" d="M 3122 3366 
L 3122 2828 
Q 2878 2963 2633 3030 
Q 2388 3097 2138 3097 
Q 1578 3097 1268 2742 
Q 959 2388 959 1747 
Q 959 1106 1268 751 
Q 1578 397 2138 397 
Q 2388 397 2633 464 
Q 2878 531 3122 666 
L 3122 134 
Q 2881 22 2623 -34 
Q 2366 -91 2075 -91 
Q 1284 -91 818 406 
Q 353 903 353 1747 
Q 353 2603 823 3093 
Q 1294 3584 2113 3584 
Q 2378 3584 2631 3529 
Q 2884 3475 3122 3366 
z
" transform="scale(0.015625)"/>
       <path id="DejaVuSans-79" d="M 2059 -325 
Q 1816 -950 1584 -1140 
Q 1353 -1331 966 -1331 
L 506 -1331 
L 506 -850 
L 844 -850 
Q 1081 -850 1212 -737 
Q 1344 -625 1503 -206 
L 1606 56 
L 191 3500 
L 800 3500 
L 1894 763 
L 2988 3500 
L 3597 3500 
L 2059 -325 
z
" transform="scale(0.015625)"/>
       <path id="DejaVuSans-20" transform="scale(0.015625)"/>
       <path id="DejaVuSans-5b" d="M 550 4863 
L 1875 4863 
L 1875 4416 
L 1125 4416 
L 1125 -397 
L 1875 -397 
L 1875 -844 
L 550 -844 
L 550 4863 
z
" transform="scale(0.015625)"/>
       <path id="DejaVuSans-48" d="M 628 4666 
L 1259 4666 
L 1259 2753 
L 3553 2753 
L 3553 4666 
L 4184 4666 
L 4184 0 
L 3553 0 
L 3553 2222 
L 1259 2222 
L 1259 0 
L 628 0 
L 628 4666 
z
" transform="scale(0.015625)"/>
       <path id="DejaVuSans-7a" d="M 353 3500 
L 3084 3500 
L 3084 2975 
L 922 459 
L 3084 459 
L 3084 0 
L 275 0 
L 275 525 
L 2438 3041 
L 353 3041 
L 353 3500 
z
" transform="scale(0.015625)"/>
       <path id="DejaVuSans-5d" d="M 1947 4863 
L 1947 -844 
L 622 -844 
L 622 -397 
L 1369 -397 
L 1369 4416 
L 622 4416 
L 622 4863 
L 1947 4863 
z
" transform="scale(0.015625)"/>
      </defs>
      <use xlink:href="#DejaVuSans-46"/>
      <use xlink:href="#DejaVuSans-72" x="50.269531"/>
      <use xlink:href="#DejaVuSans-65" x="89.132812"/>
      <use xlink:href="#DejaVuSans-71" x="150.65625"/>
      <use xlink:href="#DejaVuSans-75" x="214.132812"/>
      <use xlink:href="#DejaVuSans-65" x="277.511719"/>
      <use xlink:href="#DejaVuSans-6e" x="339.035156"/>
      <use xlink:href="#DejaVuSans-63" x="402.414062"/>
      <use xlink:href="#DejaVuSans-79" x="457.394531"/>
      <use xlink:href="#DejaVuSans-20" x="516.574219"/>
      <use xlink:href="#DejaVuSans-5b" x="548.361328"/>
      <use xlink:href="#DejaVuSans-48" x="587.375"/>
      <use xlink:href="#DejaVuSans-7a" x="662.570312"/>
      <use xlink:href="#DejaVuSans-5d" x="715.060547"/>
     </g>
    </g>
   </g>
   <g id="matplotlib.axis_2">
    <g id="ytick_1">
     <g id="line2d_13">
      <path d="M 57.6 295.917648 
L 414.72 295.917648 
" clip-path="url(#pabf25bcac9)" style="fill: none; stroke: #b0b0b0; stroke-width: 0.8; stroke-linecap: square"/>
     </g>
     <g id="line2d_14">
      <defs>
       <path id="ma37bc582ff" d="M 0 0 
L -3.5 0 
" style="stroke: #000000; stroke-width: 0.8"/>
      </defs>
      <g>
       <use xlink:href="#ma37bc582ff" x="57.6" y="295.917648" style="stroke: #000000; stroke-width: 0.8"/>
      </g>
     </g>
     <g id="text_8">
      <!-- 0.000 -->
      <g transform="translate(21.971875 299.716867) scale(0.1 -0.1)">
       <defs>
        <path id="DejaVuSans-2e" d="M 684 794 
L 1344 794 
L 1344 0 
L 684 0 
L 684 794 
z
" transform="scale(0.015625)"/>
       </defs>
       <use xlink:href="#DejaVuSans-30"/>
       <use xlink:href="#DejaVuSans-2e" x="63.623047"/>
       <use xlink:href="#DejaVuSans-30" x="95.410156"/>
       <use xlink:href="#DejaVuSans-30" x="159.033203"/>
       <use xlink:href="#DejaVuSans-30" x="222.65625"/>
      </g>
     </g>
    </g>
    <g id="ytick_2">
     <g id="line2d_15">
      <path d="M 57.6 257.171928 
L 414.72 257.171928 
" clip-path="url(#pabf25bcac9)" style="fill: none; stroke: #b0b0b0; stroke-width: 0.8; stroke-linecap: square"/>
     </g>
     <g id="line2d_16">
      <g>
       <use xlink:href="#ma37bc582ff" x="57.6" y="257.171928" style="stroke: #000000; stroke-width: 0.8"/>
      </g>
     </g>
     <g id="text_9">
      <!-- 0.005 -->
      <g transform="translate(21.971875 260.971147) scale(0.1 -0.1)">
       <defs>
        <path id="DejaVuSans-35" d="M 691 4666 
L 3169 4666 
L 3169 4134 
L 1269 4134 
L 1269 2991 
Q 1406 3038 1543 3061 
Q 1681 3084 1819 3084 
Q 2600 3084 3056 2656 
Q 3513 2228 3513 1497 
Q 3513 744 3044 326 
Q 2575 -91 1722 -91 
Q 1428 -91 1123 -41 
Q 819 9 494 109 
L 494 744 
Q 775 591 1075 516 
Q 1375 441 1709 441 
Q 2250 441 2565 725 
Q 2881 1009 2881 1497 
Q 2881 1984 2565 2268 
Q 2250 2553 1709 2553 
Q 1456 2553 1204 2497 
Q 953 2441 691 2322 
L 691 4666 
z
" transform="scale(0.015625)"/>
       </defs>
       <use xlink:href="#DejaVuSans-30"/>
       <use xlink:href="#DejaVuSans-2e" x="63.623047"/>
       <use xlink:href="#DejaVuSans-30" x="95.410156"/>
       <use xlink:href="#DejaVuSans-30" x="159.033203"/>
       <use xlink:href="#DejaVuSans-35" x="222.65625"/>
      </g>
     </g>
    </g>
    <g id="ytick_3">
     <g id="line2d_17">
      <path d="M 57.6 218.426208 
L 414.72 218.426208 
" clip-path="url(#pabf25bcac9)" style="fill: none; stroke: #b0b0b0; stroke-width: 0.8; stroke-linecap: square"/>
     </g>
     <g id="line2d_18">
      <g>
       <use xlink:href="#ma37bc582ff" x="57.6" y="218.426208" style="stroke: #000000; stroke-width: 0.8"/>
      </g>
     </g>
     <g id="text_10">
      <!-- 0.010 -->
      <g transform="translate(21.971875 222.225427) scale(0.1 -0.1)">
       <use xlink:href="#DejaVuSans-30"/>
       <use xlink:href="#DejaVuSans-2e" x="63.623047"/>
       <use xlink:href="#DejaVuSans-30" x="95.410156"/>
       <use xlink:href="#DejaVuSans-31" x="159.033203"/>
       <use xlink:href="#DejaVuSans-30" x="222.65625"/>
      </g>
     </g>
    </g>
    <g id="ytick_4">
     <g id="line2d_19">
      <path d="M 57.6 179.680488 
L 414.72 179.680488 
" clip-path="url(#pabf25bcac9)" style="fill: none; stroke: #b0b0b0; stroke-width: 0.8; stroke-linecap: square"/>
     </g>
     <g id="line2d_20">
      <g>
       <use xlink:href="#ma37bc582ff" x="57.6" y="179.680488" style="stroke: #000000; stroke-width: 0.8"/>
      </g>
     </g>
     <g id="text_11">
      <!-- 0.015 -->
      <g transform="translate(21.971875 183.479707) scale(0.1 -0.1)">
       <use xlink:href="#DejaVuSans-30"/>
       <use xlink:href="#DejaVuSans-2e" x="63.623047"/>
       <use xlink:href="#DejaVuSans-30" x="95.410156"/>
       <use xlink:href="#DejaVuSans-31" x="159.033203"/>
       <use xlink:href="#DejaVuSans-35" x="222.65625"/>
      </g>
     </g>
    </g>
    <g id="ytick_5">
     <g id="line2d_21">
      <path d="M 57.6 140.934768 
L 414.72 140.934768 
" clip-path="url(#pabf25bcac9)" style="fill: none; stroke: #b0b0b0; stroke-width: 0.8; stroke-linecap: square"/>
     </g>
     <g id="line2d_22">
      <g>
       <use xlink:href="#ma37bc582ff" x="57.6" y="140.934768" style="stroke: #000000; stroke-width: 0.8"/>
      </g>
     </g>
     <g id="text_12">
      <!-- 0.020 -->
      <g transform="translate(21.971875 144.733987) scale(0.1 -0.1)">
       <use xlink:href="#DejaVuSans-30"/>
       <use xlink:href="#DejaVuSans-2e" x="63.623047"/>
       <use xlink:href="#DejaVuSans-30" x="95.410156"/>
       <use xlink:href="#DejaVuSans-32" x="159.033203"/>
       <use xlink:href="#DejaVuSans-30" x="222.65625"/>
      </g>
     </g>
    </g>
    <g id="ytick_6">
     <g id="line2d_23">
      <path d="M 57.6 102.189048 
L 414.72 102.189048 
" clip-path="url(#pabf25bcac9)" style="fill: none; stroke: #b0b0b0; stroke-width: 0.8; stroke-linecap: square"/>
     </g>
     <g id="line2d_24">
      <g>
       <use xlink:href="#ma37bc582ff" x="57.6" y="102.189048" style="stroke: #000000; stroke-width: 0.8"/>
      </g>
     </g>
     <g id="text_13">
      <!-- 0.025 -->
      <g transform="translate(21.971875 105.988267) scale(0.1 -0.1)">
       <use xlink:href="#DejaVuSans-30"/>
       <use xlink:href="#DejaVuSans-2e" x="63.623047"/>
       <use xlink:href="#DejaVuSans-30" x="95.410156"/>
       <use xlink:href="#DejaVuSans-32" x="159.033203"/>
       <use xlink:href="#DejaVuSans-35" x="222.65625"/>
      </g>
     </g>
    </g>
    <g id="ytick_7">
     <g id="line2d_25">
      <path d="M 57.6 63.443328 
L 414.72 63.443328 
" clip-path="url(#pabf25bcac9)" style="fill: none; stroke: #b0b0b0; stroke-width: 0.8; stroke-linecap: square"/>
     </g>
     <g id="line2d_26">
      <g>
       <use xlink:href="#ma37bc582ff" x="57.6" y="63.443328" style="stroke: #000000; stroke-width: 0.8"/>
      </g>
     </g>
     <g id="text_14">
      <!-- 0.030 -->
      <g transform="translate(21.971875 67.242547) scale(0.1 -0.1)">
       <defs>
        <path id="DejaVuSans-33" d="M 2597 2516 
Q 3050 2419 3304 2112 
Q 3559 1806 3559 1356 
Q 3559 666 3084 287 
Q 2609 -91 1734 -91 
Q 1441 -91 1130 -33 
Q 819 25 488 141 
L 488 750 
Q 750 597 1062 519 
Q 1375 441 1716 441 
Q 2309 441 2620 675 
Q 2931 909 2931 1356 
Q 2931 1769 2642 2001 
Q 2353 2234 1838 2234 
L 1294 2234 
L 1294 2753 
L 1863 2753 
Q 2328 2753 2575 2939 
Q 2822 3125 2822 3475 
Q 2822 3834 2567 4026 
Q 2313 4219 1838 4219 
Q 1578 4219 1281 4162 
Q 984 4106 628 3988 
L 628 4550 
Q 988 4650 1302 4700 
Q 1616 4750 1894 4750 
Q 2613 4750 3031 4423 
Q 3450 4097 3450 3541 
Q 3450 3153 3228 2886 
Q 3006 2619 2597 2516 
z
" transform="scale(0.015625)"/>
       </defs>
       <use xlink:href="#DejaVuSans-30"/>
       <use xlink:href="#DejaVuSans-2e" x="63.623047"/>
       <use xlink:href="#DejaVuSans-30" x="95.410156"/>
       <use xlink:href="#DejaVuSans-33" x="159.033203"/>
       <use xlink:href="#DejaVuSans-30" x="222.65625"/>
      </g>
     </g>
    </g>
    <g id="text_15">
     <!-- Spectral Density ($rad/s  / \sqrt{Hz}$) -->
     <g transform="translate(15.871875 246.178) rotate(-90) scale(0.1 -0.1)">
      <defs>
       <path id="DejaVuSans-53" d="M 3425 4513 
L 3425 3897 
Q 3066 4069 2747 4153 
Q 2428 4238 2131 4238 
Q 1616 4238 1336 4038 
Q 1056 3838 1056 3469 
Q 1056 3159 1242 3001 
Q 1428 2844 1947 2747 
L 2328 2669 
Q 3034 2534 3370 2195 
Q 3706 1856 3706 1288 
Q 3706 609 3251 259 
Q 2797 -91 1919 -91 
Q 1588 -91 1214 -16 
Q 841 59 441 206 
L 441 856 
Q 825 641 1194 531 
Q 1563 422 1919 422 
Q 2459 422 2753 634 
Q 3047 847 3047 1241 
Q 3047 1584 2836 1778 
Q 2625 1972 2144 2069 
L 1759 2144 
Q 1053 2284 737 2584 
Q 422 2884 422 3419 
Q 422 4038 858 4394 
Q 1294 4750 2059 4750 
Q 2388 4750 2728 4690 
Q 3069 4631 3425 4513 
z
" transform="scale(0.015625)"/>
       <path id="DejaVuSans-70" d="M 1159 525 
L 1159 -1331 
L 581 -1331 
L 581 3500 
L 1159 3500 
L 1159 2969 
Q 1341 3281 1617 3432 
Q 1894 3584 2278 3584 
Q 2916 3584 3314 3078 
Q 3713 2572 3713 1747 
Q 3713 922 3314 415 
Q 2916 -91 2278 -91 
Q 1894 -91 1617 61 
Q 1341 213 1159 525 
z
M 3116 1747 
Q 3116 2381 2855 2742 
Q 2594 3103 2138 3103 
Q 1681 3103 1420 2742 
Q 1159 2381 1159 1747 
Q 1159 1113 1420 752 
Q 1681 391 2138 391 
Q 2594 391 2855 752 
Q 3116 1113 3116 1747 
z
" transform="scale(0.015625)"/>
       <path id="DejaVuSans-74" d="M 1172 4494 
L 1172 3500 
L 2356 3500 
L 2356 3053 
L 1172 3053 
L 1172 1153 
Q 1172 725 1289 603 
Q 1406 481 1766 481 
L 2356 481 
L 2356 0 
L 1766 0 
Q 1100 0 847 248 
Q 594 497 594 1153 
L 594 3053 
L 172 3053 
L 172 3500 
L 594 3500 
L 594 4494 
L 1172 4494 
z
" transform="scale(0.015625)"/>
       <path id="DejaVuSans-61" d="M 2194 1759 
Q 1497 1759 1228 1600 
Q 959 1441 959 1056 
Q 959 750 1161 570 
Q 1363 391 1709 391 
Q 2188 391 2477 730 
Q 2766 1069 2766 1631 
L 2766 1759 
L 2194 1759 
z
M 3341 1997 
L 3341 0 
L 2766 0 
L 2766 531 
Q 2569 213 2275 61 
Q 1981 -91 1556 -91 
Q 1019 -91 701 211 
Q 384 513 384 1019 
Q 384 1609 779 1909 
Q 1175 2209 1959 2209 
L 2766 2209 
L 2766 2266 
Q 2766 2663 2505 2880 
Q 2244 3097 1772 3097 
Q 1472 3097 1187 3025 
Q 903 2953 641 2809 
L 641 3341 
Q 956 3463 1253 3523 
Q 1550 3584 1831 3584 
Q 2591 3584 2966 3190 
Q 3341 2797 3341 1997 
z
" transform="scale(0.015625)"/>
       <path id="DejaVuSans-6c" d="M 603 4863 
L 1178 4863 
L 1178 0 
L 603 0 
L 603 4863 
z
" transform="scale(0.015625)"/>
       <path id="DejaVuSans-44" d="M 1259 4147 
L 1259 519 
L 2022 519 
Q 2988 519 3436 956 
Q 3884 1394 3884 2338 
Q 3884 3275 3436 3711 
Q 2988 4147 2022 4147 
L 1259 4147 
z
M 628 4666 
L 1925 4666 
Q 3281 4666 3915 4102 
Q 4550 3538 4550 2338 
Q 4550 1131 3912 565 
Q 3275 0 1925 0 
L 628 0 
L 628 4666 
z
" transform="scale(0.015625)"/>
       <path id="DejaVuSans-73" d="M 2834 3397 
L 2834 2853 
Q 2591 2978 2328 3040 
Q 2066 3103 1784 3103 
Q 1356 3103 1142 2972 
Q 928 2841 928 2578 
Q 928 2378 1081 2264 
Q 1234 2150 1697 2047 
L 1894 2003 
Q 2506 1872 2764 1633 
Q 3022 1394 3022 966 
Q 3022 478 2636 193 
Q 2250 -91 1575 -91 
Q 1294 -91 989 -36 
Q 684 19 347 128 
L 347 722 
Q 666 556 975 473 
Q 1284 391 1588 391 
Q 1994 391 2212 530 
Q 2431 669 2431 922 
Q 2431 1156 2273 1281 
Q 2116 1406 1581 1522 
L 1381 1569 
Q 847 1681 609 1914 
Q 372 2147 372 2553 
Q 372 3047 722 3315 
Q 1072 3584 1716 3584 
Q 2034 3584 2315 3537 
Q 2597 3491 2834 3397 
z
" transform="scale(0.015625)"/>
       <path id="DejaVuSans-69" d="M 603 3500 
L 1178 3500 
L 1178 0 
L 603 0 
L 603 3500 
z
M 603 4863 
L 1178 4863 
L 1178 4134 
L 603 4134 
L 603 4863 
z
" transform="scale(0.015625)"/>
       <path id="DejaVuSans-28" d="M 1984 4856 
Q 1566 4138 1362 3434 
Q 1159 2731 1159 2009 
Q 1159 1288 1364 580 
Q 1569 -128 1984 -844 
L 1484 -844 
Q 1016 -109 783 600 
Q 550 1309 550 2009 
Q 550 2706 781 3412 
Q 1013 4119 1484 4856 
L 1984 4856 
z
" transform="scale(0.015625)"/>
       <path id="DejaVuSans-Oblique-72" d="M 2853 2969 
Q 2766 3016 2653 3041 
Q 2541 3066 2413 3066 
Q 1953 3066 1609 2717 
Q 1266 2369 1153 1784 
L 800 0 
L 225 0 
L 909 3500 
L 1484 3500 
L 1375 2956 
Q 1603 3259 1920 3421 
Q 2238 3584 2597 3584 
Q 2691 3584 2781 3573 
Q 2872 3563 2963 3538 
L 2853 2969 
z
" transform="scale(0.015625)"/>
       <path id="DejaVuSans-Oblique-61" d="M 3438 1997 
L 3047 0 
L 2472 0 
L 2578 531 
Q 2325 219 2001 64 
Q 1678 -91 1281 -91 
Q 834 -91 548 182 
Q 263 456 263 884 
Q 263 1497 752 1853 
Q 1241 2209 2100 2209 
L 2900 2209 
L 2931 2363 
Q 2938 2388 2941 2417 
Q 2944 2447 2944 2509 
Q 2944 2788 2717 2942 
Q 2491 3097 2081 3097 
Q 1800 3097 1504 3025 
Q 1209 2953 897 2809 
L 997 3341 
Q 1322 3463 1633 3523 
Q 1944 3584 2234 3584 
Q 2853 3584 3176 3315 
Q 3500 3047 3500 2534 
Q 3500 2431 3484 2292 
Q 3469 2153 3438 1997 
z
M 2816 1759 
L 2241 1759 
Q 1534 1759 1195 1570 
Q 856 1381 856 984 
Q 856 709 1029 553 
Q 1203 397 1509 397 
Q 1978 397 2328 733 
Q 2678 1069 2791 1631 
L 2816 1759 
z
" transform="scale(0.015625)"/>
       <path id="DejaVuSans-Oblique-64" d="M 2675 525 
Q 2444 222 2128 65 
Q 1813 -91 1428 -91 
Q 903 -91 598 267 
Q 294 625 294 1247 
Q 294 1766 478 2236 
Q 663 2706 1013 3078 
Q 1244 3325 1534 3454 
Q 1825 3584 2144 3584 
Q 2481 3584 2739 3421 
Q 2997 3259 3138 2956 
L 3513 4863 
L 4091 4863 
L 3144 0 
L 2566 0 
L 2675 525 
z
M 891 1350 
Q 891 897 1095 644 
Q 1300 391 1663 391 
Q 1931 391 2161 520 
Q 2391 650 2566 903 
Q 2750 1166 2856 1509 
Q 2963 1853 2963 2188 
Q 2963 2622 2758 2865 
Q 2553 3109 2194 3109 
Q 1922 3109 1687 2981 
Q 1453 2853 1288 2613 
Q 1106 2353 998 2009 
Q 891 1666 891 1350 
z
" transform="scale(0.015625)"/>
       <path id="DejaVuSans-2f" d="M 1625 4666 
L 2156 4666 
L 531 -594 
L 0 -594 
L 1625 4666 
z
" transform="scale(0.015625)"/>
       <path id="DejaVuSans-Oblique-73" d="M 3200 3397 
L 3091 2853 
Q 2863 2978 2609 3040 
Q 2356 3103 2088 3103 
Q 1634 3103 1373 2948 
Q 1113 2794 1113 2528 
Q 1113 2219 1719 2053 
Q 1766 2041 1788 2034 
L 1972 1978 
Q 2547 1819 2739 1644 
Q 2931 1469 2931 1166 
Q 2931 609 2489 259 
Q 2047 -91 1331 -91 
Q 1053 -91 747 -37 
Q 441 16 72 128 
L 184 722 
Q 500 559 806 475 
Q 1113 391 1394 391 
Q 1816 391 2080 572 
Q 2344 753 2344 1031 
Q 2344 1331 1650 1516 
L 1591 1531 
L 1394 1581 
Q 956 1697 753 1886 
Q 550 2075 550 2369 
Q 550 2928 970 3256 
Q 1391 3584 2113 3584 
Q 2397 3584 2667 3537 
Q 2938 3491 3200 3397 
z
" transform="scale(0.015625)"/>
       <path id="STIXSizeOneSym-Regular-221a" d="M 6970 9933 
L 3373 -1888 
L 3104 -1888 
L 1626 2918 
Q 1555 3149 1465 3251 
Q 1376 3354 1229 3354 
Q 1011 3354 794 3181 
L 717 3309 
L 1766 4115 
L 1926 4115 
L 3379 -602 
L 3405 -602 
L 6605 9933 
L 6970 9933 
z
" transform="scale(0.015625)"/>
       <path id="DejaVuSans-Oblique-48" d="M 1081 4666 
L 1716 4666 
L 1344 2753 
L 3634 2753 
L 4006 4666 
L 4641 4666 
L 3731 0 
L 3097 0 
L 3531 2222 
L 1241 2222 
L 806 0 
L 172 0 
L 1081 4666 
z
" transform="scale(0.015625)"/>
       <path id="DejaVuSans-Oblique-7a" d="M 744 3500 
L 3475 3500 
L 3372 2975 
L 738 459 
L 2913 459 
L 2822 0 
L -19 0 
L 84 525 
L 2719 3041 
L 653 3041 
L 744 3500 
z
" transform="scale(0.015625)"/>
       <path id="DejaVuSans-29" d="M 513 4856 
L 1013 4856 
Q 1481 4119 1714 3412 
Q 1947 2706 1947 2009 
Q 1947 1309 1714 600 
Q 1481 -109 1013 -844 
L 513 -844 
Q 928 -128 1133 580 
Q 1338 1288 1338 2009 
Q 1338 2731 1133 3434 
Q 928 4138 513 4856 
z
" transform="scale(0.015625)"/>
      </defs>
      <use xlink:href="#DejaVuSans-53" transform="translate(0 0.578125)"/>
      <use xlink:href="#DejaVuSans-70" transform="translate(63.476562 0.578125)"/>
      <use xlink:href="#DejaVuSans-65" transform="translate(126.953125 0.578125)"/>
      <use xlink:href="#DejaVuSans-63" transform="translate(188.476562 0.578125)"/>
      <use xlink:href="#DejaVuSans-74" transform="translate(243.457031 0.578125)"/>
      <use xlink:href="#DejaVuSans-72" transform="translate(282.666016 0.578125)"/>
      <use xlink:href="#DejaVuSans-61" transform="translate(323.779297 0.578125)"/>
      <use xlink:href="#DejaVuSans-6c" transform="translate(385.058594 0.578125)"/>
      <use xlink:href="#DejaVuSans-20" transform="translate(412.841797 0.578125)"/>
      <use xlink:href="#DejaVuSans-44" transform="translate(444.628906 0.578125)"/>
      <use xlink:href="#DejaVuSans-65" transform="translate(521.630859 0.578125)"/>
      <use xlink:href="#DejaVuSans-6e" transform="translate(583.154297 0.578125)"/>
      <use xlink:href="#DejaVuSans-73" transform="translate(646.533203 0.578125)"/>
      <use xlink:href="#DejaVuSans-69" transform="translate(698.632812 0.578125)"/>
      <use xlink:href="#DejaVuSans-74" transform="translate(726.416016 0.578125)"/>
      <use xlink:href="#DejaVuSans-79" transform="translate(765.625 0.578125)"/>
      <use xlink:href="#DejaVuSans-20" transform="translate(824.804688 0.578125)"/>
      <use xlink:href="#DejaVuSans-28" transform="translate(856.591797 0.578125)"/>
      <use xlink:href="#DejaVuSans-Oblique-72" transform="translate(895.605469 0.578125)"/>
      <use xlink:href="#DejaVuSans-Oblique-61" transform="translate(936.71875 0.578125)"/>
      <use xlink:href="#DejaVuSans-Oblique-64" transform="translate(997.998047 0.578125)"/>
      <use xlink:href="#DejaVuSans-2f" transform="translate(1061.474609 0.578125)"/>
      <use xlink:href="#DejaVuSans-Oblique-73" transform="translate(1095.166016 0.578125)"/>
      <use xlink:href="#DejaVuSans-2f" transform="translate(1147.265625 0.578125)"/>
      <use xlink:href="#STIXSizeOneSym-Regular-221a" transform="translate(1180.957031 17.09375) scale(0.563912)"/>
      <use xlink:href="#DejaVuSans-Oblique-48" transform="translate(1253.045395 0.84375)"/>
      <use xlink:href="#DejaVuSans-Oblique-7a" transform="translate(1328.240707 0.84375)"/>
      <use xlink:href="#DejaVuSans-29" transform="translate(1393.230942 0.578125)"/>
      <path d="M 1240.545395 97.5 
L 1240.545395 103.75 
L 1393.230942 103.75 
L 1393.230942 97.5 
L 1240.545395 97.5 
z
"/>
     </g>
    </g>
   </g>
   <g id="line2d_27">
    <path d="M 73.832727 295.488 
L 74.466818 295.052623 
L 75.100909 294.960456 
L 75.735 294.992977 
L 76.369091 295.164887 
L 77.637273 295.034308 
L 78.271364 295.106385 
L 80.173636 294.970487 
L 80.807727 295.145366 
L 82.075909 294.945777 
L 84.612273 295.081326 
L 85.246364 294.788234 
L 88.416818 294.996005 
L 89.050909 294.901454 
L 89.685 294.960234 
L 90.319091 294.906076 
L 90.953182 294.666226 
L 92.221364 295.115477 
L 93.489545 294.879973 
L 95.391818 294.929341 
L 96.025909 294.783065 
L 96.66 294.815328 
L 97.294091 295.035627 
L 98.562273 295.002133 
L 99.196364 294.850034 
L 101.098636 294.70021 
L 101.732727 294.587933 
L 102.366818 294.324391 
L 103.635 294.875508 
L 104.269091 294.787459 
L 106.171364 294.873282 
L 106.805455 294.74038 
L 108.073636 294.860453 
L 109.341818 294.712327 
L 111.244091 295.026525 
L 111.878182 294.918103 
L 112.512273 294.662907 
L 114.414545 294.75228 
L 115.682727 294.747634 
L 116.950909 294.947231 
L 117.585 294.825605 
L 118.219091 294.909603 
L 119.487273 294.720369 
L 120.121364 294.581193 
L 121.389545 294.811188 
L 122.023636 294.729755 
L 123.291818 294.880211 
L 127.096364 294.734667 
L 127.730455 294.847058 
L 130.900909 294.559662 
L 131.535 294.547849 
L 132.803182 294.837855 
L 133.437273 294.733556 
L 135.339545 294.825147 
L 135.973636 294.691969 
L 137.241818 294.795471 
L 138.51 294.961762 
L 139.144091 294.816334 
L 139.778182 294.800659 
L 140.412273 294.961033 
L 141.680455 294.877972 
L 142.314545 294.89394 
L 142.948636 294.76926 
L 146.753182 294.798031 
L 148.021364 294.973276 
L 149.289545 294.719584 
L 151.191818 295.005031 
L 154.362273 294.705928 
L 156.898636 295.046523 
L 158.166818 294.861654 
L 158.800909 294.950083 
L 160.069091 294.91232 
L 160.703182 295.046142 
L 161.971364 294.999308 
L 162.605455 294.936476 
L 163.239545 295.038918 
L 166.41 294.882641 
L 167.044091 295.064578 
L 170.848636 294.830915 
L 171.482727 294.981796 
L 172.116818 294.988277 
L 172.750909 294.853158 
L 173.385 295.034669 
L 175.921364 294.909789 
L 177.189545 294.997291 
L 179.091818 294.826498 
L 180.36 294.973031 
L 180.994091 294.96966 
L 181.628182 294.819202 
L 182.896364 294.933412 
L 183.530455 294.963395 
L 184.164545 294.809471 
L 185.432727 294.887525 
L 186.700909 294.789481 
L 187.969091 294.810014 
L 188.603182 294.893971 
L 189.237273 294.750367 
L 189.871364 294.405179 
L 191.139545 294.680249 
L 192.407727 294.724905 
L 193.041818 294.856667 
L 194.31 294.745208 
L 194.944091 294.845168 
L 195.578182 294.8275 
L 196.212273 294.598538 
L 196.846364 294.506924 
L 198.114545 294.628263 
L 198.748636 294.625833 
L 199.382727 294.829983 
L 200.650909 294.909813 
L 201.285 294.936145 
L 202.553182 294.652851 
L 204.455455 294.70506 
L 205.089545 294.417584 
L 206.357727 294.299257 
L 206.991818 293.348044 
L 208.26 294.411021 
L 208.894091 294.397608 
L 210.162273 293.718925 
L 210.796364 292.916628 
L 212.064545 294.616467 
L 212.698636 294.262935 
L 213.332727 293.419448 
L 213.966818 293.028083 
L 214.600909 292.338943 
L 215.235 292.559595 
L 215.869091 293.332581 
L 217.137273 293.63251 
L 217.771364 293.388444 
L 218.405455 292.932929 
L 219.039545 292.324424 
L 219.673636 286.306434 
L 220.307727 243.633592 
L 220.941818 179.770151 
L 221.575909 206.131257 
L 222.21 271.766124 
L 222.844091 288.761894 
L 223.478182 291.998579 
L 224.112273 292.663279 
L 224.746364 292.837334 
L 225.380455 292.537444 
L 226.014545 288.627757 
L 227.282727 169.295184 
L 227.916818 176.774862 
L 228.550909 165.450283 
L 229.185 251.566835 
L 229.819091 290.156804 
L 230.453182 292.859122 
L 231.087273 288.336894 
L 231.721364 282.441726 
L 232.355455 289.164921 
L 232.989545 292.921504 
L 233.623636 292.915397 
L 234.257727 293.437444 
L 235.525909 293.596898 
L 238.696364 294.008012 
L 240.598636 293.621482 
L 241.232727 293.842134 
L 241.866818 294.199015 
L 242.500909 294.091728 
L 243.135 294.137624 
L 244.403182 293.905522 
L 247.573636 293.854575 
L 248.841818 293.391063 
L 249.475909 292.960863 
L 250.11 293.248085 
L 250.744091 293.334635 
L 251.378182 293.028257 
L 252.012273 293.781319 
L 252.646364 293.990174 
L 253.280455 294.00266 
L 254.548636 293.775477 
L 255.182727 294.025368 
L 255.816818 293.579515 
L 257.085 293.231849 
L 257.719091 293.44373 
L 258.353182 293.231209 
L 258.987273 291.926271 
L 259.621364 291.473161 
L 260.255455 292.22067 
L 260.889545 292.766503 
L 261.523636 292.944521 
L 262.157727 292.315655 
L 262.791818 290.991182 
L 264.06 293.112393 
L 264.694091 293.031729 
L 265.328182 293.390095 
L 265.962273 293.917218 
L 266.596364 293.454879 
L 267.864545 293.415829 
L 268.498636 293.436426 
L 269.132727 293.77041 
L 269.766818 293.761374 
L 270.400909 293.510692 
L 271.669091 293.731296 
L 272.303182 294.009415 
L 274.205455 294.074388 
L 275.473636 293.436853 
L 276.107727 293.597532 
L 277.375909 293.641103 
L 278.01 293.849527 
L 278.644091 293.758885 
L 279.278182 293.921622 
L 279.912273 293.393097 
L 280.546364 293.27555 
L 282.448636 293.544972 
L 283.082727 294.020933 
L 283.716818 294.21981 
L 284.350909 294.27613 
L 285.619091 293.836827 
L 286.253182 293.590662 
L 287.521364 294.120727 
L 288.155455 294.155519 
L 288.789545 293.544128 
L 289.423636 293.289675 
L 290.057727 293.958116 
L 290.691818 293.706713 
L 291.325909 292.851524 
L 291.96 293.719875 
L 292.594091 294.154835 
L 295.130455 294.655087 
L 295.764545 294.484824 
L 296.398636 294.195139 
L 297.032727 294.139345 
L 298.300909 294.26465 
L 300.203182 294.012905 
L 301.471364 294.354626 
L 302.105455 294.254204 
L 302.739545 293.997577 
L 304.007727 294.02307 
L 304.641818 293.745201 
L 305.91 293.676915 
L 306.544091 290.04009 
L 307.178182 283.959487 
L 307.812273 287.247815 
L 308.446364 292.174285 
L 309.080455 290.267967 
L 309.714545 290.90246 
L 310.348636 292.489168 
L 310.982727 293.414154 
L 311.616818 293.278792 
L 312.250909 293.482218 
L 312.885 293.54458 
L 313.519091 293.827262 
L 314.787273 293.2442 
L 315.421364 293.258879 
L 316.055455 292.776606 
L 316.689545 292.024601 
L 317.957727 291.916824 
L 318.591818 291.61306 
L 319.225909 291.617251 
L 319.86 291.967036 
L 320.494091 291.94268 
L 321.128182 291.570189 
L 321.762273 291.630831 
L 322.396364 291.218317 
L 324.298636 292.602823 
L 324.932727 293.328609 
L 325.566818 293.334731 
L 326.200909 293.074895 
L 327.469091 293.505269 
L 328.103182 294.079769 
L 328.737273 293.950225 
L 329.371364 293.650352 
L 330.639545 294.10547 
L 331.907727 291.898796 
L 332.541818 293.424798 
L 333.175909 294.095071 
L 333.81 292.656518 
L 335.078182 288.065717 
L 335.712273 287.671618 
L 336.346364 289.785955 
L 336.980455 292.92291 
L 337.614545 294.35388 
L 339.516818 294.794333 
L 341.419091 294.957406 
L 342.053182 294.863599 
L 342.687273 295.028361 
L 343.955455 294.87039 
L 347.125909 294.949702 
L 347.76 294.624039 
L 349.028182 294.834724 
L 349.662273 294.644437 
L 351.564545 294.892958 
L 353.466818 294.827578 
L 354.100909 294.980859 
L 357.271364 295.040598 
L 357.905455 295.149983 
L 359.807727 294.740716 
L 361.075909 295.020971 
L 361.71 294.997925 
L 362.978182 294.762857 
L 364.246364 294.835471 
L 364.880455 294.541136 
L 365.514545 294.476852 
L 366.148636 293.010409 
L 366.782727 290.547524 
L 367.416818 285.198673 
L 368.050909 278.162446 
L 368.685 278.103148 
L 369.953182 291.599623 
L 370.587273 294.129807 
L 371.221364 294.586445 
L 372.489545 294.674624 
L 373.123636 294.760589 
L 373.757727 294.637363 
L 374.391818 294.392917 
L 375.025909 294.310809 
L 376.294091 294.720959 
L 380.098636 294.514168 
L 380.732727 293.938799 
L 381.366818 292.932192 
L 382.000909 284.970629 
L 382.635 272.072685 
L 383.269091 274.214936 
L 383.903182 289.698505 
L 384.537273 293.881193 
L 385.171364 294.238461 
L 387.073636 294.108709 
L 387.707727 293.784662 
L 388.341818 291.059914 
L 388.975909 270.255581 
L 389.61 254.405179 
L 390.244091 276.663511 
L 390.878182 292.930312 
L 391.512273 293.852449 
L 392.146364 293.933853 
L 392.780455 294.165228 
L 393.414545 294.206206 
L 394.682727 294.082231 
L 395.950909 294.29674 
L 396.585 294.121275 
L 397.853182 294.306826 
L 398.487273 294.792007 
L 398.487273 294.792007 
" clip-path="url(#pabf25bcac9)" style="fill: none; stroke: #1f77b4; stroke-width: 1.5; stroke-linecap: square"/>
   </g>
   <g id="line2d_28">
    <path d="M 73.832727 295.254676 
L 74.466818 294.666709 
L 75.735 295.04673 
L 77.637273 294.840768 
L 80.173636 294.914124 
L 82.71 294.978155 
L 83.978182 294.801528 
L 85.880455 294.930534 
L 89.050909 294.917115 
L 89.685 294.804608 
L 90.319091 294.940097 
L 92.221364 294.908926 
L 92.855455 294.970908 
L 94.123636 294.948834 
L 95.391818 294.983554 
L 96.66 294.93874 
L 97.294091 294.879752 
L 97.928182 295.046967 
L 99.196364 294.982193 
L 99.830455 295.072257 
L 100.464545 295.009639 
L 101.732727 294.649769 
L 103.000909 294.929697 
L 103.635 294.933818 
L 104.269091 295.086156 
L 104.903182 294.830914 
L 105.537273 294.698456 
L 106.171364 294.908721 
L 108.707727 295.03271 
L 109.341818 294.838159 
L 109.975909 294.811781 
L 110.61 294.65283 
L 111.244091 294.8531 
L 113.146364 294.817402 
L 113.780455 294.976744 
L 116.316818 294.663225 
L 117.585 294.92048 
L 118.853182 294.833381 
L 119.487273 294.996657 
L 120.755455 294.95588 
L 122.023636 294.763522 
L 122.657727 294.844453 
L 123.925909 294.692179 
L 126.462273 294.859009 
L 127.730455 294.712074 
L 130.266818 294.854919 
L 130.900909 294.742332 
L 132.169091 294.82917 
L 132.803182 294.787914 
L 134.071364 295.002255 
L 134.705455 294.956016 
L 135.339545 294.700561 
L 137.241818 294.819541 
L 137.875909 294.957262 
L 141.680455 294.84908 
L 142.314545 294.715853 
L 148.021364 294.899714 
L 148.655455 294.697582 
L 149.289545 294.667913 
L 149.923636 294.854088 
L 150.557727 294.86998 
L 151.191818 294.694029 
L 152.46 294.826207 
L 153.728182 294.799044 
L 154.996364 294.710567 
L 155.630455 294.790547 
L 158.166818 294.687605 
L 163.239545 294.878455 
L 163.873636 294.653283 
L 165.141818 294.762015 
L 166.41 294.92922 
L 167.678182 294.995348 
L 169.580455 294.704618 
L 171.482727 294.819742 
L 172.116818 294.667065 
L 172.750909 294.666061 
L 173.385 294.852486 
L 174.019091 294.83671 
L 175.287273 294.586521 
L 176.555455 294.632747 
L 179.725909 294.777065 
L 181.628182 294.693711 
L 182.262273 294.747797 
L 182.896364 294.655016 
L 183.530455 294.760254 
L 190.505455 294.501775 
L 191.773636 294.603848 
L 193.041818 294.679612 
L 194.31 294.591264 
L 195.578182 294.514261 
L 196.212273 294.449673 
L 198.114545 294.689046 
L 199.382727 294.53042 
L 200.016818 294.39543 
L 201.285 294.3576 
L 201.919091 294.129685 
L 203.187273 294.513762 
L 204.455455 294.180791 
L 205.089545 294.148382 
L 205.723636 293.995364 
L 208.894091 294.200309 
L 210.796364 293.425109 
L 211.430455 293.385526 
L 212.064545 293.492799 
L 212.698636 292.892875 
L 213.332727 291.782966 
L 213.966818 290.974392 
L 214.600909 290.550903 
L 215.235 291.281262 
L 215.869091 292.306075 
L 216.503182 291.476252 
L 217.137273 291.722395 
L 217.771364 291.644921 
L 218.405455 290.861826 
L 219.039545 289.067601 
L 219.673636 276.019391 
L 220.307727 196.193824 
L 220.941818 75.602616 
L 221.575909 126.217684 
L 222.21 250.44877 
L 222.844091 283.718934 
L 223.478182 288.665086 
L 224.112273 290.591219 
L 224.746364 291.157888 
L 225.380455 290.450639 
L 226.014545 281.798931 
L 227.282727 53.568 
L 227.916818 92.496988 
L 228.550909 99.887135 
L 229.185 229.270259 
L 229.819091 288.511351 
L 230.453182 290.828501 
L 231.721364 219.019419 
L 232.355455 259.436963 
L 232.989545 292.050802 
L 234.257727 291.251816 
L 234.891818 291.527023 
L 235.525909 292.940149 
L 236.16 293.437861 
L 236.794091 293.395527 
L 238.696364 293.839332 
L 239.330455 293.709442 
L 239.964545 293.761711 
L 241.232727 293.599195 
L 241.866818 293.233161 
L 242.500909 293.404927 
L 243.769091 293.318538 
L 244.403182 293.187048 
L 246.305455 293.561097 
L 246.939545 293.907908 
L 247.573636 294.099154 
L 249.475909 293.774027 
L 250.11 294.272388 
L 250.744091 294.332795 
L 251.378182 294.125961 
L 252.012273 294.41249 
L 252.646364 294.508839 
L 253.280455 294.237917 
L 253.914545 294.243074 
L 255.182727 294.508042 
L 255.816818 294.507115 
L 256.450909 294.329715 
L 257.085 294.327283 
L 257.719091 294.539224 
L 258.353182 294.53746 
L 258.987273 293.987626 
L 259.621364 294.030881 
L 260.255455 294.447353 
L 261.523636 294.491622 
L 262.157727 294.291809 
L 262.791818 294.227192 
L 263.425909 294.426972 
L 264.06 294.245417 
L 264.694091 294.325115 
L 265.328182 294.596212 
L 265.962273 294.360794 
L 269.132727 294.565535 
L 270.400909 294.296283 
L 272.303182 294.622862 
L 272.937273 294.765495 
L 273.571364 294.707596 
L 274.839545 294.231972 
L 276.107727 294.458844 
L 277.375909 294.498065 
L 279.912273 294.577902 
L 280.546364 294.54257 
L 281.180455 294.329308 
L 284.985 294.385192 
L 285.619091 294.525108 
L 286.887273 294.428728 
L 288.155455 294.149351 
L 288.789545 294.228537 
L 289.423636 294.135812 
L 290.057727 294.409414 
L 290.691818 293.851214 
L 291.325909 292.649076 
L 291.96 293.812505 
L 292.594091 294.415392 
L 294.496364 294.542302 
L 295.130455 294.398496 
L 297.032727 294.508953 
L 299.569091 294.374381 
L 300.203182 294.185755 
L 300.837273 294.430366 
L 301.471364 294.463241 
L 302.739545 294.121876 
L 303.373636 294.137764 
L 304.007727 294.011834 
L 304.641818 294.292967 
L 305.275909 294.263051 
L 305.91 293.880885 
L 306.544091 293.859079 
L 307.178182 293.492466 
L 307.812273 293.742567 
L 308.446364 293.80622 
L 309.080455 293.284628 
L 309.714545 293.151279 
L 310.348636 292.621787 
L 310.982727 293.236115 
L 311.616818 293.58994 
L 312.250909 293.07291 
L 314.787273 292.886736 
L 315.421364 292.786521 
L 316.689545 292.041622 
L 317.323636 291.822899 
L 317.957727 291.898029 
L 318.591818 291.814097 
L 319.86 292.3607 
L 321.762273 290.51591 
L 322.396364 290.830607 
L 323.030455 291.726591 
L 323.664545 291.275723 
L 324.298636 291.295348 
L 326.200909 292.179601 
L 326.835 292.120952 
L 327.469091 292.392481 
L 328.103182 293.069112 
L 328.737273 293.233312 
L 329.371364 292.79137 
L 330.005455 292.209764 
L 330.639545 292.763211 
L 331.907727 284.93281 
L 332.541818 290.089642 
L 333.175909 293.934294 
L 333.81 293.955984 
L 335.712273 293.687899 
L 336.346364 293.955047 
L 336.980455 294.367064 
L 337.614545 294.513175 
L 338.248636 294.507766 
L 338.882727 294.320119 
L 339.516818 294.315616 
L 340.150909 294.587002 
L 341.419091 294.683277 
L 342.053182 294.519212 
L 342.687273 294.604214 
L 345.223636 294.294795 
L 346.491818 294.196696 
L 347.125909 294.474235 
L 347.76 294.358397 
L 349.028182 293.830776 
L 349.662273 294.071296 
L 350.296364 294.169111 
L 350.930455 293.595052 
L 351.564545 293.684351 
L 352.198636 293.939658 
L 352.832727 293.853866 
L 354.100909 294.071814 
L 354.735 293.948836 
L 359.173636 294.53203 
L 359.807727 294.399896 
L 361.075909 294.815779 
L 361.71 294.871029 
L 362.978182 294.632291 
L 364.246364 294.75701 
L 365.514545 294.423599 
L 366.148636 294.001692 
L 366.782727 292.168583 
L 368.050909 281.448765 
L 368.685 281.821216 
L 369.319091 287.655072 
L 369.953182 292.416435 
L 370.587273 294.218179 
L 371.221364 294.63342 
L 371.855455 294.824348 
L 372.489545 294.773209 
L 373.757727 295.002123 
L 375.025909 294.736096 
L 376.928182 294.886853 
L 378.830455 294.711187 
L 379.464545 294.665966 
L 380.732727 293.498333 
L 381.366818 294.0011 
L 382.000909 291.049788 
L 382.635 285.37418 
L 383.269091 286.256039 
L 383.903182 293.023728 
L 384.537273 294.622768 
L 385.171364 294.885542 
L 387.073636 294.725129 
L 387.707727 294.3599 
L 388.341818 293.363095 
L 388.975909 283.20056 
L 389.61 274.990466 
L 390.244091 286.06134 
L 390.878182 293.861557 
L 391.512273 294.147026 
L 392.780455 294.205574 
L 393.414545 294.361002 
L 394.682727 293.733655 
L 396.585 293.707409 
L 397.219091 293.596399 
L 397.853182 293.722062 
L 398.487273 294.274687 
L 398.487273 294.274687 
" clip-path="url(#pabf25bcac9)" style="fill: none; stroke: #ff7f0e; stroke-width: 1.5; stroke-linecap: square"/>
   </g>
   <g id="line2d_29">
    <path d="M 73.832727 295.361204 
L 74.466818 294.751551 
L 75.100909 294.849141 
L 77.003182 294.80905 
L 77.637273 294.975128 
L 81.441818 294.749794 
L 82.075909 294.655973 
L 83.978182 294.902771 
L 84.612273 294.779735 
L 85.880455 294.821007 
L 87.148636 294.654989 
L 87.782727 294.853326 
L 88.416818 294.874495 
L 89.050909 294.714268 
L 89.685 294.67875 
L 90.319091 294.930331 
L 91.587273 294.652311 
L 92.855455 294.841548 
L 93.489545 294.743074 
L 94.123636 294.765471 
L 95.391818 294.631057 
L 96.025909 294.77058 
L 97.294091 294.699342 
L 97.928182 294.934038 
L 102.366818 294.414915 
L 103.000909 294.677688 
L 103.635 294.610717 
L 104.269091 294.390323 
L 105.537273 294.546881 
L 106.171364 294.316554 
L 107.439545 294.439494 
L 108.073636 294.468468 
L 109.341818 294.28003 
L 109.975909 294.379905 
L 111.878182 294.179591 
L 112.512273 294.197679 
L 113.146364 294.069617 
L 113.780455 294.124256 
L 114.414545 294.43809 
L 115.048636 294.161038 
L 115.682727 294.015564 
L 116.316818 294.229096 
L 117.585 294.080933 
L 118.219091 294.115903 
L 118.853182 293.948726 
L 119.487273 293.625247 
L 120.755455 293.97991 
L 123.291818 293.177468 
L 123.925909 293.330792 
L 124.56 293.344222 
L 125.828182 292.528985 
L 127.096364 292.864463 
L 127.730455 292.398048 
L 128.364545 292.079596 
L 128.998636 291.950155 
L 129.632727 291.618164 
L 130.900909 291.571866 
L 131.535 291.127274 
L 132.169091 290.36126 
L 132.803182 290.979373 
L 134.071364 289.913581 
L 135.339545 290.062163 
L 135.973636 289.890407 
L 136.607727 289.855911 
L 137.241818 290.228086 
L 138.51 291.33044 
L 139.144091 292.141545 
L 140.412273 292.755258 
L 141.680455 292.751839 
L 142.314545 292.988197 
L 142.948636 292.967439 
L 143.582727 293.419908 
L 144.216818 293.591568 
L 144.850909 293.890255 
L 146.753182 293.747195 
L 148.655455 294.131996 
L 149.923636 294.257872 
L 151.191818 294.415759 
L 151.825909 294.481874 
L 152.46 294.372836 
L 153.728182 294.634395 
L 154.362273 294.589678 
L 154.996364 294.410753 
L 156.898636 294.492226 
L 157.532727 294.596146 
L 158.800909 294.183046 
L 159.435 294.258253 
L 160.069091 294.556977 
L 161.337273 294.697986 
L 163.873636 294.680508 
L 165.775909 294.337472 
L 166.41 294.601341 
L 167.044091 294.690726 
L 167.678182 294.597412 
L 168.312273 294.695295 
L 168.946364 294.088097 
L 169.580455 293.016884 
L 170.214545 293.289725 
L 170.848636 293.718636 
L 171.482727 294.659173 
L 172.116818 294.76822 
L 173.385 294.525619 
L 174.653182 294.78602 
L 176.555455 294.72306 
L 177.189545 294.854666 
L 178.457727 294.877889 
L 179.725909 294.660164 
L 180.36 294.760602 
L 181.628182 294.76986 
L 183.530455 294.92557 
L 184.164545 294.906865 
L 185.432727 294.533184 
L 186.700909 294.742121 
L 187.969091 294.668118 
L 188.603182 294.498224 
L 189.871364 294.577294 
L 190.505455 294.744464 
L 194.31 294.706968 
L 194.944091 294.801552 
L 196.846364 294.700927 
L 197.480455 294.744616 
L 198.114545 294.908294 
L 200.016818 294.781316 
L 205.723636 294.930491 
L 206.991818 294.361363 
L 208.26 294.673425 
L 208.894091 294.619051 
L 209.528182 294.785339 
L 210.796364 294.393792 
L 212.698636 294.609584 
L 213.332727 294.530086 
L 214.600909 294.022918 
L 215.235 294.096357 
L 215.869091 294.462501 
L 216.503182 294.643466 
L 217.771364 294.366618 
L 219.039545 293.737248 
L 219.673636 290.214324 
L 220.307727 266.220615 
L 220.941818 230.476453 
L 221.575909 245.462597 
L 222.21 282.425455 
L 222.844091 292.194382 
L 223.478182 293.715886 
L 224.112273 294.123058 
L 224.746364 293.96252 
L 225.380455 293.506257 
L 226.014545 289.721589 
L 227.282727 181.711007 
L 227.916818 223.369598 
L 228.550909 242.538461 
L 229.185 277.794648 
L 229.819091 292.969258 
L 230.453182 293.634654 
L 231.721364 280.63931 
L 232.355455 288.400693 
L 232.989545 293.676016 
L 234.257727 293.800633 
L 235.525909 293.596301 
L 236.16 293.164514 
L 238.696364 293.441816 
L 239.330455 293.222118 
L 239.964545 292.749401 
L 240.598636 292.018247 
L 241.232727 292.107452 
L 242.500909 291.192426 
L 244.403182 290.945811 
L 245.037273 291.020365 
L 245.671364 292.081994 
L 246.939545 292.653206 
L 247.573636 293.295016 
L 248.207727 293.523851 
L 249.475909 293.396962 
L 251.378182 293.801549 
L 252.012273 294.336379 
L 252.646364 294.049787 
L 253.280455 293.893035 
L 254.548636 294.368854 
L 255.182727 294.337739 
L 255.816818 294.447522 
L 256.450909 294.337848 
L 257.085 294.376216 
L 258.987273 293.889404 
L 259.621364 293.975771 
L 260.255455 294.192627 
L 260.889545 293.985997 
L 261.523636 293.958763 
L 262.157727 293.537853 
L 262.791818 292.737981 
L 264.06 294.481367 
L 264.694091 294.379175 
L 266.596364 294.653636 
L 267.230455 294.566488 
L 269.766818 294.717715 
L 271.035 294.488424 
L 272.303182 294.626765 
L 272.937273 294.835029 
L 274.205455 294.844057 
L 274.839545 294.633237 
L 279.278182 294.815724 
L 279.912273 294.604365 
L 280.546364 294.640045 
L 281.180455 294.855991 
L 282.448636 294.865049 
L 283.716818 294.81316 
L 284.350909 294.85524 
L 286.253182 294.520499 
L 286.887273 294.696496 
L 288.155455 294.689977 
L 289.423636 294.388022 
L 290.057727 294.722833 
L 290.691818 294.332874 
L 291.325909 293.68702 
L 291.96 294.444849 
L 292.594091 294.769888 
L 295.130455 294.941623 
L 296.398636 294.764318 
L 297.032727 294.950281 
L 298.935 294.766803 
L 299.569091 294.873599 
L 300.837273 294.715157 
L 301.471364 294.859606 
L 302.105455 294.868213 
L 303.373636 294.684552 
L 304.641818 294.712485 
L 305.275909 294.486474 
L 305.91 294.466492 
L 306.544091 293.456937 
L 307.178182 291.191408 
L 308.446364 293.704993 
L 309.080455 292.623173 
L 309.714545 293.518462 
L 310.982727 294.312481 
L 312.250909 294.121389 
L 312.885 294.128858 
L 314.787273 293.749724 
L 315.421364 293.831882 
L 316.055455 293.555844 
L 316.689545 293.004613 
L 317.323636 292.706762 
L 317.957727 292.867407 
L 318.591818 292.717358 
L 319.86 293.154276 
L 321.762273 292.085838 
L 322.396364 292.246955 
L 323.030455 293.000338 
L 323.664545 292.599213 
L 324.298636 292.748656 
L 324.932727 293.236068 
L 326.200909 293.402343 
L 326.835 293.293169 
L 328.103182 294.111093 
L 328.737273 294.221054 
L 329.371364 294.119568 
L 330.005455 293.890614 
L 330.639545 294.201512 
L 331.907727 291.986201 
L 332.541818 293.619294 
L 333.175909 294.680412 
L 334.444091 294.390926 
L 335.078182 294.150393 
L 335.712273 294.255023 
L 336.980455 294.803703 
L 340.785 294.995727 
L 342.053182 295.0236 
L 343.321364 295.135575 
L 344.589545 294.979172 
L 346.491818 295.134026 
L 347.125909 295.162616 
L 347.76 295.003907 
L 349.028182 295.162105 
L 349.662273 295.057397 
L 358.539545 295.291452 
L 365.514545 295.280518 
L 366.782727 294.176444 
L 367.416818 294.235337 
L 368.050909 293.406919 
L 368.685 293.467778 
L 369.319091 294.433223 
L 369.953182 295.110944 
L 370.587273 295.276496 
L 374.391818 295.030035 
L 375.025909 294.928519 
L 376.294091 295.188234 
L 378.830455 295.150335 
L 379.464545 295.197313 
L 380.732727 294.865685 
L 381.366818 294.984618 
L 382.000909 294.008613 
L 382.635 291.876228 
L 383.269091 292.130997 
L 383.903182 294.697953 
L 384.537273 295.238458 
L 385.171364 295.266324 
L 386.439545 295.121045 
L 387.707727 295.04435 
L 388.341818 294.554101 
L 388.975909 289.179761 
L 389.61 284.987401 
L 390.244091 290.674433 
L 390.878182 294.720848 
L 391.512273 294.886168 
L 392.780455 294.859579 
L 393.414545 294.959993 
L 394.682727 294.849452 
L 395.950909 294.952636 
L 397.853182 294.761618 
L 398.487273 295.063722 
L 398.487273 295.063722 
" clip-path="url(#pabf25bcac9)" style="fill: none; stroke: #2ca02c; stroke-width: 1.5; stroke-linecap: square"/>
   </g>
   <g id="patch_3">
    <path d="M 57.6 307.584 
L 57.6 41.472 
" style="fill: none; stroke: #000000; stroke-width: 0.8; stroke-linejoin: miter; stroke-linecap: square"/>
   </g>
   <g id="patch_4">
    <path d="M 414.72 307.584 
L 414.72 41.472 
" style="fill: none; stroke: #000000; stroke-width: 0.8; stroke-linejoin: miter; stroke-linecap: square"/>
   </g>
   <g id="patch_5">
    <path d="M 57.6 307.584 
L 414.72 307.584 
" style="fill: none; stroke: #000000; stroke-width: 0.8; stroke-linejoin: miter; stroke-linecap: square"/>
   </g>
   <g id="patch_6">
    <path d="M 57.6 41.472 
L 414.72 41.472 
" style="fill: none; stroke: #000000; stroke-width: 0.8; stroke-linejoin: miter; stroke-linecap: square"/>
   </g>
   <g id="text_16">
    <!-- Gyro Noise Spectral Density -->
    <g transform="translate(152.01 35.472) scale(0.12 -0.12)">
     <defs>
      <path id="DejaVuSans-47" d="M 3809 666 
L 3809 1919 
L 2778 1919 
L 2778 2438 
L 4434 2438 
L 4434 434 
Q 4069 175 3628 42 
Q 3188 -91 2688 -91 
Q 1594 -91 976 548 
Q 359 1188 359 2328 
Q 359 3472 976 4111 
Q 1594 4750 2688 4750 
Q 3144 4750 3555 4637 
Q 3966 4525 4313 4306 
L 4313 3634 
Q 3963 3931 3569 4081 
Q 3175 4231 2741 4231 
Q 1884 4231 1454 3753 
Q 1025 3275 1025 2328 
Q 1025 1384 1454 906 
Q 1884 428 2741 428 
Q 3075 428 3337 486 
Q 3600 544 3809 666 
z
" transform="scale(0.015625)"/>
      <path id="DejaVuSans-6f" d="M 1959 3097 
Q 1497 3097 1228 2736 
Q 959 2375 959 1747 
Q 959 1119 1226 758 
Q 1494 397 1959 397 
Q 2419 397 2687 759 
Q 2956 1122 2956 1747 
Q 2956 2369 2687 2733 
Q 2419 3097 1959 3097 
z
M 1959 3584 
Q 2709 3584 3137 3096 
Q 3566 2609 3566 1747 
Q 3566 888 3137 398 
Q 2709 -91 1959 -91 
Q 1206 -91 779 398 
Q 353 888 353 1747 
Q 353 2609 779 3096 
Q 1206 3584 1959 3584 
z
" transform="scale(0.015625)"/>
      <path id="DejaVuSans-4e" d="M 628 4666 
L 1478 4666 
L 3547 763 
L 3547 4666 
L 4159 4666 
L 4159 0 
L 3309 0 
L 1241 3903 
L 1241 0 
L 628 0 
L 628 4666 
z
" transform="scale(0.015625)"/>
     </defs>
     <use xlink:href="#DejaVuSans-47"/>
     <use xlink:href="#DejaVuSans-79" x="77.490234"/>
     <use xlink:href="#DejaVuSans-72" x="136.669922"/>
     <use xlink:href="#DejaVuSans-6f" x="175.533203"/>
     <use xlink:href="#DejaVuSans-20" x="236.714844"/>
     <use xlink:href="#DejaVuSans-4e" x="268.501953"/>
     <use xlink:href="#DejaVuSans-6f" x="343.306641"/>
     <use xlink:href="#DejaVuSans-69" x="404.488281"/>
     <use xlink:href="#DejaVuSans-73" x="432.271484"/>
     <use xlink:href="#DejaVuSans-65" x="484.371094"/>
     <use xlink:href="#DejaVuSans-20" x="545.894531"/>
     <use xlink:href="#DejaVuSans-53" x="577.681641"/>
     <use xlink:href="#DejaVuSans-70" x="641.158203"/>
     <use xlink:href="#DejaVuSans-65" x="704.634766"/>
     <use xlink:href="#DejaVuSans-63" x="766.158203"/>
     <use xlink:href="#DejaVuSans-74" x="821.138672"/>
     <use xlink:href="#DejaVuSans-72" x="860.347656"/>
     <use xlink:href="#DejaVuSans-61" x="901.460938"/>
     <use xlink:href="#DejaVuSans-6c" x="962.740234"/>
     <use xlink:href="#DejaVuSans-20" x="990.523438"/>
     <use xlink:href="#DejaVuSans-44" x="1022.310547"/>
     <use xlink:href="#DejaVuSans-65" x="1099.3125"/>
     <use xlink:href="#DejaVuSans-6e" x="1160.835938"/>
     <use xlink:href="#DejaVuSans-73" x="1224.214844"/>
     <use xlink:href="#DejaVuSans-69" x="1276.314453"/>
     <use xlink:href="#DejaVuSans-74" x="1304.097656"/>
     <use xlink:href="#DejaVuSans-79" x="1343.306641"/>
    </g>
   </g>
   <g id="legend_1">
    <g id="patch_7">
     <path d="M 363.452813 93.506375 
L 407.72 93.506375 
Q 409.72 93.506375 409.72 91.506375 
L 409.72 48.472 
Q 409.72 46.472 407.72 46.472 
L 363.452813 46.472 
Q 361.452813 46.472 361.452813 48.472 
L 361.452813 91.506375 
Q 361.452813 93.506375 363.452813 93.506375 
z
" style="fill: #ffffff; opacity: 0.8; stroke: #cccccc; stroke-linejoin: miter"/>
    </g>
    <g id="line2d_30">
     <path d="M 365.452813 54.570438 
L 375.452813 54.570438 
L 385.452813 54.570438 
" style="fill: none; stroke: #1f77b4; stroke-width: 1.5; stroke-linecap: square"/>
    </g>
    <g id="text_17">
     <!-- gx -->
     <g transform="translate(393.452813 58.070438) scale(0.1 -0.1)">
      <defs>
       <path id="DejaVuSans-67" d="M 2906 1791 
Q 2906 2416 2648 2759 
Q 2391 3103 1925 3103 
Q 1463 3103 1205 2759 
Q 947 2416 947 1791 
Q 947 1169 1205 825 
Q 1463 481 1925 481 
Q 2391 481 2648 825 
Q 2906 1169 2906 1791 
z
M 3481 434 
Q 3481 -459 3084 -895 
Q 2688 -1331 1869 -1331 
Q 1566 -1331 1297 -1286 
Q 1028 -1241 775 -1147 
L 775 -588 
Q 1028 -725 1275 -790 
Q 1522 -856 1778 -856 
Q 2344 -856 2625 -561 
Q 2906 -266 2906 331 
L 2906 616 
Q 2728 306 2450 153 
Q 2172 0 1784 0 
Q 1141 0 747 490 
Q 353 981 353 1791 
Q 353 2603 747 3093 
Q 1141 3584 1784 3584 
Q 2172 3584 2450 3431 
Q 2728 3278 2906 2969 
L 2906 3500 
L 3481 3500 
L 3481 434 
z
" transform="scale(0.015625)"/>
       <path id="DejaVuSans-78" d="M 3513 3500 
L 2247 1797 
L 3578 0 
L 2900 0 
L 1881 1375 
L 863 0 
L 184 0 
L 1544 1831 
L 300 3500 
L 978 3500 
L 1906 2253 
L 2834 3500 
L 3513 3500 
z
" transform="scale(0.015625)"/>
      </defs>
      <use xlink:href="#DejaVuSans-67"/>
      <use xlink:href="#DejaVuSans-78" x="63.476562"/>
     </g>
    </g>
    <g id="line2d_31">
     <path d="M 365.452813 69.248563 
L 375.452813 69.248563 
L 385.452813 69.248563 
" style="fill: none; stroke: #ff7f0e; stroke-width: 1.5; stroke-linecap: square"/>
    </g>
    <g id="text_18">
     <!-- gy -->
     <g transform="translate(393.452813 72.748563) scale(0.1 -0.1)">
      <use xlink:href="#DejaVuSans-67"/>
      <use xlink:href="#DejaVuSans-79" x="63.476562"/>
     </g>
    </g>
    <g id="line2d_32">
     <path d="M 365.452813 83.926688 
L 375.452813 83.926688 
L 385.452813 83.926688 
" style="fill: none; stroke: #2ca02c; stroke-width: 1.5; stroke-linecap: square"/>
    </g>
    <g id="text_19">
     <!-- gz -->
     <g transform="translate(393.452813 87.426688) scale(0.1 -0.1)">
      <use xlink:href="#DejaVuSans-67"/>
      <use xlink:href="#DejaVuSans-7a" x="63.476562"/>
     </g>
    </g>
   </g>
  </g>
 </g>
 <defs>
  <clipPath id="pabf25bcac9">
   <rect x="57.6" y="41.472" width="357.12" height="266.112"/>
  </clipPath>
 </defs>
</svg>
