<?xml version="1.0" encoding="utf-8" standalone="no"?>
<!DOCTYPE svg PUBLIC "-//W3C//DTD SVG 1.1//EN"
  "http://www.w3.org/Graphics/SVG/1.1/DTD/svg11.dtd">
<svg xmlns:xlink="http://www.w3.org/1999/xlink" width="460.8pt" height="345.6pt" viewBox="0 0 460.8 345.6" xmlns="http://www.w3.org/2000/svg" version="1.1">
 <metadata>
  <rdf:RDF xmlns:dc="http://purl.org/dc/elements/1.1/" xmlns:cc="http://creativecommons.org/ns#" xmlns:rdf="http://www.w3.org/1999/02/22-rdf-syntax-ns#">
   <cc:Work>
    <dc:type rdf:resource="http://purl.org/dc/dcmitype/StillImage"/>
    <dc:date>2024-05-09T11:49:38.970926</dc:date>
    <dc:format>image/svg+xml</dc:format>
    <dc:creator>
     <cc:Agent>
      <dc:title>Matplotlib v3.8.3, https://matplotlib.org/</dc:title>
     </cc:Agent>
    </dc:creator>
   </cc:Work>
  </rdf:RDF>
 </metadata>
 <defs>
  <style type="text/css">*{stroke-linejoin: round; stroke-linecap: butt}</style>
 </defs>
 <g id="figure_1">
  <g id="patch_1">
   <path d="M 0 345.6 
L 460.8 345.6 
L 460.8 0 
L 0 0 
z
" style="fill: #ffffff"/>
  </g>
  <g id="axes_1">
   <g id="patch_2">
    <path d="M 57.6 307.584 
L 414.72 307.584 
L 414.72 41.472 
L 57.6 41.472 
z
" style="fill: #ffffff"/>
   </g>
   <g id="matplotlib.axis_1">
    <g id="xtick_1">
     <g id="line2d_1">
      <path d="M 73.832727 307.584 
L 73.832727 41.472 
" clip-path="url(#pa344c15601)" style="fill: none; stroke: #b0b0b0; stroke-width: 0.8; stroke-linecap: square"/>
     </g>
     <g id="line2d_2">
      <defs>
       <path id="m05084482cb" d="M 0 0 
L 0 3.5 
" style="stroke: #000000; stroke-width: 0.8"/>
      </defs>
      <g>
       <use xlink:href="#m05084482cb" x="73.832727" y="307.584" style="stroke: #000000; stroke-width: 0.8"/>
      </g>
     </g>
     <g id="text_1">
      <!-- 0 -->
      <g transform="translate(70.651477 322.182437) scale(0.1 -0.1)">
       <defs>
        <path id="DejaVuSans-30" d="M 2034 4250 
Q 1547 4250 1301 3770 
Q 1056 3291 1056 2328 
Q 1056 1369 1301 889 
Q 1547 409 2034 409 
Q 2525 409 2770 889 
Q 3016 1369 3016 2328 
Q 3016 3291 2770 3770 
Q 2525 4250 2034 4250 
z
M 2034 4750 
Q 2819 4750 3233 4129 
Q 3647 3509 3647 2328 
Q 3647 1150 3233 529 
Q 2819 -91 2034 -91 
Q 1250 -91 836 529 
Q 422 1150 422 2328 
Q 422 3509 836 4129 
Q 1250 4750 2034 4750 
z
" transform="scale(0.015625)"/>
       </defs>
       <use xlink:href="#DejaVuSans-30"/>
      </g>
     </g>
    </g>
    <g id="xtick_2">
     <g id="line2d_3">
      <path d="M 138.841614 307.584 
L 138.841614 41.472 
" clip-path="url(#pa344c15601)" style="fill: none; stroke: #b0b0b0; stroke-width: 0.8; stroke-linecap: square"/>
     </g>
     <g id="line2d_4">
      <g>
       <use xlink:href="#m05084482cb" x="138.841614" y="307.584" style="stroke: #000000; stroke-width: 0.8"/>
      </g>
     </g>
     <g id="text_2">
      <!-- 20 -->
      <g transform="translate(132.479114 322.182437) scale(0.1 -0.1)">
       <defs>
        <path id="DejaVuSans-32" d="M 1228 531 
L 3431 531 
L 3431 0 
L 469 0 
L 469 531 
Q 828 903 1448 1529 
Q 2069 2156 2228 2338 
Q 2531 2678 2651 2914 
Q 2772 3150 2772 3378 
Q 2772 3750 2511 3984 
Q 2250 4219 1831 4219 
Q 1534 4219 1204 4116 
Q 875 4013 500 3803 
L 500 4441 
Q 881 4594 1212 4672 
Q 1544 4750 1819 4750 
Q 2544 4750 2975 4387 
Q 3406 4025 3406 3419 
Q 3406 3131 3298 2873 
Q 3191 2616 2906 2266 
Q 2828 2175 2409 1742 
Q 1991 1309 1228 531 
z
" transform="scale(0.015625)"/>
       </defs>
       <use xlink:href="#DejaVuSans-32"/>
       <use xlink:href="#DejaVuSans-30" x="63.623047"/>
      </g>
     </g>
    </g>
    <g id="xtick_3">
     <g id="line2d_5">
      <path d="M 203.850501 307.584 
L 203.850501 41.472 
" clip-path="url(#pa344c15601)" style="fill: none; stroke: #b0b0b0; stroke-width: 0.8; stroke-linecap: square"/>
     </g>
     <g id="line2d_6">
      <g>
       <use xlink:href="#m05084482cb" x="203.850501" y="307.584" style="stroke: #000000; stroke-width: 0.8"/>
      </g>
     </g>
     <g id="text_3">
      <!-- 40 -->
      <g transform="translate(197.488001 322.182437) scale(0.1 -0.1)">
       <defs>
        <path id="DejaVuSans-34" d="M 2419 4116 
L 825 1625 
L 2419 1625 
L 2419 4116 
z
M 2253 4666 
L 3047 4666 
L 3047 1625 
L 3713 1625 
L 3713 1100 
L 3047 1100 
L 3047 0 
L 2419 0 
L 2419 1100 
L 313 1100 
L 313 1709 
L 2253 4666 
z
" transform="scale(0.015625)"/>
       </defs>
       <use xlink:href="#DejaVuSans-34"/>
       <use xlink:href="#DejaVuSans-30" x="63.623047"/>
      </g>
     </g>
    </g>
    <g id="xtick_4">
     <g id="line2d_7">
      <path d="M 268.859388 307.584 
L 268.859388 41.472 
" clip-path="url(#pa344c15601)" style="fill: none; stroke: #b0b0b0; stroke-width: 0.8; stroke-linecap: square"/>
     </g>
     <g id="line2d_8">
      <g>
       <use xlink:href="#m05084482cb" x="268.859388" y="307.584" style="stroke: #000000; stroke-width: 0.8"/>
      </g>
     </g>
     <g id="text_4">
      <!-- 60 -->
      <g transform="translate(262.496888 322.182437) scale(0.1 -0.1)">
       <defs>
        <path id="DejaVuSans-36" d="M 2113 2584 
Q 1688 2584 1439 2293 
Q 1191 2003 1191 1497 
Q 1191 994 1439 701 
Q 1688 409 2113 409 
Q 2538 409 2786 701 
Q 3034 994 3034 1497 
Q 3034 2003 2786 2293 
Q 2538 2584 2113 2584 
z
M 3366 4563 
L 3366 3988 
Q 3128 4100 2886 4159 
Q 2644 4219 2406 4219 
Q 1781 4219 1451 3797 
Q 1122 3375 1075 2522 
Q 1259 2794 1537 2939 
Q 1816 3084 2150 3084 
Q 2853 3084 3261 2657 
Q 3669 2231 3669 1497 
Q 3669 778 3244 343 
Q 2819 -91 2113 -91 
Q 1303 -91 875 529 
Q 447 1150 447 2328 
Q 447 3434 972 4092 
Q 1497 4750 2381 4750 
Q 2619 4750 2861 4703 
Q 3103 4656 3366 4563 
z
" transform="scale(0.015625)"/>
       </defs>
       <use xlink:href="#DejaVuSans-36"/>
       <use xlink:href="#DejaVuSans-30" x="63.623047"/>
      </g>
     </g>
    </g>
    <g id="xtick_5">
     <g id="line2d_9">
      <path d="M 333.868274 307.584 
L 333.868274 41.472 
" clip-path="url(#pa344c15601)" style="fill: none; stroke: #b0b0b0; stroke-width: 0.8; stroke-linecap: square"/>
     </g>
     <g id="line2d_10">
      <g>
       <use xlink:href="#m05084482cb" x="333.868274" y="307.584" style="stroke: #000000; stroke-width: 0.8"/>
      </g>
     </g>
     <g id="text_5">
      <!-- 80 -->
      <g transform="translate(327.505774 322.182437) scale(0.1 -0.1)">
       <defs>
        <path id="DejaVuSans-38" d="M 2034 2216 
Q 1584 2216 1326 1975 
Q 1069 1734 1069 1313 
Q 1069 891 1326 650 
Q 1584 409 2034 409 
Q 2484 409 2743 651 
Q 3003 894 3003 1313 
Q 3003 1734 2745 1975 
Q 2488 2216 2034 2216 
z
M 1403 2484 
Q 997 2584 770 2862 
Q 544 3141 544 3541 
Q 544 4100 942 4425 
Q 1341 4750 2034 4750 
Q 2731 4750 3128 4425 
Q 3525 4100 3525 3541 
Q 3525 3141 3298 2862 
Q 3072 2584 2669 2484 
Q 3125 2378 3379 2068 
Q 3634 1759 3634 1313 
Q 3634 634 3220 271 
Q 2806 -91 2034 -91 
Q 1263 -91 848 271 
Q 434 634 434 1313 
Q 434 1759 690 2068 
Q 947 2378 1403 2484 
z
M 1172 3481 
Q 1172 3119 1398 2916 
Q 1625 2713 2034 2713 
Q 2441 2713 2670 2916 
Q 2900 3119 2900 3481 
Q 2900 3844 2670 4047 
Q 2441 4250 2034 4250 
Q 1625 4250 1398 4047 
Q 1172 3844 1172 3481 
z
" transform="scale(0.015625)"/>
       </defs>
       <use xlink:href="#DejaVuSans-38"/>
       <use xlink:href="#DejaVuSans-30" x="63.623047"/>
      </g>
     </g>
    </g>
    <g id="xtick_6">
     <g id="line2d_11">
      <path d="M 398.877161 307.584 
L 398.877161 41.472 
" clip-path="url(#pa344c15601)" style="fill: none; stroke: #b0b0b0; stroke-width: 0.8; stroke-linecap: square"/>
     </g>
     <g id="line2d_12">
      <g>
       <use xlink:href="#m05084482cb" x="398.877161" y="307.584" style="stroke: #000000; stroke-width: 0.8"/>
      </g>
     </g>
     <g id="text_6">
      <!-- 100 -->
      <g transform="translate(389.333411 322.182437) scale(0.1 -0.1)">
       <defs>
        <path id="DejaVuSans-31" d="M 794 531 
L 1825 531 
L 1825 4091 
L 703 3866 
L 703 4441 
L 1819 4666 
L 2450 4666 
L 2450 531 
L 3481 531 
L 3481 0 
L 794 0 
L 794 531 
z
" transform="scale(0.015625)"/>
       </defs>
       <use xlink:href="#DejaVuSans-31"/>
       <use xlink:href="#DejaVuSans-30" x="63.623047"/>
       <use xlink:href="#DejaVuSans-30" x="127.246094"/>
      </g>
     </g>
    </g>
    <g id="text_7">
     <!-- Frequency [Hz] -->
     <g transform="translate(198.455312 335.860562) scale(0.1 -0.1)">
      <defs>
       <path id="DejaVuSans-46" d="M 628 4666 
L 3309 4666 
L 3309 4134 
L 1259 4134 
L 1259 2759 
L 3109 2759 
L 3109 2228 
L 1259 2228 
L 1259 0 
L 628 0 
L 628 4666 
z
" transform="scale(0.015625)"/>
       <path id="DejaVuSans-72" d="M 2631 2963 
Q 2534 3019 2420 3045 
Q 2306 3072 2169 3072 
Q 1681 3072 1420 2755 
Q 1159 2438 1159 1844 
L 1159 0 
L 581 0 
L 581 3500 
L 1159 3500 
L 1159 2956 
Q 1341 3275 1631 3429 
Q 1922 3584 2338 3584 
Q 2397 3584 2469 3576 
Q 2541 3569 2628 3553 
L 2631 2963 
z
" transform="scale(0.015625)"/>
       <path id="DejaVuSans-65" d="M 3597 1894 
L 3597 1613 
L 953 1613 
Q 991 1019 1311 708 
Q 1631 397 2203 397 
Q 2534 397 2845 478 
Q 3156 559 3463 722 
L 3463 178 
Q 3153 47 2828 -22 
Q 2503 -91 2169 -91 
Q 1331 -91 842 396 
Q 353 884 353 1716 
Q 353 2575 817 3079 
Q 1281 3584 2069 3584 
Q 2775 3584 3186 3129 
Q 3597 2675 3597 1894 
z
M 3022 2063 
Q 3016 2534 2758 2815 
Q 2500 3097 2075 3097 
Q 1594 3097 1305 2825 
Q 1016 2553 972 2059 
L 3022 2063 
z
" transform="scale(0.015625)"/>
       <path id="DejaVuSans-71" d="M 947 1747 
Q 947 1113 1208 752 
Q 1469 391 1925 391 
Q 2381 391 2643 752 
Q 2906 1113 2906 1747 
Q 2906 2381 2643 2742 
Q 2381 3103 1925 3103 
Q 1469 3103 1208 2742 
Q 947 2381 947 1747 
z
M 2906 525 
Q 2725 213 2448 61 
Q 2172 -91 1784 -91 
Q 1150 -91 751 415 
Q 353 922 353 1747 
Q 353 2572 751 3078 
Q 1150 3584 1784 3584 
Q 2172 3584 2448 3432 
Q 2725 3281 2906 2969 
L 2906 3500 
L 3481 3500 
L 3481 -1331 
L 2906 -1331 
L 2906 525 
z
" transform="scale(0.015625)"/>
       <path id="DejaVuSans-75" d="M 544 1381 
L 544 3500 
L 1119 3500 
L 1119 1403 
Q 1119 906 1312 657 
Q 1506 409 1894 409 
Q 2359 409 2629 706 
Q 2900 1003 2900 1516 
L 2900 3500 
L 3475 3500 
L 3475 0 
L 2900 0 
L 2900 538 
Q 2691 219 2414 64 
Q 2138 -91 1772 -91 
Q 1169 -91 856 284 
Q 544 659 544 1381 
z
M 1991 3584 
L 1991 3584 
z
" transform="scale(0.015625)"/>
       <path id="DejaVuSans-6e" d="M 3513 2113 
L 3513 0 
L 2938 0 
L 2938 2094 
Q 2938 2591 2744 2837 
Q 2550 3084 2163 3084 
Q 1697 3084 1428 2787 
Q 1159 2491 1159 1978 
L 1159 0 
L 581 0 
L 581 3500 
L 1159 3500 
L 1159 2956 
Q 1366 3272 1645 3428 
Q 1925 3584 2291 3584 
Q 2894 3584 3203 3211 
Q 3513 2838 3513 2113 
z
" transform="scale(0.015625)"/>
       <path id="DejaVuSans-63" d="M 3122 3366 
L 3122 2828 
Q 2878 2963 2633 3030 
Q 2388 3097 2138 3097 
Q 1578 3097 1268 2742 
Q 959 2388 959 1747 
Q 959 1106 1268 751 
Q 1578 397 2138 397 
Q 2388 397 2633 464 
Q 2878 531 3122 666 
L 3122 134 
Q 2881 22 2623 -34 
Q 2366 -91 2075 -91 
Q 1284 -91 818 406 
Q 353 903 353 1747 
Q 353 2603 823 3093 
Q 1294 3584 2113 3584 
Q 2378 3584 2631 3529 
Q 2884 3475 3122 3366 
z
" transform="scale(0.015625)"/>
       <path id="DejaVuSans-79" d="M 2059 -325 
Q 1816 -950 1584 -1140 
Q 1353 -1331 966 -1331 
L 506 -1331 
L 506 -850 
L 844 -850 
Q 1081 -850 1212 -737 
Q 1344 -625 1503 -206 
L 1606 56 
L 191 3500 
L 800 3500 
L 1894 763 
L 2988 3500 
L 3597 3500 
L 2059 -325 
z
" transform="scale(0.015625)"/>
       <path id="DejaVuSans-20" transform="scale(0.015625)"/>
       <path id="DejaVuSans-5b" d="M 550 4863 
L 1875 4863 
L 1875 4416 
L 1125 4416 
L 1125 -397 
L 1875 -397 
L 1875 -844 
L 550 -844 
L 550 4863 
z
" transform="scale(0.015625)"/>
       <path id="DejaVuSans-48" d="M 628 4666 
L 1259 4666 
L 1259 2753 
L 3553 2753 
L 3553 4666 
L 4184 4666 
L 4184 0 
L 3553 0 
L 3553 2222 
L 1259 2222 
L 1259 0 
L 628 0 
L 628 4666 
z
" transform="scale(0.015625)"/>
       <path id="DejaVuSans-7a" d="M 353 3500 
L 3084 3500 
L 3084 2975 
L 922 459 
L 3084 459 
L 3084 0 
L 275 0 
L 275 525 
L 2438 3041 
L 353 3041 
L 353 3500 
z
" transform="scale(0.015625)"/>
       <path id="DejaVuSans-5d" d="M 1947 4863 
L 1947 -844 
L 622 -844 
L 622 -397 
L 1369 -397 
L 1369 4416 
L 622 4416 
L 622 4863 
L 1947 4863 
z
" transform="scale(0.015625)"/>
      </defs>
      <use xlink:href="#DejaVuSans-46"/>
      <use xlink:href="#DejaVuSans-72" x="50.269531"/>
      <use xlink:href="#DejaVuSans-65" x="89.132812"/>
      <use xlink:href="#DejaVuSans-71" x="150.65625"/>
      <use xlink:href="#DejaVuSans-75" x="214.132812"/>
      <use xlink:href="#DejaVuSans-65" x="277.511719"/>
      <use xlink:href="#DejaVuSans-6e" x="339.035156"/>
      <use xlink:href="#DejaVuSans-63" x="402.414062"/>
      <use xlink:href="#DejaVuSans-79" x="457.394531"/>
      <use xlink:href="#DejaVuSans-20" x="516.574219"/>
      <use xlink:href="#DejaVuSans-5b" x="548.361328"/>
      <use xlink:href="#DejaVuSans-48" x="587.375"/>
      <use xlink:href="#DejaVuSans-7a" x="662.570312"/>
      <use xlink:href="#DejaVuSans-5d" x="715.060547"/>
     </g>
    </g>
   </g>
   <g id="matplotlib.axis_2">
    <g id="ytick_1">
     <g id="line2d_13">
      <path d="M 57.6 277.943174 
L 414.72 277.943174 
" clip-path="url(#pa344c15601)" style="fill: none; stroke: #b0b0b0; stroke-width: 0.8; stroke-linecap: square"/>
     </g>
     <g id="line2d_14">
      <defs>
       <path id="m7889afb88d" d="M 0 0 
L -3.5 0 
" style="stroke: #000000; stroke-width: 0.8"/>
      </defs>
      <g>
       <use xlink:href="#m7889afb88d" x="57.6" y="277.943174" style="stroke: #000000; stroke-width: 0.8"/>
      </g>
     </g>
     <g id="text_8">
      <!-- 0.001 -->
      <g transform="translate(21.971875 281.742392) scale(0.1 -0.1)">
       <defs>
        <path id="DejaVuSans-2e" d="M 684 794 
L 1344 794 
L 1344 0 
L 684 0 
L 684 794 
z
" transform="scale(0.015625)"/>
       </defs>
       <use xlink:href="#DejaVuSans-30"/>
       <use xlink:href="#DejaVuSans-2e" x="63.623047"/>
       <use xlink:href="#DejaVuSans-30" x="95.410156"/>
       <use xlink:href="#DejaVuSans-30" x="159.033203"/>
       <use xlink:href="#DejaVuSans-31" x="222.65625"/>
      </g>
     </g>
    </g>
    <g id="ytick_2">
     <g id="line2d_15">
      <path d="M 57.6 245.075062 
L 414.72 245.075062 
" clip-path="url(#pa344c15601)" style="fill: none; stroke: #b0b0b0; stroke-width: 0.8; stroke-linecap: square"/>
     </g>
     <g id="line2d_16">
      <g>
       <use xlink:href="#m7889afb88d" x="57.6" y="245.075062" style="stroke: #000000; stroke-width: 0.8"/>
      </g>
     </g>
     <g id="text_9">
      <!-- 0.002 -->
      <g transform="translate(21.971875 248.87428) scale(0.1 -0.1)">
       <use xlink:href="#DejaVuSans-30"/>
       <use xlink:href="#DejaVuSans-2e" x="63.623047"/>
       <use xlink:href="#DejaVuSans-30" x="95.410156"/>
       <use xlink:href="#DejaVuSans-30" x="159.033203"/>
       <use xlink:href="#DejaVuSans-32" x="222.65625"/>
      </g>
     </g>
    </g>
    <g id="ytick_3">
     <g id="line2d_17">
      <path d="M 57.6 212.20695 
L 414.72 212.20695 
" clip-path="url(#pa344c15601)" style="fill: none; stroke: #b0b0b0; stroke-width: 0.8; stroke-linecap: square"/>
     </g>
     <g id="line2d_18">
      <g>
       <use xlink:href="#m7889afb88d" x="57.6" y="212.20695" style="stroke: #000000; stroke-width: 0.8"/>
      </g>
     </g>
     <g id="text_10">
      <!-- 0.003 -->
      <g transform="translate(21.971875 216.006168) scale(0.1 -0.1)">
       <defs>
        <path id="DejaVuSans-33" d="M 2597 2516 
Q 3050 2419 3304 2112 
Q 3559 1806 3559 1356 
Q 3559 666 3084 287 
Q 2609 -91 1734 -91 
Q 1441 -91 1130 -33 
Q 819 25 488 141 
L 488 750 
Q 750 597 1062 519 
Q 1375 441 1716 441 
Q 2309 441 2620 675 
Q 2931 909 2931 1356 
Q 2931 1769 2642 2001 
Q 2353 2234 1838 2234 
L 1294 2234 
L 1294 2753 
L 1863 2753 
Q 2328 2753 2575 2939 
Q 2822 3125 2822 3475 
Q 2822 3834 2567 4026 
Q 2313 4219 1838 4219 
Q 1578 4219 1281 4162 
Q 984 4106 628 3988 
L 628 4550 
Q 988 4650 1302 4700 
Q 1616 4750 1894 4750 
Q 2613 4750 3031 4423 
Q 3450 4097 3450 3541 
Q 3450 3153 3228 2886 
Q 3006 2619 2597 2516 
z
" transform="scale(0.015625)"/>
       </defs>
       <use xlink:href="#DejaVuSans-30"/>
       <use xlink:href="#DejaVuSans-2e" x="63.623047"/>
       <use xlink:href="#DejaVuSans-30" x="95.410156"/>
       <use xlink:href="#DejaVuSans-30" x="159.033203"/>
       <use xlink:href="#DejaVuSans-33" x="222.65625"/>
      </g>
     </g>
    </g>
    <g id="ytick_4">
     <g id="line2d_19">
      <path d="M 57.6 179.338838 
L 414.72 179.338838 
" clip-path="url(#pa344c15601)" style="fill: none; stroke: #b0b0b0; stroke-width: 0.8; stroke-linecap: square"/>
     </g>
     <g id="line2d_20">
      <g>
       <use xlink:href="#m7889afb88d" x="57.6" y="179.338838" style="stroke: #000000; stroke-width: 0.8"/>
      </g>
     </g>
     <g id="text_11">
      <!-- 0.004 -->
      <g transform="translate(21.971875 183.138057) scale(0.1 -0.1)">
       <use xlink:href="#DejaVuSans-30"/>
       <use xlink:href="#DejaVuSans-2e" x="63.623047"/>
       <use xlink:href="#DejaVuSans-30" x="95.410156"/>
       <use xlink:href="#DejaVuSans-30" x="159.033203"/>
       <use xlink:href="#DejaVuSans-34" x="222.65625"/>
      </g>
     </g>
    </g>
    <g id="ytick_5">
     <g id="line2d_21">
      <path d="M 57.6 146.470726 
L 414.72 146.470726 
" clip-path="url(#pa344c15601)" style="fill: none; stroke: #b0b0b0; stroke-width: 0.8; stroke-linecap: square"/>
     </g>
     <g id="line2d_22">
      <g>
       <use xlink:href="#m7889afb88d" x="57.6" y="146.470726" style="stroke: #000000; stroke-width: 0.8"/>
      </g>
     </g>
     <g id="text_12">
      <!-- 0.005 -->
      <g transform="translate(21.971875 150.269945) scale(0.1 -0.1)">
       <defs>
        <path id="DejaVuSans-35" d="M 691 4666 
L 3169 4666 
L 3169 4134 
L 1269 4134 
L 1269 2991 
Q 1406 3038 1543 3061 
Q 1681 3084 1819 3084 
Q 2600 3084 3056 2656 
Q 3513 2228 3513 1497 
Q 3513 744 3044 326 
Q 2575 -91 1722 -91 
Q 1428 -91 1123 -41 
Q 819 9 494 109 
L 494 744 
Q 775 591 1075 516 
Q 1375 441 1709 441 
Q 2250 441 2565 725 
Q 2881 1009 2881 1497 
Q 2881 1984 2565 2268 
Q 2250 2553 1709 2553 
Q 1456 2553 1204 2497 
Q 953 2441 691 2322 
L 691 4666 
z
" transform="scale(0.015625)"/>
       </defs>
       <use xlink:href="#DejaVuSans-30"/>
       <use xlink:href="#DejaVuSans-2e" x="63.623047"/>
       <use xlink:href="#DejaVuSans-30" x="95.410156"/>
       <use xlink:href="#DejaVuSans-30" x="159.033203"/>
       <use xlink:href="#DejaVuSans-35" x="222.65625"/>
      </g>
     </g>
    </g>
    <g id="ytick_6">
     <g id="line2d_23">
      <path d="M 57.6 113.602614 
L 414.72 113.602614 
" clip-path="url(#pa344c15601)" style="fill: none; stroke: #b0b0b0; stroke-width: 0.8; stroke-linecap: square"/>
     </g>
     <g id="line2d_24">
      <g>
       <use xlink:href="#m7889afb88d" x="57.6" y="113.602614" style="stroke: #000000; stroke-width: 0.8"/>
      </g>
     </g>
     <g id="text_13">
      <!-- 0.006 -->
      <g transform="translate(21.971875 117.401833) scale(0.1 -0.1)">
       <use xlink:href="#DejaVuSans-30"/>
       <use xlink:href="#DejaVuSans-2e" x="63.623047"/>
       <use xlink:href="#DejaVuSans-30" x="95.410156"/>
       <use xlink:href="#DejaVuSans-30" x="159.033203"/>
       <use xlink:href="#DejaVuSans-36" x="222.65625"/>
      </g>
     </g>
    </g>
    <g id="ytick_7">
     <g id="line2d_25">
      <path d="M 57.6 80.734502 
L 414.72 80.734502 
" clip-path="url(#pa344c15601)" style="fill: none; stroke: #b0b0b0; stroke-width: 0.8; stroke-linecap: square"/>
     </g>
     <g id="line2d_26">
      <g>
       <use xlink:href="#m7889afb88d" x="57.6" y="80.734502" style="stroke: #000000; stroke-width: 0.8"/>
      </g>
     </g>
     <g id="text_14">
      <!-- 0.007 -->
      <g transform="translate(21.971875 84.533721) scale(0.1 -0.1)">
       <defs>
        <path id="DejaVuSans-37" d="M 525 4666 
L 3525 4666 
L 3525 4397 
L 1831 0 
L 1172 0 
L 2766 4134 
L 525 4134 
L 525 4666 
z
" transform="scale(0.015625)"/>
       </defs>
       <use xlink:href="#DejaVuSans-30"/>
       <use xlink:href="#DejaVuSans-2e" x="63.623047"/>
       <use xlink:href="#DejaVuSans-30" x="95.410156"/>
       <use xlink:href="#DejaVuSans-30" x="159.033203"/>
       <use xlink:href="#DejaVuSans-37" x="222.65625"/>
      </g>
     </g>
    </g>
    <g id="ytick_8">
     <g id="line2d_27">
      <path d="M 57.6 47.86639 
L 414.72 47.86639 
" clip-path="url(#pa344c15601)" style="fill: none; stroke: #b0b0b0; stroke-width: 0.8; stroke-linecap: square"/>
     </g>
     <g id="line2d_28">
      <g>
       <use xlink:href="#m7889afb88d" x="57.6" y="47.86639" style="stroke: #000000; stroke-width: 0.8"/>
      </g>
     </g>
     <g id="text_15">
      <!-- 0.008 -->
      <g transform="translate(21.971875 51.665609) scale(0.1 -0.1)">
       <use xlink:href="#DejaVuSans-30"/>
       <use xlink:href="#DejaVuSans-2e" x="63.623047"/>
       <use xlink:href="#DejaVuSans-30" x="95.410156"/>
       <use xlink:href="#DejaVuSans-30" x="159.033203"/>
       <use xlink:href="#DejaVuSans-38" x="222.65625"/>
      </g>
     </g>
    </g>
    <g id="text_16">
     <!-- Spectral Density ($m/s²  / \sqrt{Hz}$) -->
     <g transform="translate(15.871875 244.728) rotate(-90) scale(0.1 -0.1)">
      <defs>
       <path id="DejaVuSans-53" d="M 3425 4513 
L 3425 3897 
Q 3066 4069 2747 4153 
Q 2428 4238 2131 4238 
Q 1616 4238 1336 4038 
Q 1056 3838 1056 3469 
Q 1056 3159 1242 3001 
Q 1428 2844 1947 2747 
L 2328 2669 
Q 3034 2534 3370 2195 
Q 3706 1856 3706 1288 
Q 3706 609 3251 259 
Q 2797 -91 1919 -91 
Q 1588 -91 1214 -16 
Q 841 59 441 206 
L 441 856 
Q 825 641 1194 531 
Q 1563 422 1919 422 
Q 2459 422 2753 634 
Q 3047 847 3047 1241 
Q 3047 1584 2836 1778 
Q 2625 1972 2144 2069 
L 1759 2144 
Q 1053 2284 737 2584 
Q 422 2884 422 3419 
Q 422 4038 858 4394 
Q 1294 4750 2059 4750 
Q 2388 4750 2728 4690 
Q 3069 4631 3425 4513 
z
" transform="scale(0.015625)"/>
       <path id="DejaVuSans-70" d="M 1159 525 
L 1159 -1331 
L 581 -1331 
L 581 3500 
L 1159 3500 
L 1159 2969 
Q 1341 3281 1617 3432 
Q 1894 3584 2278 3584 
Q 2916 3584 3314 3078 
Q 3713 2572 3713 1747 
Q 3713 922 3314 415 
Q 2916 -91 2278 -91 
Q 1894 -91 1617 61 
Q 1341 213 1159 525 
z
M 3116 1747 
Q 3116 2381 2855 2742 
Q 2594 3103 2138 3103 
Q 1681 3103 1420 2742 
Q 1159 2381 1159 1747 
Q 1159 1113 1420 752 
Q 1681 391 2138 391 
Q 2594 391 2855 752 
Q 3116 1113 3116 1747 
z
" transform="scale(0.015625)"/>
       <path id="DejaVuSans-74" d="M 1172 4494 
L 1172 3500 
L 2356 3500 
L 2356 3053 
L 1172 3053 
L 1172 1153 
Q 1172 725 1289 603 
Q 1406 481 1766 481 
L 2356 481 
L 2356 0 
L 1766 0 
Q 1100 0 847 248 
Q 594 497 594 1153 
L 594 3053 
L 172 3053 
L 172 3500 
L 594 3500 
L 594 4494 
L 1172 4494 
z
" transform="scale(0.015625)"/>
       <path id="DejaVuSans-61" d="M 2194 1759 
Q 1497 1759 1228 1600 
Q 959 1441 959 1056 
Q 959 750 1161 570 
Q 1363 391 1709 391 
Q 2188 391 2477 730 
Q 2766 1069 2766 1631 
L 2766 1759 
L 2194 1759 
z
M 3341 1997 
L 3341 0 
L 2766 0 
L 2766 531 
Q 2569 213 2275 61 
Q 1981 -91 1556 -91 
Q 1019 -91 701 211 
Q 384 513 384 1019 
Q 384 1609 779 1909 
Q 1175 2209 1959 2209 
L 2766 2209 
L 2766 2266 
Q 2766 2663 2505 2880 
Q 2244 3097 1772 3097 
Q 1472 3097 1187 3025 
Q 903 2953 641 2809 
L 641 3341 
Q 956 3463 1253 3523 
Q 1550 3584 1831 3584 
Q 2591 3584 2966 3190 
Q 3341 2797 3341 1997 
z
" transform="scale(0.015625)"/>
       <path id="DejaVuSans-6c" d="M 603 4863 
L 1178 4863 
L 1178 0 
L 603 0 
L 603 4863 
z
" transform="scale(0.015625)"/>
       <path id="DejaVuSans-44" d="M 1259 4147 
L 1259 519 
L 2022 519 
Q 2988 519 3436 956 
Q 3884 1394 3884 2338 
Q 3884 3275 3436 3711 
Q 2988 4147 2022 4147 
L 1259 4147 
z
M 628 4666 
L 1925 4666 
Q 3281 4666 3915 4102 
Q 4550 3538 4550 2338 
Q 4550 1131 3912 565 
Q 3275 0 1925 0 
L 628 0 
L 628 4666 
z
" transform="scale(0.015625)"/>
       <path id="DejaVuSans-73" d="M 2834 3397 
L 2834 2853 
Q 2591 2978 2328 3040 
Q 2066 3103 1784 3103 
Q 1356 3103 1142 2972 
Q 928 2841 928 2578 
Q 928 2378 1081 2264 
Q 1234 2150 1697 2047 
L 1894 2003 
Q 2506 1872 2764 1633 
Q 3022 1394 3022 966 
Q 3022 478 2636 193 
Q 2250 -91 1575 -91 
Q 1294 -91 989 -36 
Q 684 19 347 128 
L 347 722 
Q 666 556 975 473 
Q 1284 391 1588 391 
Q 1994 391 2212 530 
Q 2431 669 2431 922 
Q 2431 1156 2273 1281 
Q 2116 1406 1581 1522 
L 1381 1569 
Q 847 1681 609 1914 
Q 372 2147 372 2553 
Q 372 3047 722 3315 
Q 1072 3584 1716 3584 
Q 2034 3584 2315 3537 
Q 2597 3491 2834 3397 
z
" transform="scale(0.015625)"/>
       <path id="DejaVuSans-69" d="M 603 3500 
L 1178 3500 
L 1178 0 
L 603 0 
L 603 3500 
z
M 603 4863 
L 1178 4863 
L 1178 4134 
L 603 4134 
L 603 4863 
z
" transform="scale(0.015625)"/>
       <path id="DejaVuSans-28" d="M 1984 4856 
Q 1566 4138 1362 3434 
Q 1159 2731 1159 2009 
Q 1159 1288 1364 580 
Q 1569 -128 1984 -844 
L 1484 -844 
Q 1016 -109 783 600 
Q 550 1309 550 2009 
Q 550 2706 781 3412 
Q 1013 4119 1484 4856 
L 1984 4856 
z
" transform="scale(0.015625)"/>
       <path id="DejaVuSans-Oblique-6d" d="M 5747 2113 
L 5338 0 
L 4763 0 
L 5166 2094 
Q 5191 2228 5203 2325 
Q 5216 2422 5216 2491 
Q 5216 2772 5059 2928 
Q 4903 3084 4622 3084 
Q 4203 3084 3875 2770 
Q 3547 2456 3450 1953 
L 3066 0 
L 2491 0 
L 2900 2094 
Q 2925 2209 2937 2307 
Q 2950 2406 2950 2484 
Q 2950 2769 2794 2926 
Q 2638 3084 2363 3084 
Q 1938 3084 1609 2770 
Q 1281 2456 1184 1953 
L 800 0 
L 225 0 
L 909 3500 
L 1484 3500 
L 1375 2956 
Q 1609 3263 1923 3423 
Q 2238 3584 2597 3584 
Q 2978 3584 3223 3384 
Q 3469 3184 3519 2828 
Q 3781 3197 4126 3390 
Q 4472 3584 4856 3584 
Q 5306 3584 5551 3325 
Q 5797 3066 5797 2591 
Q 5797 2488 5784 2364 
Q 5772 2241 5747 2113 
z
" transform="scale(0.015625)"/>
       <path id="DejaVuSans-2f" d="M 1625 4666 
L 2156 4666 
L 531 -594 
L 0 -594 
L 1625 4666 
z
" transform="scale(0.015625)"/>
       <path id="DejaVuSans-Oblique-73" d="M 3200 3397 
L 3091 2853 
Q 2863 2978 2609 3040 
Q 2356 3103 2088 3103 
Q 1634 3103 1373 2948 
Q 1113 2794 1113 2528 
Q 1113 2219 1719 2053 
Q 1766 2041 1788 2034 
L 1972 1978 
Q 2547 1819 2739 1644 
Q 2931 1469 2931 1166 
Q 2931 609 2489 259 
Q 2047 -91 1331 -91 
Q 1053 -91 747 -37 
Q 441 16 72 128 
L 184 722 
Q 500 559 806 475 
Q 1113 391 1394 391 
Q 1816 391 2080 572 
Q 2344 753 2344 1031 
Q 2344 1331 1650 1516 
L 1591 1531 
L 1394 1581 
Q 956 1697 753 1886 
Q 550 2075 550 2369 
Q 550 2928 970 3256 
Q 1391 3584 2113 3584 
Q 2397 3584 2667 3537 
Q 2938 3491 3200 3397 
z
" transform="scale(0.015625)"/>
       <path id="DejaVuSans-b2" d="M 838 2444 
L 2163 2444 
L 2163 2088 
L 294 2088 
L 294 2431 
Q 400 2528 597 2703 
Q 1672 3656 1672 3950 
Q 1672 4156 1509 4282 
Q 1347 4409 1081 4409 
Q 919 4409 728 4354 
Q 538 4300 313 4191 
L 313 4575 
Q 553 4663 761 4706 
Q 969 4750 1147 4750 
Q 1600 4750 1872 4544 
Q 2144 4338 2144 4000 
Q 2144 3566 1109 2678 
Q 934 2528 838 2444 
z
" transform="scale(0.015625)"/>
       <path id="STIXSizeOneSym-Regular-221a" d="M 6970 9933 
L 3373 -1888 
L 3104 -1888 
L 1626 2918 
Q 1555 3149 1465 3251 
Q 1376 3354 1229 3354 
Q 1011 3354 794 3181 
L 717 3309 
L 1766 4115 
L 1926 4115 
L 3379 -602 
L 3405 -602 
L 6605 9933 
L 6970 9933 
z
" transform="scale(0.015625)"/>
       <path id="DejaVuSans-Oblique-48" d="M 1081 4666 
L 1716 4666 
L 1344 2753 
L 3634 2753 
L 4006 4666 
L 4641 4666 
L 3731 0 
L 3097 0 
L 3531 2222 
L 1241 2222 
L 806 0 
L 172 0 
L 1081 4666 
z
" transform="scale(0.015625)"/>
       <path id="DejaVuSans-Oblique-7a" d="M 744 3500 
L 3475 3500 
L 3372 2975 
L 738 459 
L 2913 459 
L 2822 0 
L -19 0 
L 84 525 
L 2719 3041 
L 653 3041 
L 744 3500 
z
" transform="scale(0.015625)"/>
       <path id="DejaVuSans-29" d="M 513 4856 
L 1013 4856 
Q 1481 4119 1714 3412 
Q 1947 2706 1947 2009 
Q 1947 1309 1714 600 
Q 1481 -109 1013 -844 
L 513 -844 
Q 928 -128 1133 580 
Q 1338 1288 1338 2009 
Q 1338 2731 1133 3434 
Q 928 4138 513 4856 
z
" transform="scale(0.015625)"/>
      </defs>
      <use xlink:href="#DejaVuSans-53" transform="translate(0 0.578125)"/>
      <use xlink:href="#DejaVuSans-70" transform="translate(63.476562 0.578125)"/>
      <use xlink:href="#DejaVuSans-65" transform="translate(126.953125 0.578125)"/>
      <use xlink:href="#DejaVuSans-63" transform="translate(188.476562 0.578125)"/>
      <use xlink:href="#DejaVuSans-74" transform="translate(243.457031 0.578125)"/>
      <use xlink:href="#DejaVuSans-72" transform="translate(282.666016 0.578125)"/>
      <use xlink:href="#DejaVuSans-61" transform="translate(323.779297 0.578125)"/>
      <use xlink:href="#DejaVuSans-6c" transform="translate(385.058594 0.578125)"/>
      <use xlink:href="#DejaVuSans-20" transform="translate(412.841797 0.578125)"/>
      <use xlink:href="#DejaVuSans-44" transform="translate(444.628906 0.578125)"/>
      <use xlink:href="#DejaVuSans-65" transform="translate(521.630859 0.578125)"/>
      <use xlink:href="#DejaVuSans-6e" transform="translate(583.154297 0.578125)"/>
      <use xlink:href="#DejaVuSans-73" transform="translate(646.533203 0.578125)"/>
      <use xlink:href="#DejaVuSans-69" transform="translate(698.632812 0.578125)"/>
      <use xlink:href="#DejaVuSans-74" transform="translate(726.416016 0.578125)"/>
      <use xlink:href="#DejaVuSans-79" transform="translate(765.625 0.578125)"/>
      <use xlink:href="#DejaVuSans-20" transform="translate(824.804688 0.578125)"/>
      <use xlink:href="#DejaVuSans-28" transform="translate(856.591797 0.578125)"/>
      <use xlink:href="#DejaVuSans-Oblique-6d" transform="translate(895.605469 0.578125)"/>
      <use xlink:href="#DejaVuSans-2f" transform="translate(993.017578 0.578125)"/>
      <use xlink:href="#DejaVuSans-Oblique-73" transform="translate(1026.708984 0.578125)"/>
      <use xlink:href="#DejaVuSans-b2" transform="translate(1078.808594 0.578125)"/>
      <use xlink:href="#DejaVuSans-2f" transform="translate(1118.896484 0.578125)"/>
      <use xlink:href="#STIXSizeOneSym-Regular-221a" transform="translate(1152.587891 17.09375) scale(0.563912)"/>
      <use xlink:href="#DejaVuSans-Oblique-48" transform="translate(1224.676254 0.84375)"/>
      <use xlink:href="#DejaVuSans-Oblique-7a" transform="translate(1299.871567 0.84375)"/>
      <use xlink:href="#DejaVuSans-29" transform="translate(1364.861801 0.578125)"/>
      <path d="M 1212.176254 97.5 
L 1212.176254 103.75 
L 1364.861801 103.75 
L 1364.861801 97.5 
L 1212.176254 97.5 
z
"/>
     </g>
    </g>
   </g>
   <g id="line2d_29">
    <path d="M 73.832727 288.632624 
L 74.466818 260.642211 
L 75.100909 262.643535 
L 75.735 266.540112 
L 76.369091 265.375001 
L 77.003182 266.670381 
L 77.637273 270.792609 
L 78.271364 271.77623 
L 78.905455 266.919863 
L 79.539545 264.95752 
L 80.173636 265.761675 
L 80.807727 267.909342 
L 81.441818 264.479327 
L 82.075909 263.85627 
L 82.71 269.363768 
L 83.344091 266.836857 
L 83.978182 262.517394 
L 84.612273 262.813326 
L 85.246364 265.043383 
L 85.880455 263.361537 
L 87.782727 272.114856 
L 88.416818 274.061179 
L 89.050909 274.668326 
L 89.685 263.024565 
L 90.319091 264.683159 
L 90.953182 265.321081 
L 91.587273 267.205612 
L 92.221364 268.18961 
L 92.855455 271.499477 
L 93.489545 272.717567 
L 94.757727 269.602835 
L 95.391818 272.108363 
L 96.025909 269.068587 
L 96.66 269.267497 
L 97.294091 266.387543 
L 97.928182 272.118345 
L 98.562273 274.764113 
L 99.196364 270.42371 
L 99.830455 267.34715 
L 100.464545 266.046246 
L 101.098636 267.246939 
L 101.732727 264.964096 
L 102.366818 269.872338 
L 103.000909 272.576176 
L 103.635 267.875313 
L 104.269091 268.44566 
L 104.903182 266.996773 
L 105.537273 269.262097 
L 106.171364 267.984475 
L 106.805455 267.394917 
L 107.439545 270.025531 
L 108.707727 268.48285 
L 109.341818 268.880729 
L 109.975909 267.293189 
L 110.61 267.832565 
L 111.244091 269.165884 
L 111.878182 266.875472 
L 112.512273 262.70571 
L 113.146364 271.828495 
L 113.780455 269.339028 
L 114.414545 267.460306 
L 115.048636 268.91625 
L 115.682727 262.26835 
L 116.316818 262.786838 
L 116.950909 267.460367 
L 117.585 273.646899 
L 118.219091 268.639246 
L 118.853182 267.984478 
L 119.487273 266.524302 
L 120.121364 266.931858 
L 120.755455 267.037384 
L 121.389545 267.592339 
L 122.023636 264.253862 
L 122.657727 264.97914 
L 123.291818 267.985834 
L 123.925909 265.261904 
L 124.56 263.02883 
L 125.194091 265.851537 
L 127.096364 248.642963 
L 127.730455 249.54509 
L 128.364545 256.273853 
L 128.998636 253.76468 
L 129.632727 251.83415 
L 130.266818 251.61092 
L 131.535 256.522181 
L 132.169091 256.917153 
L 132.803182 244.441761 
L 133.437273 257.64327 
L 134.071364 259.518328 
L 134.705455 265.028692 
L 135.973636 247.801279 
L 136.607727 253.991218 
L 137.241818 255.579099 
L 137.875909 262.41963 
L 138.51 264.20298 
L 139.144091 267.708079 
L 139.778182 267.343555 
L 140.412273 261.271885 
L 141.046364 259.741044 
L 141.680455 262.358852 
L 142.314545 261.998245 
L 142.948636 260.266974 
L 143.582727 263.450699 
L 144.216818 258.225703 
L 144.850909 255.750735 
L 145.485 259.253086 
L 146.119091 263.834346 
L 146.753182 262.743479 
L 147.387273 259.166943 
L 148.021364 257.447574 
L 148.655455 255.381807 
L 149.289545 262.957758 
L 149.923636 268.351907 
L 150.557727 260.80837 
L 151.191818 258.777714 
L 151.825909 260.769532 
L 152.46 257.037157 
L 153.094091 259.496068 
L 153.728182 266.786443 
L 154.362273 267.984177 
L 154.996364 263.124121 
L 155.630455 263.718701 
L 156.264545 265.150774 
L 156.898636 265.995534 
L 158.166818 264.878417 
L 158.800909 262.544372 
L 159.435 265.39318 
L 160.069091 269.557602 
L 160.703182 271.326217 
L 161.337273 261.487106 
L 161.971364 260.683091 
L 162.605455 262.145113 
L 163.239545 260.309846 
L 163.873636 267.860949 
L 164.507727 264.881031 
L 165.141818 260.890854 
L 165.775909 263.941354 
L 166.41 267.877947 
L 167.044091 265.171424 
L 167.678182 267.427118 
L 168.312273 264.681437 
L 168.946364 267.359394 
L 169.580455 274.283173 
L 170.214545 270.128397 
L 170.848636 264.421596 
L 171.482727 261.899249 
L 172.116818 266.148271 
L 172.750909 272.558464 
L 173.385 267.531168 
L 174.019091 270.454382 
L 175.287273 268.362743 
L 175.921364 266.058429 
L 176.555455 265.980638 
L 177.189545 266.94292 
L 177.823636 265.796791 
L 178.457727 265.330478 
L 179.091818 265.646836 
L 179.725909 263.599035 
L 180.36 264.001112 
L 180.994091 268.869434 
L 181.628182 263.978691 
L 182.262273 273.037076 
L 182.896364 273.824829 
L 184.164545 262.20022 
L 184.798636 263.933007 
L 185.432727 264.617696 
L 186.066818 265.64643 
L 186.700909 263.180541 
L 187.335 264.676408 
L 187.969091 272.187396 
L 188.603182 272.729849 
L 189.237273 268.245557 
L 189.871364 269.877048 
L 190.505455 265.94311 
L 191.139545 266.756853 
L 191.773636 263.653771 
L 192.407727 262.943235 
L 193.041818 261.019521 
L 193.675909 258.158309 
L 194.31 262.183422 
L 194.944091 264.213313 
L 195.578182 269.123183 
L 196.212273 266.771 
L 196.846364 265.861006 
L 197.480455 259.876191 
L 198.114545 258.294995 
L 198.748636 261.447464 
L 199.382727 266.666987 
L 200.016818 267.015325 
L 200.650909 263.225679 
L 201.285 260.549259 
L 201.919091 258.926318 
L 202.553182 261.409086 
L 203.187273 260.396413 
L 203.821364 264.291327 
L 204.455455 267.266449 
L 205.089545 266.112064 
L 205.723636 264.542247 
L 206.357727 268.631414 
L 206.991818 267.499925 
L 207.625909 267.761468 
L 208.26 263.538135 
L 208.894091 264.867887 
L 209.528182 267.675816 
L 210.162273 264.44358 
L 210.796364 264.911984 
L 211.430455 266.478582 
L 212.064545 269.434887 
L 212.698636 266.468854 
L 213.332727 268.889005 
L 213.966818 268.249012 
L 214.600909 265.267712 
L 215.235 264.219392 
L 215.869091 261.21557 
L 216.503182 264.329709 
L 217.137273 268.373373 
L 217.771364 268.088985 
L 218.405455 264.887247 
L 219.039545 263.623026 
L 219.673636 265.180464 
L 220.307727 262.200213 
L 220.941818 269.768746 
L 221.575909 267.85219 
L 222.21 262.374805 
L 222.844091 264.164927 
L 223.478182 269.536617 
L 224.112273 268.922476 
L 224.746364 270.750886 
L 225.380455 273.866172 
L 226.014545 271.419128 
L 226.648636 270.19538 
L 227.916818 268.539677 
L 228.550909 267.279533 
L 229.185 269.9653 
L 229.819091 264.489484 
L 230.453182 261.535845 
L 231.087273 263.755429 
L 231.721364 259.268364 
L 232.355455 263.471884 
L 232.989545 272.549569 
L 233.623636 271.328201 
L 234.257727 262.417791 
L 234.891818 260.680006 
L 235.525909 262.235466 
L 236.16 262.893701 
L 236.794091 267.958049 
L 237.428182 266.53395 
L 238.062273 268.859605 
L 238.696364 264.455667 
L 239.330455 262.066754 
L 239.964545 267.335858 
L 240.598636 270.88733 
L 241.866818 267.869289 
L 242.500909 265.693486 
L 243.135 267.360905 
L 243.769091 270.667911 
L 244.403182 267.577954 
L 245.037273 267.48085 
L 245.671364 264.570065 
L 246.305455 262.838379 
L 246.939545 264.328887 
L 247.573636 262.196197 
L 248.207727 261.821723 
L 248.841818 259.732961 
L 249.475909 267.67735 
L 250.11 266.123442 
L 250.744091 269.610025 
L 251.378182 268.438477 
L 252.012273 265.517958 
L 252.646364 268.297839 
L 253.280455 273.039807 
L 253.914545 270.796263 
L 254.548636 268.970295 
L 255.182727 268.670097 
L 255.816818 269.259861 
L 256.450909 269.641089 
L 257.085 269.463072 
L 257.719091 268.895018 
L 258.353182 263.455393 
L 258.987273 259.27146 
L 259.621364 266.739236 
L 260.255455 271.352489 
L 260.889545 271.608022 
L 261.523636 269.22844 
L 262.157727 274.43575 
L 262.791818 274.487472 
L 263.425909 265.229589 
L 264.06 259.61939 
L 264.694091 264.279259 
L 265.328182 264.983308 
L 265.962273 263.856522 
L 266.596364 264.140616 
L 267.230455 263.663929 
L 267.864545 268.413213 
L 268.498636 264.192278 
L 269.766818 268.012388 
L 270.400909 265.974748 
L 271.035 270.259021 
L 271.669091 270.723961 
L 272.303182 269.15238 
L 272.937273 268.676933 
L 273.571364 267.176712 
L 274.205455 266.821445 
L 274.839545 265.951656 
L 275.473636 264.281999 
L 276.107727 269.981773 
L 276.741818 270.651716 
L 277.375909 265.145264 
L 278.01 271.420786 
L 278.644091 274.994017 
L 279.278182 274.869282 
L 279.912273 268.520241 
L 280.546364 269.201715 
L 281.180455 273.362236 
L 281.814545 275.953041 
L 282.448636 274.359098 
L 283.082727 272.130849 
L 283.716818 272.319809 
L 284.350909 272.647034 
L 284.985 270.641855 
L 285.619091 269.57111 
L 286.253182 271.204445 
L 286.887273 273.870838 
L 287.521364 273.054667 
L 288.155455 274.259629 
L 288.789545 268.446169 
L 289.423636 269.361592 
L 290.057727 274.77128 
L 290.691818 276.444868 
L 291.325909 270.887734 
L 291.96 268.305973 
L 292.594091 268.477322 
L 293.228182 270.212541 
L 293.862273 272.909339 
L 294.496364 271.578415 
L 295.130455 271.630266 
L 295.764545 270.46287 
L 296.398636 275.451867 
L 297.666818 267.851162 
L 298.300909 271.972605 
L 298.935 270.545292 
L 299.569091 272.214049 
L 300.203182 275.432709 
L 301.471364 277.207557 
L 302.105455 273.490413 
L 302.739545 272.955617 
L 303.373636 270.993281 
L 304.007727 275.073324 
L 304.641818 275.315302 
L 305.275909 278.436179 
L 306.544091 273.735075 
L 307.178182 277.416662 
L 307.812273 279.401198 
L 308.446364 272.518474 
L 309.080455 271.268375 
L 309.714545 273.276811 
L 310.348636 278.89887 
L 310.982727 272.428486 
L 311.616818 274.147865 
L 312.250909 273.614796 
L 312.885 273.360382 
L 313.519091 273.749619 
L 314.153182 276.571469 
L 314.787273 276.759298 
L 315.421364 278.985061 
L 316.055455 280.139235 
L 316.689545 275.871609 
L 317.323636 275.604733 
L 317.957727 278.461558 
L 318.591818 275.46551 
L 319.225909 278.541196 
L 319.86 282.836323 
L 320.494091 280.745768 
L 321.128182 276.607615 
L 321.762273 276.298602 
L 322.396364 276.861315 
L 323.030455 276.310437 
L 323.664545 277.932045 
L 324.298636 275.874123 
L 324.932727 276.680004 
L 325.566818 275.882315 
L 326.200909 275.34155 
L 326.835 277.008915 
L 327.469091 277.585164 
L 328.103182 274.529265 
L 328.737273 272.073922 
L 329.371364 266.414652 
L 330.005455 273.472834 
L 330.639545 278.159284 
L 331.273636 276.312291 
L 331.907727 276.910268 
L 333.175909 274.367453 
L 333.81 280.399 
L 334.444091 279.921075 
L 335.078182 274.430076 
L 335.712273 272.668209 
L 336.346364 279.208225 
L 336.980455 281.85386 
L 337.614545 278.28229 
L 338.248636 276.747769 
L 338.882727 278.868672 
L 339.516818 278.151107 
L 340.150909 280.817744 
L 340.785 277.773102 
L 341.419091 279.899291 
L 342.053182 277.170473 
L 342.687273 279.224 
L 343.321364 282.801672 
L 343.955455 280.007254 
L 344.589545 278.222457 
L 345.223636 275.006254 
L 345.857727 277.689877 
L 346.491818 278.555392 
L 347.125909 282.942206 
L 347.76 280.01757 
L 348.394091 279.245012 
L 349.028182 276.588196 
L 349.662273 279.263926 
L 350.296364 280.25311 
L 350.930455 279.383925 
L 351.564545 282.772958 
L 352.198636 283.29177 
L 352.832727 281.787255 
L 353.466818 279.591595 
L 354.100909 279.303973 
L 354.735 283.369687 
L 355.369091 281.58409 
L 356.003182 280.921377 
L 356.637273 286.817954 
L 357.271364 282.904679 
L 357.905455 277.955652 
L 358.539545 276.73946 
L 359.173636 279.287521 
L 359.807727 283.034695 
L 361.075909 278.921371 
L 361.71 278.501929 
L 362.344091 283.00919 
L 362.978182 281.455129 
L 363.612273 282.762953 
L 364.246364 279.866543 
L 364.880455 280.813507 
L 365.514545 282.021875 
L 366.148636 284.457136 
L 366.782727 283.658841 
L 368.050909 278.158038 
L 368.685 279.232053 
L 369.953182 284.774435 
L 370.587273 285.351532 
L 371.221364 282.186686 
L 371.855455 282.287426 
L 372.489545 282.261031 
L 373.123636 280.684072 
L 373.757727 280.674442 
L 374.391818 284.82843 
L 375.025909 283.41498 
L 375.66 281.007585 
L 376.294091 282.311655 
L 376.928182 285.900635 
L 377.562273 281.642946 
L 378.196364 280.669793 
L 378.830455 283.013672 
L 379.464545 281.931393 
L 380.098636 280.435757 
L 380.732727 282.065029 
L 381.366818 281.989881 
L 382.000909 283.290436 
L 383.269091 286.332586 
L 383.903182 286.90383 
L 384.537273 285.848261 
L 385.171364 282.645555 
L 385.805455 282.077518 
L 386.439545 283.492479 
L 387.073636 280.629339 
L 387.707727 284.187863 
L 388.341818 286.521769 
L 388.975909 285.345431 
L 389.61 285.614114 
L 390.244091 286.101368 
L 390.878182 282.350535 
L 391.512273 281.099272 
L 392.146364 283.765206 
L 392.780455 282.495388 
L 393.414545 285.587819 
L 394.048636 287.350701 
L 394.682727 284.8083 
L 395.316818 285.499129 
L 395.950909 284.31305 
L 396.585 284.043629 
L 397.219091 286.69795 
L 397.853182 281.316329 
L 398.487273 287.290256 
L 398.487273 287.290256 
" clip-path="url(#pa344c15601)" style="fill: none; stroke: #1f77b4; stroke-width: 1.5; stroke-linecap: square"/>
   </g>
   <g id="line2d_30">
    <path d="M 73.832727 295.488 
L 74.466818 274.065602 
L 75.100909 270.875874 
L 75.735 270.545193 
L 76.369091 266.250123 
L 77.003182 265.603617 
L 77.637273 265.336884 
L 78.271364 272.718206 
L 79.539545 273.302375 
L 80.173636 275.254449 
L 80.807727 276.599484 
L 81.441818 269.769164 
L 82.075909 268.063188 
L 82.71 268.371169 
L 83.344091 266.9672 
L 83.978182 267.655241 
L 84.612273 267.353373 
L 85.246364 266.728256 
L 85.880455 267.557815 
L 86.514545 269.390815 
L 87.148636 269.412309 
L 87.782727 266.196585 
L 88.416818 266.272932 
L 89.050909 266.119191 
L 89.685 265.054754 
L 90.319091 267.330762 
L 90.953182 267.955531 
L 91.587273 267.49218 
L 92.221364 265.756697 
L 92.855455 265.260244 
L 93.489545 266.225494 
L 94.123636 270.299907 
L 94.757727 262.485169 
L 95.391818 260.000078 
L 96.025909 265.116685 
L 96.66 260.868642 
L 97.294091 259.087496 
L 97.928182 263.116921 
L 98.562273 259.58484 
L 99.196364 265.020454 
L 99.830455 263.648974 
L 101.098636 255.638516 
L 101.732727 253.78309 
L 102.366818 251.05826 
L 103.000909 250.222567 
L 103.635 246.801152 
L 104.269091 248.128296 
L 104.903182 244.584097 
L 105.537273 244.861634 
L 106.171364 242.743547 
L 106.805455 231.596716 
L 107.439545 225.257546 
L 108.073636 220.480542 
L 108.707727 211.244435 
L 109.341818 218.853979 
L 109.975909 224.911111 
L 110.61 207.366778 
L 111.244091 206.338692 
L 111.878182 110.512755 
L 112.512273 53.568 
L 113.146364 146.254459 
L 113.780455 133.872281 
L 115.048636 99.48435 
L 115.682727 96.268249 
L 116.316818 116.06222 
L 116.950909 146.527579 
L 117.585 150.077289 
L 118.219091 152.330339 
L 118.853182 171.660786 
L 119.487273 195.289666 
L 120.121364 197.796873 
L 120.755455 195.231409 
L 121.389545 194.972283 
L 122.023636 195.381336 
L 122.657727 208.943672 
L 123.291818 212.220137 
L 123.925909 208.276967 
L 124.56 219.397652 
L 125.194091 236.550742 
L 125.828182 231.394969 
L 126.462273 235.39809 
L 127.096364 242.434225 
L 127.730455 233.580732 
L 128.364545 247.179453 
L 128.998636 247.165999 
L 129.632727 249.833954 
L 130.266818 254.396577 
L 130.900909 249.995072 
L 132.169091 257.577378 
L 132.803182 262.872945 
L 133.437273 263.783928 
L 134.071364 265.176501 
L 134.705455 269.546392 
L 135.339545 268.772965 
L 135.973636 265.284343 
L 136.607727 269.786884 
L 137.241818 268.608122 
L 137.875909 266.741577 
L 138.51 267.14679 
L 139.778182 264.168753 
L 140.412273 264.035475 
L 141.046364 262.11514 
L 141.680455 261.389245 
L 142.314545 265.855359 
L 142.948636 271.87545 
L 143.582727 272.686312 
L 144.216818 257.454824 
L 144.850909 256.928984 
L 145.485 265.041863 
L 146.119091 265.093015 
L 146.753182 262.718838 
L 147.387273 263.800834 
L 148.021364 263.746867 
L 148.655455 270.166532 
L 149.289545 272.701943 
L 149.923636 268.82479 
L 150.557727 267.699749 
L 151.191818 273.644445 
L 151.825909 268.206289 
L 152.46 264.264169 
L 153.094091 261.283032 
L 153.728182 266.150459 
L 154.362273 266.008015 
L 155.630455 272.224322 
L 156.898636 267.879482 
L 157.532727 266.029636 
L 158.166818 267.747418 
L 158.800909 264.97701 
L 159.435 267.372679 
L 160.069091 264.116093 
L 160.703182 265.827333 
L 161.337273 273.664817 
L 161.971364 275.810926 
L 162.605455 272.73731 
L 163.239545 274.199989 
L 163.873636 274.266529 
L 164.507727 272.637626 
L 165.141818 269.130367 
L 165.775909 266.954445 
L 166.41 270.548695 
L 167.044091 269.63336 
L 167.678182 269.949637 
L 168.312273 275.591214 
L 168.946364 273.888865 
L 170.214545 268.773481 
L 170.848636 268.679251 
L 171.482727 263.320243 
L 172.116818 268.105927 
L 172.750909 268.577247 
L 173.385 268.364723 
L 174.019091 269.583509 
L 174.653182 270.24996 
L 175.287273 265.283064 
L 175.921364 263.563866 
L 177.189545 270.149092 
L 177.823636 272.288522 
L 178.457727 272.623285 
L 179.091818 272.521723 
L 179.725909 272.041024 
L 180.36 274.892434 
L 180.994091 266.970114 
L 181.628182 265.042979 
L 182.262273 266.861674 
L 182.896364 263.831469 
L 183.530455 263.587719 
L 184.164545 269.994365 
L 184.798636 270.911429 
L 185.432727 271.061548 
L 186.066818 271.054772 
L 186.700909 269.268828 
L 187.335 270.895138 
L 187.969091 270.524316 
L 188.603182 267.493814 
L 189.237273 270.583413 
L 189.871364 268.998868 
L 190.505455 264.586603 
L 191.139545 265.919971 
L 191.773636 266.900246 
L 192.407727 262.746074 
L 193.041818 265.42574 
L 193.675909 264.780084 
L 194.31 260.912682 
L 194.944091 258.284375 
L 195.578182 261.16316 
L 196.212273 262.487979 
L 196.846364 258.203403 
L 197.480455 264.825038 
L 198.114545 258.949873 
L 198.748636 261.842264 
L 199.382727 268.781513 
L 200.016818 269.467916 
L 201.285 262.88962 
L 201.919091 263.636766 
L 202.553182 262.032519 
L 203.187273 265.847985 
L 203.821364 264.44964 
L 204.455455 265.923166 
L 205.723636 269.396671 
L 206.357727 273.074664 
L 206.991818 270.028654 
L 207.625909 271.245974 
L 208.26 272.173474 
L 208.894091 271.876344 
L 209.528182 269.121297 
L 210.162273 269.024967 
L 210.796364 267.979323 
L 211.430455 268.414636 
L 212.064545 268.057903 
L 213.332727 269.410576 
L 213.966818 270.015978 
L 214.600909 264.166423 
L 215.235 272.122845 
L 215.869091 276.02333 
L 216.503182 267.029745 
L 217.137273 265.310334 
L 217.771364 261.594854 
L 218.405455 261.771731 
L 219.039545 265.859892 
L 219.673636 265.985294 
L 220.307727 273.95227 
L 220.941818 276.636277 
L 221.575909 270.131335 
L 222.844091 267.653336 
L 224.112273 272.662774 
L 224.746364 268.653424 
L 225.380455 269.919227 
L 226.014545 265.760594 
L 226.648636 269.346334 
L 227.282727 270.923056 
L 227.916818 266.40743 
L 228.550909 271.31165 
L 229.185 267.960103 
L 229.819091 266.053901 
L 230.453182 271.139663 
L 231.087273 268.988079 
L 231.721364 264.903932 
L 232.355455 265.105207 
L 232.989545 264.808279 
L 233.623636 268.570766 
L 234.257727 266.926758 
L 234.891818 262.413136 
L 235.525909 269.744014 
L 236.16 263.201445 
L 236.794091 262.62043 
L 237.428182 268.343029 
L 238.062273 265.038669 
L 239.330455 272.338938 
L 239.964545 269.490423 
L 240.598636 268.255539 
L 241.232727 270.095107 
L 241.866818 267.149225 
L 243.135 267.198785 
L 243.769091 268.503505 
L 244.403182 265.380223 
L 245.037273 263.136852 
L 245.671364 267.890156 
L 246.305455 258.595503 
L 246.939545 258.991655 
L 247.573636 268.806794 
L 248.207727 271.824493 
L 248.841818 269.505889 
L 249.475909 271.304297 
L 250.744091 266.57099 
L 251.378182 270.75011 
L 252.012273 270.738349 
L 252.646364 264.951342 
L 253.280455 267.608235 
L 253.914545 268.19214 
L 254.548636 269.554158 
L 255.182727 271.473538 
L 255.816818 271.732656 
L 256.450909 256.733846 
L 257.085 250.64729 
L 257.719091 266.50904 
L 258.353182 267.727449 
L 258.987273 264.962618 
L 260.255455 270.121356 
L 260.889545 269.99061 
L 261.523636 269.384232 
L 262.157727 264.722379 
L 262.791818 263.989487 
L 263.425909 266.19866 
L 264.06 266.302841 
L 264.694091 268.561288 
L 265.328182 269.296572 
L 265.962273 269.69119 
L 266.596364 267.916774 
L 267.230455 272.221351 
L 267.864545 273.601082 
L 268.498636 265.461652 
L 269.766818 275.087624 
L 270.400909 273.089645 
L 271.035 269.238951 
L 271.669091 267.414604 
L 272.303182 269.882225 
L 272.937273 268.752811 
L 273.571364 269.374988 
L 274.205455 270.556229 
L 274.839545 271.166769 
L 275.473636 274.098659 
L 276.107727 271.387565 
L 276.741818 274.027363 
L 277.375909 271.498285 
L 278.01 271.811911 
L 278.644091 273.960332 
L 279.278182 272.846557 
L 279.912273 271.454953 
L 280.546364 275.103206 
L 281.180455 277.517685 
L 281.814545 275.407653 
L 282.448636 273.954393 
L 283.082727 273.149611 
L 284.350909 270.334239 
L 284.985 271.185946 
L 285.619091 270.663072 
L 286.253182 273.826943 
L 286.887273 273.106745 
L 287.521364 269.223795 
L 288.155455 269.622088 
L 288.789545 276.433651 
L 289.423636 276.10103 
L 290.691818 270.165859 
L 291.325909 271.240031 
L 291.96 274.542964 
L 292.594091 273.146428 
L 293.228182 274.304169 
L 293.862273 279.822642 
L 295.764545 275.577575 
L 296.398636 272.625852 
L 297.032727 276.80396 
L 297.666818 279.719765 
L 298.300909 276.692853 
L 298.935 269.92864 
L 299.569091 269.437966 
L 300.203182 270.129599 
L 300.837273 270.144101 
L 302.105455 266.072839 
L 302.739545 269.369888 
L 303.373636 268.966287 
L 304.007727 272.165172 
L 304.641818 270.54904 
L 305.275909 265.339692 
L 305.91 265.258967 
L 306.544091 267.839463 
L 307.178182 269.762639 
L 307.812273 265.039275 
L 308.446364 269.111271 
L 309.080455 272.152105 
L 309.714545 268.034985 
L 310.348636 269.526111 
L 310.982727 267.100872 
L 311.616818 262.516663 
L 312.250909 262.062284 
L 312.885 267.598373 
L 313.519091 269.389428 
L 314.787273 264.080902 
L 315.421364 260.68508 
L 316.055455 258.131877 
L 316.689545 265.416365 
L 317.323636 267.335955 
L 317.957727 271.540493 
L 318.591818 267.943096 
L 319.225909 260.772572 
L 319.86 266.403341 
L 320.494091 273.908329 
L 321.128182 269.8695 
L 321.762273 272.045189 
L 322.396364 267.612326 
L 323.030455 267.872363 
L 323.664545 273.146431 
L 324.298636 269.681745 
L 324.932727 269.996801 
L 325.566818 271.190624 
L 326.835 263.4436 
L 327.469091 269.123562 
L 328.103182 268.057104 
L 328.737273 261.367616 
L 329.371364 250.094375 
L 330.005455 265.795289 
L 330.639545 270.447414 
L 331.273636 272.439197 
L 331.907727 270.456272 
L 332.541818 271.545182 
L 333.175909 274.729461 
L 333.81 275.170249 
L 334.444091 271.34827 
L 335.078182 270.445902 
L 335.712273 264.102141 
L 336.346364 263.171928 
L 336.980455 268.77844 
L 337.614545 271.985619 
L 338.248636 274.20953 
L 338.882727 277.116884 
L 339.516818 276.720956 
L 340.150909 273.062488 
L 340.785 275.960881 
L 341.419091 277.121894 
L 342.053182 275.309209 
L 342.687273 273.009601 
L 343.321364 274.695893 
L 343.955455 277.788483 
L 344.589545 278.504713 
L 345.223636 276.03999 
L 345.857727 276.306647 
L 346.491818 278.929679 
L 347.125909 278.582222 
L 347.76 277.489873 
L 348.394091 279.413827 
L 349.028182 279.035009 
L 349.662273 280.190694 
L 350.930455 283.630839 
L 351.564545 278.600031 
L 352.198636 283.73776 
L 352.832727 285.031673 
L 353.466818 283.993659 
L 354.100909 282.06696 
L 354.735 278.855554 
L 355.369091 279.292115 
L 356.003182 280.974289 
L 356.637273 278.601879 
L 357.271364 279.04601 
L 357.905455 280.781121 
L 358.539545 280.508603 
L 359.173636 278.980925 
L 359.807727 283.135854 
L 360.441818 284.609705 
L 361.075909 284.27407 
L 361.71 282.172959 
L 362.344091 282.246625 
L 362.978182 281.931714 
L 363.612273 282.801051 
L 364.246364 284.339072 
L 364.880455 280.969026 
L 365.514545 282.663518 
L 366.148636 276.943394 
L 366.782727 279.583193 
L 367.416818 287.573297 
L 368.050909 283.508278 
L 368.685 282.164611 
L 369.319091 281.630655 
L 369.953182 278.797147 
L 370.587273 280.054802 
L 371.221364 284.603143 
L 371.855455 285.149099 
L 372.489545 287.14443 
L 373.123636 285.813007 
L 373.757727 278.110611 
L 374.391818 278.488782 
L 375.025909 282.456116 
L 375.66 284.865925 
L 376.928182 288.036285 
L 377.562273 281.613937 
L 378.196364 279.075289 
L 378.830455 284.358899 
L 379.464545 282.596727 
L 380.098636 282.715969 
L 380.732727 284.299537 
L 381.366818 284.659103 
L 382.000909 286.438729 
L 383.269091 281.798064 
L 383.903182 283.854106 
L 384.537273 284.299663 
L 385.805455 281.945834 
L 386.439545 279.269711 
L 387.073636 280.83057 
L 387.707727 285.632814 
L 388.341818 283.876809 
L 388.975909 280.208587 
L 389.61 282.142865 
L 390.244091 284.780095 
L 390.878182 285.634633 
L 391.512273 287.16913 
L 392.146364 285.881432 
L 394.048636 280.775957 
L 394.682727 279.377013 
L 395.316818 281.046463 
L 395.950909 282.370869 
L 396.585 283.41566 
L 397.219091 282.626318 
L 397.853182 278.939655 
L 398.487273 286.520493 
L 398.487273 286.520493 
" clip-path="url(#pa344c15601)" style="fill: none; stroke: #ff7f0e; stroke-width: 1.5; stroke-linecap: square"/>
   </g>
   <g id="line2d_31">
    <path d="M 73.832727 292.044422 
L 74.466818 265.855497 
L 75.100909 261.116603 
L 75.735 255.425643 
L 76.369091 263.006827 
L 77.003182 266.918388 
L 77.637273 271.708946 
L 78.905455 262.524676 
L 79.539545 260.72287 
L 80.807727 268.770367 
L 81.441818 266.621628 
L 82.075909 262.351399 
L 82.71 264.99477 
L 83.344091 265.363649 
L 83.978182 267.929856 
L 84.612273 265.938638 
L 85.246364 264.545963 
L 85.880455 268.971995 
L 86.514545 269.48599 
L 87.148636 263.400091 
L 87.782727 261.469571 
L 88.416818 268.935342 
L 89.050909 270.366111 
L 89.685 262.677074 
L 90.319091 261.118905 
L 90.953182 257.753528 
L 91.587273 261.087105 
L 92.221364 263.484965 
L 92.855455 267.112607 
L 93.489545 266.924875 
L 94.123636 264.51745 
L 94.757727 264.248533 
L 95.391818 263.76352 
L 96.025909 257.834759 
L 96.66 261.046488 
L 97.294091 268.527656 
L 97.928182 268.189127 
L 98.562273 263.967181 
L 99.196364 261.147869 
L 99.830455 262.354687 
L 100.464545 262.656155 
L 101.098636 262.322783 
L 101.732727 258.68694 
L 102.366818 264.643288 
L 103.000909 257.949767 
L 103.635 256.383238 
L 104.269091 264.08004 
L 104.903182 263.510696 
L 105.537273 265.05063 
L 106.171364 262.333395 
L 106.805455 260.466904 
L 107.439545 259.878129 
L 108.073636 261.402115 
L 108.707727 259.061967 
L 109.341818 254.147413 
L 109.975909 256.27479 
L 110.61 260.413495 
L 111.244091 262.743961 
L 111.878182 267.254932 
L 112.512273 256.581109 
L 113.146364 258.670413 
L 113.780455 255.586117 
L 114.414545 251.609757 
L 115.048636 252.69763 
L 115.682727 257.677712 
L 116.316818 258.333794 
L 116.950909 264.822039 
L 117.585 255.169951 
L 118.219091 257.028802 
L 118.853182 259.477434 
L 120.121364 258.471798 
L 120.755455 255.145397 
L 121.389545 255.717467 
L 122.657727 253.679083 
L 123.291818 253.967755 
L 123.925909 254.616418 
L 124.56 254.127412 
L 125.828182 270.212473 
L 126.462273 264.225348 
L 127.096364 264.103869 
L 127.730455 267.22007 
L 128.364545 258.673826 
L 128.998636 260.094423 
L 129.632727 256.682654 
L 130.900909 268.04312 
L 131.535 262.69388 
L 132.169091 263.752162 
L 132.803182 261.443655 
L 133.437273 259.988423 
L 134.071364 259.817082 
L 134.705455 258.449909 
L 135.339545 265.966427 
L 135.973636 265.494422 
L 136.607727 259.049782 
L 137.241818 263.751385 
L 137.875909 270.895225 
L 138.51 266.307287 
L 139.144091 260.795801 
L 139.778182 258.336018 
L 140.412273 255.129738 
L 141.046364 260.221269 
L 141.680455 258.833094 
L 142.314545 261.338171 
L 143.582727 269.730857 
L 144.216818 265.180365 
L 144.850909 261.768699 
L 145.485 263.739587 
L 146.119091 263.078516 
L 146.753182 264.829848 
L 147.387273 261.511302 
L 148.021364 265.130722 
L 148.655455 263.337147 
L 149.289545 263.623492 
L 149.923636 267.440165 
L 150.557727 268.005441 
L 151.191818 260.971806 
L 151.825909 259.807677 
L 152.46 260.986875 
L 153.094091 257.559373 
L 153.728182 261.104049 
L 154.362273 258.289658 
L 154.996364 258.267407 
L 156.264545 268.189072 
L 156.898636 269.593469 
L 158.166818 253.648849 
L 158.800909 262.857222 
L 159.435 259.303083 
L 160.069091 257.285125 
L 160.703182 264.224433 
L 161.337273 268.869016 
L 161.971364 271.334502 
L 162.605455 266.878348 
L 163.239545 266.049196 
L 163.873636 263.195236 
L 164.507727 257.731056 
L 165.775909 268.438315 
L 166.41 268.270988 
L 167.044091 264.556018 
L 167.678182 264.397174 
L 168.312273 261.789786 
L 168.946364 263.562512 
L 169.580455 261.992911 
L 170.214545 258.24575 
L 170.848636 253.218478 
L 171.482727 242.067855 
L 172.116818 249.505701 
L 172.750909 268.213646 
L 173.385 262.941546 
L 174.019091 255.093468 
L 174.653182 265.348143 
L 175.287273 259.153818 
L 176.555455 260.221405 
L 177.189545 256.417183 
L 177.823636 260.099659 
L 178.457727 266.147594 
L 179.091818 261.889408 
L 179.725909 262.328195 
L 180.994091 266.962883 
L 181.628182 264.426147 
L 182.262273 261.118308 
L 182.896364 263.952884 
L 183.530455 261.857533 
L 184.164545 266.363376 
L 184.798636 269.018145 
L 185.432727 261.755721 
L 186.066818 257.548731 
L 186.700909 264.947442 
L 187.335 264.729765 
L 187.969091 264.632427 
L 188.603182 260.43922 
L 189.871364 258.373442 
L 191.139545 264.878267 
L 191.773636 258.527643 
L 192.407727 255.108642 
L 193.041818 258.55364 
L 193.675909 260.896227 
L 194.31 261.779633 
L 194.944091 262.468937 
L 195.578182 256.776075 
L 196.212273 257.710429 
L 196.846364 262.416588 
L 197.480455 264.940435 
L 198.114545 264.350362 
L 198.748636 266.813508 
L 199.382727 265.29054 
L 200.016818 262.045442 
L 200.650909 262.050342 
L 201.285 258.372846 
L 201.919091 258.811797 
L 202.553182 257.323366 
L 203.187273 265.692064 
L 203.821364 269.79618 
L 204.455455 260.327635 
L 205.089545 262.446235 
L 205.723636 267.3314 
L 206.357727 266.494875 
L 207.625909 257.140905 
L 208.26 261.309367 
L 208.894091 258.276714 
L 209.528182 256.658522 
L 210.162273 264.462123 
L 210.796364 258.005429 
L 211.430455 255.125372 
L 212.064545 265.329808 
L 213.332727 261.309036 
L 213.966818 260.325287 
L 214.600909 258.204725 
L 215.235 260.206761 
L 215.869091 253.985348 
L 216.503182 262.83843 
L 217.137273 260.170409 
L 217.771364 264.981908 
L 218.405455 262.53436 
L 219.039545 258.283928 
L 219.673636 257.107069 
L 220.307727 259.440697 
L 220.941818 262.199126 
L 221.575909 260.123611 
L 222.21 258.590805 
L 222.844091 263.76965 
L 223.478182 258.080915 
L 224.112273 254.112109 
L 224.746364 262.056982 
L 225.380455 257.793138 
L 226.014545 263.364142 
L 226.648636 262.684889 
L 227.282727 260.785146 
L 227.916818 266.30302 
L 228.550909 265.240218 
L 229.185 262.581224 
L 229.819091 261.33879 
L 230.453182 259.446991 
L 231.087273 261.253648 
L 231.721364 261.606887 
L 232.355455 262.461872 
L 232.989545 265.509672 
L 233.623636 258.400271 
L 234.257727 262.891807 
L 234.891818 261.645234 
L 235.525909 263.7529 
L 236.794091 249.711336 
L 237.428182 261.254768 
L 238.062273 262.768151 
L 238.696364 261.454805 
L 239.330455 255.339139 
L 240.598636 265.565027 
L 241.232727 263.239922 
L 241.866818 265.593482 
L 242.500909 264.916025 
L 243.135 262.722797 
L 243.769091 261.207548 
L 244.403182 263.730863 
L 245.037273 260.498921 
L 245.671364 261.676181 
L 246.305455 266.03543 
L 246.939545 265.474456 
L 247.573636 264.503518 
L 248.207727 260.852751 
L 248.841818 258.507982 
L 249.475909 259.441545 
L 250.11 262.108197 
L 250.744091 267.291026 
L 251.378182 267.452662 
L 252.012273 264.612018 
L 252.646364 268.304761 
L 253.280455 263.972787 
L 253.914545 263.397164 
L 254.548636 263.97664 
L 255.182727 266.30135 
L 255.816818 265.532185 
L 256.450909 261.539699 
L 257.085 252.99041 
L 257.719091 258.346429 
L 258.353182 267.300878 
L 258.987273 260.969115 
L 259.621364 258.209977 
L 260.255455 257.867827 
L 260.889545 262.836093 
L 261.523636 262.495103 
L 262.157727 264.175263 
L 262.791818 260.808175 
L 263.425909 262.738896 
L 264.06 263.334079 
L 264.694091 268.361651 
L 265.328182 268.438883 
L 265.962273 269.64431 
L 266.596364 271.517002 
L 267.230455 263.071315 
L 267.864545 265.043311 
L 268.498636 266.567318 
L 269.132727 265.165006 
L 269.766818 265.228536 
L 270.400909 263.699383 
L 271.035 268.684556 
L 271.669091 267.996568 
L 272.303182 264.254365 
L 272.937273 267.811288 
L 273.571364 272.041675 
L 274.205455 270.943864 
L 274.839545 272.975615 
L 275.473636 270.178296 
L 276.107727 265.69654 
L 276.741818 266.015592 
L 277.375909 267.861238 
L 278.01 263.336224 
L 278.644091 264.701736 
L 279.278182 264.856103 
L 279.912273 267.069347 
L 280.546364 268.038 
L 281.180455 268.199076 
L 281.814545 267.885443 
L 283.082727 268.408535 
L 283.716818 268.818226 
L 284.350909 271.70247 
L 284.985 269.733184 
L 285.619091 270.732007 
L 286.253182 272.542136 
L 286.887273 269.844888 
L 287.521364 271.181262 
L 288.155455 269.378374 
L 288.789545 266.659359 
L 289.423636 266.425571 
L 290.057727 263.83571 
L 290.691818 265.802716 
L 291.325909 269.390852 
L 291.96 269.128776 
L 292.594091 270.601268 
L 293.228182 269.913381 
L 293.862273 272.051299 
L 294.496364 271.505595 
L 295.130455 262.356544 
L 295.764545 263.146396 
L 296.398636 265.496372 
L 297.032727 266.84913 
L 297.666818 270.575206 
L 298.300909 270.986958 
L 298.935 267.368501 
L 299.569091 270.188809 
L 300.203182 274.777157 
L 300.837273 274.714811 
L 301.471364 272.505391 
L 302.105455 272.542225 
L 302.739545 276.617622 
L 303.373636 276.026507 
L 304.007727 271.444281 
L 304.641818 270.321405 
L 305.275909 273.479814 
L 305.91 266.804734 
L 306.544091 270.02311 
L 307.178182 274.533293 
L 307.812273 270.44672 
L 308.446364 267.940595 
L 309.714545 268.039529 
L 310.348636 274.154197 
L 310.982727 276.584391 
L 311.616818 270.926063 
L 312.250909 272.029148 
L 312.885 275.466627 
L 313.519091 272.955502 
L 314.153182 277.770653 
L 314.787273 275.045892 
L 315.421364 270.13793 
L 316.055455 276.127601 
L 316.689545 275.200809 
L 317.323636 272.103916 
L 317.957727 273.605135 
L 318.591818 274.040293 
L 319.225909 270.313579 
L 319.86 267.534972 
L 320.494091 268.312977 
L 321.128182 272.41216 
L 321.762273 270.858561 
L 322.396364 266.093563 
L 323.030455 268.408644 
L 323.664545 276.805059 
L 324.298636 276.521024 
L 324.932727 272.916462 
L 325.566818 272.485383 
L 326.200909 275.077662 
L 326.835 276.823649 
L 327.469091 273.157241 
L 328.103182 274.915499 
L 328.737273 263.03321 
L 329.371364 244.972356 
L 330.005455 267.312681 
L 330.639545 275.805604 
L 331.907727 267.970554 
L 332.541818 269.107368 
L 333.175909 277.516709 
L 333.81 273.933582 
L 334.444091 273.847523 
L 335.078182 272.828063 
L 335.712273 278.206817 
L 336.346364 277.852486 
L 336.980455 273.322034 
L 337.614545 277.831856 
L 338.248636 277.917437 
L 338.882727 277.799417 
L 339.516818 273.473345 
L 340.150909 275.220664 
L 340.785 276.522967 
L 341.419091 278.273976 
L 342.053182 275.022333 
L 342.687273 272.77747 
L 343.321364 278.46298 
L 344.589545 282.272009 
L 345.223636 279.798379 
L 345.857727 276.473149 
L 346.491818 272.483232 
L 347.125909 277.853575 
L 347.76 282.023324 
L 348.394091 276.899373 
L 349.028182 277.191412 
L 349.662273 275.92694 
L 350.296364 276.537163 
L 350.930455 279.785297 
L 351.564545 282.036687 
L 352.198636 281.404704 
L 352.832727 283.328764 
L 353.466818 280.587713 
L 354.100909 279.950272 
L 354.735 283.371804 
L 355.369091 283.317094 
L 356.003182 277.823074 
L 356.637273 277.426965 
L 357.271364 275.599784 
L 357.905455 277.367764 
L 358.539545 279.673233 
L 359.173636 281.282629 
L 359.807727 285.529076 
L 360.441818 284.043612 
L 361.075909 279.359026 
L 361.71 276.839726 
L 362.344091 277.341051 
L 362.978182 280.909439 
L 363.612273 279.673342 
L 364.246364 282.5242 
L 364.880455 282.488571 
L 366.148636 278.902655 
L 366.782727 281.871341 
L 367.416818 283.148011 
L 368.050909 284.716664 
L 369.319091 278.457124 
L 369.953182 278.612745 
L 370.587273 282.34075 
L 371.221364 283.737049 
L 371.855455 282.07176 
L 372.489545 278.760487 
L 373.123636 276.812903 
L 373.757727 281.093036 
L 374.391818 282.292818 
L 375.025909 282.768991 
L 375.66 280.931344 
L 376.294091 286.495937 
L 376.928182 282.682839 
L 377.562273 281.136515 
L 378.196364 282.438978 
L 379.464545 282.735594 
L 380.098636 281.442117 
L 380.732727 280.82069 
L 381.366818 283.255251 
L 382.000909 281.443915 
L 382.635 285.468543 
L 383.269091 282.535401 
L 383.903182 283.144947 
L 384.537273 285.32483 
L 385.171364 281.78939 
L 386.439545 284.969841 
L 387.073636 281.664962 
L 387.707727 281.064345 
L 388.341818 283.893703 
L 388.975909 281.319414 
L 389.61 281.917845 
L 390.244091 279.601979 
L 390.878182 280.836672 
L 391.512273 282.473613 
L 392.146364 279.654214 
L 392.780455 280.518269 
L 393.414545 280.795827 
L 394.048636 277.224295 
L 394.682727 278.352938 
L 395.316818 277.882829 
L 395.950909 275.344116 
L 396.585 273.6297 
L 397.219091 273.029029 
L 397.853182 275.041604 
L 398.487273 290.310661 
L 398.487273 290.310661 
" clip-path="url(#pa344c15601)" style="fill: none; stroke: #2ca02c; stroke-width: 1.5; stroke-linecap: square"/>
   </g>
   <g id="patch_3">
    <path d="M 57.6 307.584 
L 57.6 41.472 
" style="fill: none; stroke: #000000; stroke-width: 0.8; stroke-linejoin: miter; stroke-linecap: square"/>
   </g>
   <g id="patch_4">
    <path d="M 414.72 307.584 
L 414.72 41.472 
" style="fill: none; stroke: #000000; stroke-width: 0.8; stroke-linejoin: miter; stroke-linecap: square"/>
   </g>
   <g id="patch_5">
    <path d="M 57.6 307.584 
L 414.72 307.584 
" style="fill: none; stroke: #000000; stroke-width: 0.8; stroke-linejoin: miter; stroke-linecap: square"/>
   </g>
   <g id="patch_6">
    <path d="M 57.6 41.472 
L 414.72 41.472 
" style="fill: none; stroke: #000000; stroke-width: 0.8; stroke-linejoin: miter; stroke-linecap: square"/>
   </g>
   <g id="text_17">
    <!-- Accelerometer Power Spectral Density -->
    <g transform="translate(121.022813 35.472) scale(0.12 -0.12)">
     <defs>
      <path id="DejaVuSans-41" d="M 2188 4044 
L 1331 1722 
L 3047 1722 
L 2188 4044 
z
M 1831 4666 
L 2547 4666 
L 4325 0 
L 3669 0 
L 3244 1197 
L 1141 1197 
L 716 0 
L 50 0 
L 1831 4666 
z
" transform="scale(0.015625)"/>
      <path id="DejaVuSans-6f" d="M 1959 3097 
Q 1497 3097 1228 2736 
Q 959 2375 959 1747 
Q 959 1119 1226 758 
Q 1494 397 1959 397 
Q 2419 397 2687 759 
Q 2956 1122 2956 1747 
Q 2956 2369 2687 2733 
Q 2419 3097 1959 3097 
z
M 1959 3584 
Q 2709 3584 3137 3096 
Q 3566 2609 3566 1747 
Q 3566 888 3137 398 
Q 2709 -91 1959 -91 
Q 1206 -91 779 398 
Q 353 888 353 1747 
Q 353 2609 779 3096 
Q 1206 3584 1959 3584 
z
" transform="scale(0.015625)"/>
      <path id="DejaVuSans-6d" d="M 3328 2828 
Q 3544 3216 3844 3400 
Q 4144 3584 4550 3584 
Q 5097 3584 5394 3201 
Q 5691 2819 5691 2113 
L 5691 0 
L 5113 0 
L 5113 2094 
Q 5113 2597 4934 2840 
Q 4756 3084 4391 3084 
Q 3944 3084 3684 2787 
Q 3425 2491 3425 1978 
L 3425 0 
L 2847 0 
L 2847 2094 
Q 2847 2600 2669 2842 
Q 2491 3084 2119 3084 
Q 1678 3084 1418 2786 
Q 1159 2488 1159 1978 
L 1159 0 
L 581 0 
L 581 3500 
L 1159 3500 
L 1159 2956 
Q 1356 3278 1631 3431 
Q 1906 3584 2284 3584 
Q 2666 3584 2933 3390 
Q 3200 3197 3328 2828 
z
" transform="scale(0.015625)"/>
      <path id="DejaVuSans-50" d="M 1259 4147 
L 1259 2394 
L 2053 2394 
Q 2494 2394 2734 2622 
Q 2975 2850 2975 3272 
Q 2975 3691 2734 3919 
Q 2494 4147 2053 4147 
L 1259 4147 
z
M 628 4666 
L 2053 4666 
Q 2838 4666 3239 4311 
Q 3641 3956 3641 3272 
Q 3641 2581 3239 2228 
Q 2838 1875 2053 1875 
L 1259 1875 
L 1259 0 
L 628 0 
L 628 4666 
z
" transform="scale(0.015625)"/>
      <path id="DejaVuSans-77" d="M 269 3500 
L 844 3500 
L 1563 769 
L 2278 3500 
L 2956 3500 
L 3675 769 
L 4391 3500 
L 4966 3500 
L 4050 0 
L 3372 0 
L 2619 2869 
L 1863 0 
L 1184 0 
L 269 3500 
z
" transform="scale(0.015625)"/>
     </defs>
     <use xlink:href="#DejaVuSans-41"/>
     <use xlink:href="#DejaVuSans-63" x="66.658203"/>
     <use xlink:href="#DejaVuSans-63" x="121.638672"/>
     <use xlink:href="#DejaVuSans-65" x="176.619141"/>
     <use xlink:href="#DejaVuSans-6c" x="238.142578"/>
     <use xlink:href="#DejaVuSans-65" x="265.925781"/>
     <use xlink:href="#DejaVuSans-72" x="327.449219"/>
     <use xlink:href="#DejaVuSans-6f" x="366.3125"/>
     <use xlink:href="#DejaVuSans-6d" x="427.494141"/>
     <use xlink:href="#DejaVuSans-65" x="524.90625"/>
     <use xlink:href="#DejaVuSans-74" x="586.429688"/>
     <use xlink:href="#DejaVuSans-65" x="625.638672"/>
     <use xlink:href="#DejaVuSans-72" x="687.162109"/>
     <use xlink:href="#DejaVuSans-20" x="728.275391"/>
     <use xlink:href="#DejaVuSans-50" x="760.0625"/>
     <use xlink:href="#DejaVuSans-6f" x="816.740234"/>
     <use xlink:href="#DejaVuSans-77" x="877.921875"/>
     <use xlink:href="#DejaVuSans-65" x="959.708984"/>
     <use xlink:href="#DejaVuSans-72" x="1021.232422"/>
     <use xlink:href="#DejaVuSans-20" x="1062.345703"/>
     <use xlink:href="#DejaVuSans-53" x="1094.132812"/>
     <use xlink:href="#DejaVuSans-70" x="1157.609375"/>
     <use xlink:href="#DejaVuSans-65" x="1221.085938"/>
     <use xlink:href="#DejaVuSans-63" x="1282.609375"/>
     <use xlink:href="#DejaVuSans-74" x="1337.589844"/>
     <use xlink:href="#DejaVuSans-72" x="1376.798828"/>
     <use xlink:href="#DejaVuSans-61" x="1417.912109"/>
     <use xlink:href="#DejaVuSans-6c" x="1479.191406"/>
     <use xlink:href="#DejaVuSans-20" x="1506.974609"/>
     <use xlink:href="#DejaVuSans-44" x="1538.761719"/>
     <use xlink:href="#DejaVuSans-65" x="1615.763672"/>
     <use xlink:href="#DejaVuSans-6e" x="1677.287109"/>
     <use xlink:href="#DejaVuSans-73" x="1740.666016"/>
     <use xlink:href="#DejaVuSans-69" x="1792.765625"/>
     <use xlink:href="#DejaVuSans-74" x="1820.548828"/>
     <use xlink:href="#DejaVuSans-79" x="1859.757812"/>
    </g>
   </g>
   <g id="legend_1">
    <g id="patch_7">
     <path d="M 363.673125 93.506375 
L 407.72 93.506375 
Q 409.72 93.506375 409.72 91.506375 
L 409.72 48.472 
Q 409.72 46.472 407.72 46.472 
L 363.673125 46.472 
Q 361.673125 46.472 361.673125 48.472 
L 361.673125 91.506375 
Q 361.673125 93.506375 363.673125 93.506375 
z
" style="fill: #ffffff; opacity: 0.8; stroke: #cccccc; stroke-linejoin: miter"/>
    </g>
    <g id="line2d_32">
     <path d="M 365.673125 54.570438 
L 375.673125 54.570438 
L 385.673125 54.570438 
" style="fill: none; stroke: #1f77b4; stroke-width: 1.5; stroke-linecap: square"/>
    </g>
    <g id="text_18">
     <!-- ax -->
     <g transform="translate(393.673125 58.070438) scale(0.1 -0.1)">
      <defs>
       <path id="DejaVuSans-78" d="M 3513 3500 
L 2247 1797 
L 3578 0 
L 2900 0 
L 1881 1375 
L 863 0 
L 184 0 
L 1544 1831 
L 300 3500 
L 978 3500 
L 1906 2253 
L 2834 3500 
L 3513 3500 
z
" transform="scale(0.015625)"/>
      </defs>
      <use xlink:href="#DejaVuSans-61"/>
      <use xlink:href="#DejaVuSans-78" x="61.279297"/>
     </g>
    </g>
    <g id="line2d_33">
     <path d="M 365.673125 69.248563 
L 375.673125 69.248563 
L 385.673125 69.248563 
" style="fill: none; stroke: #ff7f0e; stroke-width: 1.5; stroke-linecap: square"/>
    </g>
    <g id="text_19">
     <!-- ay -->
     <g transform="translate(393.673125 72.748563) scale(0.1 -0.1)">
      <use xlink:href="#DejaVuSans-61"/>
      <use xlink:href="#DejaVuSans-79" x="61.279297"/>
     </g>
    </g>
    <g id="line2d_34">
     <path d="M 365.673125 83.926688 
L 375.673125 83.926688 
L 385.673125 83.926688 
" style="fill: none; stroke: #2ca02c; stroke-width: 1.5; stroke-linecap: square"/>
    </g>
    <g id="text_20">
     <!-- az -->
     <g transform="translate(393.673125 87.426688) scale(0.1 -0.1)">
      <use xlink:href="#DejaVuSans-61"/>
      <use xlink:href="#DejaVuSans-7a" x="61.279297"/>
     </g>
    </g>
   </g>
  </g>
 </g>
 <defs>
  <clipPath id="pa344c15601">
   <rect x="57.6" y="41.472" width="357.12" height="266.112"/>
  </clipPath>
 </defs>
</svg>
