<?xml version="1.0" encoding="utf-8" standalone="no"?>
<!DOCTYPE svg PUBLIC "-//W3C//DTD SVG 1.1//EN"
  "http://www.w3.org/Graphics/SVG/1.1/DTD/svg11.dtd">
<svg xmlns:xlink="http://www.w3.org/1999/xlink" width="460.8pt" height="345.6pt" viewBox="0 0 460.8 345.6" xmlns="http://www.w3.org/2000/svg" version="1.1">
 <metadata>
  <rdf:RDF xmlns:dc="http://purl.org/dc/elements/1.1/" xmlns:cc="http://creativecommons.org/ns#" xmlns:rdf="http://www.w3.org/1999/02/22-rdf-syntax-ns#">
   <cc:Work>
    <dc:type rdf:resource="http://purl.org/dc/dcmitype/StillImage"/>
    <dc:date>2024-05-09T20:47:31.745034</dc:date>
    <dc:format>image/svg+xml</dc:format>
    <dc:creator>
     <cc:Agent>
      <dc:title>Matplotlib v3.8.3, https://matplotlib.org/</dc:title>
     </cc:Agent>
    </dc:creator>
   </cc:Work>
  </rdf:RDF>
 </metadata>
 <defs>
  <style type="text/css">*{stroke-linejoin: round; stroke-linecap: butt}</style>
 </defs>
 <g id="figure_1">
  <g id="patch_1">
   <path d="M 0 345.6 
L 460.8 345.6 
L 460.8 0 
L 0 0 
z
" style="fill: #ffffff"/>
  </g>
  <g id="axes_1">
   <g id="patch_2">
    <path d="M 57.6 307.584 
L 414.72 307.584 
L 414.72 41.472 
L 57.6 41.472 
z
" style="fill: #ffffff"/>
   </g>
   <g id="matplotlib.axis_1">
    <g id="xtick_1">
     <g id="line2d_1">
      <path d="M 73.832727 307.584 
L 73.832727 41.472 
" clip-path="url(#p348efeac38)" style="fill: none; stroke: #b0b0b0; stroke-width: 0.8; stroke-linecap: square"/>
     </g>
     <g id="line2d_2">
      <defs>
       <path id="mf4d0af73eb" d="M 0 0 
L 0 3.5 
" style="stroke: #000000; stroke-width: 0.8"/>
      </defs>
      <g>
       <use xlink:href="#mf4d0af73eb" x="73.832727" y="307.584" style="stroke: #000000; stroke-width: 0.8"/>
      </g>
     </g>
     <g id="text_1">
      <!-- 0 -->
      <g transform="translate(70.651477 322.182437) scale(0.1 -0.1)">
       <defs>
        <path id="DejaVuSans-30" d="M 2034 4250 
Q 1547 4250 1301 3770 
Q 1056 3291 1056 2328 
Q 1056 1369 1301 889 
Q 1547 409 2034 409 
Q 2525 409 2770 889 
Q 3016 1369 3016 2328 
Q 3016 3291 2770 3770 
Q 2525 4250 2034 4250 
z
M 2034 4750 
Q 2819 4750 3233 4129 
Q 3647 3509 3647 2328 
Q 3647 1150 3233 529 
Q 2819 -91 2034 -91 
Q 1250 -91 836 529 
Q 422 1150 422 2328 
Q 422 3509 836 4129 
Q 1250 4750 2034 4750 
z
" transform="scale(0.015625)"/>
       </defs>
       <use xlink:href="#DejaVuSans-30"/>
      </g>
     </g>
    </g>
    <g id="xtick_2">
     <g id="line2d_3">
      <path d="M 138.763636 307.584 
L 138.763636 41.472 
" clip-path="url(#p348efeac38)" style="fill: none; stroke: #b0b0b0; stroke-width: 0.8; stroke-linecap: square"/>
     </g>
     <g id="line2d_4">
      <g>
       <use xlink:href="#mf4d0af73eb" x="138.763636" y="307.584" style="stroke: #000000; stroke-width: 0.8"/>
      </g>
     </g>
     <g id="text_2">
      <!-- 20 -->
      <g transform="translate(132.401136 322.182437) scale(0.1 -0.1)">
       <defs>
        <path id="DejaVuSans-32" d="M 1228 531 
L 3431 531 
L 3431 0 
L 469 0 
L 469 531 
Q 828 903 1448 1529 
Q 2069 2156 2228 2338 
Q 2531 2678 2651 2914 
Q 2772 3150 2772 3378 
Q 2772 3750 2511 3984 
Q 2250 4219 1831 4219 
Q 1534 4219 1204 4116 
Q 875 4013 500 3803 
L 500 4441 
Q 881 4594 1212 4672 
Q 1544 4750 1819 4750 
Q 2544 4750 2975 4387 
Q 3406 4025 3406 3419 
Q 3406 3131 3298 2873 
Q 3191 2616 2906 2266 
Q 2828 2175 2409 1742 
Q 1991 1309 1228 531 
z
" transform="scale(0.015625)"/>
       </defs>
       <use xlink:href="#DejaVuSans-32"/>
       <use xlink:href="#DejaVuSans-30" x="63.623047"/>
      </g>
     </g>
    </g>
    <g id="xtick_3">
     <g id="line2d_5">
      <path d="M 203.694545 307.584 
L 203.694545 41.472 
" clip-path="url(#p348efeac38)" style="fill: none; stroke: #b0b0b0; stroke-width: 0.8; stroke-linecap: square"/>
     </g>
     <g id="line2d_6">
      <g>
       <use xlink:href="#mf4d0af73eb" x="203.694545" y="307.584" style="stroke: #000000; stroke-width: 0.8"/>
      </g>
     </g>
     <g id="text_3">
      <!-- 40 -->
      <g transform="translate(197.332045 322.182437) scale(0.1 -0.1)">
       <defs>
        <path id="DejaVuSans-34" d="M 2419 4116 
L 825 1625 
L 2419 1625 
L 2419 4116 
z
M 2253 4666 
L 3047 4666 
L 3047 1625 
L 3713 1625 
L 3713 1100 
L 3047 1100 
L 3047 0 
L 2419 0 
L 2419 1100 
L 313 1100 
L 313 1709 
L 2253 4666 
z
" transform="scale(0.015625)"/>
       </defs>
       <use xlink:href="#DejaVuSans-34"/>
       <use xlink:href="#DejaVuSans-30" x="63.623047"/>
      </g>
     </g>
    </g>
    <g id="xtick_4">
     <g id="line2d_7">
      <path d="M 268.625455 307.584 
L 268.625455 41.472 
" clip-path="url(#p348efeac38)" style="fill: none; stroke: #b0b0b0; stroke-width: 0.8; stroke-linecap: square"/>
     </g>
     <g id="line2d_8">
      <g>
       <use xlink:href="#mf4d0af73eb" x="268.625455" y="307.584" style="stroke: #000000; stroke-width: 0.8"/>
      </g>
     </g>
     <g id="text_4">
      <!-- 60 -->
      <g transform="translate(262.262955 322.182437) scale(0.1 -0.1)">
       <defs>
        <path id="DejaVuSans-36" d="M 2113 2584 
Q 1688 2584 1439 2293 
Q 1191 2003 1191 1497 
Q 1191 994 1439 701 
Q 1688 409 2113 409 
Q 2538 409 2786 701 
Q 3034 994 3034 1497 
Q 3034 2003 2786 2293 
Q 2538 2584 2113 2584 
z
M 3366 4563 
L 3366 3988 
Q 3128 4100 2886 4159 
Q 2644 4219 2406 4219 
Q 1781 4219 1451 3797 
Q 1122 3375 1075 2522 
Q 1259 2794 1537 2939 
Q 1816 3084 2150 3084 
Q 2853 3084 3261 2657 
Q 3669 2231 3669 1497 
Q 3669 778 3244 343 
Q 2819 -91 2113 -91 
Q 1303 -91 875 529 
Q 447 1150 447 2328 
Q 447 3434 972 4092 
Q 1497 4750 2381 4750 
Q 2619 4750 2861 4703 
Q 3103 4656 3366 4563 
z
" transform="scale(0.015625)"/>
       </defs>
       <use xlink:href="#DejaVuSans-36"/>
       <use xlink:href="#DejaVuSans-30" x="63.623047"/>
      </g>
     </g>
    </g>
    <g id="xtick_5">
     <g id="line2d_9">
      <path d="M 333.556364 307.584 
L 333.556364 41.472 
" clip-path="url(#p348efeac38)" style="fill: none; stroke: #b0b0b0; stroke-width: 0.8; stroke-linecap: square"/>
     </g>
     <g id="line2d_10">
      <g>
       <use xlink:href="#mf4d0af73eb" x="333.556364" y="307.584" style="stroke: #000000; stroke-width: 0.8"/>
      </g>
     </g>
     <g id="text_5">
      <!-- 80 -->
      <g transform="translate(327.193864 322.182437) scale(0.1 -0.1)">
       <defs>
        <path id="DejaVuSans-38" d="M 2034 2216 
Q 1584 2216 1326 1975 
Q 1069 1734 1069 1313 
Q 1069 891 1326 650 
Q 1584 409 2034 409 
Q 2484 409 2743 651 
Q 3003 894 3003 1313 
Q 3003 1734 2745 1975 
Q 2488 2216 2034 2216 
z
M 1403 2484 
Q 997 2584 770 2862 
Q 544 3141 544 3541 
Q 544 4100 942 4425 
Q 1341 4750 2034 4750 
Q 2731 4750 3128 4425 
Q 3525 4100 3525 3541 
Q 3525 3141 3298 2862 
Q 3072 2584 2669 2484 
Q 3125 2378 3379 2068 
Q 3634 1759 3634 1313 
Q 3634 634 3220 271 
Q 2806 -91 2034 -91 
Q 1263 -91 848 271 
Q 434 634 434 1313 
Q 434 1759 690 2068 
Q 947 2378 1403 2484 
z
M 1172 3481 
Q 1172 3119 1398 2916 
Q 1625 2713 2034 2713 
Q 2441 2713 2670 2916 
Q 2900 3119 2900 3481 
Q 2900 3844 2670 4047 
Q 2441 4250 2034 4250 
Q 1625 4250 1398 4047 
Q 1172 3844 1172 3481 
z
" transform="scale(0.015625)"/>
       </defs>
       <use xlink:href="#DejaVuSans-38"/>
       <use xlink:href="#DejaVuSans-30" x="63.623047"/>
      </g>
     </g>
    </g>
    <g id="xtick_6">
     <g id="line2d_11">
      <path d="M 398.487273 307.584 
L 398.487273 41.472 
" clip-path="url(#p348efeac38)" style="fill: none; stroke: #b0b0b0; stroke-width: 0.8; stroke-linecap: square"/>
     </g>
     <g id="line2d_12">
      <g>
       <use xlink:href="#mf4d0af73eb" x="398.487273" y="307.584" style="stroke: #000000; stroke-width: 0.8"/>
      </g>
     </g>
     <g id="text_6">
      <!-- 100 -->
      <g transform="translate(388.943523 322.182437) scale(0.1 -0.1)">
       <defs>
        <path id="DejaVuSans-31" d="M 794 531 
L 1825 531 
L 1825 4091 
L 703 3866 
L 703 4441 
L 1819 4666 
L 2450 4666 
L 2450 531 
L 3481 531 
L 3481 0 
L 794 0 
L 794 531 
z
" transform="scale(0.015625)"/>
       </defs>
       <use xlink:href="#DejaVuSans-31"/>
       <use xlink:href="#DejaVuSans-30" x="63.623047"/>
       <use xlink:href="#DejaVuSans-30" x="127.246094"/>
      </g>
     </g>
    </g>
    <g id="text_7">
     <!-- Frequency [Hz] -->
     <g transform="translate(198.455312 335.860562) scale(0.1 -0.1)">
      <defs>
       <path id="DejaVuSans-46" d="M 628 4666 
L 3309 4666 
L 3309 4134 
L 1259 4134 
L 1259 2759 
L 3109 2759 
L 3109 2228 
L 1259 2228 
L 1259 0 
L 628 0 
L 628 4666 
z
" transform="scale(0.015625)"/>
       <path id="DejaVuSans-72" d="M 2631 2963 
Q 2534 3019 2420 3045 
Q 2306 3072 2169 3072 
Q 1681 3072 1420 2755 
Q 1159 2438 1159 1844 
L 1159 0 
L 581 0 
L 581 3500 
L 1159 3500 
L 1159 2956 
Q 1341 3275 1631 3429 
Q 1922 3584 2338 3584 
Q 2397 3584 2469 3576 
Q 2541 3569 2628 3553 
L 2631 2963 
z
" transform="scale(0.015625)"/>
       <path id="DejaVuSans-65" d="M 3597 1894 
L 3597 1613 
L 953 1613 
Q 991 1019 1311 708 
Q 1631 397 2203 397 
Q 2534 397 2845 478 
Q 3156 559 3463 722 
L 3463 178 
Q 3153 47 2828 -22 
Q 2503 -91 2169 -91 
Q 1331 -91 842 396 
Q 353 884 353 1716 
Q 353 2575 817 3079 
Q 1281 3584 2069 3584 
Q 2775 3584 3186 3129 
Q 3597 2675 3597 1894 
z
M 3022 2063 
Q 3016 2534 2758 2815 
Q 2500 3097 2075 3097 
Q 1594 3097 1305 2825 
Q 1016 2553 972 2059 
L 3022 2063 
z
" transform="scale(0.015625)"/>
       <path id="DejaVuSans-71" d="M 947 1747 
Q 947 1113 1208 752 
Q 1469 391 1925 391 
Q 2381 391 2643 752 
Q 2906 1113 2906 1747 
Q 2906 2381 2643 2742 
Q 2381 3103 1925 3103 
Q 1469 3103 1208 2742 
Q 947 2381 947 1747 
z
M 2906 525 
Q 2725 213 2448 61 
Q 2172 -91 1784 -91 
Q 1150 -91 751 415 
Q 353 922 353 1747 
Q 353 2572 751 3078 
Q 1150 3584 1784 3584 
Q 2172 3584 2448 3432 
Q 2725 3281 2906 2969 
L 2906 3500 
L 3481 3500 
L 3481 -1331 
L 2906 -1331 
L 2906 525 
z
" transform="scale(0.015625)"/>
       <path id="DejaVuSans-75" d="M 544 1381 
L 544 3500 
L 1119 3500 
L 1119 1403 
Q 1119 906 1312 657 
Q 1506 409 1894 409 
Q 2359 409 2629 706 
Q 2900 1003 2900 1516 
L 2900 3500 
L 3475 3500 
L 3475 0 
L 2900 0 
L 2900 538 
Q 2691 219 2414 64 
Q 2138 -91 1772 -91 
Q 1169 -91 856 284 
Q 544 659 544 1381 
z
M 1991 3584 
L 1991 3584 
z
" transform="scale(0.015625)"/>
       <path id="DejaVuSans-6e" d="M 3513 2113 
L 3513 0 
L 2938 0 
L 2938 2094 
Q 2938 2591 2744 2837 
Q 2550 3084 2163 3084 
Q 1697 3084 1428 2787 
Q 1159 2491 1159 1978 
L 1159 0 
L 581 0 
L 581 3500 
L 1159 3500 
L 1159 2956 
Q 1366 3272 1645 3428 
Q 1925 3584 2291 3584 
Q 2894 3584 3203 3211 
Q 3513 2838 3513 2113 
z
" transform="scale(0.015625)"/>
       <path id="DejaVuSans-63" d="M 3122 3366 
L 3122 2828 
Q 2878 2963 2633 3030 
Q 2388 3097 2138 3097 
Q 1578 3097 1268 2742 
Q 959 2388 959 1747 
Q 959 1106 1268 751 
Q 1578 397 2138 397 
Q 2388 397 2633 464 
Q 2878 531 3122 666 
L 3122 134 
Q 2881 22 2623 -34 
Q 2366 -91 2075 -91 
Q 1284 -91 818 406 
Q 353 903 353 1747 
Q 353 2603 823 3093 
Q 1294 3584 2113 3584 
Q 2378 3584 2631 3529 
Q 2884 3475 3122 3366 
z
" transform="scale(0.015625)"/>
       <path id="DejaVuSans-79" d="M 2059 -325 
Q 1816 -950 1584 -1140 
Q 1353 -1331 966 -1331 
L 506 -1331 
L 506 -850 
L 844 -850 
Q 1081 -850 1212 -737 
Q 1344 -625 1503 -206 
L 1606 56 
L 191 3500 
L 800 3500 
L 1894 763 
L 2988 3500 
L 3597 3500 
L 2059 -325 
z
" transform="scale(0.015625)"/>
       <path id="DejaVuSans-20" transform="scale(0.015625)"/>
       <path id="DejaVuSans-5b" d="M 550 4863 
L 1875 4863 
L 1875 4416 
L 1125 4416 
L 1125 -397 
L 1875 -397 
L 1875 -844 
L 550 -844 
L 550 4863 
z
" transform="scale(0.015625)"/>
       <path id="DejaVuSans-48" d="M 628 4666 
L 1259 4666 
L 1259 2753 
L 3553 2753 
L 3553 4666 
L 4184 4666 
L 4184 0 
L 3553 0 
L 3553 2222 
L 1259 2222 
L 1259 0 
L 628 0 
L 628 4666 
z
" transform="scale(0.015625)"/>
       <path id="DejaVuSans-7a" d="M 353 3500 
L 3084 3500 
L 3084 2975 
L 922 459 
L 3084 459 
L 3084 0 
L 275 0 
L 275 525 
L 2438 3041 
L 353 3041 
L 353 3500 
z
" transform="scale(0.015625)"/>
       <path id="DejaVuSans-5d" d="M 1947 4863 
L 1947 -844 
L 622 -844 
L 622 -397 
L 1369 -397 
L 1369 4416 
L 622 4416 
L 622 4863 
L 1947 4863 
z
" transform="scale(0.015625)"/>
      </defs>
      <use xlink:href="#DejaVuSans-46"/>
      <use xlink:href="#DejaVuSans-72" x="50.269531"/>
      <use xlink:href="#DejaVuSans-65" x="89.132812"/>
      <use xlink:href="#DejaVuSans-71" x="150.65625"/>
      <use xlink:href="#DejaVuSans-75" x="214.132812"/>
      <use xlink:href="#DejaVuSans-65" x="277.511719"/>
      <use xlink:href="#DejaVuSans-6e" x="339.035156"/>
      <use xlink:href="#DejaVuSans-63" x="402.414062"/>
      <use xlink:href="#DejaVuSans-79" x="457.394531"/>
      <use xlink:href="#DejaVuSans-20" x="516.574219"/>
      <use xlink:href="#DejaVuSans-5b" x="548.361328"/>
      <use xlink:href="#DejaVuSans-48" x="587.375"/>
      <use xlink:href="#DejaVuSans-7a" x="662.570312"/>
      <use xlink:href="#DejaVuSans-5d" x="715.060547"/>
     </g>
    </g>
   </g>
   <g id="matplotlib.axis_2">
    <g id="ytick_1">
     <g id="line2d_13">
      <path d="M 57.6 295.902172 
L 414.72 295.902172 
" clip-path="url(#p348efeac38)" style="fill: none; stroke: #b0b0b0; stroke-width: 0.8; stroke-linecap: square"/>
     </g>
     <g id="line2d_14">
      <defs>
       <path id="m6664ccb815" d="M 0 0 
L -3.5 0 
" style="stroke: #000000; stroke-width: 0.8"/>
      </defs>
      <g>
       <use xlink:href="#m6664ccb815" x="57.6" y="295.902172" style="stroke: #000000; stroke-width: 0.8"/>
      </g>
     </g>
     <g id="text_8">
      <!-- 0.0 -->
      <g transform="translate(34.696875 299.701391) scale(0.1 -0.1)">
       <defs>
        <path id="DejaVuSans-2e" d="M 684 794 
L 1344 794 
L 1344 0 
L 684 0 
L 684 794 
z
" transform="scale(0.015625)"/>
       </defs>
       <use xlink:href="#DejaVuSans-30"/>
       <use xlink:href="#DejaVuSans-2e" x="63.623047"/>
       <use xlink:href="#DejaVuSans-30" x="95.410156"/>
      </g>
     </g>
    </g>
    <g id="ytick_2">
     <g id="line2d_15">
      <path d="M 57.6 247.646714 
L 414.72 247.646714 
" clip-path="url(#p348efeac38)" style="fill: none; stroke: #b0b0b0; stroke-width: 0.8; stroke-linecap: square"/>
     </g>
     <g id="line2d_16">
      <g>
       <use xlink:href="#m6664ccb815" x="57.6" y="247.646714" style="stroke: #000000; stroke-width: 0.8"/>
      </g>
     </g>
     <g id="text_9">
      <!-- 0.1 -->
      <g transform="translate(34.696875 251.445932) scale(0.1 -0.1)">
       <use xlink:href="#DejaVuSans-30"/>
       <use xlink:href="#DejaVuSans-2e" x="63.623047"/>
       <use xlink:href="#DejaVuSans-31" x="95.410156"/>
      </g>
     </g>
    </g>
    <g id="ytick_3">
     <g id="line2d_17">
      <path d="M 57.6 199.391255 
L 414.72 199.391255 
" clip-path="url(#p348efeac38)" style="fill: none; stroke: #b0b0b0; stroke-width: 0.8; stroke-linecap: square"/>
     </g>
     <g id="line2d_18">
      <g>
       <use xlink:href="#m6664ccb815" x="57.6" y="199.391255" style="stroke: #000000; stroke-width: 0.8"/>
      </g>
     </g>
     <g id="text_10">
      <!-- 0.2 -->
      <g transform="translate(34.696875 203.190474) scale(0.1 -0.1)">
       <use xlink:href="#DejaVuSans-30"/>
       <use xlink:href="#DejaVuSans-2e" x="63.623047"/>
       <use xlink:href="#DejaVuSans-32" x="95.410156"/>
      </g>
     </g>
    </g>
    <g id="ytick_4">
     <g id="line2d_19">
      <path d="M 57.6 151.135797 
L 414.72 151.135797 
" clip-path="url(#p348efeac38)" style="fill: none; stroke: #b0b0b0; stroke-width: 0.8; stroke-linecap: square"/>
     </g>
     <g id="line2d_20">
      <g>
       <use xlink:href="#m6664ccb815" x="57.6" y="151.135797" style="stroke: #000000; stroke-width: 0.8"/>
      </g>
     </g>
     <g id="text_11">
      <!-- 0.3 -->
      <g transform="translate(34.696875 154.935015) scale(0.1 -0.1)">
       <defs>
        <path id="DejaVuSans-33" d="M 2597 2516 
Q 3050 2419 3304 2112 
Q 3559 1806 3559 1356 
Q 3559 666 3084 287 
Q 2609 -91 1734 -91 
Q 1441 -91 1130 -33 
Q 819 25 488 141 
L 488 750 
Q 750 597 1062 519 
Q 1375 441 1716 441 
Q 2309 441 2620 675 
Q 2931 909 2931 1356 
Q 2931 1769 2642 2001 
Q 2353 2234 1838 2234 
L 1294 2234 
L 1294 2753 
L 1863 2753 
Q 2328 2753 2575 2939 
Q 2822 3125 2822 3475 
Q 2822 3834 2567 4026 
Q 2313 4219 1838 4219 
Q 1578 4219 1281 4162 
Q 984 4106 628 3988 
L 628 4550 
Q 988 4650 1302 4700 
Q 1616 4750 1894 4750 
Q 2613 4750 3031 4423 
Q 3450 4097 3450 3541 
Q 3450 3153 3228 2886 
Q 3006 2619 2597 2516 
z
" transform="scale(0.015625)"/>
       </defs>
       <use xlink:href="#DejaVuSans-30"/>
       <use xlink:href="#DejaVuSans-2e" x="63.623047"/>
       <use xlink:href="#DejaVuSans-33" x="95.410156"/>
      </g>
     </g>
    </g>
    <g id="ytick_5">
     <g id="line2d_21">
      <path d="M 57.6 102.880338 
L 414.72 102.880338 
" clip-path="url(#p348efeac38)" style="fill: none; stroke: #b0b0b0; stroke-width: 0.8; stroke-linecap: square"/>
     </g>
     <g id="line2d_22">
      <g>
       <use xlink:href="#m6664ccb815" x="57.6" y="102.880338" style="stroke: #000000; stroke-width: 0.8"/>
      </g>
     </g>
     <g id="text_12">
      <!-- 0.4 -->
      <g transform="translate(34.696875 106.679557) scale(0.1 -0.1)">
       <use xlink:href="#DejaVuSans-30"/>
       <use xlink:href="#DejaVuSans-2e" x="63.623047"/>
       <use xlink:href="#DejaVuSans-34" x="95.410156"/>
      </g>
     </g>
    </g>
    <g id="ytick_6">
     <g id="line2d_23">
      <path d="M 57.6 54.624879 
L 414.72 54.624879 
" clip-path="url(#p348efeac38)" style="fill: none; stroke: #b0b0b0; stroke-width: 0.8; stroke-linecap: square"/>
     </g>
     <g id="line2d_24">
      <g>
       <use xlink:href="#m6664ccb815" x="57.6" y="54.624879" style="stroke: #000000; stroke-width: 0.8"/>
      </g>
     </g>
     <g id="text_13">
      <!-- 0.5 -->
      <g transform="translate(34.696875 58.424098) scale(0.1 -0.1)">
       <defs>
        <path id="DejaVuSans-35" d="M 691 4666 
L 3169 4666 
L 3169 4134 
L 1269 4134 
L 1269 2991 
Q 1406 3038 1543 3061 
Q 1681 3084 1819 3084 
Q 2600 3084 3056 2656 
Q 3513 2228 3513 1497 
Q 3513 744 3044 326 
Q 2575 -91 1722 -91 
Q 1428 -91 1123 -41 
Q 819 9 494 109 
L 494 744 
Q 775 591 1075 516 
Q 1375 441 1709 441 
Q 2250 441 2565 725 
Q 2881 1009 2881 1497 
Q 2881 1984 2565 2268 
Q 2250 2553 1709 2553 
Q 1456 2553 1204 2497 
Q 953 2441 691 2322 
L 691 4666 
z
" transform="scale(0.015625)"/>
       </defs>
       <use xlink:href="#DejaVuSans-30"/>
       <use xlink:href="#DejaVuSans-2e" x="63.623047"/>
       <use xlink:href="#DejaVuSans-35" x="95.410156"/>
      </g>
     </g>
    </g>
    <g id="text_14">
     <!-- Spectral Density ($m/s²  / \sqrt{Hz}$) -->
     <g transform="translate(28.596875 244.728) rotate(-90) scale(0.1 -0.1)">
      <defs>
       <path id="DejaVuSans-53" d="M 3425 4513 
L 3425 3897 
Q 3066 4069 2747 4153 
Q 2428 4238 2131 4238 
Q 1616 4238 1336 4038 
Q 1056 3838 1056 3469 
Q 1056 3159 1242 3001 
Q 1428 2844 1947 2747 
L 2328 2669 
Q 3034 2534 3370 2195 
Q 3706 1856 3706 1288 
Q 3706 609 3251 259 
Q 2797 -91 1919 -91 
Q 1588 -91 1214 -16 
Q 841 59 441 206 
L 441 856 
Q 825 641 1194 531 
Q 1563 422 1919 422 
Q 2459 422 2753 634 
Q 3047 847 3047 1241 
Q 3047 1584 2836 1778 
Q 2625 1972 2144 2069 
L 1759 2144 
Q 1053 2284 737 2584 
Q 422 2884 422 3419 
Q 422 4038 858 4394 
Q 1294 4750 2059 4750 
Q 2388 4750 2728 4690 
Q 3069 4631 3425 4513 
z
" transform="scale(0.015625)"/>
       <path id="DejaVuSans-70" d="M 1159 525 
L 1159 -1331 
L 581 -1331 
L 581 3500 
L 1159 3500 
L 1159 2969 
Q 1341 3281 1617 3432 
Q 1894 3584 2278 3584 
Q 2916 3584 3314 3078 
Q 3713 2572 3713 1747 
Q 3713 922 3314 415 
Q 2916 -91 2278 -91 
Q 1894 -91 1617 61 
Q 1341 213 1159 525 
z
M 3116 1747 
Q 3116 2381 2855 2742 
Q 2594 3103 2138 3103 
Q 1681 3103 1420 2742 
Q 1159 2381 1159 1747 
Q 1159 1113 1420 752 
Q 1681 391 2138 391 
Q 2594 391 2855 752 
Q 3116 1113 3116 1747 
z
" transform="scale(0.015625)"/>
       <path id="DejaVuSans-74" d="M 1172 4494 
L 1172 3500 
L 2356 3500 
L 2356 3053 
L 1172 3053 
L 1172 1153 
Q 1172 725 1289 603 
Q 1406 481 1766 481 
L 2356 481 
L 2356 0 
L 1766 0 
Q 1100 0 847 248 
Q 594 497 594 1153 
L 594 3053 
L 172 3053 
L 172 3500 
L 594 3500 
L 594 4494 
L 1172 4494 
z
" transform="scale(0.015625)"/>
       <path id="DejaVuSans-61" d="M 2194 1759 
Q 1497 1759 1228 1600 
Q 959 1441 959 1056 
Q 959 750 1161 570 
Q 1363 391 1709 391 
Q 2188 391 2477 730 
Q 2766 1069 2766 1631 
L 2766 1759 
L 2194 1759 
z
M 3341 1997 
L 3341 0 
L 2766 0 
L 2766 531 
Q 2569 213 2275 61 
Q 1981 -91 1556 -91 
Q 1019 -91 701 211 
Q 384 513 384 1019 
Q 384 1609 779 1909 
Q 1175 2209 1959 2209 
L 2766 2209 
L 2766 2266 
Q 2766 2663 2505 2880 
Q 2244 3097 1772 3097 
Q 1472 3097 1187 3025 
Q 903 2953 641 2809 
L 641 3341 
Q 956 3463 1253 3523 
Q 1550 3584 1831 3584 
Q 2591 3584 2966 3190 
Q 3341 2797 3341 1997 
z
" transform="scale(0.015625)"/>
       <path id="DejaVuSans-6c" d="M 603 4863 
L 1178 4863 
L 1178 0 
L 603 0 
L 603 4863 
z
" transform="scale(0.015625)"/>
       <path id="DejaVuSans-44" d="M 1259 4147 
L 1259 519 
L 2022 519 
Q 2988 519 3436 956 
Q 3884 1394 3884 2338 
Q 3884 3275 3436 3711 
Q 2988 4147 2022 4147 
L 1259 4147 
z
M 628 4666 
L 1925 4666 
Q 3281 4666 3915 4102 
Q 4550 3538 4550 2338 
Q 4550 1131 3912 565 
Q 3275 0 1925 0 
L 628 0 
L 628 4666 
z
" transform="scale(0.015625)"/>
       <path id="DejaVuSans-73" d="M 2834 3397 
L 2834 2853 
Q 2591 2978 2328 3040 
Q 2066 3103 1784 3103 
Q 1356 3103 1142 2972 
Q 928 2841 928 2578 
Q 928 2378 1081 2264 
Q 1234 2150 1697 2047 
L 1894 2003 
Q 2506 1872 2764 1633 
Q 3022 1394 3022 966 
Q 3022 478 2636 193 
Q 2250 -91 1575 -91 
Q 1294 -91 989 -36 
Q 684 19 347 128 
L 347 722 
Q 666 556 975 473 
Q 1284 391 1588 391 
Q 1994 391 2212 530 
Q 2431 669 2431 922 
Q 2431 1156 2273 1281 
Q 2116 1406 1581 1522 
L 1381 1569 
Q 847 1681 609 1914 
Q 372 2147 372 2553 
Q 372 3047 722 3315 
Q 1072 3584 1716 3584 
Q 2034 3584 2315 3537 
Q 2597 3491 2834 3397 
z
" transform="scale(0.015625)"/>
       <path id="DejaVuSans-69" d="M 603 3500 
L 1178 3500 
L 1178 0 
L 603 0 
L 603 3500 
z
M 603 4863 
L 1178 4863 
L 1178 4134 
L 603 4134 
L 603 4863 
z
" transform="scale(0.015625)"/>
       <path id="DejaVuSans-28" d="M 1984 4856 
Q 1566 4138 1362 3434 
Q 1159 2731 1159 2009 
Q 1159 1288 1364 580 
Q 1569 -128 1984 -844 
L 1484 -844 
Q 1016 -109 783 600 
Q 550 1309 550 2009 
Q 550 2706 781 3412 
Q 1013 4119 1484 4856 
L 1984 4856 
z
" transform="scale(0.015625)"/>
       <path id="DejaVuSans-Oblique-6d" d="M 5747 2113 
L 5338 0 
L 4763 0 
L 5166 2094 
Q 5191 2228 5203 2325 
Q 5216 2422 5216 2491 
Q 5216 2772 5059 2928 
Q 4903 3084 4622 3084 
Q 4203 3084 3875 2770 
Q 3547 2456 3450 1953 
L 3066 0 
L 2491 0 
L 2900 2094 
Q 2925 2209 2937 2307 
Q 2950 2406 2950 2484 
Q 2950 2769 2794 2926 
Q 2638 3084 2363 3084 
Q 1938 3084 1609 2770 
Q 1281 2456 1184 1953 
L 800 0 
L 225 0 
L 909 3500 
L 1484 3500 
L 1375 2956 
Q 1609 3263 1923 3423 
Q 2238 3584 2597 3584 
Q 2978 3584 3223 3384 
Q 3469 3184 3519 2828 
Q 3781 3197 4126 3390 
Q 4472 3584 4856 3584 
Q 5306 3584 5551 3325 
Q 5797 3066 5797 2591 
Q 5797 2488 5784 2364 
Q 5772 2241 5747 2113 
z
" transform="scale(0.015625)"/>
       <path id="DejaVuSans-2f" d="M 1625 4666 
L 2156 4666 
L 531 -594 
L 0 -594 
L 1625 4666 
z
" transform="scale(0.015625)"/>
       <path id="DejaVuSans-Oblique-73" d="M 3200 3397 
L 3091 2853 
Q 2863 2978 2609 3040 
Q 2356 3103 2088 3103 
Q 1634 3103 1373 2948 
Q 1113 2794 1113 2528 
Q 1113 2219 1719 2053 
Q 1766 2041 1788 2034 
L 1972 1978 
Q 2547 1819 2739 1644 
Q 2931 1469 2931 1166 
Q 2931 609 2489 259 
Q 2047 -91 1331 -91 
Q 1053 -91 747 -37 
Q 441 16 72 128 
L 184 722 
Q 500 559 806 475 
Q 1113 391 1394 391 
Q 1816 391 2080 572 
Q 2344 753 2344 1031 
Q 2344 1331 1650 1516 
L 1591 1531 
L 1394 1581 
Q 956 1697 753 1886 
Q 550 2075 550 2369 
Q 550 2928 970 3256 
Q 1391 3584 2113 3584 
Q 2397 3584 2667 3537 
Q 2938 3491 3200 3397 
z
" transform="scale(0.015625)"/>
       <path id="DejaVuSans-b2" d="M 838 2444 
L 2163 2444 
L 2163 2088 
L 294 2088 
L 294 2431 
Q 400 2528 597 2703 
Q 1672 3656 1672 3950 
Q 1672 4156 1509 4282 
Q 1347 4409 1081 4409 
Q 919 4409 728 4354 
Q 538 4300 313 4191 
L 313 4575 
Q 553 4663 761 4706 
Q 969 4750 1147 4750 
Q 1600 4750 1872 4544 
Q 2144 4338 2144 4000 
Q 2144 3566 1109 2678 
Q 934 2528 838 2444 
z
" transform="scale(0.015625)"/>
       <path id="STIXSizeOneSym-Regular-221a" d="M 6970 9933 
L 3373 -1888 
L 3104 -1888 
L 1626 2918 
Q 1555 3149 1465 3251 
Q 1376 3354 1229 3354 
Q 1011 3354 794 3181 
L 717 3309 
L 1766 4115 
L 1926 4115 
L 3379 -602 
L 3405 -602 
L 6605 9933 
L 6970 9933 
z
" transform="scale(0.015625)"/>
       <path id="DejaVuSans-Oblique-48" d="M 1081 4666 
L 1716 4666 
L 1344 2753 
L 3634 2753 
L 4006 4666 
L 4641 4666 
L 3731 0 
L 3097 0 
L 3531 2222 
L 1241 2222 
L 806 0 
L 172 0 
L 1081 4666 
z
" transform="scale(0.015625)"/>
       <path id="DejaVuSans-Oblique-7a" d="M 744 3500 
L 3475 3500 
L 3372 2975 
L 738 459 
L 2913 459 
L 2822 0 
L -19 0 
L 84 525 
L 2719 3041 
L 653 3041 
L 744 3500 
z
" transform="scale(0.015625)"/>
       <path id="DejaVuSans-29" d="M 513 4856 
L 1013 4856 
Q 1481 4119 1714 3412 
Q 1947 2706 1947 2009 
Q 1947 1309 1714 600 
Q 1481 -109 1013 -844 
L 513 -844 
Q 928 -128 1133 580 
Q 1338 1288 1338 2009 
Q 1338 2731 1133 3434 
Q 928 4138 513 4856 
z
" transform="scale(0.015625)"/>
      </defs>
      <use xlink:href="#DejaVuSans-53" transform="translate(0 0.578125)"/>
      <use xlink:href="#DejaVuSans-70" transform="translate(63.476562 0.578125)"/>
      <use xlink:href="#DejaVuSans-65" transform="translate(126.953125 0.578125)"/>
      <use xlink:href="#DejaVuSans-63" transform="translate(188.476562 0.578125)"/>
      <use xlink:href="#DejaVuSans-74" transform="translate(243.457031 0.578125)"/>
      <use xlink:href="#DejaVuSans-72" transform="translate(282.666016 0.578125)"/>
      <use xlink:href="#DejaVuSans-61" transform="translate(323.779297 0.578125)"/>
      <use xlink:href="#DejaVuSans-6c" transform="translate(385.058594 0.578125)"/>
      <use xlink:href="#DejaVuSans-20" transform="translate(412.841797 0.578125)"/>
      <use xlink:href="#DejaVuSans-44" transform="translate(444.628906 0.578125)"/>
      <use xlink:href="#DejaVuSans-65" transform="translate(521.630859 0.578125)"/>
      <use xlink:href="#DejaVuSans-6e" transform="translate(583.154297 0.578125)"/>
      <use xlink:href="#DejaVuSans-73" transform="translate(646.533203 0.578125)"/>
      <use xlink:href="#DejaVuSans-69" transform="translate(698.632812 0.578125)"/>
      <use xlink:href="#DejaVuSans-74" transform="translate(726.416016 0.578125)"/>
      <use xlink:href="#DejaVuSans-79" transform="translate(765.625 0.578125)"/>
      <use xlink:href="#DejaVuSans-20" transform="translate(824.804688 0.578125)"/>
      <use xlink:href="#DejaVuSans-28" transform="translate(856.591797 0.578125)"/>
      <use xlink:href="#DejaVuSans-Oblique-6d" transform="translate(895.605469 0.578125)"/>
      <use xlink:href="#DejaVuSans-2f" transform="translate(993.017578 0.578125)"/>
      <use xlink:href="#DejaVuSans-Oblique-73" transform="translate(1026.708984 0.578125)"/>
      <use xlink:href="#DejaVuSans-b2" transform="translate(1078.808594 0.578125)"/>
      <use xlink:href="#DejaVuSans-2f" transform="translate(1118.896484 0.578125)"/>
      <use xlink:href="#STIXSizeOneSym-Regular-221a" transform="translate(1152.587891 17.09375) scale(0.563912)"/>
      <use xlink:href="#DejaVuSans-Oblique-48" transform="translate(1224.676254 0.84375)"/>
      <use xlink:href="#DejaVuSans-Oblique-7a" transform="translate(1299.871567 0.84375)"/>
      <use xlink:href="#DejaVuSans-29" transform="translate(1364.861801 0.578125)"/>
      <path d="M 1212.176254 97.5 
L 1212.176254 103.75 
L 1364.861801 103.75 
L 1364.861801 97.5 
L 1212.176254 97.5 
z
"/>
     </g>
    </g>
   </g>
   <g id="line2d_25">
    <path d="M 73.832727 295.393262 
L 74.466818 294.889257 
L 75.100909 294.804528 
L 76.369091 294.995471 
L 77.637273 294.907148 
L 78.271364 295.066098 
L 78.905455 295.060438 
L 80.173636 294.715113 
L 81.441818 294.945462 
L 87.782727 295.149708 
L 89.050909 294.960801 
L 90.319091 295.14233 
L 92.855455 295.057474 
L 94.123636 294.923245 
L 94.757727 294.873022 
L 96.66 295.087195 
L 98.562273 294.968619 
L 99.196364 295.051455 
L 99.830455 294.976178 
L 101.732727 295.034098 
L 102.366818 295.020935 
L 103.000909 295.136125 
L 107.439545 295.021284 
L 108.707727 295.08086 
L 109.341818 294.911965 
L 110.61 295.079083 
L 111.244091 294.949647 
L 112.512273 295.006003 
L 113.146364 294.872188 
L 115.048636 294.940503 
L 117.585 294.93531 
L 119.487273 294.913845 
L 120.755455 294.773169 
L 122.023636 294.829558 
L 122.657727 294.624184 
L 125.194091 294.422494 
L 125.828182 294.158307 
L 127.096364 294.310406 
L 128.364545 293.882044 
L 128.998636 293.797619 
L 129.632727 293.557961 
L 130.266818 293.489663 
L 130.900909 293.747986 
L 131.535 293.449642 
L 132.169091 292.90385 
L 132.803182 293.040163 
L 134.071364 292.471699 
L 134.705455 292.642052 
L 135.973636 292.416727 
L 137.241818 292.747648 
L 137.875909 292.787925 
L 138.51 292.96023 
L 139.144091 293.461863 
L 139.778182 293.708583 
L 140.412273 293.739024 
L 141.046364 293.549808 
L 141.680455 293.576542 
L 142.948636 293.962236 
L 143.582727 294.065863 
L 144.850909 294.503125 
L 146.119091 294.369138 
L 146.753182 294.560105 
L 147.387273 294.598312 
L 148.021364 294.428738 
L 148.655455 294.55586 
L 149.923636 294.257295 
L 150.557727 293.957097 
L 151.191818 293.797925 
L 151.825909 293.989122 
L 152.46 293.98173 
L 153.094091 293.830516 
L 153.728182 294.022912 
L 154.362273 294.077545 
L 154.996364 294.277668 
L 156.898636 294.454019 
L 157.532727 294.740169 
L 158.800909 294.602777 
L 159.435 294.439289 
L 160.703182 294.785745 
L 161.971364 294.802528 
L 163.873636 294.890195 
L 165.775909 294.708982 
L 166.41 294.899371 
L 168.312273 294.928086 
L 168.946364 294.67458 
L 169.580455 294.592808 
L 170.214545 294.760909 
L 171.482727 294.642464 
L 172.116818 294.513797 
L 173.385 294.661792 
L 174.019091 294.654044 
L 175.287273 294.851216 
L 175.921364 294.732568 
L 177.189545 294.685659 
L 177.823636 294.542372 
L 179.091818 294.705418 
L 179.725909 294.821734 
L 180.994091 294.713871 
L 182.262273 294.479211 
L 182.896364 294.580526 
L 184.798636 294.527391 
L 185.432727 294.551536 
L 186.700909 294.294943 
L 187.335 294.476765 
L 187.969091 294.454045 
L 188.603182 294.603302 
L 189.871364 294.278325 
L 191.139545 294.383163 
L 191.773636 294.255608 
L 192.407727 294.009013 
L 193.675909 294.768341 
L 194.944091 294.279193 
L 195.578182 294.377346 
L 196.212273 294.31652 
L 197.480455 294.595595 
L 198.114545 294.91076 
L 199.382727 294.658123 
L 200.016818 294.590414 
L 200.650909 294.673007 
L 201.919091 294.469709 
L 203.187273 294.29263 
L 203.821364 294.390202 
L 205.089545 294.21347 
L 205.723636 294.279096 
L 206.357727 294.591803 
L 206.991818 294.270765 
L 207.625909 294.155904 
L 208.894091 294.210885 
L 210.162273 293.941163 
L 210.796364 293.500308 
L 211.430455 293.694921 
L 212.064545 294.072553 
L 212.698636 293.374211 
L 213.332727 292.234118 
L 213.966818 291.531205 
L 214.600909 291.21485 
L 215.869091 292.614653 
L 216.503182 292.152222 
L 217.137273 292.217607 
L 217.771364 292.091157 
L 218.405455 291.282151 
L 219.039545 289.662039 
L 219.673636 278.02983 
L 220.307727 204.302332 
L 220.941818 93.724742 
L 221.575909 140.247341 
L 222.21 254.209632 
L 222.844091 285.036322 
L 223.478182 289.516683 
L 224.112273 290.94892 
L 224.746364 291.270179 
L 225.380455 290.515729 
L 226.014545 281.957322 
L 227.282727 53.568 
L 227.916818 100.380908 
L 228.550909 111.933231 
L 229.185 233.27268 
L 229.819091 288.86183 
L 230.453182 290.775047 
L 231.721364 223.578142 
L 232.355455 261.449859 
L 232.989545 292.518135 
L 234.257727 292.076806 
L 234.891818 292.296294 
L 235.525909 293.173466 
L 236.16 293.518617 
L 237.428182 293.076088 
L 238.696364 293.450318 
L 239.964545 292.865748 
L 240.598636 292.508887 
L 241.232727 292.520159 
L 241.866818 291.832825 
L 243.769091 291.634043 
L 244.403182 291.415841 
L 245.037273 291.562347 
L 245.671364 292.145704 
L 246.939545 292.791422 
L 247.573636 293.225052 
L 248.207727 293.340335 
L 249.475909 293.232481 
L 250.744091 293.781056 
L 252.646364 294.176527 
L 253.280455 294.101593 
L 255.816818 294.515581 
L 256.450909 294.392791 
L 257.719091 294.702412 
L 258.353182 294.570037 
L 258.987273 294.196422 
L 259.621364 294.047436 
L 260.889545 294.388071 
L 262.157727 294.438399 
L 262.791818 294.207624 
L 264.06 294.562218 
L 264.694091 294.635811 
L 265.962273 294.353395 
L 266.596364 294.192208 
L 268.498636 294.240303 
L 271.035 294.083695 
L 271.669091 294.430413 
L 272.303182 294.243561 
L 273.571364 294.346836 
L 274.839545 294.302919 
L 275.473636 294.318711 
L 276.107727 294.548658 
L 277.375909 294.485086 
L 279.912273 294.602855 
L 281.814545 294.342011 
L 283.082727 294.691884 
L 283.716818 294.732168 
L 284.350909 294.462841 
L 285.619091 294.597788 
L 286.253182 294.423111 
L 287.521364 294.623902 
L 288.155455 294.485044 
L 289.423636 293.897475 
L 290.057727 294.291467 
L 290.691818 293.522082 
L 291.325909 292.172958 
L 291.96 293.587128 
L 292.594091 294.378768 
L 293.228182 294.57645 
L 293.862273 294.482356 
L 295.130455 294.495583 
L 295.764545 294.302498 
L 297.032727 294.447024 
L 298.300909 294.506008 
L 298.935 294.627892 
L 299.569091 294.505288 
L 300.203182 294.146147 
L 300.837273 294.267064 
L 302.739545 294.153595 
L 303.373636 294.321253 
L 304.641818 294.431529 
L 305.91 293.829509 
L 306.544091 292.98272 
L 307.178182 291.039269 
L 308.446364 293.645315 
L 309.080455 293.177208 
L 309.714545 293.336207 
L 310.348636 292.806828 
L 310.982727 293.486194 
L 311.616818 293.618049 
L 312.250909 293.250617 
L 313.519091 293.228179 
L 314.153182 293.071885 
L 314.787273 293.091701 
L 315.421364 292.904286 
L 317.323636 291.827607 
L 317.957727 291.772075 
L 318.591818 291.312742 
L 319.86 292.214814 
L 320.494091 291.767455 
L 321.128182 291.084147 
L 321.762273 290.622094 
L 322.396364 290.634191 
L 323.030455 291.74987 
L 323.664545 290.970833 
L 324.298636 290.872986 
L 324.932727 291.966651 
L 325.566818 292.242575 
L 326.200909 292.181569 
L 326.835 292.340079 
L 327.469091 292.624612 
L 328.103182 293.20995 
L 328.737273 293.353742 
L 329.371364 293.197095 
L 330.005455 292.885123 
L 330.639545 293.175288 
L 331.907727 288.41595 
L 332.541818 291.757309 
L 333.175909 294.058843 
L 334.444091 294.059718 
L 335.712273 294.060322 
L 336.346364 293.977579 
L 338.882727 294.15496 
L 339.516818 294.013862 
L 341.419091 294.483959 
L 342.053182 294.085621 
L 342.687273 294.050253 
L 343.955455 293.579376 
L 344.589545 293.190975 
L 345.223636 293.370986 
L 345.857727 293.725203 
L 347.125909 294.152053 
L 348.394091 293.868 
L 349.028182 293.997473 
L 349.662273 293.465987 
L 352.198636 292.918723 
L 353.466818 294.21287 
L 354.735 294.177927 
L 356.003182 294.610009 
L 357.271364 294.367401 
L 357.905455 294.459807 
L 358.539545 294.301831 
L 359.807727 294.35003 
L 360.441818 294.306425 
L 361.075909 294.57132 
L 361.71 294.466578 
L 365.514545 294.757098 
L 366.782727 293.448279 
L 367.416818 293.528369 
L 368.050909 292.574901 
L 368.685 292.471802 
L 369.319091 293.656767 
L 369.953182 294.493822 
L 370.587273 294.432225 
L 371.855455 294.06401 
L 373.123636 294.306746 
L 373.757727 294.621792 
L 374.391818 294.325054 
L 375.66 294.733169 
L 378.196364 294.605057 
L 379.464545 294.846623 
L 380.098636 294.640817 
L 380.732727 294.588802 
L 381.366818 294.691284 
L 382.000909 294.609616 
L 382.635 294.389182 
L 383.269091 294.605321 
L 383.903182 294.525905 
L 384.537273 294.139324 
L 387.073636 294.327791 
L 388.341818 294.219031 
L 388.975909 289.655772 
L 389.61 286.036571 
L 390.244091 291.411207 
L 390.878182 294.366299 
L 391.512273 294.545895 
L 392.146364 294.441557 
L 397.219091 294.778484 
L 397.853182 294.719059 
L 398.487273 295.036698 
L 398.487273 295.036698 
" clip-path="url(#p348efeac38)" style="fill: none; stroke: #1f77b4; stroke-width: 1.5; stroke-linecap: square"/>
   </g>
   <g id="line2d_26">
    <path d="M 73.832727 294.849053 
L 74.466818 293.321179 
L 75.100909 293.167437 
L 75.735 293.671077 
L 76.369091 293.907817 
L 77.637273 293.436075 
L 79.539545 294.093543 
L 80.807727 294.393177 
L 82.075909 294.154646 
L 83.344091 294.380541 
L 83.978182 294.456413 
L 84.612273 294.391407 
L 87.148636 294.633631 
L 87.782727 294.551193 
L 88.416818 294.685882 
L 89.050909 294.638107 
L 89.685 294.463961 
L 90.953182 294.622911 
L 92.221364 294.415152 
L 92.855455 294.481067 
L 94.757727 294.353175 
L 95.391818 294.070981 
L 96.66 294.487027 
L 97.294091 294.340842 
L 97.928182 293.768513 
L 99.196364 294.404687 
L 99.830455 294.552501 
L 101.098636 294.152152 
L 106.171364 294.82025 
L 106.805455 294.81073 
L 108.073636 294.518566 
L 109.341818 294.20953 
L 110.61 294.398105 
L 111.244091 294.228237 
L 111.878182 294.311894 
L 113.146364 294.094473 
L 113.780455 294.207652 
L 114.414545 293.983172 
L 115.048636 293.947694 
L 115.682727 293.766528 
L 116.316818 293.977332 
L 116.950909 294.442421 
L 119.487273 294.510417 
L 120.121364 294.617462 
L 120.755455 294.460953 
L 121.389545 294.518907 
L 122.023636 294.341539 
L 122.657727 294.537548 
L 123.291818 294.316064 
L 126.462273 294.452401 
L 127.096364 294.17739 
L 127.730455 294.057083 
L 128.998636 294.088042 
L 130.266818 293.669015 
L 131.535 293.968678 
L 132.169091 293.760589 
L 132.803182 293.78786 
L 134.071364 293.621937 
L 134.705455 294.022753 
L 135.339545 294.023184 
L 136.607727 293.425135 
L 137.241818 293.571669 
L 137.875909 293.877802 
L 138.51 293.851537 
L 139.778182 294.359827 
L 141.046364 293.397277 
L 141.680455 293.277937 
L 142.314545 293.325435 
L 142.948636 293.681753 
L 144.216818 293.85007 
L 144.850909 293.96344 
L 145.485 293.796573 
L 146.753182 294.218565 
L 148.021364 293.75689 
L 148.655455 293.731813 
L 149.289545 293.456231 
L 149.923636 292.86215 
L 150.557727 291.756241 
L 151.191818 291.599713 
L 151.825909 291.162199 
L 152.46 291.609414 
L 153.094091 291.467386 
L 153.728182 291.783938 
L 154.362273 291.842049 
L 154.996364 292.510955 
L 156.264545 292.646098 
L 156.898636 293.068258 
L 157.532727 293.834346 
L 158.166818 293.688994 
L 159.435 293.762367 
L 160.069091 294.070846 
L 161.337273 294.251884 
L 161.971364 294.163335 
L 164.507727 294.190538 
L 165.141818 293.976532 
L 166.41 293.791201 
L 167.044091 293.539685 
L 167.678182 293.448219 
L 168.946364 292.581047 
L 169.580455 292.179745 
L 170.214545 291.617859 
L 170.848636 291.795265 
L 171.482727 292.351809 
L 172.750909 292.222274 
L 173.385 292.434244 
L 174.019091 292.479585 
L 174.653182 292.793448 
L 175.287273 292.965906 
L 175.921364 292.021178 
L 176.555455 292.21192 
L 178.457727 291.369974 
L 179.725909 292.075614 
L 180.36 292.784698 
L 180.994091 293.069347 
L 181.628182 292.906394 
L 182.262273 293.214232 
L 183.530455 292.685031 
L 184.164545 292.982555 
L 184.798636 293.148244 
L 186.066818 293.172517 
L 186.700909 292.747898 
L 187.335 292.151391 
L 188.603182 292.94505 
L 189.237273 292.736355 
L 189.871364 291.680403 
L 190.505455 291.816018 
L 191.139545 292.226582 
L 191.773636 292.777721 
L 192.407727 292.575441 
L 193.041818 293.252607 
L 193.675909 293.326945 
L 194.31 293.20396 
L 194.944091 293.336469 
L 195.578182 292.900799 
L 196.212273 292.279981 
L 196.846364 293.109983 
L 198.114545 293.891924 
L 198.748636 293.82505 
L 199.382727 293.4726 
L 200.016818 293.463446 
L 201.285 292.72526 
L 202.553182 291.409581 
L 203.187273 291.245972 
L 203.821364 291.88281 
L 204.455455 291.791199 
L 205.089545 292.369626 
L 205.723636 292.446105 
L 206.357727 292.286591 
L 206.991818 290.93871 
L 207.625909 291.877562 
L 208.26 293.261926 
L 208.894091 293.533864 
L 209.528182 293.129444 
L 210.162273 291.944357 
L 210.796364 290.168084 
L 212.064545 293.242084 
L 212.698636 293.488948 
L 213.332727 293.57113 
L 213.966818 293.138291 
L 215.235 292.907709 
L 215.869091 293.00923 
L 217.137273 293.503775 
L 217.771364 293.333819 
L 218.405455 293.024901 
L 219.039545 292.400126 
L 219.673636 288.529087 
L 220.307727 257.98815 
L 220.941818 210.910367 
L 221.575909 229.495364 
L 222.21 277.47308 
L 222.844091 290.343711 
L 223.478182 292.009903 
L 224.746364 292.416907 
L 225.380455 292.478674 
L 226.014545 292.343673 
L 226.648636 290.040913 
L 227.282727 280.190503 
L 227.916818 224.558941 
L 228.550909 205.538083 
L 229.185 265.132742 
L 229.819091 291.117947 
L 230.453182 292.887572 
L 231.087273 291.660637 
L 231.721364 289.454707 
L 232.355455 291.661224 
L 232.989545 293.010177 
L 233.623636 293.094955 
L 234.257727 292.646613 
L 236.16 292.187497 
L 236.794091 292.434676 
L 237.428182 291.989629 
L 238.062273 292.45202 
L 238.696364 292.613774 
L 239.330455 292.530832 
L 239.964545 292.735346 
L 241.232727 291.916031 
L 241.866818 290.806011 
L 242.500909 291.207882 
L 243.769091 291.513512 
L 244.403182 291.490939 
L 245.037273 291.675521 
L 245.671364 292.025076 
L 246.305455 290.87831 
L 247.573636 291.714695 
L 248.207727 290.733513 
L 248.841818 289.989569 
L 249.475909 288.416648 
L 250.11 290.820899 
L 250.744091 291.686605 
L 251.378182 291.062448 
L 252.012273 291.837446 
L 252.646364 292.433956 
L 253.280455 292.398985 
L 253.914545 292.513792 
L 255.182727 292.954778 
L 256.450909 292.958338 
L 257.085 293.431926 
L 257.719091 293.392475 
L 258.353182 292.770341 
L 258.987273 291.59728 
L 259.621364 291.22597 
L 260.255455 291.987154 
L 260.889545 292.51253 
L 261.523636 292.583128 
L 262.157727 291.947394 
L 262.791818 291.596424 
L 264.06 290.546373 
L 264.694091 290.891138 
L 265.962273 288.061947 
L 266.596364 287.830924 
L 267.230455 287.986984 
L 268.498636 290.694678 
L 269.132727 290.434889 
L 269.766818 290.892947 
L 270.400909 291.571059 
L 271.669091 291.937059 
L 272.303182 291.41983 
L 272.937273 291.179898 
L 273.571364 291.76134 
L 274.205455 292.18054 
L 274.839545 291.650562 
L 275.473636 291.64633 
L 276.741818 292.581091 
L 277.375909 293.038686 
L 278.644091 293.153871 
L 279.278182 292.974374 
L 281.180455 291.516139 
L 281.814545 291.339257 
L 283.082727 292.871273 
L 283.716818 293.414803 
L 284.350909 293.15863 
L 284.985 293.227308 
L 286.253182 292.528138 
L 287.521364 292.448235 
L 288.155455 292.590873 
L 288.789545 292.536162 
L 289.423636 292.886547 
L 290.057727 293.097439 
L 290.691818 292.500337 
L 291.325909 292.213469 
L 291.96 292.680415 
L 292.594091 292.892225 
L 293.228182 292.679868 
L 294.496364 292.92558 
L 295.130455 293.018968 
L 295.764545 292.867177 
L 297.032727 292.323127 
L 298.300909 292.462239 
L 298.935 292.573213 
L 299.569091 292.538699 
L 300.203182 292.197637 
L 302.739545 292.220165 
L 303.373636 292.715247 
L 304.007727 293.038919 
L 304.641818 292.681952 
L 305.275909 292.838502 
L 305.91 292.825085 
L 306.544091 290.162195 
L 307.178182 285.045981 
L 307.812273 288.297533 
L 308.446364 292.166787 
L 309.080455 290.095315 
L 310.348636 293.044577 
L 310.982727 293.529201 
L 312.885 293.487028 
L 313.519091 293.720587 
L 314.787273 293.448376 
L 315.421364 293.569115 
L 316.055455 293.533484 
L 317.323636 293.098687 
L 317.957727 293.184509 
L 318.591818 293.081862 
L 319.225909 293.641648 
L 319.86 293.588178 
L 320.494091 293.14756 
L 322.396364 292.314067 
L 323.030455 292.595976 
L 323.664545 292.570371 
L 324.298636 292.420475 
L 324.932727 292.770954 
L 326.200909 292.646291 
L 326.835 292.806072 
L 327.469091 292.630213 
L 328.103182 292.698043 
L 328.737273 293.089992 
L 329.371364 293.228167 
L 330.005455 292.812751 
L 330.639545 292.619456 
L 331.273636 291.680866 
L 331.907727 290.234858 
L 332.541818 289.87618 
L 333.175909 285.921889 
L 333.81 282.981241 
L 335.078182 272.288696 
L 335.712273 268.795018 
L 336.346364 270.320993 
L 336.980455 273.525567 
L 337.614545 281.178658 
L 338.248636 286.654419 
L 338.882727 289.193475 
L 339.516818 290.986118 
L 340.150909 292.004042 
L 341.419091 292.710592 
L 342.053182 292.781081 
L 342.687273 292.637365 
L 343.321364 292.684168 
L 343.955455 292.850943 
L 345.223636 292.294086 
L 345.857727 292.623426 
L 347.125909 292.740086 
L 347.76 292.378264 
L 348.394091 292.459013 
L 349.028182 292.797272 
L 349.662273 292.210186 
L 350.296364 292.161492 
L 350.930455 291.858737 
L 352.198636 292.283944 
L 353.466818 292.891045 
L 354.100909 292.83098 
L 356.637273 293.927499 
L 357.271364 293.474178 
L 357.905455 293.23685 
L 359.807727 293.172796 
L 360.441818 292.499248 
L 361.075909 292.554079 
L 362.344091 293.3772 
L 364.880455 293.432758 
L 365.514545 293.693544 
L 366.148636 292.427911 
L 366.782727 290.192939 
L 367.416818 286.778294 
L 368.050909 281.899208 
L 368.685 282.137638 
L 369.319091 287.560147 
L 369.953182 291.769187 
L 370.587273 293.248519 
L 371.221364 293.649002 
L 371.855455 293.701011 
L 372.489545 293.354259 
L 373.123636 293.363573 
L 374.391818 293.17438 
L 376.294091 293.836188 
L 377.562273 293.767186 
L 379.464545 292.741485 
L 380.098636 292.731395 
L 380.732727 292.52449 
L 381.366818 292.533521 
L 382.000909 289.944654 
L 382.635 284.426147 
L 383.269091 285.527034 
L 383.903182 291.500114 
L 384.537273 291.86193 
L 385.171364 291.846173 
L 385.805455 291.484837 
L 386.439545 291.408527 
L 387.073636 291.214577 
L 387.707727 291.348325 
L 388.341818 289.785368 
L 388.975909 266.145397 
L 389.61 247.29819 
L 390.244091 272.494374 
L 390.878182 291.704185 
L 391.512273 292.945003 
L 392.146364 292.57631 
L 392.780455 292.783423 
L 393.414545 293.271054 
L 394.682727 293.319012 
L 395.316818 293.070909 
L 395.950909 293.430552 
L 397.219091 293.325059 
L 397.853182 293.448246 
L 398.487273 294.188969 
L 398.487273 294.188969 
" clip-path="url(#p348efeac38)" style="fill: none; stroke: #ff7f0e; stroke-width: 1.5; stroke-linecap: square"/>
   </g>
   <g id="line2d_27">
    <path d="M 73.832727 295.488 
L 74.466818 294.921815 
L 75.100909 294.87072 
L 75.735 295.004312 
L 76.369091 295.009085 
L 77.637273 294.740869 
L 78.905455 295.006235 
L 79.539545 295.105168 
L 80.173636 294.958818 
L 83.978182 295.052971 
L 84.612273 294.7605 
L 85.246364 294.771916 
L 86.514545 294.99626 
L 90.319091 295.104127 
L 91.587273 294.973305 
L 92.855455 295.051686 
L 93.489545 294.962559 
L 94.757727 295.060576 
L 95.391818 294.967158 
L 97.294091 295.151722 
L 98.562273 295.059392 
L 100.464545 295.125609 
L 102.366818 295.089066 
L 103.635 295.246287 
L 105.537273 295.077628 
L 107.439545 295.194681 
L 109.341818 295.02521 
L 110.61 295.212306 
L 116.316818 295.00499 
L 116.950909 295.090101 
L 118.219091 295.007225 
L 118.853182 295.176801 
L 120.121364 295.042666 
L 122.023636 295.076097 
L 125.828182 295.175214 
L 127.096364 294.985712 
L 128.364545 295.111788 
L 128.998636 295.030233 
L 132.803182 295.143816 
L 133.437273 295.159635 
L 134.071364 295.00342 
L 139.778182 295.207203 
L 141.046364 295.046959 
L 143.582727 295.160717 
L 144.850909 295.090364 
L 145.485 295.203726 
L 148.655455 294.833591 
L 149.923636 294.90101 
L 151.191818 294.645536 
L 151.825909 294.676134 
L 152.46 294.94938 
L 153.094091 294.834496 
L 154.362273 294.349198 
L 154.996364 294.651233 
L 157.532727 294.936466 
L 158.800909 294.767566 
L 160.069091 294.965055 
L 160.703182 294.88149 
L 162.605455 295.073556 
L 167.044091 294.912264 
L 167.678182 295.009861 
L 168.312273 294.892916 
L 168.946364 294.551019 
L 169.580455 294.462889 
L 170.214545 294.699773 
L 171.482727 294.623673 
L 172.750909 294.537373 
L 174.019091 294.71202 
L 175.287273 294.35314 
L 177.189545 294.43591 
L 177.823636 294.346881 
L 179.725909 294.534641 
L 182.262273 294.679691 
L 182.896364 294.464331 
L 183.530455 294.551649 
L 184.164545 294.850204 
L 184.798636 294.51463 
L 185.432727 294.415363 
L 186.700909 294.541226 
L 187.335 294.407746 
L 187.969091 294.069451 
L 189.237273 293.658709 
L 189.871364 292.988877 
L 191.139545 294.160039 
L 193.041818 294.703688 
L 194.944091 294.189357 
L 195.578182 294.176891 
L 196.212273 293.80811 
L 196.846364 293.973025 
L 197.480455 294.463072 
L 198.114545 294.570886 
L 199.382727 294.33207 
L 200.016818 294.054834 
L 200.650909 294.256286 
L 201.285 293.974545 
L 202.553182 293.85342 
L 203.187273 293.96927 
L 203.821364 293.790579 
L 205.089545 293.981965 
L 205.723636 293.613506 
L 206.357727 292.880598 
L 206.991818 291.550344 
L 208.26 293.203337 
L 209.528182 293.242444 
L 210.162273 292.315349 
L 210.796364 290.72028 
L 212.064545 293.647982 
L 212.698636 293.189686 
L 213.966818 291.996433 
L 214.600909 291.091349 
L 215.235 291.486708 
L 215.869091 292.362945 
L 216.503182 292.046673 
L 217.771364 292.221195 
L 218.405455 291.903064 
L 219.039545 290.804944 
L 219.673636 282.418722 
L 220.307727 230.310092 
L 220.941818 151.492431 
L 221.575909 185.193327 
L 222.21 266.578761 
L 222.844091 286.709613 
L 223.478182 290.779653 
L 224.112273 291.523776 
L 224.746364 291.81927 
L 225.380455 290.609289 
L 226.014545 283.003848 
L 227.282727 79.769432 
L 227.916818 153.092459 
L 228.550909 182.462069 
L 229.185 257.353693 
L 229.819091 290.460215 
L 230.453182 291.438291 
L 231.721364 257.27802 
L 232.355455 277.185614 
L 232.989545 290.775608 
L 233.623636 290.726464 
L 234.257727 290.977077 
L 235.525909 290.901228 
L 236.16 290.427417 
L 236.794091 290.70177 
L 237.428182 290.75127 
L 238.062273 290.4498 
L 238.696364 290.36668 
L 239.330455 290.443426 
L 239.964545 290.811383 
L 240.598636 290.377771 
L 241.232727 289.23883 
L 241.866818 288.410098 
L 242.500909 289.452367 
L 243.135 288.734845 
L 243.769091 288.397257 
L 244.403182 289.045883 
L 245.037273 288.796142 
L 245.671364 287.837956 
L 246.305455 286.25532 
L 246.939545 286.599907 
L 247.573636 285.801082 
L 248.207727 284.320874 
L 248.841818 283.599947 
L 249.475909 281.258166 
L 250.11 284.556686 
L 250.744091 286.471845 
L 251.378182 286.516961 
L 252.646364 287.726019 
L 253.280455 287.401496 
L 253.914545 287.420301 
L 254.548636 287.116531 
L 255.182727 287.355673 
L 255.816818 286.786686 
L 256.450909 287.398109 
L 257.085 286.186168 
L 257.719091 285.558214 
L 258.353182 284.2596 
L 258.987273 280.490091 
L 259.621364 279.66144 
L 260.255455 283.58068 
L 260.889545 284.241135 
L 261.523636 285.279375 
L 262.791818 275.064927 
L 263.425909 281.308043 
L 264.06 286.098984 
L 264.694091 286.516508 
L 265.328182 288.035603 
L 265.962273 289.212071 
L 266.596364 289.696091 
L 267.230455 289.563135 
L 268.498636 289.13017 
L 269.132727 289.645609 
L 269.766818 290.551612 
L 270.400909 290.148709 
L 271.035 289.904597 
L 271.669091 290.170502 
L 272.303182 291.346335 
L 272.937273 291.605282 
L 273.571364 291.438045 
L 274.205455 290.927878 
L 274.839545 291.219138 
L 275.473636 290.817239 
L 276.107727 291.22162 
L 276.741818 291.783752 
L 278.01 291.751058 
L 278.644091 291.576379 
L 279.278182 291.790454 
L 279.912273 290.434744 
L 280.546364 289.719602 
L 281.180455 288.431704 
L 281.814545 288.688098 
L 282.448636 289.373673 
L 283.082727 290.615356 
L 283.716818 291.344811 
L 284.985 292.326441 
L 286.887273 292.879873 
L 287.521364 292.609295 
L 288.155455 292.593623 
L 290.057727 293.1458 
L 290.691818 293.093329 
L 291.325909 292.800421 
L 291.96 293.322334 
L 292.594091 293.020788 
L 293.862273 293.74263 
L 294.496364 293.55845 
L 295.130455 293.008313 
L 296.398636 293.932474 
L 297.032727 293.677369 
L 297.666818 293.71155 
L 298.300909 293.96149 
L 298.935 293.979583 
L 299.569091 293.616225 
L 300.203182 293.45754 
L 300.837273 293.732625 
L 301.471364 293.8737 
L 302.739545 293.833646 
L 303.373636 293.858502 
L 304.641818 293.479796 
L 305.275909 292.813039 
L 305.91 292.910732 
L 306.544091 288.760071 
L 307.178182 280.730989 
L 308.446364 289.493755 
L 309.080455 285.06309 
L 310.348636 291.766896 
L 310.982727 292.932196 
L 311.616818 293.049188 
L 312.250909 292.83888 
L 312.885 292.801593 
L 314.153182 292.277692 
L 314.787273 292.308967 
L 315.421364 292.593484 
L 316.055455 291.437224 
L 316.689545 289.604151 
L 317.957727 290.231709 
L 318.591818 290.154078 
L 319.86 291.334895 
L 320.494091 290.670206 
L 321.128182 289.661943 
L 321.762273 289.664632 
L 322.396364 289.839804 
L 323.030455 291.14576 
L 323.664545 290.554228 
L 324.298636 290.822913 
L 324.932727 291.900947 
L 325.566818 292.395282 
L 326.835 291.952617 
L 327.469091 292.380051 
L 328.103182 293.34969 
L 328.737273 293.538256 
L 329.371364 293.060679 
L 330.005455 293.187809 
L 330.639545 293.591524 
L 331.907727 290.852269 
L 332.541818 292.586856 
L 333.175909 292.791433 
L 333.81 291.048631 
L 335.078182 284.788827 
L 335.712273 285.300584 
L 336.346364 287.130579 
L 336.980455 290.11582 
L 337.614545 292.420026 
L 338.248636 293.279996 
L 339.516818 293.734229 
L 340.150909 293.936061 
L 340.785 293.788368 
L 341.419091 294.02207 
L 342.053182 294.036673 
L 342.687273 293.883317 
L 343.955455 293.987679 
L 344.589545 293.749955 
L 347.76 293.601403 
L 348.394091 293.203197 
L 349.028182 293.15382 
L 350.296364 293.676939 
L 350.930455 293.112317 
L 352.198636 293.703375 
L 352.832727 293.231299 
L 354.100909 293.50269 
L 354.735 293.465947 
L 356.003182 293.751408 
L 356.637273 293.951198 
L 358.539545 293.800527 
L 359.173636 293.54546 
L 359.807727 293.483084 
L 360.441818 293.885166 
L 361.71 294.244478 
L 362.978182 293.930503 
L 364.880455 294.049834 
L 365.514545 293.722431 
L 366.148636 292.690836 
L 366.782727 290.047209 
L 367.416818 283.651507 
L 368.050909 276.088548 
L 368.685 276.719016 
L 369.319091 284.835415 
L 369.953182 291.258817 
L 370.587273 293.476063 
L 373.123636 294.158753 
L 373.757727 294.340244 
L 374.391818 294.058215 
L 375.66 294.065166 
L 376.294091 294.449747 
L 376.928182 294.501321 
L 378.830455 294.001056 
L 379.464545 294.223831 
L 380.732727 292.799682 
L 381.366818 293.540239 
L 382.000909 289.621817 
L 382.635 282.420214 
L 383.269091 283.45351 
L 383.903182 292.273646 
L 384.537273 293.582254 
L 385.171364 293.972858 
L 386.439545 294.198227 
L 387.073636 293.896688 
L 387.707727 293.856111 
L 388.341818 293.557044 
L 389.61 282.162593 
L 390.244091 289.176682 
L 390.878182 293.189699 
L 392.146364 293.429546 
L 392.780455 293.367101 
L 393.414545 293.581855 
L 394.682727 292.609313 
L 395.316818 292.934903 
L 395.950909 293.118451 
L 397.219091 292.5772 
L 397.853182 292.370168 
L 398.487273 293.296645 
L 398.487273 293.296645 
" clip-path="url(#p348efeac38)" style="fill: none; stroke: #2ca02c; stroke-width: 1.5; stroke-linecap: square"/>
   </g>
   <g id="patch_3">
    <path d="M 57.6 307.584 
L 57.6 41.472 
" style="fill: none; stroke: #000000; stroke-width: 0.8; stroke-linejoin: miter; stroke-linecap: square"/>
   </g>
   <g id="patch_4">
    <path d="M 414.72 307.584 
L 414.72 41.472 
" style="fill: none; stroke: #000000; stroke-width: 0.8; stroke-linejoin: miter; stroke-linecap: square"/>
   </g>
   <g id="patch_5">
    <path d="M 57.6 307.584 
L 414.72 307.584 
" style="fill: none; stroke: #000000; stroke-width: 0.8; stroke-linejoin: miter; stroke-linecap: square"/>
   </g>
   <g id="patch_6">
    <path d="M 57.6 41.472 
L 414.72 41.472 
" style="fill: none; stroke: #000000; stroke-width: 0.8; stroke-linejoin: miter; stroke-linecap: square"/>
   </g>
   <g id="text_15">
    <!-- Accelerometer Power Spectral Density -->
    <g transform="translate(121.022813 35.472) scale(0.12 -0.12)">
     <defs>
      <path id="DejaVuSans-41" d="M 2188 4044 
L 1331 1722 
L 3047 1722 
L 2188 4044 
z
M 1831 4666 
L 2547 4666 
L 4325 0 
L 3669 0 
L 3244 1197 
L 1141 1197 
L 716 0 
L 50 0 
L 1831 4666 
z
" transform="scale(0.015625)"/>
      <path id="DejaVuSans-6f" d="M 1959 3097 
Q 1497 3097 1228 2736 
Q 959 2375 959 1747 
Q 959 1119 1226 758 
Q 1494 397 1959 397 
Q 2419 397 2687 759 
Q 2956 1122 2956 1747 
Q 2956 2369 2687 2733 
Q 2419 3097 1959 3097 
z
M 1959 3584 
Q 2709 3584 3137 3096 
Q 3566 2609 3566 1747 
Q 3566 888 3137 398 
Q 2709 -91 1959 -91 
Q 1206 -91 779 398 
Q 353 888 353 1747 
Q 353 2609 779 3096 
Q 1206 3584 1959 3584 
z
" transform="scale(0.015625)"/>
      <path id="DejaVuSans-6d" d="M 3328 2828 
Q 3544 3216 3844 3400 
Q 4144 3584 4550 3584 
Q 5097 3584 5394 3201 
Q 5691 2819 5691 2113 
L 5691 0 
L 5113 0 
L 5113 2094 
Q 5113 2597 4934 2840 
Q 4756 3084 4391 3084 
Q 3944 3084 3684 2787 
Q 3425 2491 3425 1978 
L 3425 0 
L 2847 0 
L 2847 2094 
Q 2847 2600 2669 2842 
Q 2491 3084 2119 3084 
Q 1678 3084 1418 2786 
Q 1159 2488 1159 1978 
L 1159 0 
L 581 0 
L 581 3500 
L 1159 3500 
L 1159 2956 
Q 1356 3278 1631 3431 
Q 1906 3584 2284 3584 
Q 2666 3584 2933 3390 
Q 3200 3197 3328 2828 
z
" transform="scale(0.015625)"/>
      <path id="DejaVuSans-50" d="M 1259 4147 
L 1259 2394 
L 2053 2394 
Q 2494 2394 2734 2622 
Q 2975 2850 2975 3272 
Q 2975 3691 2734 3919 
Q 2494 4147 2053 4147 
L 1259 4147 
z
M 628 4666 
L 2053 4666 
Q 2838 4666 3239 4311 
Q 3641 3956 3641 3272 
Q 3641 2581 3239 2228 
Q 2838 1875 2053 1875 
L 1259 1875 
L 1259 0 
L 628 0 
L 628 4666 
z
" transform="scale(0.015625)"/>
      <path id="DejaVuSans-77" d="M 269 3500 
L 844 3500 
L 1563 769 
L 2278 3500 
L 2956 3500 
L 3675 769 
L 4391 3500 
L 4966 3500 
L 4050 0 
L 3372 0 
L 2619 2869 
L 1863 0 
L 1184 0 
L 269 3500 
z
" transform="scale(0.015625)"/>
     </defs>
     <use xlink:href="#DejaVuSans-41"/>
     <use xlink:href="#DejaVuSans-63" x="66.658203"/>
     <use xlink:href="#DejaVuSans-63" x="121.638672"/>
     <use xlink:href="#DejaVuSans-65" x="176.619141"/>
     <use xlink:href="#DejaVuSans-6c" x="238.142578"/>
     <use xlink:href="#DejaVuSans-65" x="265.925781"/>
     <use xlink:href="#DejaVuSans-72" x="327.449219"/>
     <use xlink:href="#DejaVuSans-6f" x="366.3125"/>
     <use xlink:href="#DejaVuSans-6d" x="427.494141"/>
     <use xlink:href="#DejaVuSans-65" x="524.90625"/>
     <use xlink:href="#DejaVuSans-74" x="586.429688"/>
     <use xlink:href="#DejaVuSans-65" x="625.638672"/>
     <use xlink:href="#DejaVuSans-72" x="687.162109"/>
     <use xlink:href="#DejaVuSans-20" x="728.275391"/>
     <use xlink:href="#DejaVuSans-50" x="760.0625"/>
     <use xlink:href="#DejaVuSans-6f" x="816.740234"/>
     <use xlink:href="#DejaVuSans-77" x="877.921875"/>
     <use xlink:href="#DejaVuSans-65" x="959.708984"/>
     <use xlink:href="#DejaVuSans-72" x="1021.232422"/>
     <use xlink:href="#DejaVuSans-20" x="1062.345703"/>
     <use xlink:href="#DejaVuSans-53" x="1094.132812"/>
     <use xlink:href="#DejaVuSans-70" x="1157.609375"/>
     <use xlink:href="#DejaVuSans-65" x="1221.085938"/>
     <use xlink:href="#DejaVuSans-63" x="1282.609375"/>
     <use xlink:href="#DejaVuSans-74" x="1337.589844"/>
     <use xlink:href="#DejaVuSans-72" x="1376.798828"/>
     <use xlink:href="#DejaVuSans-61" x="1417.912109"/>
     <use xlink:href="#DejaVuSans-6c" x="1479.191406"/>
     <use xlink:href="#DejaVuSans-20" x="1506.974609"/>
     <use xlink:href="#DejaVuSans-44" x="1538.761719"/>
     <use xlink:href="#DejaVuSans-65" x="1615.763672"/>
     <use xlink:href="#DejaVuSans-6e" x="1677.287109"/>
     <use xlink:href="#DejaVuSans-73" x="1740.666016"/>
     <use xlink:href="#DejaVuSans-69" x="1792.765625"/>
     <use xlink:href="#DejaVuSans-74" x="1820.548828"/>
     <use xlink:href="#DejaVuSans-79" x="1859.757812"/>
    </g>
   </g>
   <g id="legend_1">
    <g id="patch_7">
     <path d="M 363.673125 93.506375 
L 407.72 93.506375 
Q 409.72 93.506375 409.72 91.506375 
L 409.72 48.472 
Q 409.72 46.472 407.72 46.472 
L 363.673125 46.472 
Q 361.673125 46.472 361.673125 48.472 
L 361.673125 91.506375 
Q 361.673125 93.506375 363.673125 93.506375 
z
" style="fill: #ffffff; opacity: 0.8; stroke: #cccccc; stroke-linejoin: miter"/>
    </g>
    <g id="line2d_28">
     <path d="M 365.673125 54.570438 
L 375.673125 54.570438 
L 385.673125 54.570438 
" style="fill: none; stroke: #1f77b4; stroke-width: 1.5; stroke-linecap: square"/>
    </g>
    <g id="text_16">
     <!-- ax -->
     <g transform="translate(393.673125 58.070438) scale(0.1 -0.1)">
      <defs>
       <path id="DejaVuSans-78" d="M 3513 3500 
L 2247 1797 
L 3578 0 
L 2900 0 
L 1881 1375 
L 863 0 
L 184 0 
L 1544 1831 
L 300 3500 
L 978 3500 
L 1906 2253 
L 2834 3500 
L 3513 3500 
z
" transform="scale(0.015625)"/>
      </defs>
      <use xlink:href="#DejaVuSans-61"/>
      <use xlink:href="#DejaVuSans-78" x="61.279297"/>
     </g>
    </g>
    <g id="line2d_29">
     <path d="M 365.673125 69.248563 
L 375.673125 69.248563 
L 385.673125 69.248563 
" style="fill: none; stroke: #ff7f0e; stroke-width: 1.5; stroke-linecap: square"/>
    </g>
    <g id="text_17">
     <!-- ay -->
     <g transform="translate(393.673125 72.748563) scale(0.1 -0.1)">
      <use xlink:href="#DejaVuSans-61"/>
      <use xlink:href="#DejaVuSans-79" x="61.279297"/>
     </g>
    </g>
    <g id="line2d_30">
     <path d="M 365.673125 83.926688 
L 375.673125 83.926688 
L 385.673125 83.926688 
" style="fill: none; stroke: #2ca02c; stroke-width: 1.5; stroke-linecap: square"/>
    </g>
    <g id="text_18">
     <!-- az -->
     <g transform="translate(393.673125 87.426688) scale(0.1 -0.1)">
      <use xlink:href="#DejaVuSans-61"/>
      <use xlink:href="#DejaVuSans-7a" x="61.279297"/>
     </g>
    </g>
   </g>
  </g>
 </g>
 <defs>
  <clipPath id="p348efeac38">
   <rect x="57.6" y="41.472" width="357.12" height="266.112"/>
  </clipPath>
 </defs>
</svg>
