<?xml version="1.0" encoding="utf-8" standalone="no"?>
<!DOCTYPE svg PUBLIC "-//W3C//DTD SVG 1.1//EN"
  "http://www.w3.org/Graphics/SVG/1.1/DTD/svg11.dtd">
<svg xmlns:xlink="http://www.w3.org/1999/xlink" width="460.8pt" height="345.6pt" viewBox="0 0 460.8 345.6" xmlns="http://www.w3.org/2000/svg" version="1.1">
 <metadata>
  <rdf:RDF xmlns:dc="http://purl.org/dc/elements/1.1/" xmlns:cc="http://creativecommons.org/ns#" xmlns:rdf="http://www.w3.org/1999/02/22-rdf-syntax-ns#">
   <cc:Work>
    <dc:type rdf:resource="http://purl.org/dc/dcmitype/StillImage"/>
    <dc:date>2024-06-04T15:16:46.091573</dc:date>
    <dc:format>image/svg+xml</dc:format>
    <dc:creator>
     <cc:Agent>
      <dc:title>Matplotlib v3.8.4, https://matplotlib.org/</dc:title>
     </cc:Agent>
    </dc:creator>
   </cc:Work>
  </rdf:RDF>
 </metadata>
 <defs>
  <style type="text/css">*{stroke-linejoin: round; stroke-linecap: butt}</style>
 </defs>
 <g id="figure_1">
  <g id="patch_1">
   <path d="M 0 345.6 
L 460.8 345.6 
L 460.8 0 
L 0 0 
z
" style="fill: #ffffff"/>
  </g>
  <g id="axes_1">
   <g id="patch_2">
    <path d="M 57.6 307.584 
L 414.72 307.584 
L 414.72 41.472 
L 57.6 41.472 
z
" style="fill: #ffffff"/>
   </g>
   <g id="matplotlib.axis_1">
    <g id="xtick_1">
     <g id="line2d_1">
      <path d="M 73.832727 307.584 
L 73.832727 41.472 
" clip-path="url(#p100eb8d8ed)" style="fill: none; stroke: #b0b0b0; stroke-width: 0.8; stroke-linecap: square"/>
     </g>
     <g id="line2d_2">
      <defs>
       <path id="m52fb76f91e" d="M 0 0 
L 0 3.5 
" style="stroke: #000000; stroke-width: 0.8"/>
      </defs>
      <g>
       <use xlink:href="#m52fb76f91e" x="73.832727" y="307.584" style="stroke: #000000; stroke-width: 0.8"/>
      </g>
     </g>
     <g id="text_1">
      <!-- 0 -->
      <g transform="translate(70.651477 322.182437) scale(0.1 -0.1)">
       <defs>
        <path id="DejaVuSans-30" d="M 2034 4250 
Q 1547 4250 1301 3770 
Q 1056 3291 1056 2328 
Q 1056 1369 1301 889 
Q 1547 409 2034 409 
Q 2525 409 2770 889 
Q 3016 1369 3016 2328 
Q 3016 3291 2770 3770 
Q 2525 4250 2034 4250 
z
M 2034 4750 
Q 2819 4750 3233 4129 
Q 3647 3509 3647 2328 
Q 3647 1150 3233 529 
Q 2819 -91 2034 -91 
Q 1250 -91 836 529 
Q 422 1150 422 2328 
Q 422 3509 836 4129 
Q 1250 4750 2034 4750 
z
" transform="scale(0.015625)"/>
       </defs>
       <use xlink:href="#DejaVuSans-30"/>
      </g>
     </g>
    </g>
    <g id="xtick_2">
     <g id="line2d_3">
      <path d="M 138.763636 307.584 
L 138.763636 41.472 
" clip-path="url(#p100eb8d8ed)" style="fill: none; stroke: #b0b0b0; stroke-width: 0.8; stroke-linecap: square"/>
     </g>
     <g id="line2d_4">
      <g>
       <use xlink:href="#m52fb76f91e" x="138.763636" y="307.584" style="stroke: #000000; stroke-width: 0.8"/>
      </g>
     </g>
     <g id="text_2">
      <!-- 20 -->
      <g transform="translate(132.401136 322.182437) scale(0.1 -0.1)">
       <defs>
        <path id="DejaVuSans-32" d="M 1228 531 
L 3431 531 
L 3431 0 
L 469 0 
L 469 531 
Q 828 903 1448 1529 
Q 2069 2156 2228 2338 
Q 2531 2678 2651 2914 
Q 2772 3150 2772 3378 
Q 2772 3750 2511 3984 
Q 2250 4219 1831 4219 
Q 1534 4219 1204 4116 
Q 875 4013 500 3803 
L 500 4441 
Q 881 4594 1212 4672 
Q 1544 4750 1819 4750 
Q 2544 4750 2975 4387 
Q 3406 4025 3406 3419 
Q 3406 3131 3298 2873 
Q 3191 2616 2906 2266 
Q 2828 2175 2409 1742 
Q 1991 1309 1228 531 
z
" transform="scale(0.015625)"/>
       </defs>
       <use xlink:href="#DejaVuSans-32"/>
       <use xlink:href="#DejaVuSans-30" x="63.623047"/>
      </g>
     </g>
    </g>
    <g id="xtick_3">
     <g id="line2d_5">
      <path d="M 203.694545 307.584 
L 203.694545 41.472 
" clip-path="url(#p100eb8d8ed)" style="fill: none; stroke: #b0b0b0; stroke-width: 0.8; stroke-linecap: square"/>
     </g>
     <g id="line2d_6">
      <g>
       <use xlink:href="#m52fb76f91e" x="203.694545" y="307.584" style="stroke: #000000; stroke-width: 0.8"/>
      </g>
     </g>
     <g id="text_3">
      <!-- 40 -->
      <g transform="translate(197.332045 322.182437) scale(0.1 -0.1)">
       <defs>
        <path id="DejaVuSans-34" d="M 2419 4116 
L 825 1625 
L 2419 1625 
L 2419 4116 
z
M 2253 4666 
L 3047 4666 
L 3047 1625 
L 3713 1625 
L 3713 1100 
L 3047 1100 
L 3047 0 
L 2419 0 
L 2419 1100 
L 313 1100 
L 313 1709 
L 2253 4666 
z
" transform="scale(0.015625)"/>
       </defs>
       <use xlink:href="#DejaVuSans-34"/>
       <use xlink:href="#DejaVuSans-30" x="63.623047"/>
      </g>
     </g>
    </g>
    <g id="xtick_4">
     <g id="line2d_7">
      <path d="M 268.625455 307.584 
L 268.625455 41.472 
" clip-path="url(#p100eb8d8ed)" style="fill: none; stroke: #b0b0b0; stroke-width: 0.8; stroke-linecap: square"/>
     </g>
     <g id="line2d_8">
      <g>
       <use xlink:href="#m52fb76f91e" x="268.625455" y="307.584" style="stroke: #000000; stroke-width: 0.8"/>
      </g>
     </g>
     <g id="text_4">
      <!-- 60 -->
      <g transform="translate(262.262955 322.182437) scale(0.1 -0.1)">
       <defs>
        <path id="DejaVuSans-36" d="M 2113 2584 
Q 1688 2584 1439 2293 
Q 1191 2003 1191 1497 
Q 1191 994 1439 701 
Q 1688 409 2113 409 
Q 2538 409 2786 701 
Q 3034 994 3034 1497 
Q 3034 2003 2786 2293 
Q 2538 2584 2113 2584 
z
M 3366 4563 
L 3366 3988 
Q 3128 4100 2886 4159 
Q 2644 4219 2406 4219 
Q 1781 4219 1451 3797 
Q 1122 3375 1075 2522 
Q 1259 2794 1537 2939 
Q 1816 3084 2150 3084 
Q 2853 3084 3261 2657 
Q 3669 2231 3669 1497 
Q 3669 778 3244 343 
Q 2819 -91 2113 -91 
Q 1303 -91 875 529 
Q 447 1150 447 2328 
Q 447 3434 972 4092 
Q 1497 4750 2381 4750 
Q 2619 4750 2861 4703 
Q 3103 4656 3366 4563 
z
" transform="scale(0.015625)"/>
       </defs>
       <use xlink:href="#DejaVuSans-36"/>
       <use xlink:href="#DejaVuSans-30" x="63.623047"/>
      </g>
     </g>
    </g>
    <g id="xtick_5">
     <g id="line2d_9">
      <path d="M 333.556364 307.584 
L 333.556364 41.472 
" clip-path="url(#p100eb8d8ed)" style="fill: none; stroke: #b0b0b0; stroke-width: 0.8; stroke-linecap: square"/>
     </g>
     <g id="line2d_10">
      <g>
       <use xlink:href="#m52fb76f91e" x="333.556364" y="307.584" style="stroke: #000000; stroke-width: 0.8"/>
      </g>
     </g>
     <g id="text_5">
      <!-- 80 -->
      <g transform="translate(327.193864 322.182437) scale(0.1 -0.1)">
       <defs>
        <path id="DejaVuSans-38" d="M 2034 2216 
Q 1584 2216 1326 1975 
Q 1069 1734 1069 1313 
Q 1069 891 1326 650 
Q 1584 409 2034 409 
Q 2484 409 2743 651 
Q 3003 894 3003 1313 
Q 3003 1734 2745 1975 
Q 2488 2216 2034 2216 
z
M 1403 2484 
Q 997 2584 770 2862 
Q 544 3141 544 3541 
Q 544 4100 942 4425 
Q 1341 4750 2034 4750 
Q 2731 4750 3128 4425 
Q 3525 4100 3525 3541 
Q 3525 3141 3298 2862 
Q 3072 2584 2669 2484 
Q 3125 2378 3379 2068 
Q 3634 1759 3634 1313 
Q 3634 634 3220 271 
Q 2806 -91 2034 -91 
Q 1263 -91 848 271 
Q 434 634 434 1313 
Q 434 1759 690 2068 
Q 947 2378 1403 2484 
z
M 1172 3481 
Q 1172 3119 1398 2916 
Q 1625 2713 2034 2713 
Q 2441 2713 2670 2916 
Q 2900 3119 2900 3481 
Q 2900 3844 2670 4047 
Q 2441 4250 2034 4250 
Q 1625 4250 1398 4047 
Q 1172 3844 1172 3481 
z
" transform="scale(0.015625)"/>
       </defs>
       <use xlink:href="#DejaVuSans-38"/>
       <use xlink:href="#DejaVuSans-30" x="63.623047"/>
      </g>
     </g>
    </g>
    <g id="xtick_6">
     <g id="line2d_11">
      <path d="M 398.487273 307.584 
L 398.487273 41.472 
" clip-path="url(#p100eb8d8ed)" style="fill: none; stroke: #b0b0b0; stroke-width: 0.8; stroke-linecap: square"/>
     </g>
     <g id="line2d_12">
      <g>
       <use xlink:href="#m52fb76f91e" x="398.487273" y="307.584" style="stroke: #000000; stroke-width: 0.8"/>
      </g>
     </g>
     <g id="text_6">
      <!-- 100 -->
      <g transform="translate(388.943523 322.182437) scale(0.1 -0.1)">
       <defs>
        <path id="DejaVuSans-31" d="M 794 531 
L 1825 531 
L 1825 4091 
L 703 3866 
L 703 4441 
L 1819 4666 
L 2450 4666 
L 2450 531 
L 3481 531 
L 3481 0 
L 794 0 
L 794 531 
z
" transform="scale(0.015625)"/>
       </defs>
       <use xlink:href="#DejaVuSans-31"/>
       <use xlink:href="#DejaVuSans-30" x="63.623047"/>
       <use xlink:href="#DejaVuSans-30" x="127.246094"/>
      </g>
     </g>
    </g>
    <g id="text_7">
     <!-- Frequency [Hz] -->
     <g transform="translate(198.455312 335.860562) scale(0.1 -0.1)">
      <defs>
       <path id="DejaVuSans-46" d="M 628 4666 
L 3309 4666 
L 3309 4134 
L 1259 4134 
L 1259 2759 
L 3109 2759 
L 3109 2228 
L 1259 2228 
L 1259 0 
L 628 0 
L 628 4666 
z
" transform="scale(0.015625)"/>
       <path id="DejaVuSans-72" d="M 2631 2963 
Q 2534 3019 2420 3045 
Q 2306 3072 2169 3072 
Q 1681 3072 1420 2755 
Q 1159 2438 1159 1844 
L 1159 0 
L 581 0 
L 581 3500 
L 1159 3500 
L 1159 2956 
Q 1341 3275 1631 3429 
Q 1922 3584 2338 3584 
Q 2397 3584 2469 3576 
Q 2541 3569 2628 3553 
L 2631 2963 
z
" transform="scale(0.015625)"/>
       <path id="DejaVuSans-65" d="M 3597 1894 
L 3597 1613 
L 953 1613 
Q 991 1019 1311 708 
Q 1631 397 2203 397 
Q 2534 397 2845 478 
Q 3156 559 3463 722 
L 3463 178 
Q 3153 47 2828 -22 
Q 2503 -91 2169 -91 
Q 1331 -91 842 396 
Q 353 884 353 1716 
Q 353 2575 817 3079 
Q 1281 3584 2069 3584 
Q 2775 3584 3186 3129 
Q 3597 2675 3597 1894 
z
M 3022 2063 
Q 3016 2534 2758 2815 
Q 2500 3097 2075 3097 
Q 1594 3097 1305 2825 
Q 1016 2553 972 2059 
L 3022 2063 
z
" transform="scale(0.015625)"/>
       <path id="DejaVuSans-71" d="M 947 1747 
Q 947 1113 1208 752 
Q 1469 391 1925 391 
Q 2381 391 2643 752 
Q 2906 1113 2906 1747 
Q 2906 2381 2643 2742 
Q 2381 3103 1925 3103 
Q 1469 3103 1208 2742 
Q 947 2381 947 1747 
z
M 2906 525 
Q 2725 213 2448 61 
Q 2172 -91 1784 -91 
Q 1150 -91 751 415 
Q 353 922 353 1747 
Q 353 2572 751 3078 
Q 1150 3584 1784 3584 
Q 2172 3584 2448 3432 
Q 2725 3281 2906 2969 
L 2906 3500 
L 3481 3500 
L 3481 -1331 
L 2906 -1331 
L 2906 525 
z
" transform="scale(0.015625)"/>
       <path id="DejaVuSans-75" d="M 544 1381 
L 544 3500 
L 1119 3500 
L 1119 1403 
Q 1119 906 1312 657 
Q 1506 409 1894 409 
Q 2359 409 2629 706 
Q 2900 1003 2900 1516 
L 2900 3500 
L 3475 3500 
L 3475 0 
L 2900 0 
L 2900 538 
Q 2691 219 2414 64 
Q 2138 -91 1772 -91 
Q 1169 -91 856 284 
Q 544 659 544 1381 
z
M 1991 3584 
L 1991 3584 
z
" transform="scale(0.015625)"/>
       <path id="DejaVuSans-6e" d="M 3513 2113 
L 3513 0 
L 2938 0 
L 2938 2094 
Q 2938 2591 2744 2837 
Q 2550 3084 2163 3084 
Q 1697 3084 1428 2787 
Q 1159 2491 1159 1978 
L 1159 0 
L 581 0 
L 581 3500 
L 1159 3500 
L 1159 2956 
Q 1366 3272 1645 3428 
Q 1925 3584 2291 3584 
Q 2894 3584 3203 3211 
Q 3513 2838 3513 2113 
z
" transform="scale(0.015625)"/>
       <path id="DejaVuSans-63" d="M 3122 3366 
L 3122 2828 
Q 2878 2963 2633 3030 
Q 2388 3097 2138 3097 
Q 1578 3097 1268 2742 
Q 959 2388 959 1747 
Q 959 1106 1268 751 
Q 1578 397 2138 397 
Q 2388 397 2633 464 
Q 2878 531 3122 666 
L 3122 134 
Q 2881 22 2623 -34 
Q 2366 -91 2075 -91 
Q 1284 -91 818 406 
Q 353 903 353 1747 
Q 353 2603 823 3093 
Q 1294 3584 2113 3584 
Q 2378 3584 2631 3529 
Q 2884 3475 3122 3366 
z
" transform="scale(0.015625)"/>
       <path id="DejaVuSans-79" d="M 2059 -325 
Q 1816 -950 1584 -1140 
Q 1353 -1331 966 -1331 
L 506 -1331 
L 506 -850 
L 844 -850 
Q 1081 -850 1212 -737 
Q 1344 -625 1503 -206 
L 1606 56 
L 191 3500 
L 800 3500 
L 1894 763 
L 2988 3500 
L 3597 3500 
L 2059 -325 
z
" transform="scale(0.015625)"/>
       <path id="DejaVuSans-20" transform="scale(0.015625)"/>
       <path id="DejaVuSans-5b" d="M 550 4863 
L 1875 4863 
L 1875 4416 
L 1125 4416 
L 1125 -397 
L 1875 -397 
L 1875 -844 
L 550 -844 
L 550 4863 
z
" transform="scale(0.015625)"/>
       <path id="DejaVuSans-48" d="M 628 4666 
L 1259 4666 
L 1259 2753 
L 3553 2753 
L 3553 4666 
L 4184 4666 
L 4184 0 
L 3553 0 
L 3553 2222 
L 1259 2222 
L 1259 0 
L 628 0 
L 628 4666 
z
" transform="scale(0.015625)"/>
       <path id="DejaVuSans-7a" d="M 353 3500 
L 3084 3500 
L 3084 2975 
L 922 459 
L 3084 459 
L 3084 0 
L 275 0 
L 275 525 
L 2438 3041 
L 353 3041 
L 353 3500 
z
" transform="scale(0.015625)"/>
       <path id="DejaVuSans-5d" d="M 1947 4863 
L 1947 -844 
L 622 -844 
L 622 -397 
L 1369 -397 
L 1369 4416 
L 622 4416 
L 622 4863 
L 1947 4863 
z
" transform="scale(0.015625)"/>
      </defs>
      <use xlink:href="#DejaVuSans-46"/>
      <use xlink:href="#DejaVuSans-72" x="50.269531"/>
      <use xlink:href="#DejaVuSans-65" x="89.132812"/>
      <use xlink:href="#DejaVuSans-71" x="150.65625"/>
      <use xlink:href="#DejaVuSans-75" x="214.132812"/>
      <use xlink:href="#DejaVuSans-65" x="277.511719"/>
      <use xlink:href="#DejaVuSans-6e" x="339.035156"/>
      <use xlink:href="#DejaVuSans-63" x="402.414062"/>
      <use xlink:href="#DejaVuSans-79" x="457.394531"/>
      <use xlink:href="#DejaVuSans-20" x="516.574219"/>
      <use xlink:href="#DejaVuSans-5b" x="548.361328"/>
      <use xlink:href="#DejaVuSans-48" x="587.375"/>
      <use xlink:href="#DejaVuSans-7a" x="662.570312"/>
      <use xlink:href="#DejaVuSans-5d" x="715.060547"/>
     </g>
    </g>
   </g>
   <g id="matplotlib.axis_2">
    <g id="ytick_1">
     <g id="line2d_13">
      <path d="M 57.6 300.582567 
L 414.72 300.582567 
" clip-path="url(#p100eb8d8ed)" style="fill: none; stroke: #b0b0b0; stroke-width: 0.8; stroke-linecap: square"/>
     </g>
     <g id="line2d_14">
      <defs>
       <path id="mf7acc221ba" d="M 0 0 
L -3.5 0 
" style="stroke: #000000; stroke-width: 0.8"/>
      </defs>
      <g>
       <use xlink:href="#mf7acc221ba" x="57.6" y="300.582567" style="stroke: #000000; stroke-width: 0.8"/>
      </g>
     </g>
     <g id="text_8">
      <!-- 0.00 -->
      <g transform="translate(28.334375 304.381786) scale(0.1 -0.1)">
       <defs>
        <path id="DejaVuSans-2e" d="M 684 794 
L 1344 794 
L 1344 0 
L 684 0 
L 684 794 
z
" transform="scale(0.015625)"/>
       </defs>
       <use xlink:href="#DejaVuSans-30"/>
       <use xlink:href="#DejaVuSans-2e" x="63.623047"/>
       <use xlink:href="#DejaVuSans-30" x="95.410156"/>
       <use xlink:href="#DejaVuSans-30" x="159.033203"/>
      </g>
     </g>
    </g>
    <g id="ytick_2">
     <g id="line2d_15">
      <path d="M 57.6 263.675849 
L 414.72 263.675849 
" clip-path="url(#p100eb8d8ed)" style="fill: none; stroke: #b0b0b0; stroke-width: 0.8; stroke-linecap: square"/>
     </g>
     <g id="line2d_16">
      <g>
       <use xlink:href="#mf7acc221ba" x="57.6" y="263.675849" style="stroke: #000000; stroke-width: 0.8"/>
      </g>
     </g>
     <g id="text_9">
      <!-- 0.05 -->
      <g transform="translate(28.334375 267.475068) scale(0.1 -0.1)">
       <defs>
        <path id="DejaVuSans-35" d="M 691 4666 
L 3169 4666 
L 3169 4134 
L 1269 4134 
L 1269 2991 
Q 1406 3038 1543 3061 
Q 1681 3084 1819 3084 
Q 2600 3084 3056 2656 
Q 3513 2228 3513 1497 
Q 3513 744 3044 326 
Q 2575 -91 1722 -91 
Q 1428 -91 1123 -41 
Q 819 9 494 109 
L 494 744 
Q 775 591 1075 516 
Q 1375 441 1709 441 
Q 2250 441 2565 725 
Q 2881 1009 2881 1497 
Q 2881 1984 2565 2268 
Q 2250 2553 1709 2553 
Q 1456 2553 1204 2497 
Q 953 2441 691 2322 
L 691 4666 
z
" transform="scale(0.015625)"/>
       </defs>
       <use xlink:href="#DejaVuSans-30"/>
       <use xlink:href="#DejaVuSans-2e" x="63.623047"/>
       <use xlink:href="#DejaVuSans-30" x="95.410156"/>
       <use xlink:href="#DejaVuSans-35" x="159.033203"/>
      </g>
     </g>
    </g>
    <g id="ytick_3">
     <g id="line2d_17">
      <path d="M 57.6 226.76913 
L 414.72 226.76913 
" clip-path="url(#p100eb8d8ed)" style="fill: none; stroke: #b0b0b0; stroke-width: 0.8; stroke-linecap: square"/>
     </g>
     <g id="line2d_18">
      <g>
       <use xlink:href="#mf7acc221ba" x="57.6" y="226.76913" style="stroke: #000000; stroke-width: 0.8"/>
      </g>
     </g>
     <g id="text_10">
      <!-- 0.10 -->
      <g transform="translate(28.334375 230.568349) scale(0.1 -0.1)">
       <use xlink:href="#DejaVuSans-30"/>
       <use xlink:href="#DejaVuSans-2e" x="63.623047"/>
       <use xlink:href="#DejaVuSans-31" x="95.410156"/>
       <use xlink:href="#DejaVuSans-30" x="159.033203"/>
      </g>
     </g>
    </g>
    <g id="ytick_4">
     <g id="line2d_19">
      <path d="M 57.6 189.862411 
L 414.72 189.862411 
" clip-path="url(#p100eb8d8ed)" style="fill: none; stroke: #b0b0b0; stroke-width: 0.8; stroke-linecap: square"/>
     </g>
     <g id="line2d_20">
      <g>
       <use xlink:href="#mf7acc221ba" x="57.6" y="189.862411" style="stroke: #000000; stroke-width: 0.8"/>
      </g>
     </g>
     <g id="text_11">
      <!-- 0.15 -->
      <g transform="translate(28.334375 193.66163) scale(0.1 -0.1)">
       <use xlink:href="#DejaVuSans-30"/>
       <use xlink:href="#DejaVuSans-2e" x="63.623047"/>
       <use xlink:href="#DejaVuSans-31" x="95.410156"/>
       <use xlink:href="#DejaVuSans-35" x="159.033203"/>
      </g>
     </g>
    </g>
    <g id="ytick_5">
     <g id="line2d_21">
      <path d="M 57.6 152.955693 
L 414.72 152.955693 
" clip-path="url(#p100eb8d8ed)" style="fill: none; stroke: #b0b0b0; stroke-width: 0.8; stroke-linecap: square"/>
     </g>
     <g id="line2d_22">
      <g>
       <use xlink:href="#mf7acc221ba" x="57.6" y="152.955693" style="stroke: #000000; stroke-width: 0.8"/>
      </g>
     </g>
     <g id="text_12">
      <!-- 0.20 -->
      <g transform="translate(28.334375 156.754912) scale(0.1 -0.1)">
       <use xlink:href="#DejaVuSans-30"/>
       <use xlink:href="#DejaVuSans-2e" x="63.623047"/>
       <use xlink:href="#DejaVuSans-32" x="95.410156"/>
       <use xlink:href="#DejaVuSans-30" x="159.033203"/>
      </g>
     </g>
    </g>
    <g id="ytick_6">
     <g id="line2d_23">
      <path d="M 57.6 116.048974 
L 414.72 116.048974 
" clip-path="url(#p100eb8d8ed)" style="fill: none; stroke: #b0b0b0; stroke-width: 0.8; stroke-linecap: square"/>
     </g>
     <g id="line2d_24">
      <g>
       <use xlink:href="#mf7acc221ba" x="57.6" y="116.048974" style="stroke: #000000; stroke-width: 0.8"/>
      </g>
     </g>
     <g id="text_13">
      <!-- 0.25 -->
      <g transform="translate(28.334375 119.848193) scale(0.1 -0.1)">
       <use xlink:href="#DejaVuSans-30"/>
       <use xlink:href="#DejaVuSans-2e" x="63.623047"/>
       <use xlink:href="#DejaVuSans-32" x="95.410156"/>
       <use xlink:href="#DejaVuSans-35" x="159.033203"/>
      </g>
     </g>
    </g>
    <g id="ytick_7">
     <g id="line2d_25">
      <path d="M 57.6 79.142255 
L 414.72 79.142255 
" clip-path="url(#p100eb8d8ed)" style="fill: none; stroke: #b0b0b0; stroke-width: 0.8; stroke-linecap: square"/>
     </g>
     <g id="line2d_26">
      <g>
       <use xlink:href="#mf7acc221ba" x="57.6" y="79.142255" style="stroke: #000000; stroke-width: 0.8"/>
      </g>
     </g>
     <g id="text_14">
      <!-- 0.30 -->
      <g transform="translate(28.334375 82.941474) scale(0.1 -0.1)">
       <defs>
        <path id="DejaVuSans-33" d="M 2597 2516 
Q 3050 2419 3304 2112 
Q 3559 1806 3559 1356 
Q 3559 666 3084 287 
Q 2609 -91 1734 -91 
Q 1441 -91 1130 -33 
Q 819 25 488 141 
L 488 750 
Q 750 597 1062 519 
Q 1375 441 1716 441 
Q 2309 441 2620 675 
Q 2931 909 2931 1356 
Q 2931 1769 2642 2001 
Q 2353 2234 1838 2234 
L 1294 2234 
L 1294 2753 
L 1863 2753 
Q 2328 2753 2575 2939 
Q 2822 3125 2822 3475 
Q 2822 3834 2567 4026 
Q 2313 4219 1838 4219 
Q 1578 4219 1281 4162 
Q 984 4106 628 3988 
L 628 4550 
Q 988 4650 1302 4700 
Q 1616 4750 1894 4750 
Q 2613 4750 3031 4423 
Q 3450 4097 3450 3541 
Q 3450 3153 3228 2886 
Q 3006 2619 2597 2516 
z
" transform="scale(0.015625)"/>
       </defs>
       <use xlink:href="#DejaVuSans-30"/>
       <use xlink:href="#DejaVuSans-2e" x="63.623047"/>
       <use xlink:href="#DejaVuSans-33" x="95.410156"/>
       <use xlink:href="#DejaVuSans-30" x="159.033203"/>
      </g>
     </g>
    </g>
    <g id="ytick_8">
     <g id="line2d_27">
      <path d="M 57.6 42.235537 
L 414.72 42.235537 
" clip-path="url(#p100eb8d8ed)" style="fill: none; stroke: #b0b0b0; stroke-width: 0.8; stroke-linecap: square"/>
     </g>
     <g id="line2d_28">
      <g>
       <use xlink:href="#mf7acc221ba" x="57.6" y="42.235537" style="stroke: #000000; stroke-width: 0.8"/>
      </g>
     </g>
     <g id="text_15">
      <!-- 0.35 -->
      <g transform="translate(28.334375 46.034755) scale(0.1 -0.1)">
       <use xlink:href="#DejaVuSans-30"/>
       <use xlink:href="#DejaVuSans-2e" x="63.623047"/>
       <use xlink:href="#DejaVuSans-33" x="95.410156"/>
       <use xlink:href="#DejaVuSans-35" x="159.033203"/>
      </g>
     </g>
    </g>
    <g id="text_16">
     <!-- Spectral Density ($m/s²  / \sqrt{Hz}$) -->
     <g transform="translate(22.234375 244.728) rotate(-90) scale(0.1 -0.1)">
      <defs>
       <path id="DejaVuSans-53" d="M 3425 4513 
L 3425 3897 
Q 3066 4069 2747 4153 
Q 2428 4238 2131 4238 
Q 1616 4238 1336 4038 
Q 1056 3838 1056 3469 
Q 1056 3159 1242 3001 
Q 1428 2844 1947 2747 
L 2328 2669 
Q 3034 2534 3370 2195 
Q 3706 1856 3706 1288 
Q 3706 609 3251 259 
Q 2797 -91 1919 -91 
Q 1588 -91 1214 -16 
Q 841 59 441 206 
L 441 856 
Q 825 641 1194 531 
Q 1563 422 1919 422 
Q 2459 422 2753 634 
Q 3047 847 3047 1241 
Q 3047 1584 2836 1778 
Q 2625 1972 2144 2069 
L 1759 2144 
Q 1053 2284 737 2584 
Q 422 2884 422 3419 
Q 422 4038 858 4394 
Q 1294 4750 2059 4750 
Q 2388 4750 2728 4690 
Q 3069 4631 3425 4513 
z
" transform="scale(0.015625)"/>
       <path id="DejaVuSans-70" d="M 1159 525 
L 1159 -1331 
L 581 -1331 
L 581 3500 
L 1159 3500 
L 1159 2969 
Q 1341 3281 1617 3432 
Q 1894 3584 2278 3584 
Q 2916 3584 3314 3078 
Q 3713 2572 3713 1747 
Q 3713 922 3314 415 
Q 2916 -91 2278 -91 
Q 1894 -91 1617 61 
Q 1341 213 1159 525 
z
M 3116 1747 
Q 3116 2381 2855 2742 
Q 2594 3103 2138 3103 
Q 1681 3103 1420 2742 
Q 1159 2381 1159 1747 
Q 1159 1113 1420 752 
Q 1681 391 2138 391 
Q 2594 391 2855 752 
Q 3116 1113 3116 1747 
z
" transform="scale(0.015625)"/>
       <path id="DejaVuSans-74" d="M 1172 4494 
L 1172 3500 
L 2356 3500 
L 2356 3053 
L 1172 3053 
L 1172 1153 
Q 1172 725 1289 603 
Q 1406 481 1766 481 
L 2356 481 
L 2356 0 
L 1766 0 
Q 1100 0 847 248 
Q 594 497 594 1153 
L 594 3053 
L 172 3053 
L 172 3500 
L 594 3500 
L 594 4494 
L 1172 4494 
z
" transform="scale(0.015625)"/>
       <path id="DejaVuSans-61" d="M 2194 1759 
Q 1497 1759 1228 1600 
Q 959 1441 959 1056 
Q 959 750 1161 570 
Q 1363 391 1709 391 
Q 2188 391 2477 730 
Q 2766 1069 2766 1631 
L 2766 1759 
L 2194 1759 
z
M 3341 1997 
L 3341 0 
L 2766 0 
L 2766 531 
Q 2569 213 2275 61 
Q 1981 -91 1556 -91 
Q 1019 -91 701 211 
Q 384 513 384 1019 
Q 384 1609 779 1909 
Q 1175 2209 1959 2209 
L 2766 2209 
L 2766 2266 
Q 2766 2663 2505 2880 
Q 2244 3097 1772 3097 
Q 1472 3097 1187 3025 
Q 903 2953 641 2809 
L 641 3341 
Q 956 3463 1253 3523 
Q 1550 3584 1831 3584 
Q 2591 3584 2966 3190 
Q 3341 2797 3341 1997 
z
" transform="scale(0.015625)"/>
       <path id="DejaVuSans-6c" d="M 603 4863 
L 1178 4863 
L 1178 0 
L 603 0 
L 603 4863 
z
" transform="scale(0.015625)"/>
       <path id="DejaVuSans-44" d="M 1259 4147 
L 1259 519 
L 2022 519 
Q 2988 519 3436 956 
Q 3884 1394 3884 2338 
Q 3884 3275 3436 3711 
Q 2988 4147 2022 4147 
L 1259 4147 
z
M 628 4666 
L 1925 4666 
Q 3281 4666 3915 4102 
Q 4550 3538 4550 2338 
Q 4550 1131 3912 565 
Q 3275 0 1925 0 
L 628 0 
L 628 4666 
z
" transform="scale(0.015625)"/>
       <path id="DejaVuSans-73" d="M 2834 3397 
L 2834 2853 
Q 2591 2978 2328 3040 
Q 2066 3103 1784 3103 
Q 1356 3103 1142 2972 
Q 928 2841 928 2578 
Q 928 2378 1081 2264 
Q 1234 2150 1697 2047 
L 1894 2003 
Q 2506 1872 2764 1633 
Q 3022 1394 3022 966 
Q 3022 478 2636 193 
Q 2250 -91 1575 -91 
Q 1294 -91 989 -36 
Q 684 19 347 128 
L 347 722 
Q 666 556 975 473 
Q 1284 391 1588 391 
Q 1994 391 2212 530 
Q 2431 669 2431 922 
Q 2431 1156 2273 1281 
Q 2116 1406 1581 1522 
L 1381 1569 
Q 847 1681 609 1914 
Q 372 2147 372 2553 
Q 372 3047 722 3315 
Q 1072 3584 1716 3584 
Q 2034 3584 2315 3537 
Q 2597 3491 2834 3397 
z
" transform="scale(0.015625)"/>
       <path id="DejaVuSans-69" d="M 603 3500 
L 1178 3500 
L 1178 0 
L 603 0 
L 603 3500 
z
M 603 4863 
L 1178 4863 
L 1178 4134 
L 603 4134 
L 603 4863 
z
" transform="scale(0.015625)"/>
       <path id="DejaVuSans-28" d="M 1984 4856 
Q 1566 4138 1362 3434 
Q 1159 2731 1159 2009 
Q 1159 1288 1364 580 
Q 1569 -128 1984 -844 
L 1484 -844 
Q 1016 -109 783 600 
Q 550 1309 550 2009 
Q 550 2706 781 3412 
Q 1013 4119 1484 4856 
L 1984 4856 
z
" transform="scale(0.015625)"/>
       <path id="DejaVuSans-Oblique-6d" d="M 5747 2113 
L 5338 0 
L 4763 0 
L 5166 2094 
Q 5191 2228 5203 2325 
Q 5216 2422 5216 2491 
Q 5216 2772 5059 2928 
Q 4903 3084 4622 3084 
Q 4203 3084 3875 2770 
Q 3547 2456 3450 1953 
L 3066 0 
L 2491 0 
L 2900 2094 
Q 2925 2209 2937 2307 
Q 2950 2406 2950 2484 
Q 2950 2769 2794 2926 
Q 2638 3084 2363 3084 
Q 1938 3084 1609 2770 
Q 1281 2456 1184 1953 
L 800 0 
L 225 0 
L 909 3500 
L 1484 3500 
L 1375 2956 
Q 1609 3263 1923 3423 
Q 2238 3584 2597 3584 
Q 2978 3584 3223 3384 
Q 3469 3184 3519 2828 
Q 3781 3197 4126 3390 
Q 4472 3584 4856 3584 
Q 5306 3584 5551 3325 
Q 5797 3066 5797 2591 
Q 5797 2488 5784 2364 
Q 5772 2241 5747 2113 
z
" transform="scale(0.015625)"/>
       <path id="DejaVuSans-2f" d="M 1625 4666 
L 2156 4666 
L 531 -594 
L 0 -594 
L 1625 4666 
z
" transform="scale(0.015625)"/>
       <path id="DejaVuSans-Oblique-73" d="M 3200 3397 
L 3091 2853 
Q 2863 2978 2609 3040 
Q 2356 3103 2088 3103 
Q 1634 3103 1373 2948 
Q 1113 2794 1113 2528 
Q 1113 2219 1719 2053 
Q 1766 2041 1788 2034 
L 1972 1978 
Q 2547 1819 2739 1644 
Q 2931 1469 2931 1166 
Q 2931 609 2489 259 
Q 2047 -91 1331 -91 
Q 1053 -91 747 -37 
Q 441 16 72 128 
L 184 722 
Q 500 559 806 475 
Q 1113 391 1394 391 
Q 1816 391 2080 572 
Q 2344 753 2344 1031 
Q 2344 1331 1650 1516 
L 1591 1531 
L 1394 1581 
Q 956 1697 753 1886 
Q 550 2075 550 2369 
Q 550 2928 970 3256 
Q 1391 3584 2113 3584 
Q 2397 3584 2667 3537 
Q 2938 3491 3200 3397 
z
" transform="scale(0.015625)"/>
       <path id="DejaVuSans-b2" d="M 838 2444 
L 2163 2444 
L 2163 2088 
L 294 2088 
L 294 2431 
Q 400 2528 597 2703 
Q 1672 3656 1672 3950 
Q 1672 4156 1509 4282 
Q 1347 4409 1081 4409 
Q 919 4409 728 4354 
Q 538 4300 313 4191 
L 313 4575 
Q 553 4663 761 4706 
Q 969 4750 1147 4750 
Q 1600 4750 1872 4544 
Q 2144 4338 2144 4000 
Q 2144 3566 1109 2678 
Q 934 2528 838 2444 
z
" transform="scale(0.015625)"/>
       <path id="STIXSizeOneSym-Regular-221a" d="M 6970 9933 
L 3373 -1888 
L 3104 -1888 
L 1626 2918 
Q 1555 3149 1465 3251 
Q 1376 3354 1229 3354 
Q 1011 3354 794 3181 
L 717 3309 
L 1766 4115 
L 1926 4115 
L 3379 -602 
L 3405 -602 
L 6605 9933 
L 6970 9933 
z
" transform="scale(0.015625)"/>
       <path id="DejaVuSans-Oblique-48" d="M 1081 4666 
L 1716 4666 
L 1344 2753 
L 3634 2753 
L 4006 4666 
L 4641 4666 
L 3731 0 
L 3097 0 
L 3531 2222 
L 1241 2222 
L 806 0 
L 172 0 
L 1081 4666 
z
" transform="scale(0.015625)"/>
       <path id="DejaVuSans-Oblique-7a" d="M 744 3500 
L 3475 3500 
L 3372 2975 
L 738 459 
L 2913 459 
L 2822 0 
L -19 0 
L 84 525 
L 2719 3041 
L 653 3041 
L 744 3500 
z
" transform="scale(0.015625)"/>
       <path id="DejaVuSans-29" d="M 513 4856 
L 1013 4856 
Q 1481 4119 1714 3412 
Q 1947 2706 1947 2009 
Q 1947 1309 1714 600 
Q 1481 -109 1013 -844 
L 513 -844 
Q 928 -128 1133 580 
Q 1338 1288 1338 2009 
Q 1338 2731 1133 3434 
Q 928 4138 513 4856 
z
" transform="scale(0.015625)"/>
      </defs>
      <use xlink:href="#DejaVuSans-53" transform="translate(0 0.578125)"/>
      <use xlink:href="#DejaVuSans-70" transform="translate(63.476562 0.578125)"/>
      <use xlink:href="#DejaVuSans-65" transform="translate(126.953125 0.578125)"/>
      <use xlink:href="#DejaVuSans-63" transform="translate(188.476562 0.578125)"/>
      <use xlink:href="#DejaVuSans-74" transform="translate(243.457031 0.578125)"/>
      <use xlink:href="#DejaVuSans-72" transform="translate(282.666016 0.578125)"/>
      <use xlink:href="#DejaVuSans-61" transform="translate(323.779297 0.578125)"/>
      <use xlink:href="#DejaVuSans-6c" transform="translate(385.058594 0.578125)"/>
      <use xlink:href="#DejaVuSans-20" transform="translate(412.841797 0.578125)"/>
      <use xlink:href="#DejaVuSans-44" transform="translate(444.628906 0.578125)"/>
      <use xlink:href="#DejaVuSans-65" transform="translate(521.630859 0.578125)"/>
      <use xlink:href="#DejaVuSans-6e" transform="translate(583.154297 0.578125)"/>
      <use xlink:href="#DejaVuSans-73" transform="translate(646.533203 0.578125)"/>
      <use xlink:href="#DejaVuSans-69" transform="translate(698.632812 0.578125)"/>
      <use xlink:href="#DejaVuSans-74" transform="translate(726.416016 0.578125)"/>
      <use xlink:href="#DejaVuSans-79" transform="translate(765.625 0.578125)"/>
      <use xlink:href="#DejaVuSans-20" transform="translate(824.804688 0.578125)"/>
      <use xlink:href="#DejaVuSans-28" transform="translate(856.591797 0.578125)"/>
      <use xlink:href="#DejaVuSans-Oblique-6d" transform="translate(895.605469 0.578125)"/>
      <use xlink:href="#DejaVuSans-2f" transform="translate(993.017578 0.578125)"/>
      <use xlink:href="#DejaVuSans-Oblique-73" transform="translate(1026.708984 0.578125)"/>
      <use xlink:href="#DejaVuSans-b2" transform="translate(1078.808594 0.578125)"/>
      <use xlink:href="#DejaVuSans-2f" transform="translate(1118.896484 0.578125)"/>
      <use xlink:href="#STIXSizeOneSym-Regular-221a" transform="translate(1152.587891 17.09375) scale(0.563912)"/>
      <use xlink:href="#DejaVuSans-Oblique-48" transform="translate(1224.676254 0.84375)"/>
      <use xlink:href="#DejaVuSans-Oblique-7a" transform="translate(1299.871567 0.84375)"/>
      <use xlink:href="#DejaVuSans-29" transform="translate(1364.861801 0.578125)"/>
      <path d="M 1212.176254 97.5 
L 1212.176254 103.75 
L 1364.861801 103.75 
L 1364.861801 97.5 
L 1212.176254 97.5 
z
"/>
     </g>
    </g>
   </g>
   <g id="line2d_29">
    <path d="M 73.832727 289.384248 
L 74.466818 266.831733 
L 75.100909 271.683247 
L 75.735 282.200354 
L 76.369091 285.123431 
L 77.003182 286.227713 
L 77.637273 289.637299 
L 78.271364 290.4275 
L 78.905455 291.749052 
L 79.539545 291.047211 
L 80.173636 291.355017 
L 80.807727 292.372636 
L 82.075909 293.048816 
L 83.344091 294.753263 
L 83.978182 295.147918 
L 84.612273 294.815754 
L 85.246364 293.646251 
L 85.880455 293.310585 
L 86.514545 293.621073 
L 87.148636 293.417255 
L 88.416818 293.524021 
L 89.050909 292.896542 
L 90.319091 293.901686 
L 90.953182 291.056538 
L 92.221364 292.285696 
L 93.489545 292.401606 
L 95.391818 290.809301 
L 96.025909 291.559891 
L 96.66 292.092549 
L 97.928182 291.805105 
L 98.562273 292.253806 
L 99.196364 291.570673 
L 99.830455 292.067729 
L 100.464545 291.852081 
L 101.098636 290.598967 
L 101.732727 291.248398 
L 102.366818 291.549479 
L 103.000909 291.28197 
L 103.635 292.662211 
L 104.269091 291.417923 
L 104.903182 289.5716 
L 105.537273 287.123681 
L 106.171364 287.422673 
L 106.805455 286.592687 
L 107.439545 283.989568 
L 108.073636 283.603838 
L 108.707727 281.057484 
L 109.341818 277.307438 
L 109.975909 277.399679 
L 110.61 276.075753 
L 111.244091 269.512357 
L 111.878182 271.934961 
L 112.512273 270.626846 
L 113.780455 266.153927 
L 114.414545 273.705563 
L 115.048636 270.32847 
L 115.682727 258.803522 
L 116.316818 261.830155 
L 116.950909 265.991539 
L 117.585 264.465818 
L 118.219091 267.978612 
L 118.853182 269.223613 
L 119.487273 264.895246 
L 120.121364 265.279548 
L 121.389545 275.039312 
L 122.023636 268.544325 
L 122.657727 266.693012 
L 123.291818 268.911594 
L 123.925909 269.991811 
L 124.56 268.788785 
L 125.194091 266.610311 
L 125.828182 271.165337 
L 127.096364 269.417178 
L 127.730455 271.350785 
L 128.364545 267.831142 
L 128.998636 266.447116 
L 129.632727 265.357127 
L 130.266818 267.442327 
L 130.900909 266.727805 
L 131.535 267.095377 
L 132.169091 273.701233 
L 132.803182 274.956553 
L 133.437273 267.121575 
L 134.071364 264.443717 
L 134.705455 266.426933 
L 135.973636 272.246318 
L 136.607727 268.893795 
L 137.241818 272.307262 
L 137.875909 273.130764 
L 138.51 271.6462 
L 139.144091 272.286213 
L 139.778182 264.721405 
L 140.412273 259.618542 
L 141.046364 268.278429 
L 141.680455 273.944593 
L 142.314545 269.109575 
L 143.582727 275.013954 
L 144.216818 274.380618 
L 144.850909 274.091143 
L 145.485 277.841813 
L 146.119091 273.958477 
L 146.753182 274.462513 
L 147.387273 275.349317 
L 148.021364 272.946627 
L 148.655455 267.299606 
L 149.289545 266.0319 
L 149.923636 271.249196 
L 150.557727 271.054976 
L 151.191818 267.853345 
L 151.825909 272.263144 
L 152.46 274.29028 
L 153.094091 270.836575 
L 153.728182 270.657265 
L 154.362273 269.407205 
L 154.996364 269.627693 
L 155.630455 269.157143 
L 156.264545 270.541338 
L 157.532727 262.956718 
L 158.166818 269.764287 
L 158.800909 271.052408 
L 159.435 271.00296 
L 160.069091 272.058429 
L 160.703182 268.542621 
L 161.337273 268.952186 
L 161.971364 270.252882 
L 162.605455 263.626145 
L 163.239545 265.127278 
L 163.873636 267.524983 
L 164.507727 273.010319 
L 165.141818 275.538549 
L 165.775909 274.621757 
L 166.41 274.048605 
L 167.044091 276.674097 
L 167.678182 274.912621 
L 168.312273 272.69731 
L 168.946364 274.25285 
L 169.580455 277.298391 
L 170.214545 276.092102 
L 170.848636 271.418992 
L 171.482727 271.649927 
L 172.750909 273.375182 
L 173.385 273.715016 
L 174.019091 269.016385 
L 174.653182 274.636498 
L 175.287273 268.267906 
L 175.921364 265.788035 
L 176.555455 273.316827 
L 177.189545 271.827303 
L 177.823636 271.242998 
L 178.457727 271.656444 
L 179.091818 269.152863 
L 179.725909 272.115406 
L 180.36 272.145962 
L 180.994091 272.924721 
L 181.628182 265.837993 
L 182.262273 265.480445 
L 182.896364 271.556695 
L 184.164545 259.60071 
L 184.798636 261.118924 
L 185.432727 265.9472 
L 186.066818 269.312914 
L 186.700909 269.56768 
L 187.969091 265.69324 
L 188.603182 268.178911 
L 189.237273 268.629047 
L 189.871364 270.396315 
L 191.139545 262.592657 
L 191.773636 262.565225 
L 192.407727 266.478349 
L 193.041818 267.570932 
L 193.675909 264.618592 
L 194.31 264.787106 
L 194.944091 268.433296 
L 195.578182 269.808941 
L 196.212273 258.956424 
L 196.846364 259.772483 
L 197.480455 263.437271 
L 198.114545 266.348883 
L 198.748636 262.564251 
L 199.382727 262.082102 
L 200.016818 265.04251 
L 200.650909 269.575812 
L 201.285 266.229839 
L 201.919091 264.50016 
L 202.553182 268.231731 
L 203.187273 275.793562 
L 204.455455 269.365799 
L 205.089545 261.535634 
L 205.723636 263.350572 
L 206.357727 267.099501 
L 206.991818 265.223957 
L 207.625909 267.351565 
L 208.26 266.264826 
L 208.894091 267.510763 
L 209.528182 265.166172 
L 210.162273 267.135782 
L 210.796364 268.533432 
L 211.430455 270.231665 
L 212.064545 270.401435 
L 212.698636 268.081845 
L 213.332727 272.860893 
L 213.966818 270.643351 
L 214.600909 267.80203 
L 215.235 269.033532 
L 215.869091 270.626213 
L 216.503182 271.395283 
L 217.137273 270.537129 
L 217.771364 274.253171 
L 218.405455 271.727844 
L 219.039545 270.820623 
L 219.673636 264.609996 
L 220.307727 265.846655 
L 220.941818 270.741873 
L 221.575909 273.626255 
L 222.21 275.302537 
L 222.844091 270.248651 
L 223.478182 270.846006 
L 224.112273 267.13365 
L 224.746364 267.200005 
L 225.380455 272.516908 
L 226.014545 272.017268 
L 227.282727 260.473879 
L 227.916818 260.050997 
L 228.550909 263.515629 
L 229.185 269.618887 
L 229.819091 270.708311 
L 230.453182 269.344503 
L 231.087273 269.642336 
L 231.721364 269.265156 
L 232.355455 261.524889 
L 232.989545 260.180385 
L 233.623636 260.529316 
L 234.257727 251.538714 
L 234.891818 249.389966 
L 235.525909 255.305637 
L 236.16 247.031889 
L 237.428182 260.990861 
L 238.062273 259.767412 
L 238.696364 259.570486 
L 239.330455 266.673397 
L 239.964545 266.005539 
L 240.598636 266.816438 
L 241.232727 269.061585 
L 241.866818 275.097063 
L 242.500909 272.900667 
L 243.135 271.517591 
L 244.403182 272.906304 
L 245.037273 271.311767 
L 245.671364 274.79831 
L 246.305455 272.966814 
L 246.939545 272.481749 
L 247.573636 270.260897 
L 248.207727 269.363425 
L 248.841818 274.424774 
L 249.475909 272.892812 
L 250.11 269.754127 
L 250.744091 274.352999 
L 251.378182 274.108238 
L 252.012273 270.11599 
L 252.646364 268.511198 
L 253.280455 270.743923 
L 253.914545 273.850303 
L 254.548636 272.289349 
L 255.182727 270.404331 
L 255.816818 273.234216 
L 256.450909 271.292371 
L 257.085 272.610435 
L 257.719091 269.640889 
L 258.353182 269.234655 
L 258.987273 271.22729 
L 259.621364 273.974673 
L 260.255455 277.871009 
L 260.889545 274.156099 
L 261.523636 275.955763 
L 262.157727 275.039782 
L 262.791818 267.695498 
L 263.425909 266.962332 
L 264.06 274.307393 
L 264.694091 275.719095 
L 265.328182 272.885661 
L 265.962273 271.020755 
L 267.230455 273.962818 
L 267.864545 272.067433 
L 268.498636 268.209324 
L 269.132727 265.508047 
L 269.766818 268.463579 
L 270.400909 264.781068 
L 271.669091 271.183689 
L 272.303182 265.918665 
L 272.937273 270.178329 
L 274.205455 264.754152 
L 274.839545 257.157767 
L 275.473636 258.077825 
L 276.107727 259.637215 
L 276.741818 258.986042 
L 277.375909 255.720023 
L 278.644091 260.551747 
L 279.278182 257.848728 
L 279.912273 254.014071 
L 280.546364 260.605346 
L 281.180455 258.920254 
L 281.814545 256.325598 
L 282.448636 256.7901 
L 283.082727 256.389794 
L 283.716818 256.921446 
L 284.350909 248.194361 
L 284.985 245.056398 
L 285.619091 248.940082 
L 286.253182 242.106164 
L 286.887273 245.1893 
L 287.521364 244.871731 
L 288.155455 246.952994 
L 288.789545 247.070367 
L 289.423636 250.97976 
L 290.057727 257.061091 
L 290.691818 246.614197 
L 291.325909 251.389004 
L 291.96 250.618499 
L 292.594091 247.708493 
L 293.228182 253.673547 
L 293.862273 249.531568 
L 294.496364 237.954453 
L 295.130455 250.180361 
L 295.764545 252.316196 
L 296.398636 238.316183 
L 297.032727 236.606247 
L 297.666818 245.720221 
L 298.935 249.412837 
L 299.569091 245.956965 
L 300.203182 245.669827 
L 300.837273 244.782477 
L 302.105455 233.16141 
L 302.739545 233.005045 
L 303.373636 235.222196 
L 304.007727 234.958625 
L 304.641818 241.668177 
L 305.275909 249.952525 
L 305.91 247.667653 
L 306.544091 249.403182 
L 307.178182 247.469998 
L 307.812273 242.755283 
L 308.446364 244.510657 
L 309.080455 248.725339 
L 309.714545 245.346536 
L 310.982727 257.577956 
L 311.616818 254.277735 
L 312.250909 244.412565 
L 313.519091 240.732124 
L 314.153182 244.660464 
L 314.787273 249.306585 
L 315.421364 260.569981 
L 316.055455 258.727441 
L 316.689545 255.505211 
L 317.323636 253.225186 
L 317.957727 254.679935 
L 318.591818 251.915133 
L 319.225909 260.70429 
L 319.86 259.179823 
L 320.494091 255.118705 
L 321.128182 255.443763 
L 321.762273 258.660705 
L 322.396364 263.425692 
L 323.030455 258.658495 
L 323.664545 261.341983 
L 324.298636 260.580083 
L 324.932727 250.707181 
L 325.566818 256.266347 
L 326.200909 257.677281 
L 326.835 259.893021 
L 327.469091 260.808259 
L 328.103182 259.974618 
L 328.737273 267.773009 
L 329.371364 272.372545 
L 330.005455 268.409362 
L 330.639545 267.379747 
L 331.273636 268.37555 
L 331.907727 267.968521 
L 332.541818 265.869691 
L 333.175909 262.654682 
L 333.81 263.116584 
L 334.444091 264.41181 
L 335.078182 263.84577 
L 335.712273 264.267444 
L 336.980455 268.893624 
L 337.614545 263.844957 
L 338.248636 261.076358 
L 338.882727 264.260815 
L 340.150909 268.226561 
L 340.785 267.017226 
L 341.419091 267.249477 
L 342.053182 270.875625 
L 342.687273 272.087516 
L 343.955455 269.408524 
L 344.589545 269.891357 
L 345.223636 267.567471 
L 345.857727 266.310865 
L 346.491818 266.703336 
L 347.125909 271.460097 
L 347.76 272.036191 
L 348.394091 270.244062 
L 349.028182 266.466257 
L 349.662273 268.501855 
L 350.296364 272.124764 
L 350.930455 271.64203 
L 352.198636 267.755278 
L 352.832727 268.077133 
L 353.466818 272.179056 
L 354.100909 273.747238 
L 354.735 274.659499 
L 355.369091 273.713488 
L 356.003182 275.360646 
L 356.637273 275.190366 
L 357.271364 277.632775 
L 357.905455 273.832515 
L 358.539545 276.418537 
L 359.173636 277.488423 
L 359.807727 276.25552 
L 360.441818 273.523206 
L 361.075909 274.561186 
L 361.71 274.473224 
L 362.344091 272.532593 
L 362.978182 274.878458 
L 363.612273 279.228233 
L 364.246364 279.715792 
L 364.880455 275.602725 
L 365.514545 277.375237 
L 366.148636 278.028814 
L 366.782727 274.544275 
L 367.416818 272.842979 
L 368.050909 274.244156 
L 368.685 277.81709 
L 369.319091 277.976243 
L 369.953182 277.031709 
L 370.587273 275.589562 
L 371.221364 276.191392 
L 371.855455 273.180535 
L 372.489545 275.655423 
L 373.123636 275.338773 
L 373.757727 273.633121 
L 374.391818 273.812745 
L 375.025909 278.253688 
L 375.66 281.52521 
L 376.294091 280.640989 
L 376.928182 277.383481 
L 377.562273 269.089259 
L 378.196364 270.664496 
L 378.830455 274.803534 
L 379.464545 274.06305 
L 380.098636 270.440699 
L 380.732727 272.068406 
L 381.366818 274.403669 
L 382.000909 273.549958 
L 382.635 274.002684 
L 383.269091 280.331288 
L 383.903182 283.8512 
L 384.537273 278.168508 
L 385.171364 275.408536 
L 385.805455 277.68761 
L 386.439545 276.788118 
L 387.707727 273.469807 
L 388.341818 273.67994 
L 388.975909 275.357487 
L 389.61 279.182665 
L 390.244091 273.306595 
L 390.878182 275.833205 
L 391.512273 280.558151 
L 392.146364 278.789671 
L 392.780455 278.278914 
L 394.048636 281.528337 
L 394.682727 280.679299 
L 395.316818 277.291793 
L 395.950909 276.16732 
L 396.585 279.697874 
L 397.219091 279.423215 
L 397.853182 275.650078 
L 398.487273 283.11345 
L 398.487273 283.11345 
" clip-path="url(#p100eb8d8ed)" style="fill: none; stroke: #1f77b4; stroke-width: 1.5; stroke-linecap: square"/>
   </g>
   <g id="line2d_30">
    <path d="M 73.832727 273.498722 
L 74.466818 218.749942 
L 75.100909 226.277292 
L 75.735 247.251754 
L 76.369091 263.387819 
L 77.003182 270.226788 
L 77.637273 272.55544 
L 78.271364 273.70494 
L 78.905455 279.289948 
L 79.539545 275.359173 
L 80.807727 271.028758 
L 81.441818 274.039454 
L 82.075909 279.635365 
L 82.71 276.034503 
L 83.344091 274.662119 
L 83.978182 275.924666 
L 84.612273 275.942253 
L 85.880455 273.157939 
L 87.782727 278.946534 
L 88.416818 281.307523 
L 89.050909 278.461279 
L 89.685 276.371905 
L 90.319091 278.052817 
L 90.953182 278.523566 
L 91.587273 276.901487 
L 92.221364 277.113665 
L 92.855455 281.903384 
L 93.489545 283.395058 
L 94.123636 283.385921 
L 94.757727 278.419076 
L 95.391818 271.864527 
L 96.025909 269.024374 
L 96.66 275.022893 
L 97.294091 277.444442 
L 97.928182 280.687748 
L 98.562273 279.053238 
L 99.196364 276.58005 
L 99.830455 275.464899 
L 100.464545 273.36155 
L 101.098636 273.085838 
L 101.732727 277.110583 
L 102.366818 274.624103 
L 103.000909 273.447597 
L 103.635 275.386973 
L 104.269091 272.466229 
L 104.903182 265.986234 
L 105.537273 263.612226 
L 106.171364 266.445407 
L 106.805455 259.827286 
L 107.439545 255.583842 
L 108.073636 253.267298 
L 108.707727 243.94041 
L 109.341818 226.354621 
L 109.975909 226.819295 
L 110.61 221.809559 
L 111.244091 197.113135 
L 111.878182 192.132522 
L 112.512273 192.268272 
L 113.146364 183.77409 
L 113.780455 173.6022 
L 114.414545 213.277302 
L 115.048636 185.341634 
L 115.682727 136.56165 
L 116.316818 141.009155 
L 116.950909 152.00377 
L 117.585 152.998231 
L 118.219091 173.356331 
L 118.853182 178.156431 
L 119.487273 154.509591 
L 120.121364 160.73472 
L 120.755455 164.827234 
L 121.389545 180.939271 
L 122.023636 156.337791 
L 122.657727 138.464267 
L 123.291818 169.159294 
L 123.925909 168.22033 
L 124.56 165.323291 
L 125.194091 147.250344 
L 125.828182 154.013778 
L 126.462273 171.963223 
L 127.096364 164.445215 
L 127.730455 161.285203 
L 128.364545 145.940394 
L 128.998636 133.665379 
L 129.632727 117.620367 
L 130.266818 115.356939 
L 130.900909 112.187553 
L 131.535 129.981498 
L 132.169091 156.200001 
L 132.803182 154.823757 
L 133.437273 120.801751 
L 134.071364 103.614429 
L 134.705455 109.262467 
L 135.339545 132.715876 
L 135.973636 136.079883 
L 136.607727 123.267854 
L 137.241818 128.137334 
L 137.875909 137.978333 
L 138.51 129.579505 
L 139.144091 130.38575 
L 140.412273 53.568 
L 141.046364 85.902289 
L 141.680455 138.812692 
L 142.314545 113.031471 
L 142.948636 127.430555 
L 143.582727 166.162233 
L 144.216818 163.111413 
L 144.850909 153.881188 
L 145.485 150.126891 
L 146.119091 138.804512 
L 146.753182 141.372126 
L 147.387273 138.802024 
L 148.021364 121.691859 
L 148.655455 97.896694 
L 149.289545 105.516393 
L 149.923636 138.548794 
L 150.557727 158.808379 
L 151.191818 163.069294 
L 151.825909 160.575515 
L 153.094091 127.570477 
L 153.728182 126.326492 
L 154.996364 156.3547 
L 155.630455 160.556162 
L 156.264545 190.527078 
L 156.898636 173.762576 
L 157.532727 165.255846 
L 158.166818 178.130636 
L 158.800909 177.920165 
L 159.435 179.39017 
L 160.069091 193.631754 
L 161.337273 160.305852 
L 161.971364 168.622047 
L 162.605455 149.441459 
L 163.239545 139.681152 
L 163.873636 157.801562 
L 164.507727 189.323797 
L 165.141818 169.436931 
L 166.41 183.168806 
L 167.044091 199.812359 
L 167.678182 192.058901 
L 168.312273 192.63172 
L 168.946364 195.368743 
L 169.580455 188.319058 
L 170.214545 188.635791 
L 170.848636 181.410511 
L 171.482727 197.990699 
L 172.116818 189.142856 
L 172.750909 201.71868 
L 173.385 198.991327 
L 174.019091 182.310143 
L 174.653182 178.312739 
L 175.287273 171.8792 
L 175.921364 159.568042 
L 176.555455 173.94036 
L 177.189545 172.679214 
L 177.823636 160.86144 
L 178.457727 175.921362 
L 179.091818 163.712787 
L 179.725909 148.38785 
L 180.36 168.382462 
L 180.994091 184.169892 
L 182.262273 164.387821 
L 182.896364 165.229613 
L 183.530455 156.853024 
L 184.164545 161.92941 
L 184.798636 175.592371 
L 185.432727 159.410901 
L 186.066818 149.138903 
L 186.700909 144.630204 
L 187.335 160.120897 
L 187.969091 149.644166 
L 188.603182 126.857317 
L 189.237273 146.330571 
L 189.871364 149.577372 
L 190.505455 141.414818 
L 191.139545 165.842955 
L 191.773636 176.584012 
L 192.407727 155.941219 
L 193.041818 154.469799 
L 193.675909 163.908732 
L 194.31 168.986397 
L 194.944091 172.699365 
L 195.578182 182.831119 
L 196.212273 184.970718 
L 196.846364 180.452146 
L 197.480455 180.610506 
L 198.114545 192.189849 
L 198.748636 191.067777 
L 199.382727 177.937976 
L 200.016818 178.99193 
L 200.650909 180.726287 
L 201.285 189.255251 
L 201.919091 203.096617 
L 202.553182 221.075364 
L 203.187273 213.339118 
L 204.455455 203.308587 
L 205.089545 211.442394 
L 205.723636 217.490746 
L 206.357727 206.076386 
L 206.991818 203.578634 
L 207.625909 205.294981 
L 208.26 215.492115 
L 208.894091 218.932331 
L 209.528182 215.12002 
L 210.162273 218.076675 
L 210.796364 214.108999 
L 211.430455 213.398187 
L 212.064545 219.347983 
L 212.698636 233.239446 
L 213.332727 237.374382 
L 213.966818 239.520405 
L 214.600909 248.644554 
L 215.235 252.865387 
L 215.869091 249.785796 
L 216.503182 245.456607 
L 217.137273 249.116981 
L 217.771364 239.870635 
L 218.405455 236.176502 
L 219.039545 252.66652 
L 220.307727 243.967203 
L 220.941818 242.93642 
L 221.575909 243.357455 
L 222.21 245.568687 
L 222.844091 238.356341 
L 223.478182 237.168405 
L 224.112273 243.538196 
L 224.746364 243.630873 
L 225.380455 244.795706 
L 226.014545 255.636754 
L 226.648636 247.798945 
L 227.916818 241.208956 
L 228.550909 243.183212 
L 229.185 250.108437 
L 229.819091 247.628068 
L 231.087273 253.197762 
L 231.721364 253.158138 
L 232.355455 245.840903 
L 232.989545 250.939776 
L 233.623636 248.57446 
L 234.257727 238.437217 
L 234.891818 230.924525 
L 235.525909 231.74104 
L 236.16 233.374231 
L 236.794091 255.174396 
L 237.428182 246.504007 
L 238.062273 235.906867 
L 238.696364 235.056783 
L 239.330455 239.831908 
L 239.964545 237.828386 
L 241.232727 233.138431 
L 242.500909 243.303468 
L 243.135 240.103603 
L 243.769091 241.222927 
L 244.403182 249.501717 
L 245.037273 253.596994 
L 245.671364 253.331086 
L 246.305455 245.01939 
L 246.939545 247.832316 
L 247.573636 238.734921 
L 248.207727 231.385018 
L 249.475909 250.661649 
L 250.11 250.760976 
L 250.744091 257.443066 
L 251.378182 258.078458 
L 252.646364 246.291637 
L 253.280455 255.552698 
L 253.914545 262.362095 
L 255.182727 254.721073 
L 255.816818 257.367655 
L 256.450909 255.901206 
L 257.085 261.151468 
L 257.719091 258.444133 
L 258.353182 264.114612 
L 258.987273 268.584746 
L 259.621364 263.248067 
L 260.255455 264.216598 
L 260.889545 267.469934 
L 261.523636 266.17813 
L 262.157727 264.527933 
L 262.791818 264.524878 
L 263.425909 262.431872 
L 264.06 266.678964 
L 264.694091 261.446761 
L 265.328182 258.941254 
L 265.962273 253.394397 
L 266.596364 255.317031 
L 267.230455 265.767211 
L 267.864545 262.570658 
L 268.498636 261.310643 
L 269.132727 264.084655 
L 269.766818 256.815959 
L 270.400909 255.170271 
L 271.035 249.569713 
L 271.669091 251.761082 
L 272.303182 266.514486 
L 272.937273 263.028847 
L 273.571364 262.758991 
L 274.205455 262.089674 
L 274.839545 255.944727 
L 275.473636 248.67544 
L 276.107727 246.233949 
L 276.741818 254.418121 
L 277.375909 257.744 
L 278.01 251.697545 
L 278.644091 251.063094 
L 279.278182 255.325137 
L 279.912273 255.056325 
L 280.546364 256.41569 
L 281.180455 246.252713 
L 281.814545 240.020549 
L 282.448636 248.392913 
L 283.082727 250.916579 
L 283.716818 246.344626 
L 284.350909 244.024839 
L 284.985 249.893114 
L 285.619091 249.999276 
L 286.253182 243.342188 
L 286.887273 245.855998 
L 287.521364 250.251761 
L 288.155455 256.844595 
L 288.789545 261.203485 
L 289.423636 260.607187 
L 290.057727 255.166582 
L 290.691818 247.324694 
L 291.96 245.978652 
L 292.594091 251.672695 
L 293.228182 252.088906 
L 293.862273 247.345528 
L 294.496364 245.679475 
L 295.130455 237.246528 
L 296.398636 249.954485 
L 297.032727 245.098248 
L 297.666818 253.717574 
L 298.300909 256.619871 
L 298.935 256.710592 
L 299.569091 253.344892 
L 300.203182 252.338144 
L 300.837273 249.090235 
L 301.471364 248.563107 
L 302.105455 248.296262 
L 302.739545 244.606943 
L 303.373636 254.709265 
L 304.007727 258.867809 
L 304.641818 248.478059 
L 305.275909 254.981527 
L 305.91 258.435362 
L 306.544091 259.511339 
L 307.178182 256.432059 
L 307.812273 258.840075 
L 308.446364 255.832803 
L 309.080455 255.145922 
L 309.714545 259.228846 
L 310.348636 264.839356 
L 310.982727 262.594758 
L 311.616818 259.318517 
L 312.250909 257.80853 
L 312.885 263.331507 
L 313.519091 261.613711 
L 314.153182 264.713097 
L 314.787273 258.092881 
L 315.421364 257.210731 
L 316.055455 262.01568 
L 316.689545 263.016521 
L 317.323636 257.093793 
L 317.957727 253.720865 
L 318.591818 256.595734 
L 319.225909 261.926265 
L 319.86 255.765104 
L 320.494091 263.368034 
L 321.128182 267.412967 
L 321.762273 264.631249 
L 322.396364 256.446081 
L 323.030455 252.33644 
L 323.664545 260.522056 
L 324.298636 266.67944 
L 324.932727 258.421202 
L 325.566818 259.675364 
L 326.200909 262.626755 
L 326.835 264.981654 
L 327.469091 264.874463 
L 328.103182 269.314747 
L 328.737273 269.102932 
L 329.371364 270.777311 
L 330.005455 275.943395 
L 330.639545 275.096096 
L 331.907727 267.866157 
L 332.541818 269.211779 
L 333.175909 268.128927 
L 333.81 266.618843 
L 334.444091 270.22716 
L 335.078182 272.439391 
L 335.712273 268.071411 
L 336.346364 267.067305 
L 336.980455 272.413218 
L 337.614545 268.626761 
L 338.248636 263.488611 
L 338.882727 263.432255 
L 339.516818 263.706877 
L 340.150909 266.426102 
L 340.785 267.22674 
L 341.419091 265.635745 
L 342.053182 264.644158 
L 342.687273 265.934051 
L 343.321364 266.743094 
L 343.955455 268.72847 
L 344.589545 265.334225 
L 345.223636 259.944483 
L 345.857727 263.78287 
L 346.491818 265.046605 
L 347.125909 266.590417 
L 347.76 270.710374 
L 348.394091 267.317183 
L 349.028182 261.0192 
L 349.662273 268.317679 
L 350.296364 273.42887 
L 350.930455 273.820881 
L 351.564545 264.942972 
L 352.198636 264.352338 
L 352.832727 268.044959 
L 353.466818 269.544305 
L 354.100909 272.766897 
L 354.735 266.421875 
L 355.369091 267.976625 
L 356.003182 268.886939 
L 356.637273 267.597354 
L 357.271364 266.990965 
L 357.905455 266.134883 
L 358.539545 269.272129 
L 359.807727 262.888529 
L 361.075909 261.448594 
L 361.71 264.082064 
L 362.344091 268.240947 
L 362.978182 264.291219 
L 363.612273 266.359982 
L 364.246364 266.900847 
L 364.880455 262.986078 
L 365.514545 266.260224 
L 366.148636 263.021943 
L 366.782727 261.555081 
L 367.416818 265.053392 
L 368.050909 261.979214 
L 368.685 264.986814 
L 369.319091 265.772538 
L 369.953182 265.199313 
L 370.587273 265.622964 
L 371.221364 260.132705 
L 371.855455 266.119261 
L 372.489545 265.921477 
L 373.123636 267.803898 
L 373.757727 267.504821 
L 375.025909 261.196168 
L 375.66 262.919761 
L 376.294091 267.198729 
L 376.928182 267.504231 
L 377.562273 263.128456 
L 378.196364 262.774496 
L 378.830455 267.610524 
L 379.464545 263.790181 
L 380.098636 258.834862 
L 380.732727 256.435873 
L 381.366818 257.231159 
L 382.000909 256.801951 
L 382.635 264.372045 
L 383.269091 266.377304 
L 383.903182 256.197266 
L 384.537273 260.062511 
L 385.171364 270.792852 
L 385.805455 264.4368 
L 386.439545 267.117747 
L 387.707727 261.054432 
L 388.341818 260.910204 
L 388.975909 262.485109 
L 389.61 261.13489 
L 390.244091 263.065544 
L 390.878182 259.703799 
L 391.512273 259.45528 
L 392.146364 263.316458 
L 392.780455 262.232277 
L 393.414545 258.516837 
L 394.048636 260.425603 
L 394.682727 256.136564 
L 395.316818 259.163274 
L 395.950909 266.349694 
L 396.585 261.633708 
L 397.219091 260.916751 
L 397.853182 263.181293 
L 398.487273 279.485499 
L 398.487273 279.485499 
" clip-path="url(#p100eb8d8ed)" style="fill: none; stroke: #ff7f0e; stroke-width: 1.5; stroke-linecap: square"/>
   </g>
   <g id="line2d_31">
    <path d="M 73.832727 291.389895 
L 74.466818 273.839109 
L 75.100909 279.99412 
L 75.735 288.467359 
L 76.369091 289.888876 
L 77.003182 290.637718 
L 78.271364 293.510759 
L 78.905455 293.245258 
L 79.539545 293.244756 
L 80.173636 292.666275 
L 80.807727 292.288465 
L 81.441818 291.618809 
L 82.075909 291.853725 
L 82.71 291.753552 
L 83.344091 291.977411 
L 83.978182 290.599174 
L 84.612273 291.134838 
L 85.246364 291.217225 
L 85.880455 292.071903 
L 86.514545 293.146652 
L 87.148636 292.915163 
L 87.782727 291.456307 
L 88.416818 292.526504 
L 89.050909 293.264656 
L 89.685 291.849591 
L 90.953182 293.851611 
L 91.587273 293.037192 
L 92.221364 291.473243 
L 92.855455 293.358971 
L 93.489545 293.280576 
L 94.123636 292.978109 
L 94.757727 292.936568 
L 95.391818 293.737003 
L 96.025909 293.550126 
L 96.66 292.636898 
L 97.294091 293.737017 
L 97.928182 294.014978 
L 98.562273 293.835927 
L 99.196364 294.235022 
L 99.830455 294.051625 
L 100.464545 294.500627 
L 101.098636 293.395907 
L 101.732727 293.998203 
L 102.366818 295.145295 
L 103.000909 295.488 
L 103.635 294.772114 
L 104.269091 293.228443 
L 104.903182 292.473843 
L 105.537273 292.369207 
L 106.171364 291.337524 
L 106.805455 290.678362 
L 107.439545 287.901727 
L 108.073636 287.651576 
L 108.707727 286.687482 
L 109.341818 283.477238 
L 109.975909 282.33482 
L 110.61 280.486292 
L 111.244091 275.553923 
L 111.878182 276.659187 
L 112.512273 276.069383 
L 113.146364 272.329059 
L 113.780455 270.623682 
L 114.414545 277.562806 
L 115.048636 272.234536 
L 115.682727 262.31516 
L 116.316818 263.312629 
L 116.950909 266.02207 
L 117.585 265.760007 
L 118.219091 267.729934 
L 118.853182 270.664378 
L 119.487273 266.206377 
L 120.121364 265.211467 
L 120.755455 268.763697 
L 121.389545 273.923497 
L 122.657727 262.894436 
L 123.291818 267.039508 
L 123.925909 267.279852 
L 124.56 265.976797 
L 125.194091 263.430987 
L 125.828182 267.17964 
L 126.462273 269.182323 
L 127.730455 264.290692 
L 128.998636 260.320536 
L 129.632727 254.362265 
L 130.266818 254.85141 
L 130.900909 252.049522 
L 132.169091 263.918795 
L 132.803182 263.83567 
L 133.437273 255.431208 
L 134.071364 251.616304 
L 134.705455 253.106183 
L 135.339545 259.127737 
L 135.973636 259.277683 
L 136.607727 255.12115 
L 137.241818 256.170876 
L 137.875909 258.775957 
L 138.51 257.356036 
L 139.144091 256.371497 
L 139.778182 243.740111 
L 140.412273 235.201462 
L 141.046364 244.953554 
L 141.680455 257.06645 
L 142.314545 252.508731 
L 142.948636 253.229733 
L 143.582727 259.766641 
L 144.216818 263.219523 
L 144.850909 259.785641 
L 145.485 260.36961 
L 146.119091 256.184818 
L 146.753182 255.10098 
L 147.387273 253.159101 
L 148.655455 244.682975 
L 149.289545 246.370646 
L 149.923636 255.082455 
L 150.557727 261.387279 
L 151.191818 258.274289 
L 151.825909 257.762812 
L 152.46 258.406365 
L 153.094091 253.942009 
L 153.728182 251.200899 
L 154.362273 257.090304 
L 154.996364 258.771458 
L 155.630455 256.092793 
L 156.264545 262.561472 
L 156.898636 263.056272 
L 157.532727 264.689684 
L 158.166818 263.532847 
L 158.800909 260.526035 
L 159.435 259.994286 
L 160.069091 263.053964 
L 160.703182 259.664043 
L 161.337273 260.146484 
L 161.971364 266.0662 
L 162.605455 261.326647 
L 163.239545 255.378118 
L 163.873636 260.640987 
L 164.507727 270.3719 
L 165.141818 269.919728 
L 165.775909 270.09023 
L 166.41 272.583289 
L 167.044091 272.910028 
L 167.678182 273.060716 
L 168.312273 272.721922 
L 168.946364 270.400355 
L 169.580455 270.90369 
L 170.214545 273.682161 
L 170.848636 269.129345 
L 171.482727 273.429835 
L 172.116818 272.45451 
L 172.750909 273.377387 
L 173.385 274.871942 
L 174.019091 272.545847 
L 174.653182 273.732186 
L 175.287273 270.983097 
L 175.921364 268.97372 
L 177.189545 273.094601 
L 177.823636 263.947423 
L 178.457727 264.653243 
L 179.091818 266.597965 
L 179.725909 263.546553 
L 180.36 262.789528 
L 180.994091 267.076048 
L 181.628182 270.050289 
L 182.262273 273.82375 
L 182.896364 269.438112 
L 184.164545 266.377931 
L 184.798636 262.063082 
L 185.432727 268.53249 
L 186.066818 263.401687 
L 186.700909 268.530087 
L 187.335 268.000384 
L 187.969091 256.629867 
L 188.603182 252.018217 
L 189.237273 264.645758 
L 189.871364 268.563689 
L 190.505455 268.483107 
L 191.139545 266.840003 
L 191.773636 269.852051 
L 192.407727 267.923939 
L 193.041818 269.056638 
L 193.675909 271.834498 
L 194.31 263.941791 
L 194.944091 262.575972 
L 195.578182 268.718435 
L 196.212273 269.914815 
L 196.846364 273.553722 
L 197.480455 274.973084 
L 198.114545 270.818899 
L 198.748636 267.964276 
L 199.382727 269.052498 
L 200.016818 270.859981 
L 200.650909 272.201466 
L 201.285 275.295275 
L 201.919091 274.93938 
L 202.553182 278.310471 
L 203.187273 280.516516 
L 203.821364 278.040823 
L 204.455455 276.497731 
L 205.089545 274.525706 
L 206.357727 279.293732 
L 206.991818 281.450032 
L 207.625909 276.36208 
L 208.26 278.936955 
L 208.894091 279.158796 
L 209.528182 275.766564 
L 210.162273 277.297823 
L 210.796364 275.083646 
L 212.698636 282.461795 
L 213.332727 282.831653 
L 213.966818 280.247934 
L 214.600909 279.178899 
L 215.235 281.522586 
L 215.869091 280.293934 
L 216.503182 278.331259 
L 217.137273 279.199501 
L 217.771364 281.505024 
L 218.405455 282.931049 
L 219.039545 280.806965 
L 219.673636 280.121878 
L 220.307727 280.111631 
L 220.941818 279.058998 
L 221.575909 278.272151 
L 222.21 283.628715 
L 223.478182 277.201258 
L 224.746364 276.012821 
L 225.380455 276.670524 
L 226.014545 276.10004 
L 226.648636 274.761978 
L 227.282727 268.326606 
L 227.916818 271.684374 
L 228.550909 278.803394 
L 229.185 279.187134 
L 229.819091 279.058269 
L 230.453182 280.840614 
L 231.721364 282.833516 
L 232.355455 280.023878 
L 232.989545 279.541252 
L 233.623636 280.033403 
L 234.257727 281.308825 
L 234.891818 281.889343 
L 235.525909 278.185066 
L 236.16 277.077736 
L 236.794091 278.858995 
L 237.428182 279.708467 
L 238.062273 281.771684 
L 238.696364 280.804893 
L 239.330455 281.009155 
L 239.964545 280.009528 
L 240.598636 277.996983 
L 241.232727 279.117405 
L 241.866818 276.421631 
L 242.500909 278.303295 
L 243.135 281.85807 
L 243.769091 282.204233 
L 244.403182 279.259079 
L 245.037273 278.739862 
L 245.671364 280.0812 
L 246.305455 279.258349 
L 246.939545 280.028029 
L 247.573636 279.3213 
L 248.207727 277.452621 
L 248.841818 278.195431 
L 249.475909 280.543597 
L 250.11 279.801805 
L 250.744091 281.061497 
L 251.378182 280.981643 
L 252.012273 280.006292 
L 252.646364 278.646721 
L 253.280455 278.706074 
L 253.914545 276.450907 
L 254.548636 279.56792 
L 255.182727 279.864726 
L 255.816818 275.491771 
L 257.085 278.493112 
L 257.719091 276.144861 
L 258.987273 281.032088 
L 259.621364 282.004427 
L 260.255455 282.595193 
L 260.889545 278.877675 
L 261.523636 279.804565 
L 262.157727 280.381907 
L 262.791818 277.823741 
L 263.425909 281.283088 
L 264.06 282.384811 
L 264.694091 281.402886 
L 265.328182 280.786921 
L 265.962273 280.729354 
L 266.596364 279.461833 
L 267.230455 279.434429 
L 267.864545 281.890855 
L 268.498636 285.100337 
L 269.766818 277.647312 
L 271.035 279.87475 
L 271.669091 278.001788 
L 272.303182 279.720975 
L 272.937273 279.469727 
L 273.571364 278.358409 
L 274.205455 276.757023 
L 274.839545 276.445027 
L 275.473636 275.308928 
L 276.107727 275.489335 
L 276.741818 275.990401 
L 277.375909 271.047985 
L 278.644091 274.226906 
L 279.278182 269.528386 
L 279.912273 269.560254 
L 280.546364 273.969478 
L 281.180455 271.31468 
L 281.814545 269.148002 
L 282.448636 275.605433 
L 283.082727 271.962683 
L 284.350909 267.132267 
L 284.985 260.965076 
L 285.619091 263.023135 
L 286.253182 266.920691 
L 287.521364 263.320572 
L 288.789545 267.605187 
L 289.423636 265.108262 
L 290.057727 267.717613 
L 290.691818 260.655137 
L 291.325909 259.930637 
L 291.96 264.741877 
L 292.594091 264.64291 
L 293.228182 261.282884 
L 293.862273 256.616096 
L 294.496364 253.789216 
L 295.130455 255.354674 
L 295.764545 260.46045 
L 296.398636 256.681338 
L 297.032727 256.000038 
L 297.666818 255.577129 
L 298.300909 253.702245 
L 298.935 253.40728 
L 299.569091 250.336746 
L 300.203182 250.819128 
L 300.837273 247.35882 
L 301.471364 248.1144 
L 302.105455 247.17885 
L 302.739545 248.247929 
L 303.373636 255.679253 
L 304.007727 249.268443 
L 304.641818 250.258951 
L 305.275909 260.689421 
L 305.91 260.673981 
L 306.544091 259.509242 
L 307.178182 253.837779 
L 307.812273 254.760854 
L 308.446364 256.051026 
L 309.080455 254.03623 
L 309.714545 250.428411 
L 310.348636 258.695729 
L 310.982727 259.805098 
L 311.616818 255.524862 
L 312.250909 245.182636 
L 312.885 251.259302 
L 313.519091 252.53341 
L 314.153182 250.985094 
L 314.787273 251.06543 
L 315.421364 261.070632 
L 316.055455 259.24409 
L 317.323636 254.602631 
L 317.957727 247.687307 
L 318.591818 242.123146 
L 319.225909 249.37945 
L 319.86 253.712628 
L 320.494091 249.147025 
L 321.128182 247.327909 
L 321.762273 239.54677 
L 322.396364 248.153534 
L 323.030455 249.941623 
L 323.664545 257.74696 
L 324.298636 256.490317 
L 324.932727 246.86239 
L 326.835 260.17957 
L 327.469091 255.960131 
L 328.103182 252.964579 
L 328.737273 254.689487 
L 329.371364 255.955572 
L 330.005455 253.990076 
L 330.639545 256.223263 
L 331.273636 249.880317 
L 331.907727 248.846626 
L 332.541818 256.724705 
L 333.175909 254.674226 
L 333.81 244.131493 
L 334.444091 247.200612 
L 335.078182 251.12927 
L 335.712273 241.470904 
L 336.346364 248.505406 
L 336.980455 248.714081 
L 337.614545 247.178912 
L 338.248636 244.458805 
L 338.882727 243.272107 
L 339.516818 243.316448 
L 340.150909 243.783933 
L 340.785 245.137429 
L 341.419091 249.241232 
L 342.053182 252.575804 
L 342.687273 242.746478 
L 343.321364 242.767663 
L 343.955455 244.228743 
L 344.589545 245.069537 
L 345.223636 238.123059 
L 345.857727 237.008591 
L 346.491818 242.094139 
L 347.125909 236.690805 
L 347.76 239.449465 
L 349.028182 252.131113 
L 349.662273 250.431457 
L 350.930455 231.074574 
L 351.564545 229.145847 
L 352.198636 231.027346 
L 352.832727 229.604445 
L 353.466818 245.500406 
L 354.100909 248.056997 
L 354.735 234.06486 
L 355.369091 233.178863 
L 356.003182 243.149495 
L 356.637273 243.198787 
L 357.271364 243.757574 
L 357.905455 238.142063 
L 358.539545 233.925134 
L 359.173636 236.323848 
L 359.807727 246.036766 
L 361.075909 248.689597 
L 361.71 240.378653 
L 362.344091 243.479727 
L 362.978182 250.826464 
L 363.612273 251.407147 
L 364.246364 247.432467 
L 364.880455 247.652507 
L 365.514545 244.450072 
L 366.148636 236.395928 
L 366.782727 241.320601 
L 368.050909 243.987443 
L 368.685 238.985424 
L 369.319091 231.260198 
L 369.953182 238.037155 
L 370.587273 246.530452 
L 371.221364 246.749998 
L 371.855455 242.401023 
L 372.489545 231.438593 
L 373.123636 237.273701 
L 373.757727 236.249796 
L 375.025909 230.928447 
L 375.66 230.856309 
L 376.294091 230.135062 
L 376.928182 238.672997 
L 377.562273 230.931674 
L 378.196364 233.609848 
L 378.830455 252.532256 
L 379.464545 242.894586 
L 380.098636 228.090992 
L 380.732727 239.01137 
L 381.366818 237.676897 
L 382.000909 226.828845 
L 383.269091 233.65767 
L 383.903182 234.864606 
L 384.537273 230.176952 
L 385.171364 223.079596 
L 385.805455 225.648691 
L 386.439545 231.279286 
L 387.073636 235.327269 
L 387.707727 233.861419 
L 388.975909 201.488191 
L 390.244091 223.661088 
L 390.878182 209.297541 
L 391.512273 209.419591 
L 392.146364 208.457261 
L 392.780455 210.303975 
L 393.414545 210.832213 
L 394.048636 210.584973 
L 395.316818 206.539212 
L 395.950909 212.832511 
L 396.585 214.697185 
L 397.219091 205.5408 
L 397.853182 201.341067 
L 398.487273 233.523071 
L 398.487273 233.523071 
" clip-path="url(#p100eb8d8ed)" style="fill: none; stroke: #2ca02c; stroke-width: 1.5; stroke-linecap: square"/>
   </g>
   <g id="patch_3">
    <path d="M 57.6 307.584 
L 57.6 41.472 
" style="fill: none; stroke: #000000; stroke-width: 0.8; stroke-linejoin: miter; stroke-linecap: square"/>
   </g>
   <g id="patch_4">
    <path d="M 414.72 307.584 
L 414.72 41.472 
" style="fill: none; stroke: #000000; stroke-width: 0.8; stroke-linejoin: miter; stroke-linecap: square"/>
   </g>
   <g id="patch_5">
    <path d="M 57.6 307.584 
L 414.72 307.584 
" style="fill: none; stroke: #000000; stroke-width: 0.8; stroke-linejoin: miter; stroke-linecap: square"/>
   </g>
   <g id="patch_6">
    <path d="M 57.6 41.472 
L 414.72 41.472 
" style="fill: none; stroke: #000000; stroke-width: 0.8; stroke-linejoin: miter; stroke-linecap: square"/>
   </g>
   <g id="text_17">
    <!-- Accelerometer Power Spectral Density -->
    <g transform="translate(121.022813 35.472) scale(0.12 -0.12)">
     <defs>
      <path id="DejaVuSans-41" d="M 2188 4044 
L 1331 1722 
L 3047 1722 
L 2188 4044 
z
M 1831 4666 
L 2547 4666 
L 4325 0 
L 3669 0 
L 3244 1197 
L 1141 1197 
L 716 0 
L 50 0 
L 1831 4666 
z
" transform="scale(0.015625)"/>
      <path id="DejaVuSans-6f" d="M 1959 3097 
Q 1497 3097 1228 2736 
Q 959 2375 959 1747 
Q 959 1119 1226 758 
Q 1494 397 1959 397 
Q 2419 397 2687 759 
Q 2956 1122 2956 1747 
Q 2956 2369 2687 2733 
Q 2419 3097 1959 3097 
z
M 1959 3584 
Q 2709 3584 3137 3096 
Q 3566 2609 3566 1747 
Q 3566 888 3137 398 
Q 2709 -91 1959 -91 
Q 1206 -91 779 398 
Q 353 888 353 1747 
Q 353 2609 779 3096 
Q 1206 3584 1959 3584 
z
" transform="scale(0.015625)"/>
      <path id="DejaVuSans-6d" d="M 3328 2828 
Q 3544 3216 3844 3400 
Q 4144 3584 4550 3584 
Q 5097 3584 5394 3201 
Q 5691 2819 5691 2113 
L 5691 0 
L 5113 0 
L 5113 2094 
Q 5113 2597 4934 2840 
Q 4756 3084 4391 3084 
Q 3944 3084 3684 2787 
Q 3425 2491 3425 1978 
L 3425 0 
L 2847 0 
L 2847 2094 
Q 2847 2600 2669 2842 
Q 2491 3084 2119 3084 
Q 1678 3084 1418 2786 
Q 1159 2488 1159 1978 
L 1159 0 
L 581 0 
L 581 3500 
L 1159 3500 
L 1159 2956 
Q 1356 3278 1631 3431 
Q 1906 3584 2284 3584 
Q 2666 3584 2933 3390 
Q 3200 3197 3328 2828 
z
" transform="scale(0.015625)"/>
      <path id="DejaVuSans-50" d="M 1259 4147 
L 1259 2394 
L 2053 2394 
Q 2494 2394 2734 2622 
Q 2975 2850 2975 3272 
Q 2975 3691 2734 3919 
Q 2494 4147 2053 4147 
L 1259 4147 
z
M 628 4666 
L 2053 4666 
Q 2838 4666 3239 4311 
Q 3641 3956 3641 3272 
Q 3641 2581 3239 2228 
Q 2838 1875 2053 1875 
L 1259 1875 
L 1259 0 
L 628 0 
L 628 4666 
z
" transform="scale(0.015625)"/>
      <path id="DejaVuSans-77" d="M 269 3500 
L 844 3500 
L 1563 769 
L 2278 3500 
L 2956 3500 
L 3675 769 
L 4391 3500 
L 4966 3500 
L 4050 0 
L 3372 0 
L 2619 2869 
L 1863 0 
L 1184 0 
L 269 3500 
z
" transform="scale(0.015625)"/>
     </defs>
     <use xlink:href="#DejaVuSans-41"/>
     <use xlink:href="#DejaVuSans-63" x="66.658203"/>
     <use xlink:href="#DejaVuSans-63" x="121.638672"/>
     <use xlink:href="#DejaVuSans-65" x="176.619141"/>
     <use xlink:href="#DejaVuSans-6c" x="238.142578"/>
     <use xlink:href="#DejaVuSans-65" x="265.925781"/>
     <use xlink:href="#DejaVuSans-72" x="327.449219"/>
     <use xlink:href="#DejaVuSans-6f" x="366.3125"/>
     <use xlink:href="#DejaVuSans-6d" x="427.494141"/>
     <use xlink:href="#DejaVuSans-65" x="524.90625"/>
     <use xlink:href="#DejaVuSans-74" x="586.429688"/>
     <use xlink:href="#DejaVuSans-65" x="625.638672"/>
     <use xlink:href="#DejaVuSans-72" x="687.162109"/>
     <use xlink:href="#DejaVuSans-20" x="728.275391"/>
     <use xlink:href="#DejaVuSans-50" x="760.0625"/>
     <use xlink:href="#DejaVuSans-6f" x="816.740234"/>
     <use xlink:href="#DejaVuSans-77" x="877.921875"/>
     <use xlink:href="#DejaVuSans-65" x="959.708984"/>
     <use xlink:href="#DejaVuSans-72" x="1021.232422"/>
     <use xlink:href="#DejaVuSans-20" x="1062.345703"/>
     <use xlink:href="#DejaVuSans-53" x="1094.132812"/>
     <use xlink:href="#DejaVuSans-70" x="1157.609375"/>
     <use xlink:href="#DejaVuSans-65" x="1221.085938"/>
     <use xlink:href="#DejaVuSans-63" x="1282.609375"/>
     <use xlink:href="#DejaVuSans-74" x="1337.589844"/>
     <use xlink:href="#DejaVuSans-72" x="1376.798828"/>
     <use xlink:href="#DejaVuSans-61" x="1417.912109"/>
     <use xlink:href="#DejaVuSans-6c" x="1479.191406"/>
     <use xlink:href="#DejaVuSans-20" x="1506.974609"/>
     <use xlink:href="#DejaVuSans-44" x="1538.761719"/>
     <use xlink:href="#DejaVuSans-65" x="1615.763672"/>
     <use xlink:href="#DejaVuSans-6e" x="1677.287109"/>
     <use xlink:href="#DejaVuSans-73" x="1740.666016"/>
     <use xlink:href="#DejaVuSans-69" x="1792.765625"/>
     <use xlink:href="#DejaVuSans-74" x="1820.548828"/>
     <use xlink:href="#DejaVuSans-79" x="1859.757812"/>
    </g>
   </g>
   <g id="legend_1">
    <g id="patch_7">
     <path d="M 363.673125 93.506375 
L 407.72 93.506375 
Q 409.72 93.506375 409.72 91.506375 
L 409.72 48.472 
Q 409.72 46.472 407.72 46.472 
L 363.673125 46.472 
Q 361.673125 46.472 361.673125 48.472 
L 361.673125 91.506375 
Q 361.673125 93.506375 363.673125 93.506375 
z
" style="fill: #ffffff; opacity: 0.8; stroke: #cccccc; stroke-linejoin: miter"/>
    </g>
    <g id="line2d_32">
     <path d="M 365.673125 54.570438 
L 375.673125 54.570438 
L 385.673125 54.570438 
" style="fill: none; stroke: #1f77b4; stroke-width: 1.5; stroke-linecap: square"/>
    </g>
    <g id="text_18">
     <!-- ax -->
     <g transform="translate(393.673125 58.070438) scale(0.1 -0.1)">
      <defs>
       <path id="DejaVuSans-78" d="M 3513 3500 
L 2247 1797 
L 3578 0 
L 2900 0 
L 1881 1375 
L 863 0 
L 184 0 
L 1544 1831 
L 300 3500 
L 978 3500 
L 1906 2253 
L 2834 3500 
L 3513 3500 
z
" transform="scale(0.015625)"/>
      </defs>
      <use xlink:href="#DejaVuSans-61"/>
      <use xlink:href="#DejaVuSans-78" x="61.279297"/>
     </g>
    </g>
    <g id="line2d_33">
     <path d="M 365.673125 69.248563 
L 375.673125 69.248563 
L 385.673125 69.248563 
" style="fill: none; stroke: #ff7f0e; stroke-width: 1.5; stroke-linecap: square"/>
    </g>
    <g id="text_19">
     <!-- ay -->
     <g transform="translate(393.673125 72.748563) scale(0.1 -0.1)">
      <use xlink:href="#DejaVuSans-61"/>
      <use xlink:href="#DejaVuSans-79" x="61.279297"/>
     </g>
    </g>
    <g id="line2d_34">
     <path d="M 365.673125 83.926688 
L 375.673125 83.926688 
L 385.673125 83.926688 
" style="fill: none; stroke: #2ca02c; stroke-width: 1.5; stroke-linecap: square"/>
    </g>
    <g id="text_20">
     <!-- az -->
     <g transform="translate(393.673125 87.426688) scale(0.1 -0.1)">
      <use xlink:href="#DejaVuSans-61"/>
      <use xlink:href="#DejaVuSans-7a" x="61.279297"/>
     </g>
    </g>
   </g>
  </g>
 </g>
 <defs>
  <clipPath id="p100eb8d8ed">
   <rect x="57.6" y="41.472" width="357.12" height="266.112"/>
  </clipPath>
 </defs>
</svg>
