<?xml version="1.0" encoding="utf-8" standalone="no"?>
<!DOCTYPE svg PUBLIC "-//W3C//DTD SVG 1.1//EN"
  "http://www.w3.org/Graphics/SVG/1.1/DTD/svg11.dtd">
<svg xmlns:xlink="http://www.w3.org/1999/xlink" width="460.8pt" height="345.6pt" viewBox="0 0 460.8 345.6" xmlns="http://www.w3.org/2000/svg" version="1.1">
 <metadata>
  <rdf:RDF xmlns:dc="http://purl.org/dc/elements/1.1/" xmlns:cc="http://creativecommons.org/ns#" xmlns:rdf="http://www.w3.org/1999/02/22-rdf-syntax-ns#">
   <cc:Work>
    <dc:type rdf:resource="http://purl.org/dc/dcmitype/StillImage"/>
    <dc:date>2024-06-04T11:43:56.696675</dc:date>
    <dc:format>image/svg+xml</dc:format>
    <dc:creator>
     <cc:Agent>
      <dc:title>Matplotlib v3.8.4, https://matplotlib.org/</dc:title>
     </cc:Agent>
    </dc:creator>
   </cc:Work>
  </rdf:RDF>
 </metadata>
 <defs>
  <style type="text/css">*{stroke-linejoin: round; stroke-linecap: butt}</style>
 </defs>
 <g id="figure_1">
  <g id="patch_1">
   <path d="M 0 345.6 
L 460.8 345.6 
L 460.8 0 
L 0 0 
z
" style="fill: #ffffff"/>
  </g>
  <g id="axes_1">
   <g id="patch_2">
    <path d="M 57.6 307.584 
L 414.72 307.584 
L 414.72 41.472 
L 57.6 41.472 
z
" style="fill: #ffffff"/>
   </g>
   <g id="matplotlib.axis_1">
    <g id="xtick_1">
     <g id="line2d_1">
      <path d="M 73.832727 307.584 
L 73.832727 41.472 
" clip-path="url(#p38093c5a12)" style="fill: none; stroke: #b0b0b0; stroke-width: 0.8; stroke-linecap: square"/>
     </g>
     <g id="line2d_2">
      <defs>
       <path id="m92674236b1" d="M 0 0 
L 0 3.5 
" style="stroke: #000000; stroke-width: 0.8"/>
      </defs>
      <g>
       <use xlink:href="#m92674236b1" x="73.832727" y="307.584" style="stroke: #000000; stroke-width: 0.8"/>
      </g>
     </g>
     <g id="text_1">
      <!-- 0 -->
      <g transform="translate(70.651477 322.182437) scale(0.1 -0.1)">
       <defs>
        <path id="DejaVuSans-30" d="M 2034 4250 
Q 1547 4250 1301 3770 
Q 1056 3291 1056 2328 
Q 1056 1369 1301 889 
Q 1547 409 2034 409 
Q 2525 409 2770 889 
Q 3016 1369 3016 2328 
Q 3016 3291 2770 3770 
Q 2525 4250 2034 4250 
z
M 2034 4750 
Q 2819 4750 3233 4129 
Q 3647 3509 3647 2328 
Q 3647 1150 3233 529 
Q 2819 -91 2034 -91 
Q 1250 -91 836 529 
Q 422 1150 422 2328 
Q 422 3509 836 4129 
Q 1250 4750 2034 4750 
z
" transform="scale(0.015625)"/>
       </defs>
       <use xlink:href="#DejaVuSans-30"/>
      </g>
     </g>
    </g>
    <g id="xtick_2">
     <g id="line2d_3">
      <path d="M 138.763636 307.584 
L 138.763636 41.472 
" clip-path="url(#p38093c5a12)" style="fill: none; stroke: #b0b0b0; stroke-width: 0.8; stroke-linecap: square"/>
     </g>
     <g id="line2d_4">
      <g>
       <use xlink:href="#m92674236b1" x="138.763636" y="307.584" style="stroke: #000000; stroke-width: 0.8"/>
      </g>
     </g>
     <g id="text_2">
      <!-- 20 -->
      <g transform="translate(132.401136 322.182437) scale(0.1 -0.1)">
       <defs>
        <path id="DejaVuSans-32" d="M 1228 531 
L 3431 531 
L 3431 0 
L 469 0 
L 469 531 
Q 828 903 1448 1529 
Q 2069 2156 2228 2338 
Q 2531 2678 2651 2914 
Q 2772 3150 2772 3378 
Q 2772 3750 2511 3984 
Q 2250 4219 1831 4219 
Q 1534 4219 1204 4116 
Q 875 4013 500 3803 
L 500 4441 
Q 881 4594 1212 4672 
Q 1544 4750 1819 4750 
Q 2544 4750 2975 4387 
Q 3406 4025 3406 3419 
Q 3406 3131 3298 2873 
Q 3191 2616 2906 2266 
Q 2828 2175 2409 1742 
Q 1991 1309 1228 531 
z
" transform="scale(0.015625)"/>
       </defs>
       <use xlink:href="#DejaVuSans-32"/>
       <use xlink:href="#DejaVuSans-30" x="63.623047"/>
      </g>
     </g>
    </g>
    <g id="xtick_3">
     <g id="line2d_5">
      <path d="M 203.694545 307.584 
L 203.694545 41.472 
" clip-path="url(#p38093c5a12)" style="fill: none; stroke: #b0b0b0; stroke-width: 0.8; stroke-linecap: square"/>
     </g>
     <g id="line2d_6">
      <g>
       <use xlink:href="#m92674236b1" x="203.694545" y="307.584" style="stroke: #000000; stroke-width: 0.8"/>
      </g>
     </g>
     <g id="text_3">
      <!-- 40 -->
      <g transform="translate(197.332045 322.182437) scale(0.1 -0.1)">
       <defs>
        <path id="DejaVuSans-34" d="M 2419 4116 
L 825 1625 
L 2419 1625 
L 2419 4116 
z
M 2253 4666 
L 3047 4666 
L 3047 1625 
L 3713 1625 
L 3713 1100 
L 3047 1100 
L 3047 0 
L 2419 0 
L 2419 1100 
L 313 1100 
L 313 1709 
L 2253 4666 
z
" transform="scale(0.015625)"/>
       </defs>
       <use xlink:href="#DejaVuSans-34"/>
       <use xlink:href="#DejaVuSans-30" x="63.623047"/>
      </g>
     </g>
    </g>
    <g id="xtick_4">
     <g id="line2d_7">
      <path d="M 268.625455 307.584 
L 268.625455 41.472 
" clip-path="url(#p38093c5a12)" style="fill: none; stroke: #b0b0b0; stroke-width: 0.8; stroke-linecap: square"/>
     </g>
     <g id="line2d_8">
      <g>
       <use xlink:href="#m92674236b1" x="268.625455" y="307.584" style="stroke: #000000; stroke-width: 0.8"/>
      </g>
     </g>
     <g id="text_4">
      <!-- 60 -->
      <g transform="translate(262.262955 322.182437) scale(0.1 -0.1)">
       <defs>
        <path id="DejaVuSans-36" d="M 2113 2584 
Q 1688 2584 1439 2293 
Q 1191 2003 1191 1497 
Q 1191 994 1439 701 
Q 1688 409 2113 409 
Q 2538 409 2786 701 
Q 3034 994 3034 1497 
Q 3034 2003 2786 2293 
Q 2538 2584 2113 2584 
z
M 3366 4563 
L 3366 3988 
Q 3128 4100 2886 4159 
Q 2644 4219 2406 4219 
Q 1781 4219 1451 3797 
Q 1122 3375 1075 2522 
Q 1259 2794 1537 2939 
Q 1816 3084 2150 3084 
Q 2853 3084 3261 2657 
Q 3669 2231 3669 1497 
Q 3669 778 3244 343 
Q 2819 -91 2113 -91 
Q 1303 -91 875 529 
Q 447 1150 447 2328 
Q 447 3434 972 4092 
Q 1497 4750 2381 4750 
Q 2619 4750 2861 4703 
Q 3103 4656 3366 4563 
z
" transform="scale(0.015625)"/>
       </defs>
       <use xlink:href="#DejaVuSans-36"/>
       <use xlink:href="#DejaVuSans-30" x="63.623047"/>
      </g>
     </g>
    </g>
    <g id="xtick_5">
     <g id="line2d_9">
      <path d="M 333.556364 307.584 
L 333.556364 41.472 
" clip-path="url(#p38093c5a12)" style="fill: none; stroke: #b0b0b0; stroke-width: 0.8; stroke-linecap: square"/>
     </g>
     <g id="line2d_10">
      <g>
       <use xlink:href="#m92674236b1" x="333.556364" y="307.584" style="stroke: #000000; stroke-width: 0.8"/>
      </g>
     </g>
     <g id="text_5">
      <!-- 80 -->
      <g transform="translate(327.193864 322.182437) scale(0.1 -0.1)">
       <defs>
        <path id="DejaVuSans-38" d="M 2034 2216 
Q 1584 2216 1326 1975 
Q 1069 1734 1069 1313 
Q 1069 891 1326 650 
Q 1584 409 2034 409 
Q 2484 409 2743 651 
Q 3003 894 3003 1313 
Q 3003 1734 2745 1975 
Q 2488 2216 2034 2216 
z
M 1403 2484 
Q 997 2584 770 2862 
Q 544 3141 544 3541 
Q 544 4100 942 4425 
Q 1341 4750 2034 4750 
Q 2731 4750 3128 4425 
Q 3525 4100 3525 3541 
Q 3525 3141 3298 2862 
Q 3072 2584 2669 2484 
Q 3125 2378 3379 2068 
Q 3634 1759 3634 1313 
Q 3634 634 3220 271 
Q 2806 -91 2034 -91 
Q 1263 -91 848 271 
Q 434 634 434 1313 
Q 434 1759 690 2068 
Q 947 2378 1403 2484 
z
M 1172 3481 
Q 1172 3119 1398 2916 
Q 1625 2713 2034 2713 
Q 2441 2713 2670 2916 
Q 2900 3119 2900 3481 
Q 2900 3844 2670 4047 
Q 2441 4250 2034 4250 
Q 1625 4250 1398 4047 
Q 1172 3844 1172 3481 
z
" transform="scale(0.015625)"/>
       </defs>
       <use xlink:href="#DejaVuSans-38"/>
       <use xlink:href="#DejaVuSans-30" x="63.623047"/>
      </g>
     </g>
    </g>
    <g id="xtick_6">
     <g id="line2d_11">
      <path d="M 398.487273 307.584 
L 398.487273 41.472 
" clip-path="url(#p38093c5a12)" style="fill: none; stroke: #b0b0b0; stroke-width: 0.8; stroke-linecap: square"/>
     </g>
     <g id="line2d_12">
      <g>
       <use xlink:href="#m92674236b1" x="398.487273" y="307.584" style="stroke: #000000; stroke-width: 0.8"/>
      </g>
     </g>
     <g id="text_6">
      <!-- 100 -->
      <g transform="translate(388.943523 322.182437) scale(0.1 -0.1)">
       <defs>
        <path id="DejaVuSans-31" d="M 794 531 
L 1825 531 
L 1825 4091 
L 703 3866 
L 703 4441 
L 1819 4666 
L 2450 4666 
L 2450 531 
L 3481 531 
L 3481 0 
L 794 0 
L 794 531 
z
" transform="scale(0.015625)"/>
       </defs>
       <use xlink:href="#DejaVuSans-31"/>
       <use xlink:href="#DejaVuSans-30" x="63.623047"/>
       <use xlink:href="#DejaVuSans-30" x="127.246094"/>
      </g>
     </g>
    </g>
    <g id="text_7">
     <!-- Frequency [Hz] -->
     <g transform="translate(198.455312 335.860562) scale(0.1 -0.1)">
      <defs>
       <path id="DejaVuSans-46" d="M 628 4666 
L 3309 4666 
L 3309 4134 
L 1259 4134 
L 1259 2759 
L 3109 2759 
L 3109 2228 
L 1259 2228 
L 1259 0 
L 628 0 
L 628 4666 
z
" transform="scale(0.015625)"/>
       <path id="DejaVuSans-72" d="M 2631 2963 
Q 2534 3019 2420 3045 
Q 2306 3072 2169 3072 
Q 1681 3072 1420 2755 
Q 1159 2438 1159 1844 
L 1159 0 
L 581 0 
L 581 3500 
L 1159 3500 
L 1159 2956 
Q 1341 3275 1631 3429 
Q 1922 3584 2338 3584 
Q 2397 3584 2469 3576 
Q 2541 3569 2628 3553 
L 2631 2963 
z
" transform="scale(0.015625)"/>
       <path id="DejaVuSans-65" d="M 3597 1894 
L 3597 1613 
L 953 1613 
Q 991 1019 1311 708 
Q 1631 397 2203 397 
Q 2534 397 2845 478 
Q 3156 559 3463 722 
L 3463 178 
Q 3153 47 2828 -22 
Q 2503 -91 2169 -91 
Q 1331 -91 842 396 
Q 353 884 353 1716 
Q 353 2575 817 3079 
Q 1281 3584 2069 3584 
Q 2775 3584 3186 3129 
Q 3597 2675 3597 1894 
z
M 3022 2063 
Q 3016 2534 2758 2815 
Q 2500 3097 2075 3097 
Q 1594 3097 1305 2825 
Q 1016 2553 972 2059 
L 3022 2063 
z
" transform="scale(0.015625)"/>
       <path id="DejaVuSans-71" d="M 947 1747 
Q 947 1113 1208 752 
Q 1469 391 1925 391 
Q 2381 391 2643 752 
Q 2906 1113 2906 1747 
Q 2906 2381 2643 2742 
Q 2381 3103 1925 3103 
Q 1469 3103 1208 2742 
Q 947 2381 947 1747 
z
M 2906 525 
Q 2725 213 2448 61 
Q 2172 -91 1784 -91 
Q 1150 -91 751 415 
Q 353 922 353 1747 
Q 353 2572 751 3078 
Q 1150 3584 1784 3584 
Q 2172 3584 2448 3432 
Q 2725 3281 2906 2969 
L 2906 3500 
L 3481 3500 
L 3481 -1331 
L 2906 -1331 
L 2906 525 
z
" transform="scale(0.015625)"/>
       <path id="DejaVuSans-75" d="M 544 1381 
L 544 3500 
L 1119 3500 
L 1119 1403 
Q 1119 906 1312 657 
Q 1506 409 1894 409 
Q 2359 409 2629 706 
Q 2900 1003 2900 1516 
L 2900 3500 
L 3475 3500 
L 3475 0 
L 2900 0 
L 2900 538 
Q 2691 219 2414 64 
Q 2138 -91 1772 -91 
Q 1169 -91 856 284 
Q 544 659 544 1381 
z
M 1991 3584 
L 1991 3584 
z
" transform="scale(0.015625)"/>
       <path id="DejaVuSans-6e" d="M 3513 2113 
L 3513 0 
L 2938 0 
L 2938 2094 
Q 2938 2591 2744 2837 
Q 2550 3084 2163 3084 
Q 1697 3084 1428 2787 
Q 1159 2491 1159 1978 
L 1159 0 
L 581 0 
L 581 3500 
L 1159 3500 
L 1159 2956 
Q 1366 3272 1645 3428 
Q 1925 3584 2291 3584 
Q 2894 3584 3203 3211 
Q 3513 2838 3513 2113 
z
" transform="scale(0.015625)"/>
       <path id="DejaVuSans-63" d="M 3122 3366 
L 3122 2828 
Q 2878 2963 2633 3030 
Q 2388 3097 2138 3097 
Q 1578 3097 1268 2742 
Q 959 2388 959 1747 
Q 959 1106 1268 751 
Q 1578 397 2138 397 
Q 2388 397 2633 464 
Q 2878 531 3122 666 
L 3122 134 
Q 2881 22 2623 -34 
Q 2366 -91 2075 -91 
Q 1284 -91 818 406 
Q 353 903 353 1747 
Q 353 2603 823 3093 
Q 1294 3584 2113 3584 
Q 2378 3584 2631 3529 
Q 2884 3475 3122 3366 
z
" transform="scale(0.015625)"/>
       <path id="DejaVuSans-79" d="M 2059 -325 
Q 1816 -950 1584 -1140 
Q 1353 -1331 966 -1331 
L 506 -1331 
L 506 -850 
L 844 -850 
Q 1081 -850 1212 -737 
Q 1344 -625 1503 -206 
L 1606 56 
L 191 3500 
L 800 3500 
L 1894 763 
L 2988 3500 
L 3597 3500 
L 2059 -325 
z
" transform="scale(0.015625)"/>
       <path id="DejaVuSans-20" transform="scale(0.015625)"/>
       <path id="DejaVuSans-5b" d="M 550 4863 
L 1875 4863 
L 1875 4416 
L 1125 4416 
L 1125 -397 
L 1875 -397 
L 1875 -844 
L 550 -844 
L 550 4863 
z
" transform="scale(0.015625)"/>
       <path id="DejaVuSans-48" d="M 628 4666 
L 1259 4666 
L 1259 2753 
L 3553 2753 
L 3553 4666 
L 4184 4666 
L 4184 0 
L 3553 0 
L 3553 2222 
L 1259 2222 
L 1259 0 
L 628 0 
L 628 4666 
z
" transform="scale(0.015625)"/>
       <path id="DejaVuSans-7a" d="M 353 3500 
L 3084 3500 
L 3084 2975 
L 922 459 
L 3084 459 
L 3084 0 
L 275 0 
L 275 525 
L 2438 3041 
L 353 3041 
L 353 3500 
z
" transform="scale(0.015625)"/>
       <path id="DejaVuSans-5d" d="M 1947 4863 
L 1947 -844 
L 622 -844 
L 622 -397 
L 1369 -397 
L 1369 4416 
L 622 4416 
L 622 4863 
L 1947 4863 
z
" transform="scale(0.015625)"/>
      </defs>
      <use xlink:href="#DejaVuSans-46"/>
      <use xlink:href="#DejaVuSans-72" x="50.269531"/>
      <use xlink:href="#DejaVuSans-65" x="89.132812"/>
      <use xlink:href="#DejaVuSans-71" x="150.65625"/>
      <use xlink:href="#DejaVuSans-75" x="214.132812"/>
      <use xlink:href="#DejaVuSans-65" x="277.511719"/>
      <use xlink:href="#DejaVuSans-6e" x="339.035156"/>
      <use xlink:href="#DejaVuSans-63" x="402.414062"/>
      <use xlink:href="#DejaVuSans-79" x="457.394531"/>
      <use xlink:href="#DejaVuSans-20" x="516.574219"/>
      <use xlink:href="#DejaVuSans-5b" x="548.361328"/>
      <use xlink:href="#DejaVuSans-48" x="587.375"/>
      <use xlink:href="#DejaVuSans-7a" x="662.570312"/>
      <use xlink:href="#DejaVuSans-5d" x="715.060547"/>
     </g>
    </g>
   </g>
   <g id="matplotlib.axis_2">
    <g id="ytick_1">
     <g id="line2d_13">
      <path d="M 57.6 299.326642 
L 414.72 299.326642 
" clip-path="url(#p38093c5a12)" style="fill: none; stroke: #b0b0b0; stroke-width: 0.8; stroke-linecap: square"/>
     </g>
     <g id="line2d_14">
      <defs>
       <path id="m46657c658b" d="M 0 0 
L -3.5 0 
" style="stroke: #000000; stroke-width: 0.8"/>
      </defs>
      <g>
       <use xlink:href="#m46657c658b" x="57.6" y="299.326642" style="stroke: #000000; stroke-width: 0.8"/>
      </g>
     </g>
     <g id="text_8">
      <!-- 0.000 -->
      <g transform="translate(21.971875 303.12586) scale(0.1 -0.1)">
       <defs>
        <path id="DejaVuSans-2e" d="M 684 794 
L 1344 794 
L 1344 0 
L 684 0 
L 684 794 
z
" transform="scale(0.015625)"/>
       </defs>
       <use xlink:href="#DejaVuSans-30"/>
       <use xlink:href="#DejaVuSans-2e" x="63.623047"/>
       <use xlink:href="#DejaVuSans-30" x="95.410156"/>
       <use xlink:href="#DejaVuSans-30" x="159.033203"/>
       <use xlink:href="#DejaVuSans-30" x="222.65625"/>
      </g>
     </g>
    </g>
    <g id="ytick_2">
     <g id="line2d_15">
      <path d="M 57.6 247.157627 
L 414.72 247.157627 
" clip-path="url(#p38093c5a12)" style="fill: none; stroke: #b0b0b0; stroke-width: 0.8; stroke-linecap: square"/>
     </g>
     <g id="line2d_16">
      <g>
       <use xlink:href="#m46657c658b" x="57.6" y="247.157627" style="stroke: #000000; stroke-width: 0.8"/>
      </g>
     </g>
     <g id="text_9">
      <!-- 0.005 -->
      <g transform="translate(21.971875 250.956846) scale(0.1 -0.1)">
       <defs>
        <path id="DejaVuSans-35" d="M 691 4666 
L 3169 4666 
L 3169 4134 
L 1269 4134 
L 1269 2991 
Q 1406 3038 1543 3061 
Q 1681 3084 1819 3084 
Q 2600 3084 3056 2656 
Q 3513 2228 3513 1497 
Q 3513 744 3044 326 
Q 2575 -91 1722 -91 
Q 1428 -91 1123 -41 
Q 819 9 494 109 
L 494 744 
Q 775 591 1075 516 
Q 1375 441 1709 441 
Q 2250 441 2565 725 
Q 2881 1009 2881 1497 
Q 2881 1984 2565 2268 
Q 2250 2553 1709 2553 
Q 1456 2553 1204 2497 
Q 953 2441 691 2322 
L 691 4666 
z
" transform="scale(0.015625)"/>
       </defs>
       <use xlink:href="#DejaVuSans-30"/>
       <use xlink:href="#DejaVuSans-2e" x="63.623047"/>
       <use xlink:href="#DejaVuSans-30" x="95.410156"/>
       <use xlink:href="#DejaVuSans-30" x="159.033203"/>
       <use xlink:href="#DejaVuSans-35" x="222.65625"/>
      </g>
     </g>
    </g>
    <g id="ytick_3">
     <g id="line2d_17">
      <path d="M 57.6 194.988613 
L 414.72 194.988613 
" clip-path="url(#p38093c5a12)" style="fill: none; stroke: #b0b0b0; stroke-width: 0.8; stroke-linecap: square"/>
     </g>
     <g id="line2d_18">
      <g>
       <use xlink:href="#m46657c658b" x="57.6" y="194.988613" style="stroke: #000000; stroke-width: 0.8"/>
      </g>
     </g>
     <g id="text_10">
      <!-- 0.010 -->
      <g transform="translate(21.971875 198.787832) scale(0.1 -0.1)">
       <use xlink:href="#DejaVuSans-30"/>
       <use xlink:href="#DejaVuSans-2e" x="63.623047"/>
       <use xlink:href="#DejaVuSans-30" x="95.410156"/>
       <use xlink:href="#DejaVuSans-31" x="159.033203"/>
       <use xlink:href="#DejaVuSans-30" x="222.65625"/>
      </g>
     </g>
    </g>
    <g id="ytick_4">
     <g id="line2d_19">
      <path d="M 57.6 142.819599 
L 414.72 142.819599 
" clip-path="url(#p38093c5a12)" style="fill: none; stroke: #b0b0b0; stroke-width: 0.8; stroke-linecap: square"/>
     </g>
     <g id="line2d_20">
      <g>
       <use xlink:href="#m46657c658b" x="57.6" y="142.819599" style="stroke: #000000; stroke-width: 0.8"/>
      </g>
     </g>
     <g id="text_11">
      <!-- 0.015 -->
      <g transform="translate(21.971875 146.618817) scale(0.1 -0.1)">
       <use xlink:href="#DejaVuSans-30"/>
       <use xlink:href="#DejaVuSans-2e" x="63.623047"/>
       <use xlink:href="#DejaVuSans-30" x="95.410156"/>
       <use xlink:href="#DejaVuSans-31" x="159.033203"/>
       <use xlink:href="#DejaVuSans-35" x="222.65625"/>
      </g>
     </g>
    </g>
    <g id="ytick_5">
     <g id="line2d_21">
      <path d="M 57.6 90.650584 
L 414.72 90.650584 
" clip-path="url(#p38093c5a12)" style="fill: none; stroke: #b0b0b0; stroke-width: 0.8; stroke-linecap: square"/>
     </g>
     <g id="line2d_22">
      <g>
       <use xlink:href="#m46657c658b" x="57.6" y="90.650584" style="stroke: #000000; stroke-width: 0.8"/>
      </g>
     </g>
     <g id="text_12">
      <!-- 0.020 -->
      <g transform="translate(21.971875 94.449803) scale(0.1 -0.1)">
       <use xlink:href="#DejaVuSans-30"/>
       <use xlink:href="#DejaVuSans-2e" x="63.623047"/>
       <use xlink:href="#DejaVuSans-30" x="95.410156"/>
       <use xlink:href="#DejaVuSans-32" x="159.033203"/>
       <use xlink:href="#DejaVuSans-30" x="222.65625"/>
      </g>
     </g>
    </g>
    <g id="text_13">
     <!-- Spectral Density ($rad/s  / \sqrt{Hz}$) -->
     <g transform="translate(15.871875 246.178) rotate(-90) scale(0.1 -0.1)">
      <defs>
       <path id="DejaVuSans-53" d="M 3425 4513 
L 3425 3897 
Q 3066 4069 2747 4153 
Q 2428 4238 2131 4238 
Q 1616 4238 1336 4038 
Q 1056 3838 1056 3469 
Q 1056 3159 1242 3001 
Q 1428 2844 1947 2747 
L 2328 2669 
Q 3034 2534 3370 2195 
Q 3706 1856 3706 1288 
Q 3706 609 3251 259 
Q 2797 -91 1919 -91 
Q 1588 -91 1214 -16 
Q 841 59 441 206 
L 441 856 
Q 825 641 1194 531 
Q 1563 422 1919 422 
Q 2459 422 2753 634 
Q 3047 847 3047 1241 
Q 3047 1584 2836 1778 
Q 2625 1972 2144 2069 
L 1759 2144 
Q 1053 2284 737 2584 
Q 422 2884 422 3419 
Q 422 4038 858 4394 
Q 1294 4750 2059 4750 
Q 2388 4750 2728 4690 
Q 3069 4631 3425 4513 
z
" transform="scale(0.015625)"/>
       <path id="DejaVuSans-70" d="M 1159 525 
L 1159 -1331 
L 581 -1331 
L 581 3500 
L 1159 3500 
L 1159 2969 
Q 1341 3281 1617 3432 
Q 1894 3584 2278 3584 
Q 2916 3584 3314 3078 
Q 3713 2572 3713 1747 
Q 3713 922 3314 415 
Q 2916 -91 2278 -91 
Q 1894 -91 1617 61 
Q 1341 213 1159 525 
z
M 3116 1747 
Q 3116 2381 2855 2742 
Q 2594 3103 2138 3103 
Q 1681 3103 1420 2742 
Q 1159 2381 1159 1747 
Q 1159 1113 1420 752 
Q 1681 391 2138 391 
Q 2594 391 2855 752 
Q 3116 1113 3116 1747 
z
" transform="scale(0.015625)"/>
       <path id="DejaVuSans-74" d="M 1172 4494 
L 1172 3500 
L 2356 3500 
L 2356 3053 
L 1172 3053 
L 1172 1153 
Q 1172 725 1289 603 
Q 1406 481 1766 481 
L 2356 481 
L 2356 0 
L 1766 0 
Q 1100 0 847 248 
Q 594 497 594 1153 
L 594 3053 
L 172 3053 
L 172 3500 
L 594 3500 
L 594 4494 
L 1172 4494 
z
" transform="scale(0.015625)"/>
       <path id="DejaVuSans-61" d="M 2194 1759 
Q 1497 1759 1228 1600 
Q 959 1441 959 1056 
Q 959 750 1161 570 
Q 1363 391 1709 391 
Q 2188 391 2477 730 
Q 2766 1069 2766 1631 
L 2766 1759 
L 2194 1759 
z
M 3341 1997 
L 3341 0 
L 2766 0 
L 2766 531 
Q 2569 213 2275 61 
Q 1981 -91 1556 -91 
Q 1019 -91 701 211 
Q 384 513 384 1019 
Q 384 1609 779 1909 
Q 1175 2209 1959 2209 
L 2766 2209 
L 2766 2266 
Q 2766 2663 2505 2880 
Q 2244 3097 1772 3097 
Q 1472 3097 1187 3025 
Q 903 2953 641 2809 
L 641 3341 
Q 956 3463 1253 3523 
Q 1550 3584 1831 3584 
Q 2591 3584 2966 3190 
Q 3341 2797 3341 1997 
z
" transform="scale(0.015625)"/>
       <path id="DejaVuSans-6c" d="M 603 4863 
L 1178 4863 
L 1178 0 
L 603 0 
L 603 4863 
z
" transform="scale(0.015625)"/>
       <path id="DejaVuSans-44" d="M 1259 4147 
L 1259 519 
L 2022 519 
Q 2988 519 3436 956 
Q 3884 1394 3884 2338 
Q 3884 3275 3436 3711 
Q 2988 4147 2022 4147 
L 1259 4147 
z
M 628 4666 
L 1925 4666 
Q 3281 4666 3915 4102 
Q 4550 3538 4550 2338 
Q 4550 1131 3912 565 
Q 3275 0 1925 0 
L 628 0 
L 628 4666 
z
" transform="scale(0.015625)"/>
       <path id="DejaVuSans-73" d="M 2834 3397 
L 2834 2853 
Q 2591 2978 2328 3040 
Q 2066 3103 1784 3103 
Q 1356 3103 1142 2972 
Q 928 2841 928 2578 
Q 928 2378 1081 2264 
Q 1234 2150 1697 2047 
L 1894 2003 
Q 2506 1872 2764 1633 
Q 3022 1394 3022 966 
Q 3022 478 2636 193 
Q 2250 -91 1575 -91 
Q 1294 -91 989 -36 
Q 684 19 347 128 
L 347 722 
Q 666 556 975 473 
Q 1284 391 1588 391 
Q 1994 391 2212 530 
Q 2431 669 2431 922 
Q 2431 1156 2273 1281 
Q 2116 1406 1581 1522 
L 1381 1569 
Q 847 1681 609 1914 
Q 372 2147 372 2553 
Q 372 3047 722 3315 
Q 1072 3584 1716 3584 
Q 2034 3584 2315 3537 
Q 2597 3491 2834 3397 
z
" transform="scale(0.015625)"/>
       <path id="DejaVuSans-69" d="M 603 3500 
L 1178 3500 
L 1178 0 
L 603 0 
L 603 3500 
z
M 603 4863 
L 1178 4863 
L 1178 4134 
L 603 4134 
L 603 4863 
z
" transform="scale(0.015625)"/>
       <path id="DejaVuSans-28" d="M 1984 4856 
Q 1566 4138 1362 3434 
Q 1159 2731 1159 2009 
Q 1159 1288 1364 580 
Q 1569 -128 1984 -844 
L 1484 -844 
Q 1016 -109 783 600 
Q 550 1309 550 2009 
Q 550 2706 781 3412 
Q 1013 4119 1484 4856 
L 1984 4856 
z
" transform="scale(0.015625)"/>
       <path id="DejaVuSans-Oblique-72" d="M 2853 2969 
Q 2766 3016 2653 3041 
Q 2541 3066 2413 3066 
Q 1953 3066 1609 2717 
Q 1266 2369 1153 1784 
L 800 0 
L 225 0 
L 909 3500 
L 1484 3500 
L 1375 2956 
Q 1603 3259 1920 3421 
Q 2238 3584 2597 3584 
Q 2691 3584 2781 3573 
Q 2872 3563 2963 3538 
L 2853 2969 
z
" transform="scale(0.015625)"/>
       <path id="DejaVuSans-Oblique-61" d="M 3438 1997 
L 3047 0 
L 2472 0 
L 2578 531 
Q 2325 219 2001 64 
Q 1678 -91 1281 -91 
Q 834 -91 548 182 
Q 263 456 263 884 
Q 263 1497 752 1853 
Q 1241 2209 2100 2209 
L 2900 2209 
L 2931 2363 
Q 2938 2388 2941 2417 
Q 2944 2447 2944 2509 
Q 2944 2788 2717 2942 
Q 2491 3097 2081 3097 
Q 1800 3097 1504 3025 
Q 1209 2953 897 2809 
L 997 3341 
Q 1322 3463 1633 3523 
Q 1944 3584 2234 3584 
Q 2853 3584 3176 3315 
Q 3500 3047 3500 2534 
Q 3500 2431 3484 2292 
Q 3469 2153 3438 1997 
z
M 2816 1759 
L 2241 1759 
Q 1534 1759 1195 1570 
Q 856 1381 856 984 
Q 856 709 1029 553 
Q 1203 397 1509 397 
Q 1978 397 2328 733 
Q 2678 1069 2791 1631 
L 2816 1759 
z
" transform="scale(0.015625)"/>
       <path id="DejaVuSans-Oblique-64" d="M 2675 525 
Q 2444 222 2128 65 
Q 1813 -91 1428 -91 
Q 903 -91 598 267 
Q 294 625 294 1247 
Q 294 1766 478 2236 
Q 663 2706 1013 3078 
Q 1244 3325 1534 3454 
Q 1825 3584 2144 3584 
Q 2481 3584 2739 3421 
Q 2997 3259 3138 2956 
L 3513 4863 
L 4091 4863 
L 3144 0 
L 2566 0 
L 2675 525 
z
M 891 1350 
Q 891 897 1095 644 
Q 1300 391 1663 391 
Q 1931 391 2161 520 
Q 2391 650 2566 903 
Q 2750 1166 2856 1509 
Q 2963 1853 2963 2188 
Q 2963 2622 2758 2865 
Q 2553 3109 2194 3109 
Q 1922 3109 1687 2981 
Q 1453 2853 1288 2613 
Q 1106 2353 998 2009 
Q 891 1666 891 1350 
z
" transform="scale(0.015625)"/>
       <path id="DejaVuSans-2f" d="M 1625 4666 
L 2156 4666 
L 531 -594 
L 0 -594 
L 1625 4666 
z
" transform="scale(0.015625)"/>
       <path id="DejaVuSans-Oblique-73" d="M 3200 3397 
L 3091 2853 
Q 2863 2978 2609 3040 
Q 2356 3103 2088 3103 
Q 1634 3103 1373 2948 
Q 1113 2794 1113 2528 
Q 1113 2219 1719 2053 
Q 1766 2041 1788 2034 
L 1972 1978 
Q 2547 1819 2739 1644 
Q 2931 1469 2931 1166 
Q 2931 609 2489 259 
Q 2047 -91 1331 -91 
Q 1053 -91 747 -37 
Q 441 16 72 128 
L 184 722 
Q 500 559 806 475 
Q 1113 391 1394 391 
Q 1816 391 2080 572 
Q 2344 753 2344 1031 
Q 2344 1331 1650 1516 
L 1591 1531 
L 1394 1581 
Q 956 1697 753 1886 
Q 550 2075 550 2369 
Q 550 2928 970 3256 
Q 1391 3584 2113 3584 
Q 2397 3584 2667 3537 
Q 2938 3491 3200 3397 
z
" transform="scale(0.015625)"/>
       <path id="STIXSizeOneSym-Regular-221a" d="M 6970 9933 
L 3373 -1888 
L 3104 -1888 
L 1626 2918 
Q 1555 3149 1465 3251 
Q 1376 3354 1229 3354 
Q 1011 3354 794 3181 
L 717 3309 
L 1766 4115 
L 1926 4115 
L 3379 -602 
L 3405 -602 
L 6605 9933 
L 6970 9933 
z
" transform="scale(0.015625)"/>
       <path id="DejaVuSans-Oblique-48" d="M 1081 4666 
L 1716 4666 
L 1344 2753 
L 3634 2753 
L 4006 4666 
L 4641 4666 
L 3731 0 
L 3097 0 
L 3531 2222 
L 1241 2222 
L 806 0 
L 172 0 
L 1081 4666 
z
" transform="scale(0.015625)"/>
       <path id="DejaVuSans-Oblique-7a" d="M 744 3500 
L 3475 3500 
L 3372 2975 
L 738 459 
L 2913 459 
L 2822 0 
L -19 0 
L 84 525 
L 2719 3041 
L 653 3041 
L 744 3500 
z
" transform="scale(0.015625)"/>
       <path id="DejaVuSans-29" d="M 513 4856 
L 1013 4856 
Q 1481 4119 1714 3412 
Q 1947 2706 1947 2009 
Q 1947 1309 1714 600 
Q 1481 -109 1013 -844 
L 513 -844 
Q 928 -128 1133 580 
Q 1338 1288 1338 2009 
Q 1338 2731 1133 3434 
Q 928 4138 513 4856 
z
" transform="scale(0.015625)"/>
      </defs>
      <use xlink:href="#DejaVuSans-53" transform="translate(0 0.578125)"/>
      <use xlink:href="#DejaVuSans-70" transform="translate(63.476562 0.578125)"/>
      <use xlink:href="#DejaVuSans-65" transform="translate(126.953125 0.578125)"/>
      <use xlink:href="#DejaVuSans-63" transform="translate(188.476562 0.578125)"/>
      <use xlink:href="#DejaVuSans-74" transform="translate(243.457031 0.578125)"/>
      <use xlink:href="#DejaVuSans-72" transform="translate(282.666016 0.578125)"/>
      <use xlink:href="#DejaVuSans-61" transform="translate(323.779297 0.578125)"/>
      <use xlink:href="#DejaVuSans-6c" transform="translate(385.058594 0.578125)"/>
      <use xlink:href="#DejaVuSans-20" transform="translate(412.841797 0.578125)"/>
      <use xlink:href="#DejaVuSans-44" transform="translate(444.628906 0.578125)"/>
      <use xlink:href="#DejaVuSans-65" transform="translate(521.630859 0.578125)"/>
      <use xlink:href="#DejaVuSans-6e" transform="translate(583.154297 0.578125)"/>
      <use xlink:href="#DejaVuSans-73" transform="translate(646.533203 0.578125)"/>
      <use xlink:href="#DejaVuSans-69" transform="translate(698.632812 0.578125)"/>
      <use xlink:href="#DejaVuSans-74" transform="translate(726.416016 0.578125)"/>
      <use xlink:href="#DejaVuSans-79" transform="translate(765.625 0.578125)"/>
      <use xlink:href="#DejaVuSans-20" transform="translate(824.804688 0.578125)"/>
      <use xlink:href="#DejaVuSans-28" transform="translate(856.591797 0.578125)"/>
      <use xlink:href="#DejaVuSans-Oblique-72" transform="translate(895.605469 0.578125)"/>
      <use xlink:href="#DejaVuSans-Oblique-61" transform="translate(936.71875 0.578125)"/>
      <use xlink:href="#DejaVuSans-Oblique-64" transform="translate(997.998047 0.578125)"/>
      <use xlink:href="#DejaVuSans-2f" transform="translate(1061.474609 0.578125)"/>
      <use xlink:href="#DejaVuSans-Oblique-73" transform="translate(1095.166016 0.578125)"/>
      <use xlink:href="#DejaVuSans-2f" transform="translate(1147.265625 0.578125)"/>
      <use xlink:href="#STIXSizeOneSym-Regular-221a" transform="translate(1180.957031 17.09375) scale(0.563912)"/>
      <use xlink:href="#DejaVuSans-Oblique-48" transform="translate(1253.045395 0.84375)"/>
      <use xlink:href="#DejaVuSans-Oblique-7a" transform="translate(1328.240707 0.84375)"/>
      <use xlink:href="#DejaVuSans-29" transform="translate(1393.230942 0.578125)"/>
      <path d="M 1240.545395 97.5 
L 1240.545395 103.75 
L 1393.230942 103.75 
L 1393.230942 97.5 
L 1240.545395 97.5 
z
"/>
     </g>
    </g>
   </g>
   <g id="line2d_23">
    <path d="M 73.832727 233.943838 
L 74.466818 142.434986 
L 75.100909 124.171899 
L 75.735 121.333002 
L 76.369091 131.429694 
L 77.003182 135.989651 
L 77.637273 135.884671 
L 78.271364 158.938995 
L 80.173636 200.592263 
L 80.807727 191.173758 
L 81.441818 220.952218 
L 82.075909 215.010015 
L 82.71 213.361586 
L 83.344091 220.847052 
L 83.978182 233.218978 
L 84.612273 234.910613 
L 85.246364 238.587676 
L 85.880455 241.454819 
L 86.514545 243.377791 
L 87.148636 241.538773 
L 87.782727 245.096871 
L 88.416818 253.149939 
L 89.050909 254.818665 
L 89.685 246.790289 
L 90.319091 258.294691 
L 90.953182 265.497801 
L 91.587273 267.367651 
L 92.221364 266.530287 
L 92.855455 266.457396 
L 93.489545 266.226236 
L 94.123636 267.071378 
L 94.757727 269.556086 
L 96.025909 266.036678 
L 97.294091 274.282169 
L 97.928182 274.904126 
L 98.562273 275.919021 
L 99.196364 272.962188 
L 99.830455 269.174081 
L 100.464545 270.857672 
L 101.732727 278.326958 
L 102.366818 279.695137 
L 103.000909 278.731643 
L 103.635 278.092726 
L 104.269091 279.306667 
L 104.903182 281.53797 
L 105.537273 281.817264 
L 106.171364 280.786658 
L 106.805455 277.781443 
L 107.439545 278.849418 
L 108.707727 276.704751 
L 109.341818 278.957941 
L 109.975909 281.871192 
L 110.61 281.754812 
L 111.244091 280.652344 
L 111.878182 281.034496 
L 112.512273 282.830934 
L 113.146364 283.855613 
L 113.780455 280.785572 
L 114.414545 281.254153 
L 115.048636 282.890968 
L 115.682727 283.723799 
L 116.950909 285.803367 
L 117.585 286.249347 
L 118.219091 285.32877 
L 118.853182 285.938296 
L 119.487273 286.161134 
L 120.121364 286.069691 
L 120.755455 285.065203 
L 121.389545 283.842201 
L 122.023636 283.021033 
L 122.657727 285.685279 
L 123.291818 287.103861 
L 124.56 285.557732 
L 125.194091 283.727449 
L 125.828182 284.625431 
L 126.462273 286.453025 
L 127.096364 285.360221 
L 127.730455 285.605887 
L 128.364545 286.603618 
L 128.998636 286.664762 
L 130.266818 288.113982 
L 130.900909 287.247827 
L 132.169091 289.991013 
L 132.803182 288.971815 
L 133.437273 289.711832 
L 134.071364 289.983918 
L 134.705455 289.26212 
L 135.339545 287.935986 
L 135.973636 287.476228 
L 136.607727 288.157589 
L 137.241818 290.573412 
L 137.875909 290.471774 
L 138.51 289.516302 
L 139.144091 290.404082 
L 140.412273 290.624228 
L 141.046364 292.080499 
L 141.680455 290.585746 
L 142.314545 287.895652 
L 142.948636 289.670321 
L 143.582727 290.933333 
L 144.216818 291.462384 
L 144.850909 291.798713 
L 146.119091 289.364953 
L 146.753182 289.568989 
L 147.387273 290.921807 
L 148.021364 291.869849 
L 148.655455 290.185113 
L 149.289545 289.41207 
L 149.923636 290.769131 
L 150.557727 291.573333 
L 151.191818 292.14571 
L 151.825909 291.367466 
L 152.46 290.195735 
L 153.094091 291.076203 
L 153.728182 292.380813 
L 154.362273 291.42802 
L 154.996364 291.147972 
L 155.630455 289.272057 
L 156.264545 290.734512 
L 156.898636 291.747548 
L 157.532727 291.900836 
L 158.166818 292.255146 
L 159.435 294.008785 
L 160.069091 293.366231 
L 160.703182 293.268955 
L 161.337273 293.642864 
L 161.971364 293.841285 
L 162.605455 293.844119 
L 163.239545 293.140517 
L 163.873636 293.692487 
L 164.507727 291.91706 
L 165.141818 291.687792 
L 165.775909 292.531128 
L 166.41 292.795555 
L 167.044091 292.619148 
L 167.678182 293.138725 
L 168.312273 292.178203 
L 168.946364 292.333314 
L 169.580455 293.714456 
L 170.214545 293.088118 
L 170.848636 292.649572 
L 171.482727 293.223243 
L 172.116818 291.767036 
L 172.750909 291.60119 
L 173.385 293.205628 
L 174.019091 293.547267 
L 174.653182 294.066861 
L 175.287273 293.657125 
L 175.921364 292.693939 
L 176.555455 292.693869 
L 177.823636 295.222536 
L 178.457727 295.336856 
L 179.091818 295.205981 
L 179.725909 294.564516 
L 180.36 293.446302 
L 181.628182 294.16801 
L 182.896364 294.026223 
L 183.530455 294.051619 
L 184.164545 293.613845 
L 184.798636 294.298253 
L 186.700909 294.98067 
L 187.335 295.488 
L 187.969091 294.510181 
L 188.603182 294.210926 
L 189.237273 294.635376 
L 189.871364 294.738807 
L 190.505455 294.443056 
L 191.139545 294.883 
L 191.773636 294.059986 
L 192.407727 293.644573 
L 193.041818 294.304756 
L 193.675909 294.518805 
L 194.31 294.006222 
L 195.578182 294.038085 
L 196.212273 294.466006 
L 196.846364 294.602347 
L 197.480455 294.918151 
L 198.114545 294.78676 
L 199.382727 293.490022 
L 200.016818 294.032796 
L 200.650909 294.726352 
L 201.285 293.707651 
L 202.553182 294.542174 
L 203.187273 294.449403 
L 203.821364 294.657373 
L 204.455455 294.260114 
L 205.089545 293.690277 
L 205.723636 293.581898 
L 206.357727 294.03956 
L 206.991818 293.615748 
L 208.894091 294.29635 
L 209.528182 294.199595 
L 210.162273 293.414291 
L 210.796364 292.914105 
L 211.430455 293.483604 
L 213.332727 294.325075 
L 213.966818 294.23833 
L 214.600909 293.941149 
L 215.235 293.444447 
L 216.503182 293.516373 
L 217.771364 293.850242 
L 219.039545 292.817728 
L 219.673636 293.109491 
L 220.307727 293.240188 
L 220.941818 293.138621 
L 221.575909 294.227552 
L 222.21 294.580012 
L 222.844091 293.973205 
L 223.478182 292.790495 
L 224.112273 292.726727 
L 225.380455 293.726986 
L 226.014545 293.210932 
L 226.648636 293.29933 
L 227.282727 293.263026 
L 227.916818 292.253631 
L 228.550909 292.235161 
L 229.185 291.774041 
L 229.819091 291.899544 
L 230.453182 292.841803 
L 231.087273 293.370654 
L 231.721364 293.441227 
L 232.355455 291.684091 
L 232.989545 291.44389 
L 233.623636 292.382357 
L 234.257727 292.180395 
L 234.891818 291.675984 
L 235.525909 291.935456 
L 236.16 291.655881 
L 236.794091 292.251713 
L 237.428182 292.193638 
L 238.062273 292.441453 
L 239.330455 292.468015 
L 239.964545 292.462149 
L 240.598636 292.744128 
L 241.232727 293.31388 
L 241.866818 293.314413 
L 242.500909 292.875012 
L 243.135 292.787103 
L 243.769091 292.252719 
L 245.037273 291.839576 
L 245.671364 291.987883 
L 246.305455 291.978165 
L 246.939545 292.315263 
L 247.573636 291.942827 
L 248.207727 290.887904 
L 248.841818 291.541557 
L 250.11 290.450618 
L 250.744091 291.511204 
L 252.012273 292.020234 
L 252.646364 291.345735 
L 253.280455 292.086976 
L 253.914545 291.780887 
L 254.548636 290.986575 
L 255.182727 290.909991 
L 255.816818 290.547134 
L 256.450909 289.455557 
L 257.085 288.880894 
L 257.719091 289.547877 
L 258.353182 289.232656 
L 259.621364 290.131357 
L 260.255455 287.885625 
L 260.889545 287.665432 
L 261.523636 288.574536 
L 262.157727 288.163637 
L 262.791818 287.153637 
L 263.425909 287.673793 
L 264.06 286.610517 
L 264.694091 287.955185 
L 265.328182 288.266988 
L 265.962273 289.056279 
L 266.596364 287.537457 
L 267.230455 286.812922 
L 267.864545 288.807599 
L 268.498636 284.23042 
L 269.132727 285.109607 
L 269.766818 285.303153 
L 270.400909 262.243395 
L 271.035 247.66136 
L 271.669091 254.722126 
L 272.303182 275.592249 
L 272.937273 289.578153 
L 273.571364 286.328622 
L 274.205455 284.848304 
L 275.473636 290.725527 
L 276.107727 289.24798 
L 276.741818 289.254853 
L 277.375909 288.671668 
L 278.01 285.627504 
L 278.644091 288.153885 
L 279.278182 282.514262 
L 279.912273 270.578418 
L 280.546364 264.786013 
L 281.180455 265.614841 
L 281.814545 266.683694 
L 282.448636 264.716857 
L 283.082727 267.887839 
L 284.350909 287.657241 
L 284.985 286.812949 
L 285.619091 283.83313 
L 286.253182 279.711379 
L 286.887273 280.328537 
L 287.521364 284.898058 
L 288.155455 286.232282 
L 288.789545 284.049624 
L 289.423636 285.132502 
L 290.057727 284.631162 
L 290.691818 283.878524 
L 291.325909 283.656714 
L 291.96 282.877947 
L 293.228182 284.781846 
L 293.862273 284.429935 
L 294.496364 283.107681 
L 295.130455 282.934863 
L 295.764545 282.878788 
L 296.398636 281.571029 
L 297.032727 282.454196 
L 297.666818 281.271352 
L 298.300909 278.712125 
L 298.935 280.158574 
L 299.569091 279.795118 
L 300.203182 276.73959 
L 300.837273 279.306774 
L 301.471364 276.542018 
L 302.105455 275.053154 
L 302.739545 277.357396 
L 303.373636 277.652376 
L 304.007727 277.61553 
L 304.641818 279.502783 
L 305.275909 276.668164 
L 305.91 271.0714 
L 306.544091 272.25286 
L 307.178182 273.785761 
L 307.812273 273.108014 
L 308.446364 272.897006 
L 309.080455 274.953065 
L 309.714545 271.916039 
L 310.348636 268.036769 
L 310.982727 262.191649 
L 311.616818 263.887976 
L 312.250909 268.536596 
L 312.885 264.994429 
L 313.519091 255.9134 
L 314.787273 258.942706 
L 315.421364 263.105906 
L 316.055455 255.126663 
L 316.689545 243.22017 
L 317.323636 237.282425 
L 317.957727 238.409065 
L 318.591818 241.405896 
L 319.225909 230.551445 
L 319.86 235.032493 
L 320.494091 234.135576 
L 321.128182 231.462916 
L 321.762273 231.893748 
L 322.396364 221.236855 
L 323.030455 223.793888 
L 324.298636 216.390882 
L 324.932727 206.333399 
L 325.566818 208.499244 
L 326.200909 219.264036 
L 326.835 225.753009 
L 327.469091 223.578646 
L 328.103182 224.636281 
L 328.737273 230.141393 
L 329.371364 231.267247 
L 330.005455 229.798502 
L 331.273636 240.111729 
L 331.907727 233.151251 
L 332.541818 241.302734 
L 333.175909 240.460076 
L 333.81 239.883206 
L 334.444091 244.038903 
L 335.078182 252.902405 
L 336.346364 259.028878 
L 336.980455 260.574908 
L 337.614545 259.734998 
L 338.248636 259.346802 
L 338.882727 259.478951 
L 339.516818 260.536965 
L 340.150909 262.386537 
L 340.785 265.409296 
L 342.053182 265.818055 
L 342.687273 263.501019 
L 343.321364 266.191611 
L 343.955455 265.689846 
L 344.589545 267.697084 
L 345.223636 266.315408 
L 345.857727 265.798988 
L 346.491818 268.028214 
L 347.125909 266.485314 
L 347.76 267.723471 
L 348.394091 271.644556 
L 349.028182 271.110688 
L 349.662273 270.284776 
L 350.296364 270.838635 
L 350.930455 268.783329 
L 351.564545 268.06707 
L 352.198636 271.376771 
L 352.832727 273.75045 
L 353.466818 272.528485 
L 355.369091 269.713209 
L 356.003182 271.706675 
L 356.637273 268.711128 
L 357.271364 269.423785 
L 357.905455 270.502826 
L 358.539545 270.913704 
L 359.807727 267.503813 
L 360.441818 267.377479 
L 361.075909 266.012894 
L 362.344091 276.242687 
L 362.978182 278.658731 
L 364.880455 271.457383 
L 365.514545 269.72641 
L 366.148636 271.916454 
L 366.782727 272.406729 
L 367.416818 273.419577 
L 368.050909 271.852296 
L 368.685 271.09432 
L 369.319091 273.46366 
L 369.953182 274.80392 
L 370.587273 275.209699 
L 371.221364 273.326291 
L 371.855455 273.896899 
L 372.489545 275.472411 
L 373.123636 272.866216 
L 373.757727 273.285511 
L 374.391818 269.571789 
L 375.66 275.090395 
L 376.294091 273.898349 
L 376.928182 274.500377 
L 377.562273 277.955965 
L 378.830455 275.055083 
L 379.464545 274.942402 
L 380.098636 275.142114 
L 380.732727 270.718361 
L 381.366818 263.406456 
L 382.000909 252.881992 
L 383.269091 274.411695 
L 383.903182 274.023893 
L 384.537273 275.267099 
L 385.171364 274.006647 
L 385.805455 274.242238 
L 386.439545 275.149769 
L 387.073636 271.709651 
L 387.707727 262.899899 
L 388.341818 257.315376 
L 388.975909 238.387328 
L 390.244091 268.687904 
L 391.512273 273.157144 
L 392.146364 273.63735 
L 392.780455 270.198163 
L 393.414545 268.740472 
L 394.048636 265.69567 
L 394.682727 266.136922 
L 395.316818 265.308757 
L 395.950909 264.072101 
L 396.585 265.334516 
L 397.219091 264.764034 
L 397.853182 264.685407 
L 398.487273 273.49353 
L 398.487273 273.49353 
" clip-path="url(#p38093c5a12)" style="fill: none; stroke: #1f77b4; stroke-width: 1.5; stroke-linecap: square"/>
   </g>
   <g id="line2d_24">
    <path d="M 73.832727 266.245507 
L 74.466818 225.50245 
L 75.100909 214.308035 
L 75.735 224.774874 
L 76.369091 239.529248 
L 77.003182 242.563599 
L 78.271364 260.124186 
L 78.905455 261.394395 
L 79.539545 259.965929 
L 80.173636 266.326262 
L 80.807727 267.824569 
L 81.441818 263.629168 
L 82.075909 264.902364 
L 82.71 267.09568 
L 83.344091 266.759576 
L 83.978182 261.943514 
L 84.612273 264.072577 
L 85.246364 264.715274 
L 85.880455 264.642251 
L 86.514545 268.962701 
L 87.148636 271.09292 
L 87.782727 270.798284 
L 88.416818 267.995016 
L 89.050909 265.939008 
L 89.685 272.377418 
L 90.319091 270.832159 
L 90.953182 268.544502 
L 91.587273 271.317336 
L 92.221364 270.1144 
L 92.855455 274.159178 
L 93.489545 276.350477 
L 94.123636 272.208513 
L 95.391818 276.019165 
L 96.025909 277.114745 
L 96.66 277.667025 
L 97.294091 278.725787 
L 97.928182 276.033349 
L 98.562273 277.755183 
L 99.196364 280.191022 
L 99.830455 275.104113 
L 100.464545 277.42342 
L 101.098636 281.688343 
L 101.732727 281.370567 
L 102.366818 282.496007 
L 103.000909 284.53087 
L 103.635 282.853577 
L 104.269091 282.535094 
L 104.903182 284.333012 
L 105.537273 284.122544 
L 106.171364 284.677283 
L 107.439545 283.617539 
L 108.073636 285.440647 
L 108.707727 285.590266 
L 109.975909 285.677379 
L 110.61 286.29698 
L 111.244091 286.37071 
L 111.878182 287.464492 
L 112.512273 287.206145 
L 113.146364 285.369836 
L 113.780455 285.360435 
L 114.414545 287.974211 
L 115.048636 288.071827 
L 115.682727 289.521073 
L 116.316818 289.215083 
L 116.950909 288.545908 
L 118.219091 290.075323 
L 118.853182 289.526907 
L 119.487273 288.298651 
L 120.121364 287.725354 
L 120.755455 288.112758 
L 121.389545 290.153688 
L 122.023636 291.025702 
L 122.657727 290.959686 
L 123.291818 291.317831 
L 123.925909 291.439501 
L 124.56 291.385055 
L 125.194091 291.194968 
L 125.828182 291.253274 
L 126.462273 291.101788 
L 127.096364 291.805105 
L 127.730455 292.048557 
L 128.364545 292.154893 
L 128.998636 290.960812 
L 129.632727 291.232173 
L 130.266818 291.657026 
L 130.900909 292.70785 
L 131.535 293.207427 
L 132.169091 291.790648 
L 132.803182 290.937373 
L 133.437273 292.016648 
L 134.071364 292.116389 
L 134.705455 291.96465 
L 135.339545 292.947547 
L 136.607727 293.743758 
L 137.241818 293.403248 
L 139.144091 293.409849 
L 139.778182 293.246512 
L 140.412273 293.626606 
L 142.314545 293.095085 
L 142.948636 293.020121 
L 143.582727 292.793558 
L 144.216818 293.192832 
L 144.850909 292.708095 
L 145.485 293.144484 
L 146.119091 292.683055 
L 146.753182 292.584016 
L 147.387273 293.117468 
L 148.021364 293.117909 
L 148.655455 293.240774 
L 149.923636 293.985884 
L 151.191818 293.472662 
L 152.46 294.248356 
L 153.728182 293.464707 
L 154.362273 293.802115 
L 154.996364 293.593698 
L 156.264545 293.979602 
L 157.532727 293.188318 
L 158.800909 295.046217 
L 159.435 295.01248 
L 160.069091 293.880295 
L 161.971364 293.38776 
L 162.605455 293.577995 
L 163.873636 293.488114 
L 164.507727 292.449854 
L 165.141818 292.860973 
L 165.775909 293.001479 
L 166.41 293.602433 
L 167.044091 293.702705 
L 167.678182 293.579062 
L 168.312273 293.742908 
L 168.946364 293.155747 
L 169.580455 293.042016 
L 170.214545 292.788063 
L 170.848636 292.933043 
L 171.482727 293.343071 
L 172.116818 293.2312 
L 172.750909 292.98777 
L 173.385 293.436574 
L 174.653182 293.197495 
L 175.287273 293.571554 
L 175.921364 292.812232 
L 176.555455 293.542262 
L 177.189545 293.390158 
L 177.823636 293.087865 
L 178.457727 293.86106 
L 179.091818 293.618706 
L 179.725909 293.197587 
L 180.36 293.444736 
L 180.994091 293.512636 
L 181.628182 294.011679 
L 182.262273 292.754576 
L 182.896364 293.457891 
L 184.164545 293.86745 
L 184.798636 293.350034 
L 185.432727 293.147955 
L 186.066818 293.690936 
L 186.700909 293.295057 
L 187.335 293.346305 
L 187.969091 290.999775 
L 188.603182 292.298118 
L 189.237273 291.568317 
L 189.871364 291.538426 
L 190.505455 290.340193 
L 191.139545 290.240369 
L 191.773636 287.778052 
L 192.407727 286.856979 
L 193.041818 290.372232 
L 193.675909 287.154792 
L 194.31 289.893598 
L 194.944091 288.301623 
L 195.578182 291.09993 
L 196.212273 288.545494 
L 196.846364 289.510501 
L 197.480455 288.636119 
L 198.114545 289.047103 
L 198.748636 290.69134 
L 199.382727 290.418512 
L 200.016818 291.062589 
L 201.285 290.465988 
L 201.919091 292.352357 
L 202.553182 293.747715 
L 203.187273 291.656882 
L 203.821364 291.729434 
L 204.455455 292.331318 
L 205.089545 292.225264 
L 205.723636 292.899873 
L 206.357727 292.543801 
L 206.991818 293.42791 
L 207.625909 292.192614 
L 208.26 293.135163 
L 208.894091 293.052876 
L 209.528182 293.179211 
L 210.162273 292.748379 
L 210.796364 293.287862 
L 211.430455 294.011275 
L 212.064545 292.89348 
L 212.698636 293.640186 
L 213.332727 294.183328 
L 213.966818 293.896187 
L 214.600909 293.179807 
L 215.235 293.768747 
L 215.869091 293.989669 
L 216.503182 293.673722 
L 217.137273 293.732063 
L 217.771364 294.263343 
L 218.405455 294.566404 
L 219.039545 293.659397 
L 219.673636 293.202118 
L 220.307727 292.369593 
L 220.941818 292.088081 
L 221.575909 293.257998 
L 222.21 292.909115 
L 222.844091 292.928083 
L 223.478182 292.068807 
L 224.112273 292.631355 
L 224.746364 291.843424 
L 225.380455 291.589861 
L 226.014545 291.145601 
L 226.648636 290.939496 
L 227.282727 291.600281 
L 228.550909 290.724873 
L 229.185 288.111614 
L 229.819091 286.464306 
L 230.453182 285.294186 
L 231.087273 285.784692 
L 231.721364 286.741626 
L 232.355455 285.863417 
L 232.989545 284.751791 
L 233.623636 283.908807 
L 234.257727 283.957042 
L 234.891818 284.5221 
L 236.16 281.986202 
L 236.794091 283.304415 
L 238.062273 286.592207 
L 238.696364 287.36862 
L 239.330455 286.704549 
L 239.964545 286.665454 
L 240.598636 285.735829 
L 241.232727 289.081679 
L 241.866818 290.152035 
L 242.500909 290.54299 
L 243.135 290.597242 
L 243.769091 291.686288 
L 244.403182 291.88583 
L 245.037273 291.902942 
L 245.671364 292.205579 
L 246.939545 291.485374 
L 248.207727 292.784534 
L 248.841818 293.389122 
L 249.475909 291.804726 
L 250.11 290.963758 
L 250.744091 292.751565 
L 251.378182 292.875101 
L 252.012273 291.588163 
L 253.280455 291.074483 
L 254.548636 292.538944 
L 255.182727 289.592132 
L 255.816818 288.484672 
L 256.450909 289.819889 
L 257.085 290.107537 
L 257.719091 288.682347 
L 258.353182 288.911791 
L 258.987273 289.751121 
L 259.621364 290.062785 
L 260.889545 290.289487 
L 262.157727 288.617755 
L 262.791818 288.313878 
L 263.425909 289.422509 
L 264.06 288.052742 
L 264.694091 287.081467 
L 265.962273 290.533843 
L 266.596364 289.85548 
L 267.230455 290.687648 
L 267.864545 291.010499 
L 268.498636 289.62068 
L 269.132727 289.143308 
L 269.766818 287.945442 
L 271.035 273.893358 
L 271.669091 275.666202 
L 272.303182 284.316485 
L 272.937273 289.655127 
L 273.571364 289.532526 
L 274.205455 288.051569 
L 275.473636 290.997137 
L 276.107727 290.260827 
L 276.741818 291.344994 
L 277.375909 290.576792 
L 278.01 290.344785 
L 278.644091 290.400537 
L 279.278182 289.273943 
L 279.912273 277.848911 
L 280.546364 269.848005 
L 281.180455 276.124119 
L 281.814545 283.605656 
L 282.448636 270.826786 
L 283.082727 265.214263 
L 283.716818 274.037798 
L 284.350909 288.324305 
L 284.985 286.378247 
L 285.619091 279.424409 
L 286.253182 281.353166 
L 286.887273 286.180676 
L 287.521364 288.985908 
L 288.155455 288.846186 
L 288.789545 289.339324 
L 289.423636 287.942585 
L 290.057727 286.096437 
L 290.691818 285.76791 
L 291.96 281.874899 
L 292.594091 278.630331 
L 293.228182 276.986699 
L 293.862273 275.005088 
L 294.496364 270.83364 
L 295.130455 272.161421 
L 295.764545 269.228794 
L 296.398636 264.797936 
L 297.666818 248.929399 
L 298.935 237.250885 
L 299.569091 238.417056 
L 300.203182 238.182762 
L 300.837273 242.571019 
L 301.471364 241.977579 
L 302.105455 244.871204 
L 302.739545 244.148168 
L 303.373636 240.196097 
L 304.007727 241.571262 
L 304.641818 244.051382 
L 305.275909 236.108246 
L 305.91 231.763382 
L 307.812273 246.22941 
L 308.446364 248.285445 
L 309.080455 255.296053 
L 309.714545 252.971567 
L 310.982727 240.817833 
L 311.616818 247.819703 
L 312.250909 264.637313 
L 312.885 265.899267 
L 313.519091 257.97957 
L 314.153182 261.119645 
L 314.787273 268.82842 
L 316.055455 267.543099 
L 316.689545 265.555238 
L 317.323636 257.289959 
L 317.957727 254.977064 
L 318.591818 254.811234 
L 319.225909 255.70868 
L 319.86 259.634547 
L 321.128182 251.94294 
L 321.762273 252.005589 
L 323.030455 258.380226 
L 323.664545 257.335818 
L 324.298636 262.531384 
L 324.932727 260.61041 
L 325.566818 253.95205 
L 326.200909 253.996158 
L 326.835 254.964887 
L 327.469091 256.672115 
L 328.103182 257.674176 
L 328.737273 254.568052 
L 329.371364 252.564982 
L 330.005455 253.318881 
L 330.639545 252.858591 
L 331.273636 255.680573 
L 331.907727 256.842659 
L 332.541818 255.670914 
L 333.175909 256.326476 
L 333.81 257.616154 
L 334.444091 260.972873 
L 335.078182 267.261277 
L 335.712273 266.853905 
L 336.346364 265.599469 
L 337.614545 269.527319 
L 338.248636 270.742054 
L 338.882727 270.60022 
L 339.516818 271.104735 
L 340.150909 273.963691 
L 340.785 275.524265 
L 341.419091 277.458362 
L 342.053182 278.661376 
L 342.687273 278.923858 
L 343.321364 279.688571 
L 343.955455 278.829472 
L 344.589545 280.465436 
L 345.223636 279.554429 
L 345.857727 280.100057 
L 346.491818 280.173906 
L 347.125909 278.980522 
L 347.76 279.156532 
L 348.394091 281.991701 
L 349.028182 280.148936 
L 349.662273 279.738963 
L 350.296364 281.46287 
L 350.930455 281.473382 
L 351.564545 279.039101 
L 352.198636 281.031484 
L 352.832727 280.925721 
L 353.466818 281.102754 
L 354.100909 280.605961 
L 356.003182 281.657238 
L 356.637273 281.032222 
L 357.271364 282.106871 
L 357.905455 281.483968 
L 358.539545 281.777684 
L 359.173636 282.251885 
L 359.807727 280.781801 
L 360.441818 280.566291 
L 361.075909 283.843515 
L 361.71 283.444205 
L 362.344091 283.454155 
L 362.978182 283.652746 
L 363.612273 282.855199 
L 364.246364 282.702572 
L 364.880455 282.760334 
L 365.514545 280.26087 
L 366.148636 281.079581 
L 366.782727 278.72312 
L 367.416818 274.512765 
L 368.050909 277.204871 
L 368.685 281.144183 
L 369.319091 281.869853 
L 369.953182 283.373204 
L 370.587273 282.449832 
L 371.221364 280.266626 
L 371.855455 278.968547 
L 372.489545 278.823837 
L 373.757727 256.150709 
L 374.391818 198.029561 
L 375.025909 207.775564 
L 375.66 259.998748 
L 376.294091 272.602452 
L 376.928182 274.798845 
L 377.562273 279.262658 
L 378.196364 277.272383 
L 378.830455 274.32142 
L 379.464545 275.244874 
L 380.098636 273.877701 
L 380.732727 266.097198 
L 382.000909 213.765744 
L 382.635 246.479684 
L 383.269091 272.543869 
L 383.903182 275.664572 
L 384.537273 274.708271 
L 385.171364 274.228598 
L 385.805455 274.079886 
L 386.439545 278.224573 
L 387.073636 271.707721 
L 388.341818 250.006183 
L 388.975909 229.158295 
L 389.61 243.523813 
L 390.244091 263.082225 
L 390.878182 264.837361 
L 391.512273 268.732125 
L 392.146364 269.375921 
L 392.780455 265.469583 
L 394.048636 262.476545 
L 394.682727 259.845386 
L 395.316818 260.132711 
L 395.950909 257.552806 
L 396.585 258.505251 
L 397.219091 256.021469 
L 397.853182 260.370276 
L 398.487273 276.339413 
L 398.487273 276.339413 
" clip-path="url(#p38093c5a12)" style="fill: none; stroke: #ff7f0e; stroke-width: 1.5; stroke-linecap: square"/>
   </g>
   <g id="line2d_25">
    <path d="M 73.832727 193.457437 
L 74.466818 85.442359 
L 75.100909 53.568 
L 75.735 70.633 
L 76.369091 92.157195 
L 77.003182 135.452464 
L 78.905455 200.880316 
L 79.539545 202.444879 
L 80.173636 204.740471 
L 80.807727 207.783964 
L 81.441818 215.658159 
L 82.075909 221.397016 
L 82.71 233.371638 
L 83.344091 234.422405 
L 83.978182 236.05764 
L 84.612273 248.186978 
L 85.246364 254.537514 
L 85.880455 248.727596 
L 86.514545 253.207229 
L 87.148636 259.333243 
L 87.782727 258.545044 
L 88.416818 258.578616 
L 89.050909 261.913634 
L 89.685 258.066507 
L 90.319091 255.752007 
L 90.953182 255.497928 
L 91.587273 257.830807 
L 92.221364 262.810996 
L 92.855455 270.306964 
L 93.489545 267.280876 
L 94.123636 266.876353 
L 94.757727 266.893135 
L 95.391818 264.078953 
L 96.66 269.655585 
L 97.294091 269.210881 
L 97.928182 272.681293 
L 98.562273 272.317173 
L 99.196364 270.320359 
L 99.830455 267.668049 
L 100.464545 269.699216 
L 101.098636 274.040187 
L 101.732727 276.55155 
L 102.366818 270.802238 
L 103.000909 269.640928 
L 103.635 275.922769 
L 104.269091 275.601086 
L 104.903182 275.731457 
L 105.537273 275.182416 
L 106.171364 276.225593 
L 106.805455 272.287642 
L 107.439545 271.685553 
L 108.073636 274.94349 
L 108.707727 274.962604 
L 109.341818 275.870576 
L 109.975909 275.989141 
L 110.61 272.608364 
L 111.244091 272.712626 
L 111.878182 274.528696 
L 112.512273 274.050862 
L 113.146364 275.577324 
L 113.780455 275.857477 
L 114.414545 279.058835 
L 115.048636 279.476868 
L 115.682727 274.903048 
L 116.316818 275.763852 
L 116.950909 276.84136 
L 117.585 276.944209 
L 118.219091 276.341392 
L 118.853182 279.325748 
L 119.487273 281.2873 
L 120.121364 278.995843 
L 120.755455 275.725023 
L 121.389545 276.96367 
L 122.023636 280.199113 
L 122.657727 276.651201 
L 123.291818 274.259418 
L 123.925909 274.138785 
L 124.56 277.326937 
L 125.194091 278.624729 
L 125.828182 278.595853 
L 126.462273 279.813957 
L 127.096364 278.300654 
L 127.730455 279.35423 
L 128.364545 283.215662 
L 128.998636 282.699826 
L 129.632727 282.376336 
L 130.900909 280.072784 
L 131.535 279.403778 
L 132.169091 283.977857 
L 132.803182 285.33715 
L 134.071364 279.873576 
L 135.339545 286.229014 
L 135.973636 282.47223 
L 136.607727 281.340712 
L 137.875909 283.598414 
L 138.51 282.985632 
L 139.144091 284.159654 
L 139.778182 287.294128 
L 140.412273 285.871698 
L 141.046364 285.679278 
L 141.680455 285.719311 
L 142.948636 289.104966 
L 143.582727 286.624471 
L 144.216818 286.512175 
L 144.850909 289.235382 
L 145.485 289.906142 
L 146.119091 290.166848 
L 146.753182 291.132198 
L 147.387273 289.638691 
L 148.021364 287.796446 
L 148.655455 288.322431 
L 149.289545 288.266297 
L 149.923636 287.396307 
L 150.557727 288.950777 
L 151.191818 289.407498 
L 152.46 288.386327 
L 153.094091 288.959182 
L 153.728182 286.505777 
L 154.362273 282.235871 
L 154.996364 283.638596 
L 155.630455 284.403971 
L 156.264545 286.511154 
L 157.532727 281.650619 
L 158.166818 283.449913 
L 158.800909 286.785568 
L 160.069091 287.041981 
L 160.703182 288.997504 
L 161.971364 275.80057 
L 162.605455 276.849408 
L 163.239545 279.049439 
L 163.873636 275.757996 
L 164.507727 267.176541 
L 165.141818 268.299125 
L 165.775909 271.011268 
L 166.41 267.858158 
L 167.044091 266.366342 
L 167.678182 268.948086 
L 168.312273 268.403986 
L 168.946364 268.166783 
L 169.580455 270.521301 
L 170.214545 270.791343 
L 170.848636 269.634765 
L 171.482727 274.169324 
L 172.116818 272.742302 
L 172.750909 270.830797 
L 174.019091 277.244817 
L 174.653182 279.526266 
L 175.287273 284.421184 
L 175.921364 282.909011 
L 176.555455 282.791839 
L 177.189545 286.434264 
L 177.823636 289.336351 
L 178.457727 289.274767 
L 179.091818 290.452988 
L 179.725909 292.427663 
L 180.36 292.714481 
L 180.994091 292.550416 
L 181.628182 293.102984 
L 182.262273 293.41218 
L 182.896364 294.203819 
L 183.530455 294.475239 
L 184.164545 294.083717 
L 185.432727 292.963206 
L 186.066818 293.760918 
L 186.700909 293.631898 
L 187.335 294.41908 
L 187.969091 294.343994 
L 189.237273 293.572849 
L 189.871364 293.947512 
L 190.505455 293.083337 
L 191.139545 293.422518 
L 191.773636 292.123054 
L 192.407727 291.804231 
L 193.041818 293.390027 
L 193.675909 292.069328 
L 194.31 292.600914 
L 194.944091 292.437227 
L 195.578182 293.657011 
L 196.212273 292.952058 
L 196.846364 293.565696 
L 198.114545 292.51069 
L 198.748636 293.084812 
L 199.382727 292.809041 
L 200.016818 293.016845 
L 200.650909 293.436636 
L 201.285 293.366432 
L 201.919091 292.733518 
L 202.553182 293.80719 
L 203.187273 293.633647 
L 204.455455 292.86596 
L 205.089545 292.17038 
L 205.723636 292.350534 
L 206.357727 292.862216 
L 206.991818 293.739149 
L 207.625909 293.947317 
L 208.894091 292.352044 
L 210.162273 292.953144 
L 210.796364 293.481316 
L 211.430455 293.021264 
L 212.064545 291.387238 
L 212.698636 290.791911 
L 213.332727 292.590276 
L 213.966818 292.826416 
L 214.600909 290.588893 
L 215.235 291.065235 
L 215.869091 292.331919 
L 216.503182 291.656302 
L 217.137273 291.158436 
L 217.771364 291.517125 
L 218.405455 290.961681 
L 219.039545 289.874297 
L 219.673636 289.52431 
L 220.307727 289.842744 
L 220.941818 288.708376 
L 221.575909 288.646503 
L 222.21 288.446279 
L 222.844091 287.676409 
L 223.478182 285.511868 
L 224.112273 284.362049 
L 224.746364 285.253204 
L 225.380455 285.586007 
L 226.014545 284.964913 
L 226.648636 284.592802 
L 227.282727 282.702808 
L 227.916818 280.283076 
L 228.550909 280.072108 
L 229.185 277.460143 
L 229.819091 272.780325 
L 230.453182 269.717675 
L 231.087273 270.510857 
L 231.721364 271.911611 
L 232.355455 267.764376 
L 233.623636 261.481118 
L 234.257727 261.739357 
L 234.891818 265.244068 
L 235.525909 261.198478 
L 236.16 255.888101 
L 236.794091 260.149761 
L 238.696364 268.208878 
L 239.330455 266.358361 
L 239.964545 267.51529 
L 240.598636 266.576888 
L 241.866818 279.173787 
L 242.500909 282.837289 
L 243.135 280.915773 
L 243.769091 282.993787 
L 245.037273 284.310826 
L 245.671364 285.26896 
L 246.305455 284.967272 
L 246.939545 285.439477 
L 247.573636 286.859274 
L 248.207727 286.65437 
L 248.841818 286.1171 
L 249.475909 286.984225 
L 250.11 286.308013 
L 251.378182 287.845764 
L 253.280455 287.243757 
L 253.914545 288.38181 
L 254.548636 288.490274 
L 255.182727 288.131319 
L 255.816818 286.625918 
L 256.450909 285.693628 
L 257.085 286.935587 
L 257.719091 287.467818 
L 258.353182 286.85296 
L 258.987273 287.631161 
L 259.621364 288.757787 
L 260.255455 289.54291 
L 261.523636 288.738009 
L 262.791818 288.930534 
L 264.06 290.339623 
L 264.694091 289.567557 
L 265.328182 289.40635 
L 265.962273 290.520911 
L 266.596364 290.286254 
L 267.230455 290.291624 
L 267.864545 290.98329 
L 268.498636 290.719156 
L 269.132727 290.937363 
L 269.766818 289.501744 
L 270.400909 283.586644 
L 271.035 279.262016 
L 271.669091 280.984675 
L 272.303182 287.873409 
L 272.937273 291.328007 
L 273.571364 290.491114 
L 274.205455 291.394738 
L 274.839545 291.825943 
L 275.473636 291.444825 
L 276.107727 291.732317 
L 276.741818 291.607542 
L 277.375909 291.06728 
L 278.01 291.733326 
L 278.644091 291.337035 
L 279.278182 290.421462 
L 279.912273 286.796267 
L 280.546364 284.072617 
L 281.180455 286.501606 
L 281.814545 281.879593 
L 282.448636 271.228904 
L 283.082727 268.082073 
L 283.716818 275.747323 
L 284.350909 287.416021 
L 284.985 288.615571 
L 285.619091 283.578257 
L 286.253182 282.577387 
L 286.887273 285.378988 
L 287.521364 290.57023 
L 288.155455 290.729617 
L 288.789545 289.231309 
L 289.423636 288.551147 
L 290.691818 288.553877 
L 291.325909 287.323796 
L 291.96 286.698106 
L 292.594091 286.285235 
L 293.228182 286.314633 
L 293.862273 285.979501 
L 294.496364 284.203974 
L 295.764545 284.317581 
L 296.398636 283.840016 
L 297.032727 279.611455 
L 298.300909 273.470445 
L 298.935 271.154398 
L 300.203182 271.66209 
L 300.837273 274.336244 
L 301.471364 272.89017 
L 302.105455 272.663403 
L 302.739545 272.596239 
L 303.373636 271.388076 
L 304.007727 270.708398 
L 304.641818 272.99042 
L 305.275909 268.537198 
L 305.91 266.101306 
L 306.544091 267.084741 
L 307.178182 269.774382 
L 307.812273 270.261472 
L 308.446364 271.517914 
L 309.080455 275.34005 
L 309.714545 271.929851 
L 310.348636 269.610768 
L 310.982727 265.737742 
L 311.616818 267.314113 
L 312.250909 274.541898 
L 312.885 275.322659 
L 313.519091 269.033413 
L 314.153182 269.328509 
L 314.787273 272.938125 
L 315.421364 273.514624 
L 316.689545 266.9325 
L 317.323636 257.462098 
L 317.957727 254.597017 
L 318.591818 257.242829 
L 319.225909 254.683683 
L 319.86 259.312655 
L 320.494091 258.147792 
L 321.128182 254.55781 
L 321.762273 253.98327 
L 322.396364 254.628716 
L 323.030455 258.496282 
L 323.664545 258.372485 
L 324.298636 260.244322 
L 324.932727 260.031799 
L 325.566818 262.217545 
L 326.200909 265.093454 
L 326.835 263.485216 
L 328.103182 274.820786 
L 328.737273 273.552506 
L 329.371364 275.080591 
L 330.005455 275.018299 
L 330.639545 277.93095 
L 331.273636 280.29988 
L 331.907727 281.957857 
L 332.541818 282.825531 
L 333.175909 281.885826 
L 333.81 283.188713 
L 334.444091 282.605732 
L 335.078182 282.484547 
L 335.712273 282.814906 
L 336.346364 284.951418 
L 336.980455 285.788167 
L 337.614545 286.9701 
L 338.248636 287.197045 
L 338.882727 287.698222 
L 340.150909 287.877352 
L 340.785 287.926327 
L 341.419091 289.357897 
L 342.053182 289.486107 
L 342.687273 289.398637 
L 343.321364 290.910154 
L 343.955455 290.948449 
L 344.589545 289.985458 
L 345.857727 290.590092 
L 346.491818 289.136142 
L 347.76 289.530303 
L 348.394091 290.521804 
L 349.028182 289.919882 
L 349.662273 289.553333 
L 350.296364 290.796183 
L 350.930455 291.715549 
L 351.564545 292.177717 
L 352.198636 290.323992 
L 352.832727 289.839525 
L 353.466818 290.386224 
L 354.100909 290.213887 
L 354.735 288.504601 
L 355.369091 288.033581 
L 356.003182 288.424938 
L 356.637273 290.397473 
L 357.271364 290.234347 
L 357.905455 288.820659 
L 358.539545 289.328235 
L 359.807727 289.491542 
L 361.075909 289.196517 
L 361.71 289.630551 
L 362.344091 290.746161 
L 362.978182 291.566843 
L 363.612273 290.257028 
L 364.246364 290.081413 
L 364.880455 290.547932 
L 365.514545 289.454429 
L 366.148636 289.083445 
L 366.782727 289.684485 
L 367.416818 288.705103 
L 368.050909 289.184807 
L 368.685 290.263202 
L 369.319091 289.015841 
L 369.953182 289.853088 
L 370.587273 290.275716 
L 371.221364 289.601756 
L 371.855455 289.409718 
L 372.489545 288.728674 
L 373.123636 287.715507 
L 373.757727 288.207876 
L 374.391818 281.225376 
L 375.025909 281.776786 
L 375.66 286.911096 
L 376.294091 286.461466 
L 376.928182 287.725504 
L 377.562273 287.588318 
L 378.196364 284.096367 
L 378.830455 283.918204 
L 379.464545 284.35251 
L 380.098636 282.040968 
L 380.732727 276.989365 
L 381.366818 267.569764 
L 382.000909 250.268382 
L 383.269091 283.745319 
L 383.903182 284.998818 
L 384.537273 284.680448 
L 385.171364 284.163234 
L 385.805455 283.279831 
L 386.439545 285.752207 
L 387.073636 282.692237 
L 387.707727 281.358634 
L 388.341818 278.791321 
L 388.975909 269.840919 
L 389.61 273.968142 
L 390.244091 279.383553 
L 390.878182 277.655402 
L 391.512273 279.980383 
L 392.146364 279.794753 
L 392.780455 277.691065 
L 393.414545 277.751014 
L 394.048636 277.322195 
L 394.682727 274.502126 
L 395.316818 274.848407 
L 395.950909 275.485231 
L 396.585 274.908269 
L 397.219091 271.734788 
L 397.853182 274.290724 
L 398.487273 285.023044 
L 398.487273 285.023044 
" clip-path="url(#p38093c5a12)" style="fill: none; stroke: #2ca02c; stroke-width: 1.5; stroke-linecap: square"/>
   </g>
   <g id="patch_3">
    <path d="M 57.6 307.584 
L 57.6 41.472 
" style="fill: none; stroke: #000000; stroke-width: 0.8; stroke-linejoin: miter; stroke-linecap: square"/>
   </g>
   <g id="patch_4">
    <path d="M 414.72 307.584 
L 414.72 41.472 
" style="fill: none; stroke: #000000; stroke-width: 0.8; stroke-linejoin: miter; stroke-linecap: square"/>
   </g>
   <g id="patch_5">
    <path d="M 57.6 307.584 
L 414.72 307.584 
" style="fill: none; stroke: #000000; stroke-width: 0.8; stroke-linejoin: miter; stroke-linecap: square"/>
   </g>
   <g id="patch_6">
    <path d="M 57.6 41.472 
L 414.72 41.472 
" style="fill: none; stroke: #000000; stroke-width: 0.8; stroke-linejoin: miter; stroke-linecap: square"/>
   </g>
   <g id="text_14">
    <!-- Gyro Noise Spectral Density -->
    <g transform="translate(152.01 35.472) scale(0.12 -0.12)">
     <defs>
      <path id="DejaVuSans-47" d="M 3809 666 
L 3809 1919 
L 2778 1919 
L 2778 2438 
L 4434 2438 
L 4434 434 
Q 4069 175 3628 42 
Q 3188 -91 2688 -91 
Q 1594 -91 976 548 
Q 359 1188 359 2328 
Q 359 3472 976 4111 
Q 1594 4750 2688 4750 
Q 3144 4750 3555 4637 
Q 3966 4525 4313 4306 
L 4313 3634 
Q 3963 3931 3569 4081 
Q 3175 4231 2741 4231 
Q 1884 4231 1454 3753 
Q 1025 3275 1025 2328 
Q 1025 1384 1454 906 
Q 1884 428 2741 428 
Q 3075 428 3337 486 
Q 3600 544 3809 666 
z
" transform="scale(0.015625)"/>
      <path id="DejaVuSans-6f" d="M 1959 3097 
Q 1497 3097 1228 2736 
Q 959 2375 959 1747 
Q 959 1119 1226 758 
Q 1494 397 1959 397 
Q 2419 397 2687 759 
Q 2956 1122 2956 1747 
Q 2956 2369 2687 2733 
Q 2419 3097 1959 3097 
z
M 1959 3584 
Q 2709 3584 3137 3096 
Q 3566 2609 3566 1747 
Q 3566 888 3137 398 
Q 2709 -91 1959 -91 
Q 1206 -91 779 398 
Q 353 888 353 1747 
Q 353 2609 779 3096 
Q 1206 3584 1959 3584 
z
" transform="scale(0.015625)"/>
      <path id="DejaVuSans-4e" d="M 628 4666 
L 1478 4666 
L 3547 763 
L 3547 4666 
L 4159 4666 
L 4159 0 
L 3309 0 
L 1241 3903 
L 1241 0 
L 628 0 
L 628 4666 
z
" transform="scale(0.015625)"/>
     </defs>
     <use xlink:href="#DejaVuSans-47"/>
     <use xlink:href="#DejaVuSans-79" x="77.490234"/>
     <use xlink:href="#DejaVuSans-72" x="136.669922"/>
     <use xlink:href="#DejaVuSans-6f" x="175.533203"/>
     <use xlink:href="#DejaVuSans-20" x="236.714844"/>
     <use xlink:href="#DejaVuSans-4e" x="268.501953"/>
     <use xlink:href="#DejaVuSans-6f" x="343.306641"/>
     <use xlink:href="#DejaVuSans-69" x="404.488281"/>
     <use xlink:href="#DejaVuSans-73" x="432.271484"/>
     <use xlink:href="#DejaVuSans-65" x="484.371094"/>
     <use xlink:href="#DejaVuSans-20" x="545.894531"/>
     <use xlink:href="#DejaVuSans-53" x="577.681641"/>
     <use xlink:href="#DejaVuSans-70" x="641.158203"/>
     <use xlink:href="#DejaVuSans-65" x="704.634766"/>
     <use xlink:href="#DejaVuSans-63" x="766.158203"/>
     <use xlink:href="#DejaVuSans-74" x="821.138672"/>
     <use xlink:href="#DejaVuSans-72" x="860.347656"/>
     <use xlink:href="#DejaVuSans-61" x="901.460938"/>
     <use xlink:href="#DejaVuSans-6c" x="962.740234"/>
     <use xlink:href="#DejaVuSans-20" x="990.523438"/>
     <use xlink:href="#DejaVuSans-44" x="1022.310547"/>
     <use xlink:href="#DejaVuSans-65" x="1099.3125"/>
     <use xlink:href="#DejaVuSans-6e" x="1160.835938"/>
     <use xlink:href="#DejaVuSans-73" x="1224.214844"/>
     <use xlink:href="#DejaVuSans-69" x="1276.314453"/>
     <use xlink:href="#DejaVuSans-74" x="1304.097656"/>
     <use xlink:href="#DejaVuSans-79" x="1343.306641"/>
    </g>
   </g>
   <g id="legend_1">
    <g id="patch_7">
     <path d="M 363.452813 93.506375 
L 407.72 93.506375 
Q 409.72 93.506375 409.72 91.506375 
L 409.72 48.472 
Q 409.72 46.472 407.72 46.472 
L 363.452813 46.472 
Q 361.452813 46.472 361.452813 48.472 
L 361.452813 91.506375 
Q 361.452813 93.506375 363.452813 93.506375 
z
" style="fill: #ffffff; opacity: 0.8; stroke: #cccccc; stroke-linejoin: miter"/>
    </g>
    <g id="line2d_26">
     <path d="M 365.452813 54.570438 
L 375.452813 54.570438 
L 385.452813 54.570438 
" style="fill: none; stroke: #1f77b4; stroke-width: 1.5; stroke-linecap: square"/>
    </g>
    <g id="text_15">
     <!-- gx -->
     <g transform="translate(393.452813 58.070438) scale(0.1 -0.1)">
      <defs>
       <path id="DejaVuSans-67" d="M 2906 1791 
Q 2906 2416 2648 2759 
Q 2391 3103 1925 3103 
Q 1463 3103 1205 2759 
Q 947 2416 947 1791 
Q 947 1169 1205 825 
Q 1463 481 1925 481 
Q 2391 481 2648 825 
Q 2906 1169 2906 1791 
z
M 3481 434 
Q 3481 -459 3084 -895 
Q 2688 -1331 1869 -1331 
Q 1566 -1331 1297 -1286 
Q 1028 -1241 775 -1147 
L 775 -588 
Q 1028 -725 1275 -790 
Q 1522 -856 1778 -856 
Q 2344 -856 2625 -561 
Q 2906 -266 2906 331 
L 2906 616 
Q 2728 306 2450 153 
Q 2172 0 1784 0 
Q 1141 0 747 490 
Q 353 981 353 1791 
Q 353 2603 747 3093 
Q 1141 3584 1784 3584 
Q 2172 3584 2450 3431 
Q 2728 3278 2906 2969 
L 2906 3500 
L 3481 3500 
L 3481 434 
z
" transform="scale(0.015625)"/>
       <path id="DejaVuSans-78" d="M 3513 3500 
L 2247 1797 
L 3578 0 
L 2900 0 
L 1881 1375 
L 863 0 
L 184 0 
L 1544 1831 
L 300 3500 
L 978 3500 
L 1906 2253 
L 2834 3500 
L 3513 3500 
z
" transform="scale(0.015625)"/>
      </defs>
      <use xlink:href="#DejaVuSans-67"/>
      <use xlink:href="#DejaVuSans-78" x="63.476562"/>
     </g>
    </g>
    <g id="line2d_27">
     <path d="M 365.452813 69.248563 
L 375.452813 69.248563 
L 385.452813 69.248563 
" style="fill: none; stroke: #ff7f0e; stroke-width: 1.5; stroke-linecap: square"/>
    </g>
    <g id="text_16">
     <!-- gy -->
     <g transform="translate(393.452813 72.748563) scale(0.1 -0.1)">
      <use xlink:href="#DejaVuSans-67"/>
      <use xlink:href="#DejaVuSans-79" x="63.476562"/>
     </g>
    </g>
    <g id="line2d_28">
     <path d="M 365.452813 83.926688 
L 375.452813 83.926688 
L 385.452813 83.926688 
" style="fill: none; stroke: #2ca02c; stroke-width: 1.5; stroke-linecap: square"/>
    </g>
    <g id="text_17">
     <!-- gz -->
     <g transform="translate(393.452813 87.426688) scale(0.1 -0.1)">
      <use xlink:href="#DejaVuSans-67"/>
      <use xlink:href="#DejaVuSans-7a" x="63.476562"/>
     </g>
    </g>
   </g>
  </g>
 </g>
 <defs>
  <clipPath id="p38093c5a12">
   <rect x="57.6" y="41.472" width="357.12" height="266.112"/>
  </clipPath>
 </defs>
</svg>
