<?xml version="1.0" encoding="utf-8" standalone="no"?>
<!DOCTYPE svg PUBLIC "-//W3C//DTD SVG 1.1//EN"
  "http://www.w3.org/Graphics/SVG/1.1/DTD/svg11.dtd">
<svg xmlns:xlink="http://www.w3.org/1999/xlink" width="460.8pt" height="345.6pt" viewBox="0 0 460.8 345.6" xmlns="http://www.w3.org/2000/svg" version="1.1">
 <metadata>
  <rdf:RDF xmlns:dc="http://purl.org/dc/elements/1.1/" xmlns:cc="http://creativecommons.org/ns#" xmlns:rdf="http://www.w3.org/1999/02/22-rdf-syntax-ns#">
   <cc:Work>
    <dc:type rdf:resource="http://purl.org/dc/dcmitype/StillImage"/>
    <dc:date>2024-05-09T11:52:45.019720</dc:date>
    <dc:format>image/svg+xml</dc:format>
    <dc:creator>
     <cc:Agent>
      <dc:title>Matplotlib v3.8.3, https://matplotlib.org/</dc:title>
     </cc:Agent>
    </dc:creator>
   </cc:Work>
  </rdf:RDF>
 </metadata>
 <defs>
  <style type="text/css">*{stroke-linejoin: round; stroke-linecap: butt}</style>
 </defs>
 <g id="figure_1">
  <g id="patch_1">
   <path d="M 0 345.6 
L 460.8 345.6 
L 460.8 0 
L 0 0 
z
" style="fill: #ffffff"/>
  </g>
  <g id="axes_1">
   <g id="patch_2">
    <path d="M 57.6 307.584 
L 414.72 307.584 
L 414.72 41.472 
L 57.6 41.472 
z
" style="fill: #ffffff"/>
   </g>
   <g id="matplotlib.axis_1">
    <g id="xtick_1">
     <g id="line2d_1">
      <path d="M 73.832727 307.584 
L 73.832727 41.472 
" clip-path="url(#p32b2d7c550)" style="fill: none; stroke: #b0b0b0; stroke-width: 0.8; stroke-linecap: square"/>
     </g>
     <g id="line2d_2">
      <defs>
       <path id="meee8c01e4c" d="M 0 0 
L 0 3.5 
" style="stroke: #000000; stroke-width: 0.8"/>
      </defs>
      <g>
       <use xlink:href="#meee8c01e4c" x="73.832727" y="307.584" style="stroke: #000000; stroke-width: 0.8"/>
      </g>
     </g>
     <g id="text_1">
      <!-- 0 -->
      <g transform="translate(70.651477 322.182437) scale(0.1 -0.1)">
       <defs>
        <path id="DejaVuSans-30" d="M 2034 4250 
Q 1547 4250 1301 3770 
Q 1056 3291 1056 2328 
Q 1056 1369 1301 889 
Q 1547 409 2034 409 
Q 2525 409 2770 889 
Q 3016 1369 3016 2328 
Q 3016 3291 2770 3770 
Q 2525 4250 2034 4250 
z
M 2034 4750 
Q 2819 4750 3233 4129 
Q 3647 3509 3647 2328 
Q 3647 1150 3233 529 
Q 2819 -91 2034 -91 
Q 1250 -91 836 529 
Q 422 1150 422 2328 
Q 422 3509 836 4129 
Q 1250 4750 2034 4750 
z
" transform="scale(0.015625)"/>
       </defs>
       <use xlink:href="#DejaVuSans-30"/>
      </g>
     </g>
    </g>
    <g id="xtick_2">
     <g id="line2d_3">
      <path d="M 138.841614 307.584 
L 138.841614 41.472 
" clip-path="url(#p32b2d7c550)" style="fill: none; stroke: #b0b0b0; stroke-width: 0.8; stroke-linecap: square"/>
     </g>
     <g id="line2d_4">
      <g>
       <use xlink:href="#meee8c01e4c" x="138.841614" y="307.584" style="stroke: #000000; stroke-width: 0.8"/>
      </g>
     </g>
     <g id="text_2">
      <!-- 20 -->
      <g transform="translate(132.479114 322.182437) scale(0.1 -0.1)">
       <defs>
        <path id="DejaVuSans-32" d="M 1228 531 
L 3431 531 
L 3431 0 
L 469 0 
L 469 531 
Q 828 903 1448 1529 
Q 2069 2156 2228 2338 
Q 2531 2678 2651 2914 
Q 2772 3150 2772 3378 
Q 2772 3750 2511 3984 
Q 2250 4219 1831 4219 
Q 1534 4219 1204 4116 
Q 875 4013 500 3803 
L 500 4441 
Q 881 4594 1212 4672 
Q 1544 4750 1819 4750 
Q 2544 4750 2975 4387 
Q 3406 4025 3406 3419 
Q 3406 3131 3298 2873 
Q 3191 2616 2906 2266 
Q 2828 2175 2409 1742 
Q 1991 1309 1228 531 
z
" transform="scale(0.015625)"/>
       </defs>
       <use xlink:href="#DejaVuSans-32"/>
       <use xlink:href="#DejaVuSans-30" x="63.623047"/>
      </g>
     </g>
    </g>
    <g id="xtick_3">
     <g id="line2d_5">
      <path d="M 203.850501 307.584 
L 203.850501 41.472 
" clip-path="url(#p32b2d7c550)" style="fill: none; stroke: #b0b0b0; stroke-width: 0.8; stroke-linecap: square"/>
     </g>
     <g id="line2d_6">
      <g>
       <use xlink:href="#meee8c01e4c" x="203.850501" y="307.584" style="stroke: #000000; stroke-width: 0.8"/>
      </g>
     </g>
     <g id="text_3">
      <!-- 40 -->
      <g transform="translate(197.488001 322.182437) scale(0.1 -0.1)">
       <defs>
        <path id="DejaVuSans-34" d="M 2419 4116 
L 825 1625 
L 2419 1625 
L 2419 4116 
z
M 2253 4666 
L 3047 4666 
L 3047 1625 
L 3713 1625 
L 3713 1100 
L 3047 1100 
L 3047 0 
L 2419 0 
L 2419 1100 
L 313 1100 
L 313 1709 
L 2253 4666 
z
" transform="scale(0.015625)"/>
       </defs>
       <use xlink:href="#DejaVuSans-34"/>
       <use xlink:href="#DejaVuSans-30" x="63.623047"/>
      </g>
     </g>
    </g>
    <g id="xtick_4">
     <g id="line2d_7">
      <path d="M 268.859388 307.584 
L 268.859388 41.472 
" clip-path="url(#p32b2d7c550)" style="fill: none; stroke: #b0b0b0; stroke-width: 0.8; stroke-linecap: square"/>
     </g>
     <g id="line2d_8">
      <g>
       <use xlink:href="#meee8c01e4c" x="268.859388" y="307.584" style="stroke: #000000; stroke-width: 0.8"/>
      </g>
     </g>
     <g id="text_4">
      <!-- 60 -->
      <g transform="translate(262.496888 322.182437) scale(0.1 -0.1)">
       <defs>
        <path id="DejaVuSans-36" d="M 2113 2584 
Q 1688 2584 1439 2293 
Q 1191 2003 1191 1497 
Q 1191 994 1439 701 
Q 1688 409 2113 409 
Q 2538 409 2786 701 
Q 3034 994 3034 1497 
Q 3034 2003 2786 2293 
Q 2538 2584 2113 2584 
z
M 3366 4563 
L 3366 3988 
Q 3128 4100 2886 4159 
Q 2644 4219 2406 4219 
Q 1781 4219 1451 3797 
Q 1122 3375 1075 2522 
Q 1259 2794 1537 2939 
Q 1816 3084 2150 3084 
Q 2853 3084 3261 2657 
Q 3669 2231 3669 1497 
Q 3669 778 3244 343 
Q 2819 -91 2113 -91 
Q 1303 -91 875 529 
Q 447 1150 447 2328 
Q 447 3434 972 4092 
Q 1497 4750 2381 4750 
Q 2619 4750 2861 4703 
Q 3103 4656 3366 4563 
z
" transform="scale(0.015625)"/>
       </defs>
       <use xlink:href="#DejaVuSans-36"/>
       <use xlink:href="#DejaVuSans-30" x="63.623047"/>
      </g>
     </g>
    </g>
    <g id="xtick_5">
     <g id="line2d_9">
      <path d="M 333.868274 307.584 
L 333.868274 41.472 
" clip-path="url(#p32b2d7c550)" style="fill: none; stroke: #b0b0b0; stroke-width: 0.8; stroke-linecap: square"/>
     </g>
     <g id="line2d_10">
      <g>
       <use xlink:href="#meee8c01e4c" x="333.868274" y="307.584" style="stroke: #000000; stroke-width: 0.8"/>
      </g>
     </g>
     <g id="text_5">
      <!-- 80 -->
      <g transform="translate(327.505774 322.182437) scale(0.1 -0.1)">
       <defs>
        <path id="DejaVuSans-38" d="M 2034 2216 
Q 1584 2216 1326 1975 
Q 1069 1734 1069 1313 
Q 1069 891 1326 650 
Q 1584 409 2034 409 
Q 2484 409 2743 651 
Q 3003 894 3003 1313 
Q 3003 1734 2745 1975 
Q 2488 2216 2034 2216 
z
M 1403 2484 
Q 997 2584 770 2862 
Q 544 3141 544 3541 
Q 544 4100 942 4425 
Q 1341 4750 2034 4750 
Q 2731 4750 3128 4425 
Q 3525 4100 3525 3541 
Q 3525 3141 3298 2862 
Q 3072 2584 2669 2484 
Q 3125 2378 3379 2068 
Q 3634 1759 3634 1313 
Q 3634 634 3220 271 
Q 2806 -91 2034 -91 
Q 1263 -91 848 271 
Q 434 634 434 1313 
Q 434 1759 690 2068 
Q 947 2378 1403 2484 
z
M 1172 3481 
Q 1172 3119 1398 2916 
Q 1625 2713 2034 2713 
Q 2441 2713 2670 2916 
Q 2900 3119 2900 3481 
Q 2900 3844 2670 4047 
Q 2441 4250 2034 4250 
Q 1625 4250 1398 4047 
Q 1172 3844 1172 3481 
z
" transform="scale(0.015625)"/>
       </defs>
       <use xlink:href="#DejaVuSans-38"/>
       <use xlink:href="#DejaVuSans-30" x="63.623047"/>
      </g>
     </g>
    </g>
    <g id="xtick_6">
     <g id="line2d_11">
      <path d="M 398.877161 307.584 
L 398.877161 41.472 
" clip-path="url(#p32b2d7c550)" style="fill: none; stroke: #b0b0b0; stroke-width: 0.8; stroke-linecap: square"/>
     </g>
     <g id="line2d_12">
      <g>
       <use xlink:href="#meee8c01e4c" x="398.877161" y="307.584" style="stroke: #000000; stroke-width: 0.8"/>
      </g>
     </g>
     <g id="text_6">
      <!-- 100 -->
      <g transform="translate(389.333411 322.182437) scale(0.1 -0.1)">
       <defs>
        <path id="DejaVuSans-31" d="M 794 531 
L 1825 531 
L 1825 4091 
L 703 3866 
L 703 4441 
L 1819 4666 
L 2450 4666 
L 2450 531 
L 3481 531 
L 3481 0 
L 794 0 
L 794 531 
z
" transform="scale(0.015625)"/>
       </defs>
       <use xlink:href="#DejaVuSans-31"/>
       <use xlink:href="#DejaVuSans-30" x="63.623047"/>
       <use xlink:href="#DejaVuSans-30" x="127.246094"/>
      </g>
     </g>
    </g>
    <g id="text_7">
     <!-- Frequency [Hz] -->
     <g transform="translate(198.455312 335.860562) scale(0.1 -0.1)">
      <defs>
       <path id="DejaVuSans-46" d="M 628 4666 
L 3309 4666 
L 3309 4134 
L 1259 4134 
L 1259 2759 
L 3109 2759 
L 3109 2228 
L 1259 2228 
L 1259 0 
L 628 0 
L 628 4666 
z
" transform="scale(0.015625)"/>
       <path id="DejaVuSans-72" d="M 2631 2963 
Q 2534 3019 2420 3045 
Q 2306 3072 2169 3072 
Q 1681 3072 1420 2755 
Q 1159 2438 1159 1844 
L 1159 0 
L 581 0 
L 581 3500 
L 1159 3500 
L 1159 2956 
Q 1341 3275 1631 3429 
Q 1922 3584 2338 3584 
Q 2397 3584 2469 3576 
Q 2541 3569 2628 3553 
L 2631 2963 
z
" transform="scale(0.015625)"/>
       <path id="DejaVuSans-65" d="M 3597 1894 
L 3597 1613 
L 953 1613 
Q 991 1019 1311 708 
Q 1631 397 2203 397 
Q 2534 397 2845 478 
Q 3156 559 3463 722 
L 3463 178 
Q 3153 47 2828 -22 
Q 2503 -91 2169 -91 
Q 1331 -91 842 396 
Q 353 884 353 1716 
Q 353 2575 817 3079 
Q 1281 3584 2069 3584 
Q 2775 3584 3186 3129 
Q 3597 2675 3597 1894 
z
M 3022 2063 
Q 3016 2534 2758 2815 
Q 2500 3097 2075 3097 
Q 1594 3097 1305 2825 
Q 1016 2553 972 2059 
L 3022 2063 
z
" transform="scale(0.015625)"/>
       <path id="DejaVuSans-71" d="M 947 1747 
Q 947 1113 1208 752 
Q 1469 391 1925 391 
Q 2381 391 2643 752 
Q 2906 1113 2906 1747 
Q 2906 2381 2643 2742 
Q 2381 3103 1925 3103 
Q 1469 3103 1208 2742 
Q 947 2381 947 1747 
z
M 2906 525 
Q 2725 213 2448 61 
Q 2172 -91 1784 -91 
Q 1150 -91 751 415 
Q 353 922 353 1747 
Q 353 2572 751 3078 
Q 1150 3584 1784 3584 
Q 2172 3584 2448 3432 
Q 2725 3281 2906 2969 
L 2906 3500 
L 3481 3500 
L 3481 -1331 
L 2906 -1331 
L 2906 525 
z
" transform="scale(0.015625)"/>
       <path id="DejaVuSans-75" d="M 544 1381 
L 544 3500 
L 1119 3500 
L 1119 1403 
Q 1119 906 1312 657 
Q 1506 409 1894 409 
Q 2359 409 2629 706 
Q 2900 1003 2900 1516 
L 2900 3500 
L 3475 3500 
L 3475 0 
L 2900 0 
L 2900 538 
Q 2691 219 2414 64 
Q 2138 -91 1772 -91 
Q 1169 -91 856 284 
Q 544 659 544 1381 
z
M 1991 3584 
L 1991 3584 
z
" transform="scale(0.015625)"/>
       <path id="DejaVuSans-6e" d="M 3513 2113 
L 3513 0 
L 2938 0 
L 2938 2094 
Q 2938 2591 2744 2837 
Q 2550 3084 2163 3084 
Q 1697 3084 1428 2787 
Q 1159 2491 1159 1978 
L 1159 0 
L 581 0 
L 581 3500 
L 1159 3500 
L 1159 2956 
Q 1366 3272 1645 3428 
Q 1925 3584 2291 3584 
Q 2894 3584 3203 3211 
Q 3513 2838 3513 2113 
z
" transform="scale(0.015625)"/>
       <path id="DejaVuSans-63" d="M 3122 3366 
L 3122 2828 
Q 2878 2963 2633 3030 
Q 2388 3097 2138 3097 
Q 1578 3097 1268 2742 
Q 959 2388 959 1747 
Q 959 1106 1268 751 
Q 1578 397 2138 397 
Q 2388 397 2633 464 
Q 2878 531 3122 666 
L 3122 134 
Q 2881 22 2623 -34 
Q 2366 -91 2075 -91 
Q 1284 -91 818 406 
Q 353 903 353 1747 
Q 353 2603 823 3093 
Q 1294 3584 2113 3584 
Q 2378 3584 2631 3529 
Q 2884 3475 3122 3366 
z
" transform="scale(0.015625)"/>
       <path id="DejaVuSans-79" d="M 2059 -325 
Q 1816 -950 1584 -1140 
Q 1353 -1331 966 -1331 
L 506 -1331 
L 506 -850 
L 844 -850 
Q 1081 -850 1212 -737 
Q 1344 -625 1503 -206 
L 1606 56 
L 191 3500 
L 800 3500 
L 1894 763 
L 2988 3500 
L 3597 3500 
L 2059 -325 
z
" transform="scale(0.015625)"/>
       <path id="DejaVuSans-20" transform="scale(0.015625)"/>
       <path id="DejaVuSans-5b" d="M 550 4863 
L 1875 4863 
L 1875 4416 
L 1125 4416 
L 1125 -397 
L 1875 -397 
L 1875 -844 
L 550 -844 
L 550 4863 
z
" transform="scale(0.015625)"/>
       <path id="DejaVuSans-48" d="M 628 4666 
L 1259 4666 
L 1259 2753 
L 3553 2753 
L 3553 4666 
L 4184 4666 
L 4184 0 
L 3553 0 
L 3553 2222 
L 1259 2222 
L 1259 0 
L 628 0 
L 628 4666 
z
" transform="scale(0.015625)"/>
       <path id="DejaVuSans-7a" d="M 353 3500 
L 3084 3500 
L 3084 2975 
L 922 459 
L 3084 459 
L 3084 0 
L 275 0 
L 275 525 
L 2438 3041 
L 353 3041 
L 353 3500 
z
" transform="scale(0.015625)"/>
       <path id="DejaVuSans-5d" d="M 1947 4863 
L 1947 -844 
L 622 -844 
L 622 -397 
L 1369 -397 
L 1369 4416 
L 622 4416 
L 622 4863 
L 1947 4863 
z
" transform="scale(0.015625)"/>
      </defs>
      <use xlink:href="#DejaVuSans-46"/>
      <use xlink:href="#DejaVuSans-72" x="50.269531"/>
      <use xlink:href="#DejaVuSans-65" x="89.132812"/>
      <use xlink:href="#DejaVuSans-71" x="150.65625"/>
      <use xlink:href="#DejaVuSans-75" x="214.132812"/>
      <use xlink:href="#DejaVuSans-65" x="277.511719"/>
      <use xlink:href="#DejaVuSans-6e" x="339.035156"/>
      <use xlink:href="#DejaVuSans-63" x="402.414062"/>
      <use xlink:href="#DejaVuSans-79" x="457.394531"/>
      <use xlink:href="#DejaVuSans-20" x="516.574219"/>
      <use xlink:href="#DejaVuSans-5b" x="548.361328"/>
      <use xlink:href="#DejaVuSans-48" x="587.375"/>
      <use xlink:href="#DejaVuSans-7a" x="662.570312"/>
      <use xlink:href="#DejaVuSans-5d" x="715.060547"/>
     </g>
    </g>
   </g>
   <g id="matplotlib.axis_2">
    <g id="ytick_1">
     <g id="line2d_13">
      <path d="M 57.6 296.541287 
L 414.72 296.541287 
" clip-path="url(#p32b2d7c550)" style="fill: none; stroke: #b0b0b0; stroke-width: 0.8; stroke-linecap: square"/>
     </g>
     <g id="line2d_14">
      <defs>
       <path id="m811fe5e5d6" d="M 0 0 
L -3.5 0 
" style="stroke: #000000; stroke-width: 0.8"/>
      </defs>
      <g>
       <use xlink:href="#m811fe5e5d6" x="57.6" y="296.541287" style="stroke: #000000; stroke-width: 0.8"/>
      </g>
     </g>
     <g id="text_8">
      <!-- 0.00 -->
      <g transform="translate(28.334375 300.340506) scale(0.1 -0.1)">
       <defs>
        <path id="DejaVuSans-2e" d="M 684 794 
L 1344 794 
L 1344 0 
L 684 0 
L 684 794 
z
" transform="scale(0.015625)"/>
       </defs>
       <use xlink:href="#DejaVuSans-30"/>
       <use xlink:href="#DejaVuSans-2e" x="63.623047"/>
       <use xlink:href="#DejaVuSans-30" x="95.410156"/>
       <use xlink:href="#DejaVuSans-30" x="159.033203"/>
      </g>
     </g>
    </g>
    <g id="ytick_2">
     <g id="line2d_15">
      <path d="M 57.6 248.843237 
L 414.72 248.843237 
" clip-path="url(#p32b2d7c550)" style="fill: none; stroke: #b0b0b0; stroke-width: 0.8; stroke-linecap: square"/>
     </g>
     <g id="line2d_16">
      <g>
       <use xlink:href="#m811fe5e5d6" x="57.6" y="248.843237" style="stroke: #000000; stroke-width: 0.8"/>
      </g>
     </g>
     <g id="text_9">
      <!-- 0.05 -->
      <g transform="translate(28.334375 252.642456) scale(0.1 -0.1)">
       <defs>
        <path id="DejaVuSans-35" d="M 691 4666 
L 3169 4666 
L 3169 4134 
L 1269 4134 
L 1269 2991 
Q 1406 3038 1543 3061 
Q 1681 3084 1819 3084 
Q 2600 3084 3056 2656 
Q 3513 2228 3513 1497 
Q 3513 744 3044 326 
Q 2575 -91 1722 -91 
Q 1428 -91 1123 -41 
Q 819 9 494 109 
L 494 744 
Q 775 591 1075 516 
Q 1375 441 1709 441 
Q 2250 441 2565 725 
Q 2881 1009 2881 1497 
Q 2881 1984 2565 2268 
Q 2250 2553 1709 2553 
Q 1456 2553 1204 2497 
Q 953 2441 691 2322 
L 691 4666 
z
" transform="scale(0.015625)"/>
       </defs>
       <use xlink:href="#DejaVuSans-30"/>
       <use xlink:href="#DejaVuSans-2e" x="63.623047"/>
       <use xlink:href="#DejaVuSans-30" x="95.410156"/>
       <use xlink:href="#DejaVuSans-35" x="159.033203"/>
      </g>
     </g>
    </g>
    <g id="ytick_3">
     <g id="line2d_17">
      <path d="M 57.6 201.145187 
L 414.72 201.145187 
" clip-path="url(#p32b2d7c550)" style="fill: none; stroke: #b0b0b0; stroke-width: 0.8; stroke-linecap: square"/>
     </g>
     <g id="line2d_18">
      <g>
       <use xlink:href="#m811fe5e5d6" x="57.6" y="201.145187" style="stroke: #000000; stroke-width: 0.8"/>
      </g>
     </g>
     <g id="text_10">
      <!-- 0.10 -->
      <g transform="translate(28.334375 204.944406) scale(0.1 -0.1)">
       <use xlink:href="#DejaVuSans-30"/>
       <use xlink:href="#DejaVuSans-2e" x="63.623047"/>
       <use xlink:href="#DejaVuSans-31" x="95.410156"/>
       <use xlink:href="#DejaVuSans-30" x="159.033203"/>
      </g>
     </g>
    </g>
    <g id="ytick_4">
     <g id="line2d_19">
      <path d="M 57.6 153.447138 
L 414.72 153.447138 
" clip-path="url(#p32b2d7c550)" style="fill: none; stroke: #b0b0b0; stroke-width: 0.8; stroke-linecap: square"/>
     </g>
     <g id="line2d_20">
      <g>
       <use xlink:href="#m811fe5e5d6" x="57.6" y="153.447138" style="stroke: #000000; stroke-width: 0.8"/>
      </g>
     </g>
     <g id="text_11">
      <!-- 0.15 -->
      <g transform="translate(28.334375 157.246356) scale(0.1 -0.1)">
       <use xlink:href="#DejaVuSans-30"/>
       <use xlink:href="#DejaVuSans-2e" x="63.623047"/>
       <use xlink:href="#DejaVuSans-31" x="95.410156"/>
       <use xlink:href="#DejaVuSans-35" x="159.033203"/>
      </g>
     </g>
    </g>
    <g id="ytick_5">
     <g id="line2d_21">
      <path d="M 57.6 105.749088 
L 414.72 105.749088 
" clip-path="url(#p32b2d7c550)" style="fill: none; stroke: #b0b0b0; stroke-width: 0.8; stroke-linecap: square"/>
     </g>
     <g id="line2d_22">
      <g>
       <use xlink:href="#m811fe5e5d6" x="57.6" y="105.749088" style="stroke: #000000; stroke-width: 0.8"/>
      </g>
     </g>
     <g id="text_12">
      <!-- 0.20 -->
      <g transform="translate(28.334375 109.548306) scale(0.1 -0.1)">
       <use xlink:href="#DejaVuSans-30"/>
       <use xlink:href="#DejaVuSans-2e" x="63.623047"/>
       <use xlink:href="#DejaVuSans-32" x="95.410156"/>
       <use xlink:href="#DejaVuSans-30" x="159.033203"/>
      </g>
     </g>
    </g>
    <g id="ytick_6">
     <g id="line2d_23">
      <path d="M 57.6 58.051038 
L 414.72 58.051038 
" clip-path="url(#p32b2d7c550)" style="fill: none; stroke: #b0b0b0; stroke-width: 0.8; stroke-linecap: square"/>
     </g>
     <g id="line2d_24">
      <g>
       <use xlink:href="#m811fe5e5d6" x="57.6" y="58.051038" style="stroke: #000000; stroke-width: 0.8"/>
      </g>
     </g>
     <g id="text_13">
      <!-- 0.25 -->
      <g transform="translate(28.334375 61.850256) scale(0.1 -0.1)">
       <use xlink:href="#DejaVuSans-30"/>
       <use xlink:href="#DejaVuSans-2e" x="63.623047"/>
       <use xlink:href="#DejaVuSans-32" x="95.410156"/>
       <use xlink:href="#DejaVuSans-35" x="159.033203"/>
      </g>
     </g>
    </g>
    <g id="text_14">
     <!-- Spectral Density ($rad/s  / \sqrt{Hz}$) -->
     <g transform="translate(22.234375 246.178) rotate(-90) scale(0.1 -0.1)">
      <defs>
       <path id="DejaVuSans-53" d="M 3425 4513 
L 3425 3897 
Q 3066 4069 2747 4153 
Q 2428 4238 2131 4238 
Q 1616 4238 1336 4038 
Q 1056 3838 1056 3469 
Q 1056 3159 1242 3001 
Q 1428 2844 1947 2747 
L 2328 2669 
Q 3034 2534 3370 2195 
Q 3706 1856 3706 1288 
Q 3706 609 3251 259 
Q 2797 -91 1919 -91 
Q 1588 -91 1214 -16 
Q 841 59 441 206 
L 441 856 
Q 825 641 1194 531 
Q 1563 422 1919 422 
Q 2459 422 2753 634 
Q 3047 847 3047 1241 
Q 3047 1584 2836 1778 
Q 2625 1972 2144 2069 
L 1759 2144 
Q 1053 2284 737 2584 
Q 422 2884 422 3419 
Q 422 4038 858 4394 
Q 1294 4750 2059 4750 
Q 2388 4750 2728 4690 
Q 3069 4631 3425 4513 
z
" transform="scale(0.015625)"/>
       <path id="DejaVuSans-70" d="M 1159 525 
L 1159 -1331 
L 581 -1331 
L 581 3500 
L 1159 3500 
L 1159 2969 
Q 1341 3281 1617 3432 
Q 1894 3584 2278 3584 
Q 2916 3584 3314 3078 
Q 3713 2572 3713 1747 
Q 3713 922 3314 415 
Q 2916 -91 2278 -91 
Q 1894 -91 1617 61 
Q 1341 213 1159 525 
z
M 3116 1747 
Q 3116 2381 2855 2742 
Q 2594 3103 2138 3103 
Q 1681 3103 1420 2742 
Q 1159 2381 1159 1747 
Q 1159 1113 1420 752 
Q 1681 391 2138 391 
Q 2594 391 2855 752 
Q 3116 1113 3116 1747 
z
" transform="scale(0.015625)"/>
       <path id="DejaVuSans-74" d="M 1172 4494 
L 1172 3500 
L 2356 3500 
L 2356 3053 
L 1172 3053 
L 1172 1153 
Q 1172 725 1289 603 
Q 1406 481 1766 481 
L 2356 481 
L 2356 0 
L 1766 0 
Q 1100 0 847 248 
Q 594 497 594 1153 
L 594 3053 
L 172 3053 
L 172 3500 
L 594 3500 
L 594 4494 
L 1172 4494 
z
" transform="scale(0.015625)"/>
       <path id="DejaVuSans-61" d="M 2194 1759 
Q 1497 1759 1228 1600 
Q 959 1441 959 1056 
Q 959 750 1161 570 
Q 1363 391 1709 391 
Q 2188 391 2477 730 
Q 2766 1069 2766 1631 
L 2766 1759 
L 2194 1759 
z
M 3341 1997 
L 3341 0 
L 2766 0 
L 2766 531 
Q 2569 213 2275 61 
Q 1981 -91 1556 -91 
Q 1019 -91 701 211 
Q 384 513 384 1019 
Q 384 1609 779 1909 
Q 1175 2209 1959 2209 
L 2766 2209 
L 2766 2266 
Q 2766 2663 2505 2880 
Q 2244 3097 1772 3097 
Q 1472 3097 1187 3025 
Q 903 2953 641 2809 
L 641 3341 
Q 956 3463 1253 3523 
Q 1550 3584 1831 3584 
Q 2591 3584 2966 3190 
Q 3341 2797 3341 1997 
z
" transform="scale(0.015625)"/>
       <path id="DejaVuSans-6c" d="M 603 4863 
L 1178 4863 
L 1178 0 
L 603 0 
L 603 4863 
z
" transform="scale(0.015625)"/>
       <path id="DejaVuSans-44" d="M 1259 4147 
L 1259 519 
L 2022 519 
Q 2988 519 3436 956 
Q 3884 1394 3884 2338 
Q 3884 3275 3436 3711 
Q 2988 4147 2022 4147 
L 1259 4147 
z
M 628 4666 
L 1925 4666 
Q 3281 4666 3915 4102 
Q 4550 3538 4550 2338 
Q 4550 1131 3912 565 
Q 3275 0 1925 0 
L 628 0 
L 628 4666 
z
" transform="scale(0.015625)"/>
       <path id="DejaVuSans-73" d="M 2834 3397 
L 2834 2853 
Q 2591 2978 2328 3040 
Q 2066 3103 1784 3103 
Q 1356 3103 1142 2972 
Q 928 2841 928 2578 
Q 928 2378 1081 2264 
Q 1234 2150 1697 2047 
L 1894 2003 
Q 2506 1872 2764 1633 
Q 3022 1394 3022 966 
Q 3022 478 2636 193 
Q 2250 -91 1575 -91 
Q 1294 -91 989 -36 
Q 684 19 347 128 
L 347 722 
Q 666 556 975 473 
Q 1284 391 1588 391 
Q 1994 391 2212 530 
Q 2431 669 2431 922 
Q 2431 1156 2273 1281 
Q 2116 1406 1581 1522 
L 1381 1569 
Q 847 1681 609 1914 
Q 372 2147 372 2553 
Q 372 3047 722 3315 
Q 1072 3584 1716 3584 
Q 2034 3584 2315 3537 
Q 2597 3491 2834 3397 
z
" transform="scale(0.015625)"/>
       <path id="DejaVuSans-69" d="M 603 3500 
L 1178 3500 
L 1178 0 
L 603 0 
L 603 3500 
z
M 603 4863 
L 1178 4863 
L 1178 4134 
L 603 4134 
L 603 4863 
z
" transform="scale(0.015625)"/>
       <path id="DejaVuSans-28" d="M 1984 4856 
Q 1566 4138 1362 3434 
Q 1159 2731 1159 2009 
Q 1159 1288 1364 580 
Q 1569 -128 1984 -844 
L 1484 -844 
Q 1016 -109 783 600 
Q 550 1309 550 2009 
Q 550 2706 781 3412 
Q 1013 4119 1484 4856 
L 1984 4856 
z
" transform="scale(0.015625)"/>
       <path id="DejaVuSans-Oblique-72" d="M 2853 2969 
Q 2766 3016 2653 3041 
Q 2541 3066 2413 3066 
Q 1953 3066 1609 2717 
Q 1266 2369 1153 1784 
L 800 0 
L 225 0 
L 909 3500 
L 1484 3500 
L 1375 2956 
Q 1603 3259 1920 3421 
Q 2238 3584 2597 3584 
Q 2691 3584 2781 3573 
Q 2872 3563 2963 3538 
L 2853 2969 
z
" transform="scale(0.015625)"/>
       <path id="DejaVuSans-Oblique-61" d="M 3438 1997 
L 3047 0 
L 2472 0 
L 2578 531 
Q 2325 219 2001 64 
Q 1678 -91 1281 -91 
Q 834 -91 548 182 
Q 263 456 263 884 
Q 263 1497 752 1853 
Q 1241 2209 2100 2209 
L 2900 2209 
L 2931 2363 
Q 2938 2388 2941 2417 
Q 2944 2447 2944 2509 
Q 2944 2788 2717 2942 
Q 2491 3097 2081 3097 
Q 1800 3097 1504 3025 
Q 1209 2953 897 2809 
L 997 3341 
Q 1322 3463 1633 3523 
Q 1944 3584 2234 3584 
Q 2853 3584 3176 3315 
Q 3500 3047 3500 2534 
Q 3500 2431 3484 2292 
Q 3469 2153 3438 1997 
z
M 2816 1759 
L 2241 1759 
Q 1534 1759 1195 1570 
Q 856 1381 856 984 
Q 856 709 1029 553 
Q 1203 397 1509 397 
Q 1978 397 2328 733 
Q 2678 1069 2791 1631 
L 2816 1759 
z
" transform="scale(0.015625)"/>
       <path id="DejaVuSans-Oblique-64" d="M 2675 525 
Q 2444 222 2128 65 
Q 1813 -91 1428 -91 
Q 903 -91 598 267 
Q 294 625 294 1247 
Q 294 1766 478 2236 
Q 663 2706 1013 3078 
Q 1244 3325 1534 3454 
Q 1825 3584 2144 3584 
Q 2481 3584 2739 3421 
Q 2997 3259 3138 2956 
L 3513 4863 
L 4091 4863 
L 3144 0 
L 2566 0 
L 2675 525 
z
M 891 1350 
Q 891 897 1095 644 
Q 1300 391 1663 391 
Q 1931 391 2161 520 
Q 2391 650 2566 903 
Q 2750 1166 2856 1509 
Q 2963 1853 2963 2188 
Q 2963 2622 2758 2865 
Q 2553 3109 2194 3109 
Q 1922 3109 1687 2981 
Q 1453 2853 1288 2613 
Q 1106 2353 998 2009 
Q 891 1666 891 1350 
z
" transform="scale(0.015625)"/>
       <path id="DejaVuSans-2f" d="M 1625 4666 
L 2156 4666 
L 531 -594 
L 0 -594 
L 1625 4666 
z
" transform="scale(0.015625)"/>
       <path id="DejaVuSans-Oblique-73" d="M 3200 3397 
L 3091 2853 
Q 2863 2978 2609 3040 
Q 2356 3103 2088 3103 
Q 1634 3103 1373 2948 
Q 1113 2794 1113 2528 
Q 1113 2219 1719 2053 
Q 1766 2041 1788 2034 
L 1972 1978 
Q 2547 1819 2739 1644 
Q 2931 1469 2931 1166 
Q 2931 609 2489 259 
Q 2047 -91 1331 -91 
Q 1053 -91 747 -37 
Q 441 16 72 128 
L 184 722 
Q 500 559 806 475 
Q 1113 391 1394 391 
Q 1816 391 2080 572 
Q 2344 753 2344 1031 
Q 2344 1331 1650 1516 
L 1591 1531 
L 1394 1581 
Q 956 1697 753 1886 
Q 550 2075 550 2369 
Q 550 2928 970 3256 
Q 1391 3584 2113 3584 
Q 2397 3584 2667 3537 
Q 2938 3491 3200 3397 
z
" transform="scale(0.015625)"/>
       <path id="STIXSizeOneSym-Regular-221a" d="M 6970 9933 
L 3373 -1888 
L 3104 -1888 
L 1626 2918 
Q 1555 3149 1465 3251 
Q 1376 3354 1229 3354 
Q 1011 3354 794 3181 
L 717 3309 
L 1766 4115 
L 1926 4115 
L 3379 -602 
L 3405 -602 
L 6605 9933 
L 6970 9933 
z
" transform="scale(0.015625)"/>
       <path id="DejaVuSans-Oblique-48" d="M 1081 4666 
L 1716 4666 
L 1344 2753 
L 3634 2753 
L 4006 4666 
L 4641 4666 
L 3731 0 
L 3097 0 
L 3531 2222 
L 1241 2222 
L 806 0 
L 172 0 
L 1081 4666 
z
" transform="scale(0.015625)"/>
       <path id="DejaVuSans-Oblique-7a" d="M 744 3500 
L 3475 3500 
L 3372 2975 
L 738 459 
L 2913 459 
L 2822 0 
L -19 0 
L 84 525 
L 2719 3041 
L 653 3041 
L 744 3500 
z
" transform="scale(0.015625)"/>
       <path id="DejaVuSans-29" d="M 513 4856 
L 1013 4856 
Q 1481 4119 1714 3412 
Q 1947 2706 1947 2009 
Q 1947 1309 1714 600 
Q 1481 -109 1013 -844 
L 513 -844 
Q 928 -128 1133 580 
Q 1338 1288 1338 2009 
Q 1338 2731 1133 3434 
Q 928 4138 513 4856 
z
" transform="scale(0.015625)"/>
      </defs>
      <use xlink:href="#DejaVuSans-53" transform="translate(0 0.578125)"/>
      <use xlink:href="#DejaVuSans-70" transform="translate(63.476562 0.578125)"/>
      <use xlink:href="#DejaVuSans-65" transform="translate(126.953125 0.578125)"/>
      <use xlink:href="#DejaVuSans-63" transform="translate(188.476562 0.578125)"/>
      <use xlink:href="#DejaVuSans-74" transform="translate(243.457031 0.578125)"/>
      <use xlink:href="#DejaVuSans-72" transform="translate(282.666016 0.578125)"/>
      <use xlink:href="#DejaVuSans-61" transform="translate(323.779297 0.578125)"/>
      <use xlink:href="#DejaVuSans-6c" transform="translate(385.058594 0.578125)"/>
      <use xlink:href="#DejaVuSans-20" transform="translate(412.841797 0.578125)"/>
      <use xlink:href="#DejaVuSans-44" transform="translate(444.628906 0.578125)"/>
      <use xlink:href="#DejaVuSans-65" transform="translate(521.630859 0.578125)"/>
      <use xlink:href="#DejaVuSans-6e" transform="translate(583.154297 0.578125)"/>
      <use xlink:href="#DejaVuSans-73" transform="translate(646.533203 0.578125)"/>
      <use xlink:href="#DejaVuSans-69" transform="translate(698.632812 0.578125)"/>
      <use xlink:href="#DejaVuSans-74" transform="translate(726.416016 0.578125)"/>
      <use xlink:href="#DejaVuSans-79" transform="translate(765.625 0.578125)"/>
      <use xlink:href="#DejaVuSans-20" transform="translate(824.804688 0.578125)"/>
      <use xlink:href="#DejaVuSans-28" transform="translate(856.591797 0.578125)"/>
      <use xlink:href="#DejaVuSans-Oblique-72" transform="translate(895.605469 0.578125)"/>
      <use xlink:href="#DejaVuSans-Oblique-61" transform="translate(936.71875 0.578125)"/>
      <use xlink:href="#DejaVuSans-Oblique-64" transform="translate(997.998047 0.578125)"/>
      <use xlink:href="#DejaVuSans-2f" transform="translate(1061.474609 0.578125)"/>
      <use xlink:href="#DejaVuSans-Oblique-73" transform="translate(1095.166016 0.578125)"/>
      <use xlink:href="#DejaVuSans-2f" transform="translate(1147.265625 0.578125)"/>
      <use xlink:href="#STIXSizeOneSym-Regular-221a" transform="translate(1180.957031 17.09375) scale(0.563912)"/>
      <use xlink:href="#DejaVuSans-Oblique-48" transform="translate(1253.045395 0.84375)"/>
      <use xlink:href="#DejaVuSans-Oblique-7a" transform="translate(1328.240707 0.84375)"/>
      <use xlink:href="#DejaVuSans-29" transform="translate(1393.230942 0.578125)"/>
      <path d="M 1240.545395 97.5 
L 1240.545395 103.75 
L 1393.230942 103.75 
L 1393.230942 97.5 
L 1240.545395 97.5 
z
"/>
     </g>
    </g>
   </g>
   <g id="line2d_25">
    <path d="M 73.832727 293.408713 
L 74.466818 289.905185 
L 75.100909 290.758109 
L 75.735 292.320669 
L 76.369091 293.442383 
L 77.003182 294.93216 
L 77.637273 295.359364 
L 78.271364 294.889694 
L 78.905455 294.668677 
L 80.173636 294.868028 
L 80.807727 295.258582 
L 82.075909 295.419073 
L 84.612273 295.462457 
L 85.880455 294.988682 
L 86.514545 295.334619 
L 87.782727 295.41533 
L 89.685 295.309115 
L 90.319091 295.488 
L 90.953182 295.322198 
L 91.587273 294.475366 
L 92.221364 294.355521 
L 92.855455 295.012693 
L 93.489545 295.184516 
L 94.757727 295.182687 
L 96.025909 295.198906 
L 97.294091 294.881867 
L 97.928182 294.501478 
L 99.196364 294.356405 
L 99.830455 293.83584 
L 100.464545 292.696255 
L 101.098636 291.913393 
L 101.732727 292.438425 
L 103.000909 292.733361 
L 103.635 292.400115 
L 104.269091 292.465682 
L 105.537273 292.998486 
L 106.171364 293.652502 
L 106.805455 294.0635 
L 108.073636 293.961325 
L 108.707727 293.614491 
L 109.341818 293.645447 
L 109.975909 293.362383 
L 110.61 293.292818 
L 111.244091 293.661612 
L 111.878182 293.335357 
L 112.512273 293.552293 
L 113.146364 293.526023 
L 113.780455 293.378943 
L 115.682727 293.776362 
L 116.950909 293.064043 
L 117.585 293.220658 
L 118.219091 291.828755 
L 119.487273 290.035868 
L 120.121364 289.63762 
L 120.755455 288.603137 
L 121.389545 288.703591 
L 122.023636 288.418981 
L 122.657727 286.770673 
L 123.291818 286.094832 
L 123.925909 286.742258 
L 124.56 288.487142 
L 126.462273 281.379601 
L 127.096364 280.653805 
L 127.730455 282.058623 
L 128.364545 284.18252 
L 128.998636 284.631949 
L 130.266818 286.475821 
L 130.900909 286.564221 
L 131.535 288.140414 
L 132.169091 288.495491 
L 132.803182 289.512079 
L 133.437273 288.724493 
L 134.071364 288.58416 
L 134.705455 289.511734 
L 135.339545 289.140696 
L 135.973636 288.189922 
L 136.607727 288.042774 
L 137.241818 290.149764 
L 137.875909 291.454693 
L 138.51 291.713017 
L 139.778182 292.505691 
L 140.412273 293.343845 
L 141.046364 293.605209 
L 141.680455 293.580519 
L 142.314545 293.672505 
L 142.948636 293.411655 
L 143.582727 293.764491 
L 144.216818 293.978643 
L 144.850909 293.847421 
L 146.119091 293.314813 
L 147.387273 293.942188 
L 148.021364 293.871497 
L 148.655455 293.528198 
L 149.289545 293.469691 
L 149.923636 293.852594 
L 151.191818 293.344172 
L 151.825909 292.691795 
L 153.094091 292.608705 
L 153.728182 291.963327 
L 154.362273 292.035462 
L 154.996364 292.512811 
L 155.630455 292.721345 
L 156.264545 292.1697 
L 156.898636 291.880226 
L 157.532727 292.066064 
L 158.166818 291.388333 
L 159.435 291.050682 
L 160.069091 291.156449 
L 160.703182 291.796064 
L 161.337273 291.952787 
L 161.971364 292.446156 
L 162.605455 292.243286 
L 163.239545 292.507301 
L 163.873636 292.406195 
L 164.507727 291.772498 
L 167.044091 291.100229 
L 167.678182 291.590125 
L 168.312273 291.678112 
L 168.946364 290.813373 
L 169.580455 290.531708 
L 170.214545 290.079823 
L 171.482727 290.840261 
L 172.116818 291.169526 
L 172.750909 292.105849 
L 173.385 292.175508 
L 174.019091 291.624797 
L 174.653182 292.238102 
L 175.287273 292.205498 
L 175.921364 291.701134 
L 177.189545 291.755558 
L 177.823636 290.898618 
L 178.457727 291.083029 
L 179.091818 289.650491 
L 179.725909 288.875301 
L 180.36 289.736799 
L 180.994091 288.83721 
L 181.628182 288.662122 
L 182.262273 289.341076 
L 182.896364 288.868606 
L 184.164545 288.52334 
L 185.432727 286.657033 
L 186.066818 286.26758 
L 186.700909 285.132822 
L 187.335 286.275586 
L 187.969091 286.01701 
L 188.603182 286.848671 
L 189.237273 284.983085 
L 189.871364 284.266205 
L 190.505455 284.582933 
L 191.139545 283.939954 
L 191.773636 282.593306 
L 192.407727 283.431792 
L 193.041818 282.79742 
L 193.675909 283.107182 
L 194.31 283.749504 
L 194.944091 283.282463 
L 195.578182 282.04335 
L 196.212273 282.647942 
L 196.846364 280.961433 
L 197.480455 281.018363 
L 198.114545 281.275644 
L 198.748636 282.334905 
L 199.382727 282.204687 
L 200.016818 282.829358 
L 200.650909 281.855845 
L 201.285 281.640292 
L 201.919091 282.696758 
L 202.553182 281.81692 
L 203.187273 279.902954 
L 203.821364 278.345453 
L 204.455455 279.134598 
L 205.089545 281.621713 
L 205.723636 280.204493 
L 206.357727 280.39775 
L 206.991818 280.932919 
L 208.26 278.509546 
L 208.894091 282.112247 
L 210.162273 280.727126 
L 210.796364 280.749923 
L 211.430455 280.457271 
L 212.064545 280.87826 
L 213.332727 278.494194 
L 213.966818 276.806735 
L 214.600909 276.089702 
L 215.235 276.878212 
L 215.869091 277.151897 
L 216.503182 276.828332 
L 217.137273 277.18018 
L 218.405455 280.149743 
L 219.039545 277.535686 
L 219.673636 275.722008 
L 220.307727 276.982549 
L 220.941818 273.67181 
L 221.575909 273.791124 
L 222.21 273.152405 
L 223.478182 276.529762 
L 224.112273 278.696732 
L 224.746364 274.515636 
L 225.380455 274.134059 
L 226.014545 272.056512 
L 226.648636 269.111215 
L 227.282727 271.717844 
L 227.916818 270.043286 
L 228.550909 268.751811 
L 229.185 265.099799 
L 229.819091 266.203678 
L 231.087273 260.466091 
L 231.721364 260.489546 
L 232.355455 260.637977 
L 232.989545 255.350347 
L 233.623636 256.461278 
L 234.257727 261.131663 
L 234.891818 261.304631 
L 235.525909 260.51022 
L 236.16 260.893164 
L 236.794091 258.52195 
L 237.428182 259.513599 
L 238.696364 255.573285 
L 239.330455 256.602139 
L 239.964545 260.085163 
L 241.232727 261.918648 
L 241.866818 267.040495 
L 242.500909 264.883082 
L 243.135 256.253926 
L 244.403182 251.11654 
L 245.037273 259.094419 
L 245.671364 261.138226 
L 246.305455 257.277615 
L 246.939545 251.954168 
L 247.573636 255.89994 
L 248.207727 261.491192 
L 248.841818 257.207982 
L 249.475909 260.043337 
L 250.11 260.173602 
L 250.744091 258.020693 
L 252.012273 259.949445 
L 252.646364 256.409909 
L 253.280455 255.881249 
L 253.914545 260.159024 
L 254.548636 255.205919 
L 255.182727 254.949553 
L 255.816818 255.082695 
L 256.450909 252.661948 
L 257.085 248.492275 
L 258.353182 258.324232 
L 258.987273 253.492914 
L 259.621364 251.132824 
L 260.255455 256.664709 
L 260.889545 256.993983 
L 261.523636 254.014171 
L 262.157727 248.240537 
L 262.791818 254.760572 
L 263.425909 255.403838 
L 264.06 254.213682 
L 264.694091 249.570049 
L 265.328182 252.298782 
L 265.962273 258.5282 
L 266.596364 255.027654 
L 267.230455 253.703579 
L 267.864545 253.639489 
L 268.498636 256.849895 
L 269.132727 251.039817 
L 269.766818 251.849327 
L 270.400909 259.009659 
L 271.035 258.299544 
L 271.669091 255.304251 
L 272.303182 257.902001 
L 272.937273 255.496503 
L 273.571364 254.391168 
L 274.205455 261.672542 
L 274.839545 260.834983 
L 275.473636 260.551354 
L 276.107727 259.585558 
L 276.741818 255.950638 
L 277.375909 259.75258 
L 278.01 260.586185 
L 278.644091 251.420088 
L 279.278182 252.913925 
L 279.912273 249.592432 
L 280.546364 245.387551 
L 281.180455 242.82669 
L 281.814545 233.623136 
L 282.448636 230.287283 
L 283.082727 234.610382 
L 283.716818 229.510061 
L 284.350909 221.456966 
L 284.985 210.169588 
L 285.619091 211.784622 
L 286.253182 207.174905 
L 286.887273 213.904047 
L 287.521364 210.648755 
L 288.155455 188.46357 
L 288.789545 184.451497 
L 289.423636 168.401888 
L 290.057727 168.77793 
L 290.691818 175.832825 
L 291.325909 181.432668 
L 291.96 188.862519 
L 292.594091 182.374129 
L 293.228182 179.475121 
L 293.862273 174.714148 
L 294.496364 164.9308 
L 295.130455 160.800412 
L 295.764545 150.196403 
L 296.398636 153.828653 
L 297.032727 143.819195 
L 297.666818 148.303499 
L 298.300909 146.606128 
L 298.935 138.686722 
L 299.569091 134.949171 
L 300.203182 151.899936 
L 300.837273 128.641913 
L 301.471364 117.896272 
L 302.105455 111.720065 
L 303.373636 122.810967 
L 304.007727 159.131944 
L 304.641818 162.562409 
L 305.275909 136.230785 
L 305.91 155.632347 
L 306.544091 171.009568 
L 307.178182 178.847641 
L 307.812273 167.279283 
L 309.080455 194.162403 
L 309.714545 199.222484 
L 310.348636 194.785955 
L 310.982727 202.138509 
L 311.616818 205.779288 
L 312.250909 206.081181 
L 312.885 217.574076 
L 313.519091 219.777116 
L 314.153182 228.049038 
L 315.421364 237.067785 
L 316.689545 230.226746 
L 317.323636 235.431367 
L 317.957727 244.000213 
L 318.591818 242.897895 
L 319.225909 250.421197 
L 319.86 249.505048 
L 320.494091 249.156522 
L 321.128182 253.511243 
L 321.762273 253.879787 
L 322.396364 255.072256 
L 323.030455 250.092557 
L 323.664545 248.632519 
L 324.298636 254.038826 
L 324.932727 257.161237 
L 325.566818 258.468992 
L 326.200909 257.223922 
L 326.835 254.864137 
L 327.469091 255.080186 
L 328.103182 256.723334 
L 328.737273 262.19594 
L 329.371364 262.693071 
L 330.005455 265.427758 
L 330.639545 264.119193 
L 331.273636 263.173461 
L 331.907727 266.647234 
L 332.541818 268.06271 
L 333.175909 266.790673 
L 333.81 267.123858 
L 334.444091 273.400289 
L 335.078182 274.333852 
L 335.712273 275.00008 
L 336.346364 278.852869 
L 336.980455 275.2744 
L 337.614545 274.266879 
L 338.248636 274.506333 
L 338.882727 274.064849 
L 339.516818 274.041603 
L 340.150909 274.849048 
L 340.785 276.764458 
L 341.419091 275.403474 
L 342.053182 275.026909 
L 342.687273 275.526384 
L 343.321364 279.312992 
L 343.955455 280.852385 
L 344.589545 278.422638 
L 345.223636 279.285684 
L 345.857727 281.772848 
L 346.491818 280.417706 
L 347.76 276.343877 
L 348.394091 279.463612 
L 349.028182 281.290916 
L 349.662273 281.164153 
L 350.296364 282.208824 
L 350.930455 281.953194 
L 351.564545 283.118959 
L 352.198636 282.532847 
L 352.832727 280.795943 
L 353.466818 281.920082 
L 354.100909 282.174483 
L 354.735 281.344509 
L 355.369091 283.275655 
L 356.637273 283.502658 
L 357.905455 281.624446 
L 358.539545 281.785069 
L 359.173636 282.367992 
L 359.807727 284.300428 
L 360.441818 284.99357 
L 361.075909 284.689276 
L 361.71 283.708673 
L 362.344091 284.05573 
L 362.978182 284.592826 
L 363.612273 285.469249 
L 364.246364 285.964537 
L 364.880455 286.17384 
L 365.514545 285.824767 
L 366.148636 285.96377 
L 366.782727 285.58549 
L 368.050909 284.008653 
L 368.685 284.224275 
L 369.319091 285.289361 
L 369.953182 285.418446 
L 370.587273 284.930389 
L 371.221364 284.145266 
L 371.855455 283.079202 
L 372.489545 284.645104 
L 373.123636 284.416375 
L 373.757727 283.833092 
L 374.391818 284.73169 
L 375.025909 283.99438 
L 375.66 283.701958 
L 376.294091 284.049193 
L 377.562273 282.522234 
L 378.196364 282.615567 
L 378.830455 282.056316 
L 379.464545 283.295284 
L 380.098636 281.915879 
L 380.732727 281.620329 
L 381.366818 283.125871 
L 382.000909 281.467685 
L 382.635 282.181393 
L 383.269091 283.610178 
L 383.903182 283.30257 
L 384.537273 281.813862 
L 385.171364 281.59284 
L 386.439545 280.884979 
L 387.073636 281.590234 
L 387.707727 281.358992 
L 388.341818 279.863369 
L 388.975909 280.768337 
L 390.244091 281.952086 
L 390.878182 280.939363 
L 391.512273 278.63181 
L 392.146364 281.138833 
L 392.780455 281.185826 
L 393.414545 280.697447 
L 394.048636 277.22341 
L 394.682727 277.439053 
L 395.316818 278.962608 
L 395.950909 278.558963 
L 396.585 279.964835 
L 397.219091 276.571047 
L 397.853182 280.305903 
L 398.487273 285.691226 
L 398.487273 285.691226 
" clip-path="url(#p32b2d7c550)" style="fill: none; stroke: #1f77b4; stroke-width: 1.5; stroke-linecap: square"/>
   </g>
   <g id="line2d_26">
    <path d="M 73.832727 172.073976 
L 74.466818 53.568 
L 75.100909 152.267075 
L 75.735 227.154435 
L 76.369091 240.916044 
L 77.003182 250.458452 
L 77.637273 269.864217 
L 78.271364 280.378834 
L 78.905455 286.021655 
L 79.539545 286.135146 
L 80.173636 287.793484 
L 80.807727 288.492961 
L 82.075909 291.300871 
L 83.344091 292.386363 
L 83.978182 291.713944 
L 84.612273 291.831618 
L 85.246364 291.434148 
L 85.880455 291.387635 
L 86.514545 291.607856 
L 87.148636 291.644807 
L 87.782727 291.127976 
L 88.416818 290.829711 
L 89.685 291.048664 
L 90.319091 291.579067 
L 90.953182 291.500749 
L 91.587273 288.975966 
L 92.221364 287.489304 
L 92.855455 289.656102 
L 93.489545 290.935497 
L 94.123636 291.664631 
L 94.757727 291.156785 
L 95.391818 290.847646 
L 96.66 291.450216 
L 97.294091 290.359077 
L 97.928182 288.65815 
L 98.562273 289.63997 
L 99.196364 289.779427 
L 99.830455 288.684323 
L 100.464545 286.845928 
L 101.098636 285.99494 
L 102.366818 287.8397 
L 103.000909 288.430134 
L 103.635 289.569894 
L 104.269091 289.45283 
L 104.903182 289.580236 
L 105.537273 289.922406 
L 106.171364 291.693604 
L 106.805455 292.986954 
L 108.073636 293.659924 
L 108.707727 293.435957 
L 109.341818 293.694754 
L 109.975909 293.537634 
L 111.244091 294.003082 
L 111.878182 293.576128 
L 112.512273 293.679901 
L 113.146364 293.617675 
L 113.780455 294.030679 
L 115.048636 294.018757 
L 115.682727 294.250235 
L 116.316818 294.603359 
L 116.950909 294.751131 
L 118.219091 294.017334 
L 119.487273 293.620324 
L 121.389545 294.083462 
L 122.023636 293.554537 
L 122.657727 293.418295 
L 123.291818 293.891185 
L 123.925909 294.003474 
L 124.56 294.284605 
L 125.194091 294.358151 
L 125.828182 294.087055 
L 126.462273 293.599068 
L 127.096364 293.525579 
L 127.730455 293.713753 
L 128.364545 293.581986 
L 128.998636 293.275256 
L 129.632727 293.418932 
L 130.266818 293.383271 
L 130.900909 293.151332 
L 131.535 293.183639 
L 132.169091 293.500846 
L 132.803182 293.431898 
L 133.437273 293.19677 
L 134.071364 293.188214 
L 134.705455 293.69745 
L 135.339545 293.55228 
L 135.973636 292.779028 
L 136.607727 292.731122 
L 137.241818 293.011331 
L 137.875909 293.616456 
L 138.51 293.619386 
L 139.778182 294.051317 
L 140.412273 294.526041 
L 141.046364 294.427959 
L 142.314545 294.49012 
L 142.948636 294.267578 
L 144.216818 294.387001 
L 144.850909 294.754014 
L 145.485 294.446238 
L 146.119091 294.264288 
L 146.753182 294.476079 
L 148.021364 294.468035 
L 149.289545 294.197148 
L 149.923636 294.208145 
L 150.557727 294.367397 
L 151.825909 293.701941 
L 152.46 293.749843 
L 153.094091 294.01799 
L 153.728182 294.079626 
L 154.362273 293.3389 
L 154.996364 293.507122 
L 155.630455 294.445579 
L 156.264545 294.376876 
L 158.166818 292.770762 
L 158.800909 293.166596 
L 159.435 292.796605 
L 160.069091 292.76366 
L 160.703182 293.133093 
L 161.337273 293.001317 
L 161.971364 293.445753 
L 163.239545 293.683937 
L 164.507727 293.389229 
L 165.141818 293.453361 
L 165.775909 293.658337 
L 167.044091 293.16681 
L 167.678182 293.170543 
L 168.312273 293.001281 
L 168.946364 293.232295 
L 169.580455 293.335194 
L 170.214545 292.919239 
L 170.848636 292.767035 
L 171.482727 293.156011 
L 172.116818 293.351456 
L 172.750909 293.90224 
L 173.385 294.011706 
L 174.019091 293.528076 
L 174.653182 293.208161 
L 175.287273 293.683513 
L 175.921364 293.713605 
L 176.555455 292.946939 
L 177.189545 293.277838 
L 178.457727 293.40096 
L 179.091818 293.797885 
L 179.725909 293.713175 
L 180.36 293.277414 
L 180.994091 293.678578 
L 181.628182 293.75642 
L 182.262273 293.535591 
L 182.896364 293.089964 
L 183.530455 293.168647 
L 184.164545 292.862229 
L 184.798636 293.027326 
L 186.066818 292.980242 
L 186.700909 292.681911 
L 188.603182 292.999963 
L 189.237273 292.811419 
L 189.871364 293.16031 
L 190.505455 292.802047 
L 191.139545 292.244716 
L 191.773636 292.520723 
L 193.041818 292.444414 
L 193.675909 292.219399 
L 194.31 292.494198 
L 194.944091 292.43136 
L 195.578182 291.450535 
L 196.212273 292.47591 
L 196.846364 292.756574 
L 197.480455 292.723357 
L 198.114545 292.470045 
L 198.748636 293.018555 
L 199.382727 292.374977 
L 200.016818 292.519048 
L 200.650909 292.819887 
L 201.285 292.367508 
L 201.919091 292.394906 
L 202.553182 292.677507 
L 203.187273 292.36936 
L 203.821364 292.187783 
L 204.455455 292.71593 
L 205.723636 292.465939 
L 206.357727 292.752361 
L 206.991818 292.65339 
L 207.625909 292.412819 
L 208.26 292.839751 
L 208.894091 292.401282 
L 209.528182 292.846164 
L 210.162273 293.055365 
L 210.796364 292.624001 
L 211.430455 292.652273 
L 212.064545 292.287578 
L 213.332727 292.798992 
L 213.966818 292.737326 
L 214.600909 292.499169 
L 215.235 292.479024 
L 216.503182 292.71296 
L 217.771364 292.825838 
L 218.405455 293.093675 
L 219.039545 293.067801 
L 219.673636 292.846688 
L 220.307727 293.120144 
L 220.941818 292.86315 
L 221.575909 292.179478 
L 222.21 292.227557 
L 222.844091 292.872863 
L 223.478182 293.350567 
L 224.112273 292.492013 
L 224.746364 292.716358 
L 225.380455 292.478545 
L 228.550909 293.266693 
L 229.819091 292.804279 
L 230.453182 292.870091 
L 231.087273 292.621914 
L 231.721364 292.724275 
L 232.355455 292.66208 
L 233.623636 292.252831 
L 234.891818 292.197204 
L 235.525909 291.550242 
L 236.16 291.663916 
L 236.794091 292.176107 
L 237.428182 291.981034 
L 238.062273 292.494201 
L 238.696364 292.081562 
L 239.330455 291.256501 
L 239.964545 291.674252 
L 241.232727 291.783732 
L 241.866818 292.042115 
L 242.500909 291.911562 
L 243.135 290.672972 
L 243.769091 290.847093 
L 244.403182 290.47848 
L 245.037273 291.198307 
L 245.671364 291.337057 
L 246.305455 291.724376 
L 246.939545 291.230376 
L 247.573636 291.143206 
L 248.207727 291.451164 
L 249.475909 291.205912 
L 250.11 291.270371 
L 250.744091 291.167631 
L 252.012273 291.595042 
L 252.646364 291.260583 
L 253.280455 291.256779 
L 253.914545 291.609774 
L 254.548636 291.139237 
L 255.182727 291.111989 
L 255.816818 290.739852 
L 257.085 291.284112 
L 257.719091 290.959648 
L 258.353182 291.540168 
L 259.621364 290.36591 
L 260.255455 290.38519 
L 261.523636 291.058631 
L 262.157727 290.477436 
L 263.425909 290.852087 
L 264.694091 290.465387 
L 265.328182 289.816997 
L 265.962273 290.695995 
L 266.596364 290.789807 
L 267.230455 290.205659 
L 267.864545 290.111093 
L 268.498636 290.540405 
L 269.132727 290.413855 
L 269.766818 290.725378 
L 270.400909 290.659796 
L 271.035 290.458712 
L 271.669091 290.450545 
L 272.303182 289.929807 
L 272.937273 290.070974 
L 273.571364 290.719184 
L 274.839545 290.787105 
L 275.473636 290.700449 
L 276.107727 290.370653 
L 276.741818 289.90764 
L 277.375909 289.782443 
L 278.01 290.650799 
L 278.644091 289.183867 
L 279.278182 289.292632 
L 279.912273 289.286997 
L 280.546364 288.372969 
L 281.180455 287.874015 
L 281.814545 287.934599 
L 282.448636 286.834493 
L 283.082727 286.112969 
L 283.716818 285.213812 
L 284.350909 285.503386 
L 284.985 284.061279 
L 285.619091 282.336372 
L 286.253182 283.076864 
L 286.887273 284.02974 
L 287.521364 283.13408 
L 288.155455 280.919942 
L 288.789545 280.962121 
L 289.423636 279.961753 
L 290.057727 278.429048 
L 290.691818 278.254264 
L 291.325909 279.432683 
L 291.96 279.011104 
L 292.594091 276.938271 
L 293.228182 277.51881 
L 294.496364 275.552185 
L 295.130455 276.299503 
L 295.764545 273.880693 
L 296.398636 273.989259 
L 297.032727 273.401224 
L 297.666818 271.070763 
L 298.935 267.218689 
L 299.569091 264.798065 
L 300.203182 269.598406 
L 300.837273 267.982135 
L 301.471364 265.836757 
L 302.105455 259.980041 
L 302.739545 258.950779 
L 303.373636 259.441847 
L 304.007727 264.918466 
L 304.641818 265.363886 
L 305.275909 260.261387 
L 305.91 263.794361 
L 306.544091 264.141594 
L 307.178182 263.007784 
L 307.812273 261.121978 
L 308.446364 261.455759 
L 309.080455 264.276729 
L 309.714545 261.184945 
L 310.348636 261.584578 
L 311.616818 260.119167 
L 312.250909 258.67975 
L 312.885 260.612055 
L 313.519091 258.718486 
L 314.153182 258.870653 
L 314.787273 261.220127 
L 315.421364 265.844565 
L 316.055455 258.286428 
L 316.689545 257.051096 
L 317.323636 256.413604 
L 317.957727 258.853088 
L 318.591818 262.2051 
L 319.225909 261.901072 
L 319.86 259.979447 
L 320.494091 258.492251 
L 321.128182 247.895703 
L 321.762273 249.723324 
L 322.396364 249.850121 
L 323.030455 247.109958 
L 323.664545 252.440426 
L 324.298636 250.120519 
L 324.932727 249.728198 
L 325.566818 248.559836 
L 326.200909 248.234412 
L 326.835 254.561845 
L 327.469091 255.760739 
L 328.103182 251.287719 
L 328.737273 252.546653 
L 329.371364 252.631804 
L 330.005455 254.862281 
L 330.639545 260.138449 
L 331.273636 263.027456 
L 332.541818 259.795157 
L 333.175909 262.429438 
L 334.444091 270.584821 
L 335.078182 271.016411 
L 335.712273 270.745344 
L 336.346364 274.280634 
L 336.980455 275.203003 
L 337.614545 274.467065 
L 338.248636 276.261889 
L 338.882727 276.211758 
L 339.516818 275.499002 
L 340.150909 274.995513 
L 340.785 275.098242 
L 342.053182 276.187266 
L 342.687273 277.271635 
L 343.321364 280.733452 
L 343.955455 281.117282 
L 344.589545 282.073983 
L 345.223636 284.196816 
L 345.857727 284.709061 
L 346.491818 284.39667 
L 347.125909 282.589643 
L 347.76 281.828961 
L 348.394091 282.059972 
L 349.028182 281.574235 
L 349.662273 281.89195 
L 350.930455 286.024185 
L 351.564545 285.320184 
L 352.198636 284.275833 
L 352.832727 286.187469 
L 353.466818 286.904172 
L 354.100909 286.561957 
L 354.735 285.866461 
L 355.369091 286.415286 
L 356.003182 286.592318 
L 356.637273 287.128979 
L 357.271364 287.092166 
L 357.905455 287.399863 
L 358.539545 288.53983 
L 359.173636 288.923479 
L 359.807727 288.362842 
L 360.441818 288.523549 
L 361.075909 288.474714 
L 361.71 288.217932 
L 362.344091 288.849909 
L 362.978182 289.23979 
L 363.612273 290.015389 
L 364.246364 290.081125 
L 364.880455 289.771434 
L 366.148636 290.153623 
L 366.782727 289.55561 
L 367.416818 288.284475 
L 368.050909 288.722823 
L 368.685 289.499808 
L 369.319091 289.670057 
L 369.953182 290.023778 
L 370.587273 289.902529 
L 371.221364 290.096457 
L 371.855455 289.881462 
L 372.489545 289.438159 
L 373.123636 289.583736 
L 373.757727 290.303027 
L 375.025909 291.134021 
L 375.66 290.407969 
L 376.294091 290.335802 
L 376.928182 290.058872 
L 378.196364 289.124548 
L 378.830455 289.508901 
L 379.464545 289.476171 
L 380.098636 289.952745 
L 380.732727 288.725329 
L 382.000909 287.548074 
L 382.635 287.685604 
L 383.269091 288.37976 
L 383.903182 288.589486 
L 384.537273 288.464313 
L 385.171364 288.763836 
L 385.805455 287.941086 
L 386.439545 288.001045 
L 387.073636 286.631359 
L 387.707727 287.352549 
L 388.341818 286.881413 
L 388.975909 286.629176 
L 389.61 286.707745 
L 390.244091 286.109336 
L 390.878182 286.033134 
L 391.512273 285.711605 
L 392.146364 286.373005 
L 392.780455 284.922773 
L 393.414545 284.335348 
L 394.048636 284.26022 
L 394.682727 285.099213 
L 395.316818 283.187356 
L 395.950909 282.468963 
L 396.585 283.277999 
L 397.219091 282.508901 
L 398.487273 287.802118 
L 398.487273 287.802118 
" clip-path="url(#p32b2d7c550)" style="fill: none; stroke: #ff7f0e; stroke-width: 1.5; stroke-linecap: square"/>
   </g>
   <g id="line2d_27">
    <path d="M 73.832727 290.67051 
L 74.466818 284.816011 
L 75.735 292.862232 
L 76.369091 292.969326 
L 77.003182 292.232198 
L 77.637273 292.450323 
L 78.905455 294.062788 
L 79.539545 294.411896 
L 80.173636 293.885985 
L 81.441818 293.304375 
L 82.075909 293.828675 
L 82.71 293.783406 
L 83.978182 293.042172 
L 84.612273 292.255995 
L 85.880455 289.776627 
L 86.514545 291.808482 
L 87.148636 291.815966 
L 88.416818 290.40475 
L 89.050909 289.76599 
L 89.685 291.452715 
L 90.319091 291.965035 
L 91.587273 292.541518 
L 92.221364 292.221836 
L 93.489545 293.058299 
L 94.123636 292.638239 
L 94.757727 292.378739 
L 95.391818 292.366461 
L 96.66 293.683409 
L 97.294091 293.275732 
L 97.928182 292.539696 
L 98.562273 292.871432 
L 99.196364 292.851902 
L 99.830455 292.534698 
L 100.464545 291.591409 
L 101.098636 289.8965 
L 101.732727 289.984932 
L 102.366818 290.626414 
L 103.000909 292.03027 
L 103.635 292.007197 
L 104.269091 291.272694 
L 104.903182 290.802787 
L 105.537273 290.590659 
L 106.171364 292.25621 
L 106.805455 293.264388 
L 107.439545 293.665083 
L 108.073636 293.753353 
L 108.707727 293.268152 
L 109.975909 292.799834 
L 110.61 293.466249 
L 111.244091 293.871062 
L 111.878182 293.468844 
L 113.780455 293.977205 
L 114.414545 293.859663 
L 115.682727 294.368716 
L 116.316818 294.838142 
L 117.585 294.735542 
L 118.853182 294.124365 
L 119.487273 293.927452 
L 120.121364 293.951453 
L 120.755455 294.091465 
L 121.389545 294.357234 
L 122.023636 293.752121 
L 122.657727 293.525303 
L 123.291818 294.195135 
L 123.925909 294.398898 
L 124.56 294.409413 
L 125.828182 293.990256 
L 126.462273 293.588936 
L 127.730455 293.487045 
L 128.364545 293.554582 
L 128.998636 293.351422 
L 129.632727 293.592991 
L 130.266818 293.632109 
L 130.900909 293.23101 
L 131.535 293.03542 
L 132.803182 293.006895 
L 133.437273 293.030045 
L 134.071364 293.25508 
L 135.339545 293.335043 
L 135.973636 292.679816 
L 136.607727 292.397545 
L 137.875909 293.462655 
L 139.144091 293.542235 
L 139.778182 294.087705 
L 140.412273 294.240565 
L 141.046364 294.148412 
L 141.680455 293.794016 
L 143.582727 294.433375 
L 145.485 294.177681 
L 147.387273 294.35715 
L 148.655455 293.680953 
L 149.289545 293.942945 
L 150.557727 293.655132 
L 151.191818 293.804949 
L 151.825909 293.839458 
L 152.46 293.311043 
L 153.094091 292.959095 
L 153.728182 292.821532 
L 154.362273 292.232994 
L 154.996364 292.457015 
L 155.630455 293.079537 
L 156.264545 292.760375 
L 156.898636 292.088828 
L 157.532727 291.128286 
L 158.800909 291.152791 
L 159.435 290.892735 
L 160.069091 291.066395 
L 160.703182 291.772349 
L 161.337273 291.922204 
L 161.971364 292.859815 
L 162.605455 292.022141 
L 165.141818 291.360408 
L 165.775909 291.466785 
L 167.044091 290.880108 
L 167.678182 291.484947 
L 168.946364 290.904069 
L 170.214545 291.438469 
L 170.848636 291.237624 
L 171.482727 291.662466 
L 172.116818 292.253682 
L 172.750909 292.504843 
L 173.385 292.363809 
L 174.019091 292.012992 
L 174.653182 292.134612 
L 175.287273 292.649598 
L 177.189545 292.400498 
L 177.823636 292.076144 
L 178.457727 292.33143 
L 179.091818 291.56373 
L 179.725909 291.374377 
L 180.36 291.786947 
L 180.994091 291.689446 
L 181.628182 291.952152 
L 182.896364 291.077146 
L 183.530455 291.024759 
L 184.164545 291.610337 
L 184.798636 291.57187 
L 185.432727 291.290989 
L 186.066818 290.291022 
L 187.335 289.441299 
L 188.603182 290.82309 
L 189.237273 290.990525 
L 189.871364 290.874282 
L 190.505455 290.193811 
L 191.139545 289.978485 
L 191.773636 290.596373 
L 193.041818 289.316832 
L 193.675909 290.212773 
L 194.31 289.820597 
L 194.944091 288.6348 
L 195.578182 287.812237 
L 196.212273 289.891215 
L 196.846364 289.804533 
L 197.480455 289.881249 
L 198.114545 289.167699 
L 199.382727 290.004345 
L 200.016818 289.492428 
L 200.650909 289.556684 
L 201.285 290.048266 
L 201.919091 290.964469 
L 202.553182 290.686307 
L 203.187273 290.179866 
L 203.821364 290.069292 
L 204.455455 290.492594 
L 205.089545 290.122642 
L 205.723636 290.019543 
L 206.357727 290.34567 
L 206.991818 290.171624 
L 207.625909 289.616249 
L 208.26 289.633593 
L 208.894091 290.521152 
L 209.528182 290.844546 
L 210.162273 290.681728 
L 210.796364 290.279319 
L 211.430455 289.576949 
L 212.064545 289.388799 
L 212.698636 289.567286 
L 213.332727 290.122841 
L 213.966818 289.935489 
L 214.600909 290.01619 
L 215.235 289.732399 
L 215.869091 289.205815 
L 216.503182 289.383688 
L 217.137273 290.062931 
L 217.771364 289.087293 
L 218.405455 289.584135 
L 219.039545 289.240219 
L 219.673636 289.354315 
L 220.307727 290.192156 
L 220.941818 290.478177 
L 221.575909 290.0663 
L 222.21 289.31012 
L 222.844091 288.897009 
L 223.478182 288.911679 
L 224.112273 289.097947 
L 224.746364 289.14383 
L 225.380455 288.71816 
L 226.014545 289.403738 
L 226.648636 288.367384 
L 227.282727 288.915589 
L 227.916818 288.831176 
L 228.550909 288.594562 
L 229.185 287.3654 
L 229.819091 287.804355 
L 231.087273 286.726726 
L 231.721364 286.697391 
L 232.355455 287.148591 
L 232.989545 286.368656 
L 233.623636 286.078079 
L 234.257727 287.206364 
L 236.16 286.130557 
L 237.428182 285.607854 
L 238.062273 286.200926 
L 238.696364 285.281987 
L 239.330455 283.846094 
L 239.964545 284.277938 
L 240.598636 284.888819 
L 241.232727 285.889277 
L 241.866818 288.015779 
L 242.500909 285.823572 
L 243.135 282.184298 
L 243.769091 282.085434 
L 244.403182 281.148716 
L 245.037273 283.525528 
L 245.671364 284.023915 
L 246.305455 282.569823 
L 246.939545 281.775317 
L 247.573636 282.449158 
L 248.207727 283.320872 
L 248.841818 282.30944 
L 249.475909 282.133696 
L 250.11 282.611793 
L 250.744091 282.367758 
L 251.378182 282.648569 
L 252.012273 282.437326 
L 252.646364 281.398036 
L 253.280455 281.197549 
L 253.914545 282.618408 
L 254.548636 281.320312 
L 255.182727 281.71298 
L 256.450909 280.041111 
L 257.085 278.347412 
L 257.719091 279.095747 
L 258.353182 281.495183 
L 258.987273 279.585389 
L 259.621364 278.462886 
L 260.255455 279.983551 
L 260.889545 279.769842 
L 261.523636 279.13473 
L 262.157727 276.804957 
L 262.791818 279.225995 
L 263.425909 279.861455 
L 264.06 279.568181 
L 264.694091 278.010299 
L 265.328182 277.972675 
L 265.962273 280.956596 
L 266.596364 280.237645 
L 267.230455 278.704605 
L 267.864545 278.426313 
L 268.498636 280.625648 
L 269.132727 278.910497 
L 269.766818 279.251314 
L 270.400909 281.747196 
L 271.035 281.877969 
L 271.669091 280.489428 
L 272.303182 280.066156 
L 273.571364 280.784979 
L 274.205455 283.294282 
L 274.839545 282.599459 
L 275.473636 282.762141 
L 276.107727 282.138802 
L 276.741818 280.377501 
L 277.375909 280.851833 
L 278.01 282.140718 
L 278.644091 278.158326 
L 279.278182 278.617229 
L 279.912273 278.565544 
L 281.814545 272.180423 
L 282.448636 270.838043 
L 283.082727 270.937551 
L 283.716818 268.769645 
L 284.350909 267.725755 
L 284.985 263.167827 
L 285.619091 261.967085 
L 286.253182 261.840753 
L 286.887273 264.041042 
L 287.521364 262.886289 
L 288.155455 254.864196 
L 288.789545 254.648592 
L 289.423636 249.969872 
L 290.057727 248.594408 
L 290.691818 250.48182 
L 291.325909 253.208046 
L 291.96 254.189799 
L 292.594091 250.23408 
L 293.228182 250.576939 
L 293.862273 248.985683 
L 294.496364 246.270138 
L 295.130455 247.016793 
L 295.764545 242.887283 
L 296.398636 244.136949 
L 297.032727 241.571988 
L 297.666818 240.827115 
L 299.569091 232.130876 
L 300.203182 240.895321 
L 300.837273 234.037514 
L 301.471364 230.854239 
L 302.105455 224.005456 
L 302.739545 224.063534 
L 303.373636 225.821181 
L 304.007727 239.420006 
L 304.641818 241.62729 
L 305.275909 231.806751 
L 305.91 239.36382 
L 306.544091 243.804949 
L 307.178182 244.307142 
L 307.812273 241.167658 
L 308.446364 244.727768 
L 309.080455 249.143055 
L 309.714545 249.379997 
L 310.348636 250.063209 
L 310.982727 252.069325 
L 311.616818 252.643634 
L 312.250909 251.260667 
L 312.885 255.722246 
L 313.519091 255.001318 
L 314.787273 261.100482 
L 315.421364 267.516763 
L 316.055455 262.936826 
L 316.689545 262.313331 
L 317.323636 262.168672 
L 317.957727 265.650264 
L 318.591818 268.340502 
L 319.225909 270.141571 
L 319.86 269.450981 
L 320.494091 271.788574 
L 321.128182 265.845592 
L 322.396364 268.880806 
L 323.030455 267.971458 
L 323.664545 271.246521 
L 324.298636 271.050051 
L 325.566818 274.799789 
L 326.200909 274.573754 
L 326.835 276.741968 
L 327.469091 277.503372 
L 328.103182 278.663067 
L 328.737273 280.294205 
L 329.371364 281.015772 
L 330.005455 280.830521 
L 331.273636 285.824077 
L 331.907727 286.061894 
L 332.541818 284.600802 
L 333.81 287.488152 
L 334.444091 288.759107 
L 335.078182 288.869449 
L 335.712273 289.302073 
L 336.346364 289.95116 
L 336.980455 291.1468 
L 337.614545 290.405581 
L 338.248636 290.189129 
L 338.882727 290.839132 
L 340.150909 289.616553 
L 340.785 290.004341 
L 341.419091 290.939436 
L 342.053182 290.839567 
L 342.687273 290.230393 
L 343.321364 290.908336 
L 343.955455 290.96693 
L 344.589545 290.773725 
L 345.223636 291.935902 
L 345.857727 291.702266 
L 347.125909 290.871904 
L 347.76 289.922247 
L 348.394091 290.393632 
L 350.296364 290.472127 
L 350.930455 291.127657 
L 351.564545 291.014145 
L 352.198636 290.446824 
L 352.832727 290.2152 
L 353.466818 290.701642 
L 354.735 289.973968 
L 355.369091 290.406365 
L 356.003182 290.452942 
L 356.637273 290.289983 
L 357.271364 290.008304 
L 357.905455 289.899619 
L 358.539545 290.083959 
L 359.173636 290.112192 
L 359.807727 290.512974 
L 360.441818 290.496066 
L 361.075909 290.858949 
L 361.71 290.666507 
L 362.344091 290.760216 
L 363.612273 291.348293 
L 364.246364 291.70446 
L 364.880455 291.172778 
L 366.148636 291.777553 
L 367.416818 289.685266 
L 368.050909 290.367115 
L 368.685 291.469923 
L 369.953182 291.511756 
L 370.587273 291.154911 
L 371.221364 291.599308 
L 372.489545 290.942411 
L 373.123636 291.413131 
L 373.757727 292.214086 
L 374.391818 292.40064 
L 375.66 291.917745 
L 376.294091 291.99839 
L 376.928182 291.621665 
L 378.196364 291.3087 
L 378.830455 291.350269 
L 379.464545 291.128706 
L 380.098636 291.080572 
L 380.732727 290.195901 
L 381.366818 290.307525 
L 382.000909 290.007618 
L 382.635 289.939149 
L 383.269091 289.988968 
L 383.903182 290.234481 
L 384.537273 290.338183 
L 385.171364 291.003187 
L 385.805455 289.984645 
L 386.439545 290.041652 
L 387.073636 289.072298 
L 387.707727 289.398054 
L 388.975909 288.818523 
L 389.61 289.097927 
L 390.244091 288.523289 
L 391.512273 288.359938 
L 392.146364 288.931925 
L 392.780455 287.870971 
L 393.414545 287.500404 
L 394.682727 288.102701 
L 395.316818 286.325998 
L 395.950909 286.310786 
L 396.585 287.020236 
L 397.219091 286.486618 
L 398.487273 290.050283 
L 398.487273 290.050283 
" clip-path="url(#p32b2d7c550)" style="fill: none; stroke: #2ca02c; stroke-width: 1.5; stroke-linecap: square"/>
   </g>
   <g id="patch_3">
    <path d="M 57.6 307.584 
L 57.6 41.472 
" style="fill: none; stroke: #000000; stroke-width: 0.8; stroke-linejoin: miter; stroke-linecap: square"/>
   </g>
   <g id="patch_4">
    <path d="M 414.72 307.584 
L 414.72 41.472 
" style="fill: none; stroke: #000000; stroke-width: 0.8; stroke-linejoin: miter; stroke-linecap: square"/>
   </g>
   <g id="patch_5">
    <path d="M 57.6 307.584 
L 414.72 307.584 
" style="fill: none; stroke: #000000; stroke-width: 0.8; stroke-linejoin: miter; stroke-linecap: square"/>
   </g>
   <g id="patch_6">
    <path d="M 57.6 41.472 
L 414.72 41.472 
" style="fill: none; stroke: #000000; stroke-width: 0.8; stroke-linejoin: miter; stroke-linecap: square"/>
   </g>
   <g id="text_15">
    <!-- Gyro Noise Spectral Density -->
    <g transform="translate(152.01 35.472) scale(0.12 -0.12)">
     <defs>
      <path id="DejaVuSans-47" d="M 3809 666 
L 3809 1919 
L 2778 1919 
L 2778 2438 
L 4434 2438 
L 4434 434 
Q 4069 175 3628 42 
Q 3188 -91 2688 -91 
Q 1594 -91 976 548 
Q 359 1188 359 2328 
Q 359 3472 976 4111 
Q 1594 4750 2688 4750 
Q 3144 4750 3555 4637 
Q 3966 4525 4313 4306 
L 4313 3634 
Q 3963 3931 3569 4081 
Q 3175 4231 2741 4231 
Q 1884 4231 1454 3753 
Q 1025 3275 1025 2328 
Q 1025 1384 1454 906 
Q 1884 428 2741 428 
Q 3075 428 3337 486 
Q 3600 544 3809 666 
z
" transform="scale(0.015625)"/>
      <path id="DejaVuSans-6f" d="M 1959 3097 
Q 1497 3097 1228 2736 
Q 959 2375 959 1747 
Q 959 1119 1226 758 
Q 1494 397 1959 397 
Q 2419 397 2687 759 
Q 2956 1122 2956 1747 
Q 2956 2369 2687 2733 
Q 2419 3097 1959 3097 
z
M 1959 3584 
Q 2709 3584 3137 3096 
Q 3566 2609 3566 1747 
Q 3566 888 3137 398 
Q 2709 -91 1959 -91 
Q 1206 -91 779 398 
Q 353 888 353 1747 
Q 353 2609 779 3096 
Q 1206 3584 1959 3584 
z
" transform="scale(0.015625)"/>
      <path id="DejaVuSans-4e" d="M 628 4666 
L 1478 4666 
L 3547 763 
L 3547 4666 
L 4159 4666 
L 4159 0 
L 3309 0 
L 1241 3903 
L 1241 0 
L 628 0 
L 628 4666 
z
" transform="scale(0.015625)"/>
     </defs>
     <use xlink:href="#DejaVuSans-47"/>
     <use xlink:href="#DejaVuSans-79" x="77.490234"/>
     <use xlink:href="#DejaVuSans-72" x="136.669922"/>
     <use xlink:href="#DejaVuSans-6f" x="175.533203"/>
     <use xlink:href="#DejaVuSans-20" x="236.714844"/>
     <use xlink:href="#DejaVuSans-4e" x="268.501953"/>
     <use xlink:href="#DejaVuSans-6f" x="343.306641"/>
     <use xlink:href="#DejaVuSans-69" x="404.488281"/>
     <use xlink:href="#DejaVuSans-73" x="432.271484"/>
     <use xlink:href="#DejaVuSans-65" x="484.371094"/>
     <use xlink:href="#DejaVuSans-20" x="545.894531"/>
     <use xlink:href="#DejaVuSans-53" x="577.681641"/>
     <use xlink:href="#DejaVuSans-70" x="641.158203"/>
     <use xlink:href="#DejaVuSans-65" x="704.634766"/>
     <use xlink:href="#DejaVuSans-63" x="766.158203"/>
     <use xlink:href="#DejaVuSans-74" x="821.138672"/>
     <use xlink:href="#DejaVuSans-72" x="860.347656"/>
     <use xlink:href="#DejaVuSans-61" x="901.460938"/>
     <use xlink:href="#DejaVuSans-6c" x="962.740234"/>
     <use xlink:href="#DejaVuSans-20" x="990.523438"/>
     <use xlink:href="#DejaVuSans-44" x="1022.310547"/>
     <use xlink:href="#DejaVuSans-65" x="1099.3125"/>
     <use xlink:href="#DejaVuSans-6e" x="1160.835938"/>
     <use xlink:href="#DejaVuSans-73" x="1224.214844"/>
     <use xlink:href="#DejaVuSans-69" x="1276.314453"/>
     <use xlink:href="#DejaVuSans-74" x="1304.097656"/>
     <use xlink:href="#DejaVuSans-79" x="1343.306641"/>
    </g>
   </g>
   <g id="legend_1">
    <g id="patch_7">
     <path d="M 363.452813 93.506375 
L 407.72 93.506375 
Q 409.72 93.506375 409.72 91.506375 
L 409.72 48.472 
Q 409.72 46.472 407.72 46.472 
L 363.452813 46.472 
Q 361.452813 46.472 361.452813 48.472 
L 361.452813 91.506375 
Q 361.452813 93.506375 363.452813 93.506375 
z
" style="fill: #ffffff; opacity: 0.8; stroke: #cccccc; stroke-linejoin: miter"/>
    </g>
    <g id="line2d_28">
     <path d="M 365.452813 54.570438 
L 375.452813 54.570438 
L 385.452813 54.570438 
" style="fill: none; stroke: #1f77b4; stroke-width: 1.5; stroke-linecap: square"/>
    </g>
    <g id="text_16">
     <!-- gx -->
     <g transform="translate(393.452813 58.070438) scale(0.1 -0.1)">
      <defs>
       <path id="DejaVuSans-67" d="M 2906 1791 
Q 2906 2416 2648 2759 
Q 2391 3103 1925 3103 
Q 1463 3103 1205 2759 
Q 947 2416 947 1791 
Q 947 1169 1205 825 
Q 1463 481 1925 481 
Q 2391 481 2648 825 
Q 2906 1169 2906 1791 
z
M 3481 434 
Q 3481 -459 3084 -895 
Q 2688 -1331 1869 -1331 
Q 1566 -1331 1297 -1286 
Q 1028 -1241 775 -1147 
L 775 -588 
Q 1028 -725 1275 -790 
Q 1522 -856 1778 -856 
Q 2344 -856 2625 -561 
Q 2906 -266 2906 331 
L 2906 616 
Q 2728 306 2450 153 
Q 2172 0 1784 0 
Q 1141 0 747 490 
Q 353 981 353 1791 
Q 353 2603 747 3093 
Q 1141 3584 1784 3584 
Q 2172 3584 2450 3431 
Q 2728 3278 2906 2969 
L 2906 3500 
L 3481 3500 
L 3481 434 
z
" transform="scale(0.015625)"/>
       <path id="DejaVuSans-78" d="M 3513 3500 
L 2247 1797 
L 3578 0 
L 2900 0 
L 1881 1375 
L 863 0 
L 184 0 
L 1544 1831 
L 300 3500 
L 978 3500 
L 1906 2253 
L 2834 3500 
L 3513 3500 
z
" transform="scale(0.015625)"/>
      </defs>
      <use xlink:href="#DejaVuSans-67"/>
      <use xlink:href="#DejaVuSans-78" x="63.476562"/>
     </g>
    </g>
    <g id="line2d_29">
     <path d="M 365.452813 69.248563 
L 375.452813 69.248563 
L 385.452813 69.248563 
" style="fill: none; stroke: #ff7f0e; stroke-width: 1.5; stroke-linecap: square"/>
    </g>
    <g id="text_17">
     <!-- gy -->
     <g transform="translate(393.452813 72.748563) scale(0.1 -0.1)">
      <use xlink:href="#DejaVuSans-67"/>
      <use xlink:href="#DejaVuSans-79" x="63.476562"/>
     </g>
    </g>
    <g id="line2d_30">
     <path d="M 365.452813 83.926688 
L 375.452813 83.926688 
L 385.452813 83.926688 
" style="fill: none; stroke: #2ca02c; stroke-width: 1.5; stroke-linecap: square"/>
    </g>
    <g id="text_18">
     <!-- gz -->
     <g transform="translate(393.452813 87.426688) scale(0.1 -0.1)">
      <use xlink:href="#DejaVuSans-67"/>
      <use xlink:href="#DejaVuSans-7a" x="63.476562"/>
     </g>
    </g>
   </g>
  </g>
 </g>
 <defs>
  <clipPath id="p32b2d7c550">
   <rect x="57.6" y="41.472" width="357.12" height="266.112"/>
  </clipPath>
 </defs>
</svg>
