<?xml version="1.0" encoding="utf-8" standalone="no"?>
<!DOCTYPE svg PUBLIC "-//W3C//DTD SVG 1.1//EN"
  "http://www.w3.org/Graphics/SVG/1.1/DTD/svg11.dtd">
<svg xmlns:xlink="http://www.w3.org/1999/xlink" width="460.8pt" height="345.6pt" viewBox="0 0 460.8 345.6" xmlns="http://www.w3.org/2000/svg" version="1.1">
 <metadata>
  <rdf:RDF xmlns:dc="http://purl.org/dc/elements/1.1/" xmlns:cc="http://creativecommons.org/ns#" xmlns:rdf="http://www.w3.org/1999/02/22-rdf-syntax-ns#">
   <cc:Work>
    <dc:type rdf:resource="http://purl.org/dc/dcmitype/StillImage"/>
    <dc:date>2024-06-27T11:39:29.277755</dc:date>
    <dc:format>image/svg+xml</dc:format>
    <dc:creator>
     <cc:Agent>
      <dc:title>Matplotlib v3.9.0, https://matplotlib.org/</dc:title>
     </cc:Agent>
    </dc:creator>
   </cc:Work>
  </rdf:RDF>
 </metadata>
 <defs>
  <style type="text/css">*{stroke-linejoin: round; stroke-linecap: butt}</style>
 </defs>
 <g id="figure_1">
  <g id="patch_1">
   <path d="M 0 345.6 
L 460.8 345.6 
L 460.8 0 
L 0 0 
z
" style="fill: #ffffff"/>
  </g>
  <g id="axes_1">
   <g id="patch_2">
    <path d="M 57.6 307.584 
L 414.72 307.584 
L 414.72 41.472 
L 57.6 41.472 
z
" style="fill: #ffffff"/>
   </g>
   <g id="matplotlib.axis_1">
    <g id="xtick_1">
     <g id="line2d_1">
      <path d="M 73.832727 307.584 
L 73.832727 41.472 
" clip-path="url(#p8f74fb6819)" style="fill: none; stroke: #b0b0b0; stroke-width: 0.8; stroke-linecap: square"/>
     </g>
     <g id="line2d_2">
      <defs>
       <path id="mfecbe0f778" d="M 0 0 
L 0 3.5 
" style="stroke: #000000; stroke-width: 0.8"/>
      </defs>
      <g>
       <use xlink:href="#mfecbe0f778" x="73.832727" y="307.584" style="stroke: #000000; stroke-width: 0.8"/>
      </g>
     </g>
     <g id="text_1">
      <!-- 0 -->
      <g transform="translate(70.651477 322.182437) scale(0.1 -0.1)">
       <defs>
        <path id="DejaVuSans-30" d="M 2034 4250 
Q 1547 4250 1301 3770 
Q 1056 3291 1056 2328 
Q 1056 1369 1301 889 
Q 1547 409 2034 409 
Q 2525 409 2770 889 
Q 3016 1369 3016 2328 
Q 3016 3291 2770 3770 
Q 2525 4250 2034 4250 
z
M 2034 4750 
Q 2819 4750 3233 4129 
Q 3647 3509 3647 2328 
Q 3647 1150 3233 529 
Q 2819 -91 2034 -91 
Q 1250 -91 836 529 
Q 422 1150 422 2328 
Q 422 3509 836 4129 
Q 1250 4750 2034 4750 
z
" transform="scale(0.015625)"/>
       </defs>
       <use xlink:href="#DejaVuSans-30"/>
      </g>
     </g>
    </g>
    <g id="xtick_2">
     <g id="line2d_3">
      <path d="M 138.763636 307.584 
L 138.763636 41.472 
" clip-path="url(#p8f74fb6819)" style="fill: none; stroke: #b0b0b0; stroke-width: 0.8; stroke-linecap: square"/>
     </g>
     <g id="line2d_4">
      <g>
       <use xlink:href="#mfecbe0f778" x="138.763636" y="307.584" style="stroke: #000000; stroke-width: 0.8"/>
      </g>
     </g>
     <g id="text_2">
      <!-- 20 -->
      <g transform="translate(132.401136 322.182437) scale(0.1 -0.1)">
       <defs>
        <path id="DejaVuSans-32" d="M 1228 531 
L 3431 531 
L 3431 0 
L 469 0 
L 469 531 
Q 828 903 1448 1529 
Q 2069 2156 2228 2338 
Q 2531 2678 2651 2914 
Q 2772 3150 2772 3378 
Q 2772 3750 2511 3984 
Q 2250 4219 1831 4219 
Q 1534 4219 1204 4116 
Q 875 4013 500 3803 
L 500 4441 
Q 881 4594 1212 4672 
Q 1544 4750 1819 4750 
Q 2544 4750 2975 4387 
Q 3406 4025 3406 3419 
Q 3406 3131 3298 2873 
Q 3191 2616 2906 2266 
Q 2828 2175 2409 1742 
Q 1991 1309 1228 531 
z
" transform="scale(0.015625)"/>
       </defs>
       <use xlink:href="#DejaVuSans-32"/>
       <use xlink:href="#DejaVuSans-30" x="63.623047"/>
      </g>
     </g>
    </g>
    <g id="xtick_3">
     <g id="line2d_5">
      <path d="M 203.694545 307.584 
L 203.694545 41.472 
" clip-path="url(#p8f74fb6819)" style="fill: none; stroke: #b0b0b0; stroke-width: 0.8; stroke-linecap: square"/>
     </g>
     <g id="line2d_6">
      <g>
       <use xlink:href="#mfecbe0f778" x="203.694545" y="307.584" style="stroke: #000000; stroke-width: 0.8"/>
      </g>
     </g>
     <g id="text_3">
      <!-- 40 -->
      <g transform="translate(197.332045 322.182437) scale(0.1 -0.1)">
       <defs>
        <path id="DejaVuSans-34" d="M 2419 4116 
L 825 1625 
L 2419 1625 
L 2419 4116 
z
M 2253 4666 
L 3047 4666 
L 3047 1625 
L 3713 1625 
L 3713 1100 
L 3047 1100 
L 3047 0 
L 2419 0 
L 2419 1100 
L 313 1100 
L 313 1709 
L 2253 4666 
z
" transform="scale(0.015625)"/>
       </defs>
       <use xlink:href="#DejaVuSans-34"/>
       <use xlink:href="#DejaVuSans-30" x="63.623047"/>
      </g>
     </g>
    </g>
    <g id="xtick_4">
     <g id="line2d_7">
      <path d="M 268.625455 307.584 
L 268.625455 41.472 
" clip-path="url(#p8f74fb6819)" style="fill: none; stroke: #b0b0b0; stroke-width: 0.8; stroke-linecap: square"/>
     </g>
     <g id="line2d_8">
      <g>
       <use xlink:href="#mfecbe0f778" x="268.625455" y="307.584" style="stroke: #000000; stroke-width: 0.8"/>
      </g>
     </g>
     <g id="text_4">
      <!-- 60 -->
      <g transform="translate(262.262955 322.182437) scale(0.1 -0.1)">
       <defs>
        <path id="DejaVuSans-36" d="M 2113 2584 
Q 1688 2584 1439 2293 
Q 1191 2003 1191 1497 
Q 1191 994 1439 701 
Q 1688 409 2113 409 
Q 2538 409 2786 701 
Q 3034 994 3034 1497 
Q 3034 2003 2786 2293 
Q 2538 2584 2113 2584 
z
M 3366 4563 
L 3366 3988 
Q 3128 4100 2886 4159 
Q 2644 4219 2406 4219 
Q 1781 4219 1451 3797 
Q 1122 3375 1075 2522 
Q 1259 2794 1537 2939 
Q 1816 3084 2150 3084 
Q 2853 3084 3261 2657 
Q 3669 2231 3669 1497 
Q 3669 778 3244 343 
Q 2819 -91 2113 -91 
Q 1303 -91 875 529 
Q 447 1150 447 2328 
Q 447 3434 972 4092 
Q 1497 4750 2381 4750 
Q 2619 4750 2861 4703 
Q 3103 4656 3366 4563 
z
" transform="scale(0.015625)"/>
       </defs>
       <use xlink:href="#DejaVuSans-36"/>
       <use xlink:href="#DejaVuSans-30" x="63.623047"/>
      </g>
     </g>
    </g>
    <g id="xtick_5">
     <g id="line2d_9">
      <path d="M 333.556364 307.584 
L 333.556364 41.472 
" clip-path="url(#p8f74fb6819)" style="fill: none; stroke: #b0b0b0; stroke-width: 0.8; stroke-linecap: square"/>
     </g>
     <g id="line2d_10">
      <g>
       <use xlink:href="#mfecbe0f778" x="333.556364" y="307.584" style="stroke: #000000; stroke-width: 0.8"/>
      </g>
     </g>
     <g id="text_5">
      <!-- 80 -->
      <g transform="translate(327.193864 322.182437) scale(0.1 -0.1)">
       <defs>
        <path id="DejaVuSans-38" d="M 2034 2216 
Q 1584 2216 1326 1975 
Q 1069 1734 1069 1313 
Q 1069 891 1326 650 
Q 1584 409 2034 409 
Q 2484 409 2743 651 
Q 3003 894 3003 1313 
Q 3003 1734 2745 1975 
Q 2488 2216 2034 2216 
z
M 1403 2484 
Q 997 2584 770 2862 
Q 544 3141 544 3541 
Q 544 4100 942 4425 
Q 1341 4750 2034 4750 
Q 2731 4750 3128 4425 
Q 3525 4100 3525 3541 
Q 3525 3141 3298 2862 
Q 3072 2584 2669 2484 
Q 3125 2378 3379 2068 
Q 3634 1759 3634 1313 
Q 3634 634 3220 271 
Q 2806 -91 2034 -91 
Q 1263 -91 848 271 
Q 434 634 434 1313 
Q 434 1759 690 2068 
Q 947 2378 1403 2484 
z
M 1172 3481 
Q 1172 3119 1398 2916 
Q 1625 2713 2034 2713 
Q 2441 2713 2670 2916 
Q 2900 3119 2900 3481 
Q 2900 3844 2670 4047 
Q 2441 4250 2034 4250 
Q 1625 4250 1398 4047 
Q 1172 3844 1172 3481 
z
" transform="scale(0.015625)"/>
       </defs>
       <use xlink:href="#DejaVuSans-38"/>
       <use xlink:href="#DejaVuSans-30" x="63.623047"/>
      </g>
     </g>
    </g>
    <g id="xtick_6">
     <g id="line2d_11">
      <path d="M 398.487273 307.584 
L 398.487273 41.472 
" clip-path="url(#p8f74fb6819)" style="fill: none; stroke: #b0b0b0; stroke-width: 0.8; stroke-linecap: square"/>
     </g>
     <g id="line2d_12">
      <g>
       <use xlink:href="#mfecbe0f778" x="398.487273" y="307.584" style="stroke: #000000; stroke-width: 0.8"/>
      </g>
     </g>
     <g id="text_6">
      <!-- 100 -->
      <g transform="translate(388.943523 322.182437) scale(0.1 -0.1)">
       <defs>
        <path id="DejaVuSans-31" d="M 794 531 
L 1825 531 
L 1825 4091 
L 703 3866 
L 703 4441 
L 1819 4666 
L 2450 4666 
L 2450 531 
L 3481 531 
L 3481 0 
L 794 0 
L 794 531 
z
" transform="scale(0.015625)"/>
       </defs>
       <use xlink:href="#DejaVuSans-31"/>
       <use xlink:href="#DejaVuSans-30" x="63.623047"/>
       <use xlink:href="#DejaVuSans-30" x="127.246094"/>
      </g>
     </g>
    </g>
    <g id="text_7">
     <!-- Frequency [Hz] -->
     <g transform="translate(198.455312 335.860562) scale(0.1 -0.1)">
      <defs>
       <path id="DejaVuSans-46" d="M 628 4666 
L 3309 4666 
L 3309 4134 
L 1259 4134 
L 1259 2759 
L 3109 2759 
L 3109 2228 
L 1259 2228 
L 1259 0 
L 628 0 
L 628 4666 
z
" transform="scale(0.015625)"/>
       <path id="DejaVuSans-72" d="M 2631 2963 
Q 2534 3019 2420 3045 
Q 2306 3072 2169 3072 
Q 1681 3072 1420 2755 
Q 1159 2438 1159 1844 
L 1159 0 
L 581 0 
L 581 3500 
L 1159 3500 
L 1159 2956 
Q 1341 3275 1631 3429 
Q 1922 3584 2338 3584 
Q 2397 3584 2469 3576 
Q 2541 3569 2628 3553 
L 2631 2963 
z
" transform="scale(0.015625)"/>
       <path id="DejaVuSans-65" d="M 3597 1894 
L 3597 1613 
L 953 1613 
Q 991 1019 1311 708 
Q 1631 397 2203 397 
Q 2534 397 2845 478 
Q 3156 559 3463 722 
L 3463 178 
Q 3153 47 2828 -22 
Q 2503 -91 2169 -91 
Q 1331 -91 842 396 
Q 353 884 353 1716 
Q 353 2575 817 3079 
Q 1281 3584 2069 3584 
Q 2775 3584 3186 3129 
Q 3597 2675 3597 1894 
z
M 3022 2063 
Q 3016 2534 2758 2815 
Q 2500 3097 2075 3097 
Q 1594 3097 1305 2825 
Q 1016 2553 972 2059 
L 3022 2063 
z
" transform="scale(0.015625)"/>
       <path id="DejaVuSans-71" d="M 947 1747 
Q 947 1113 1208 752 
Q 1469 391 1925 391 
Q 2381 391 2643 752 
Q 2906 1113 2906 1747 
Q 2906 2381 2643 2742 
Q 2381 3103 1925 3103 
Q 1469 3103 1208 2742 
Q 947 2381 947 1747 
z
M 2906 525 
Q 2725 213 2448 61 
Q 2172 -91 1784 -91 
Q 1150 -91 751 415 
Q 353 922 353 1747 
Q 353 2572 751 3078 
Q 1150 3584 1784 3584 
Q 2172 3584 2448 3432 
Q 2725 3281 2906 2969 
L 2906 3500 
L 3481 3500 
L 3481 -1331 
L 2906 -1331 
L 2906 525 
z
" transform="scale(0.015625)"/>
       <path id="DejaVuSans-75" d="M 544 1381 
L 544 3500 
L 1119 3500 
L 1119 1403 
Q 1119 906 1312 657 
Q 1506 409 1894 409 
Q 2359 409 2629 706 
Q 2900 1003 2900 1516 
L 2900 3500 
L 3475 3500 
L 3475 0 
L 2900 0 
L 2900 538 
Q 2691 219 2414 64 
Q 2138 -91 1772 -91 
Q 1169 -91 856 284 
Q 544 659 544 1381 
z
M 1991 3584 
L 1991 3584 
z
" transform="scale(0.015625)"/>
       <path id="DejaVuSans-6e" d="M 3513 2113 
L 3513 0 
L 2938 0 
L 2938 2094 
Q 2938 2591 2744 2837 
Q 2550 3084 2163 3084 
Q 1697 3084 1428 2787 
Q 1159 2491 1159 1978 
L 1159 0 
L 581 0 
L 581 3500 
L 1159 3500 
L 1159 2956 
Q 1366 3272 1645 3428 
Q 1925 3584 2291 3584 
Q 2894 3584 3203 3211 
Q 3513 2838 3513 2113 
z
" transform="scale(0.015625)"/>
       <path id="DejaVuSans-63" d="M 3122 3366 
L 3122 2828 
Q 2878 2963 2633 3030 
Q 2388 3097 2138 3097 
Q 1578 3097 1268 2742 
Q 959 2388 959 1747 
Q 959 1106 1268 751 
Q 1578 397 2138 397 
Q 2388 397 2633 464 
Q 2878 531 3122 666 
L 3122 134 
Q 2881 22 2623 -34 
Q 2366 -91 2075 -91 
Q 1284 -91 818 406 
Q 353 903 353 1747 
Q 353 2603 823 3093 
Q 1294 3584 2113 3584 
Q 2378 3584 2631 3529 
Q 2884 3475 3122 3366 
z
" transform="scale(0.015625)"/>
       <path id="DejaVuSans-79" d="M 2059 -325 
Q 1816 -950 1584 -1140 
Q 1353 -1331 966 -1331 
L 506 -1331 
L 506 -850 
L 844 -850 
Q 1081 -850 1212 -737 
Q 1344 -625 1503 -206 
L 1606 56 
L 191 3500 
L 800 3500 
L 1894 763 
L 2988 3500 
L 3597 3500 
L 2059 -325 
z
" transform="scale(0.015625)"/>
       <path id="DejaVuSans-20" transform="scale(0.015625)"/>
       <path id="DejaVuSans-5b" d="M 550 4863 
L 1875 4863 
L 1875 4416 
L 1125 4416 
L 1125 -397 
L 1875 -397 
L 1875 -844 
L 550 -844 
L 550 4863 
z
" transform="scale(0.015625)"/>
       <path id="DejaVuSans-48" d="M 628 4666 
L 1259 4666 
L 1259 2753 
L 3553 2753 
L 3553 4666 
L 4184 4666 
L 4184 0 
L 3553 0 
L 3553 2222 
L 1259 2222 
L 1259 0 
L 628 0 
L 628 4666 
z
" transform="scale(0.015625)"/>
       <path id="DejaVuSans-7a" d="M 353 3500 
L 3084 3500 
L 3084 2975 
L 922 459 
L 3084 459 
L 3084 0 
L 275 0 
L 275 525 
L 2438 3041 
L 353 3041 
L 353 3500 
z
" transform="scale(0.015625)"/>
       <path id="DejaVuSans-5d" d="M 1947 4863 
L 1947 -844 
L 622 -844 
L 622 -397 
L 1369 -397 
L 1369 4416 
L 622 4416 
L 622 4863 
L 1947 4863 
z
" transform="scale(0.015625)"/>
      </defs>
      <use xlink:href="#DejaVuSans-46"/>
      <use xlink:href="#DejaVuSans-72" x="50.269531"/>
      <use xlink:href="#DejaVuSans-65" x="89.132812"/>
      <use xlink:href="#DejaVuSans-71" x="150.65625"/>
      <use xlink:href="#DejaVuSans-75" x="214.132812"/>
      <use xlink:href="#DejaVuSans-65" x="277.511719"/>
      <use xlink:href="#DejaVuSans-6e" x="339.035156"/>
      <use xlink:href="#DejaVuSans-63" x="402.414062"/>
      <use xlink:href="#DejaVuSans-79" x="457.394531"/>
      <use xlink:href="#DejaVuSans-20" x="516.574219"/>
      <use xlink:href="#DejaVuSans-5b" x="548.361328"/>
      <use xlink:href="#DejaVuSans-48" x="587.375"/>
      <use xlink:href="#DejaVuSans-7a" x="662.570312"/>
      <use xlink:href="#DejaVuSans-5d" x="715.060547"/>
     </g>
    </g>
   </g>
   <g id="matplotlib.axis_2">
    <g id="ytick_1">
     <g id="line2d_13">
      <path d="M 57.6 296.267261 
L 414.72 296.267261 
" clip-path="url(#p8f74fb6819)" style="fill: none; stroke: #b0b0b0; stroke-width: 0.8; stroke-linecap: square"/>
     </g>
     <g id="line2d_14">
      <defs>
       <path id="m413d1785db" d="M 0 0 
L -3.5 0 
" style="stroke: #000000; stroke-width: 0.8"/>
      </defs>
      <g>
       <use xlink:href="#m413d1785db" x="57.6" y="296.267261" style="stroke: #000000; stroke-width: 0.8"/>
      </g>
     </g>
     <g id="text_8">
      <!-- 0.00 -->
      <g transform="translate(28.334375 300.066479) scale(0.1 -0.1)">
       <defs>
        <path id="DejaVuSans-2e" d="M 684 794 
L 1344 794 
L 1344 0 
L 684 0 
L 684 794 
z
" transform="scale(0.015625)"/>
       </defs>
       <use xlink:href="#DejaVuSans-30"/>
       <use xlink:href="#DejaVuSans-2e" x="63.623047"/>
       <use xlink:href="#DejaVuSans-30" x="95.410156"/>
       <use xlink:href="#DejaVuSans-30" x="159.033203"/>
      </g>
     </g>
    </g>
    <g id="ytick_2">
     <g id="line2d_15">
      <path d="M 57.6 255.796582 
L 414.72 255.796582 
" clip-path="url(#p8f74fb6819)" style="fill: none; stroke: #b0b0b0; stroke-width: 0.8; stroke-linecap: square"/>
     </g>
     <g id="line2d_16">
      <g>
       <use xlink:href="#m413d1785db" x="57.6" y="255.796582" style="stroke: #000000; stroke-width: 0.8"/>
      </g>
     </g>
     <g id="text_9">
      <!-- 0.01 -->
      <g transform="translate(28.334375 259.595801) scale(0.1 -0.1)">
       <use xlink:href="#DejaVuSans-30"/>
       <use xlink:href="#DejaVuSans-2e" x="63.623047"/>
       <use xlink:href="#DejaVuSans-30" x="95.410156"/>
       <use xlink:href="#DejaVuSans-31" x="159.033203"/>
      </g>
     </g>
    </g>
    <g id="ytick_3">
     <g id="line2d_17">
      <path d="M 57.6 215.325904 
L 414.72 215.325904 
" clip-path="url(#p8f74fb6819)" style="fill: none; stroke: #b0b0b0; stroke-width: 0.8; stroke-linecap: square"/>
     </g>
     <g id="line2d_18">
      <g>
       <use xlink:href="#m413d1785db" x="57.6" y="215.325904" style="stroke: #000000; stroke-width: 0.8"/>
      </g>
     </g>
     <g id="text_10">
      <!-- 0.02 -->
      <g transform="translate(28.334375 219.125123) scale(0.1 -0.1)">
       <use xlink:href="#DejaVuSans-30"/>
       <use xlink:href="#DejaVuSans-2e" x="63.623047"/>
       <use xlink:href="#DejaVuSans-30" x="95.410156"/>
       <use xlink:href="#DejaVuSans-32" x="159.033203"/>
      </g>
     </g>
    </g>
    <g id="ytick_4">
     <g id="line2d_19">
      <path d="M 57.6 174.855225 
L 414.72 174.855225 
" clip-path="url(#p8f74fb6819)" style="fill: none; stroke: #b0b0b0; stroke-width: 0.8; stroke-linecap: square"/>
     </g>
     <g id="line2d_20">
      <g>
       <use xlink:href="#m413d1785db" x="57.6" y="174.855225" style="stroke: #000000; stroke-width: 0.8"/>
      </g>
     </g>
     <g id="text_11">
      <!-- 0.03 -->
      <g transform="translate(28.334375 178.654444) scale(0.1 -0.1)">
       <defs>
        <path id="DejaVuSans-33" d="M 2597 2516 
Q 3050 2419 3304 2112 
Q 3559 1806 3559 1356 
Q 3559 666 3084 287 
Q 2609 -91 1734 -91 
Q 1441 -91 1130 -33 
Q 819 25 488 141 
L 488 750 
Q 750 597 1062 519 
Q 1375 441 1716 441 
Q 2309 441 2620 675 
Q 2931 909 2931 1356 
Q 2931 1769 2642 2001 
Q 2353 2234 1838 2234 
L 1294 2234 
L 1294 2753 
L 1863 2753 
Q 2328 2753 2575 2939 
Q 2822 3125 2822 3475 
Q 2822 3834 2567 4026 
Q 2313 4219 1838 4219 
Q 1578 4219 1281 4162 
Q 984 4106 628 3988 
L 628 4550 
Q 988 4650 1302 4700 
Q 1616 4750 1894 4750 
Q 2613 4750 3031 4423 
Q 3450 4097 3450 3541 
Q 3450 3153 3228 2886 
Q 3006 2619 2597 2516 
z
" transform="scale(0.015625)"/>
       </defs>
       <use xlink:href="#DejaVuSans-30"/>
       <use xlink:href="#DejaVuSans-2e" x="63.623047"/>
       <use xlink:href="#DejaVuSans-30" x="95.410156"/>
       <use xlink:href="#DejaVuSans-33" x="159.033203"/>
      </g>
     </g>
    </g>
    <g id="ytick_5">
     <g id="line2d_21">
      <path d="M 57.6 134.384547 
L 414.72 134.384547 
" clip-path="url(#p8f74fb6819)" style="fill: none; stroke: #b0b0b0; stroke-width: 0.8; stroke-linecap: square"/>
     </g>
     <g id="line2d_22">
      <g>
       <use xlink:href="#m413d1785db" x="57.6" y="134.384547" style="stroke: #000000; stroke-width: 0.8"/>
      </g>
     </g>
     <g id="text_12">
      <!-- 0.04 -->
      <g transform="translate(28.334375 138.183766) scale(0.1 -0.1)">
       <use xlink:href="#DejaVuSans-30"/>
       <use xlink:href="#DejaVuSans-2e" x="63.623047"/>
       <use xlink:href="#DejaVuSans-30" x="95.410156"/>
       <use xlink:href="#DejaVuSans-34" x="159.033203"/>
      </g>
     </g>
    </g>
    <g id="ytick_6">
     <g id="line2d_23">
      <path d="M 57.6 93.913868 
L 414.72 93.913868 
" clip-path="url(#p8f74fb6819)" style="fill: none; stroke: #b0b0b0; stroke-width: 0.8; stroke-linecap: square"/>
     </g>
     <g id="line2d_24">
      <g>
       <use xlink:href="#m413d1785db" x="57.6" y="93.913868" style="stroke: #000000; stroke-width: 0.8"/>
      </g>
     </g>
     <g id="text_13">
      <!-- 0.05 -->
      <g transform="translate(28.334375 97.713087) scale(0.1 -0.1)">
       <defs>
        <path id="DejaVuSans-35" d="M 691 4666 
L 3169 4666 
L 3169 4134 
L 1269 4134 
L 1269 2991 
Q 1406 3038 1543 3061 
Q 1681 3084 1819 3084 
Q 2600 3084 3056 2656 
Q 3513 2228 3513 1497 
Q 3513 744 3044 326 
Q 2575 -91 1722 -91 
Q 1428 -91 1123 -41 
Q 819 9 494 109 
L 494 744 
Q 775 591 1075 516 
Q 1375 441 1709 441 
Q 2250 441 2565 725 
Q 2881 1009 2881 1497 
Q 2881 1984 2565 2268 
Q 2250 2553 1709 2553 
Q 1456 2553 1204 2497 
Q 953 2441 691 2322 
L 691 4666 
z
" transform="scale(0.015625)"/>
       </defs>
       <use xlink:href="#DejaVuSans-30"/>
       <use xlink:href="#DejaVuSans-2e" x="63.623047"/>
       <use xlink:href="#DejaVuSans-30" x="95.410156"/>
       <use xlink:href="#DejaVuSans-35" x="159.033203"/>
      </g>
     </g>
    </g>
    <g id="ytick_7">
     <g id="line2d_25">
      <path d="M 57.6 53.44319 
L 414.72 53.44319 
" clip-path="url(#p8f74fb6819)" style="fill: none; stroke: #b0b0b0; stroke-width: 0.8; stroke-linecap: square"/>
     </g>
     <g id="line2d_26">
      <g>
       <use xlink:href="#m413d1785db" x="57.6" y="53.44319" style="stroke: #000000; stroke-width: 0.8"/>
      </g>
     </g>
     <g id="text_14">
      <!-- 0.06 -->
      <g transform="translate(28.334375 57.242409) scale(0.1 -0.1)">
       <use xlink:href="#DejaVuSans-30"/>
       <use xlink:href="#DejaVuSans-2e" x="63.623047"/>
       <use xlink:href="#DejaVuSans-30" x="95.410156"/>
       <use xlink:href="#DejaVuSans-36" x="159.033203"/>
      </g>
     </g>
    </g>
    <g id="text_15">
     <!-- Spectral Density ($rad/s  / \sqrt{Hz}$) -->
     <g transform="translate(22.234375 246.178) rotate(-90) scale(0.1 -0.1)">
      <defs>
       <path id="DejaVuSans-53" d="M 3425 4513 
L 3425 3897 
Q 3066 4069 2747 4153 
Q 2428 4238 2131 4238 
Q 1616 4238 1336 4038 
Q 1056 3838 1056 3469 
Q 1056 3159 1242 3001 
Q 1428 2844 1947 2747 
L 2328 2669 
Q 3034 2534 3370 2195 
Q 3706 1856 3706 1288 
Q 3706 609 3251 259 
Q 2797 -91 1919 -91 
Q 1588 -91 1214 -16 
Q 841 59 441 206 
L 441 856 
Q 825 641 1194 531 
Q 1563 422 1919 422 
Q 2459 422 2753 634 
Q 3047 847 3047 1241 
Q 3047 1584 2836 1778 
Q 2625 1972 2144 2069 
L 1759 2144 
Q 1053 2284 737 2584 
Q 422 2884 422 3419 
Q 422 4038 858 4394 
Q 1294 4750 2059 4750 
Q 2388 4750 2728 4690 
Q 3069 4631 3425 4513 
z
" transform="scale(0.015625)"/>
       <path id="DejaVuSans-70" d="M 1159 525 
L 1159 -1331 
L 581 -1331 
L 581 3500 
L 1159 3500 
L 1159 2969 
Q 1341 3281 1617 3432 
Q 1894 3584 2278 3584 
Q 2916 3584 3314 3078 
Q 3713 2572 3713 1747 
Q 3713 922 3314 415 
Q 2916 -91 2278 -91 
Q 1894 -91 1617 61 
Q 1341 213 1159 525 
z
M 3116 1747 
Q 3116 2381 2855 2742 
Q 2594 3103 2138 3103 
Q 1681 3103 1420 2742 
Q 1159 2381 1159 1747 
Q 1159 1113 1420 752 
Q 1681 391 2138 391 
Q 2594 391 2855 752 
Q 3116 1113 3116 1747 
z
" transform="scale(0.015625)"/>
       <path id="DejaVuSans-74" d="M 1172 4494 
L 1172 3500 
L 2356 3500 
L 2356 3053 
L 1172 3053 
L 1172 1153 
Q 1172 725 1289 603 
Q 1406 481 1766 481 
L 2356 481 
L 2356 0 
L 1766 0 
Q 1100 0 847 248 
Q 594 497 594 1153 
L 594 3053 
L 172 3053 
L 172 3500 
L 594 3500 
L 594 4494 
L 1172 4494 
z
" transform="scale(0.015625)"/>
       <path id="DejaVuSans-61" d="M 2194 1759 
Q 1497 1759 1228 1600 
Q 959 1441 959 1056 
Q 959 750 1161 570 
Q 1363 391 1709 391 
Q 2188 391 2477 730 
Q 2766 1069 2766 1631 
L 2766 1759 
L 2194 1759 
z
M 3341 1997 
L 3341 0 
L 2766 0 
L 2766 531 
Q 2569 213 2275 61 
Q 1981 -91 1556 -91 
Q 1019 -91 701 211 
Q 384 513 384 1019 
Q 384 1609 779 1909 
Q 1175 2209 1959 2209 
L 2766 2209 
L 2766 2266 
Q 2766 2663 2505 2880 
Q 2244 3097 1772 3097 
Q 1472 3097 1187 3025 
Q 903 2953 641 2809 
L 641 3341 
Q 956 3463 1253 3523 
Q 1550 3584 1831 3584 
Q 2591 3584 2966 3190 
Q 3341 2797 3341 1997 
z
" transform="scale(0.015625)"/>
       <path id="DejaVuSans-6c" d="M 603 4863 
L 1178 4863 
L 1178 0 
L 603 0 
L 603 4863 
z
" transform="scale(0.015625)"/>
       <path id="DejaVuSans-44" d="M 1259 4147 
L 1259 519 
L 2022 519 
Q 2988 519 3436 956 
Q 3884 1394 3884 2338 
Q 3884 3275 3436 3711 
Q 2988 4147 2022 4147 
L 1259 4147 
z
M 628 4666 
L 1925 4666 
Q 3281 4666 3915 4102 
Q 4550 3538 4550 2338 
Q 4550 1131 3912 565 
Q 3275 0 1925 0 
L 628 0 
L 628 4666 
z
" transform="scale(0.015625)"/>
       <path id="DejaVuSans-73" d="M 2834 3397 
L 2834 2853 
Q 2591 2978 2328 3040 
Q 2066 3103 1784 3103 
Q 1356 3103 1142 2972 
Q 928 2841 928 2578 
Q 928 2378 1081 2264 
Q 1234 2150 1697 2047 
L 1894 2003 
Q 2506 1872 2764 1633 
Q 3022 1394 3022 966 
Q 3022 478 2636 193 
Q 2250 -91 1575 -91 
Q 1294 -91 989 -36 
Q 684 19 347 128 
L 347 722 
Q 666 556 975 473 
Q 1284 391 1588 391 
Q 1994 391 2212 530 
Q 2431 669 2431 922 
Q 2431 1156 2273 1281 
Q 2116 1406 1581 1522 
L 1381 1569 
Q 847 1681 609 1914 
Q 372 2147 372 2553 
Q 372 3047 722 3315 
Q 1072 3584 1716 3584 
Q 2034 3584 2315 3537 
Q 2597 3491 2834 3397 
z
" transform="scale(0.015625)"/>
       <path id="DejaVuSans-69" d="M 603 3500 
L 1178 3500 
L 1178 0 
L 603 0 
L 603 3500 
z
M 603 4863 
L 1178 4863 
L 1178 4134 
L 603 4134 
L 603 4863 
z
" transform="scale(0.015625)"/>
       <path id="DejaVuSans-28" d="M 1984 4856 
Q 1566 4138 1362 3434 
Q 1159 2731 1159 2009 
Q 1159 1288 1364 580 
Q 1569 -128 1984 -844 
L 1484 -844 
Q 1016 -109 783 600 
Q 550 1309 550 2009 
Q 550 2706 781 3412 
Q 1013 4119 1484 4856 
L 1984 4856 
z
" transform="scale(0.015625)"/>
       <path id="DejaVuSans-Oblique-72" d="M 2853 2969 
Q 2766 3016 2653 3041 
Q 2541 3066 2413 3066 
Q 1953 3066 1609 2717 
Q 1266 2369 1153 1784 
L 800 0 
L 225 0 
L 909 3500 
L 1484 3500 
L 1375 2956 
Q 1603 3259 1920 3421 
Q 2238 3584 2597 3584 
Q 2691 3584 2781 3573 
Q 2872 3563 2963 3538 
L 2853 2969 
z
" transform="scale(0.015625)"/>
       <path id="DejaVuSans-Oblique-61" d="M 3438 1997 
L 3047 0 
L 2472 0 
L 2578 531 
Q 2325 219 2001 64 
Q 1678 -91 1281 -91 
Q 834 -91 548 182 
Q 263 456 263 884 
Q 263 1497 752 1853 
Q 1241 2209 2100 2209 
L 2900 2209 
L 2931 2363 
Q 2938 2388 2941 2417 
Q 2944 2447 2944 2509 
Q 2944 2788 2717 2942 
Q 2491 3097 2081 3097 
Q 1800 3097 1504 3025 
Q 1209 2953 897 2809 
L 997 3341 
Q 1322 3463 1633 3523 
Q 1944 3584 2234 3584 
Q 2853 3584 3176 3315 
Q 3500 3047 3500 2534 
Q 3500 2431 3484 2292 
Q 3469 2153 3438 1997 
z
M 2816 1759 
L 2241 1759 
Q 1534 1759 1195 1570 
Q 856 1381 856 984 
Q 856 709 1029 553 
Q 1203 397 1509 397 
Q 1978 397 2328 733 
Q 2678 1069 2791 1631 
L 2816 1759 
z
" transform="scale(0.015625)"/>
       <path id="DejaVuSans-Oblique-64" d="M 2675 525 
Q 2444 222 2128 65 
Q 1813 -91 1428 -91 
Q 903 -91 598 267 
Q 294 625 294 1247 
Q 294 1766 478 2236 
Q 663 2706 1013 3078 
Q 1244 3325 1534 3454 
Q 1825 3584 2144 3584 
Q 2481 3584 2739 3421 
Q 2997 3259 3138 2956 
L 3513 4863 
L 4091 4863 
L 3144 0 
L 2566 0 
L 2675 525 
z
M 891 1350 
Q 891 897 1095 644 
Q 1300 391 1663 391 
Q 1931 391 2161 520 
Q 2391 650 2566 903 
Q 2750 1166 2856 1509 
Q 2963 1853 2963 2188 
Q 2963 2622 2758 2865 
Q 2553 3109 2194 3109 
Q 1922 3109 1687 2981 
Q 1453 2853 1288 2613 
Q 1106 2353 998 2009 
Q 891 1666 891 1350 
z
" transform="scale(0.015625)"/>
       <path id="DejaVuSans-2f" d="M 1625 4666 
L 2156 4666 
L 531 -594 
L 0 -594 
L 1625 4666 
z
" transform="scale(0.015625)"/>
       <path id="DejaVuSans-Oblique-73" d="M 3200 3397 
L 3091 2853 
Q 2863 2978 2609 3040 
Q 2356 3103 2088 3103 
Q 1634 3103 1373 2948 
Q 1113 2794 1113 2528 
Q 1113 2219 1719 2053 
Q 1766 2041 1788 2034 
L 1972 1978 
Q 2547 1819 2739 1644 
Q 2931 1469 2931 1166 
Q 2931 609 2489 259 
Q 2047 -91 1331 -91 
Q 1053 -91 747 -37 
Q 441 16 72 128 
L 184 722 
Q 500 559 806 475 
Q 1113 391 1394 391 
Q 1816 391 2080 572 
Q 2344 753 2344 1031 
Q 2344 1331 1650 1516 
L 1591 1531 
L 1394 1581 
Q 956 1697 753 1886 
Q 550 2075 550 2369 
Q 550 2928 970 3256 
Q 1391 3584 2113 3584 
Q 2397 3584 2667 3537 
Q 2938 3491 3200 3397 
z
" transform="scale(0.015625)"/>
       <path id="STIXSizeOneSym-Regular-221a" d="M 6970 9933 
L 3373 -1888 
L 3104 -1888 
L 1626 2918 
Q 1555 3149 1465 3251 
Q 1376 3354 1229 3354 
Q 1011 3354 794 3181 
L 717 3309 
L 1766 4115 
L 1926 4115 
L 3379 -602 
L 3405 -602 
L 6605 9933 
L 6970 9933 
z
" transform="scale(0.015625)"/>
       <path id="DejaVuSans-Oblique-48" d="M 1081 4666 
L 1716 4666 
L 1344 2753 
L 3634 2753 
L 4006 4666 
L 4641 4666 
L 3731 0 
L 3097 0 
L 3531 2222 
L 1241 2222 
L 806 0 
L 172 0 
L 1081 4666 
z
" transform="scale(0.015625)"/>
       <path id="DejaVuSans-Oblique-7a" d="M 744 3500 
L 3475 3500 
L 3372 2975 
L 738 459 
L 2913 459 
L 2822 0 
L -19 0 
L 84 525 
L 2719 3041 
L 653 3041 
L 744 3500 
z
" transform="scale(0.015625)"/>
       <path id="DejaVuSans-29" d="M 513 4856 
L 1013 4856 
Q 1481 4119 1714 3412 
Q 1947 2706 1947 2009 
Q 1947 1309 1714 600 
Q 1481 -109 1013 -844 
L 513 -844 
Q 928 -128 1133 580 
Q 1338 1288 1338 2009 
Q 1338 2731 1133 3434 
Q 928 4138 513 4856 
z
" transform="scale(0.015625)"/>
      </defs>
      <use xlink:href="#DejaVuSans-53" transform="translate(0 0.578125)"/>
      <use xlink:href="#DejaVuSans-70" transform="translate(63.476562 0.578125)"/>
      <use xlink:href="#DejaVuSans-65" transform="translate(126.953125 0.578125)"/>
      <use xlink:href="#DejaVuSans-63" transform="translate(188.476562 0.578125)"/>
      <use xlink:href="#DejaVuSans-74" transform="translate(243.457031 0.578125)"/>
      <use xlink:href="#DejaVuSans-72" transform="translate(282.666016 0.578125)"/>
      <use xlink:href="#DejaVuSans-61" transform="translate(323.779297 0.578125)"/>
      <use xlink:href="#DejaVuSans-6c" transform="translate(385.058594 0.578125)"/>
      <use xlink:href="#DejaVuSans-20" transform="translate(412.841797 0.578125)"/>
      <use xlink:href="#DejaVuSans-44" transform="translate(444.628906 0.578125)"/>
      <use xlink:href="#DejaVuSans-65" transform="translate(521.630859 0.578125)"/>
      <use xlink:href="#DejaVuSans-6e" transform="translate(583.154297 0.578125)"/>
      <use xlink:href="#DejaVuSans-73" transform="translate(646.533203 0.578125)"/>
      <use xlink:href="#DejaVuSans-69" transform="translate(698.632812 0.578125)"/>
      <use xlink:href="#DejaVuSans-74" transform="translate(726.416016 0.578125)"/>
      <use xlink:href="#DejaVuSans-79" transform="translate(765.625 0.578125)"/>
      <use xlink:href="#DejaVuSans-20" transform="translate(824.804688 0.578125)"/>
      <use xlink:href="#DejaVuSans-28" transform="translate(856.591797 0.578125)"/>
      <use xlink:href="#DejaVuSans-Oblique-72" transform="translate(895.605469 0.578125)"/>
      <use xlink:href="#DejaVuSans-Oblique-61" transform="translate(936.71875 0.578125)"/>
      <use xlink:href="#DejaVuSans-Oblique-64" transform="translate(997.998047 0.578125)"/>
      <use xlink:href="#DejaVuSans-2f" transform="translate(1061.474609 0.578125)"/>
      <use xlink:href="#DejaVuSans-Oblique-73" transform="translate(1095.166016 0.578125)"/>
      <use xlink:href="#DejaVuSans-2f" transform="translate(1147.265625 0.578125)"/>
      <use xlink:href="#STIXSizeOneSym-Regular-221a" transform="translate(1180.957031 17.09375) scale(0.563912)"/>
      <use xlink:href="#DejaVuSans-Oblique-48" transform="translate(1253.045395 0.84375)"/>
      <use xlink:href="#DejaVuSans-Oblique-7a" transform="translate(1328.240707 0.84375)"/>
      <use xlink:href="#DejaVuSans-29" transform="translate(1393.230942 0.578125)"/>
      <path d="M 1240.545395 97.5 
L 1240.545395 103.75 
L 1393.230942 103.75 
L 1393.230942 97.5 
L 1240.545395 97.5 
z
"/>
     </g>
    </g>
   </g>
   <g id="line2d_27">
    <path d="M 73.832727 284.701253 
L 74.466818 266.513575 
L 75.100909 261.194723 
L 75.735 263.285076 
L 76.369091 263.769925 
L 77.003182 265.053661 
L 78.271364 271.395274 
L 78.905455 269.504082 
L 79.539545 270.179324 
L 80.807727 277.733583 
L 81.441818 278.277399 
L 82.71 282.919245 
L 83.344091 282.9011 
L 83.978182 280.82854 
L 84.612273 281.284794 
L 85.246364 281.981895 
L 85.880455 281.652375 
L 86.514545 282.244665 
L 87.148636 281.898949 
L 87.782727 282.028397 
L 88.416818 282.443897 
L 89.050909 283.534826 
L 89.685 283.259709 
L 90.319091 284.356769 
L 90.953182 284.042733 
L 91.587273 284.633333 
L 92.221364 284.670186 
L 92.855455 283.111648 
L 93.489545 283.608282 
L 94.123636 284.838744 
L 94.757727 284.235641 
L 95.391818 283.850091 
L 96.025909 284.517318 
L 96.66 283.373554 
L 97.294091 283.617184 
L 97.928182 285.131687 
L 98.562273 284.681546 
L 99.196364 282.539232 
L 100.464545 284.850252 
L 101.098636 285.056037 
L 102.366818 287.713874 
L 103.000909 286.96125 
L 103.635 287.026545 
L 104.269091 286.808047 
L 104.903182 287.340475 
L 105.537273 288.50832 
L 106.171364 289.384208 
L 107.439545 289.531995 
L 108.073636 289.995194 
L 108.707727 291.178076 
L 109.341818 291.824758 
L 110.61 291.447648 
L 113.780455 292.209164 
L 115.048636 293.035412 
L 115.682727 292.891081 
L 117.585 293.196006 
L 118.219091 293.115254 
L 118.853182 293.43838 
L 120.121364 293.443264 
L 120.755455 293.502529 
L 121.389545 293.677328 
L 122.023636 293.736867 
L 122.657727 293.625433 
L 123.291818 293.248524 
L 123.925909 293.694073 
L 124.56 293.934876 
L 127.096364 293.646298 
L 127.730455 293.801434 
L 128.364545 293.743582 
L 128.998636 293.827654 
L 129.632727 293.7363 
L 130.266818 294.267636 
L 131.535 294.015524 
L 132.803182 294.457597 
L 133.437273 294.211423 
L 134.071364 294.153031 
L 134.705455 294.20772 
L 135.339545 294.101077 
L 135.973636 293.856537 
L 136.607727 293.828336 
L 137.241818 294.098058 
L 138.51 294.175165 
L 139.144091 294.061325 
L 139.778182 294.210829 
L 140.412273 294.504043 
L 144.216818 294.525509 
L 145.485 294.149668 
L 146.119091 294.477804 
L 152.46 294.417223 
L 153.094091 294.221285 
L 153.728182 293.712167 
L 154.362273 293.668719 
L 154.996364 293.767661 
L 156.264545 293.311962 
L 156.898636 293.29121 
L 158.166818 293.717955 
L 158.800909 293.380597 
L 159.435 293.351778 
L 160.069091 293.03187 
L 161.337273 292.920384 
L 161.971364 292.555976 
L 162.605455 292.631242 
L 163.239545 292.276421 
L 163.873636 292.29268 
L 164.507727 292.477542 
L 165.141818 292.243164 
L 165.775909 292.434056 
L 166.41 292.334116 
L 167.044091 292.110246 
L 168.312273 292.793952 
L 168.946364 292.659023 
L 169.580455 292.900639 
L 170.214545 292.902506 
L 171.482727 293.269439 
L 172.116818 292.88682 
L 172.750909 293.280733 
L 173.385 292.899664 
L 174.019091 293.122997 
L 175.287273 292.554223 
L 176.555455 293.515453 
L 177.189545 293.689955 
L 177.823636 293.444181 
L 178.457727 293.369752 
L 179.725909 292.92903 
L 180.36 292.926042 
L 180.994091 293.296578 
L 181.628182 292.961056 
L 184.164545 293.09912 
L 184.798636 293.077035 
L 185.432727 293.280436 
L 186.066818 292.905329 
L 186.700909 292.908275 
L 187.335 293.12861 
L 188.603182 292.340348 
L 189.237273 292.313684 
L 189.871364 292.787021 
L 190.505455 292.969523 
L 191.139545 292.629568 
L 191.773636 292.664874 
L 192.407727 292.990885 
L 193.675909 292.982137 
L 194.31 293.150472 
L 195.578182 292.420522 
L 196.212273 292.24123 
L 196.846364 292.476499 
L 197.480455 292.484684 
L 198.114545 292.922534 
L 198.748636 293.054578 
L 199.382727 293.047907 
L 200.016818 293.180252 
L 200.650909 292.847823 
L 201.285 292.854974 
L 201.919091 293.304126 
L 202.553182 292.691242 
L 203.187273 292.247511 
L 203.821364 293.144026 
L 205.089545 293.683741 
L 206.357727 292.978151 
L 207.625909 293.526141 
L 208.26 293.669974 
L 210.796364 293.579713 
L 211.430455 293.323365 
L 212.698636 293.727403 
L 213.332727 293.682671 
L 213.966818 293.450135 
L 214.600909 293.40506 
L 215.235 293.234825 
L 216.503182 293.672487 
L 217.137273 293.710257 
L 217.771364 293.609019 
L 218.405455 293.776765 
L 219.039545 293.790135 
L 219.673636 293.634373 
L 220.307727 293.293697 
L 220.941818 293.453973 
L 221.575909 293.963773 
L 222.21 293.707495 
L 222.844091 293.573744 
L 224.112273 293.50896 
L 224.746364 293.308496 
L 226.014545 293.648376 
L 227.282727 293.661942 
L 227.916818 293.782264 
L 228.550909 292.996267 
L 229.185 293.023469 
L 229.819091 292.857691 
L 230.453182 292.210704 
L 231.087273 292.711547 
L 232.355455 292.550513 
L 232.989545 292.916794 
L 233.623636 292.666234 
L 234.257727 292.985196 
L 235.525909 292.543104 
L 236.16 292.720709 
L 237.428182 292.13595 
L 238.062273 292.235769 
L 238.696364 292.515958 
L 239.330455 292.218958 
L 239.964545 291.592444 
L 241.232727 292.70939 
L 241.866818 292.567345 
L 243.135 291.571316 
L 243.769091 291.96827 
L 244.403182 291.593962 
L 245.037273 291.379662 
L 245.671364 291.354475 
L 246.305455 291.503171 
L 246.939545 290.963611 
L 247.573636 291.301711 
L 248.207727 290.517776 
L 250.11 291.018146 
L 250.744091 291.588673 
L 251.378182 290.910021 
L 252.012273 290.502417 
L 252.646364 291.263637 
L 253.280455 291.018998 
L 253.914545 290.048179 
L 254.548636 290.036659 
L 255.182727 290.966333 
L 255.816818 290.765595 
L 256.450909 290.263853 
L 257.085 290.518669 
L 258.987273 289.807267 
L 260.255455 289.629657 
L 260.889545 289.083681 
L 261.523636 289.161871 
L 262.157727 290.001325 
L 263.425909 289.768138 
L 264.06 289.170192 
L 264.694091 288.818142 
L 265.328182 289.152683 
L 265.962273 288.724246 
L 266.596364 289.063063 
L 267.230455 288.363729 
L 267.864545 288.481709 
L 268.498636 288.019078 
L 269.132727 288.212612 
L 269.766818 287.845052 
L 270.400909 285.080533 
L 271.035 283.804594 
L 271.669091 283.819695 
L 272.303182 284.290617 
L 272.937273 284.586054 
L 273.571364 283.43871 
L 274.205455 281.565289 
L 274.839545 282.70525 
L 275.473636 287.12135 
L 276.107727 287.215643 
L 276.741818 287.628038 
L 277.375909 288.443242 
L 278.01 288.296205 
L 278.644091 289.169841 
L 279.912273 290.122428 
L 280.546364 290.319294 
L 281.180455 289.642683 
L 281.814545 289.798425 
L 283.082727 289.144145 
L 283.716818 289.799545 
L 284.985 288.548363 
L 285.619091 288.254612 
L 286.253182 288.173389 
L 286.887273 289.005043 
L 287.521364 288.976413 
L 288.155455 288.533444 
L 288.789545 289.227693 
L 289.423636 290.784155 
L 290.691818 290.238174 
L 292.594091 290.359185 
L 293.228182 290.133133 
L 293.862273 289.377037 
L 294.496364 289.683214 
L 295.764545 288.968629 
L 296.398636 289.83902 
L 297.032727 289.801597 
L 297.666818 289.342558 
L 298.300909 289.537753 
L 299.569091 289.415464 
L 300.203182 289.90727 
L 300.837273 289.389819 
L 301.471364 288.52028 
L 302.105455 288.426877 
L 302.739545 287.923027 
L 303.373636 289.228791 
L 304.007727 288.499513 
L 304.641818 287.310332 
L 305.275909 287.251781 
L 305.91 287.700957 
L 306.544091 287.457668 
L 307.178182 287.573829 
L 307.812273 287.11847 
L 308.446364 285.744225 
L 309.080455 284.792078 
L 309.714545 285.011809 
L 310.348636 284.114744 
L 310.982727 279.866398 
L 312.250909 273.36192 
L 312.885 267.870881 
L 313.519091 263.546445 
L 314.153182 264.029872 
L 314.787273 263.50453 
L 315.421364 258.46158 
L 316.055455 251.600006 
L 316.689545 243.482724 
L 317.323636 238.93325 
L 317.957727 230.013074 
L 318.591818 214.378652 
L 319.225909 195.518191 
L 319.86 200.529945 
L 320.494091 192.458324 
L 321.128182 190.191356 
L 321.762273 176.045594 
L 322.396364 181.582857 
L 323.030455 173.482995 
L 323.664545 145.281981 
L 324.298636 141.514247 
L 324.932727 152.05796 
L 325.566818 150.94075 
L 327.469091 53.568 
L 328.103182 70.54545 
L 328.737273 96.017423 
L 329.371364 88.333478 
L 330.005455 68.77477 
L 330.639545 67.376459 
L 331.273636 72.623023 
L 331.907727 80.822992 
L 332.541818 84.869809 
L 333.175909 98.315368 
L 333.81 116.934826 
L 334.444091 113.02797 
L 335.078182 116.082766 
L 335.712273 126.720142 
L 336.346364 118.145778 
L 336.980455 123.931687 
L 337.614545 114.633197 
L 338.248636 116.912756 
L 338.882727 134.297693 
L 339.516818 124.481587 
L 340.150909 126.667349 
L 340.785 129.309058 
L 342.687273 160.775047 
L 343.321364 149.889053 
L 343.955455 136.708971 
L 345.223636 174.524208 
L 345.857727 192.922406 
L 346.491818 163.236624 
L 347.125909 147.442193 
L 347.76 156.057949 
L 348.394091 151.41553 
L 349.028182 144.308368 
L 349.662273 169.763804 
L 350.296364 166.18851 
L 350.930455 172.79568 
L 351.564545 151.477043 
L 352.198636 141.685924 
L 352.832727 145.464151 
L 353.466818 151.685045 
L 354.100909 165.102866 
L 354.735 147.699924 
L 355.369091 147.879794 
L 356.003182 148.907495 
L 356.637273 160.846323 
L 357.271364 136.444674 
L 357.905455 155.545418 
L 358.539545 161.419857 
L 359.173636 152.968235 
L 359.807727 159.475973 
L 360.441818 145.144927 
L 361.075909 136.122157 
L 361.71 156.471938 
L 362.344091 146.50912 
L 362.978182 121.135416 
L 363.612273 129.711003 
L 364.246364 135.426041 
L 364.880455 153.908182 
L 365.514545 162.909717 
L 366.782727 116.936051 
L 367.416818 107.360083 
L 368.685 142.196934 
L 369.319091 155.521976 
L 369.953182 160.6588 
L 370.587273 145.538566 
L 371.221364 135.172927 
L 371.855455 127.478609 
L 372.489545 145.773069 
L 373.123636 152.148866 
L 373.757727 104.077523 
L 375.66 178.09751 
L 376.294091 163.649265 
L 376.928182 159.090307 
L 377.562273 160.413565 
L 378.196364 169.563083 
L 378.830455 176.396066 
L 379.464545 185.305374 
L 380.098636 187.04176 
L 382.000909 209.668547 
L 383.269091 237.91373 
L 384.537273 251.804439 
L 385.171364 259.701116 
L 385.805455 260.738975 
L 386.439545 263.207649 
L 387.073636 269.417222 
L 387.707727 271.455238 
L 388.341818 272.515912 
L 388.975909 272.837201 
L 389.61 275.084721 
L 390.244091 276.70632 
L 390.878182 276.157641 
L 391.512273 276.456551 
L 392.146364 275.855916 
L 392.780455 276.989683 
L 393.414545 278.749711 
L 394.048636 278.834089 
L 394.682727 276.823964 
L 395.316818 277.223268 
L 395.950909 277.489372 
L 396.585 279.130756 
L 397.219091 280.329065 
L 397.853182 281.950333 
L 398.487273 287.121874 
L 398.487273 287.121874 
" clip-path="url(#p8f74fb6819)" style="fill: none; stroke: #1f77b4; stroke-width: 1.5; stroke-linecap: square"/>
   </g>
   <g id="line2d_28">
    <path d="M 73.832727 272.472638 
L 74.466818 226.472033 
L 75.100909 223.147842 
L 75.735 225.367739 
L 76.369091 243.235056 
L 77.003182 255.075914 
L 77.637273 263.630127 
L 78.271364 259.9156 
L 78.905455 259.107471 
L 79.539545 265.626414 
L 80.173636 264.842647 
L 80.807727 272.568275 
L 81.441818 276.116656 
L 82.075909 275.277392 
L 82.71 275.705836 
L 83.344091 275.941854 
L 83.978182 279.431576 
L 84.612273 281.446639 
L 85.246364 284.818306 
L 85.880455 285.235806 
L 86.514545 286.322348 
L 87.148636 288.704218 
L 87.782727 289.780735 
L 88.416818 290.625587 
L 89.050909 290.442483 
L 89.685 290.80368 
L 90.319091 292.0405 
L 90.953182 292.5535 
L 91.587273 292.792986 
L 92.221364 292.455072 
L 92.855455 292.36862 
L 94.123636 293.114879 
L 94.757727 293.408497 
L 95.391818 293.569789 
L 96.025909 293.436217 
L 96.66 293.574115 
L 97.294091 293.530632 
L 97.928182 293.933733 
L 98.562273 293.981572 
L 99.196364 293.906547 
L 102.366818 294.468357 
L 103.000909 294.455862 
L 103.635 294.694314 
L 104.903182 294.719055 
L 105.537273 294.836841 
L 106.805455 294.943333 
L 107.439545 295.079309 
L 111.878182 295.222477 
L 112.512273 295.122446 
L 115.682727 295.488 
L 116.316818 295.443198 
L 116.950909 295.286572 
L 117.585 295.275534 
L 118.219091 295.445925 
L 118.853182 295.281692 
L 122.023636 295.277445 
L 122.657727 295.050275 
L 125.828182 295.21487 
L 126.462273 295.05087 
L 129.632727 295.019907 
L 131.535 295.128764 
L 132.803182 294.913529 
L 133.437273 295.072979 
L 134.071364 295.105088 
L 134.705455 294.87602 
L 136.607727 295.054132 
L 137.241818 294.892752 
L 142.314545 295.216254 
L 144.850909 295.125324 
L 146.119091 295.276819 
L 151.191818 295.287627 
L 151.825909 295.320102 
L 153.094091 295.156919 
L 154.362273 295.172 
L 156.264545 295.121297 
L 158.800909 295.293602 
L 159.435 295.382858 
L 161.337273 294.984629 
L 162.605455 295.000639 
L 163.873636 295.202224 
L 165.775909 295.187469 
L 166.41 295.0825 
L 167.044091 295.138878 
L 167.678182 295.314401 
L 168.312273 295.253241 
L 169.580455 294.862037 
L 170.214545 295.108192 
L 170.848636 295.200646 
L 172.116818 294.914394 
L 173.385 294.869778 
L 174.019091 294.991773 
L 174.653182 294.839345 
L 175.287273 294.951274 
L 176.555455 294.652566 
L 177.823636 294.603726 
L 178.457727 294.588627 
L 179.725909 294.804871 
L 182.262273 294.797318 
L 182.896364 294.542071 
L 183.530455 294.550738 
L 184.164545 294.756238 
L 184.798636 294.689044 
L 185.432727 294.412566 
L 186.066818 294.698303 
L 187.335 294.5519 
L 189.237273 294.854193 
L 191.139545 294.430892 
L 191.773636 294.461953 
L 193.041818 294.952663 
L 194.31 294.789626 
L 194.944091 294.655136 
L 195.578182 294.847594 
L 196.212273 294.720601 
L 196.846364 294.714496 
L 197.480455 294.909458 
L 198.114545 294.945944 
L 198.748636 294.770586 
L 199.382727 294.860101 
L 200.016818 294.666932 
L 200.650909 294.630887 
L 203.187273 294.967627 
L 203.821364 294.823586 
L 205.089545 295.061441 
L 206.357727 294.909152 
L 208.894091 295.012743 
L 209.528182 295.143348 
L 210.162273 295.136304 
L 210.796364 294.916592 
L 211.430455 294.852147 
L 212.064545 295.198437 
L 212.698636 295.257098 
L 213.966818 294.911042 
L 215.235 294.738855 
L 216.503182 295.063651 
L 217.771364 294.899888 
L 218.405455 295.096331 
L 219.039545 295.042016 
L 220.307727 294.768544 
L 221.575909 295.099023 
L 222.21 294.982072 
L 222.844091 295.014562 
L 223.478182 294.908936 
L 224.112273 294.667702 
L 226.648636 294.711999 
L 227.282727 294.63641 
L 227.916818 294.706 
L 228.550909 294.652322 
L 229.819091 294.413016 
L 230.453182 294.624928 
L 233.623636 294.80438 
L 234.257727 295.010867 
L 237.428182 294.727625 
L 238.696364 294.806036 
L 239.330455 294.876366 
L 239.964545 294.652186 
L 240.598636 294.70657 
L 241.232727 294.567028 
L 241.866818 294.789133 
L 244.403182 295.080419 
L 245.037273 294.829538 
L 246.939545 294.531544 
L 247.573636 294.589388 
L 248.841818 294.501869 
L 250.11 294.519063 
L 250.744091 294.282146 
L 252.646364 294.6005 
L 255.182727 294.631763 
L 256.450909 294.464181 
L 257.085 294.667807 
L 260.889545 294.31938 
L 261.523636 294.551975 
L 262.157727 294.661621 
L 262.791818 294.353405 
L 263.425909 294.538403 
L 264.694091 294.214776 
L 265.328182 294.484434 
L 265.962273 294.157294 
L 266.596364 294.35057 
L 267.230455 294.324825 
L 269.132727 293.96254 
L 269.766818 293.921621 
L 270.400909 294.01077 
L 271.035 293.279907 
L 271.669091 293.196054 
L 272.303182 293.845756 
L 272.937273 294.165205 
L 274.205455 293.420495 
L 274.839545 293.587393 
L 275.473636 294.347801 
L 276.107727 294.459248 
L 277.375909 294.365912 
L 278.644091 294.833609 
L 279.278182 294.657864 
L 279.912273 294.60266 
L 281.814545 294.982156 
L 283.716818 294.872349 
L 284.985 294.804844 
L 286.253182 294.618085 
L 287.521364 294.873331 
L 288.789545 294.84494 
L 291.325909 294.7703 
L 292.594091 294.62046 
L 294.496364 294.821918 
L 295.130455 294.853591 
L 295.764545 294.675747 
L 296.398636 294.725276 
L 297.666818 294.589379 
L 298.300909 294.558774 
L 298.935 294.645491 
L 301.471364 294.19203 
L 302.105455 294.341818 
L 304.007727 293.83277 
L 304.641818 293.528466 
L 305.275909 293.748488 
L 306.544091 293.1264 
L 307.178182 292.991966 
L 309.080455 291.815133 
L 309.714545 291.12887 
L 311.616818 288.112723 
L 312.250909 286.756714 
L 312.885 284.454247 
L 313.519091 282.925286 
L 314.153182 282.428024 
L 314.787273 281.456058 
L 315.421364 280.790994 
L 316.055455 280.50849 
L 316.689545 281.390373 
L 317.323636 280.266179 
L 317.957727 277.383167 
L 319.225909 262.80334 
L 319.86 259.342451 
L 320.494091 260.886522 
L 321.128182 266.452318 
L 321.762273 266.080637 
L 322.396364 261.967092 
L 323.030455 256.456372 
L 323.664545 248.001754 
L 324.298636 246.521131 
L 324.932727 249.237408 
L 326.200909 237.454535 
L 327.469091 217.491644 
L 328.737273 227.510705 
L 329.371364 218.786121 
L 330.005455 211.651177 
L 330.639545 219.349183 
L 331.273636 220.323516 
L 331.907727 221.551578 
L 332.541818 219.14983 
L 333.81 227.973707 
L 334.444091 227.265261 
L 335.078182 227.404508 
L 335.712273 222.042597 
L 336.346364 217.874204 
L 336.980455 223.418082 
L 337.614545 224.29192 
L 338.248636 226.354889 
L 338.882727 224.607715 
L 339.516818 221.179802 
L 340.150909 231.66269 
L 341.419091 212.618743 
L 342.053182 213.964289 
L 342.687273 228.797865 
L 343.321364 230.575461 
L 343.955455 228.497212 
L 344.589545 241.645168 
L 345.223636 240.65737 
L 345.857727 226.963923 
L 346.491818 222.806248 
L 347.125909 233.13959 
L 347.76 240.825293 
L 348.394091 233.534996 
L 349.028182 236.254736 
L 349.662273 245.393575 
L 350.296364 249.327245 
L 350.930455 245.119046 
L 351.564545 244.177154 
L 352.832727 258.864737 
L 353.466818 260.434377 
L 354.100909 249.566989 
L 354.735 247.639722 
L 355.369091 254.064874 
L 356.003182 253.505393 
L 356.637273 256.460057 
L 357.271364 255.663179 
L 358.539545 267.446572 
L 359.173636 269.871584 
L 359.807727 264.20938 
L 360.441818 256.982791 
L 361.075909 256.461286 
L 361.71 260.966388 
L 362.344091 263.290068 
L 362.978182 262.822689 
L 363.612273 263.988281 
L 364.246364 262.397397 
L 364.880455 264.390518 
L 365.514545 267.491012 
L 366.148636 267.434857 
L 366.782727 268.487912 
L 367.416818 267.491304 
L 368.050909 264.49384 
L 368.685 266.067279 
L 369.319091 272.02323 
L 369.953182 274.51867 
L 370.587273 275.285462 
L 371.221364 269.388671 
L 371.855455 269.185118 
L 372.489545 275.336899 
L 373.123636 276.17312 
L 373.757727 274.343514 
L 374.391818 274.017547 
L 375.025909 277.717337 
L 375.66 280.18194 
L 376.294091 281.153778 
L 377.562273 279.654589 
L 378.196364 278.006252 
L 378.830455 279.980896 
L 379.464545 282.505632 
L 380.732727 285.677822 
L 381.366818 286.131638 
L 382.000909 286.231871 
L 382.635 286.716246 
L 383.269091 288.24519 
L 384.537273 289.144287 
L 385.171364 290.783861 
L 385.805455 288.250711 
L 386.439545 287.271717 
L 387.073636 288.118745 
L 387.707727 290.052668 
L 388.341818 289.348227 
L 388.975909 289.633518 
L 389.61 291.840977 
L 390.244091 290.613507 
L 390.878182 292.003775 
L 391.512273 292.091845 
L 392.146364 292.368391 
L 392.780455 292.909812 
L 393.414545 292.752213 
L 394.048636 292.360724 
L 394.682727 292.249258 
L 395.316818 291.915313 
L 395.950909 292.803028 
L 397.219091 292.839933 
L 397.853182 293.115539 
L 398.487273 294.114302 
L 398.487273 294.114302 
" clip-path="url(#p8f74fb6819)" style="fill: none; stroke: #ff7f0e; stroke-width: 1.5; stroke-linecap: square"/>
   </g>
   <g id="line2d_29">
    <path d="M 73.832727 267.165308 
L 74.466818 227.439065 
L 75.100909 211.09848 
L 75.735 218.876952 
L 76.369091 222.238561 
L 77.003182 221.018628 
L 78.905455 247.788582 
L 79.539545 254.781939 
L 80.173636 256.315781 
L 80.807727 251.633166 
L 81.441818 253.319135 
L 82.075909 254.161653 
L 83.344091 269.456341 
L 83.978182 268.923812 
L 84.612273 265.527773 
L 85.246364 262.942848 
L 86.514545 264.279019 
L 87.148636 267.053303 
L 87.782727 268.915327 
L 88.416818 271.746348 
L 89.050909 270.759139 
L 89.685 272.136959 
L 90.319091 275.367691 
L 90.953182 274.978764 
L 91.587273 273.734674 
L 92.221364 269.842927 
L 92.855455 271.306697 
L 93.489545 273.601706 
L 94.123636 275.082208 
L 94.757727 277.493981 
L 95.391818 274.98207 
L 96.025909 273.447583 
L 96.66 273.904297 
L 97.294091 272.798487 
L 97.928182 274.058035 
L 98.562273 273.640233 
L 99.196364 274.077301 
L 100.464545 275.237865 
L 101.098636 276.507537 
L 101.732727 279.945845 
L 102.366818 279.10801 
L 103.000909 280.462685 
L 103.635 282.211546 
L 104.269091 284.426639 
L 104.903182 283.945674 
L 106.171364 284.47841 
L 106.805455 284.842695 
L 107.439545 285.650282 
L 108.073636 285.997394 
L 108.707727 287.13253 
L 109.341818 287.954164 
L 110.61 290.129935 
L 111.244091 290.302949 
L 111.878182 290.111336 
L 112.512273 290.4773 
L 114.414545 290.250954 
L 115.682727 292.289793 
L 116.950909 292.164503 
L 118.219091 291.680431 
L 119.487273 292.886122 
L 120.121364 292.547631 
L 120.755455 292.411996 
L 121.389545 293.30601 
L 123.291818 292.382816 
L 123.925909 292.566932 
L 124.56 292.973869 
L 125.194091 293.026485 
L 125.828182 292.875392 
L 126.462273 292.929999 
L 127.096364 293.288195 
L 127.730455 293.329319 
L 128.364545 293.172701 
L 128.998636 293.472071 
L 129.632727 293.452288 
L 130.266818 293.803509 
L 130.900909 293.857017 
L 131.535 293.596601 
L 132.169091 293.764599 
L 132.803182 293.568418 
L 133.437273 293.841775 
L 134.071364 293.926736 
L 134.705455 293.648736 
L 135.973636 294.112601 
L 137.241818 293.817196 
L 138.51 294.148214 
L 139.144091 294.37777 
L 139.778182 294.479906 
L 140.412273 294.694646 
L 141.046364 294.744093 
L 143.582727 294.522535 
L 144.216818 294.49707 
L 145.485 294.798789 
L 146.119091 294.698674 
L 146.753182 294.788153 
L 148.021364 294.507827 
L 148.655455 294.57497 
L 149.289545 294.839031 
L 152.46 294.730573 
L 153.094091 295.011208 
L 154.362273 294.88452 
L 154.996364 294.922038 
L 155.630455 294.716854 
L 156.264545 294.75594 
L 156.898636 294.652198 
L 157.532727 294.792583 
L 158.166818 294.722642 
L 158.800909 294.815169 
L 159.435 294.787048 
L 160.069091 294.628873 
L 160.703182 294.884033 
L 161.971364 294.744747 
L 162.605455 294.523348 
L 163.239545 294.628255 
L 163.873636 294.856728 
L 166.41 294.548948 
L 167.044091 294.689504 
L 168.312273 294.565725 
L 169.580455 294.612106 
L 170.848636 294.434833 
L 171.482727 294.562723 
L 172.116818 294.409817 
L 172.750909 294.469247 
L 174.019091 294.133696 
L 174.653182 293.935867 
L 177.189545 294.14272 
L 177.823636 294.165884 
L 178.457727 294.480157 
L 179.725909 293.666479 
L 180.36 293.808253 
L 180.994091 294.324719 
L 181.628182 294.163156 
L 182.262273 294.437597 
L 183.530455 293.442376 
L 184.798636 294.307352 
L 186.700909 293.279438 
L 188.603182 294.286415 
L 191.139545 293.490337 
L 192.407727 294.014319 
L 193.675909 293.631489 
L 194.944091 293.9706 
L 196.846364 294.624165 
L 197.480455 294.42087 
L 198.114545 294.640738 
L 198.748636 294.523663 
L 200.650909 294.49712 
L 201.285 294.322351 
L 202.553182 294.530315 
L 203.821364 294.122932 
L 204.455455 294.164788 
L 205.723636 294.522732 
L 206.357727 294.542854 
L 206.991818 294.67922 
L 207.625909 294.603316 
L 208.26 294.347464 
L 208.894091 294.248493 
L 210.162273 294.340126 
L 210.796364 294.123527 
L 212.064545 294.529403 
L 213.332727 294.365023 
L 213.966818 294.173313 
L 214.600909 294.263398 
L 215.869091 294.129895 
L 216.503182 294.298 
L 217.137273 294.273389 
L 217.771364 294.060213 
L 219.039545 294.339623 
L 220.307727 294.388443 
L 221.575909 294.406774 
L 222.21 293.892633 
L 223.478182 293.924552 
L 224.112273 293.542845 
L 224.746364 293.545512 
L 225.380455 293.06353 
L 226.648636 293.295913 
L 227.282727 292.95419 
L 227.916818 293.402269 
L 229.819091 292.971944 
L 231.087273 292.682586 
L 232.355455 293.122847 
L 232.989545 293.614241 
L 233.623636 293.78055 
L 234.257727 293.728917 
L 234.891818 293.481866 
L 235.525909 293.470043 
L 237.428182 293.703626 
L 238.062273 293.552812 
L 239.330455 293.694097 
L 239.964545 293.560546 
L 240.598636 293.733512 
L 241.232727 293.657451 
L 242.500909 293.994761 
L 243.135 293.939935 
L 243.769091 294.157411 
L 245.037273 294.244367 
L 246.305455 293.833363 
L 248.841818 293.601042 
L 249.475909 293.718624 
L 250.11 293.447322 
L 250.744091 293.534151 
L 251.378182 293.80192 
L 252.012273 294.193162 
L 252.646364 294.064591 
L 253.280455 293.617984 
L 253.914545 293.589054 
L 254.548636 293.747194 
L 256.450909 293.229113 
L 257.719091 293.512297 
L 260.255455 293.01916 
L 260.889545 293.281881 
L 261.523636 293.293778 
L 262.791818 292.668305 
L 263.425909 292.692612 
L 264.06 292.418441 
L 265.328182 292.539494 
L 265.962273 292.053532 
L 266.596364 292.31436 
L 267.230455 291.605129 
L 267.864545 291.480731 
L 268.498636 290.369075 
L 269.132727 290.042699 
L 269.766818 290.167103 
L 270.400909 288.586554 
L 271.035 286.273202 
L 271.669091 285.588491 
L 272.303182 287.847083 
L 272.937273 288.884606 
L 274.205455 285.774188 
L 274.839545 286.439773 
L 275.473636 289.71907 
L 276.741818 291.771217 
L 279.278182 292.584857 
L 279.912273 293.100721 
L 281.180455 293.225325 
L 282.448636 293.218138 
L 283.082727 293.342916 
L 283.716818 293.751461 
L 284.350909 292.922552 
L 284.985 292.783823 
L 285.619091 292.247191 
L 286.253182 292.366019 
L 286.887273 293.020793 
L 288.155455 293.584502 
L 289.423636 294.179316 
L 290.057727 294.142906 
L 290.691818 294.500057 
L 291.325909 294.249744 
L 291.96 293.757683 
L 292.594091 293.564174 
L 293.862273 293.935564 
L 294.496364 293.758918 
L 295.764545 293.896881 
L 296.398636 294.049332 
L 297.666818 293.863994 
L 298.300909 293.61369 
L 298.935 293.848627 
L 299.569091 293.80284 
L 300.203182 293.464974 
L 301.471364 293.100642 
L 302.105455 293.221327 
L 302.739545 293.122085 
L 303.373636 292.714232 
L 304.007727 292.164633 
L 304.641818 291.780709 
L 305.275909 291.528604 
L 308.446364 287.547095 
L 309.714545 284.327176 
L 310.348636 282.578336 
L 310.982727 279.304057 
L 311.616818 277.326274 
L 312.250909 273.832903 
L 312.885 267.811157 
L 313.519091 263.41512 
L 314.153182 263.236983 
L 314.787273 261.886451 
L 315.421364 259.338179 
L 316.055455 255.42419 
L 316.689545 252.907234 
L 317.323636 249.344686 
L 317.957727 243.156206 
L 319.225909 212.633558 
L 319.86 209.530547 
L 320.494091 207.709356 
L 321.128182 214.612345 
L 321.762273 210.697627 
L 322.396364 209.171007 
L 323.030455 200.703093 
L 323.664545 180.306277 
L 324.298636 175.839472 
L 324.932727 187.564608 
L 325.566818 180.777811 
L 326.200909 161.792707 
L 327.469091 111.782076 
L 328.737273 143.83506 
L 330.005455 113.344145 
L 330.639545 126.924342 
L 331.907727 132.147088 
L 332.541818 130.43921 
L 333.81 154.363261 
L 334.444091 153.528393 
L 335.078182 155.621087 
L 335.712273 149.624054 
L 336.346364 145.420779 
L 336.980455 154.017697 
L 337.614545 151.291709 
L 338.248636 155.235255 
L 338.882727 157.411759 
L 339.516818 151.122133 
L 340.150909 167.744973 
L 341.419091 141.111862 
L 342.053182 149.038677 
L 342.687273 174.822422 
L 343.321364 177.599676 
L 343.955455 170.853921 
L 344.589545 192.985945 
L 345.223636 201.201637 
L 345.857727 178.97785 
L 346.491818 168.696545 
L 347.125909 188.33793 
L 347.76 202.459989 
L 348.394091 184.651277 
L 349.028182 192.847234 
L 349.662273 211.568995 
L 350.296364 214.05351 
L 350.930455 208.334615 
L 351.564545 207.749935 
L 352.198636 216.526033 
L 352.832727 227.562694 
L 353.466818 231.542656 
L 354.100909 216.341259 
L 354.735 210.743171 
L 355.369091 225.038992 
L 356.003182 222.641005 
L 356.637273 230.099299 
L 357.271364 221.771289 
L 357.905455 232.458156 
L 358.539545 239.580718 
L 359.173636 241.791644 
L 359.807727 236.007092 
L 360.441818 225.614354 
L 361.075909 226.319921 
L 361.71 235.165207 
L 362.344091 238.63453 
L 362.978182 234.646838 
L 363.612273 231.570878 
L 364.246364 230.440288 
L 365.514545 243.356204 
L 366.148636 242.199502 
L 366.782727 243.320642 
L 367.416818 241.515402 
L 368.050909 235.659549 
L 368.685 239.413806 
L 369.319091 251.327387 
L 370.587273 259.043866 
L 371.221364 250.510315 
L 371.855455 251.265261 
L 372.489545 259.048197 
L 373.123636 258.894161 
L 373.757727 261.831369 
L 374.391818 260.512157 
L 376.294091 271.276135 
L 377.562273 268.381093 
L 378.196364 265.887611 
L 378.830455 268.026628 
L 380.098636 277.865114 
L 380.732727 279.478086 
L 381.366818 279.839666 
L 382.000909 280.524014 
L 382.635 281.405102 
L 383.903182 284.869998 
L 384.537273 285.412754 
L 385.171364 287.635402 
L 385.805455 283.573339 
L 386.439545 281.983333 
L 387.073636 283.264972 
L 387.707727 286.985724 
L 388.341818 285.56899 
L 388.975909 285.759205 
L 389.61 289.018759 
L 390.244091 287.558322 
L 390.878182 290.42114 
L 391.512273 290.485477 
L 392.146364 291.065246 
L 392.780455 292.174694 
L 394.048636 291.562086 
L 394.682727 291.872915 
L 395.316818 291.656968 
L 395.950909 292.539249 
L 396.585 292.68895 
L 397.853182 292.722763 
L 398.487273 294.008519 
L 398.487273 294.008519 
" clip-path="url(#p8f74fb6819)" style="fill: none; stroke: #2ca02c; stroke-width: 1.5; stroke-linecap: square"/>
   </g>
   <g id="patch_3">
    <path d="M 57.6 307.584 
L 57.6 41.472 
" style="fill: none; stroke: #000000; stroke-width: 0.8; stroke-linejoin: miter; stroke-linecap: square"/>
   </g>
   <g id="patch_4">
    <path d="M 414.72 307.584 
L 414.72 41.472 
" style="fill: none; stroke: #000000; stroke-width: 0.8; stroke-linejoin: miter; stroke-linecap: square"/>
   </g>
   <g id="patch_5">
    <path d="M 57.6 307.584 
L 414.72 307.584 
" style="fill: none; stroke: #000000; stroke-width: 0.8; stroke-linejoin: miter; stroke-linecap: square"/>
   </g>
   <g id="patch_6">
    <path d="M 57.6 41.472 
L 414.72 41.472 
" style="fill: none; stroke: #000000; stroke-width: 0.8; stroke-linejoin: miter; stroke-linecap: square"/>
   </g>
   <g id="text_16">
    <!-- Gyro Noise Spectral Density -->
    <g transform="translate(152.01 35.472) scale(0.12 -0.12)">
     <defs>
      <path id="DejaVuSans-47" d="M 3809 666 
L 3809 1919 
L 2778 1919 
L 2778 2438 
L 4434 2438 
L 4434 434 
Q 4069 175 3628 42 
Q 3188 -91 2688 -91 
Q 1594 -91 976 548 
Q 359 1188 359 2328 
Q 359 3472 976 4111 
Q 1594 4750 2688 4750 
Q 3144 4750 3555 4637 
Q 3966 4525 4313 4306 
L 4313 3634 
Q 3963 3931 3569 4081 
Q 3175 4231 2741 4231 
Q 1884 4231 1454 3753 
Q 1025 3275 1025 2328 
Q 1025 1384 1454 906 
Q 1884 428 2741 428 
Q 3075 428 3337 486 
Q 3600 544 3809 666 
z
" transform="scale(0.015625)"/>
      <path id="DejaVuSans-6f" d="M 1959 3097 
Q 1497 3097 1228 2736 
Q 959 2375 959 1747 
Q 959 1119 1226 758 
Q 1494 397 1959 397 
Q 2419 397 2687 759 
Q 2956 1122 2956 1747 
Q 2956 2369 2687 2733 
Q 2419 3097 1959 3097 
z
M 1959 3584 
Q 2709 3584 3137 3096 
Q 3566 2609 3566 1747 
Q 3566 888 3137 398 
Q 2709 -91 1959 -91 
Q 1206 -91 779 398 
Q 353 888 353 1747 
Q 353 2609 779 3096 
Q 1206 3584 1959 3584 
z
" transform="scale(0.015625)"/>
      <path id="DejaVuSans-4e" d="M 628 4666 
L 1478 4666 
L 3547 763 
L 3547 4666 
L 4159 4666 
L 4159 0 
L 3309 0 
L 1241 3903 
L 1241 0 
L 628 0 
L 628 4666 
z
" transform="scale(0.015625)"/>
     </defs>
     <use xlink:href="#DejaVuSans-47"/>
     <use xlink:href="#DejaVuSans-79" x="77.490234"/>
     <use xlink:href="#DejaVuSans-72" x="136.669922"/>
     <use xlink:href="#DejaVuSans-6f" x="175.533203"/>
     <use xlink:href="#DejaVuSans-20" x="236.714844"/>
     <use xlink:href="#DejaVuSans-4e" x="268.501953"/>
     <use xlink:href="#DejaVuSans-6f" x="343.306641"/>
     <use xlink:href="#DejaVuSans-69" x="404.488281"/>
     <use xlink:href="#DejaVuSans-73" x="432.271484"/>
     <use xlink:href="#DejaVuSans-65" x="484.371094"/>
     <use xlink:href="#DejaVuSans-20" x="545.894531"/>
     <use xlink:href="#DejaVuSans-53" x="577.681641"/>
     <use xlink:href="#DejaVuSans-70" x="641.158203"/>
     <use xlink:href="#DejaVuSans-65" x="704.634766"/>
     <use xlink:href="#DejaVuSans-63" x="766.158203"/>
     <use xlink:href="#DejaVuSans-74" x="821.138672"/>
     <use xlink:href="#DejaVuSans-72" x="860.347656"/>
     <use xlink:href="#DejaVuSans-61" x="901.460938"/>
     <use xlink:href="#DejaVuSans-6c" x="962.740234"/>
     <use xlink:href="#DejaVuSans-20" x="990.523438"/>
     <use xlink:href="#DejaVuSans-44" x="1022.310547"/>
     <use xlink:href="#DejaVuSans-65" x="1099.3125"/>
     <use xlink:href="#DejaVuSans-6e" x="1160.835938"/>
     <use xlink:href="#DejaVuSans-73" x="1224.214844"/>
     <use xlink:href="#DejaVuSans-69" x="1276.314453"/>
     <use xlink:href="#DejaVuSans-74" x="1304.097656"/>
     <use xlink:href="#DejaVuSans-79" x="1343.306641"/>
    </g>
   </g>
   <g id="legend_1">
    <g id="patch_7">
     <path d="M 363.452813 93.506375 
L 407.72 93.506375 
Q 409.72 93.506375 409.72 91.506375 
L 409.72 48.472 
Q 409.72 46.472 407.72 46.472 
L 363.452813 46.472 
Q 361.452813 46.472 361.452813 48.472 
L 361.452813 91.506375 
Q 361.452813 93.506375 363.452813 93.506375 
z
" style="fill: #ffffff; opacity: 0.8; stroke: #cccccc; stroke-linejoin: miter"/>
    </g>
    <g id="line2d_30">
     <path d="M 365.452813 54.570438 
L 375.452813 54.570438 
L 385.452813 54.570438 
" style="fill: none; stroke: #1f77b4; stroke-width: 1.5; stroke-linecap: square"/>
    </g>
    <g id="text_17">
     <!-- gx -->
     <g transform="translate(393.452813 58.070438) scale(0.1 -0.1)">
      <defs>
       <path id="DejaVuSans-67" d="M 2906 1791 
Q 2906 2416 2648 2759 
Q 2391 3103 1925 3103 
Q 1463 3103 1205 2759 
Q 947 2416 947 1791 
Q 947 1169 1205 825 
Q 1463 481 1925 481 
Q 2391 481 2648 825 
Q 2906 1169 2906 1791 
z
M 3481 434 
Q 3481 -459 3084 -895 
Q 2688 -1331 1869 -1331 
Q 1566 -1331 1297 -1286 
Q 1028 -1241 775 -1147 
L 775 -588 
Q 1028 -725 1275 -790 
Q 1522 -856 1778 -856 
Q 2344 -856 2625 -561 
Q 2906 -266 2906 331 
L 2906 616 
Q 2728 306 2450 153 
Q 2172 0 1784 0 
Q 1141 0 747 490 
Q 353 981 353 1791 
Q 353 2603 747 3093 
Q 1141 3584 1784 3584 
Q 2172 3584 2450 3431 
Q 2728 3278 2906 2969 
L 2906 3500 
L 3481 3500 
L 3481 434 
z
" transform="scale(0.015625)"/>
       <path id="DejaVuSans-78" d="M 3513 3500 
L 2247 1797 
L 3578 0 
L 2900 0 
L 1881 1375 
L 863 0 
L 184 0 
L 1544 1831 
L 300 3500 
L 978 3500 
L 1906 2253 
L 2834 3500 
L 3513 3500 
z
" transform="scale(0.015625)"/>
      </defs>
      <use xlink:href="#DejaVuSans-67"/>
      <use xlink:href="#DejaVuSans-78" x="63.476562"/>
     </g>
    </g>
    <g id="line2d_31">
     <path d="M 365.452813 69.248563 
L 375.452813 69.248563 
L 385.452813 69.248563 
" style="fill: none; stroke: #ff7f0e; stroke-width: 1.5; stroke-linecap: square"/>
    </g>
    <g id="text_18">
     <!-- gy -->
     <g transform="translate(393.452813 72.748563) scale(0.1 -0.1)">
      <use xlink:href="#DejaVuSans-67"/>
      <use xlink:href="#DejaVuSans-79" x="63.476562"/>
     </g>
    </g>
    <g id="line2d_32">
     <path d="M 365.452813 83.926688 
L 375.452813 83.926688 
L 385.452813 83.926688 
" style="fill: none; stroke: #2ca02c; stroke-width: 1.5; stroke-linecap: square"/>
    </g>
    <g id="text_19">
     <!-- gz -->
     <g transform="translate(393.452813 87.426688) scale(0.1 -0.1)">
      <use xlink:href="#DejaVuSans-67"/>
      <use xlink:href="#DejaVuSans-7a" x="63.476562"/>
     </g>
    </g>
   </g>
  </g>
 </g>
 <defs>
  <clipPath id="p8f74fb6819">
   <rect x="57.6" y="41.472" width="357.12" height="266.112"/>
  </clipPath>
 </defs>
</svg>
