<?xml version="1.0" encoding="utf-8" standalone="no"?>
<!DOCTYPE svg PUBLIC "-//W3C//DTD SVG 1.1//EN"
  "http://www.w3.org/Graphics/SVG/1.1/DTD/svg11.dtd">
<svg xmlns:xlink="http://www.w3.org/1999/xlink" width="460.8pt" height="345.6pt" viewBox="0 0 460.8 345.6" xmlns="http://www.w3.org/2000/svg" version="1.1">
 <metadata>
  <rdf:RDF xmlns:dc="http://purl.org/dc/elements/1.1/" xmlns:cc="http://creativecommons.org/ns#" xmlns:rdf="http://www.w3.org/1999/02/22-rdf-syntax-ns#">
   <cc:Work>
    <dc:type rdf:resource="http://purl.org/dc/dcmitype/StillImage"/>
    <dc:date>2024-05-09T11:49:39.071455</dc:date>
    <dc:format>image/svg+xml</dc:format>
    <dc:creator>
     <cc:Agent>
      <dc:title>Matplotlib v3.8.3, https://matplotlib.org/</dc:title>
     </cc:Agent>
    </dc:creator>
   </cc:Work>
  </rdf:RDF>
 </metadata>
 <defs>
  <style type="text/css">*{stroke-linejoin: round; stroke-linecap: butt}</style>
 </defs>
 <g id="figure_1">
  <g id="patch_1">
   <path d="M 0 345.6 
L 460.8 345.6 
L 460.8 0 
L 0 0 
z
" style="fill: #ffffff"/>
  </g>
  <g id="axes_1">
   <g id="patch_2">
    <path d="M 57.6 307.584 
L 414.72 307.584 
L 414.72 41.472 
L 57.6 41.472 
z
" style="fill: #ffffff"/>
   </g>
   <g id="matplotlib.axis_1">
    <g id="xtick_1">
     <g id="line2d_1">
      <path d="M 73.832727 307.584 
L 73.832727 41.472 
" clip-path="url(#p48caf8c3a6)" style="fill: none; stroke: #b0b0b0; stroke-width: 0.8; stroke-linecap: square"/>
     </g>
     <g id="line2d_2">
      <defs>
       <path id="mb449dcc98c" d="M 0 0 
L 0 3.5 
" style="stroke: #000000; stroke-width: 0.8"/>
      </defs>
      <g>
       <use xlink:href="#mb449dcc98c" x="73.832727" y="307.584" style="stroke: #000000; stroke-width: 0.8"/>
      </g>
     </g>
     <g id="text_1">
      <!-- 0 -->
      <g transform="translate(70.651477 322.182437) scale(0.1 -0.1)">
       <defs>
        <path id="DejaVuSans-30" d="M 2034 4250 
Q 1547 4250 1301 3770 
Q 1056 3291 1056 2328 
Q 1056 1369 1301 889 
Q 1547 409 2034 409 
Q 2525 409 2770 889 
Q 3016 1369 3016 2328 
Q 3016 3291 2770 3770 
Q 2525 4250 2034 4250 
z
M 2034 4750 
Q 2819 4750 3233 4129 
Q 3647 3509 3647 2328 
Q 3647 1150 3233 529 
Q 2819 -91 2034 -91 
Q 1250 -91 836 529 
Q 422 1150 422 2328 
Q 422 3509 836 4129 
Q 1250 4750 2034 4750 
z
" transform="scale(0.015625)"/>
       </defs>
       <use xlink:href="#DejaVuSans-30"/>
      </g>
     </g>
    </g>
    <g id="xtick_2">
     <g id="line2d_3">
      <path d="M 138.841614 307.584 
L 138.841614 41.472 
" clip-path="url(#p48caf8c3a6)" style="fill: none; stroke: #b0b0b0; stroke-width: 0.8; stroke-linecap: square"/>
     </g>
     <g id="line2d_4">
      <g>
       <use xlink:href="#mb449dcc98c" x="138.841614" y="307.584" style="stroke: #000000; stroke-width: 0.8"/>
      </g>
     </g>
     <g id="text_2">
      <!-- 20 -->
      <g transform="translate(132.479114 322.182437) scale(0.1 -0.1)">
       <defs>
        <path id="DejaVuSans-32" d="M 1228 531 
L 3431 531 
L 3431 0 
L 469 0 
L 469 531 
Q 828 903 1448 1529 
Q 2069 2156 2228 2338 
Q 2531 2678 2651 2914 
Q 2772 3150 2772 3378 
Q 2772 3750 2511 3984 
Q 2250 4219 1831 4219 
Q 1534 4219 1204 4116 
Q 875 4013 500 3803 
L 500 4441 
Q 881 4594 1212 4672 
Q 1544 4750 1819 4750 
Q 2544 4750 2975 4387 
Q 3406 4025 3406 3419 
Q 3406 3131 3298 2873 
Q 3191 2616 2906 2266 
Q 2828 2175 2409 1742 
Q 1991 1309 1228 531 
z
" transform="scale(0.015625)"/>
       </defs>
       <use xlink:href="#DejaVuSans-32"/>
       <use xlink:href="#DejaVuSans-30" x="63.623047"/>
      </g>
     </g>
    </g>
    <g id="xtick_3">
     <g id="line2d_5">
      <path d="M 203.850501 307.584 
L 203.850501 41.472 
" clip-path="url(#p48caf8c3a6)" style="fill: none; stroke: #b0b0b0; stroke-width: 0.8; stroke-linecap: square"/>
     </g>
     <g id="line2d_6">
      <g>
       <use xlink:href="#mb449dcc98c" x="203.850501" y="307.584" style="stroke: #000000; stroke-width: 0.8"/>
      </g>
     </g>
     <g id="text_3">
      <!-- 40 -->
      <g transform="translate(197.488001 322.182437) scale(0.1 -0.1)">
       <defs>
        <path id="DejaVuSans-34" d="M 2419 4116 
L 825 1625 
L 2419 1625 
L 2419 4116 
z
M 2253 4666 
L 3047 4666 
L 3047 1625 
L 3713 1625 
L 3713 1100 
L 3047 1100 
L 3047 0 
L 2419 0 
L 2419 1100 
L 313 1100 
L 313 1709 
L 2253 4666 
z
" transform="scale(0.015625)"/>
       </defs>
       <use xlink:href="#DejaVuSans-34"/>
       <use xlink:href="#DejaVuSans-30" x="63.623047"/>
      </g>
     </g>
    </g>
    <g id="xtick_4">
     <g id="line2d_7">
      <path d="M 268.859388 307.584 
L 268.859388 41.472 
" clip-path="url(#p48caf8c3a6)" style="fill: none; stroke: #b0b0b0; stroke-width: 0.8; stroke-linecap: square"/>
     </g>
     <g id="line2d_8">
      <g>
       <use xlink:href="#mb449dcc98c" x="268.859388" y="307.584" style="stroke: #000000; stroke-width: 0.8"/>
      </g>
     </g>
     <g id="text_4">
      <!-- 60 -->
      <g transform="translate(262.496888 322.182437) scale(0.1 -0.1)">
       <defs>
        <path id="DejaVuSans-36" d="M 2113 2584 
Q 1688 2584 1439 2293 
Q 1191 2003 1191 1497 
Q 1191 994 1439 701 
Q 1688 409 2113 409 
Q 2538 409 2786 701 
Q 3034 994 3034 1497 
Q 3034 2003 2786 2293 
Q 2538 2584 2113 2584 
z
M 3366 4563 
L 3366 3988 
Q 3128 4100 2886 4159 
Q 2644 4219 2406 4219 
Q 1781 4219 1451 3797 
Q 1122 3375 1075 2522 
Q 1259 2794 1537 2939 
Q 1816 3084 2150 3084 
Q 2853 3084 3261 2657 
Q 3669 2231 3669 1497 
Q 3669 778 3244 343 
Q 2819 -91 2113 -91 
Q 1303 -91 875 529 
Q 447 1150 447 2328 
Q 447 3434 972 4092 
Q 1497 4750 2381 4750 
Q 2619 4750 2861 4703 
Q 3103 4656 3366 4563 
z
" transform="scale(0.015625)"/>
       </defs>
       <use xlink:href="#DejaVuSans-36"/>
       <use xlink:href="#DejaVuSans-30" x="63.623047"/>
      </g>
     </g>
    </g>
    <g id="xtick_5">
     <g id="line2d_9">
      <path d="M 333.868274 307.584 
L 333.868274 41.472 
" clip-path="url(#p48caf8c3a6)" style="fill: none; stroke: #b0b0b0; stroke-width: 0.8; stroke-linecap: square"/>
     </g>
     <g id="line2d_10">
      <g>
       <use xlink:href="#mb449dcc98c" x="333.868274" y="307.584" style="stroke: #000000; stroke-width: 0.8"/>
      </g>
     </g>
     <g id="text_5">
      <!-- 80 -->
      <g transform="translate(327.505774 322.182437) scale(0.1 -0.1)">
       <defs>
        <path id="DejaVuSans-38" d="M 2034 2216 
Q 1584 2216 1326 1975 
Q 1069 1734 1069 1313 
Q 1069 891 1326 650 
Q 1584 409 2034 409 
Q 2484 409 2743 651 
Q 3003 894 3003 1313 
Q 3003 1734 2745 1975 
Q 2488 2216 2034 2216 
z
M 1403 2484 
Q 997 2584 770 2862 
Q 544 3141 544 3541 
Q 544 4100 942 4425 
Q 1341 4750 2034 4750 
Q 2731 4750 3128 4425 
Q 3525 4100 3525 3541 
Q 3525 3141 3298 2862 
Q 3072 2584 2669 2484 
Q 3125 2378 3379 2068 
Q 3634 1759 3634 1313 
Q 3634 634 3220 271 
Q 2806 -91 2034 -91 
Q 1263 -91 848 271 
Q 434 634 434 1313 
Q 434 1759 690 2068 
Q 947 2378 1403 2484 
z
M 1172 3481 
Q 1172 3119 1398 2916 
Q 1625 2713 2034 2713 
Q 2441 2713 2670 2916 
Q 2900 3119 2900 3481 
Q 2900 3844 2670 4047 
Q 2441 4250 2034 4250 
Q 1625 4250 1398 4047 
Q 1172 3844 1172 3481 
z
" transform="scale(0.015625)"/>
       </defs>
       <use xlink:href="#DejaVuSans-38"/>
       <use xlink:href="#DejaVuSans-30" x="63.623047"/>
      </g>
     </g>
    </g>
    <g id="xtick_6">
     <g id="line2d_11">
      <path d="M 398.877161 307.584 
L 398.877161 41.472 
" clip-path="url(#p48caf8c3a6)" style="fill: none; stroke: #b0b0b0; stroke-width: 0.8; stroke-linecap: square"/>
     </g>
     <g id="line2d_12">
      <g>
       <use xlink:href="#mb449dcc98c" x="398.877161" y="307.584" style="stroke: #000000; stroke-width: 0.8"/>
      </g>
     </g>
     <g id="text_6">
      <!-- 100 -->
      <g transform="translate(389.333411 322.182437) scale(0.1 -0.1)">
       <defs>
        <path id="DejaVuSans-31" d="M 794 531 
L 1825 531 
L 1825 4091 
L 703 3866 
L 703 4441 
L 1819 4666 
L 2450 4666 
L 2450 531 
L 3481 531 
L 3481 0 
L 794 0 
L 794 531 
z
" transform="scale(0.015625)"/>
       </defs>
       <use xlink:href="#DejaVuSans-31"/>
       <use xlink:href="#DejaVuSans-30" x="63.623047"/>
       <use xlink:href="#DejaVuSans-30" x="127.246094"/>
      </g>
     </g>
    </g>
    <g id="text_7">
     <!-- Frequency [Hz] -->
     <g transform="translate(198.455312 335.860562) scale(0.1 -0.1)">
      <defs>
       <path id="DejaVuSans-46" d="M 628 4666 
L 3309 4666 
L 3309 4134 
L 1259 4134 
L 1259 2759 
L 3109 2759 
L 3109 2228 
L 1259 2228 
L 1259 0 
L 628 0 
L 628 4666 
z
" transform="scale(0.015625)"/>
       <path id="DejaVuSans-72" d="M 2631 2963 
Q 2534 3019 2420 3045 
Q 2306 3072 2169 3072 
Q 1681 3072 1420 2755 
Q 1159 2438 1159 1844 
L 1159 0 
L 581 0 
L 581 3500 
L 1159 3500 
L 1159 2956 
Q 1341 3275 1631 3429 
Q 1922 3584 2338 3584 
Q 2397 3584 2469 3576 
Q 2541 3569 2628 3553 
L 2631 2963 
z
" transform="scale(0.015625)"/>
       <path id="DejaVuSans-65" d="M 3597 1894 
L 3597 1613 
L 953 1613 
Q 991 1019 1311 708 
Q 1631 397 2203 397 
Q 2534 397 2845 478 
Q 3156 559 3463 722 
L 3463 178 
Q 3153 47 2828 -22 
Q 2503 -91 2169 -91 
Q 1331 -91 842 396 
Q 353 884 353 1716 
Q 353 2575 817 3079 
Q 1281 3584 2069 3584 
Q 2775 3584 3186 3129 
Q 3597 2675 3597 1894 
z
M 3022 2063 
Q 3016 2534 2758 2815 
Q 2500 3097 2075 3097 
Q 1594 3097 1305 2825 
Q 1016 2553 972 2059 
L 3022 2063 
z
" transform="scale(0.015625)"/>
       <path id="DejaVuSans-71" d="M 947 1747 
Q 947 1113 1208 752 
Q 1469 391 1925 391 
Q 2381 391 2643 752 
Q 2906 1113 2906 1747 
Q 2906 2381 2643 2742 
Q 2381 3103 1925 3103 
Q 1469 3103 1208 2742 
Q 947 2381 947 1747 
z
M 2906 525 
Q 2725 213 2448 61 
Q 2172 -91 1784 -91 
Q 1150 -91 751 415 
Q 353 922 353 1747 
Q 353 2572 751 3078 
Q 1150 3584 1784 3584 
Q 2172 3584 2448 3432 
Q 2725 3281 2906 2969 
L 2906 3500 
L 3481 3500 
L 3481 -1331 
L 2906 -1331 
L 2906 525 
z
" transform="scale(0.015625)"/>
       <path id="DejaVuSans-75" d="M 544 1381 
L 544 3500 
L 1119 3500 
L 1119 1403 
Q 1119 906 1312 657 
Q 1506 409 1894 409 
Q 2359 409 2629 706 
Q 2900 1003 2900 1516 
L 2900 3500 
L 3475 3500 
L 3475 0 
L 2900 0 
L 2900 538 
Q 2691 219 2414 64 
Q 2138 -91 1772 -91 
Q 1169 -91 856 284 
Q 544 659 544 1381 
z
M 1991 3584 
L 1991 3584 
z
" transform="scale(0.015625)"/>
       <path id="DejaVuSans-6e" d="M 3513 2113 
L 3513 0 
L 2938 0 
L 2938 2094 
Q 2938 2591 2744 2837 
Q 2550 3084 2163 3084 
Q 1697 3084 1428 2787 
Q 1159 2491 1159 1978 
L 1159 0 
L 581 0 
L 581 3500 
L 1159 3500 
L 1159 2956 
Q 1366 3272 1645 3428 
Q 1925 3584 2291 3584 
Q 2894 3584 3203 3211 
Q 3513 2838 3513 2113 
z
" transform="scale(0.015625)"/>
       <path id="DejaVuSans-63" d="M 3122 3366 
L 3122 2828 
Q 2878 2963 2633 3030 
Q 2388 3097 2138 3097 
Q 1578 3097 1268 2742 
Q 959 2388 959 1747 
Q 959 1106 1268 751 
Q 1578 397 2138 397 
Q 2388 397 2633 464 
Q 2878 531 3122 666 
L 3122 134 
Q 2881 22 2623 -34 
Q 2366 -91 2075 -91 
Q 1284 -91 818 406 
Q 353 903 353 1747 
Q 353 2603 823 3093 
Q 1294 3584 2113 3584 
Q 2378 3584 2631 3529 
Q 2884 3475 3122 3366 
z
" transform="scale(0.015625)"/>
       <path id="DejaVuSans-79" d="M 2059 -325 
Q 1816 -950 1584 -1140 
Q 1353 -1331 966 -1331 
L 506 -1331 
L 506 -850 
L 844 -850 
Q 1081 -850 1212 -737 
Q 1344 -625 1503 -206 
L 1606 56 
L 191 3500 
L 800 3500 
L 1894 763 
L 2988 3500 
L 3597 3500 
L 2059 -325 
z
" transform="scale(0.015625)"/>
       <path id="DejaVuSans-20" transform="scale(0.015625)"/>
       <path id="DejaVuSans-5b" d="M 550 4863 
L 1875 4863 
L 1875 4416 
L 1125 4416 
L 1125 -397 
L 1875 -397 
L 1875 -844 
L 550 -844 
L 550 4863 
z
" transform="scale(0.015625)"/>
       <path id="DejaVuSans-48" d="M 628 4666 
L 1259 4666 
L 1259 2753 
L 3553 2753 
L 3553 4666 
L 4184 4666 
L 4184 0 
L 3553 0 
L 3553 2222 
L 1259 2222 
L 1259 0 
L 628 0 
L 628 4666 
z
" transform="scale(0.015625)"/>
       <path id="DejaVuSans-7a" d="M 353 3500 
L 3084 3500 
L 3084 2975 
L 922 459 
L 3084 459 
L 3084 0 
L 275 0 
L 275 525 
L 2438 3041 
L 353 3041 
L 353 3500 
z
" transform="scale(0.015625)"/>
       <path id="DejaVuSans-5d" d="M 1947 4863 
L 1947 -844 
L 622 -844 
L 622 -397 
L 1369 -397 
L 1369 4416 
L 622 4416 
L 622 4863 
L 1947 4863 
z
" transform="scale(0.015625)"/>
      </defs>
      <use xlink:href="#DejaVuSans-46"/>
      <use xlink:href="#DejaVuSans-72" x="50.269531"/>
      <use xlink:href="#DejaVuSans-65" x="89.132812"/>
      <use xlink:href="#DejaVuSans-71" x="150.65625"/>
      <use xlink:href="#DejaVuSans-75" x="214.132812"/>
      <use xlink:href="#DejaVuSans-65" x="277.511719"/>
      <use xlink:href="#DejaVuSans-6e" x="339.035156"/>
      <use xlink:href="#DejaVuSans-63" x="402.414062"/>
      <use xlink:href="#DejaVuSans-79" x="457.394531"/>
      <use xlink:href="#DejaVuSans-20" x="516.574219"/>
      <use xlink:href="#DejaVuSans-5b" x="548.361328"/>
      <use xlink:href="#DejaVuSans-48" x="587.375"/>
      <use xlink:href="#DejaVuSans-7a" x="662.570312"/>
      <use xlink:href="#DejaVuSans-5d" x="715.060547"/>
     </g>
    </g>
   </g>
   <g id="matplotlib.axis_2">
    <g id="ytick_1">
     <g id="line2d_13">
      <path d="M 57.6 295.136647 
L 414.72 295.136647 
" clip-path="url(#p48caf8c3a6)" style="fill: none; stroke: #b0b0b0; stroke-width: 0.8; stroke-linecap: square"/>
     </g>
     <g id="line2d_14">
      <defs>
       <path id="m3272944bf5" d="M 0 0 
L -3.5 0 
" style="stroke: #000000; stroke-width: 0.8"/>
      </defs>
      <g>
       <use xlink:href="#m3272944bf5" x="57.6" y="295.136647" style="stroke: #000000; stroke-width: 0.8"/>
      </g>
     </g>
     <g id="text_8">
      <!-- 0.000050 -->
      <g transform="translate(2.884375 298.935866) scale(0.1 -0.1)">
       <defs>
        <path id="DejaVuSans-2e" d="M 684 794 
L 1344 794 
L 1344 0 
L 684 0 
L 684 794 
z
" transform="scale(0.015625)"/>
        <path id="DejaVuSans-35" d="M 691 4666 
L 3169 4666 
L 3169 4134 
L 1269 4134 
L 1269 2991 
Q 1406 3038 1543 3061 
Q 1681 3084 1819 3084 
Q 2600 3084 3056 2656 
Q 3513 2228 3513 1497 
Q 3513 744 3044 326 
Q 2575 -91 1722 -91 
Q 1428 -91 1123 -41 
Q 819 9 494 109 
L 494 744 
Q 775 591 1075 516 
Q 1375 441 1709 441 
Q 2250 441 2565 725 
Q 2881 1009 2881 1497 
Q 2881 1984 2565 2268 
Q 2250 2553 1709 2553 
Q 1456 2553 1204 2497 
Q 953 2441 691 2322 
L 691 4666 
z
" transform="scale(0.015625)"/>
       </defs>
       <use xlink:href="#DejaVuSans-30"/>
       <use xlink:href="#DejaVuSans-2e" x="63.623047"/>
       <use xlink:href="#DejaVuSans-30" x="95.410156"/>
       <use xlink:href="#DejaVuSans-30" x="159.033203"/>
       <use xlink:href="#DejaVuSans-30" x="222.65625"/>
       <use xlink:href="#DejaVuSans-30" x="286.279297"/>
       <use xlink:href="#DejaVuSans-35" x="349.902344"/>
       <use xlink:href="#DejaVuSans-30" x="413.525391"/>
      </g>
     </g>
    </g>
    <g id="ytick_2">
     <g id="line2d_15">
      <path d="M 57.6 261.302434 
L 414.72 261.302434 
" clip-path="url(#p48caf8c3a6)" style="fill: none; stroke: #b0b0b0; stroke-width: 0.8; stroke-linecap: square"/>
     </g>
     <g id="line2d_16">
      <g>
       <use xlink:href="#m3272944bf5" x="57.6" y="261.302434" style="stroke: #000000; stroke-width: 0.8"/>
      </g>
     </g>
     <g id="text_9">
      <!-- 0.000075 -->
      <g transform="translate(2.884375 265.101653) scale(0.1 -0.1)">
       <defs>
        <path id="DejaVuSans-37" d="M 525 4666 
L 3525 4666 
L 3525 4397 
L 1831 0 
L 1172 0 
L 2766 4134 
L 525 4134 
L 525 4666 
z
" transform="scale(0.015625)"/>
       </defs>
       <use xlink:href="#DejaVuSans-30"/>
       <use xlink:href="#DejaVuSans-2e" x="63.623047"/>
       <use xlink:href="#DejaVuSans-30" x="95.410156"/>
       <use xlink:href="#DejaVuSans-30" x="159.033203"/>
       <use xlink:href="#DejaVuSans-30" x="222.65625"/>
       <use xlink:href="#DejaVuSans-30" x="286.279297"/>
       <use xlink:href="#DejaVuSans-37" x="349.902344"/>
       <use xlink:href="#DejaVuSans-35" x="413.525391"/>
      </g>
     </g>
    </g>
    <g id="ytick_3">
     <g id="line2d_17">
      <path d="M 57.6 227.468221 
L 414.72 227.468221 
" clip-path="url(#p48caf8c3a6)" style="fill: none; stroke: #b0b0b0; stroke-width: 0.8; stroke-linecap: square"/>
     </g>
     <g id="line2d_18">
      <g>
       <use xlink:href="#m3272944bf5" x="57.6" y="227.468221" style="stroke: #000000; stroke-width: 0.8"/>
      </g>
     </g>
     <g id="text_10">
      <!-- 0.000100 -->
      <g transform="translate(2.884375 231.26744) scale(0.1 -0.1)">
       <use xlink:href="#DejaVuSans-30"/>
       <use xlink:href="#DejaVuSans-2e" x="63.623047"/>
       <use xlink:href="#DejaVuSans-30" x="95.410156"/>
       <use xlink:href="#DejaVuSans-30" x="159.033203"/>
       <use xlink:href="#DejaVuSans-30" x="222.65625"/>
       <use xlink:href="#DejaVuSans-31" x="286.279297"/>
       <use xlink:href="#DejaVuSans-30" x="349.902344"/>
       <use xlink:href="#DejaVuSans-30" x="413.525391"/>
      </g>
     </g>
    </g>
    <g id="ytick_4">
     <g id="line2d_19">
      <path d="M 57.6 193.634008 
L 414.72 193.634008 
" clip-path="url(#p48caf8c3a6)" style="fill: none; stroke: #b0b0b0; stroke-width: 0.8; stroke-linecap: square"/>
     </g>
     <g id="line2d_20">
      <g>
       <use xlink:href="#m3272944bf5" x="57.6" y="193.634008" style="stroke: #000000; stroke-width: 0.8"/>
      </g>
     </g>
     <g id="text_11">
      <!-- 0.000125 -->
      <g transform="translate(2.884375 197.433226) scale(0.1 -0.1)">
       <use xlink:href="#DejaVuSans-30"/>
       <use xlink:href="#DejaVuSans-2e" x="63.623047"/>
       <use xlink:href="#DejaVuSans-30" x="95.410156"/>
       <use xlink:href="#DejaVuSans-30" x="159.033203"/>
       <use xlink:href="#DejaVuSans-30" x="222.65625"/>
       <use xlink:href="#DejaVuSans-31" x="286.279297"/>
       <use xlink:href="#DejaVuSans-32" x="349.902344"/>
       <use xlink:href="#DejaVuSans-35" x="413.525391"/>
      </g>
     </g>
    </g>
    <g id="ytick_5">
     <g id="line2d_21">
      <path d="M 57.6 159.799795 
L 414.72 159.799795 
" clip-path="url(#p48caf8c3a6)" style="fill: none; stroke: #b0b0b0; stroke-width: 0.8; stroke-linecap: square"/>
     </g>
     <g id="line2d_22">
      <g>
       <use xlink:href="#m3272944bf5" x="57.6" y="159.799795" style="stroke: #000000; stroke-width: 0.8"/>
      </g>
     </g>
     <g id="text_12">
      <!-- 0.000150 -->
      <g transform="translate(2.884375 163.599013) scale(0.1 -0.1)">
       <use xlink:href="#DejaVuSans-30"/>
       <use xlink:href="#DejaVuSans-2e" x="63.623047"/>
       <use xlink:href="#DejaVuSans-30" x="95.410156"/>
       <use xlink:href="#DejaVuSans-30" x="159.033203"/>
       <use xlink:href="#DejaVuSans-30" x="222.65625"/>
       <use xlink:href="#DejaVuSans-31" x="286.279297"/>
       <use xlink:href="#DejaVuSans-35" x="349.902344"/>
       <use xlink:href="#DejaVuSans-30" x="413.525391"/>
      </g>
     </g>
    </g>
    <g id="ytick_6">
     <g id="line2d_23">
      <path d="M 57.6 125.965582 
L 414.72 125.965582 
" clip-path="url(#p48caf8c3a6)" style="fill: none; stroke: #b0b0b0; stroke-width: 0.8; stroke-linecap: square"/>
     </g>
     <g id="line2d_24">
      <g>
       <use xlink:href="#m3272944bf5" x="57.6" y="125.965582" style="stroke: #000000; stroke-width: 0.8"/>
      </g>
     </g>
     <g id="text_13">
      <!-- 0.000175 -->
      <g transform="translate(2.884375 129.7648) scale(0.1 -0.1)">
       <use xlink:href="#DejaVuSans-30"/>
       <use xlink:href="#DejaVuSans-2e" x="63.623047"/>
       <use xlink:href="#DejaVuSans-30" x="95.410156"/>
       <use xlink:href="#DejaVuSans-30" x="159.033203"/>
       <use xlink:href="#DejaVuSans-30" x="222.65625"/>
       <use xlink:href="#DejaVuSans-31" x="286.279297"/>
       <use xlink:href="#DejaVuSans-37" x="349.902344"/>
       <use xlink:href="#DejaVuSans-35" x="413.525391"/>
      </g>
     </g>
    </g>
    <g id="ytick_7">
     <g id="line2d_25">
      <path d="M 57.6 92.131368 
L 414.72 92.131368 
" clip-path="url(#p48caf8c3a6)" style="fill: none; stroke: #b0b0b0; stroke-width: 0.8; stroke-linecap: square"/>
     </g>
     <g id="line2d_26">
      <g>
       <use xlink:href="#m3272944bf5" x="57.6" y="92.131368" style="stroke: #000000; stroke-width: 0.8"/>
      </g>
     </g>
     <g id="text_14">
      <!-- 0.000200 -->
      <g transform="translate(2.884375 95.930587) scale(0.1 -0.1)">
       <use xlink:href="#DejaVuSans-30"/>
       <use xlink:href="#DejaVuSans-2e" x="63.623047"/>
       <use xlink:href="#DejaVuSans-30" x="95.410156"/>
       <use xlink:href="#DejaVuSans-30" x="159.033203"/>
       <use xlink:href="#DejaVuSans-30" x="222.65625"/>
       <use xlink:href="#DejaVuSans-32" x="286.279297"/>
       <use xlink:href="#DejaVuSans-30" x="349.902344"/>
       <use xlink:href="#DejaVuSans-30" x="413.525391"/>
      </g>
     </g>
    </g>
    <g id="ytick_8">
     <g id="line2d_27">
      <path d="M 57.6 58.297155 
L 414.72 58.297155 
" clip-path="url(#p48caf8c3a6)" style="fill: none; stroke: #b0b0b0; stroke-width: 0.8; stroke-linecap: square"/>
     </g>
     <g id="line2d_28">
      <g>
       <use xlink:href="#m3272944bf5" x="57.6" y="58.297155" style="stroke: #000000; stroke-width: 0.8"/>
      </g>
     </g>
     <g id="text_15">
      <!-- 0.000225 -->
      <g transform="translate(2.884375 62.096374) scale(0.1 -0.1)">
       <use xlink:href="#DejaVuSans-30"/>
       <use xlink:href="#DejaVuSans-2e" x="63.623047"/>
       <use xlink:href="#DejaVuSans-30" x="95.410156"/>
       <use xlink:href="#DejaVuSans-30" x="159.033203"/>
       <use xlink:href="#DejaVuSans-30" x="222.65625"/>
       <use xlink:href="#DejaVuSans-32" x="286.279297"/>
       <use xlink:href="#DejaVuSans-32" x="349.902344"/>
       <use xlink:href="#DejaVuSans-35" x="413.525391"/>
      </g>
     </g>
    </g>
    <g id="text_16">
     <!-- Spectral Density ($rad/s  / \sqrt{Hz}$) -->
     <g transform="translate(-3.215625 246.178) rotate(-90) scale(0.1 -0.1)">
      <defs>
       <path id="DejaVuSans-53" d="M 3425 4513 
L 3425 3897 
Q 3066 4069 2747 4153 
Q 2428 4238 2131 4238 
Q 1616 4238 1336 4038 
Q 1056 3838 1056 3469 
Q 1056 3159 1242 3001 
Q 1428 2844 1947 2747 
L 2328 2669 
Q 3034 2534 3370 2195 
Q 3706 1856 3706 1288 
Q 3706 609 3251 259 
Q 2797 -91 1919 -91 
Q 1588 -91 1214 -16 
Q 841 59 441 206 
L 441 856 
Q 825 641 1194 531 
Q 1563 422 1919 422 
Q 2459 422 2753 634 
Q 3047 847 3047 1241 
Q 3047 1584 2836 1778 
Q 2625 1972 2144 2069 
L 1759 2144 
Q 1053 2284 737 2584 
Q 422 2884 422 3419 
Q 422 4038 858 4394 
Q 1294 4750 2059 4750 
Q 2388 4750 2728 4690 
Q 3069 4631 3425 4513 
z
" transform="scale(0.015625)"/>
       <path id="DejaVuSans-70" d="M 1159 525 
L 1159 -1331 
L 581 -1331 
L 581 3500 
L 1159 3500 
L 1159 2969 
Q 1341 3281 1617 3432 
Q 1894 3584 2278 3584 
Q 2916 3584 3314 3078 
Q 3713 2572 3713 1747 
Q 3713 922 3314 415 
Q 2916 -91 2278 -91 
Q 1894 -91 1617 61 
Q 1341 213 1159 525 
z
M 3116 1747 
Q 3116 2381 2855 2742 
Q 2594 3103 2138 3103 
Q 1681 3103 1420 2742 
Q 1159 2381 1159 1747 
Q 1159 1113 1420 752 
Q 1681 391 2138 391 
Q 2594 391 2855 752 
Q 3116 1113 3116 1747 
z
" transform="scale(0.015625)"/>
       <path id="DejaVuSans-74" d="M 1172 4494 
L 1172 3500 
L 2356 3500 
L 2356 3053 
L 1172 3053 
L 1172 1153 
Q 1172 725 1289 603 
Q 1406 481 1766 481 
L 2356 481 
L 2356 0 
L 1766 0 
Q 1100 0 847 248 
Q 594 497 594 1153 
L 594 3053 
L 172 3053 
L 172 3500 
L 594 3500 
L 594 4494 
L 1172 4494 
z
" transform="scale(0.015625)"/>
       <path id="DejaVuSans-61" d="M 2194 1759 
Q 1497 1759 1228 1600 
Q 959 1441 959 1056 
Q 959 750 1161 570 
Q 1363 391 1709 391 
Q 2188 391 2477 730 
Q 2766 1069 2766 1631 
L 2766 1759 
L 2194 1759 
z
M 3341 1997 
L 3341 0 
L 2766 0 
L 2766 531 
Q 2569 213 2275 61 
Q 1981 -91 1556 -91 
Q 1019 -91 701 211 
Q 384 513 384 1019 
Q 384 1609 779 1909 
Q 1175 2209 1959 2209 
L 2766 2209 
L 2766 2266 
Q 2766 2663 2505 2880 
Q 2244 3097 1772 3097 
Q 1472 3097 1187 3025 
Q 903 2953 641 2809 
L 641 3341 
Q 956 3463 1253 3523 
Q 1550 3584 1831 3584 
Q 2591 3584 2966 3190 
Q 3341 2797 3341 1997 
z
" transform="scale(0.015625)"/>
       <path id="DejaVuSans-6c" d="M 603 4863 
L 1178 4863 
L 1178 0 
L 603 0 
L 603 4863 
z
" transform="scale(0.015625)"/>
       <path id="DejaVuSans-44" d="M 1259 4147 
L 1259 519 
L 2022 519 
Q 2988 519 3436 956 
Q 3884 1394 3884 2338 
Q 3884 3275 3436 3711 
Q 2988 4147 2022 4147 
L 1259 4147 
z
M 628 4666 
L 1925 4666 
Q 3281 4666 3915 4102 
Q 4550 3538 4550 2338 
Q 4550 1131 3912 565 
Q 3275 0 1925 0 
L 628 0 
L 628 4666 
z
" transform="scale(0.015625)"/>
       <path id="DejaVuSans-73" d="M 2834 3397 
L 2834 2853 
Q 2591 2978 2328 3040 
Q 2066 3103 1784 3103 
Q 1356 3103 1142 2972 
Q 928 2841 928 2578 
Q 928 2378 1081 2264 
Q 1234 2150 1697 2047 
L 1894 2003 
Q 2506 1872 2764 1633 
Q 3022 1394 3022 966 
Q 3022 478 2636 193 
Q 2250 -91 1575 -91 
Q 1294 -91 989 -36 
Q 684 19 347 128 
L 347 722 
Q 666 556 975 473 
Q 1284 391 1588 391 
Q 1994 391 2212 530 
Q 2431 669 2431 922 
Q 2431 1156 2273 1281 
Q 2116 1406 1581 1522 
L 1381 1569 
Q 847 1681 609 1914 
Q 372 2147 372 2553 
Q 372 3047 722 3315 
Q 1072 3584 1716 3584 
Q 2034 3584 2315 3537 
Q 2597 3491 2834 3397 
z
" transform="scale(0.015625)"/>
       <path id="DejaVuSans-69" d="M 603 3500 
L 1178 3500 
L 1178 0 
L 603 0 
L 603 3500 
z
M 603 4863 
L 1178 4863 
L 1178 4134 
L 603 4134 
L 603 4863 
z
" transform="scale(0.015625)"/>
       <path id="DejaVuSans-28" d="M 1984 4856 
Q 1566 4138 1362 3434 
Q 1159 2731 1159 2009 
Q 1159 1288 1364 580 
Q 1569 -128 1984 -844 
L 1484 -844 
Q 1016 -109 783 600 
Q 550 1309 550 2009 
Q 550 2706 781 3412 
Q 1013 4119 1484 4856 
L 1984 4856 
z
" transform="scale(0.015625)"/>
       <path id="DejaVuSans-Oblique-72" d="M 2853 2969 
Q 2766 3016 2653 3041 
Q 2541 3066 2413 3066 
Q 1953 3066 1609 2717 
Q 1266 2369 1153 1784 
L 800 0 
L 225 0 
L 909 3500 
L 1484 3500 
L 1375 2956 
Q 1603 3259 1920 3421 
Q 2238 3584 2597 3584 
Q 2691 3584 2781 3573 
Q 2872 3563 2963 3538 
L 2853 2969 
z
" transform="scale(0.015625)"/>
       <path id="DejaVuSans-Oblique-61" d="M 3438 1997 
L 3047 0 
L 2472 0 
L 2578 531 
Q 2325 219 2001 64 
Q 1678 -91 1281 -91 
Q 834 -91 548 182 
Q 263 456 263 884 
Q 263 1497 752 1853 
Q 1241 2209 2100 2209 
L 2900 2209 
L 2931 2363 
Q 2938 2388 2941 2417 
Q 2944 2447 2944 2509 
Q 2944 2788 2717 2942 
Q 2491 3097 2081 3097 
Q 1800 3097 1504 3025 
Q 1209 2953 897 2809 
L 997 3341 
Q 1322 3463 1633 3523 
Q 1944 3584 2234 3584 
Q 2853 3584 3176 3315 
Q 3500 3047 3500 2534 
Q 3500 2431 3484 2292 
Q 3469 2153 3438 1997 
z
M 2816 1759 
L 2241 1759 
Q 1534 1759 1195 1570 
Q 856 1381 856 984 
Q 856 709 1029 553 
Q 1203 397 1509 397 
Q 1978 397 2328 733 
Q 2678 1069 2791 1631 
L 2816 1759 
z
" transform="scale(0.015625)"/>
       <path id="DejaVuSans-Oblique-64" d="M 2675 525 
Q 2444 222 2128 65 
Q 1813 -91 1428 -91 
Q 903 -91 598 267 
Q 294 625 294 1247 
Q 294 1766 478 2236 
Q 663 2706 1013 3078 
Q 1244 3325 1534 3454 
Q 1825 3584 2144 3584 
Q 2481 3584 2739 3421 
Q 2997 3259 3138 2956 
L 3513 4863 
L 4091 4863 
L 3144 0 
L 2566 0 
L 2675 525 
z
M 891 1350 
Q 891 897 1095 644 
Q 1300 391 1663 391 
Q 1931 391 2161 520 
Q 2391 650 2566 903 
Q 2750 1166 2856 1509 
Q 2963 1853 2963 2188 
Q 2963 2622 2758 2865 
Q 2553 3109 2194 3109 
Q 1922 3109 1687 2981 
Q 1453 2853 1288 2613 
Q 1106 2353 998 2009 
Q 891 1666 891 1350 
z
" transform="scale(0.015625)"/>
       <path id="DejaVuSans-2f" d="M 1625 4666 
L 2156 4666 
L 531 -594 
L 0 -594 
L 1625 4666 
z
" transform="scale(0.015625)"/>
       <path id="DejaVuSans-Oblique-73" d="M 3200 3397 
L 3091 2853 
Q 2863 2978 2609 3040 
Q 2356 3103 2088 3103 
Q 1634 3103 1373 2948 
Q 1113 2794 1113 2528 
Q 1113 2219 1719 2053 
Q 1766 2041 1788 2034 
L 1972 1978 
Q 2547 1819 2739 1644 
Q 2931 1469 2931 1166 
Q 2931 609 2489 259 
Q 2047 -91 1331 -91 
Q 1053 -91 747 -37 
Q 441 16 72 128 
L 184 722 
Q 500 559 806 475 
Q 1113 391 1394 391 
Q 1816 391 2080 572 
Q 2344 753 2344 1031 
Q 2344 1331 1650 1516 
L 1591 1531 
L 1394 1581 
Q 956 1697 753 1886 
Q 550 2075 550 2369 
Q 550 2928 970 3256 
Q 1391 3584 2113 3584 
Q 2397 3584 2667 3537 
Q 2938 3491 3200 3397 
z
" transform="scale(0.015625)"/>
       <path id="STIXSizeOneSym-Regular-221a" d="M 6970 9933 
L 3373 -1888 
L 3104 -1888 
L 1626 2918 
Q 1555 3149 1465 3251 
Q 1376 3354 1229 3354 
Q 1011 3354 794 3181 
L 717 3309 
L 1766 4115 
L 1926 4115 
L 3379 -602 
L 3405 -602 
L 6605 9933 
L 6970 9933 
z
" transform="scale(0.015625)"/>
       <path id="DejaVuSans-Oblique-48" d="M 1081 4666 
L 1716 4666 
L 1344 2753 
L 3634 2753 
L 4006 4666 
L 4641 4666 
L 3731 0 
L 3097 0 
L 3531 2222 
L 1241 2222 
L 806 0 
L 172 0 
L 1081 4666 
z
" transform="scale(0.015625)"/>
       <path id="DejaVuSans-Oblique-7a" d="M 744 3500 
L 3475 3500 
L 3372 2975 
L 738 459 
L 2913 459 
L 2822 0 
L -19 0 
L 84 525 
L 2719 3041 
L 653 3041 
L 744 3500 
z
" transform="scale(0.015625)"/>
       <path id="DejaVuSans-29" d="M 513 4856 
L 1013 4856 
Q 1481 4119 1714 3412 
Q 1947 2706 1947 2009 
Q 1947 1309 1714 600 
Q 1481 -109 1013 -844 
L 513 -844 
Q 928 -128 1133 580 
Q 1338 1288 1338 2009 
Q 1338 2731 1133 3434 
Q 928 4138 513 4856 
z
" transform="scale(0.015625)"/>
      </defs>
      <use xlink:href="#DejaVuSans-53" transform="translate(0 0.578125)"/>
      <use xlink:href="#DejaVuSans-70" transform="translate(63.476562 0.578125)"/>
      <use xlink:href="#DejaVuSans-65" transform="translate(126.953125 0.578125)"/>
      <use xlink:href="#DejaVuSans-63" transform="translate(188.476562 0.578125)"/>
      <use xlink:href="#DejaVuSans-74" transform="translate(243.457031 0.578125)"/>
      <use xlink:href="#DejaVuSans-72" transform="translate(282.666016 0.578125)"/>
      <use xlink:href="#DejaVuSans-61" transform="translate(323.779297 0.578125)"/>
      <use xlink:href="#DejaVuSans-6c" transform="translate(385.058594 0.578125)"/>
      <use xlink:href="#DejaVuSans-20" transform="translate(412.841797 0.578125)"/>
      <use xlink:href="#DejaVuSans-44" transform="translate(444.628906 0.578125)"/>
      <use xlink:href="#DejaVuSans-65" transform="translate(521.630859 0.578125)"/>
      <use xlink:href="#DejaVuSans-6e" transform="translate(583.154297 0.578125)"/>
      <use xlink:href="#DejaVuSans-73" transform="translate(646.533203 0.578125)"/>
      <use xlink:href="#DejaVuSans-69" transform="translate(698.632812 0.578125)"/>
      <use xlink:href="#DejaVuSans-74" transform="translate(726.416016 0.578125)"/>
      <use xlink:href="#DejaVuSans-79" transform="translate(765.625 0.578125)"/>
      <use xlink:href="#DejaVuSans-20" transform="translate(824.804688 0.578125)"/>
      <use xlink:href="#DejaVuSans-28" transform="translate(856.591797 0.578125)"/>
      <use xlink:href="#DejaVuSans-Oblique-72" transform="translate(895.605469 0.578125)"/>
      <use xlink:href="#DejaVuSans-Oblique-61" transform="translate(936.71875 0.578125)"/>
      <use xlink:href="#DejaVuSans-Oblique-64" transform="translate(997.998047 0.578125)"/>
      <use xlink:href="#DejaVuSans-2f" transform="translate(1061.474609 0.578125)"/>
      <use xlink:href="#DejaVuSans-Oblique-73" transform="translate(1095.166016 0.578125)"/>
      <use xlink:href="#DejaVuSans-2f" transform="translate(1147.265625 0.578125)"/>
      <use xlink:href="#STIXSizeOneSym-Regular-221a" transform="translate(1180.957031 17.09375) scale(0.563912)"/>
      <use xlink:href="#DejaVuSans-Oblique-48" transform="translate(1253.045395 0.84375)"/>
      <use xlink:href="#DejaVuSans-Oblique-7a" transform="translate(1328.240707 0.84375)"/>
      <use xlink:href="#DejaVuSans-29" transform="translate(1393.230942 0.578125)"/>
      <path d="M 1240.545395 97.5 
L 1240.545395 103.75 
L 1393.230942 103.75 
L 1393.230942 97.5 
L 1240.545395 97.5 
z
"/>
     </g>
    </g>
   </g>
   <g id="line2d_29">
    <path d="M 73.832727 216.705945 
L 74.466818 53.568 
L 75.100909 169.060923 
L 75.735 178.165848 
L 76.369091 164.228927 
L 77.003182 155.970384 
L 77.637273 173.023821 
L 78.271364 199.46186 
L 78.905455 206.319661 
L 79.539545 192.616416 
L 80.173636 183.21712 
L 80.807727 183.815639 
L 81.441818 180.11258 
L 82.075909 175.303986 
L 82.71 168.541232 
L 83.344091 178.856117 
L 83.978182 178.939546 
L 84.612273 183.684179 
L 85.246364 186.397115 
L 85.880455 183.846946 
L 86.514545 195.87641 
L 87.148636 199.1003 
L 87.782727 182.293075 
L 88.416818 191.65801 
L 89.050909 227.564195 
L 90.319091 201.766914 
L 90.953182 212.213138 
L 91.587273 206.267042 
L 92.221364 213.916341 
L 92.855455 214.156734 
L 93.489545 221.896727 
L 94.757727 209.830429 
L 96.025909 188.654128 
L 96.66 195.851894 
L 97.294091 191.650629 
L 97.928182 196.068056 
L 98.562273 184.591255 
L 99.196364 185.909339 
L 99.830455 196.820537 
L 100.464545 221.491084 
L 101.098636 189.286146 
L 101.732727 177.064934 
L 102.366818 188.363771 
L 103.000909 182.014208 
L 103.635 192.895888 
L 104.269091 198.915005 
L 104.903182 211.905748 
L 105.537273 217.964982 
L 106.171364 220.793068 
L 106.805455 201.42493 
L 107.439545 199.353856 
L 108.073636 202.741441 
L 108.707727 181.052752 
L 109.341818 191.040349 
L 109.975909 188.605317 
L 110.61 186.733311 
L 111.244091 192.734728 
L 111.878182 151.744627 
L 112.512273 129.815611 
L 113.146364 169.734873 
L 113.780455 153.520135 
L 114.414545 158.977078 
L 115.048636 128.335241 
L 115.682727 150.122885 
L 116.316818 143.074329 
L 116.950909 146.496077 
L 117.585 172.979211 
L 118.219091 166.134856 
L 118.853182 188.67125 
L 119.487273 193.918816 
L 120.121364 189.07531 
L 120.755455 194.205635 
L 121.389545 204.729815 
L 122.023636 188.048578 
L 122.657727 180.09025 
L 123.291818 198.738812 
L 123.925909 200.875997 
L 124.56 220.579647 
L 125.194091 207.94232 
L 125.828182 197.706419 
L 126.462273 196.798977 
L 127.096364 208.399029 
L 127.730455 204.093094 
L 128.364545 198.458561 
L 128.998636 224.601571 
L 129.632727 214.047126 
L 130.266818 199.127472 
L 130.900909 201.368324 
L 131.535 200.655231 
L 132.169091 202.065308 
L 132.803182 182.740954 
L 134.071364 209.990358 
L 134.705455 212.131902 
L 135.339545 206.019729 
L 135.973636 206.326469 
L 137.241818 197.572536 
L 137.875909 183.287425 
L 138.51 206.473953 
L 139.144091 197.728689 
L 139.778182 198.048408 
L 140.412273 208.180709 
L 141.046364 212.861865 
L 141.680455 200.127539 
L 142.314545 179.19783 
L 142.948636 182.044503 
L 143.582727 204.53387 
L 144.216818 198.261405 
L 144.850909 182.394763 
L 145.485 192.889829 
L 146.753182 193.731042 
L 147.387273 193.383796 
L 148.021364 192.776433 
L 148.655455 208.06883 
L 149.289545 206.742841 
L 149.923636 205.063809 
L 150.557727 183.408703 
L 151.191818 183.132597 
L 151.825909 185.786354 
L 152.46 196.72192 
L 153.094091 205.149465 
L 153.728182 225.315097 
L 154.362273 228.338779 
L 154.996364 186.711341 
L 155.630455 167.158403 
L 156.264545 190.053976 
L 156.898636 204.035556 
L 157.532727 196.410401 
L 158.166818 198.415393 
L 159.435 193.14011 
L 160.069091 205.738447 
L 160.703182 215.720268 
L 161.337273 220.718542 
L 161.971364 211.439305 
L 162.605455 207.292994 
L 163.239545 212.493499 
L 163.873636 202.363666 
L 164.507727 204.49338 
L 165.141818 210.9552 
L 165.775909 215.417189 
L 166.41 205.668575 
L 167.044091 214.445116 
L 167.678182 227.168648 
L 168.312273 215.830355 
L 168.946364 208.218967 
L 169.580455 209.536842 
L 170.848636 191.926248 
L 171.482727 196.059076 
L 172.116818 227.336002 
L 172.750909 222.939014 
L 173.385 198.036177 
L 174.019091 190.553592 
L 174.653182 197.672222 
L 175.287273 206.206367 
L 175.921364 209.350261 
L 176.555455 207.485903 
L 177.189545 206.924493 
L 177.823636 225.902917 
L 178.457727 222.434906 
L 179.091818 204.779894 
L 179.725909 204.035241 
L 180.36 211.031023 
L 180.994091 213.210852 
L 181.628182 194.951187 
L 182.262273 184.608776 
L 182.896364 198.328982 
L 183.530455 203.44932 
L 184.164545 198.266662 
L 184.798636 206.08721 
L 185.432727 218.546982 
L 186.700909 202.546843 
L 187.335 185.493506 
L 187.969091 198.509683 
L 188.603182 198.59075 
L 189.237273 205.918759 
L 189.871364 211.033608 
L 190.505455 212.962427 
L 191.139545 194.517046 
L 191.773636 183.932186 
L 192.407727 195.682407 
L 193.041818 198.325241 
L 193.675909 217.073252 
L 194.31 224.019963 
L 194.944091 205.038923 
L 195.578182 197.37814 
L 196.212273 208.200869 
L 196.846364 206.96209 
L 197.480455 191.032505 
L 198.114545 179.982395 
L 198.748636 190.686819 
L 199.382727 196.848775 
L 200.016818 217.724806 
L 201.285 205.270782 
L 201.919091 204.91717 
L 202.553182 219.844791 
L 203.187273 212.020151 
L 203.821364 212.229982 
L 204.455455 204.547491 
L 205.089545 200.843117 
L 205.723636 207.578512 
L 206.357727 189.407582 
L 206.991818 194.350881 
L 207.625909 197.742295 
L 208.26 190.021544 
L 208.894091 194.383412 
L 209.528182 183.505489 
L 210.162273 196.509006 
L 210.796364 193.651524 
L 211.430455 187.044438 
L 212.064545 202.389371 
L 212.698636 213.628053 
L 213.332727 207.136043 
L 213.966818 196.524817 
L 214.600909 194.780433 
L 215.235 195.911043 
L 215.869091 193.25858 
L 216.503182 201.930087 
L 217.137273 202.170115 
L 217.771364 192.17756 
L 218.405455 175.051753 
L 219.039545 183.894221 
L 219.673636 197.497245 
L 220.307727 199.813333 
L 220.941818 210.984546 
L 222.21 199.232595 
L 222.844091 226.749415 
L 223.478182 228.658245 
L 224.112273 205.539935 
L 224.746364 187.679911 
L 225.380455 205.782732 
L 226.014545 214.410154 
L 226.648636 216.247663 
L 227.916818 184.376735 
L 228.550909 194.735622 
L 229.185 192.953826 
L 229.819091 196.003698 
L 230.453182 206.655322 
L 231.087273 198.637052 
L 231.721364 206.925048 
L 232.355455 212.421502 
L 232.989545 201.542418 
L 234.257727 210.172974 
L 234.891818 225.412208 
L 235.525909 224.142182 
L 236.16 192.600432 
L 236.794091 207.826655 
L 237.428182 213.752923 
L 238.062273 204.029493 
L 238.696364 204.170933 
L 239.330455 193.228141 
L 239.964545 192.06903 
L 240.598636 207.158928 
L 241.232727 217.901351 
L 241.866818 233.139505 
L 242.500909 219.161444 
L 243.135 215.215261 
L 243.769091 217.6766 
L 245.037273 219.000526 
L 245.671364 233.904218 
L 246.305455 227.478525 
L 246.939545 231.63675 
L 248.207727 200.541176 
L 249.475909 224.696679 
L 250.11 212.693592 
L 250.744091 212.31581 
L 251.378182 213.968611 
L 252.012273 208.597297 
L 252.646364 221.190966 
L 253.280455 209.740445 
L 253.914545 211.75092 
L 254.548636 231.270368 
L 255.182727 223.704899 
L 255.816818 206.430137 
L 256.450909 212.688116 
L 257.085 232.232376 
L 257.719091 205.994058 
L 258.353182 227.061141 
L 258.987273 228.427963 
L 259.621364 221.402886 
L 260.255455 229.098872 
L 260.889545 232.727203 
L 261.523636 219.92307 
L 262.157727 211.436976 
L 262.791818 209.483497 
L 263.425909 220.123739 
L 264.06 220.297291 
L 264.694091 222.169495 
L 265.328182 226.480365 
L 265.962273 221.870532 
L 266.596364 221.635371 
L 267.230455 218.801761 
L 267.864545 229.44084 
L 268.498636 222.880527 
L 269.132727 206.530681 
L 269.766818 213.597071 
L 270.400909 137.416551 
L 271.035 119.419649 
L 271.669091 224.44514 
L 272.303182 233.366471 
L 272.937273 228.866611 
L 273.571364 217.24597 
L 274.205455 215.654247 
L 274.839545 211.460574 
L 275.473636 209.96696 
L 276.107727 220.714913 
L 276.741818 225.162323 
L 277.375909 226.761456 
L 278.01 246.368613 
L 278.644091 247.007928 
L 279.278182 238.150248 
L 279.912273 231.250801 
L 280.546364 238.362627 
L 281.180455 233.815209 
L 281.814545 214.187939 
L 283.082727 224.25533 
L 283.716818 226.206783 
L 284.350909 227.285771 
L 284.985 240.792952 
L 285.619091 229.030786 
L 286.253182 243.771148 
L 286.887273 239.668052 
L 287.521364 240.048277 
L 288.155455 242.426025 
L 288.789545 248.241504 
L 289.423636 233.603525 
L 290.057727 214.34061 
L 290.691818 239.710562 
L 291.325909 229.934998 
L 291.96 215.773093 
L 292.594091 236.31051 
L 293.228182 238.016461 
L 294.496364 248.384681 
L 295.764545 227.63841 
L 297.032727 240.118927 
L 297.666818 230.540573 
L 298.300909 216.473667 
L 298.935 223.122264 
L 299.569091 227.745998 
L 300.203182 227.070007 
L 300.837273 227.111536 
L 301.471364 230.983962 
L 302.105455 230.082152 
L 302.739545 241.188298 
L 303.373636 238.97638 
L 305.275909 222.172968 
L 305.91 222.816384 
L 306.544091 236.047087 
L 307.178182 232.729226 
L 307.812273 238.173557 
L 308.446364 228.243927 
L 309.080455 242.235867 
L 309.714545 252.418549 
L 310.348636 258.039021 
L 310.982727 248.169641 
L 311.616818 240.661102 
L 312.885 230.17104 
L 313.519091 252.294689 
L 314.153182 240.484155 
L 314.787273 238.43755 
L 315.421364 252.137816 
L 316.055455 254.133332 
L 316.689545 247.38499 
L 317.323636 244.167379 
L 317.957727 250.310495 
L 318.591818 254.074574 
L 319.225909 243.99909 
L 319.86 255.804233 
L 320.494091 263.716779 
L 321.128182 251.494382 
L 321.762273 247.174447 
L 322.396364 241.130801 
L 323.030455 237.366226 
L 323.664545 240.685895 
L 324.298636 248.305515 
L 324.932727 245.379448 
L 325.566818 239.257951 
L 326.200909 237.700937 
L 326.835 238.410325 
L 327.469091 256.922898 
L 328.103182 258.279704 
L 328.737273 263.041126 
L 329.371364 253.030116 
L 330.005455 264.398602 
L 330.639545 258.231783 
L 331.273636 261.075941 
L 331.907727 248.101523 
L 332.541818 245.78906 
L 333.81 280.886632 
L 335.078182 253.505403 
L 335.712273 249.624707 
L 336.346364 251.892048 
L 336.980455 268.116451 
L 337.614545 259.663955 
L 338.248636 265.474494 
L 338.882727 262.339074 
L 339.516818 260.101577 
L 340.785 259.787977 
L 341.419091 258.224183 
L 342.053182 253.823814 
L 342.687273 255.854123 
L 343.321364 248.763506 
L 343.955455 248.814178 
L 344.589545 259.090291 
L 345.223636 255.452702 
L 345.857727 265.041831 
L 346.491818 270.228967 
L 347.125909 267.340474 
L 347.76 260.562286 
L 348.394091 265.755353 
L 349.028182 264.484404 
L 349.662273 262.10944 
L 350.296364 258.477687 
L 350.930455 257.11841 
L 351.564545 264.737632 
L 352.198636 259.966349 
L 352.832727 265.168685 
L 353.466818 264.081432 
L 354.100909 264.689115 
L 354.735 266.028327 
L 355.369091 266.596527 
L 356.003182 268.920138 
L 356.637273 272.371437 
L 357.271364 270.178501 
L 357.905455 265.110591 
L 358.539545 267.95769 
L 359.173636 267.812454 
L 359.807727 255.708094 
L 360.441818 267.799879 
L 361.075909 275.020652 
L 361.71 276.586766 
L 362.344091 286.393557 
L 362.978182 269.612855 
L 363.612273 272.187667 
L 364.246364 266.569769 
L 364.880455 264.422105 
L 365.514545 261.493076 
L 366.148636 267.160654 
L 366.782727 268.316401 
L 367.416818 262.405163 
L 368.050909 251.578749 
L 369.319091 263.23604 
L 369.953182 273.901701 
L 370.587273 269.138774 
L 371.221364 267.699316 
L 371.855455 262.222367 
L 372.489545 266.908581 
L 373.123636 272.443686 
L 373.757727 271.897891 
L 374.391818 265.114876 
L 375.025909 261.61818 
L 376.294091 286.472649 
L 377.562273 261.563075 
L 378.196364 263.489654 
L 378.830455 275.361481 
L 379.464545 282.249955 
L 380.098636 269.984142 
L 380.732727 264.861445 
L 381.366818 275.615913 
L 382.000909 269.417845 
L 382.635 254.605469 
L 383.269091 265.509393 
L 383.903182 265.263894 
L 384.537273 263.241631 
L 385.171364 286.346504 
L 385.805455 281.05009 
L 386.439545 271.690891 
L 387.073636 268.023497 
L 387.707727 270.137169 
L 388.975909 281.404579 
L 389.61 278.356229 
L 390.244091 286.726731 
L 390.878182 285.916063 
L 392.146364 274.900749 
L 392.780455 270.60924 
L 393.414545 277.245772 
L 394.048636 278.951437 
L 394.682727 263.50101 
L 395.316818 268.244309 
L 395.950909 265.547429 
L 396.585 262.002156 
L 397.219091 271.592979 
L 397.853182 268.149203 
L 398.487273 295.265644 
L 398.487273 295.265644 
" clip-path="url(#p48caf8c3a6)" style="fill: none; stroke: #1f77b4; stroke-width: 1.5; stroke-linecap: square"/>
   </g>
   <g id="line2d_30">
    <path d="M 73.832727 257.901165 
L 74.466818 126.802513 
L 75.100909 176.787841 
L 75.735 186.618061 
L 76.369091 181.334477 
L 77.003182 186.367702 
L 77.637273 184.046506 
L 78.271364 204.080728 
L 78.905455 197.50118 
L 79.539545 182.197143 
L 80.173636 174.810081 
L 80.807727 189.870582 
L 81.441818 168.143835 
L 82.075909 166.639805 
L 82.71 185.030996 
L 83.344091 199.243582 
L 83.978182 182.995965 
L 84.612273 203.675022 
L 85.246364 210.695481 
L 85.880455 187.165935 
L 86.514545 200.563464 
L 87.148636 188.278436 
L 87.782727 186.447088 
L 88.416818 189.08158 
L 89.050909 190.020477 
L 89.685 183.302644 
L 90.319091 197.612027 
L 90.953182 182.551635 
L 91.587273 185.045976 
L 92.221364 189.870751 
L 92.855455 199.480746 
L 93.489545 204.762539 
L 94.123636 217.640398 
L 94.757727 207.448639 
L 95.391818 194.690156 
L 96.025909 206.896813 
L 96.66 194.892858 
L 97.294091 193.085041 
L 97.928182 212.656057 
L 98.562273 197.066812 
L 99.196364 190.271944 
L 99.830455 200.735437 
L 100.464545 207.47943 
L 101.098636 200.501284 
L 101.732727 202.660188 
L 102.366818 195.287292 
L 103.000909 194.005118 
L 103.635 189.780554 
L 104.269091 202.120058 
L 104.903182 199.829885 
L 105.537273 196.962461 
L 106.171364 213.738592 
L 106.805455 205.272006 
L 107.439545 198.767095 
L 108.073636 219.526147 
L 108.707727 205.741805 
L 109.341818 213.693129 
L 109.975909 208.290491 
L 110.61 197.488038 
L 111.244091 192.155334 
L 111.878182 203.151215 
L 112.512273 192.053356 
L 113.146364 209.790505 
L 113.780455 207.728085 
L 115.048636 172.204597 
L 115.682727 202.671988 
L 116.316818 209.611298 
L 116.950909 162.065081 
L 117.585 185.39084 
L 118.219091 218.629989 
L 118.853182 193.138694 
L 119.487273 201.190749 
L 120.121364 220.198926 
L 120.755455 223.192333 
L 121.389545 201.379638 
L 122.023636 212.196463 
L 122.657727 211.128782 
L 123.291818 223.608768 
L 123.925909 210.122186 
L 124.56 184.685369 
L 125.194091 191.937738 
L 125.828182 197.911827 
L 126.462273 200.68168 
L 127.096364 210.072308 
L 127.730455 188.925812 
L 128.364545 196.410976 
L 128.998636 194.813684 
L 129.632727 197.803619 
L 130.266818 194.167429 
L 130.900909 194.526379 
L 131.535 191.109099 
L 132.169091 202.546753 
L 132.803182 208.325472 
L 133.437273 203.733077 
L 134.071364 208.422423 
L 134.705455 199.434136 
L 135.973636 207.565767 
L 136.607727 205.782455 
L 137.241818 206.944789 
L 137.875909 209.351688 
L 138.51 203.974332 
L 139.144091 180.905997 
L 139.778182 205.730358 
L 140.412273 199.198559 
L 141.046364 218.120223 
L 141.680455 226.521145 
L 142.314545 227.588221 
L 142.948636 196.569892 
L 143.582727 184.329265 
L 144.216818 193.620815 
L 144.850909 199.806679 
L 145.485 195.454067 
L 146.119091 219.450049 
L 147.387273 187.918564 
L 148.021364 209.361203 
L 148.655455 225.302302 
L 149.289545 199.224447 
L 149.923636 196.908255 
L 150.557727 181.125061 
L 151.191818 211.579562 
L 151.825909 222.949618 
L 152.46 209.231115 
L 153.094091 210.274525 
L 153.728182 208.614056 
L 154.362273 201.214542 
L 154.996364 198.935892 
L 155.630455 188.27278 
L 156.264545 184.975806 
L 156.898636 189.205128 
L 157.532727 190.344462 
L 158.166818 189.036893 
L 158.800909 185.79797 
L 159.435 195.742986 
L 160.069091 217.173272 
L 161.337273 190.446324 
L 161.971364 198.880293 
L 162.605455 181.145136 
L 163.239545 183.255733 
L 163.873636 201.947021 
L 164.507727 207.115209 
L 165.141818 199.484422 
L 165.775909 197.509463 
L 166.41 182.539151 
L 167.044091 203.883799 
L 167.678182 194.12505 
L 168.312273 195.003315 
L 168.946364 192.144341 
L 169.580455 192.945021 
L 170.214545 209.803777 
L 171.482727 168.227919 
L 172.116818 187.494867 
L 172.750909 210.272887 
L 173.385 182.909089 
L 174.019091 189.769583 
L 174.653182 206.655175 
L 175.287273 191.869943 
L 175.921364 201.945867 
L 176.555455 205.330271 
L 177.189545 179.070581 
L 177.823636 189.23455 
L 178.457727 197.148219 
L 179.091818 182.538309 
L 179.725909 174.521587 
L 180.994091 208.268044 
L 181.628182 215.903544 
L 182.262273 202.378203 
L 182.896364 204.993796 
L 183.530455 209.087508 
L 184.798636 158.908858 
L 186.066818 212.514322 
L 186.700909 209.991283 
L 187.335 191.750788 
L 187.969091 180.425887 
L 188.603182 187.503156 
L 189.237273 179.108021 
L 189.871364 204.667323 
L 190.505455 202.797602 
L 191.139545 206.181517 
L 191.773636 212.798067 
L 192.407727 189.944823 
L 193.041818 175.397574 
L 193.675909 198.468666 
L 194.31 209.632995 
L 194.944091 199.7543 
L 195.578182 173.559921 
L 196.212273 159.250699 
L 196.846364 183.868433 
L 197.480455 191.048519 
L 198.114545 187.074328 
L 198.748636 203.465495 
L 200.016818 187.925208 
L 200.650909 201.446258 
L 201.285 197.732844 
L 201.919091 198.729773 
L 202.553182 202.501939 
L 203.187273 194.731677 
L 203.821364 203.303017 
L 204.455455 209.273774 
L 205.089545 206.861009 
L 205.723636 206.063495 
L 206.357727 198.78041 
L 206.991818 205.893852 
L 207.625909 198.16706 
L 208.26 192.699796 
L 208.894091 194.210026 
L 209.528182 198.001413 
L 210.162273 198.706277 
L 210.796364 180.456786 
L 211.430455 182.296768 
L 212.064545 202.809527 
L 212.698636 199.449323 
L 213.332727 202.523333 
L 213.966818 191.908932 
L 214.600909 196.505189 
L 215.235 205.734721 
L 215.869091 209.200302 
L 216.503182 204.838573 
L 217.137273 190.281425 
L 217.771364 194.931889 
L 218.405455 215.654686 
L 219.039545 200.943284 
L 219.673636 197.660408 
L 220.307727 206.153601 
L 220.941818 218.799439 
L 221.575909 209.456062 
L 222.21 197.24655 
L 222.844091 217.07827 
L 223.478182 214.859254 
L 224.112273 204.332119 
L 224.746364 200.84647 
L 225.380455 192.825305 
L 226.014545 186.66139 
L 226.648636 173.010599 
L 227.282727 173.850253 
L 227.916818 191.138874 
L 228.550909 216.635004 
L 229.185 209.652408 
L 230.453182 200.350799 
L 231.087273 205.898831 
L 231.721364 185.834287 
L 232.355455 172.176177 
L 232.989545 203.883255 
L 233.623636 213.852174 
L 234.257727 191.192964 
L 234.891818 182.949257 
L 235.525909 200.532787 
L 236.16 199.235099 
L 236.794091 181.800769 
L 237.428182 203.188074 
L 238.062273 203.441359 
L 238.696364 204.908506 
L 239.330455 218.226705 
L 239.964545 206.87092 
L 240.598636 200.440146 
L 241.232727 222.854645 
L 241.866818 200.048091 
L 242.500909 185.303768 
L 243.135 210.095114 
L 243.769091 209.948253 
L 244.403182 193.531995 
L 245.037273 203.65339 
L 245.671364 224.527664 
L 246.939545 217.92014 
L 247.573636 216.385851 
L 248.207727 216.178235 
L 248.841818 216.355078 
L 249.475909 194.969559 
L 250.11 196.259646 
L 250.744091 199.987534 
L 251.378182 211.881274 
L 252.012273 218.082292 
L 252.646364 217.956472 
L 253.280455 216.541166 
L 253.914545 202.353753 
L 254.548636 201.011307 
L 255.182727 203.332126 
L 255.816818 202.424278 
L 256.450909 197.168958 
L 257.085 200.548468 
L 257.719091 216.92043 
L 258.353182 228.078293 
L 258.987273 214.415157 
L 259.621364 205.987939 
L 260.255455 199.92481 
L 260.889545 209.364191 
L 261.523636 206.949302 
L 262.157727 209.660205 
L 262.791818 181.518624 
L 263.425909 184.838738 
L 264.06 214.499604 
L 264.694091 211.315487 
L 265.328182 204.33065 
L 265.962273 213.150845 
L 266.596364 216.71772 
L 267.230455 208.963642 
L 267.864545 207.830749 
L 268.498636 210.056345 
L 269.132727 205.857479 
L 269.766818 217.382613 
L 270.400909 171.223935 
L 271.035 166.898407 
L 271.669091 197.87603 
L 272.937273 220.837107 
L 273.571364 218.953741 
L 274.205455 234.314094 
L 275.473636 218.793318 
L 276.107727 218.345671 
L 276.741818 210.039003 
L 277.375909 220.591656 
L 278.01 221.095118 
L 278.644091 221.445348 
L 279.278182 216.006182 
L 280.546364 231.51128 
L 281.180455 213.617254 
L 281.814545 219.877364 
L 282.448636 210.285362 
L 283.082727 211.903515 
L 283.716818 238.119324 
L 284.985 207.078294 
L 285.619091 237.697541 
L 286.253182 238.027938 
L 286.887273 222.207743 
L 288.155455 214.375007 
L 288.789545 213.792754 
L 289.423636 220.31771 
L 290.057727 235.533033 
L 290.691818 235.073765 
L 291.325909 239.478746 
L 291.96 235.518501 
L 292.594091 242.198258 
L 293.228182 231.038696 
L 293.862273 229.592087 
L 294.496364 242.914364 
L 295.130455 236.116475 
L 295.764545 231.426569 
L 296.398636 233.690924 
L 297.032727 231.108389 
L 297.666818 227.556124 
L 298.300909 221.498285 
L 298.935 234.864285 
L 299.569091 253.325766 
L 300.203182 224.827817 
L 300.837273 222.070686 
L 301.471364 235.063464 
L 302.739545 242.492548 
L 303.373636 241.641424 
L 304.007727 236.141441 
L 304.641818 252.422122 
L 305.275909 241.829772 
L 305.91 224.794423 
L 306.544091 228.536194 
L 307.178182 237.522902 
L 307.812273 225.05614 
L 308.446364 227.715455 
L 309.080455 237.522904 
L 309.714545 233.487853 
L 310.348636 241.543317 
L 310.982727 221.773964 
L 311.616818 248.326813 
L 312.250909 253.491075 
L 312.885 243.413565 
L 313.519091 227.871121 
L 314.153182 228.212339 
L 314.787273 236.779892 
L 315.421364 247.064227 
L 316.055455 245.579395 
L 316.689545 247.756646 
L 317.323636 244.258085 
L 317.957727 251.68394 
L 318.591818 250.087595 
L 319.225909 249.13167 
L 319.86 240.837974 
L 320.494091 239.424266 
L 321.128182 247.704962 
L 321.762273 250.722805 
L 322.396364 231.810144 
L 323.030455 245.937287 
L 323.664545 248.536014 
L 324.298636 249.415287 
L 324.932727 239.681954 
L 325.566818 239.56069 
L 326.200909 246.02237 
L 326.835 244.668639 
L 327.469091 238.289483 
L 328.103182 244.884373 
L 328.737273 236.171352 
L 329.371364 233.417146 
L 330.005455 249.648952 
L 330.639545 248.719597 
L 331.273636 240.991431 
L 331.907727 248.777736 
L 332.541818 258.273999 
L 333.175909 257.85741 
L 333.81 256.523304 
L 334.444091 246.261525 
L 335.078182 251.351425 
L 335.712273 251.174317 
L 336.346364 261.922088 
L 336.980455 261.313399 
L 337.614545 252.528123 
L 338.248636 261.26891 
L 338.882727 259.654708 
L 339.516818 249.961075 
L 340.150909 253.821496 
L 340.785 255.806369 
L 341.419091 248.060657 
L 342.053182 254.469024 
L 342.687273 255.591603 
L 343.321364 248.081823 
L 343.955455 261.546732 
L 344.589545 261.134742 
L 345.223636 256.906638 
L 345.857727 265.522691 
L 346.491818 257.120623 
L 347.76 268.034906 
L 348.394091 260.092669 
L 349.028182 254.275669 
L 349.662273 250.226148 
L 350.296364 252.955575 
L 350.930455 268.588721 
L 351.564545 271.13475 
L 352.198636 263.366363 
L 352.832727 265.319196 
L 353.466818 266.752321 
L 354.100909 265.438601 
L 354.735 263.516173 
L 355.369091 262.55189 
L 356.003182 246.504753 
L 356.637273 257.128555 
L 357.271364 274.882411 
L 357.905455 261.637039 
L 358.539545 245.663706 
L 359.173636 252.391535 
L 359.807727 245.780319 
L 360.441818 256.316316 
L 361.075909 250.298763 
L 361.71 251.680393 
L 362.344091 266.372874 
L 362.978182 277.033413 
L 363.612273 268.619076 
L 364.246364 265.561986 
L 364.880455 254.602819 
L 365.514545 258.088496 
L 366.148636 269.402867 
L 366.782727 270.086187 
L 367.416818 262.436113 
L 368.050909 266.02835 
L 368.685 264.352921 
L 369.953182 275.114737 
L 370.587273 260.095319 
L 371.221364 253.65503 
L 371.855455 255.259067 
L 372.489545 248.772766 
L 373.123636 257.463195 
L 373.757727 276.73996 
L 374.391818 275.409818 
L 375.025909 277.946704 
L 375.66 261.594359 
L 376.294091 264.618222 
L 376.928182 267.041213 
L 377.562273 274.8332 
L 378.196364 284.08016 
L 378.830455 283.633531 
L 379.464545 269.630101 
L 380.098636 268.085521 
L 380.732727 284.582088 
L 381.366818 269.380338 
L 382.000909 257.06211 
L 382.635 267.594777 
L 383.269091 269.634081 
L 383.903182 265.104943 
L 384.537273 273.372296 
L 385.171364 277.24216 
L 385.805455 279.054061 
L 386.439545 274.971155 
L 387.073636 273.872313 
L 387.707727 272.163402 
L 388.341818 270.134323 
L 388.975909 276.694133 
L 389.61 262.271732 
L 390.244091 252.025385 
L 390.878182 256.229598 
L 391.512273 270.151355 
L 392.146364 273.811156 
L 392.780455 268.409101 
L 393.414545 265.854401 
L 394.048636 270.207108 
L 394.682727 278.030345 
L 395.316818 261.779812 
L 395.950909 257.752534 
L 396.585 273.056981 
L 397.219091 285.241265 
L 397.853182 273.978142 
L 398.487273 294.314667 
L 398.487273 294.314667 
" clip-path="url(#p48caf8c3a6)" style="fill: none; stroke: #ff7f0e; stroke-width: 1.5; stroke-linecap: square"/>
   </g>
   <g id="line2d_31">
    <path d="M 73.832727 292.947924 
L 74.466818 167.860958 
L 75.100909 189.618873 
L 75.735 201.182155 
L 76.369091 189.106597 
L 77.003182 190.876331 
L 77.637273 201.82846 
L 78.271364 181.194218 
L 78.905455 185.176487 
L 79.539545 207.904878 
L 80.173636 210.878515 
L 80.807727 177.591867 
L 81.441818 185.72709 
L 82.075909 205.260905 
L 82.71 197.477075 
L 83.344091 195.216656 
L 83.978182 190.665817 
L 84.612273 197.269522 
L 85.880455 224.301406 
L 87.148636 214.278493 
L 87.782727 223.764741 
L 88.416818 219.643574 
L 89.050909 235.212067 
L 89.685 201.864277 
L 90.319091 220.176516 
L 90.953182 184.841894 
L 91.587273 179.946752 
L 92.221364 197.195154 
L 92.855455 200.301839 
L 93.489545 209.803279 
L 94.123636 187.06004 
L 94.757727 226.614914 
L 95.391818 224.120844 
L 96.025909 213.427709 
L 96.66 199.011982 
L 97.294091 213.428067 
L 97.928182 198.611503 
L 98.562273 180.962315 
L 99.830455 192.290682 
L 100.464545 204.906286 
L 101.098636 213.79805 
L 102.366818 222.878872 
L 103.000909 201.068749 
L 103.635 194.240215 
L 104.269091 194.692166 
L 105.537273 215.449936 
L 106.805455 222.168946 
L 107.439545 206.04753 
L 108.073636 205.320745 
L 108.707727 211.532927 
L 109.341818 219.609543 
L 109.975909 205.484553 
L 110.61 199.393162 
L 111.244091 200.811712 
L 111.878182 198.189387 
L 112.512273 189.085733 
L 113.146364 193.547937 
L 113.780455 200.984669 
L 114.414545 212.311753 
L 115.048636 201.17348 
L 115.682727 200.4994 
L 116.316818 186.835255 
L 116.950909 208.19014 
L 117.585 209.500707 
L 118.219091 206.503943 
L 118.853182 205.388004 
L 119.487273 215.551189 
L 120.121364 206.70453 
L 120.755455 215.357166 
L 121.389545 230.687459 
L 122.023636 230.798767 
L 122.657727 218.359621 
L 123.291818 200.442951 
L 123.925909 203.392833 
L 124.56 191.703419 
L 125.194091 194.706023 
L 125.828182 209.345894 
L 126.462273 210.497829 
L 127.096364 200.209891 
L 127.730455 188.072779 
L 128.364545 213.719659 
L 128.998636 209.189591 
L 130.266818 181.028069 
L 130.900909 187.94035 
L 131.535 202.758952 
L 132.803182 216.967647 
L 133.437273 196.302983 
L 134.071364 184.756501 
L 134.705455 186.343867 
L 135.339545 172.705687 
L 135.973636 189.830727 
L 136.607727 200.166491 
L 137.241818 187.656924 
L 137.875909 187.048787 
L 138.51 192.212345 
L 139.144091 184.988727 
L 139.778182 168.539127 
L 141.046364 144.822922 
L 142.314545 198.462374 
L 142.948636 205.954423 
L 144.216818 149.750012 
L 144.850909 179.068516 
L 145.485 181.188998 
L 146.119091 177.132273 
L 146.753182 164.23686 
L 147.387273 170.785635 
L 148.655455 189.192176 
L 149.289545 168.209979 
L 149.923636 172.694267 
L 150.557727 202.947695 
L 151.191818 218.132465 
L 151.825909 222.115807 
L 152.46 208.5789 
L 153.094091 217.514377 
L 153.728182 204.795035 
L 154.362273 213.313578 
L 154.996364 211.894169 
L 155.630455 216.847107 
L 156.264545 208.719401 
L 157.532727 212.868716 
L 158.166818 197.833608 
L 158.800909 192.030116 
L 159.435 190.988486 
L 160.069091 184.342566 
L 160.703182 209.138533 
L 161.337273 221.18397 
L 161.971364 212.599791 
L 162.605455 210.941192 
L 163.239545 216.613958 
L 163.873636 211.438193 
L 164.507727 214.789984 
L 165.141818 201.618894 
L 165.775909 203.299522 
L 166.41 213.52474 
L 167.044091 211.054785 
L 167.678182 191.251092 
L 168.312273 191.867225 
L 168.946364 199.030342 
L 169.580455 207.48961 
L 170.214545 213.585201 
L 171.482727 173.88905 
L 172.116818 197.950021 
L 172.750909 195.631662 
L 173.385 200.016963 
L 174.019091 211.112392 
L 174.653182 210.514697 
L 175.287273 201.257136 
L 175.921364 206.508276 
L 176.555455 209.54839 
L 177.189545 200.501926 
L 177.823636 208.138624 
L 178.457727 206.512802 
L 179.091818 197.325151 
L 179.725909 153.75031 
L 180.36 171.0608 
L 180.994091 231.288304 
L 182.262273 194.342254 
L 182.896364 192.385798 
L 183.530455 186.899348 
L 184.164545 200.272707 
L 184.798636 196.729285 
L 185.432727 190.733822 
L 186.066818 196.340851 
L 186.700909 196.462489 
L 187.335 207.311952 
L 187.969091 189.902879 
L 188.603182 184.999803 
L 189.237273 175.998888 
L 189.871364 196.009339 
L 190.505455 208.163221 
L 191.139545 211.999098 
L 191.773636 208.506852 
L 192.407727 204.261137 
L 193.041818 198.453629 
L 193.675909 217.454771 
L 194.31 222.030403 
L 194.944091 196.561624 
L 195.578182 215.487345 
L 196.212273 212.547721 
L 196.846364 190.240845 
L 197.480455 177.637893 
L 198.114545 193.391988 
L 198.748636 194.756174 
L 199.382727 207.845346 
L 200.016818 207.336184 
L 200.650909 203.251945 
L 201.285 219.82745 
L 201.919091 226.546357 
L 203.187273 183.243899 
L 203.821364 188.881682 
L 204.455455 197.792529 
L 205.089545 211.214127 
L 205.723636 201.672453 
L 206.357727 189.033465 
L 206.991818 219.398151 
L 207.625909 223.022418 
L 208.26 238.457547 
L 208.894091 233.987552 
L 209.528182 235.066293 
L 210.162273 213.013505 
L 210.796364 199.480685 
L 211.430455 209.854469 
L 212.064545 206.666724 
L 212.698636 192.35386 
L 213.332727 192.770942 
L 213.966818 209.717875 
L 214.600909 215.923282 
L 215.235 199.008798 
L 215.869091 225.912631 
L 216.503182 203.003806 
L 217.137273 209.219575 
L 217.771364 212.318685 
L 218.405455 224.341893 
L 219.039545 233.075163 
L 219.673636 230.328848 
L 220.307727 211.924968 
L 220.941818 182.752363 
L 221.575909 191.672883 
L 222.21 209.41736 
L 222.844091 213.708351 
L 223.478182 207.143001 
L 224.112273 209.425807 
L 224.746364 213.622462 
L 225.380455 205.307385 
L 226.014545 211.756798 
L 226.648636 213.565102 
L 227.282727 221.280091 
L 227.916818 225.456366 
L 228.550909 214.49624 
L 229.185 220.356323 
L 229.819091 205.441327 
L 230.453182 205.201278 
L 231.087273 209.332701 
L 231.721364 206.762014 
L 232.355455 224.874001 
L 232.989545 225.744104 
L 233.623636 217.872495 
L 234.257727 198.792077 
L 234.891818 204.573591 
L 235.525909 195.135598 
L 236.16 201.86962 
L 236.794091 203.50134 
L 237.428182 203.654325 
L 238.696364 221.620598 
L 239.330455 204.091732 
L 239.964545 198.512367 
L 240.598636 210.828751 
L 241.232727 213.700043 
L 241.866818 222.31019 
L 242.500909 221.98573 
L 243.135 202.895413 
L 243.769091 193.632918 
L 244.403182 186.656407 
L 245.037273 209.281829 
L 245.671364 215.741959 
L 246.305455 202.770406 
L 246.939545 212.69478 
L 247.573636 211.878491 
L 248.207727 215.198081 
L 248.841818 209.028083 
L 249.475909 216.084086 
L 250.11 217.714787 
L 250.744091 209.946974 
L 251.378182 214.311739 
L 252.012273 204.664912 
L 252.646364 239.074854 
L 253.280455 227.167296 
L 253.914545 203.519479 
L 254.548636 209.442589 
L 255.182727 225.045723 
L 255.816818 223.162597 
L 256.450909 200.963271 
L 257.085 204.172681 
L 257.719091 198.277889 
L 258.353182 199.17525 
L 258.987273 220.791772 
L 259.621364 223.319675 
L 260.255455 215.293838 
L 260.889545 199.371709 
L 261.523636 214.101279 
L 262.157727 216.928639 
L 262.791818 225.595542 
L 263.425909 206.813245 
L 264.06 230.596579 
L 264.694091 216.995562 
L 265.328182 199.934406 
L 265.962273 205.609519 
L 266.596364 212.701306 
L 267.230455 201.374814 
L 267.864545 218.702574 
L 268.498636 221.094216 
L 269.132727 216.462899 
L 269.766818 210.892444 
L 271.035 234.023254 
L 271.669091 234.414774 
L 272.937273 214.713914 
L 273.571364 211.965198 
L 274.205455 228.694546 
L 274.839545 231.185304 
L 275.473636 217.608583 
L 276.107727 222.344393 
L 276.741818 223.422946 
L 277.375909 222.11606 
L 278.01 214.478623 
L 278.644091 232.730902 
L 279.278182 233.308944 
L 280.546364 237.183294 
L 281.180455 235.458024 
L 281.814545 244.918441 
L 282.448636 240.945188 
L 283.082727 243.766209 
L 283.716818 249.775292 
L 284.350909 246.049021 
L 284.985 229.54447 
L 285.619091 221.743788 
L 286.253182 218.588226 
L 286.887273 226.566369 
L 287.521364 252.519319 
L 288.155455 237.041351 
L 288.789545 231.320299 
L 289.423636 223.458044 
L 290.057727 217.221512 
L 291.325909 233.443357 
L 291.96 230.429709 
L 292.594091 245.124453 
L 293.228182 241.18636 
L 293.862273 229.736495 
L 294.496364 245.43353 
L 295.130455 235.292846 
L 295.764545 228.441057 
L 296.398636 242.205046 
L 297.032727 244.828643 
L 297.666818 250.585485 
L 298.300909 245.502303 
L 298.935 236.732839 
L 299.569091 249.601777 
L 300.203182 246.481514 
L 301.471364 234.279901 
L 302.105455 223.731992 
L 302.739545 218.78813 
L 303.373636 208.457272 
L 305.275909 244.19196 
L 305.91 237.45964 
L 306.544091 241.20549 
L 307.178182 246.754896 
L 307.812273 231.369961 
L 308.446364 232.755246 
L 309.080455 247.029774 
L 309.714545 245.525571 
L 310.348636 233.085508 
L 310.982727 245.127471 
L 311.616818 238.748458 
L 312.250909 234.462763 
L 312.885 238.244971 
L 313.519091 244.71787 
L 314.153182 254.246081 
L 314.787273 244.718162 
L 315.421364 255.485072 
L 316.689545 222.698449 
L 317.323636 226.796793 
L 317.957727 234.465577 
L 318.591818 237.709643 
L 319.225909 245.674379 
L 319.86 257.715589 
L 320.494091 244.862571 
L 321.128182 238.989885 
L 321.762273 247.503589 
L 322.396364 248.847036 
L 323.030455 247.811007 
L 323.664545 241.477006 
L 324.298636 244.155551 
L 324.932727 238.117152 
L 325.566818 237.396575 
L 326.200909 254.77148 
L 326.835 249.563902 
L 327.469091 241.966742 
L 328.103182 249.002368 
L 328.737273 248.185075 
L 329.371364 240.702617 
L 330.005455 260.095057 
L 330.639545 262.503889 
L 331.907727 251.28587 
L 332.541818 250.03149 
L 333.175909 254.049651 
L 333.81 248.972767 
L 334.444091 246.671709 
L 335.078182 242.716387 
L 335.712273 253.815039 
L 336.346364 262.217945 
L 336.980455 249.726509 
L 337.614545 270.650193 
L 338.248636 264.665429 
L 338.882727 269.221636 
L 339.516818 265.972376 
L 340.150909 272.67366 
L 340.785 277.621692 
L 341.419091 265.190034 
L 342.053182 264.371866 
L 342.687273 274.942368 
L 343.321364 262.440068 
L 343.955455 259.544361 
L 344.589545 271.827735 
L 345.223636 272.863425 
L 345.857727 265.867872 
L 346.491818 264.320362 
L 347.125909 268.592811 
L 347.76 265.141832 
L 348.394091 271.098436 
L 349.028182 279.961228 
L 349.662273 267.086887 
L 350.296364 265.080144 
L 350.930455 267.518985 
L 351.564545 269.239993 
L 352.198636 271.411538 
L 353.466818 278.661549 
L 354.100909 276.098795 
L 354.735 266.371039 
L 355.369091 268.966019 
L 356.003182 272.171033 
L 356.637273 273.340093 
L 357.271364 274.196709 
L 357.905455 272.095815 
L 358.539545 259.049639 
L 359.173636 263.443297 
L 359.807727 261.710267 
L 360.441818 266.364169 
L 361.075909 263.318475 
L 362.344091 273.262094 
L 362.978182 280.480828 
L 363.612273 266.825115 
L 364.246364 272.129609 
L 364.880455 268.940513 
L 365.514545 278.626923 
L 366.148636 283.69719 
L 367.416818 262.312154 
L 368.050909 260.799333 
L 368.685 266.75114 
L 369.319091 269.215448 
L 369.953182 262.471633 
L 370.587273 267.26542 
L 371.221364 276.50671 
L 371.855455 279.057791 
L 372.489545 277.216181 
L 373.123636 261.49251 
L 373.757727 271.588392 
L 374.391818 272.023521 
L 375.025909 282.438653 
L 375.66 273.979028 
L 376.294091 275.659537 
L 376.928182 278.94616 
L 377.562273 272.158206 
L 378.196364 271.534001 
L 378.830455 278.481749 
L 379.464545 281.982816 
L 380.098636 273.988077 
L 380.732727 270.188334 
L 381.366818 271.769966 
L 382.000909 282.300611 
L 382.635 282.354791 
L 383.269091 281.531825 
L 383.903182 277.919139 
L 384.537273 260.494886 
L 385.171364 261.157097 
L 385.805455 274.106215 
L 386.439545 274.765801 
L 387.073636 274.809471 
L 387.707727 267.034335 
L 388.341818 274.022616 
L 388.975909 275.586572 
L 389.61 275.575218 
L 390.244091 286.219387 
L 390.878182 288.116486 
L 391.512273 284.689231 
L 392.146364 272.87305 
L 392.780455 264.681134 
L 393.414545 278.947952 
L 394.048636 279.630071 
L 394.682727 270.295565 
L 395.316818 280.927862 
L 395.950909 279.707279 
L 396.585 275.980783 
L 397.219091 283.018724 
L 397.853182 278.421121 
L 398.487273 295.488 
L 398.487273 295.488 
" clip-path="url(#p48caf8c3a6)" style="fill: none; stroke: #2ca02c; stroke-width: 1.5; stroke-linecap: square"/>
   </g>
   <g id="patch_3">
    <path d="M 57.6 307.584 
L 57.6 41.472 
" style="fill: none; stroke: #000000; stroke-width: 0.8; stroke-linejoin: miter; stroke-linecap: square"/>
   </g>
   <g id="patch_4">
    <path d="M 414.72 307.584 
L 414.72 41.472 
" style="fill: none; stroke: #000000; stroke-width: 0.8; stroke-linejoin: miter; stroke-linecap: square"/>
   </g>
   <g id="patch_5">
    <path d="M 57.6 307.584 
L 414.72 307.584 
" style="fill: none; stroke: #000000; stroke-width: 0.8; stroke-linejoin: miter; stroke-linecap: square"/>
   </g>
   <g id="patch_6">
    <path d="M 57.6 41.472 
L 414.72 41.472 
" style="fill: none; stroke: #000000; stroke-width: 0.8; stroke-linejoin: miter; stroke-linecap: square"/>
   </g>
   <g id="text_17">
    <!-- Gyro Noise Spectral Density -->
    <g transform="translate(152.01 35.472) scale(0.12 -0.12)">
     <defs>
      <path id="DejaVuSans-47" d="M 3809 666 
L 3809 1919 
L 2778 1919 
L 2778 2438 
L 4434 2438 
L 4434 434 
Q 4069 175 3628 42 
Q 3188 -91 2688 -91 
Q 1594 -91 976 548 
Q 359 1188 359 2328 
Q 359 3472 976 4111 
Q 1594 4750 2688 4750 
Q 3144 4750 3555 4637 
Q 3966 4525 4313 4306 
L 4313 3634 
Q 3963 3931 3569 4081 
Q 3175 4231 2741 4231 
Q 1884 4231 1454 3753 
Q 1025 3275 1025 2328 
Q 1025 1384 1454 906 
Q 1884 428 2741 428 
Q 3075 428 3337 486 
Q 3600 544 3809 666 
z
" transform="scale(0.015625)"/>
      <path id="DejaVuSans-6f" d="M 1959 3097 
Q 1497 3097 1228 2736 
Q 959 2375 959 1747 
Q 959 1119 1226 758 
Q 1494 397 1959 397 
Q 2419 397 2687 759 
Q 2956 1122 2956 1747 
Q 2956 2369 2687 2733 
Q 2419 3097 1959 3097 
z
M 1959 3584 
Q 2709 3584 3137 3096 
Q 3566 2609 3566 1747 
Q 3566 888 3137 398 
Q 2709 -91 1959 -91 
Q 1206 -91 779 398 
Q 353 888 353 1747 
Q 353 2609 779 3096 
Q 1206 3584 1959 3584 
z
" transform="scale(0.015625)"/>
      <path id="DejaVuSans-4e" d="M 628 4666 
L 1478 4666 
L 3547 763 
L 3547 4666 
L 4159 4666 
L 4159 0 
L 3309 0 
L 1241 3903 
L 1241 0 
L 628 0 
L 628 4666 
z
" transform="scale(0.015625)"/>
     </defs>
     <use xlink:href="#DejaVuSans-47"/>
     <use xlink:href="#DejaVuSans-79" x="77.490234"/>
     <use xlink:href="#DejaVuSans-72" x="136.669922"/>
     <use xlink:href="#DejaVuSans-6f" x="175.533203"/>
     <use xlink:href="#DejaVuSans-20" x="236.714844"/>
     <use xlink:href="#DejaVuSans-4e" x="268.501953"/>
     <use xlink:href="#DejaVuSans-6f" x="343.306641"/>
     <use xlink:href="#DejaVuSans-69" x="404.488281"/>
     <use xlink:href="#DejaVuSans-73" x="432.271484"/>
     <use xlink:href="#DejaVuSans-65" x="484.371094"/>
     <use xlink:href="#DejaVuSans-20" x="545.894531"/>
     <use xlink:href="#DejaVuSans-53" x="577.681641"/>
     <use xlink:href="#DejaVuSans-70" x="641.158203"/>
     <use xlink:href="#DejaVuSans-65" x="704.634766"/>
     <use xlink:href="#DejaVuSans-63" x="766.158203"/>
     <use xlink:href="#DejaVuSans-74" x="821.138672"/>
     <use xlink:href="#DejaVuSans-72" x="860.347656"/>
     <use xlink:href="#DejaVuSans-61" x="901.460938"/>
     <use xlink:href="#DejaVuSans-6c" x="962.740234"/>
     <use xlink:href="#DejaVuSans-20" x="990.523438"/>
     <use xlink:href="#DejaVuSans-44" x="1022.310547"/>
     <use xlink:href="#DejaVuSans-65" x="1099.3125"/>
     <use xlink:href="#DejaVuSans-6e" x="1160.835938"/>
     <use xlink:href="#DejaVuSans-73" x="1224.214844"/>
     <use xlink:href="#DejaVuSans-69" x="1276.314453"/>
     <use xlink:href="#DejaVuSans-74" x="1304.097656"/>
     <use xlink:href="#DejaVuSans-79" x="1343.306641"/>
    </g>
   </g>
   <g id="legend_1">
    <g id="patch_7">
     <path d="M 363.452813 93.506375 
L 407.72 93.506375 
Q 409.72 93.506375 409.72 91.506375 
L 409.72 48.472 
Q 409.72 46.472 407.72 46.472 
L 363.452813 46.472 
Q 361.452813 46.472 361.452813 48.472 
L 361.452813 91.506375 
Q 361.452813 93.506375 363.452813 93.506375 
z
" style="fill: #ffffff; opacity: 0.8; stroke: #cccccc; stroke-linejoin: miter"/>
    </g>
    <g id="line2d_32">
     <path d="M 365.452813 54.570438 
L 375.452813 54.570438 
L 385.452813 54.570438 
" style="fill: none; stroke: #1f77b4; stroke-width: 1.5; stroke-linecap: square"/>
    </g>
    <g id="text_18">
     <!-- gx -->
     <g transform="translate(393.452813 58.070438) scale(0.1 -0.1)">
      <defs>
       <path id="DejaVuSans-67" d="M 2906 1791 
Q 2906 2416 2648 2759 
Q 2391 3103 1925 3103 
Q 1463 3103 1205 2759 
Q 947 2416 947 1791 
Q 947 1169 1205 825 
Q 1463 481 1925 481 
Q 2391 481 2648 825 
Q 2906 1169 2906 1791 
z
M 3481 434 
Q 3481 -459 3084 -895 
Q 2688 -1331 1869 -1331 
Q 1566 -1331 1297 -1286 
Q 1028 -1241 775 -1147 
L 775 -588 
Q 1028 -725 1275 -790 
Q 1522 -856 1778 -856 
Q 2344 -856 2625 -561 
Q 2906 -266 2906 331 
L 2906 616 
Q 2728 306 2450 153 
Q 2172 0 1784 0 
Q 1141 0 747 490 
Q 353 981 353 1791 
Q 353 2603 747 3093 
Q 1141 3584 1784 3584 
Q 2172 3584 2450 3431 
Q 2728 3278 2906 2969 
L 2906 3500 
L 3481 3500 
L 3481 434 
z
" transform="scale(0.015625)"/>
       <path id="DejaVuSans-78" d="M 3513 3500 
L 2247 1797 
L 3578 0 
L 2900 0 
L 1881 1375 
L 863 0 
L 184 0 
L 1544 1831 
L 300 3500 
L 978 3500 
L 1906 2253 
L 2834 3500 
L 3513 3500 
z
" transform="scale(0.015625)"/>
      </defs>
      <use xlink:href="#DejaVuSans-67"/>
      <use xlink:href="#DejaVuSans-78" x="63.476562"/>
     </g>
    </g>
    <g id="line2d_33">
     <path d="M 365.452813 69.248563 
L 375.452813 69.248563 
L 385.452813 69.248563 
" style="fill: none; stroke: #ff7f0e; stroke-width: 1.5; stroke-linecap: square"/>
    </g>
    <g id="text_19">
     <!-- gy -->
     <g transform="translate(393.452813 72.748563) scale(0.1 -0.1)">
      <use xlink:href="#DejaVuSans-67"/>
      <use xlink:href="#DejaVuSans-79" x="63.476562"/>
     </g>
    </g>
    <g id="line2d_34">
     <path d="M 365.452813 83.926688 
L 375.452813 83.926688 
L 385.452813 83.926688 
" style="fill: none; stroke: #2ca02c; stroke-width: 1.5; stroke-linecap: square"/>
    </g>
    <g id="text_20">
     <!-- gz -->
     <g transform="translate(393.452813 87.426688) scale(0.1 -0.1)">
      <use xlink:href="#DejaVuSans-67"/>
      <use xlink:href="#DejaVuSans-7a" x="63.476562"/>
     </g>
    </g>
   </g>
  </g>
 </g>
 <defs>
  <clipPath id="p48caf8c3a6">
   <rect x="57.6" y="41.472" width="357.12" height="266.112"/>
  </clipPath>
 </defs>
</svg>
