<?xml version="1.0" encoding="utf-8" standalone="no"?>
<!DOCTYPE svg PUBLIC "-//W3C//DTD SVG 1.1//EN"
  "http://www.w3.org/Graphics/SVG/1.1/DTD/svg11.dtd">
<svg xmlns:xlink="http://www.w3.org/1999/xlink" width="460.8pt" height="345.6pt" viewBox="0 0 460.8 345.6" xmlns="http://www.w3.org/2000/svg" version="1.1">
 <metadata>
  <rdf:RDF xmlns:dc="http://purl.org/dc/elements/1.1/" xmlns:cc="http://creativecommons.org/ns#" xmlns:rdf="http://www.w3.org/1999/02/22-rdf-syntax-ns#">
   <cc:Work>
    <dc:type rdf:resource="http://purl.org/dc/dcmitype/StillImage"/>
    <dc:date>2024-06-04T15:16:46.191319</dc:date>
    <dc:format>image/svg+xml</dc:format>
    <dc:creator>
     <cc:Agent>
      <dc:title>Matplotlib v3.8.4, https://matplotlib.org/</dc:title>
     </cc:Agent>
    </dc:creator>
   </cc:Work>
  </rdf:RDF>
 </metadata>
 <defs>
  <style type="text/css">*{stroke-linejoin: round; stroke-linecap: butt}</style>
 </defs>
 <g id="figure_1">
  <g id="patch_1">
   <path d="M 0 345.6 
L 460.8 345.6 
L 460.8 0 
L 0 0 
z
" style="fill: #ffffff"/>
  </g>
  <g id="axes_1">
   <g id="patch_2">
    <path d="M 57.6 307.584 
L 414.72 307.584 
L 414.72 41.472 
L 57.6 41.472 
z
" style="fill: #ffffff"/>
   </g>
   <g id="matplotlib.axis_1">
    <g id="xtick_1">
     <g id="line2d_1">
      <path d="M 73.832727 307.584 
L 73.832727 41.472 
" clip-path="url(#pbf7045c468)" style="fill: none; stroke: #b0b0b0; stroke-width: 0.8; stroke-linecap: square"/>
     </g>
     <g id="line2d_2">
      <defs>
       <path id="m9f118b3ed2" d="M 0 0 
L 0 3.5 
" style="stroke: #000000; stroke-width: 0.8"/>
      </defs>
      <g>
       <use xlink:href="#m9f118b3ed2" x="73.832727" y="307.584" style="stroke: #000000; stroke-width: 0.8"/>
      </g>
     </g>
     <g id="text_1">
      <!-- 0 -->
      <g transform="translate(70.651477 322.182437) scale(0.1 -0.1)">
       <defs>
        <path id="DejaVuSans-30" d="M 2034 4250 
Q 1547 4250 1301 3770 
Q 1056 3291 1056 2328 
Q 1056 1369 1301 889 
Q 1547 409 2034 409 
Q 2525 409 2770 889 
Q 3016 1369 3016 2328 
Q 3016 3291 2770 3770 
Q 2525 4250 2034 4250 
z
M 2034 4750 
Q 2819 4750 3233 4129 
Q 3647 3509 3647 2328 
Q 3647 1150 3233 529 
Q 2819 -91 2034 -91 
Q 1250 -91 836 529 
Q 422 1150 422 2328 
Q 422 3509 836 4129 
Q 1250 4750 2034 4750 
z
" transform="scale(0.015625)"/>
       </defs>
       <use xlink:href="#DejaVuSans-30"/>
      </g>
     </g>
    </g>
    <g id="xtick_2">
     <g id="line2d_3">
      <path d="M 138.763636 307.584 
L 138.763636 41.472 
" clip-path="url(#pbf7045c468)" style="fill: none; stroke: #b0b0b0; stroke-width: 0.8; stroke-linecap: square"/>
     </g>
     <g id="line2d_4">
      <g>
       <use xlink:href="#m9f118b3ed2" x="138.763636" y="307.584" style="stroke: #000000; stroke-width: 0.8"/>
      </g>
     </g>
     <g id="text_2">
      <!-- 20 -->
      <g transform="translate(132.401136 322.182437) scale(0.1 -0.1)">
       <defs>
        <path id="DejaVuSans-32" d="M 1228 531 
L 3431 531 
L 3431 0 
L 469 0 
L 469 531 
Q 828 903 1448 1529 
Q 2069 2156 2228 2338 
Q 2531 2678 2651 2914 
Q 2772 3150 2772 3378 
Q 2772 3750 2511 3984 
Q 2250 4219 1831 4219 
Q 1534 4219 1204 4116 
Q 875 4013 500 3803 
L 500 4441 
Q 881 4594 1212 4672 
Q 1544 4750 1819 4750 
Q 2544 4750 2975 4387 
Q 3406 4025 3406 3419 
Q 3406 3131 3298 2873 
Q 3191 2616 2906 2266 
Q 2828 2175 2409 1742 
Q 1991 1309 1228 531 
z
" transform="scale(0.015625)"/>
       </defs>
       <use xlink:href="#DejaVuSans-32"/>
       <use xlink:href="#DejaVuSans-30" x="63.623047"/>
      </g>
     </g>
    </g>
    <g id="xtick_3">
     <g id="line2d_5">
      <path d="M 203.694545 307.584 
L 203.694545 41.472 
" clip-path="url(#pbf7045c468)" style="fill: none; stroke: #b0b0b0; stroke-width: 0.8; stroke-linecap: square"/>
     </g>
     <g id="line2d_6">
      <g>
       <use xlink:href="#m9f118b3ed2" x="203.694545" y="307.584" style="stroke: #000000; stroke-width: 0.8"/>
      </g>
     </g>
     <g id="text_3">
      <!-- 40 -->
      <g transform="translate(197.332045 322.182437) scale(0.1 -0.1)">
       <defs>
        <path id="DejaVuSans-34" d="M 2419 4116 
L 825 1625 
L 2419 1625 
L 2419 4116 
z
M 2253 4666 
L 3047 4666 
L 3047 1625 
L 3713 1625 
L 3713 1100 
L 3047 1100 
L 3047 0 
L 2419 0 
L 2419 1100 
L 313 1100 
L 313 1709 
L 2253 4666 
z
" transform="scale(0.015625)"/>
       </defs>
       <use xlink:href="#DejaVuSans-34"/>
       <use xlink:href="#DejaVuSans-30" x="63.623047"/>
      </g>
     </g>
    </g>
    <g id="xtick_4">
     <g id="line2d_7">
      <path d="M 268.625455 307.584 
L 268.625455 41.472 
" clip-path="url(#pbf7045c468)" style="fill: none; stroke: #b0b0b0; stroke-width: 0.8; stroke-linecap: square"/>
     </g>
     <g id="line2d_8">
      <g>
       <use xlink:href="#m9f118b3ed2" x="268.625455" y="307.584" style="stroke: #000000; stroke-width: 0.8"/>
      </g>
     </g>
     <g id="text_4">
      <!-- 60 -->
      <g transform="translate(262.262955 322.182437) scale(0.1 -0.1)">
       <defs>
        <path id="DejaVuSans-36" d="M 2113 2584 
Q 1688 2584 1439 2293 
Q 1191 2003 1191 1497 
Q 1191 994 1439 701 
Q 1688 409 2113 409 
Q 2538 409 2786 701 
Q 3034 994 3034 1497 
Q 3034 2003 2786 2293 
Q 2538 2584 2113 2584 
z
M 3366 4563 
L 3366 3988 
Q 3128 4100 2886 4159 
Q 2644 4219 2406 4219 
Q 1781 4219 1451 3797 
Q 1122 3375 1075 2522 
Q 1259 2794 1537 2939 
Q 1816 3084 2150 3084 
Q 2853 3084 3261 2657 
Q 3669 2231 3669 1497 
Q 3669 778 3244 343 
Q 2819 -91 2113 -91 
Q 1303 -91 875 529 
Q 447 1150 447 2328 
Q 447 3434 972 4092 
Q 1497 4750 2381 4750 
Q 2619 4750 2861 4703 
Q 3103 4656 3366 4563 
z
" transform="scale(0.015625)"/>
       </defs>
       <use xlink:href="#DejaVuSans-36"/>
       <use xlink:href="#DejaVuSans-30" x="63.623047"/>
      </g>
     </g>
    </g>
    <g id="xtick_5">
     <g id="line2d_9">
      <path d="M 333.556364 307.584 
L 333.556364 41.472 
" clip-path="url(#pbf7045c468)" style="fill: none; stroke: #b0b0b0; stroke-width: 0.8; stroke-linecap: square"/>
     </g>
     <g id="line2d_10">
      <g>
       <use xlink:href="#m9f118b3ed2" x="333.556364" y="307.584" style="stroke: #000000; stroke-width: 0.8"/>
      </g>
     </g>
     <g id="text_5">
      <!-- 80 -->
      <g transform="translate(327.193864 322.182437) scale(0.1 -0.1)">
       <defs>
        <path id="DejaVuSans-38" d="M 2034 2216 
Q 1584 2216 1326 1975 
Q 1069 1734 1069 1313 
Q 1069 891 1326 650 
Q 1584 409 2034 409 
Q 2484 409 2743 651 
Q 3003 894 3003 1313 
Q 3003 1734 2745 1975 
Q 2488 2216 2034 2216 
z
M 1403 2484 
Q 997 2584 770 2862 
Q 544 3141 544 3541 
Q 544 4100 942 4425 
Q 1341 4750 2034 4750 
Q 2731 4750 3128 4425 
Q 3525 4100 3525 3541 
Q 3525 3141 3298 2862 
Q 3072 2584 2669 2484 
Q 3125 2378 3379 2068 
Q 3634 1759 3634 1313 
Q 3634 634 3220 271 
Q 2806 -91 2034 -91 
Q 1263 -91 848 271 
Q 434 634 434 1313 
Q 434 1759 690 2068 
Q 947 2378 1403 2484 
z
M 1172 3481 
Q 1172 3119 1398 2916 
Q 1625 2713 2034 2713 
Q 2441 2713 2670 2916 
Q 2900 3119 2900 3481 
Q 2900 3844 2670 4047 
Q 2441 4250 2034 4250 
Q 1625 4250 1398 4047 
Q 1172 3844 1172 3481 
z
" transform="scale(0.015625)"/>
       </defs>
       <use xlink:href="#DejaVuSans-38"/>
       <use xlink:href="#DejaVuSans-30" x="63.623047"/>
      </g>
     </g>
    </g>
    <g id="xtick_6">
     <g id="line2d_11">
      <path d="M 398.487273 307.584 
L 398.487273 41.472 
" clip-path="url(#pbf7045c468)" style="fill: none; stroke: #b0b0b0; stroke-width: 0.8; stroke-linecap: square"/>
     </g>
     <g id="line2d_12">
      <g>
       <use xlink:href="#m9f118b3ed2" x="398.487273" y="307.584" style="stroke: #000000; stroke-width: 0.8"/>
      </g>
     </g>
     <g id="text_6">
      <!-- 100 -->
      <g transform="translate(388.943523 322.182437) scale(0.1 -0.1)">
       <defs>
        <path id="DejaVuSans-31" d="M 794 531 
L 1825 531 
L 1825 4091 
L 703 3866 
L 703 4441 
L 1819 4666 
L 2450 4666 
L 2450 531 
L 3481 531 
L 3481 0 
L 794 0 
L 794 531 
z
" transform="scale(0.015625)"/>
       </defs>
       <use xlink:href="#DejaVuSans-31"/>
       <use xlink:href="#DejaVuSans-30" x="63.623047"/>
       <use xlink:href="#DejaVuSans-30" x="127.246094"/>
      </g>
     </g>
    </g>
    <g id="text_7">
     <!-- Frequency [Hz] -->
     <g transform="translate(198.455312 335.860562) scale(0.1 -0.1)">
      <defs>
       <path id="DejaVuSans-46" d="M 628 4666 
L 3309 4666 
L 3309 4134 
L 1259 4134 
L 1259 2759 
L 3109 2759 
L 3109 2228 
L 1259 2228 
L 1259 0 
L 628 0 
L 628 4666 
z
" transform="scale(0.015625)"/>
       <path id="DejaVuSans-72" d="M 2631 2963 
Q 2534 3019 2420 3045 
Q 2306 3072 2169 3072 
Q 1681 3072 1420 2755 
Q 1159 2438 1159 1844 
L 1159 0 
L 581 0 
L 581 3500 
L 1159 3500 
L 1159 2956 
Q 1341 3275 1631 3429 
Q 1922 3584 2338 3584 
Q 2397 3584 2469 3576 
Q 2541 3569 2628 3553 
L 2631 2963 
z
" transform="scale(0.015625)"/>
       <path id="DejaVuSans-65" d="M 3597 1894 
L 3597 1613 
L 953 1613 
Q 991 1019 1311 708 
Q 1631 397 2203 397 
Q 2534 397 2845 478 
Q 3156 559 3463 722 
L 3463 178 
Q 3153 47 2828 -22 
Q 2503 -91 2169 -91 
Q 1331 -91 842 396 
Q 353 884 353 1716 
Q 353 2575 817 3079 
Q 1281 3584 2069 3584 
Q 2775 3584 3186 3129 
Q 3597 2675 3597 1894 
z
M 3022 2063 
Q 3016 2534 2758 2815 
Q 2500 3097 2075 3097 
Q 1594 3097 1305 2825 
Q 1016 2553 972 2059 
L 3022 2063 
z
" transform="scale(0.015625)"/>
       <path id="DejaVuSans-71" d="M 947 1747 
Q 947 1113 1208 752 
Q 1469 391 1925 391 
Q 2381 391 2643 752 
Q 2906 1113 2906 1747 
Q 2906 2381 2643 2742 
Q 2381 3103 1925 3103 
Q 1469 3103 1208 2742 
Q 947 2381 947 1747 
z
M 2906 525 
Q 2725 213 2448 61 
Q 2172 -91 1784 -91 
Q 1150 -91 751 415 
Q 353 922 353 1747 
Q 353 2572 751 3078 
Q 1150 3584 1784 3584 
Q 2172 3584 2448 3432 
Q 2725 3281 2906 2969 
L 2906 3500 
L 3481 3500 
L 3481 -1331 
L 2906 -1331 
L 2906 525 
z
" transform="scale(0.015625)"/>
       <path id="DejaVuSans-75" d="M 544 1381 
L 544 3500 
L 1119 3500 
L 1119 1403 
Q 1119 906 1312 657 
Q 1506 409 1894 409 
Q 2359 409 2629 706 
Q 2900 1003 2900 1516 
L 2900 3500 
L 3475 3500 
L 3475 0 
L 2900 0 
L 2900 538 
Q 2691 219 2414 64 
Q 2138 -91 1772 -91 
Q 1169 -91 856 284 
Q 544 659 544 1381 
z
M 1991 3584 
L 1991 3584 
z
" transform="scale(0.015625)"/>
       <path id="DejaVuSans-6e" d="M 3513 2113 
L 3513 0 
L 2938 0 
L 2938 2094 
Q 2938 2591 2744 2837 
Q 2550 3084 2163 3084 
Q 1697 3084 1428 2787 
Q 1159 2491 1159 1978 
L 1159 0 
L 581 0 
L 581 3500 
L 1159 3500 
L 1159 2956 
Q 1366 3272 1645 3428 
Q 1925 3584 2291 3584 
Q 2894 3584 3203 3211 
Q 3513 2838 3513 2113 
z
" transform="scale(0.015625)"/>
       <path id="DejaVuSans-63" d="M 3122 3366 
L 3122 2828 
Q 2878 2963 2633 3030 
Q 2388 3097 2138 3097 
Q 1578 3097 1268 2742 
Q 959 2388 959 1747 
Q 959 1106 1268 751 
Q 1578 397 2138 397 
Q 2388 397 2633 464 
Q 2878 531 3122 666 
L 3122 134 
Q 2881 22 2623 -34 
Q 2366 -91 2075 -91 
Q 1284 -91 818 406 
Q 353 903 353 1747 
Q 353 2603 823 3093 
Q 1294 3584 2113 3584 
Q 2378 3584 2631 3529 
Q 2884 3475 3122 3366 
z
" transform="scale(0.015625)"/>
       <path id="DejaVuSans-79" d="M 2059 -325 
Q 1816 -950 1584 -1140 
Q 1353 -1331 966 -1331 
L 506 -1331 
L 506 -850 
L 844 -850 
Q 1081 -850 1212 -737 
Q 1344 -625 1503 -206 
L 1606 56 
L 191 3500 
L 800 3500 
L 1894 763 
L 2988 3500 
L 3597 3500 
L 2059 -325 
z
" transform="scale(0.015625)"/>
       <path id="DejaVuSans-20" transform="scale(0.015625)"/>
       <path id="DejaVuSans-5b" d="M 550 4863 
L 1875 4863 
L 1875 4416 
L 1125 4416 
L 1125 -397 
L 1875 -397 
L 1875 -844 
L 550 -844 
L 550 4863 
z
" transform="scale(0.015625)"/>
       <path id="DejaVuSans-48" d="M 628 4666 
L 1259 4666 
L 1259 2753 
L 3553 2753 
L 3553 4666 
L 4184 4666 
L 4184 0 
L 3553 0 
L 3553 2222 
L 1259 2222 
L 1259 0 
L 628 0 
L 628 4666 
z
" transform="scale(0.015625)"/>
       <path id="DejaVuSans-7a" d="M 353 3500 
L 3084 3500 
L 3084 2975 
L 922 459 
L 3084 459 
L 3084 0 
L 275 0 
L 275 525 
L 2438 3041 
L 353 3041 
L 353 3500 
z
" transform="scale(0.015625)"/>
       <path id="DejaVuSans-5d" d="M 1947 4863 
L 1947 -844 
L 622 -844 
L 622 -397 
L 1369 -397 
L 1369 4416 
L 622 4416 
L 622 4863 
L 1947 4863 
z
" transform="scale(0.015625)"/>
      </defs>
      <use xlink:href="#DejaVuSans-46"/>
      <use xlink:href="#DejaVuSans-72" x="50.269531"/>
      <use xlink:href="#DejaVuSans-65" x="89.132812"/>
      <use xlink:href="#DejaVuSans-71" x="150.65625"/>
      <use xlink:href="#DejaVuSans-75" x="214.132812"/>
      <use xlink:href="#DejaVuSans-65" x="277.511719"/>
      <use xlink:href="#DejaVuSans-6e" x="339.035156"/>
      <use xlink:href="#DejaVuSans-63" x="402.414062"/>
      <use xlink:href="#DejaVuSans-79" x="457.394531"/>
      <use xlink:href="#DejaVuSans-20" x="516.574219"/>
      <use xlink:href="#DejaVuSans-5b" x="548.361328"/>
      <use xlink:href="#DejaVuSans-48" x="587.375"/>
      <use xlink:href="#DejaVuSans-7a" x="662.570312"/>
      <use xlink:href="#DejaVuSans-5d" x="715.060547"/>
     </g>
    </g>
   </g>
   <g id="matplotlib.axis_2">
    <g id="ytick_1">
     <g id="line2d_13">
      <path d="M 57.6 296.458287 
L 414.72 296.458287 
" clip-path="url(#pbf7045c468)" style="fill: none; stroke: #b0b0b0; stroke-width: 0.8; stroke-linecap: square"/>
     </g>
     <g id="line2d_14">
      <defs>
       <path id="m0ed7dee3eb" d="M 0 0 
L -3.5 0 
" style="stroke: #000000; stroke-width: 0.8"/>
      </defs>
      <g>
       <use xlink:href="#m0ed7dee3eb" x="57.6" y="296.458287" style="stroke: #000000; stroke-width: 0.8"/>
      </g>
     </g>
     <g id="text_8">
      <!-- 0.00 -->
      <g transform="translate(28.334375 300.257505) scale(0.1 -0.1)">
       <defs>
        <path id="DejaVuSans-2e" d="M 684 794 
L 1344 794 
L 1344 0 
L 684 0 
L 684 794 
z
" transform="scale(0.015625)"/>
       </defs>
       <use xlink:href="#DejaVuSans-30"/>
       <use xlink:href="#DejaVuSans-2e" x="63.623047"/>
       <use xlink:href="#DejaVuSans-30" x="95.410156"/>
       <use xlink:href="#DejaVuSans-30" x="159.033203"/>
      </g>
     </g>
    </g>
    <g id="ytick_2">
     <g id="line2d_15">
      <path d="M 57.6 254.105656 
L 414.72 254.105656 
" clip-path="url(#pbf7045c468)" style="fill: none; stroke: #b0b0b0; stroke-width: 0.8; stroke-linecap: square"/>
     </g>
     <g id="line2d_16">
      <g>
       <use xlink:href="#m0ed7dee3eb" x="57.6" y="254.105656" style="stroke: #000000; stroke-width: 0.8"/>
      </g>
     </g>
     <g id="text_9">
      <!-- 0.01 -->
      <g transform="translate(28.334375 257.904875) scale(0.1 -0.1)">
       <use xlink:href="#DejaVuSans-30"/>
       <use xlink:href="#DejaVuSans-2e" x="63.623047"/>
       <use xlink:href="#DejaVuSans-30" x="95.410156"/>
       <use xlink:href="#DejaVuSans-31" x="159.033203"/>
      </g>
     </g>
    </g>
    <g id="ytick_3">
     <g id="line2d_17">
      <path d="M 57.6 211.753026 
L 414.72 211.753026 
" clip-path="url(#pbf7045c468)" style="fill: none; stroke: #b0b0b0; stroke-width: 0.8; stroke-linecap: square"/>
     </g>
     <g id="line2d_18">
      <g>
       <use xlink:href="#m0ed7dee3eb" x="57.6" y="211.753026" style="stroke: #000000; stroke-width: 0.8"/>
      </g>
     </g>
     <g id="text_10">
      <!-- 0.02 -->
      <g transform="translate(28.334375 215.552245) scale(0.1 -0.1)">
       <use xlink:href="#DejaVuSans-30"/>
       <use xlink:href="#DejaVuSans-2e" x="63.623047"/>
       <use xlink:href="#DejaVuSans-30" x="95.410156"/>
       <use xlink:href="#DejaVuSans-32" x="159.033203"/>
      </g>
     </g>
    </g>
    <g id="ytick_4">
     <g id="line2d_19">
      <path d="M 57.6 169.400396 
L 414.72 169.400396 
" clip-path="url(#pbf7045c468)" style="fill: none; stroke: #b0b0b0; stroke-width: 0.8; stroke-linecap: square"/>
     </g>
     <g id="line2d_20">
      <g>
       <use xlink:href="#m0ed7dee3eb" x="57.6" y="169.400396" style="stroke: #000000; stroke-width: 0.8"/>
      </g>
     </g>
     <g id="text_11">
      <!-- 0.03 -->
      <g transform="translate(28.334375 173.199615) scale(0.1 -0.1)">
       <defs>
        <path id="DejaVuSans-33" d="M 2597 2516 
Q 3050 2419 3304 2112 
Q 3559 1806 3559 1356 
Q 3559 666 3084 287 
Q 2609 -91 1734 -91 
Q 1441 -91 1130 -33 
Q 819 25 488 141 
L 488 750 
Q 750 597 1062 519 
Q 1375 441 1716 441 
Q 2309 441 2620 675 
Q 2931 909 2931 1356 
Q 2931 1769 2642 2001 
Q 2353 2234 1838 2234 
L 1294 2234 
L 1294 2753 
L 1863 2753 
Q 2328 2753 2575 2939 
Q 2822 3125 2822 3475 
Q 2822 3834 2567 4026 
Q 2313 4219 1838 4219 
Q 1578 4219 1281 4162 
Q 984 4106 628 3988 
L 628 4550 
Q 988 4650 1302 4700 
Q 1616 4750 1894 4750 
Q 2613 4750 3031 4423 
Q 3450 4097 3450 3541 
Q 3450 3153 3228 2886 
Q 3006 2619 2597 2516 
z
" transform="scale(0.015625)"/>
       </defs>
       <use xlink:href="#DejaVuSans-30"/>
       <use xlink:href="#DejaVuSans-2e" x="63.623047"/>
       <use xlink:href="#DejaVuSans-30" x="95.410156"/>
       <use xlink:href="#DejaVuSans-33" x="159.033203"/>
      </g>
     </g>
    </g>
    <g id="ytick_5">
     <g id="line2d_21">
      <path d="M 57.6 127.047766 
L 414.72 127.047766 
" clip-path="url(#pbf7045c468)" style="fill: none; stroke: #b0b0b0; stroke-width: 0.8; stroke-linecap: square"/>
     </g>
     <g id="line2d_22">
      <g>
       <use xlink:href="#m0ed7dee3eb" x="57.6" y="127.047766" style="stroke: #000000; stroke-width: 0.8"/>
      </g>
     </g>
     <g id="text_12">
      <!-- 0.04 -->
      <g transform="translate(28.334375 130.846984) scale(0.1 -0.1)">
       <use xlink:href="#DejaVuSans-30"/>
       <use xlink:href="#DejaVuSans-2e" x="63.623047"/>
       <use xlink:href="#DejaVuSans-30" x="95.410156"/>
       <use xlink:href="#DejaVuSans-34" x="159.033203"/>
      </g>
     </g>
    </g>
    <g id="ytick_6">
     <g id="line2d_23">
      <path d="M 57.6 84.695135 
L 414.72 84.695135 
" clip-path="url(#pbf7045c468)" style="fill: none; stroke: #b0b0b0; stroke-width: 0.8; stroke-linecap: square"/>
     </g>
     <g id="line2d_24">
      <g>
       <use xlink:href="#m0ed7dee3eb" x="57.6" y="84.695135" style="stroke: #000000; stroke-width: 0.8"/>
      </g>
     </g>
     <g id="text_13">
      <!-- 0.05 -->
      <g transform="translate(28.334375 88.494354) scale(0.1 -0.1)">
       <defs>
        <path id="DejaVuSans-35" d="M 691 4666 
L 3169 4666 
L 3169 4134 
L 1269 4134 
L 1269 2991 
Q 1406 3038 1543 3061 
Q 1681 3084 1819 3084 
Q 2600 3084 3056 2656 
Q 3513 2228 3513 1497 
Q 3513 744 3044 326 
Q 2575 -91 1722 -91 
Q 1428 -91 1123 -41 
Q 819 9 494 109 
L 494 744 
Q 775 591 1075 516 
Q 1375 441 1709 441 
Q 2250 441 2565 725 
Q 2881 1009 2881 1497 
Q 2881 1984 2565 2268 
Q 2250 2553 1709 2553 
Q 1456 2553 1204 2497 
Q 953 2441 691 2322 
L 691 4666 
z
" transform="scale(0.015625)"/>
       </defs>
       <use xlink:href="#DejaVuSans-30"/>
       <use xlink:href="#DejaVuSans-2e" x="63.623047"/>
       <use xlink:href="#DejaVuSans-30" x="95.410156"/>
       <use xlink:href="#DejaVuSans-35" x="159.033203"/>
      </g>
     </g>
    </g>
    <g id="ytick_7">
     <g id="line2d_25">
      <path d="M 57.6 42.342505 
L 414.72 42.342505 
" clip-path="url(#pbf7045c468)" style="fill: none; stroke: #b0b0b0; stroke-width: 0.8; stroke-linecap: square"/>
     </g>
     <g id="line2d_26">
      <g>
       <use xlink:href="#m0ed7dee3eb" x="57.6" y="42.342505" style="stroke: #000000; stroke-width: 0.8"/>
      </g>
     </g>
     <g id="text_14">
      <!-- 0.06 -->
      <g transform="translate(28.334375 46.141724) scale(0.1 -0.1)">
       <use xlink:href="#DejaVuSans-30"/>
       <use xlink:href="#DejaVuSans-2e" x="63.623047"/>
       <use xlink:href="#DejaVuSans-30" x="95.410156"/>
       <use xlink:href="#DejaVuSans-36" x="159.033203"/>
      </g>
     </g>
    </g>
    <g id="text_15">
     <!-- Spectral Density ($rad/s  / \sqrt{Hz}$) -->
     <g transform="translate(22.234375 246.178) rotate(-90) scale(0.1 -0.1)">
      <defs>
       <path id="DejaVuSans-53" d="M 3425 4513 
L 3425 3897 
Q 3066 4069 2747 4153 
Q 2428 4238 2131 4238 
Q 1616 4238 1336 4038 
Q 1056 3838 1056 3469 
Q 1056 3159 1242 3001 
Q 1428 2844 1947 2747 
L 2328 2669 
Q 3034 2534 3370 2195 
Q 3706 1856 3706 1288 
Q 3706 609 3251 259 
Q 2797 -91 1919 -91 
Q 1588 -91 1214 -16 
Q 841 59 441 206 
L 441 856 
Q 825 641 1194 531 
Q 1563 422 1919 422 
Q 2459 422 2753 634 
Q 3047 847 3047 1241 
Q 3047 1584 2836 1778 
Q 2625 1972 2144 2069 
L 1759 2144 
Q 1053 2284 737 2584 
Q 422 2884 422 3419 
Q 422 4038 858 4394 
Q 1294 4750 2059 4750 
Q 2388 4750 2728 4690 
Q 3069 4631 3425 4513 
z
" transform="scale(0.015625)"/>
       <path id="DejaVuSans-70" d="M 1159 525 
L 1159 -1331 
L 581 -1331 
L 581 3500 
L 1159 3500 
L 1159 2969 
Q 1341 3281 1617 3432 
Q 1894 3584 2278 3584 
Q 2916 3584 3314 3078 
Q 3713 2572 3713 1747 
Q 3713 922 3314 415 
Q 2916 -91 2278 -91 
Q 1894 -91 1617 61 
Q 1341 213 1159 525 
z
M 3116 1747 
Q 3116 2381 2855 2742 
Q 2594 3103 2138 3103 
Q 1681 3103 1420 2742 
Q 1159 2381 1159 1747 
Q 1159 1113 1420 752 
Q 1681 391 2138 391 
Q 2594 391 2855 752 
Q 3116 1113 3116 1747 
z
" transform="scale(0.015625)"/>
       <path id="DejaVuSans-74" d="M 1172 4494 
L 1172 3500 
L 2356 3500 
L 2356 3053 
L 1172 3053 
L 1172 1153 
Q 1172 725 1289 603 
Q 1406 481 1766 481 
L 2356 481 
L 2356 0 
L 1766 0 
Q 1100 0 847 248 
Q 594 497 594 1153 
L 594 3053 
L 172 3053 
L 172 3500 
L 594 3500 
L 594 4494 
L 1172 4494 
z
" transform="scale(0.015625)"/>
       <path id="DejaVuSans-61" d="M 2194 1759 
Q 1497 1759 1228 1600 
Q 959 1441 959 1056 
Q 959 750 1161 570 
Q 1363 391 1709 391 
Q 2188 391 2477 730 
Q 2766 1069 2766 1631 
L 2766 1759 
L 2194 1759 
z
M 3341 1997 
L 3341 0 
L 2766 0 
L 2766 531 
Q 2569 213 2275 61 
Q 1981 -91 1556 -91 
Q 1019 -91 701 211 
Q 384 513 384 1019 
Q 384 1609 779 1909 
Q 1175 2209 1959 2209 
L 2766 2209 
L 2766 2266 
Q 2766 2663 2505 2880 
Q 2244 3097 1772 3097 
Q 1472 3097 1187 3025 
Q 903 2953 641 2809 
L 641 3341 
Q 956 3463 1253 3523 
Q 1550 3584 1831 3584 
Q 2591 3584 2966 3190 
Q 3341 2797 3341 1997 
z
" transform="scale(0.015625)"/>
       <path id="DejaVuSans-6c" d="M 603 4863 
L 1178 4863 
L 1178 0 
L 603 0 
L 603 4863 
z
" transform="scale(0.015625)"/>
       <path id="DejaVuSans-44" d="M 1259 4147 
L 1259 519 
L 2022 519 
Q 2988 519 3436 956 
Q 3884 1394 3884 2338 
Q 3884 3275 3436 3711 
Q 2988 4147 2022 4147 
L 1259 4147 
z
M 628 4666 
L 1925 4666 
Q 3281 4666 3915 4102 
Q 4550 3538 4550 2338 
Q 4550 1131 3912 565 
Q 3275 0 1925 0 
L 628 0 
L 628 4666 
z
" transform="scale(0.015625)"/>
       <path id="DejaVuSans-73" d="M 2834 3397 
L 2834 2853 
Q 2591 2978 2328 3040 
Q 2066 3103 1784 3103 
Q 1356 3103 1142 2972 
Q 928 2841 928 2578 
Q 928 2378 1081 2264 
Q 1234 2150 1697 2047 
L 1894 2003 
Q 2506 1872 2764 1633 
Q 3022 1394 3022 966 
Q 3022 478 2636 193 
Q 2250 -91 1575 -91 
Q 1294 -91 989 -36 
Q 684 19 347 128 
L 347 722 
Q 666 556 975 473 
Q 1284 391 1588 391 
Q 1994 391 2212 530 
Q 2431 669 2431 922 
Q 2431 1156 2273 1281 
Q 2116 1406 1581 1522 
L 1381 1569 
Q 847 1681 609 1914 
Q 372 2147 372 2553 
Q 372 3047 722 3315 
Q 1072 3584 1716 3584 
Q 2034 3584 2315 3537 
Q 2597 3491 2834 3397 
z
" transform="scale(0.015625)"/>
       <path id="DejaVuSans-69" d="M 603 3500 
L 1178 3500 
L 1178 0 
L 603 0 
L 603 3500 
z
M 603 4863 
L 1178 4863 
L 1178 4134 
L 603 4134 
L 603 4863 
z
" transform="scale(0.015625)"/>
       <path id="DejaVuSans-28" d="M 1984 4856 
Q 1566 4138 1362 3434 
Q 1159 2731 1159 2009 
Q 1159 1288 1364 580 
Q 1569 -128 1984 -844 
L 1484 -844 
Q 1016 -109 783 600 
Q 550 1309 550 2009 
Q 550 2706 781 3412 
Q 1013 4119 1484 4856 
L 1984 4856 
z
" transform="scale(0.015625)"/>
       <path id="DejaVuSans-Oblique-72" d="M 2853 2969 
Q 2766 3016 2653 3041 
Q 2541 3066 2413 3066 
Q 1953 3066 1609 2717 
Q 1266 2369 1153 1784 
L 800 0 
L 225 0 
L 909 3500 
L 1484 3500 
L 1375 2956 
Q 1603 3259 1920 3421 
Q 2238 3584 2597 3584 
Q 2691 3584 2781 3573 
Q 2872 3563 2963 3538 
L 2853 2969 
z
" transform="scale(0.015625)"/>
       <path id="DejaVuSans-Oblique-61" d="M 3438 1997 
L 3047 0 
L 2472 0 
L 2578 531 
Q 2325 219 2001 64 
Q 1678 -91 1281 -91 
Q 834 -91 548 182 
Q 263 456 263 884 
Q 263 1497 752 1853 
Q 1241 2209 2100 2209 
L 2900 2209 
L 2931 2363 
Q 2938 2388 2941 2417 
Q 2944 2447 2944 2509 
Q 2944 2788 2717 2942 
Q 2491 3097 2081 3097 
Q 1800 3097 1504 3025 
Q 1209 2953 897 2809 
L 997 3341 
Q 1322 3463 1633 3523 
Q 1944 3584 2234 3584 
Q 2853 3584 3176 3315 
Q 3500 3047 3500 2534 
Q 3500 2431 3484 2292 
Q 3469 2153 3438 1997 
z
M 2816 1759 
L 2241 1759 
Q 1534 1759 1195 1570 
Q 856 1381 856 984 
Q 856 709 1029 553 
Q 1203 397 1509 397 
Q 1978 397 2328 733 
Q 2678 1069 2791 1631 
L 2816 1759 
z
" transform="scale(0.015625)"/>
       <path id="DejaVuSans-Oblique-64" d="M 2675 525 
Q 2444 222 2128 65 
Q 1813 -91 1428 -91 
Q 903 -91 598 267 
Q 294 625 294 1247 
Q 294 1766 478 2236 
Q 663 2706 1013 3078 
Q 1244 3325 1534 3454 
Q 1825 3584 2144 3584 
Q 2481 3584 2739 3421 
Q 2997 3259 3138 2956 
L 3513 4863 
L 4091 4863 
L 3144 0 
L 2566 0 
L 2675 525 
z
M 891 1350 
Q 891 897 1095 644 
Q 1300 391 1663 391 
Q 1931 391 2161 520 
Q 2391 650 2566 903 
Q 2750 1166 2856 1509 
Q 2963 1853 2963 2188 
Q 2963 2622 2758 2865 
Q 2553 3109 2194 3109 
Q 1922 3109 1687 2981 
Q 1453 2853 1288 2613 
Q 1106 2353 998 2009 
Q 891 1666 891 1350 
z
" transform="scale(0.015625)"/>
       <path id="DejaVuSans-2f" d="M 1625 4666 
L 2156 4666 
L 531 -594 
L 0 -594 
L 1625 4666 
z
" transform="scale(0.015625)"/>
       <path id="DejaVuSans-Oblique-73" d="M 3200 3397 
L 3091 2853 
Q 2863 2978 2609 3040 
Q 2356 3103 2088 3103 
Q 1634 3103 1373 2948 
Q 1113 2794 1113 2528 
Q 1113 2219 1719 2053 
Q 1766 2041 1788 2034 
L 1972 1978 
Q 2547 1819 2739 1644 
Q 2931 1469 2931 1166 
Q 2931 609 2489 259 
Q 2047 -91 1331 -91 
Q 1053 -91 747 -37 
Q 441 16 72 128 
L 184 722 
Q 500 559 806 475 
Q 1113 391 1394 391 
Q 1816 391 2080 572 
Q 2344 753 2344 1031 
Q 2344 1331 1650 1516 
L 1591 1531 
L 1394 1581 
Q 956 1697 753 1886 
Q 550 2075 550 2369 
Q 550 2928 970 3256 
Q 1391 3584 2113 3584 
Q 2397 3584 2667 3537 
Q 2938 3491 3200 3397 
z
" transform="scale(0.015625)"/>
       <path id="STIXSizeOneSym-Regular-221a" d="M 6970 9933 
L 3373 -1888 
L 3104 -1888 
L 1626 2918 
Q 1555 3149 1465 3251 
Q 1376 3354 1229 3354 
Q 1011 3354 794 3181 
L 717 3309 
L 1766 4115 
L 1926 4115 
L 3379 -602 
L 3405 -602 
L 6605 9933 
L 6970 9933 
z
" transform="scale(0.015625)"/>
       <path id="DejaVuSans-Oblique-48" d="M 1081 4666 
L 1716 4666 
L 1344 2753 
L 3634 2753 
L 4006 4666 
L 4641 4666 
L 3731 0 
L 3097 0 
L 3531 2222 
L 1241 2222 
L 806 0 
L 172 0 
L 1081 4666 
z
" transform="scale(0.015625)"/>
       <path id="DejaVuSans-Oblique-7a" d="M 744 3500 
L 3475 3500 
L 3372 2975 
L 738 459 
L 2913 459 
L 2822 0 
L -19 0 
L 84 525 
L 2719 3041 
L 653 3041 
L 744 3500 
z
" transform="scale(0.015625)"/>
       <path id="DejaVuSans-29" d="M 513 4856 
L 1013 4856 
Q 1481 4119 1714 3412 
Q 1947 2706 1947 2009 
Q 1947 1309 1714 600 
Q 1481 -109 1013 -844 
L 513 -844 
Q 928 -128 1133 580 
Q 1338 1288 1338 2009 
Q 1338 2731 1133 3434 
Q 928 4138 513 4856 
z
" transform="scale(0.015625)"/>
      </defs>
      <use xlink:href="#DejaVuSans-53" transform="translate(0 0.578125)"/>
      <use xlink:href="#DejaVuSans-70" transform="translate(63.476562 0.578125)"/>
      <use xlink:href="#DejaVuSans-65" transform="translate(126.953125 0.578125)"/>
      <use xlink:href="#DejaVuSans-63" transform="translate(188.476562 0.578125)"/>
      <use xlink:href="#DejaVuSans-74" transform="translate(243.457031 0.578125)"/>
      <use xlink:href="#DejaVuSans-72" transform="translate(282.666016 0.578125)"/>
      <use xlink:href="#DejaVuSans-61" transform="translate(323.779297 0.578125)"/>
      <use xlink:href="#DejaVuSans-6c" transform="translate(385.058594 0.578125)"/>
      <use xlink:href="#DejaVuSans-20" transform="translate(412.841797 0.578125)"/>
      <use xlink:href="#DejaVuSans-44" transform="translate(444.628906 0.578125)"/>
      <use xlink:href="#DejaVuSans-65" transform="translate(521.630859 0.578125)"/>
      <use xlink:href="#DejaVuSans-6e" transform="translate(583.154297 0.578125)"/>
      <use xlink:href="#DejaVuSans-73" transform="translate(646.533203 0.578125)"/>
      <use xlink:href="#DejaVuSans-69" transform="translate(698.632812 0.578125)"/>
      <use xlink:href="#DejaVuSans-74" transform="translate(726.416016 0.578125)"/>
      <use xlink:href="#DejaVuSans-79" transform="translate(765.625 0.578125)"/>
      <use xlink:href="#DejaVuSans-20" transform="translate(824.804688 0.578125)"/>
      <use xlink:href="#DejaVuSans-28" transform="translate(856.591797 0.578125)"/>
      <use xlink:href="#DejaVuSans-Oblique-72" transform="translate(895.605469 0.578125)"/>
      <use xlink:href="#DejaVuSans-Oblique-61" transform="translate(936.71875 0.578125)"/>
      <use xlink:href="#DejaVuSans-Oblique-64" transform="translate(997.998047 0.578125)"/>
      <use xlink:href="#DejaVuSans-2f" transform="translate(1061.474609 0.578125)"/>
      <use xlink:href="#DejaVuSans-Oblique-73" transform="translate(1095.166016 0.578125)"/>
      <use xlink:href="#DejaVuSans-2f" transform="translate(1147.265625 0.578125)"/>
      <use xlink:href="#STIXSizeOneSym-Regular-221a" transform="translate(1180.957031 17.09375) scale(0.563912)"/>
      <use xlink:href="#DejaVuSans-Oblique-48" transform="translate(1253.045395 0.84375)"/>
      <use xlink:href="#DejaVuSans-Oblique-7a" transform="translate(1328.240707 0.84375)"/>
      <use xlink:href="#DejaVuSans-29" transform="translate(1393.230942 0.578125)"/>
      <path d="M 1240.545395 97.5 
L 1240.545395 103.75 
L 1393.230942 103.75 
L 1393.230942 97.5 
L 1240.545395 97.5 
z
"/>
     </g>
    </g>
   </g>
   <g id="line2d_27">
    <path d="M 73.832727 240.01185 
L 74.466818 176.207481 
L 75.100909 134.394169 
L 76.369091 160.244441 
L 77.003182 172.281147 
L 77.637273 201.327561 
L 78.271364 215.880967 
L 78.905455 225.250286 
L 79.539545 228.760124 
L 80.173636 226.604746 
L 80.807727 238.238764 
L 81.441818 236.585203 
L 82.075909 241.731314 
L 82.71 245.180306 
L 83.344091 250.858655 
L 83.978182 248.130858 
L 85.246364 253.988877 
L 85.880455 259.070827 
L 86.514545 262.863722 
L 87.148636 264.955756 
L 87.782727 263.194105 
L 88.416818 268.109109 
L 89.050909 269.82295 
L 89.685 268.678048 
L 90.319091 274.387521 
L 90.953182 276.60413 
L 91.587273 276.447981 
L 92.221364 272.777916 
L 92.855455 277.056774 
L 93.489545 279.279376 
L 94.123636 279.109041 
L 94.757727 279.832307 
L 95.391818 282.253776 
L 96.025909 282.605461 
L 96.66 280.880267 
L 97.294091 284.106235 
L 97.928182 284.580806 
L 98.562273 285.474562 
L 99.196364 286.644354 
L 99.830455 287.06026 
L 100.464545 288.313595 
L 101.098636 287.905355 
L 101.732727 287.188738 
L 102.366818 289.153592 
L 103.000909 290.101781 
L 104.269091 288.975366 
L 105.537273 288.087814 
L 106.171364 288.476053 
L 106.805455 289.384964 
L 107.439545 289.42277 
L 108.707727 288.680441 
L 109.341818 287.168954 
L 109.975909 287.978271 
L 110.61 287.081798 
L 111.244091 285.41699 
L 112.512273 286.555413 
L 113.146364 285.122651 
L 113.780455 283.233722 
L 114.414545 285.939456 
L 115.048636 284.58109 
L 115.682727 280.701157 
L 116.316818 282.845636 
L 116.950909 284.511801 
L 117.585 283.34324 
L 118.219091 283.576422 
L 118.853182 283.283217 
L 119.487273 282.102485 
L 120.121364 282.60846 
L 121.389545 286.289883 
L 122.023636 283.986205 
L 122.657727 282.572186 
L 123.291818 282.153104 
L 123.925909 283.986837 
L 124.56 282.926339 
L 125.194091 281.346204 
L 125.828182 283.504362 
L 126.462273 284.150379 
L 127.096364 283.160971 
L 127.730455 284.10686 
L 128.364545 282.391983 
L 128.998636 281.24245 
L 129.632727 280.703163 
L 130.900909 279.978355 
L 131.535 280.874605 
L 132.169091 282.16335 
L 132.803182 282.440801 
L 134.071364 278.107492 
L 135.339545 279.410406 
L 135.973636 279.699809 
L 136.607727 278.532348 
L 137.241818 278.670061 
L 137.875909 280.451681 
L 138.51 279.673102 
L 139.144091 279.217969 
L 139.778182 274.909217 
L 140.412273 271.395269 
L 141.046364 274.679102 
L 141.680455 279.038172 
L 142.314545 276.102315 
L 142.948636 278.46881 
L 143.582727 282.620765 
L 144.216818 281.759152 
L 145.485 280.450603 
L 146.119091 278.316604 
L 146.753182 278.074421 
L 147.387273 276.855708 
L 148.021364 275.101208 
L 148.655455 273.753341 
L 149.289545 273.764602 
L 150.557727 278.890229 
L 151.191818 278.656733 
L 151.825909 277.34545 
L 152.46 278.26349 
L 153.094091 276.807049 
L 153.728182 275.071892 
L 154.362273 276.912669 
L 154.996364 276.552411 
L 155.630455 277.493957 
L 156.264545 279.885267 
L 156.898636 277.890773 
L 157.532727 278.418676 
L 158.166818 279.101449 
L 158.800909 276.643308 
L 159.435 276.968966 
L 160.069091 277.943394 
L 160.703182 273.980153 
L 161.337273 274.134116 
L 161.971364 277.25088 
L 163.239545 270.383588 
L 164.507727 276.782325 
L 165.141818 274.894007 
L 165.775909 275.547538 
L 166.41 277.493682 
L 167.044091 278.847571 
L 167.678182 276.227792 
L 168.312273 277.469239 
L 168.946364 275.747008 
L 169.580455 275.1762 
L 170.214545 277.139075 
L 170.848636 274.210949 
L 171.482727 275.617777 
L 172.116818 276.602792 
L 172.750909 276.986814 
L 173.385 277.170703 
L 174.019091 275.717052 
L 174.653182 275.909479 
L 175.287273 271.114387 
L 175.921364 268.3982 
L 176.555455 269.266797 
L 177.189545 269.70775 
L 177.823636 264.897921 
L 178.457727 267.542557 
L 179.091818 266.676102 
L 179.725909 262.716694 
L 180.36 265.101265 
L 180.994091 267.960893 
L 181.628182 268.720615 
L 182.262273 269.841493 
L 182.896364 271.377792 
L 183.530455 265.516416 
L 184.164545 265.029991 
L 184.798636 266.188709 
L 185.432727 265.778638 
L 186.066818 263.746856 
L 186.700909 265.608407 
L 187.335 265.342112 
L 187.969091 259.163518 
L 188.603182 254.284156 
L 189.237273 263.125854 
L 189.871364 265.526631 
L 190.505455 266.759866 
L 191.139545 267.192616 
L 191.773636 269.279099 
L 192.407727 266.288965 
L 193.041818 265.534766 
L 193.675909 265.53918 
L 194.31 260.569536 
L 194.944091 260.394126 
L 195.578182 268.268337 
L 196.212273 270.280162 
L 196.846364 267.357656 
L 197.480455 265.710663 
L 198.114545 270.776364 
L 198.748636 266.686837 
L 199.382727 264.150569 
L 200.016818 266.389317 
L 200.650909 270.081639 
L 201.285 272.680875 
L 201.919091 274.503935 
L 202.553182 278.425208 
L 203.187273 280.096739 
L 203.821364 277.769151 
L 204.455455 274.806226 
L 205.089545 275.590913 
L 205.723636 278.502753 
L 206.357727 275.812965 
L 206.991818 277.193419 
L 207.625909 274.250071 
L 208.26 275.969917 
L 208.894091 278.963303 
L 209.528182 275.896231 
L 210.162273 278.82097 
L 210.796364 275.598526 
L 211.430455 274.50592 
L 212.064545 278.795381 
L 212.698636 284.183845 
L 213.332727 283.369743 
L 213.966818 285.408496 
L 214.600909 288.547643 
L 215.235 285.093623 
L 215.869091 284.909126 
L 216.503182 285.495639 
L 217.137273 286.480004 
L 217.771364 282.89943 
L 218.405455 280.156748 
L 219.039545 285.634906 
L 219.673636 286.470538 
L 220.307727 284.043942 
L 221.575909 280.32229 
L 222.21 283.135558 
L 222.844091 278.437737 
L 223.478182 278.509086 
L 224.112273 280.286879 
L 225.380455 281.364578 
L 226.014545 280.945833 
L 226.648636 283.032653 
L 227.282727 281.234461 
L 227.916818 280.352417 
L 228.550909 283.821597 
L 229.185 283.465967 
L 229.819091 284.440293 
L 230.453182 285.728821 
L 231.087273 285.405123 
L 231.721364 283.956048 
L 232.355455 285.214006 
L 232.989545 286.189193 
L 233.623636 285.634585 
L 234.257727 284.711016 
L 234.891818 286.508187 
L 235.525909 285.316388 
L 236.16 285.075069 
L 236.794091 283.714433 
L 237.428182 283.257152 
L 238.062273 283.969998 
L 238.696364 285.017306 
L 239.330455 287.181229 
L 239.964545 286.53312 
L 240.598636 284.70311 
L 241.232727 284.585663 
L 241.866818 284.833895 
L 242.500909 283.011773 
L 243.135 282.177977 
L 243.769091 282.295757 
L 244.403182 282.717734 
L 245.037273 281.925772 
L 245.671364 280.39091 
L 246.305455 280.884716 
L 246.939545 280.121485 
L 247.573636 282.167479 
L 248.207727 279.670013 
L 249.475909 280.433588 
L 250.744091 275.542439 
L 251.378182 278.525054 
L 252.012273 278.862685 
L 252.646364 277.890512 
L 253.280455 278.025452 
L 253.914545 280.381058 
L 254.548636 282.280659 
L 255.182727 283.121025 
L 255.816818 281.376058 
L 256.450909 280.97839 
L 257.085 280.902426 
L 257.719091 283.00381 
L 258.353182 283.110201 
L 258.987273 281.990857 
L 259.621364 281.686814 
L 260.889545 282.604634 
L 261.523636 282.78963 
L 262.157727 282.719972 
L 262.791818 283.725881 
L 263.425909 282.608551 
L 264.06 283.178669 
L 265.328182 284.887163 
L 265.962273 285.314606 
L 266.596364 284.26049 
L 267.230455 286.635829 
L 267.864545 287.005876 
L 268.498636 285.287285 
L 269.132727 284.380017 
L 269.766818 284.817896 
L 270.400909 284.716905 
L 271.035 284.205793 
L 271.669091 284.426478 
L 272.303182 285.985211 
L 272.937273 285.553897 
L 273.571364 284.476208 
L 274.205455 285.509256 
L 274.839545 284.999573 
L 275.473636 284.776354 
L 276.107727 285.845615 
L 276.741818 286.072518 
L 277.375909 287.602285 
L 278.01 287.095433 
L 278.644091 284.220578 
L 279.278182 283.91261 
L 279.912273 284.476483 
L 280.546364 285.974317 
L 281.180455 285.671109 
L 281.814545 285.546944 
L 282.448636 286.820289 
L 283.082727 284.992277 
L 283.716818 284.890152 
L 284.350909 283.976576 
L 284.985 283.919651 
L 285.619091 285.337657 
L 286.887273 286.809585 
L 287.521364 286.754608 
L 288.155455 285.14518 
L 288.789545 285.897705 
L 289.423636 286.039891 
L 290.691818 284.888303 
L 291.325909 286.524452 
L 292.594091 283.610539 
L 293.228182 284.899686 
L 293.862273 285.439482 
L 294.496364 284.91994 
L 295.130455 285.632302 
L 295.764545 286.5964 
L 296.398636 286.9713 
L 297.032727 287.052087 
L 297.666818 286.072466 
L 298.300909 285.666705 
L 298.935 285.770959 
L 299.569091 285.427122 
L 300.203182 287.584146 
L 300.837273 286.977585 
L 301.471364 286.156646 
L 302.105455 285.74523 
L 302.739545 287.70474 
L 304.007727 284.359248 
L 304.641818 286.264732 
L 305.275909 286.448459 
L 305.91 286.463592 
L 306.544091 287.164368 
L 307.178182 287.468883 
L 307.812273 287.378678 
L 308.446364 285.76951 
L 309.080455 284.840683 
L 309.714545 285.392135 
L 310.348636 284.74695 
L 310.982727 284.432891 
L 311.616818 284.72655 
L 312.250909 284.615841 
L 312.885 285.34225 
L 314.153182 284.372748 
L 314.787273 283.17963 
L 315.421364 285.113408 
L 316.055455 286.423328 
L 316.689545 286.013678 
L 317.323636 286.534794 
L 317.957727 286.434199 
L 318.591818 284.235191 
L 319.225909 283.305888 
L 319.86 283.273715 
L 320.494091 284.801283 
L 321.128182 285.676219 
L 321.762273 285.465841 
L 322.396364 284.577284 
L 323.030455 285.516752 
L 323.664545 287.221992 
L 324.298636 287.728442 
L 324.932727 287.418916 
L 326.200909 288.231585 
L 326.835 288.977362 
L 327.469091 288.385208 
L 328.103182 288.416087 
L 328.737273 290.630969 
L 329.371364 290.248872 
L 330.005455 289.287837 
L 330.639545 290.655463 
L 331.273636 289.484393 
L 331.907727 289.30987 
L 332.541818 289.517441 
L 333.175909 288.399499 
L 333.81 288.794594 
L 334.444091 289.968586 
L 335.078182 290.311511 
L 335.712273 289.56701 
L 336.346364 289.44928 
L 336.980455 290.460561 
L 337.614545 290.484786 
L 338.248636 290.774354 
L 338.882727 290.701896 
L 339.516818 290.230429 
L 340.150909 290.871036 
L 340.785 290.806926 
L 341.419091 290.865081 
L 342.053182 290.726505 
L 342.687273 290.96862 
L 343.321364 290.215896 
L 343.955455 290.141536 
L 344.589545 291.497866 
L 345.857727 290.856788 
L 346.491818 290.846582 
L 347.125909 290.616312 
L 347.76 290.999537 
L 349.028182 290.762211 
L 350.296364 292.073075 
L 350.930455 291.210268 
L 351.564545 290.682092 
L 352.198636 290.854113 
L 352.832727 290.194603 
L 353.466818 290.352722 
L 354.100909 291.098533 
L 354.735 290.870095 
L 355.369091 290.28512 
L 356.003182 290.494582 
L 356.637273 290.9915 
L 357.271364 291.654448 
L 357.905455 290.807383 
L 358.539545 290.440166 
L 359.173636 290.713336 
L 359.807727 290.776272 
L 360.441818 291.692315 
L 361.075909 291.605618 
L 361.71 291.284245 
L 362.344091 291.628491 
L 362.978182 291.338704 
L 363.612273 291.358022 
L 364.246364 291.06588 
L 364.880455 291.733569 
L 365.514545 291.09403 
L 367.416818 291.321908 
L 368.685 291.066497 
L 369.319091 291.286392 
L 370.587273 290.64973 
L 371.221364 291.513498 
L 371.855455 291.075647 
L 372.489545 291.288409 
L 373.123636 290.998818 
L 374.391818 291.724787 
L 375.025909 290.97898 
L 375.66 290.809569 
L 376.294091 291.690893 
L 376.928182 291.624738 
L 377.562273 291.306234 
L 378.196364 291.696475 
L 378.830455 291.450026 
L 379.464545 291.865094 
L 380.098636 291.65025 
L 380.732727 291.963641 
L 381.366818 291.27722 
L 382.000909 291.027516 
L 382.635 292.068138 
L 383.269091 291.042143 
L 383.903182 290.925144 
L 384.537273 291.72896 
L 385.171364 290.711789 
L 385.805455 290.690158 
L 386.439545 291.77747 
L 387.073636 291.745014 
L 387.707727 292.297369 
L 388.341818 291.670543 
L 389.61 290.816316 
L 390.244091 291.007521 
L 390.878182 291.033999 
L 391.512273 292.108832 
L 392.146364 291.489497 
L 392.780455 291.101818 
L 394.682727 292.103863 
L 395.316818 292.541014 
L 395.950909 292.124892 
L 396.585 292.202345 
L 397.219091 292.075798 
L 397.853182 291.454701 
L 398.487273 292.950348 
L 398.487273 292.950348 
" clip-path="url(#pbf7045c468)" style="fill: none; stroke: #1f77b4; stroke-width: 1.5; stroke-linecap: square"/>
   </g>
   <g id="line2d_28">
    <path d="M 73.832727 184.793981 
L 74.466818 74.342263 
L 75.100909 53.568 
L 75.735 118.214422 
L 76.369091 170.465336 
L 77.003182 182.879357 
L 77.637273 225.490696 
L 78.271364 252.605822 
L 78.905455 264.756333 
L 79.539545 272.998205 
L 80.173636 276.469454 
L 80.807727 278.222375 
L 81.441818 282.694983 
L 82.075909 285.943044 
L 82.71 287.873386 
L 83.344091 288.983381 
L 83.978182 289.506473 
L 84.612273 289.548224 
L 85.246364 290.210417 
L 85.880455 290.215177 
L 86.514545 290.626039 
L 87.148636 291.688313 
L 87.782727 292.146444 
L 88.416818 292.393922 
L 89.050909 292.301714 
L 89.685 292.871228 
L 90.319091 293.684958 
L 90.953182 293.367665 
L 92.221364 293.428871 
L 92.855455 293.631638 
L 93.489545 294.017225 
L 95.391818 293.918105 
L 96.025909 294.040782 
L 96.66 293.942266 
L 97.294091 294.196048 
L 98.562273 294.422457 
L 99.196364 294.113402 
L 100.464545 294.578661 
L 101.098636 294.029811 
L 101.732727 293.701588 
L 102.366818 293.953042 
L 103.635 293.791374 
L 104.269091 293.95553 
L 104.903182 293.933161 
L 105.537273 293.401917 
L 106.805455 292.997538 
L 107.439545 292.909863 
L 108.707727 291.925784 
L 109.975909 292.669278 
L 111.244091 291.352322 
L 112.512273 291.699849 
L 113.146364 292.050813 
L 113.780455 291.348986 
L 114.414545 291.028173 
L 115.048636 291.002103 
L 115.682727 290.696598 
L 116.316818 291.557282 
L 116.950909 291.509454 
L 117.585 291.036935 
L 118.219091 291.155497 
L 118.853182 290.887758 
L 119.487273 291.306959 
L 120.121364 290.579843 
L 120.755455 291.086666 
L 121.389545 290.959091 
L 122.023636 291.585596 
L 123.291818 291.461013 
L 123.925909 291.566048 
L 125.828182 291.518853 
L 126.462273 291.87784 
L 127.096364 292.475769 
L 127.730455 292.34584 
L 128.364545 292.740649 
L 128.998636 292.646133 
L 129.632727 293.25819 
L 130.266818 293.188174 
L 131.535 293.709442 
L 132.169091 293.235573 
L 132.803182 293.178799 
L 134.071364 294.52537 
L 134.705455 294.540492 
L 135.339545 294.421501 
L 135.973636 294.667382 
L 137.241818 294.628758 
L 137.875909 294.95366 
L 141.046364 294.797474 
L 141.680455 295.05636 
L 142.314545 295.165461 
L 142.948636 295.058591 
L 146.119091 295.488 
L 146.753182 295.323756 
L 148.021364 295.311185 
L 148.655455 295.256788 
L 149.923636 295.331975 
L 150.557727 295.249758 
L 151.191818 295.419411 
L 151.825909 295.469141 
L 152.46 295.284917 
L 154.362273 295.178467 
L 157.532727 295.290901 
L 158.800909 295.230281 
L 159.435 295.26781 
L 160.069091 295.084645 
L 160.703182 294.712362 
L 161.337273 294.833044 
L 161.971364 295.071759 
L 163.239545 294.629252 
L 164.507727 294.895927 
L 167.044091 295.066324 
L 167.678182 294.661935 
L 168.312273 294.584424 
L 168.946364 294.815052 
L 170.848636 294.453531 
L 171.482727 294.658867 
L 172.116818 294.326315 
L 172.750909 294.200322 
L 173.385 294.491187 
L 174.019091 294.459514 
L 174.653182 294.157822 
L 175.287273 293.664529 
L 175.921364 293.485163 
L 176.555455 293.883263 
L 177.189545 294.06469 
L 177.823636 293.572457 
L 178.457727 293.597259 
L 179.725909 293.095052 
L 181.628182 293.804186 
L 182.262273 293.503367 
L 182.896364 293.525077 
L 183.530455 293.229435 
L 184.164545 293.394509 
L 184.798636 293.686734 
L 185.432727 293.315817 
L 186.700909 292.966855 
L 187.335 293.130149 
L 187.969091 292.557199 
L 188.603182 292.587634 
L 189.237273 293.163909 
L 189.871364 292.935203 
L 190.505455 292.926902 
L 191.139545 293.376278 
L 191.773636 293.429641 
L 192.407727 292.958975 
L 193.675909 292.92396 
L 194.31 292.394646 
L 194.944091 292.467202 
L 195.578182 293.158725 
L 196.212273 293.204472 
L 196.846364 292.632293 
L 197.480455 292.789502 
L 198.114545 293.529721 
L 198.748636 293.252856 
L 199.382727 292.756286 
L 200.650909 293.098064 
L 201.285 293.587013 
L 202.553182 294.157698 
L 203.187273 293.954967 
L 203.821364 294.177084 
L 204.455455 293.877754 
L 205.089545 293.720591 
L 205.723636 294.075226 
L 206.357727 293.731407 
L 207.625909 293.648283 
L 208.26 293.414757 
L 208.894091 293.675969 
L 209.528182 293.769731 
L 210.162273 294.065971 
L 211.430455 293.542841 
L 212.064545 293.675007 
L 212.698636 294.399135 
L 213.332727 294.594666 
L 213.966818 294.563757 
L 214.600909 294.840198 
L 215.869091 294.106986 
L 217.137273 294.356037 
L 217.771364 293.649712 
L 218.405455 293.747111 
L 219.039545 294.153773 
L 219.673636 294.237794 
L 220.307727 293.908591 
L 220.941818 293.008835 
L 222.21 293.605741 
L 222.844091 292.882186 
L 223.478182 293.214221 
L 224.112273 293.31405 
L 224.746364 292.886254 
L 225.380455 292.621105 
L 226.014545 292.864579 
L 227.282727 292.891931 
L 227.916818 292.814612 
L 228.550909 292.621339 
L 229.185 292.979593 
L 229.819091 293.533326 
L 230.453182 292.951441 
L 231.087273 292.594441 
L 231.721364 292.588832 
L 232.355455 292.252782 
L 232.989545 292.229659 
L 234.257727 291.59012 
L 235.525909 292.047549 
L 236.16 291.079043 
L 236.794091 290.722135 
L 237.428182 291.372408 
L 238.062273 291.434352 
L 238.696364 292.215764 
L 239.330455 292.244043 
L 239.964545 291.49717 
L 240.598636 291.761171 
L 241.232727 291.72402 
L 241.866818 291.570862 
L 243.135 292.023884 
L 243.769091 291.846739 
L 244.403182 291.373745 
L 245.037273 291.18294 
L 246.305455 291.195113 
L 246.939545 290.92656 
L 247.573636 291.875623 
L 248.207727 291.398254 
L 248.841818 291.89285 
L 249.475909 291.3896 
L 250.11 290.574258 
L 250.744091 290.932719 
L 251.378182 291.703849 
L 252.012273 291.519556 
L 252.646364 291.146816 
L 253.280455 291.65169 
L 253.914545 291.778958 
L 254.548636 290.984791 
L 255.182727 290.738839 
L 255.816818 291.441268 
L 256.450909 291.365083 
L 257.085 291.618247 
L 257.719091 292.326887 
L 258.353182 291.960803 
L 258.987273 291.121289 
L 259.621364 290.879173 
L 260.255455 291.110679 
L 260.889545 291.482874 
L 261.523636 291.317422 
L 263.425909 291.825177 
L 264.06 291.630949 
L 264.694091 291.211906 
L 265.328182 290.611623 
L 265.962273 289.698413 
L 267.230455 291.216704 
L 267.864545 290.877324 
L 268.498636 290.935404 
L 269.132727 289.728939 
L 269.766818 290.22955 
L 271.035 289.31231 
L 271.669091 289.572958 
L 272.303182 289.315856 
L 272.937273 289.897042 
L 273.571364 289.879194 
L 274.839545 288.885547 
L 275.473636 288.929799 
L 276.741818 287.48389 
L 277.375909 286.708747 
L 278.01 287.916164 
L 278.644091 287.915413 
L 279.278182 287.186373 
L 279.912273 286.687606 
L 280.546364 288.225978 
L 281.814545 286.450277 
L 282.448636 287.574007 
L 283.082727 288.059317 
L 284.350909 285.15266 
L 284.985 283.976412 
L 285.619091 284.604775 
L 286.253182 283.339758 
L 286.887273 283.064216 
L 287.521364 283.190904 
L 288.155455 283.013364 
L 288.789545 283.761366 
L 289.423636 283.582429 
L 290.057727 284.849614 
L 290.691818 282.278266 
L 291.325909 283.583813 
L 291.96 284.283086 
L 292.594091 282.903203 
L 293.228182 281.870387 
L 294.496364 277.987641 
L 295.130455 281.231293 
L 295.764545 283.18987 
L 296.398636 278.869375 
L 297.032727 278.793952 
L 297.666818 279.768678 
L 298.300909 278.953448 
L 298.935 279.628937 
L 299.569091 278.738226 
L 300.203182 279.652475 
L 300.837273 278.142126 
L 302.105455 276.725299 
L 302.739545 277.442559 
L 303.373636 277.87974 
L 304.007727 275.83001 
L 304.641818 278.604798 
L 305.275909 281.904366 
L 305.91 280.778128 
L 306.544091 279.9173 
L 307.178182 278.825954 
L 307.812273 278.842518 
L 308.446364 279.446851 
L 309.080455 278.844309 
L 309.714545 276.166877 
L 310.348636 279.437243 
L 310.982727 280.775936 
L 311.616818 279.154401 
L 312.250909 275.208535 
L 312.885 275.669526 
L 313.519091 277.166861 
L 314.153182 277.114826 
L 314.787273 276.462485 
L 315.421364 281.664078 
L 316.055455 282.109359 
L 317.323636 279.061066 
L 317.957727 277.000105 
L 318.591818 275.397923 
L 319.225909 278.776525 
L 319.86 279.489352 
L 320.494091 278.243401 
L 321.128182 277.781272 
L 321.762273 276.872917 
L 322.396364 279.998489 
L 323.030455 279.157571 
L 323.664545 281.700768 
L 324.298636 281.193731 
L 324.932727 276.787667 
L 326.200909 280.130008 
L 326.835 283.417897 
L 328.103182 281.256676 
L 329.371364 282.779064 
L 330.005455 281.743164 
L 330.639545 282.55136 
L 331.273636 281.153798 
L 331.907727 280.965415 
L 332.541818 281.737275 
L 333.175909 280.796668 
L 333.81 277.906776 
L 334.444091 280.347325 
L 335.078182 281.605509 
L 335.712273 279.422215 
L 336.346364 281.878148 
L 336.980455 282.218254 
L 337.614545 279.560461 
L 338.248636 278.953935 
L 338.882727 280.201586 
L 339.516818 280.845985 
L 340.150909 281.195414 
L 340.785 281.866 
L 341.419091 283.615953 
L 342.053182 283.983238 
L 342.687273 282.52541 
L 343.321364 281.88157 
L 343.955455 282.720357 
L 344.589545 282.1538 
L 345.223636 280.006967 
L 345.857727 279.316463 
L 346.491818 280.626144 
L 347.125909 280.695925 
L 347.76 282.168075 
L 348.394091 283.025567 
L 349.028182 284.649632 
L 349.662273 284.066734 
L 350.296364 282.600666 
L 350.930455 279.613127 
L 351.564545 279.29211 
L 352.198636 279.967628 
L 352.832727 280.316722 
L 353.466818 283.359464 
L 354.100909 283.927071 
L 354.735 280.843066 
L 355.369091 280.529064 
L 356.003182 283.500645 
L 356.637273 283.391637 
L 357.271364 282.60286 
L 357.905455 281.073111 
L 358.539545 281.287498 
L 359.173636 282.626051 
L 359.807727 283.252051 
L 360.441818 282.690581 
L 361.075909 282.677193 
L 361.71 282.069882 
L 362.344091 283.005425 
L 362.978182 284.607759 
L 364.246364 285.311301 
L 364.880455 284.433094 
L 366.148636 281.822467 
L 366.782727 282.373608 
L 367.416818 282.578617 
L 368.050909 283.45757 
L 369.319091 281.360167 
L 370.587273 284.388669 
L 371.221364 284.759201 
L 371.855455 284.219664 
L 372.489545 282.358461 
L 373.123636 283.138186 
L 373.757727 282.646303 
L 375.025909 282.672865 
L 375.66 282.439782 
L 376.294091 281.390507 
L 376.928182 283.728257 
L 377.562273 283.998527 
L 378.196364 282.879109 
L 378.830455 286.253796 
L 379.464545 285.106729 
L 380.098636 282.68035 
L 380.732727 284.555335 
L 381.366818 283.336945 
L 382.000909 281.213931 
L 382.635 281.630106 
L 383.903182 282.942966 
L 384.537273 282.360148 
L 385.171364 281.329487 
L 385.805455 281.431441 
L 386.439545 282.210463 
L 387.073636 283.471266 
L 387.707727 283.420194 
L 388.975909 277.169455 
L 389.61 278.320592 
L 390.244091 281.656771 
L 390.878182 278.49123 
L 391.512273 278.256299 
L 392.146364 277.356463 
L 392.780455 277.896796 
L 393.414545 277.982916 
L 394.048636 277.806866 
L 394.682727 277.352157 
L 395.316818 277.298988 
L 395.950909 279.091542 
L 396.585 278.872435 
L 397.219091 276.578122 
L 397.853182 276.700212 
L 398.487273 283.301898 
L 398.487273 283.301898 
" clip-path="url(#pbf7045c468)" style="fill: none; stroke: #ff7f0e; stroke-width: 1.5; stroke-linecap: square"/>
   </g>
   <g id="line2d_29">
    <path d="M 73.832727 228.504209 
L 75.100909 80.447795 
L 77.637273 215.116717 
L 78.271364 235.424772 
L 78.905455 247.309588 
L 79.539545 256.088742 
L 80.173636 254.235769 
L 80.807727 255.805014 
L 81.441818 256.650466 
L 82.075909 258.833857 
L 82.71 264.496754 
L 83.344091 268.021943 
L 83.978182 267.720205 
L 84.612273 269.137819 
L 85.880455 274.006607 
L 86.514545 273.102267 
L 87.148636 273.35959 
L 87.782727 273.027389 
L 88.416818 275.851985 
L 89.050909 276.503121 
L 89.685 278.027613 
L 90.319091 277.031945 
L 90.953182 272.383432 
L 91.587273 274.795022 
L 92.855455 283.096268 
L 93.489545 282.226233 
L 94.123636 283.357845 
L 95.391818 277.622783 
L 96.025909 278.919377 
L 96.66 281.661143 
L 97.294091 282.856685 
L 97.928182 282.860756 
L 98.562273 285.011019 
L 99.196364 284.316814 
L 99.830455 284.633462 
L 100.464545 283.149176 
L 101.732727 286.130108 
L 102.366818 285.276386 
L 103.000909 286.138126 
L 103.635 286.612961 
L 104.269091 286.645781 
L 104.903182 287.711985 
L 105.537273 285.68335 
L 106.171364 284.875894 
L 107.439545 285.840578 
L 108.707727 283.816866 
L 109.341818 283.99633 
L 109.975909 285.251276 
L 110.61 284.554321 
L 111.244091 282.564086 
L 111.878182 283.164298 
L 112.512273 284.378319 
L 113.780455 283.336123 
L 114.414545 283.53551 
L 115.048636 281.796317 
L 115.682727 280.878627 
L 116.316818 280.928697 
L 116.950909 281.381076 
L 117.585 280.831494 
L 118.219091 281.095383 
L 118.853182 282.998696 
L 119.487273 283.25161 
L 120.121364 282.442995 
L 120.755455 282.786694 
L 121.389545 283.5146 
L 122.023636 284.758789 
L 122.657727 283.209227 
L 123.291818 284.018247 
L 123.925909 285.587299 
L 124.56 283.539515 
L 125.194091 281.983583 
L 125.828182 283.505853 
L 126.462273 285.569918 
L 127.096364 285.321066 
L 127.730455 283.917766 
L 128.364545 284.25645 
L 128.998636 285.038158 
L 129.632727 282.801169 
L 130.266818 280.983887 
L 130.900909 280.679601 
L 131.535 283.549185 
L 132.169091 284.679743 
L 132.803182 284.326277 
L 133.437273 283.620525 
L 134.071364 283.211739 
L 134.705455 283.923595 
L 135.339545 285.184144 
L 136.607727 283.704067 
L 137.241818 284.420919 
L 137.875909 285.552433 
L 138.51 284.65296 
L 139.144091 284.367128 
L 139.778182 282.134242 
L 140.412273 279.452237 
L 141.046364 281.019931 
L 141.680455 285.775012 
L 142.314545 283.750688 
L 142.948636 284.868715 
L 143.582727 286.937021 
L 144.216818 286.837837 
L 145.485 286.102761 
L 146.119091 285.230687 
L 146.753182 286.075225 
L 147.387273 285.85136 
L 148.655455 283.399664 
L 149.289545 284.136929 
L 150.557727 287.901146 
L 151.191818 288.505134 
L 151.825909 287.459468 
L 152.46 286.915465 
L 153.094091 285.80657 
L 153.728182 285.673684 
L 154.362273 287.266862 
L 154.996364 288.550439 
L 155.630455 288.901294 
L 156.264545 289.830512 
L 156.898636 289.701144 
L 157.532727 288.747833 
L 158.166818 289.2642 
L 158.800909 289.000206 
L 159.435 289.690295 
L 160.069091 289.715286 
L 160.703182 287.662946 
L 161.337273 287.544629 
L 161.971364 289.091382 
L 162.605455 288.536702 
L 163.239545 286.406754 
L 163.873636 287.638118 
L 164.507727 289.972363 
L 165.141818 289.075613 
L 165.775909 289.383994 
L 166.41 290.086186 
L 167.044091 291.309214 
L 167.678182 289.95592 
L 168.312273 290.092489 
L 168.946364 289.616086 
L 169.580455 289.606629 
L 170.214545 290.110887 
L 170.848636 290.199831 
L 171.482727 291.343502 
L 172.116818 290.666322 
L 172.750909 290.732472 
L 173.385 291.042564 
L 174.019091 290.782587 
L 174.653182 290.09713 
L 175.287273 288.638994 
L 175.921364 288.001065 
L 176.555455 289.438639 
L 177.189545 289.568441 
L 177.823636 288.325169 
L 178.457727 288.964274 
L 179.091818 288.47142 
L 179.725909 287.57976 
L 180.36 288.937393 
L 180.994091 289.877974 
L 181.628182 289.681671 
L 182.262273 289.141144 
L 182.896364 289.185853 
L 183.530455 288.110319 
L 184.164545 288.307632 
L 184.798636 289.850985 
L 185.432727 288.970934 
L 186.066818 288.467109 
L 186.700909 288.188614 
L 187.335 288.581031 
L 187.969091 288.069426 
L 188.603182 287.999056 
L 189.237273 289.375281 
L 189.871364 288.672955 
L 190.505455 287.643249 
L 191.139545 288.989372 
L 191.773636 289.822188 
L 192.407727 289.582749 
L 193.041818 289.598306 
L 194.31 288.505507 
L 194.944091 288.968269 
L 195.578182 289.817785 
L 196.212273 290.101574 
L 196.846364 289.656565 
L 197.480455 289.959214 
L 198.114545 290.919719 
L 198.748636 290.254852 
L 199.382727 289.306817 
L 200.016818 289.095552 
L 200.650909 289.832049 
L 201.285 291.148727 
L 201.919091 291.714577 
L 203.187273 291.874525 
L 203.821364 292.259834 
L 204.455455 292.087477 
L 205.089545 291.747244 
L 205.723636 292.525003 
L 206.357727 291.817554 
L 206.991818 291.759199 
L 208.26 292.119659 
L 208.894091 292.73416 
L 209.528182 291.961933 
L 210.162273 292.275287 
L 210.796364 292.15875 
L 211.430455 291.550875 
L 212.064545 292.306796 
L 212.698636 293.450904 
L 213.966818 293.969112 
L 214.600909 294.087709 
L 216.503182 293.964676 
L 217.137273 294.086162 
L 217.771364 293.828548 
L 218.405455 293.125639 
L 219.039545 293.672801 
L 219.673636 293.93725 
L 220.307727 293.897066 
L 220.941818 293.319285 
L 221.575909 293.182217 
L 222.21 293.232341 
L 222.844091 292.868023 
L 223.478182 293.373865 
L 224.112273 293.202394 
L 225.380455 291.573895 
L 226.014545 292.096618 
L 226.648636 291.79525 
L 227.282727 291.782205 
L 227.916818 291.217687 
L 228.550909 290.923943 
L 229.185 290.242709 
L 229.819091 290.298646 
L 230.453182 289.283459 
L 231.087273 289.017234 
L 231.721364 288.588864 
L 232.989545 283.051149 
L 233.623636 282.193238 
L 234.257727 279.548423 
L 234.891818 279.061322 
L 235.525909 280.182148 
L 236.16 278.741394 
L 236.794091 280.788039 
L 237.428182 284.947649 
L 238.062273 285.324104 
L 238.696364 287.880459 
L 239.330455 287.955981 
L 239.964545 288.720856 
L 240.598636 289.132209 
L 241.232727 289.975824 
L 241.866818 289.979839 
L 242.500909 290.163327 
L 243.135 291.491203 
L 243.769091 291.608377 
L 244.403182 290.988482 
L 245.037273 291.352934 
L 245.671364 292.302819 
L 246.939545 291.398905 
L 247.573636 292.290158 
L 248.207727 292.635794 
L 248.841818 291.917273 
L 249.475909 292.200072 
L 250.744091 293.072946 
L 251.378182 292.937574 
L 252.012273 292.66616 
L 252.646364 292.811806 
L 253.280455 292.834532 
L 253.914545 292.640188 
L 254.548636 292.931312 
L 255.182727 292.827634 
L 256.450909 292.215776 
L 257.085 292.135815 
L 257.719091 292.246089 
L 258.353182 292.053469 
L 258.987273 292.057517 
L 259.621364 292.797953 
L 260.255455 293.097022 
L 260.889545 292.394377 
L 261.523636 292.187584 
L 262.157727 292.27118 
L 262.791818 291.820153 
L 263.425909 291.073407 
L 264.06 290.910552 
L 264.694091 291.048066 
L 265.962273 289.436654 
L 266.596364 289.783138 
L 267.230455 290.548483 
L 267.864545 290.469806 
L 269.132727 289.949824 
L 269.766818 290.306268 
L 270.400909 289.860718 
L 271.035 288.460887 
L 271.669091 288.418529 
L 272.303182 288.173928 
L 272.937273 288.530453 
L 274.205455 286.295219 
L 274.839545 283.784209 
L 275.473636 283.814855 
L 276.107727 284.476374 
L 276.741818 283.946735 
L 277.375909 283.143058 
L 278.01 284.297673 
L 278.644091 284.186655 
L 279.278182 281.757802 
L 279.912273 281.17644 
L 280.546364 284.465612 
L 281.180455 283.706307 
L 281.814545 281.746053 
L 282.448636 284.469937 
L 283.082727 284.932812 
L 283.716818 283.546217 
L 284.350909 281.469971 
L 284.985 280.879357 
L 285.619091 281.542914 
L 286.253182 280.665472 
L 286.887273 280.501254 
L 288.789545 281.496689 
L 289.423636 282.374502 
L 290.057727 284.999637 
L 290.691818 281.422737 
L 291.325909 282.039345 
L 291.96 283.113887 
L 293.228182 282.996723 
L 294.496364 280.054276 
L 295.130455 282.768335 
L 295.764545 284.234121 
L 296.398636 281.492501 
L 297.032727 280.453 
L 298.300909 282.229693 
L 298.935 283.944496 
L 299.569091 282.950192 
L 300.203182 282.196058 
L 302.105455 280.495826 
L 302.739545 281.18009 
L 303.373636 282.601719 
L 304.007727 281.73556 
L 304.641818 282.565063 
L 305.275909 284.688176 
L 305.91 285.067438 
L 306.544091 284.478547 
L 307.178182 283.580297 
L 308.446364 285.24825 
L 309.080455 285.426569 
L 309.714545 283.566347 
L 310.348636 285.593167 
L 310.982727 286.525514 
L 311.616818 285.993274 
L 312.250909 284.980706 
L 312.885 284.205838 
L 313.519091 283.895761 
L 314.153182 285.081257 
L 314.787273 285.536159 
L 315.421364 287.254407 
L 316.055455 286.887011 
L 317.323636 286.01206 
L 317.957727 285.191903 
L 318.591818 284.152855 
L 319.225909 285.766725 
L 319.86 286.732145 
L 320.494091 285.536786 
L 321.128182 286.373566 
L 321.762273 286.366976 
L 322.396364 287.482243 
L 323.030455 286.3588 
L 323.664545 288.008556 
L 324.298636 287.289825 
L 324.932727 285.061322 
L 325.566818 287.047862 
L 326.200909 287.939218 
L 326.835 287.899178 
L 328.103182 288.364065 
L 328.737273 289.283426 
L 329.371364 289.315567 
L 330.005455 288.930182 
L 330.639545 289.067316 
L 331.273636 288.802521 
L 331.907727 288.343963 
L 332.541818 289.622741 
L 333.175909 288.703191 
L 335.078182 288.544822 
L 335.712273 287.908359 
L 336.346364 287.971031 
L 336.980455 289.621838 
L 337.614545 289.137543 
L 338.248636 288.388641 
L 338.882727 289.654875 
L 339.516818 290.226841 
L 340.150909 289.830224 
L 340.785 289.234366 
L 341.419091 289.631545 
L 342.053182 290.57115 
L 342.687273 290.339672 
L 343.321364 289.617849 
L 344.589545 289.759947 
L 345.223636 288.861331 
L 345.857727 289.387075 
L 346.491818 290.331308 
L 347.125909 290.751837 
L 347.76 290.415196 
L 348.394091 290.801762 
L 349.028182 291.03844 
L 349.662273 290.763907 
L 350.296364 291.740815 
L 350.930455 291.015738 
L 352.198636 291.678463 
L 352.832727 290.334348 
L 353.466818 289.383638 
L 354.100909 290.344348 
L 354.735 289.923516 
L 355.369091 290.674872 
L 356.003182 290.738915 
L 356.637273 289.936337 
L 358.539545 290.646501 
L 359.173636 290.274837 
L 359.807727 289.463811 
L 360.441818 289.501859 
L 361.075909 289.941379 
L 361.71 288.868195 
L 362.344091 289.717832 
L 362.978182 291.377829 
L 363.612273 290.527411 
L 364.246364 289.255068 
L 364.880455 289.331201 
L 365.514545 290.087663 
L 366.148636 289.659425 
L 366.782727 289.725807 
L 368.050909 289.291844 
L 368.685 290.140426 
L 369.319091 289.829651 
L 369.953182 289.02151 
L 370.587273 289.087888 
L 371.221364 289.730126 
L 371.855455 288.87655 
L 372.489545 288.688202 
L 373.123636 289.559903 
L 373.757727 290.187794 
L 374.391818 289.461068 
L 375.025909 288.251773 
L 376.294091 288.875508 
L 377.562273 287.141492 
L 378.830455 288.645721 
L 379.464545 288.983268 
L 380.098636 287.95304 
L 380.732727 288.495889 
L 381.366818 288.470575 
L 382.000909 287.742761 
L 382.635 288.765813 
L 383.269091 288.313803 
L 383.903182 287.073341 
L 384.537273 286.850593 
L 385.171364 286.08228 
L 385.805455 286.870724 
L 386.439545 288.691132 
L 387.073636 289.532942 
L 387.707727 289.754163 
L 388.341818 287.616284 
L 388.975909 287.140282 
L 389.61 288.583925 
L 390.244091 288.097143 
L 390.878182 287.408748 
L 391.512273 287.887031 
L 392.146364 287.550611 
L 393.414545 287.185772 
L 394.048636 288.429139 
L 394.682727 288.192034 
L 395.316818 287.051044 
L 395.950909 287.67586 
L 396.585 288.834095 
L 397.219091 287.196037 
L 397.853182 287.092329 
L 398.487273 291.156 
L 398.487273 291.156 
" clip-path="url(#pbf7045c468)" style="fill: none; stroke: #2ca02c; stroke-width: 1.5; stroke-linecap: square"/>
   </g>
   <g id="patch_3">
    <path d="M 57.6 307.584 
L 57.6 41.472 
" style="fill: none; stroke: #000000; stroke-width: 0.8; stroke-linejoin: miter; stroke-linecap: square"/>
   </g>
   <g id="patch_4">
    <path d="M 414.72 307.584 
L 414.72 41.472 
" style="fill: none; stroke: #000000; stroke-width: 0.8; stroke-linejoin: miter; stroke-linecap: square"/>
   </g>
   <g id="patch_5">
    <path d="M 57.6 307.584 
L 414.72 307.584 
" style="fill: none; stroke: #000000; stroke-width: 0.8; stroke-linejoin: miter; stroke-linecap: square"/>
   </g>
   <g id="patch_6">
    <path d="M 57.6 41.472 
L 414.72 41.472 
" style="fill: none; stroke: #000000; stroke-width: 0.8; stroke-linejoin: miter; stroke-linecap: square"/>
   </g>
   <g id="text_16">
    <!-- Gyro Noise Spectral Density -->
    <g transform="translate(152.01 35.472) scale(0.12 -0.12)">
     <defs>
      <path id="DejaVuSans-47" d="M 3809 666 
L 3809 1919 
L 2778 1919 
L 2778 2438 
L 4434 2438 
L 4434 434 
Q 4069 175 3628 42 
Q 3188 -91 2688 -91 
Q 1594 -91 976 548 
Q 359 1188 359 2328 
Q 359 3472 976 4111 
Q 1594 4750 2688 4750 
Q 3144 4750 3555 4637 
Q 3966 4525 4313 4306 
L 4313 3634 
Q 3963 3931 3569 4081 
Q 3175 4231 2741 4231 
Q 1884 4231 1454 3753 
Q 1025 3275 1025 2328 
Q 1025 1384 1454 906 
Q 1884 428 2741 428 
Q 3075 428 3337 486 
Q 3600 544 3809 666 
z
" transform="scale(0.015625)"/>
      <path id="DejaVuSans-6f" d="M 1959 3097 
Q 1497 3097 1228 2736 
Q 959 2375 959 1747 
Q 959 1119 1226 758 
Q 1494 397 1959 397 
Q 2419 397 2687 759 
Q 2956 1122 2956 1747 
Q 2956 2369 2687 2733 
Q 2419 3097 1959 3097 
z
M 1959 3584 
Q 2709 3584 3137 3096 
Q 3566 2609 3566 1747 
Q 3566 888 3137 398 
Q 2709 -91 1959 -91 
Q 1206 -91 779 398 
Q 353 888 353 1747 
Q 353 2609 779 3096 
Q 1206 3584 1959 3584 
z
" transform="scale(0.015625)"/>
      <path id="DejaVuSans-4e" d="M 628 4666 
L 1478 4666 
L 3547 763 
L 3547 4666 
L 4159 4666 
L 4159 0 
L 3309 0 
L 1241 3903 
L 1241 0 
L 628 0 
L 628 4666 
z
" transform="scale(0.015625)"/>
     </defs>
     <use xlink:href="#DejaVuSans-47"/>
     <use xlink:href="#DejaVuSans-79" x="77.490234"/>
     <use xlink:href="#DejaVuSans-72" x="136.669922"/>
     <use xlink:href="#DejaVuSans-6f" x="175.533203"/>
     <use xlink:href="#DejaVuSans-20" x="236.714844"/>
     <use xlink:href="#DejaVuSans-4e" x="268.501953"/>
     <use xlink:href="#DejaVuSans-6f" x="343.306641"/>
     <use xlink:href="#DejaVuSans-69" x="404.488281"/>
     <use xlink:href="#DejaVuSans-73" x="432.271484"/>
     <use xlink:href="#DejaVuSans-65" x="484.371094"/>
     <use xlink:href="#DejaVuSans-20" x="545.894531"/>
     <use xlink:href="#DejaVuSans-53" x="577.681641"/>
     <use xlink:href="#DejaVuSans-70" x="641.158203"/>
     <use xlink:href="#DejaVuSans-65" x="704.634766"/>
     <use xlink:href="#DejaVuSans-63" x="766.158203"/>
     <use xlink:href="#DejaVuSans-74" x="821.138672"/>
     <use xlink:href="#DejaVuSans-72" x="860.347656"/>
     <use xlink:href="#DejaVuSans-61" x="901.460938"/>
     <use xlink:href="#DejaVuSans-6c" x="962.740234"/>
     <use xlink:href="#DejaVuSans-20" x="990.523438"/>
     <use xlink:href="#DejaVuSans-44" x="1022.310547"/>
     <use xlink:href="#DejaVuSans-65" x="1099.3125"/>
     <use xlink:href="#DejaVuSans-6e" x="1160.835938"/>
     <use xlink:href="#DejaVuSans-73" x="1224.214844"/>
     <use xlink:href="#DejaVuSans-69" x="1276.314453"/>
     <use xlink:href="#DejaVuSans-74" x="1304.097656"/>
     <use xlink:href="#DejaVuSans-79" x="1343.306641"/>
    </g>
   </g>
   <g id="legend_1">
    <g id="patch_7">
     <path d="M 363.452813 93.506375 
L 407.72 93.506375 
Q 409.72 93.506375 409.72 91.506375 
L 409.72 48.472 
Q 409.72 46.472 407.72 46.472 
L 363.452813 46.472 
Q 361.452813 46.472 361.452813 48.472 
L 361.452813 91.506375 
Q 361.452813 93.506375 363.452813 93.506375 
z
" style="fill: #ffffff; opacity: 0.8; stroke: #cccccc; stroke-linejoin: miter"/>
    </g>
    <g id="line2d_30">
     <path d="M 365.452813 54.570438 
L 375.452813 54.570438 
L 385.452813 54.570438 
" style="fill: none; stroke: #1f77b4; stroke-width: 1.5; stroke-linecap: square"/>
    </g>
    <g id="text_17">
     <!-- gx -->
     <g transform="translate(393.452813 58.070438) scale(0.1 -0.1)">
      <defs>
       <path id="DejaVuSans-67" d="M 2906 1791 
Q 2906 2416 2648 2759 
Q 2391 3103 1925 3103 
Q 1463 3103 1205 2759 
Q 947 2416 947 1791 
Q 947 1169 1205 825 
Q 1463 481 1925 481 
Q 2391 481 2648 825 
Q 2906 1169 2906 1791 
z
M 3481 434 
Q 3481 -459 3084 -895 
Q 2688 -1331 1869 -1331 
Q 1566 -1331 1297 -1286 
Q 1028 -1241 775 -1147 
L 775 -588 
Q 1028 -725 1275 -790 
Q 1522 -856 1778 -856 
Q 2344 -856 2625 -561 
Q 2906 -266 2906 331 
L 2906 616 
Q 2728 306 2450 153 
Q 2172 0 1784 0 
Q 1141 0 747 490 
Q 353 981 353 1791 
Q 353 2603 747 3093 
Q 1141 3584 1784 3584 
Q 2172 3584 2450 3431 
Q 2728 3278 2906 2969 
L 2906 3500 
L 3481 3500 
L 3481 434 
z
" transform="scale(0.015625)"/>
       <path id="DejaVuSans-78" d="M 3513 3500 
L 2247 1797 
L 3578 0 
L 2900 0 
L 1881 1375 
L 863 0 
L 184 0 
L 1544 1831 
L 300 3500 
L 978 3500 
L 1906 2253 
L 2834 3500 
L 3513 3500 
z
" transform="scale(0.015625)"/>
      </defs>
      <use xlink:href="#DejaVuSans-67"/>
      <use xlink:href="#DejaVuSans-78" x="63.476562"/>
     </g>
    </g>
    <g id="line2d_31">
     <path d="M 365.452813 69.248563 
L 375.452813 69.248563 
L 385.452813 69.248563 
" style="fill: none; stroke: #ff7f0e; stroke-width: 1.5; stroke-linecap: square"/>
    </g>
    <g id="text_18">
     <!-- gy -->
     <g transform="translate(393.452813 72.748563) scale(0.1 -0.1)">
      <use xlink:href="#DejaVuSans-67"/>
      <use xlink:href="#DejaVuSans-79" x="63.476562"/>
     </g>
    </g>
    <g id="line2d_32">
     <path d="M 365.452813 83.926688 
L 375.452813 83.926688 
L 385.452813 83.926688 
" style="fill: none; stroke: #2ca02c; stroke-width: 1.5; stroke-linecap: square"/>
    </g>
    <g id="text_19">
     <!-- gz -->
     <g transform="translate(393.452813 87.426688) scale(0.1 -0.1)">
      <use xlink:href="#DejaVuSans-67"/>
      <use xlink:href="#DejaVuSans-7a" x="63.476562"/>
     </g>
    </g>
   </g>
  </g>
 </g>
 <defs>
  <clipPath id="pbf7045c468">
   <rect x="57.6" y="41.472" width="357.12" height="266.112"/>
  </clipPath>
 </defs>
</svg>
